<svg xmlns="http://www.w3.org/2000/svg" xmlns:xlink="http://www.w3.org/1999/xlink" width="64" height="57.079" fill-rule="evenodd" stroke-linejoin="round" stroke-miterlimit="1.414" clip-rule="evenodd" enable-background="new"><linearGradient xlink:href="#a" id="l" x1="19.063" x2="19" y1="0" y2="43.25" gradientTransform="matrix(.9504 0 0 .91401 29.943 -23.161)" gradientUnits="userSpaceOnUse"/><linearGradient id="a" x1=".025" x2="1" y1=".079" y2="0" gradientTransform="rotate(90 177.831 370.053)scale(473.895)" gradientUnits="userSpaceOnUse"><stop offset="0" stop-color="#ec2802"/><stop offset="1" stop-color="#fcb200"/></linearGradient><linearGradient id="b"><stop offset="0" stop-color="#aaa"/><stop offset="1" stop-color="#424242"/></linearGradient><clipPath id="n"><path d="M14.813 26.75 19 15.945l4.187 10.805L19 43.25z"/></clipPath><linearGradient xlink:href="#b" id="h" x1="48.748" x2="48.748" y1="2.538" y2="59.381" gradientTransform="matrix(.84565 0 0 .82217 6.564 -53.72)" gradientUnits="userSpaceOnUse"/><linearGradient id="e" x1="35.337" x2="35.337" y1="1.321" y2="-2.412" gradientTransform="matrix(.95579 0 0 1.0104 .419 -.765)" gradientUnits="userSpaceOnUse"><stop offset="0"/><stop offset="1" stop-opacity="0"/></linearGradient><filter id="o" width="1.192" height="1.148" x="-.096" y="-.074" color-interpolation-filters="sRGB"><feGaussianBlur stdDeviation="1.002"/></filter><linearGradient xlink:href="#a" id="d" x1="2.574" x2="63.51" y1="-.589" y2="-.589" gradientTransform="matrix(.95579 0 0 1.0104 .419 -.765)" gradientUnits="userSpaceOnUse"/><filter id="p" width="1.129" height="1.113" x="-.064" y="-.056" color-interpolation-filters="sRGB"><feGaussianBlur stdDeviation=".967"/></filter><linearGradient xlink:href="#b" id="f" x1="48.748" x2="48.748" y1="2.538" y2="59.381" gradientTransform="matrix(.9697 0 0 .95131 .485 -1.184)" gradientUnits="userSpaceOnUse"/><filter id="q" width="1.015" height="1.019" x="-.008" y="-.009" color-interpolation-filters="sRGB"><feGaussianBlur stdDeviation=".17"/></filter><filter id="j" width="1.018" height="1.016" x="-.009" y="-.008" color-interpolation-filters="sRGB"><feGaussianBlur stdDeviation=".135"/></filter><g stroke-width=".983" transform="translate(0 4.4)"><rect width="58.242" height="6.079" x="2.879" y="-4.4" fill="url(#d)" rx="2.073" ry="2.106"/><rect width="58.242" height="6.079" x="2.879" y="-4.4" fill="url(#e)" opacity=".5" rx="2.073" ry="2.106"/></g><g transform="translate(-16 1.862)"><rect width="64" height="54.297" x="16" y=".72" fill="#dedede" rx="3.407" ry="3.442"/><rect width="64" height="53.987" x="16" y="1.23" fill="url(#f)" rx="3.407" ry="3.423"/><rect width="55.813" height="46.658" x="20.094" y="-51.634" fill="url(#h)" rx="1.643" ry="1.654" transform="scale(1 -1)"/></g><g transform="translate(0 -2.921)"><rect width="55.226" height="45.616" x="4.387" y="10.259" rx="1.531"/><path fill="#14232b" d="M5.545 11.216h52.91v43.702H5.545z"/></g><g filter="url(#j)" transform="translate(-16 32.9)"><path fill="#069efe" d="m44.994 1.2-.943 2.284c2.534 7.804 2.534 7.804 3.949 14.611 1.415-6.807 1.415-6.807 3.949-14.61l-.943-2.286L48-6.084z"/><path fill="url(#l)" d="M44.674-23.161h6.652l14.731 36.56H59.88L48-14.524 36.12 13.399h-6.177z"/><path fill="#fff" d="M19 32.395 31.5 0 6.5.133z" clip-path="url(#n)" filter="url(#o)" transform="matrix(.94315 0 0 .90705 30.08 -20.547)"/></g><g filter="url(#p)" transform="translate(-16 32.9)"><path fill="#069efe" d="m44.994 1.2-.943 2.284c2.534 7.804 2.534 7.804 3.949 14.611 1.415-6.807 1.415-6.807 3.949-14.61l-.943-2.286L48-6.084z"/><path fill="url(#l)" d="M44.674-23.161h6.652l14.731 36.56H59.88L48-14.524 36.12 13.399h-6.177z"/><path fill="#fff" d="M19 32.395 31.5 0 6.5.133z" clip-path="url(#n)" filter="url(#o)" transform="matrix(.94315 0 0 .90705 30.08 -20.547)"/></g><path d="M21.486 29.433h53.028M21.486 44.835h53.028M21.486 32.734h53.028m-53.028 6.6h53.028M21.486 7.431h53.028M21.486 33.834h53.028M21.486 22.833h53.028m-53.028-8.801h53.028M21.486 25.033h53.028M21.486 11.832h53.028M21.486 47.035h53.028m-53.028 1.1h53.028M21.486 28.333h53.028m-53.028-2.2h53.028m-53.028 1.1h53.028m-53.028-3.3h53.028M21.486 45.935h53.028M21.486 9.631h53.028m-53.028 1.101h53.028m-53.028 2.2h53.028M21.486 37.134h53.028m-53.028 1.1h53.028m-53.028 5.501h53.028M21.486 17.332h53.028M21.486 40.434h53.028m-53.028 1.1h53.028M21.486 6.331h53.028M21.486 30.533h53.028m-53.028 1.1h53.028M21.486 49.235h53.028M21.486 16.232h53.028m-53.028-1.1h53.028M21.486 36.034h53.028M21.486 50.335h53.028M21.486 20.632h53.028m-53.028 1.101h53.028M21.486 42.634h53.028M21.486 18.432h53.028m-53.028 1.1h53.028M21.486 34.934h53.028M21.486 8.531h53.028" style="opacity:.75;fill:none;stroke:#000;stroke-width:.25;stroke-linejoin:miter;stroke-miterlimit:1.41421;filter:url(#q)" transform="translate(-16 1.862)"/></svg>