<svg xmlns="http://www.w3.org/2000/svg" width="1000" height="262.05" viewBox="0 0 1000 262.045"><defs><linearGradient id="b" x1="-5167.1" x2="-4570.1" y1="697.55" y2="1395.6" gradientTransform="rotate(168.445 -509.547 169.43)scale(.22038)" gradientUnits="userSpaceOnUse"><stop offset="0" style="stop-color:#f69923"/><stop offset=".312" style="stop-color:#f79a23"/><stop offset=".838" style="stop-color:#e97826"/></linearGradient><linearGradient id="c" x1="-9585.3" x2="-5326.2" y1="620.5" y2="620.5" gradientTransform="rotate(168.445 -509.547 169.43)scale(.22038)" gradientUnits="userSpaceOnUse"><stop offset=".323" style="stop-color:#9e2064"/><stop offset=".63" style="stop-color:#c92037"/><stop offset=".751" style="stop-color:#cd2335"/><stop offset="1" style="stop-color:#e97826"/></linearGradient><linearGradient id="m" x1="-9071.2" x2="-6533.2" y1="1047.7" y2="1047.7" gradientTransform="rotate(168.445 -509.547 169.43)scale(.22038)" gradientUnits="userSpaceOnUse"><stop offset="0" style="stop-color:#282662"/><stop offset=".095" style="stop-color:#662e8d"/><stop offset=".788" style="stop-color:#9f2064"/><stop offset=".949" style="stop-color:#cd2032"/></linearGradient><linearGradient id="d" x1="-9346.1" x2="-5087" y1="580.82" y2="580.82" gradientTransform="rotate(168.445 -509.547 169.43)scale(.22038)" gradientUnits="userSpaceOnUse"><stop offset=".323" style="stop-color:#9e2064"/><stop offset=".63" style="stop-color:#c92037"/><stop offset=".751" style="stop-color:#cd2335"/><stop offset="1" style="stop-color:#e97826"/></linearGradient><linearGradient id="a" x1="-9035.5" x2="-6797.2" y1="638.44" y2="638.44" gradientTransform="rotate(168.445 -509.547 169.43)scale(.22038)" gradientUnits="userSpaceOnUse"><stop offset="0" style="stop-color:#282662"/><stop offset=".095" style="stop-color:#662e8d"/><stop offset=".788" style="stop-color:#9f2064"/><stop offset=".949" style="stop-color:#cd2032"/></linearGradient><linearGradient id="e" x1="-9346.1" x2="-5087" y1="1021.6" y2="1021.6" gradientTransform="rotate(168.445 -509.547 169.43)scale(.22038)" gradientUnits="userSpaceOnUse"><stop offset=".323" style="stop-color:#9e2064"/><stop offset=".63" style="stop-color:#c92037"/><stop offset=".751" style="stop-color:#cd2335"/><stop offset="1" style="stop-color:#e97826"/></linearGradient><linearGradient id="f" x1="-9610.3" x2="-5351.2" y1="999.73" y2="999.73" gradientTransform="rotate(168.445 -509.547 169.43)scale(.22038)" gradientUnits="userSpaceOnUse"><stop offset=".323" style="stop-color:#9e2064"/><stop offset=".63" style="stop-color:#c92037"/><stop offset=".751" style="stop-color:#cd2335"/><stop offset="1" style="stop-color:#e97826"/></linearGradient><linearGradient id="h" x1="-9346.1" x2="-5087" y1="1137.7" y2="1137.7" gradientTransform="rotate(168.445 -509.547 169.43)scale(.22038)" gradientUnits="userSpaceOnUse"><stop offset=".323" style="stop-color:#9e2064"/><stop offset=".63" style="stop-color:#c92037"/><stop offset=".751" style="stop-color:#cd2335"/><stop offset="1" style="stop-color:#e97826"/></linearGradient><linearGradient id="i" x1="-6953.4" x2="-6012" y1="1134.7" y2="1134.7" gradientTransform="rotate(168.445 -509.547 169.43)scale(.22038)" gradientUnits="userSpaceOnUse"><stop offset=".323" style="stop-color:#9e2064"/><stop offset=".63" style="stop-color:#c92037"/><stop offset=".751" style="stop-color:#cd2335"/><stop offset="1" style="stop-color:#e97826"/></linearGradient></defs><path d="M656.71-7.09c20.267-9.595 39.714-20.145 58.137-31.856.646-.424 1.3-.8 1.946-1.223-7.515 19.097-3.838 52.585-3.754 52.44 11.85-34.711 26.515-65.255 48.744-84.672 8.483 7.593 14.923 21.83 20.214 39.882 2.619-24.85-1.858-38.732-4.051-43.8 10.917 12.949 30.734 20.177 52.045 26.46-23.946-14.535-39.792-28.877-46.004-42.954 68.312-21.018 142.29-46.157 219.96-74.026-6.092-4.591-12.639-5.17-19.442-3.17-14.023 5.1-106.22 38.311-231.64 76.243-3.563 1.078-7.157 2.151-10.768 3.238-1.007.307-2.026.597-3.015.891a4626 4626 0 0 1-40.462 11.92c-3.144.904-6.287 1.808-9.448 2.725a2 2 0 0 1-.18.052L654.476-6.005c.712-.336 1.494-.724 2.24-1.086z" style="fill:url(#a)" transform="translate(-3.943 180.23)"/><path d="M23.148 66.817c19.071 7.196 39.608 9.085 59.733 11.274 11.854 1.123 23.738 1.914 35.63 2.493l24.508-51.311c-31.491.856-63.087.176-94.393-3.54 30.943 3.102 62.137 1.849 93.129.17-22.37-26.67-46.909-51.428-71.93-75.588-23.519 11.839-46.291 28.35-58.634 52.244-6.3 14.546-9.95 31.534-4.821 46.98 2.756 7.895 9.065 14.16 16.773 17.278z" style="fill:url(#b)" transform="translate(-3.943 180.23)"/><path d="M280.24-67.689c-.154-.133-.29-.28-.443-.412l2.62 2.83c.233.13.44.223.655.366-.947-.944-1.898-1.858-2.832-2.784m88.48-31.776c1.689 1.464 3.316 3.029 4.92 4.638a108 108 0 0 0-4.92-4.638m272.17 28.111a91 91 0 0 0-2.304.666 4084 4084 0 0 1-46.643 12.908 3771 3771 0 0 1-49.773 13.09 3452 3452 0 0 1-49.58 12.314 3188 3188 0 0 1-48.887 11.362 2919 2919 0 0 1-37.426 8.133c-4.033.85-8.048 1.688-12.029 2.499a3646 3646 0 0 1-23.223 4.68 1965 1965 0 0 1-20.659 3.96c-2.254.436-4.487.83-6.724 1.253-.357.073-.728.129-1.085.202l2.226 2.41-2.559 5.134c.552-.107 1.099-.184 1.664-.273a2080 2080 0 0 0 30.84-5.582 2685 2685 0 0 0 67.826-13.717A2901 2901 0 0 0 492.93-23.63c16.449-3.828 32.823-7.793 49.096-11.82a4002 4002 0 0 0 48.306-12.33 3805 3805 0 0 0 49.245-13.247c3.646-1.003 7.292-2.005 10.926-3.025a4828 4828 0 0 0 38.464-10.878l4.055-8.11-2.497-2.703c-.38.117-.76.234-1.121.338a4486 4486 0 0 1-48.514 14.048zM374.86-93.622c-.012-.018-.03-.004-.044-.022 0 0 .012.018.044.022" style="fill:none" transform="translate(-3.943 180.23)"/><path d="M415.36-112.67c2.517 2.359 5.082 4.82 7.717 7.337.012.018.044.022.057.04-1.289-1.294-2.564-2.57-3.862-3.803s-2.587-2.416-3.912-3.574" style="fill:#be202e" transform="translate(-3.943 180.23)"/><path d="M415.36-112.67c2.517 2.359 5.082 4.82 7.717 7.337.012.018.044.022.057.04-1.289-1.294-2.564-2.57-3.862-3.803s-2.587-2.416-3.912-3.574" style="opacity:.35;fill:#be202e" transform="translate(-3.943 180.23)"/><path d="M374.77-93.666s.012.018.03.005c.013.017.032.004.045.022-.394-.421-.811-.798-1.192-1.201a102 102 0 0 0-4.92-4.638c1.968 1.915 3.998 3.84 6.037 5.812" style="fill:#be202e" transform="translate(-3.943 180.23)"/><path d="M374.77-93.666s.012.018.03.005c.013.017.032.004.045.022-.394-.421-.811-.798-1.192-1.201a102 102 0 0 0-4.92-4.638c1.968 1.915 3.998 3.84 6.037 5.812" style="opacity:.35;fill:#be202e" transform="translate(-3.943 180.23)"/><path d="M294.05 14.992a1626 1626 0 0 1-50.218 6.643c-17.122 1.995-33.955 3.639-50.416 4.896-.957.079-1.945.153-2.92.244-16.217 1.216-32.063 2.045-47.488 2.48L118.5 80.566c3.16.154 6.354.282 9.61.419 12.252.464 25.27.743 38.903.814 15.365.076 31.56-.134 48.36-.602a1599 1599 0 0 0 48.05-2.128 1648 1648 0 0 0 42.839-3.091c.542-.046 1.068-.078 1.61-.124 13.32-22.17 22.89-45.722 34.335-68.583a2144 2144 0 0 1-48.157 7.721" style="fill:url(#c)" transform="translate(-3.943 180.23)"/><path d="M639.56-61.012a4661 4661 0 0 1-49.245 13.247 3794 3794 0 0 1-48.306 12.331 3444 3444 0 0 1-49.096 11.819 3100 3100 0 0 1-50.376 11.314 2765 2765 0 0 1-49.89 10.268 2857 2857 0 0 1-17.936 3.45 2087 2087 0 0 1-30.84 5.581c-.552.107-1.098.184-1.663.273l-34.33 68.583c1.085-.091 2.156-.2 3.241-.29 15.39-1.37 31.015-2.941 46.78-4.807a1528 1528 0 0 0 48.061-6.443 1438 1438 0 0 0 40.724-6.682 2412 2412 0 0 0 8.18-1.511 1011 1011 0 0 0 48.365-10.29c17.296-4.127 33.51-8.494 48.61-12.995a890 890 0 0 0 28.43-8.98 861 861 0 0 0 22.71-8.223c17.654-6.642 34.84-13.842 51.5-21.64 11.64-22.613 23.67-45.588 34.514-68.935a4882 4882 0 0 1-38.5 10.904c-3.615 1.007-7.28 2.022-10.926 3.025z" style="fill:url(#d)" transform="translate(-3.943 180.23)"/><path d="M343.66-.501c2.22-.41 4.456-.835 6.724-1.254 6.76-1.28 13.634-2.592 20.66-3.959 7.593-1.488 15.324-3.05 23.222-4.68 3.98-.812 7.965-1.654 12.03-2.5a2913 2913 0 0 0 37.425-8.132 3195 3195 0 0 0 48.887-11.362 3443 3443 0 0 0 49.58-12.315 3923 3923 0 0 0 49.772-13.09A4106 4106 0 0 0 638.603-70.7a92 92 0 0 0 2.305-.666A4221 4221 0 0 0 689.39-85.42c.38-.117.76-.234 1.121-.338l-19.143-20.676c.24.508.528 1.008.767 1.516-23.296-24.428-69.92-45.278-111.88-49.997-19.338-2.178-39.994-1.843-62.413.925-16.69 2.06-34.353 5.47-53.19 10.22-16.465 4.14-33.815 9.267-52.185 15.424 7.839 3.764 15.478 9.073 22.931 15.646 1.294 1.153 2.614 2.342 3.912 3.574s2.592 2.496 3.863 3.804c-.012-.018-.045-.023-.057-.04-28.247-17.932-58.622-19.938-89.973-14.526 9.392 3.269 23.242 9.626 35.603 20.379 1.689 1.463 3.315 3.028 4.92 4.637.412.408.81.798 1.192 1.201-.012-.017-.031-.004-.044-.022 0 0-.012-.018-.031-.004-10.105-6.007-19.623-10.334-29.164-13.137a87 87 0 0 0-6.145-1.59 98 98 0 0 0-9.432-1.621 91 91 0 0 0-6.124-.563 109 109 0 0 0-14.877.138c-1.56.115-3.126.26-4.727.432a518 518 0 0 0-6.53 1.11c-9.644 1.72-18.002 3.582-25.18 5.446-3.588.932-6.86 1.849-9.848 2.775-1.188.36-2.345.724-3.453 1.079-3.312 1.084-6.205 2.103-8.696 3.073-3.728 1.447-6.57 2.758-8.567 3.8a34 34 0 0 1 4.166 1.438c10.15 4.217 23.89 14.166 33.59 23.215l-17.582-18.98 17.583 18.98c.153.133.29.28.443.412.951.914 1.898 1.858 2.863 2.789-.233-.13-.44-.173-.655-.315l60.164 64.89c.34-.06.68-.12 1.05-.175z" style="fill:url(#e)" transform="translate(-3.943 180.23)"/><path d="M141.76 25.871c14.308-.869 30.359-2.124 48.242-3.943.926-.083 1.888-.193 2.831-.289a1589 1589 0 0 0 50.488-6.02 1856 1856 0 0 0 50.245-7.458A2174 2174 0 0 0 342.61-.326l-59.49-64.57c-24.736-13.566-40.82-16.793-59.84-16.546-5.176.16-10.524.422-15.983.793-16.71 1.142-34.469 3.279-51.604 6.106-16.54 2.743-32.435 6.133-46.23 9.914-8.771 2.415-16.684 4.99-23.332 7.642a212 212 0 0 0-16.287 7.301c25.101 24.05 54.59 54.423 71.931 75.557z" style="fill:url(#f)" transform="translate(-3.943 180.23)"/><path d="M374.86-93.622c-.394-.42-.811-.798-1.192-1.201.381.403.78.793 1.192 1.201" style="fill:#be202e" transform="translate(-3.943 180.23)"/><path d="M374.86-93.622c-.394-.42-.811-.798-1.192-1.201.381.403.78.793 1.192 1.201" style="opacity:.35;fill:#be202e" transform="translate(-3.943 180.23)"/><path d="M374.86-93.622c-.394-.42-.811-.798-1.192-1.201.381.403.78.793 1.192 1.201" style="fill:url(#h)" transform="translate(-3.943 180.23)"/><path d="M374.81-93.662s-.012-.018-.03-.004c0 0 .011.017.03.004" style="fill:#be202e" transform="translate(-3.943 180.23)"/><path d="M374.81-93.662s-.012-.018-.03-.004c0 0 .011.017.03.004" style="opacity:.35;fill:#be202e" transform="translate(-3.943 180.23)"/><path d="M374.81-93.662s-.012-.018-.03-.004c0 0 .011.017.03.004" style="fill:url(#i)" transform="translate(-3.943 180.23)"/><path d="m963.76 60.139.001 2.579 6.039-.004.009 17.057 2.798-.001-.009-17.057 6.083-.003-.002-2.579zm34.886-.018-6.736 13.711-6.795-13.704-3.372.002.009 19.636 2.578-.002-.009-15.58 6.685 13.505h1.785l6.67-13.514.01 15.581h2.579l-.01-19.637z" style="fill:#6d6e71" transform="translate(-3.943 180.23)"/><path d="M697.74-87.882a4324 4324 0 0 0 39.192-11.856c.199-.065.38-.117.578-.182 1.881-.571 3.749-1.16 5.63-1.732 8.95-2.767 16.955-5.328 35.178-11.129-2.342-10.966 2.618-24.849 9.169-39.363-11.075 9.226-18.387 22.082-20.063 37.4-28.142-41.769-64.174-69.018-107.07-65.116a93 93 0 0 0-11.624 1.787c16.438.488 28.367 7.363 41.449 27.265.044.022.1.062.145.085-.044-.023-.101-.063-.145-.085-33.43-18.78-55.964-23.938-85.227-21.557-6.936.561-14.25 1.54-22.182 2.866 43.476 5.873 71.79 29.037 88.586 63.086l.776 1.494 18.367 19.182c2.419-.696 4.825-1.41 7.249-2.137z" style="fill:url(#m)" transform="translate(-3.943 180.23)"/></svg>