<svg xmlns="http://www.w3.org/2000/svg" xmlns:xlink="http://www.w3.org/1999/xlink" width="48" height="48"><defs><linearGradient id="b"><stop style="stop-color:#f8bac0;stop-opacity:.730612"/><stop offset="1" style="stop-color:#f8bac0;stop-opacity:0"/></linearGradient><linearGradient id="a"><stop style="stop-color:#dd1627"/><stop offset="1" style="stop-color:#df3e52"/></linearGradient><linearGradient xlink:href="#a" id="c" x1="442.171" x2="426.271" y1="531.698" y2="516.998" gradientTransform="translate(-597.171 -726.573)scale(1.42857)" gradientUnits="userSpaceOnUse"/><linearGradient xlink:href="#b" id="d" x1="46.232" x2="73.027" y1="10.38" y2="35.663" gradientTransform="translate(-52)" gradientUnits="userSpaceOnUse"/></defs><path d="M.735 43.065 24 .71l23.087 42.312s-2.212-.155-5.271-.291c-2.851-.127-1.794.113-8.279-1.089-4.91-.91-8.522-2.865-15.253-2.727-7.453.153-17.55 4.149-17.55 4.149" style="fill:#85151f"/><path d="M6.032 37.701 23.98 4.764l19.246 35.624s.111.276-.39.133c-.471-.134-.874-.53-1.362-.487-.41.035-.656.63-1.063.564-.582-.093-.88-1.202-1.47-1.185-.518.016-.39 1.007-1.165 1.073-.687.058-.575-1.827-1.267-1.885-.47-.04-.574 1.942-1.156 1.941-.616 0 .026-2.85-.863-2.897-.695-.037-.312 2.501-.937 2.504-.861.003-.13-4.157-1.192-4.14-.754.013.058 3.852-.925 3.84-.905-.012-.033-5.941-1.05-5.87-.838.059.104 5.304-.819 5.326-1.117.026-.004-7.306-1.114-7.316-.98-.008-.102 6.486-1.005 6.486-1.094 0 .004-8.38-1.037-8.435-1.131-.06.277 8.418-.957 8.409-1.19-.009.34-10.64-1.04-10.74-1.13-.084.31 9.95-.85 9.994-1.219.047.368-11.687-1.073-11.691-1.055-.003.074 11.242-1.019 11.4-1.01-.222.202-12.413-.978-12.417-1.218-.004.206 12.118-1.055 12.148-1.058.014.448-12.166-.939-12.125-1.276.038.049 12.066-1 12.053-1.132-.013.29-11.13-.98-11.056-.967.5-.037 8.599-.965 11.171-1.017-1.007.074-7.962-1.058-9.186-.928 1.336-.202 9.355-.957 9.386-.927.044-.045-6.292-1.039-6.352-.595-.036-.91 7.177-1.64 7.205-.847.085-.753-4.057-1.339-4.044-.68.086-.501 4.532-1.393 4.543-.512.121-.636-1.753-1.093-1.709-.41.04-.488 1.971-1.168 2.32-.62.084-.319-.592.164-1.648" style="fill:url(#c);color:#000"/><path d="M.735 43.065 24 .71l23.087 42.312s-2.212-.155-5.271-.291c-2.851-.127-1.794.113-8.279-1.089-4.91-.91-8.522-2.865-15.253-2.727-7.453.153-17.55 4.149-17.55 4.149" style="fill:url(#d);color:#000"/></svg>