<svg xmlns="http://www.w3.org/2000/svg" viewBox="0 0 48 48"><defs><linearGradient id="a" x2="0" y1="653.96" y2="301.3" gradientUnits="userSpaceOnUse"><stop stop-color="#c52828"/><stop offset="1" stop-color="#ff5454"/></linearGradient></defs><g fill="#fff" fill-opacity=".851" transform="translate(-7.921 -2972.05)scale(2.87497)"><circle cx="-325.89" cy="478.75" r="173.45" fill="url(#a)" fill-opacity="1" transform="translate(26.788 1019.08)scale(.04813)"/><g transform="translate(3.352 1032.975)scale(.39752)"><circle cx="12" cy="18" r="2"/><circle cx="17" cy="18" r="2"/><circle cx="22" cy="18" r="2"/><circle cx="27" cy="18" r="2"/></g><g transform="translate(3.352 1034.962)scale(.39752)"><circle cx="12" cy="18" r="2"/><circle cx="17" cy="18" r="2"/><circle cx="22" cy="18" r="2"/><circle cx="27" cy="18" r="2"/></g><g transform="translate(3.352 1036.95)scale(.39752)"><circle cx="27" cy="18" r="2" transform="translate(5 -5)"/><circle cx="27" cy="18" r="2" transform="translate(-20 -5)"/><circle cx="27" cy="18" r="2" transform="translate(-20)"/><circle cx="27" cy="18" r="2" transform="translate(-15)"/><circle cx="27" cy="18" r="2" transform="translate(5)"/><circle cx="27" cy="18" r="2"/></g></g></svg>