<svg xmlns="http://www.w3.org/2000/svg" width="899" height="293" viewBox="0 0 899 293"><title>Icon/cl@ve</title><g id="Mi-sede" fill="none" fill-rule="evenodd" stroke="none" stroke-width="1"><g id="Group" fill-rule="nonzero"><path id="clve" fill="#575757" d="M88.3 190.457a39.9 39.9 0 0 1-7.67 8.768q-8.597 7.326-19.75 7.325-20.448 0-32.067-15.193Q17.428 176.705 17.427 155q0-21.706 11.386-36.357 5.345-7.053 13.129-11.124 7.784-4.07 18.938-4.07t19.75 7.326c2.87 2.444 5.35 5.66 7.442 8.83l.075.11 5.825-.002h14.589l-.045-.109Q102.87 106.43 92.48 97.481 77.611 85 57.161 85q-25.56 0-41.593 20.349Q0 125.155 0 155t15.568 49.651Q31.602 225 57.162 225q20.448 0 35.32-12.48c6.99-6.022 12.369-13.172 16.138-22.063zM213 222.876V37h-19.88v185.876zm449.24 0 51.693-132.769h-21.738l-41.62 111.526L608.69 90.107h-21.738l51.959 132.769zm175.996-15.932q-18.5 0-30.5-12.215-11.75-11.95-13.75-30.271h104.75v-7.966q0-29.475-16.5-48.594-17.5-19.915-45.5-19.915t-45.5 19.915q-16.5 19.119-16.5 48.594 0 29.208 17.25 48.593 17.75 19.915 46 19.915m-44.25-79.13q2.5-17.525 13.5-28.412 11.75-11.418 29-11.418t29 11.418q11.001 10.887 13.5 28.412z"/><g id="clave" fill="#ff5a00" transform="translate(267.224)"><path id="Combined-Shape" d="M146.5 0c80.1 0 145.187 64.285 146.48 144.077l.02 2.423h-22.197c0-68.65-55.652-124.303-124.303-124.303S22.197 77.849 22.197 146.5c0 67.964 54.545 123.189 122.247 124.286l2.056.017V293C65.59 293 0 227.41 0 146.5S65.59 0 146.5 0m-4.44 77.69c20.502 0 38.839 9.572 51.054 24.629v-6.872h22.197v102.106h-22.197v-6.871c-12.215 15.056-30.553 24.629-51.053 24.629-36.778 0-66.591-30.808-66.591-68.811s29.813-68.81 66.59-68.81m0 48.833c-7.355 0-13.318 5.962-13.318 13.318a13.31 13.31 0 0 0 6.384 11.372l.275.164v15.1l5.55 6.66h4.44v-6.66h1.109v-2.22h-1.11v-3.329h2.22v-8.977c4.585-2.104 7.769-6.735 7.769-12.11 0-7.356-5.963-13.318-13.318-13.318m0 11.098a2.22 2.22 0 1 1 0 4.44 2.22 2.22 0 0 1 0-4.44"/></g></g></g></svg>