<svg xmlns="http://www.w3.org/2000/svg" width="48" height="48"><path fill="#37474f" d="M24 5a19 19 0 1 0 0 38 19 19 0 1 0 0-38"/><path fill="#ff7043" d="m25.064 25.167 2.409 6.331c.546.741 1.195 1.389 1.969 1.828 2.419 1.373 5.5.581 6.881-1.769-.001 0-10.983-6.179-11.259-6.39"/><path fill="#f16461" d="M25.064 25.167c.323.129 11.259 6.389 11.259 6.389 1.38-2.351.538-5.369-1.882-6.742-.774-.439-1.669-.667-2.595-.762z"/><path fill="#ff5252" d="M33.492 26.545a7.5 7.5 0 0 0-.929-.435c.104.993-.085 2.024-.632 2.955s-1.36 1.607-2.287 2.015c.276.211.557.408.848.573 3.031 1.72 5.001 1.314 5.83-.096s.201-3.292-2.83-5.012"/><path fill="#ff855f" d="M27.664 29.134c.589.71 1.256 1.392 1.981 1.945a4.93 4.93 0 0 0 2.287-2.015 4.8 4.8 0 0 0 .632-2.955c-.85-.34-1.785-.567-2.704-.713a3.87 3.87 0 0 1-.525 2.194 3.96 3.96 0 0 1-1.671 1.544"/><path fill="#ff8a65" d="M29.645 31.08c-.725-.553-1.392-1.236-1.981-1.945a4 4 0 0 1-1.343.384c.317.683.698 1.363 1.153 1.98.749.017 1.49-.12 2.171-.419"/><path fill="#ff8a80" d="M29.859 25.397c.92.147 1.855.373 2.704.713a4.85 4.85 0 0 0-.717-2.058 12 12 0 0 0-2.32.009c.187.424.306.874.333 1.336"/><path fill="#ffccbc" d="M29.334 27.59c.406-.691.57-1.452.525-2.194-2.472-.394-4.795-.229-4.795-.229s1.016 2.06 2.6 3.967a3.95 3.95 0 0 0 1.67-1.544"/><path fill="#ffab91" d="M27.664 29.134c-1.584-1.907-2.6-3.967-2.6-3.967a.47.47 0 0 0-.054.338c.153.742.55 2.379 1.31 4.014a4 4 0 0 0 1.344-.385"/><path fill="#ffcdd2" d="M29.526 24.061c-1.821.17-3.461.651-4.191.892a.48.48 0 0 0-.27.215s2.323-.165 4.795.229a3.9 3.9 0 0 0-.334-1.336"/><path fill="#c6cf47" d="M22.922 25.167c-.276.211-11.258 6.389-11.258 6.389 1.381 2.35 4.461 3.142 6.881 1.769.774-.439 1.423-1.087 1.969-1.828z"/><path fill="#e1eb8a" d="m22.922 25.167-6.782-1.115c-.926.094-1.822.323-2.595.762-2.419 1.373-3.262 4.391-1.882 6.742.001 0 10.936-6.259 11.259-6.389"/><path fill="#dce775" d="M17.494 31.653a8 8 0 0 0 .848-.573 4.93 4.93 0 0 1-2.287-2.015 4.8 4.8 0 0 1-.632-2.955c-.323.129-.638.27-.929.435-3.031 1.72-3.658 3.6-2.83 5.011.829 1.411 2.799 1.817 5.83.097"/><path fill="#fff59d" d="M18.127 25.397c-.92.147-1.855.373-2.704.713a4.8 4.8 0 0 0 .632 2.955 4.93 4.93 0 0 0 2.287 2.015c.725-.553 1.392-1.236 1.981-1.945a3.95 3.95 0 0 1-1.67-1.544 3.86 3.86 0 0 1-.526-2.194"/><path fill="#e6ee9c" d="M15.423 26.11c.85-.34 1.785-.567 2.704-.713.028-.462.146-.912.333-1.336-.76-.071-1.55-.087-2.32-.009a4.86 4.86 0 0 0-.717 2.058"/><path fill="#ffd740" d="M20.323 29.134c-.589.71-1.256 1.392-1.981 1.945.681.3 1.422.437 2.172.419.455-.617.835-1.297 1.153-1.98a4 4 0 0 1-1.344-.384"/><path fill="#fff9c4" d="M18.653 27.59a3.95 3.95 0 0 0 1.67 1.544c1.584-1.907 2.6-3.967 2.6-3.967s-2.323-.165-4.795.229a3.85 3.85 0 0 0 .525 2.194"/><path fill="#f0f4c3" d="M18.127 25.397c2.472-.394 4.795-.229 4.795-.229a.5.5 0 0 0-.27-.215c-.731-.241-2.371-.721-4.191-.892a3.9 3.9 0 0 0-.334 1.336"/><path fill="#ffe082" d="M21.666 29.518c.76-1.635 1.157-3.271 1.31-4.014a.47.47 0 0 0-.054-.338s-1.016 2.06-2.6 3.967a4 4 0 0 0 1.344.385"/><path fill="#f44336" d="M41.37 28.654a18 18 0 0 1-1.794 4.339l1.731.999a19.8 19.8 0 0 0 1.993-4.821z"/><path fill="#ffd740" d="m11.272 36.728-1.414 1.414a20 20 0 0 0 4.15 3.165l.999-1.731a18 18 0 0 1-3.735-2.848"/><path fill="#aed581" d="M6 24H4c0 1.792.258 3.519.7 5.172l1.93-.517A18 18 0 0 1 6 24"/><path fill="#fff176" d="m8.424 32.993-1.731.999a20 20 0 0 0 3.165 4.15l1.414-1.414a18 18 0 0 1-2.848-3.735"/><path fill="#dce775" d="m6.63 28.654-1.93.518a20 20 0 0 0 1.993 4.821l1.731-.999a18 18 0 0 1-1.794-4.34"/><path fill="#ffca28" d="m15.007 39.576-.999 1.731a20 20 0 0 0 4.821 1.993l.517-1.93a18 18 0 0 1-4.339-1.794"/><path fill="#ff7043" d="m32.993 39.576.999 1.731a20 20 0 0 0 4.15-3.165l-1.414-1.414a18 18 0 0 1-3.735 2.848"/><path fill="#fb8c00" d="m28.654 41.37.517 1.93a20 20 0 0 0 4.821-1.993l-.999-1.731a18 18 0 0 1-4.339 1.794"/><path fill="#ff5252" d="m36.728 36.728 1.414 1.414a20 20 0 0 0 3.165-4.15l-1.731-.999a18 18 0 0 1-2.848 3.735"/><path fill="#ffb74d" d="m19.346 41.37-.517 1.93c1.652.442 3.379.7 5.171.7v-2c-1.612 0-3.167-.232-4.654-.63"/><path fill="#ffa726" d="M24 42v2c1.792 0 3.519-.258 5.172-.7l-.517-1.93A18 18 0 0 1 24 42"/><path fill="#64b5f6" d="m19.346 6.63-.518-1.93a20 20 0 0 0-4.821 1.993l.999 1.731a18 18 0 0 1 4.34-1.794"/><path fill="#9575cd" d="m41.37 19.346 1.93-.517a20 20 0 0 0-1.993-4.821l-1.731.999a18 18 0 0 1 1.794 4.339"/><path fill="#7986cb" d="m39.576 15.007 1.731-.999a20 20 0 0 0-3.165-4.15l-1.414 1.414a18 18 0 0 1 2.848 3.735"/><path fill="#8c9eff" d="m36.728 11.272 1.414-1.414a20 20 0 0 0-4.15-3.165l-.999 1.731a18 18 0 0 1 3.735 2.848"/><path fill="#82b1ff" d="m32.993 8.424.999-1.731a19.8 19.8 0 0 0-4.82-1.993l-.517 1.93a18 18 0 0 1 4.338 1.794"/><path fill="#f06292" d="M42 24h2c0-1.792-.258-3.519-.7-5.172l-1.93.517A18 18 0 0 1 42 24"/><path fill="#9ccc65" d="m6.63 19.346-1.93-.518C4.258 20.481 4 22.208 4 24h2c0-1.612.232-3.167.63-4.654"/><path fill="#ef5350" d="m41.37 28.654 1.93.517c.442-1.652.7-3.379.7-5.171h-2c0 1.612-.232 3.167-.63 4.654"/><path fill="#64b5f6" d="m28.654 6.63.517-1.93A20 20 0 0 0 24 4v2c1.612 0 3.167.232 4.654.63"/><path fill="#68c1b8" d="M11.272 11.272 9.858 9.858a20 20 0 0 0-3.165 4.15l1.731.999a18 18 0 0 1 2.848-3.735"/><path fill="#81c784" d="m8.424 15.007-1.731-.999a19.8 19.8 0 0 0-1.993 4.82l1.93.517a18 18 0 0 1 1.794-4.338"/><path fill="#4db6ac" d="m15.007 8.424-.999-1.731a20 20 0 0 0-4.15 3.165l1.414 1.414a18 18 0 0 1 3.735-2.848"/><path fill="#4ba9f5" d="M24 6V4c-1.792 0-3.519.258-5.172.7l.517 1.93A18 18 0 0 1 24 6"/><path fill="#7986cb" d="M24.001 11 24 24c.115 0 .23-.042.324-.125C25.433 22.896 29 19.477 29 16.059c0-2.794-2.238-5.058-4.999-5.059"/><path fill="#26a69a" d="M24 11q-.002 0 0 0c-2.761 0-5 2.265-5 5.059 0 3.418 3.567 6.837 4.676 7.816A.5.5 0 0 0 24 24z"/><path fill="#82b1ff" d="M24 11c-1.658 0-3 1.5-3 5 0 3.59 3 8 3 8s3-4.41 3-8c0-3.5-1.343-5-3-5"/><path fill="#4db6ac" d="M24 11c.543 0 .941.092.997.105C26.723 11.498 28 12.872 28 14.5c0 .91-.41 1.74-1.06 2.36.01-.07-2.659-5.83-2.94-5.86"/><path fill="#90caf9" d="M25.82 20.66C24.98 22.56 24 24 24 24s-.98-1.44-1.82-3.34a5.03 5.03 0 0 0 3.64 0"/><path fill="#8dd0ca" d="M21.06 16.86C20.4 16.25 20 15.41 20 14.5c0-1.69 1.37-3.1 3.19-3.43.16-.03.641-.07.81-.07-1.51.18-2.98 5.57-2.94 5.86"/><path fill="#80cbc4" d="M27 16c0 .14 0 .29-.02.43 0 .14-.02.29-.04.43-.73.7-1.78 1.14-2.94 1.14s-2.21-.44-2.94-1.14c-.04-.29-.06-.58-.06-.86 0-3.28 1.18-4.8 2.69-4.98.1-.02.21-.02.31-.02s.21 0 .31.02c.28.03.56.11.81.25.08.04.16.09.24.14s.16.11.24.19c.07.06.14.12.2.19.23.24.44.54.6.91.05.11.1.22.14.33.05.12.09.24.13.37.04.11.07.23.09.35.04.16.08.32.1.49.04.19.07.4.09.61.03.35.05.74.05 1.15"/><path fill="#9fa8da" d="M28.98 16.45c-.25 3.29-3.59 6.49-4.66 7.43-.09.08-.2.12-.32.12 0 0 .98-1.44 1.82-3.34a5.04 5.04 0 0 0 3.16-4.21"/><path fill="#81c784" d="M24 24c-.12 0-.23-.04-.32-.12-1.07-.94-4.41-4.14-4.66-7.43a5.04 5.04 0 0 0 3.16 4.21C23.02 22.56 24 24 24 24"/></svg>