<svg xmlns="http://www.w3.org/2000/svg" xmlns:xlink="http://www.w3.org/1999/xlink" width="512" height="512"><defs><clipPath id="b"><path d="M0 0h512v512H0z"/></clipPath><clipPath id="c"><path d="M0 0h512v512H0z"/></clipPath><clipPath id="d"><path d="M0 0h512v512H0z"/></clipPath><clipPath id="e"><path d="M0 0h512v512H0z"/></clipPath><clipPath id="f"><path d="M0 0h512v512H0z"/></clipPath><clipPath id="g"><path d="M0 0h512v512H0z"/></clipPath><clipPath id="h"><path d="M0 0h512v512H0z"/></clipPath><mask id="j"><g filter="url(#a)"><path d="M0 0h512v512H0z" style="fill:#000;fill-opacity:.2;stroke:none"/></g></mask><mask id="l"><g filter="url(#a)"><path d="M0 0h512v512H0z" style="fill:#000;fill-opacity:.2;stroke:none"/></g></mask><mask id="n"><g filter="url(#a)"><path d="M0 0h512v512H0z" style="fill:#000;fill-opacity:.2;stroke:none"/></g></mask><mask id="p"><g filter="url(#a)"><path d="M0 0h512v512H0z" style="fill:#000;fill-opacity:.2;stroke:none"/></g></mask><mask id="r"><g filter="url(#a)"><path d="M0 0h512v512H0z" style="fill:#000;fill-opacity:.2;stroke:none"/></g></mask><mask id="t"><g filter="url(#a)"><path d="M0 0h512v512H0z" style="fill:#000;fill-opacity:.2;stroke:none"/></g></mask><mask id="v"><g filter="url(#a)"><path d="M0 0h512v512H0z" style="fill:#000;fill-opacity:.2;stroke:none"/></g></mask><g id="i" clip-path="url(#b)"><path d="M272.063 288 248 301.875v105.406l24.063 13.938 24.062 13.875 24.063-13.875v-27.125l-24.063-13.906v-78.313Zm-80 52.906L168 354.781v105.407l24.063 13.937L216.125 488l24.063-13.875v-27.094l-24.063-13.937V354.78Zm0 0" style="stroke:none;fill-rule:nonzero;fill:#000;fill-opacity:1"/></g><g id="k" clip-path="url(#c)"><path d="m200 108.285 128 73.899v147.804l-128 73.899-128-73.899V182.184Zm0 0" style="stroke:none;fill-rule:nonzero;fill:#000;fill-opacity:1"/></g><g id="m" clip-path="url(#d)"><path d="m280 52.066 112 64.664v129.33l-112 64.66-112-64.66V116.73Zm0 0" style="stroke:none;fill-rule:nonzero;fill:#000;fill-opacity:1"/></g><g id="o" clip-path="url(#e)"><path d="m368 236.719-64 10.656v21.344l64 32 64-32v-21.344Zm0 0" style="stroke:none;fill-rule:nonzero;fill:#000;fill-opacity:1"/></g><g id="q" clip-path="url(#f)"><path d="m112 66.582 40 23.098v46.187l-40 23.094-40-23.094V89.68Zm0 0" style="stroke:none;fill-rule:nonzero;fill:#000;fill-opacity:1"/></g><g id="s" clip-path="url(#g)"><path d="m280 36.063-112 64.656 6.922 4L280 44.063l105.078 60.656 6.922-4Zm0 0" style="stroke:none;fill-rule:nonzero;fill:#fff;fill-opacity:1"/></g><g id="u" clip-path="url(#h)"><path d="M112 58.594 72 81.672l6.922 4L112 66.594l33.078 19.078 6.922-4Zm0 0" style="stroke:none;fill-rule:nonzero;fill:#fff;fill-opacity:1"/></g><filter id="a" width="100%" height="100%" x="0%" y="0%" filterUnits="objectBoundingBox"><feColorMatrix in="SourceGraphic" values="0 0 0 0 1 0 0 0 0 1 0 0 0 0 1 0 0 0 1 0"/></filter></defs><use xlink:href="#i" mask="url(#j)"/><path d="M272.063 358.316 248 372.203v27.09l24.063 13.91 24.066 13.89 24.062-13.89v-27.086l-24.062-13.914Zm0 0" style="stroke:none;fill-rule:nonzero;fill:#ba2c00;fill-opacity:1"/><path d="M272.063 358.309 248 372.195l24.063 13.914 24.066 13.887 24.062-13.887-24.062-13.914Zm0 0" style="stroke:none;fill-rule:nonzero;fill:#ff7900;fill-opacity:1"/><path d="m272.063 279.984 24.066 13.895v78.324l-24.067 13.895L248 372.203V293.88Zm24.066 147.11 24.062-13.89v-27.095l-24.062 13.887Zm0 0" style="stroke:none;fill-rule:nonzero;fill:#ff4200;fill-opacity:1"/><path d="M272.063 279.984v106.114L248 372.203V293.88Zm-80 131.239L168 425.109v27.09l24.063 13.914L216.129 480l24.062-13.887v-27.09L216.13 425.11Zm0 0" style="stroke:none;fill-rule:nonzero;fill:#ba2c00;fill-opacity:1"/><path d="m216.129 480 24.062-13.887v-27.097l-24.062 13.89Zm0 0" style="stroke:none;fill-rule:nonzero;fill:#ff4200;fill-opacity:1"/><path d="M192.063 411.215 168 425.105l24.063 13.91 24.066 13.891 24.062-13.89-24.062-13.91Zm0 0" style="stroke:none;fill-rule:nonzero;fill:#ff7900;fill-opacity:1"/><path d="m192.063 332.895 24.066 13.89v78.324l-24.066 13.895L168 425.109v-78.324Zm0 0" style="stroke:none;fill-rule:nonzero;fill:#ff4200;fill-opacity:1"/><path d="M192.063 332.895v106.109L168 425.109v-78.324Zm0 0" style="stroke:none;fill-rule:nonzero;fill:#ba2c00;fill-opacity:1"/><use xlink:href="#k" mask="url(#l)"/><path d="m200 100.285 128 73.899v147.804l-128 73.899-128-73.899V174.184Zm0 0" style="stroke:none;fill-rule:nonzero;fill:#ffce00;fill-opacity:1"/><path d="M72 174.176v147.812l128 73.899V248.094Zm0 0" style="stroke:none;fill-rule:nonzero;fill:#ff6700;fill-opacity:1"/><path d="M200 100.281 72 174.176l128 73.918 128-73.918Zm0 0" style="stroke:none;fill-rule:nonzero;fill:#ffc200;fill-opacity:1"/><use xlink:href="#m" mask="url(#n)"/><path d="m280 36.066 112 64.664v129.325l-112 64.664-112-64.664V100.73Zm0 0" style="stroke:none;fill-rule:nonzero;fill:#ff9e02;fill-opacity:1"/><path d="m296 193.969 24-14.399v32.399l-24 14.402Zm0 0" style="stroke:none;fill-rule:nonzero;fill:#3f3f3f;fill-opacity:1"/><path d="M168 100.719v129.324l112 64.687V165.383Zm0 0" style="stroke:none;fill-rule:nonzero;fill:#ff6700;fill-opacity:1"/><path d="m280 36.059-112 64.66 112 64.664 112-64.664Zm0 0" style="stroke:none;fill-rule:nonzero;fill:#ffc200;fill-opacity:1"/><path d="m352 164 24-14.398V182l-24 14.398Zm0 0" style="stroke:none;fill-rule:nonzero;fill:#3f3f3f;fill-opacity:1"/><use xlink:href="#o" mask="url(#p)"/><path d="M368 228.703v64l-64-32v-21.332Zm0 0" style="stroke:none;fill-rule:nonzero;fill:#ba2c00;fill-opacity:1"/><path d="M368 228.703v64l64-32v-21.332Zm0 0" style="stroke:none;fill-rule:nonzero;fill:#ff7900;fill-opacity:1"/><path d="m368.004 207.398 63.996 32-63.996 32-64-32Zm0 0" style="stroke:none;fill-rule:nonzero;fill:#ff4200;fill-opacity:1"/><use xlink:href="#q" mask="url(#r)"/><path d="m112 58.582 40 23.098v46.187l-40 23.094-40-23.094V81.68Zm0 0" style="stroke:none;fill-rule:nonzero;fill:#ff9e02;fill-opacity:1"/><path d="M72 81.676v46.191l40 23.086v-46.172Zm0 0" style="stroke:none;fill-rule:nonzero;fill:#ff6700;fill-opacity:1"/><path d="M112 58.59 72 81.676l40 23.105 40-23.105Zm0 0" style="stroke:none;fill-rule:nonzero;fill:#ffc200;fill-opacity:1"/><use xlink:href="#s" mask="url(#t)"/><use xlink:href="#u" mask="url(#v)"/></svg>