<svg xmlns="http://www.w3.org/2000/svg" width="605.084" height="427.583" viewBox="0 0 160.095 113.131"><path d="M146.907 0c-.771 3.505-1.085 6.825-2.34 10.244-3.762 10.251-11.092 20.384-18.678 28.167l.02-1.926c-3.354 1.406-5.38 6.053-8.096 8.494-3.89 3.496-8.498 4.407-12.953 6.791-2.188 1.171-4.4 3.528-6.847 4.044-3.158.667-5.364-2.404-7.507-4.134-2.904-2.345-6.796-3.568-10.506-2.528-4.87 1.365-10.662 7.087-7.824 12.491l.51-.14c1.263-1.256 3.813-1.05 5.499-.959-.562 5.52-5.869 4.602-10.126 5.094-5.178.598-9.602 2.732-14.94 2.548-3.942-.137-8.195-2.56-12.032-1.86l1.256 1.577c-9.959-1.47-20.11-4.57-29.108-9.103-2.617-1.318-5.376-2.99-7.525-4.996-.702-.656-1.85-2.445-2.967-2.293-1.165.158-.688 2.273-.466 2.96.799 2.465 3.101 4.5 5.108 6.007-1.636-.554-5.293-3.67-6.843-3.245-.992.272-.373 1.833-.091 2.403 1.023 2.074 2.95 3.362 4.712 4.744-1.201-.332-6.559-1.074-3.878 1.613 1.677 1.68 4.545 2.567 6.808 3.07l.07.255c-1.244-.263-6.28-2.466-7.147-1.218-.958 1.382 2.946 3.347 3.737 3.78 4.675 2.559 10.368 4.057 15.695 4.22l.07.256c-3.078.16-6.192-.072-9.259.254-.86.092-2.723.23-3.065 1.235-.537 1.575 2.522 2.099 3.463 2.215 4.061.503 8.348.877 12.417.26l.07.254c-3.118.974-6.52 1.766-9.092 3.865 2.689 3.7 8.317 2.073 12.092 1.074l.07.255c-1.415.808-6.543 4.93-2.013 5.487 3.48.428 8.063-1.485 10.787-3.503l-5.305 6.667c3.6-.17 6.943-2.26 9.787-4.33-.36.64-.742 1.276-1.042 1.947-2.419 5.41 4.644 1.089 6.15-.329l-.853 4.898c2.546-.369 3.841-3.515 5.075-5.507l-.617 2.64c-.433 1.985-.272 5.795 2.447 3.033 1.802-1.831 2.99-4.307 4.249-6.517-.105 2.025-.884 5.222.535 6.943 2.53 3.069 4.768-3.927 5.082-5.465l.256-.07c.044 1.508 1.33 8.697 3.943 5.016 1.738-2.448 1.376-5.775 2.526-8.436-.04 1.767-.074 3.924.556 5.6.223.59.784 1.536 1.55 1.113.96-.53 1.127-2.4 1.565-3.33-.125 2.32.263 4.412 1.239 6.519 2.767-1.167 2.79-3.795 3.774-6.247 1.274 3.489 3.535 2.088 3.828-1.05 1.502 1.873 3.4 3.704 3.852.041 1.052 1.074 1.822 1.461 3.296 1.017l-.234-1.856 1.37.996.255-.07.09-1.671.256-.07c.408.501 1.443 1.11 1.524 1.777.128 1.06-1.214 2.34-1.842 3.065-2.103 2.43-4.267 4.851-6.196 7.422-.553.738-3.199 4.462-1.005 4.338l.19 2.692 1.97-.815c.286 2.749 2.133 2.034 3.737.621-.152 1.265-.454 5.745 2.114 4.617 1.305-.573 2.141-2.362 2.854-3.51.355 3.486 1.68 4.078 3.227.762 1.224 2.336 2.48 1.094 3.387-.655.365 1.272 2.095 4.108 2.558 1.193.315-1.984-.109-4.2-.616-6.115l.255-.07c.786 1.294 2.198 4.739 3.762 5.14 2.036.522.815-4.443.6-5.239l.256-.07c.47.64 3.381 4.496 4.247 2.899.763-1.406-1.382-4.469-2-5.71l.255-.07c1.519 1.832 3.474 3.83 5.993 3.844-.74-2.675-1.88-5.067-3.63-7.235 2.011 1.2 5.084 4.823 7.68 4.094 1.474-.415 1.127-2.058.544-3.057-1.398-2.395-3.545-4.484-5.771-6.1 2.86.78 5.677 2.225 8.704 1.73-2.047-3.938-7.152-4.85-11.008-6.127-1.393-.462-3.892-.845-4.713-2.204-.48-.792-.187-2.032-.26-2.926 2.794 1.66 3.694.597 2.898-2.44 2.541 1.65 4.814 2.224 4.198-1.7l.255-.07c.727.888 5.371 5.288 6.144 2.515.533-1.911-1.804-4.418-2.691-5.93l.255-.07c.64.804 4.139 3.874 3.691.877-.304-2.04-2.05-3.985-3.094-5.705l.255-.07c1.652 1.92 4.906 5.745 7.633 5.823 3.959.113.076-5.692-.789-6.877 1.321.936 6.786 5.449 7.834 2.124.741-2.35-2.599-5.156-3.895-6.77 3.11 1.614 6.771 3.546 10.33 2.654-.858-2.456-2.942-3.86-4.811-5.54 1.753.696 3.572 1.638 5.453 1.915 2.68.395.684-1.998-.278-2.77-.527-.424-1.08-.816-1.628-1.214 2.031.098 10.569-.368 5.29-3.563-.594-.36-1.237-.642-1.862-.944 3.502-.258 7.324-.303 10.347-2.288-2.112-1.954-5.76-2.059-8.52-2.054l-.07-.255c3.698-.619 7.16-1.116 10.329-3.331 2.448-1.713.975-4.18-1.663-4.085-.999.035-1.99.096-2.99.098l-.07-.255c2.778-.812 6.04-2.327 8.07-4.447.712-.743 1.758-2.59.664-3.462-1.882-1.5-7.27 1.437-9.252 2.016l-.07-.255c3.596-1.902 6.85-4.853 9.67-7.755.668-.687 2.802-2.82 1.734-3.875-.727-.718-2.487.176-3.197.537-2.82 1.435-5.15 3.808-7.82 5.5l-.07-.256c4.182-3.293 7.804-8.236 9.856-13.127.384-.915 2.057-4.617.664-5.31-1.33-.663-4.108 4.192-4.853 5.087 1.132-1.988 2.607-4.05 3.066-6.328.49-2.436-1.134-2.553-2.616-1.087l-1.294 1.336c.555-2.148 1.044-4.25.613-6.477-.123-.635-.46-2.03-1.366-1.91-1.37.18-2.845 5.768-3.194 7-.252-3.437 1.715-9.159-2.683-10.787m6.63 12.174-.185.325zm.844 6.079-.37.65zM8.418 69.248l-.185.325zm140.366-37.39-.186.326zm-14.207 30.233-.186.325z" style="fill:#030303;stroke:none;stroke-width:.264583"/></svg>