<svg xmlns="http://www.w3.org/2000/svg" xml:space="preserve" id="svg7" width="100%" height="100%" style="fill-rule:evenodd;clip-rule:evenodd;stroke-linecap:round;stroke-linejoin:round;stroke-miterlimit:1.5" viewBox="0 0 2500 2500"><g id="icon" transform="matrix(.95072 0 0 .87685 21.197 39.594)"><g id="wallet"><path id="wallet-back" d="M1882.64 805.128v1057.73c0 70.456-57.201 127.657-127.657 127.657H626.963c-70.456 0-127.657-57.201-127.657-127.657v-942.23c0-104.006 84.439-188.446 188.446-188.446h1121.94c40.26 0 72.947 32.686 72.947 72.947z" style="fill:#bf904a;stroke:#ffb400;stroke-width:83.33px"/><g id="cc" style="clip-rule:evenodd;fill-rule:evenodd;stroke-linecap:round;stroke-linejoin:round;stroke-miterlimit:1.5;fill:#afc6e9" transform="matrix(.9991 0 0 1.00984 425.505 494.286)"><path id="cc1" d="m1157.77 69.836 209.435 493.397c24.712 58.218-2.491 125.548-60.709 150.26l-826.19 350.697c-58.218 24.712-125.548-2.491-150.26-60.71L120.611 510.084c-24.712-58.219 2.491-125.548 60.709-150.261L1007.51 9.127c58.219-24.713 125.548 2.49 150.26 60.709" style="fill:#1e83f7;fill-opacity:1"/><path id="cc1-6" d="m1396.616 233.851 170.65 581.076c20.135 68.564-19.463 139.226-88.372 157.697l-977.91 262.128c-68.909 18.471-141.203-22.198-161.338-90.763l-170.65-581.075c-20.136-68.564 19.462-139.226 88.371-157.698l977.91-262.127c68.91-18.472 141.203 22.198 161.339 90.762" style="clip-rule:evenodd;fill:#f44336;fill-opacity:1;fill-rule:evenodd;stroke-width:1.12877;stroke-linecap:round;stroke-linejoin:round;stroke-miterlimit:1.5"/><path id="cc1-7" d="m1549.65 494.056 61.607 665.662c7.269 78.544-48.269 146.77-123.943 152.26l-1073.921 77.904c-75.675 5.49-143.016-53.822-150.285-132.368l-61.607-665.661c-7.268-78.546 48.269-146.77 123.944-152.261l1073.92-77.903c75.677-5.49 143.017 53.822 150.285 132.367" style="clip-rule:evenodd;fill:#18c249;fill-opacity:1;fill-rule:evenodd;stroke-width:1.22307;stroke-linecap:round;stroke-linejoin:round;stroke-miterlimit:1.5"/></g><path id="wallet-front" d="M2036.81 1162.62v769.565c0 55.191-44.809 100-100 100H595.14c-55.192 0-100-44.809-100-100v-900h1411.23c71.989 0 130.435 58.446 130.435 130.435z" style="fill:#ffb400"/><path id="path6" d="M540.912 928.536c7.181 28.15 26.77 60.39 57.551 81.387 30.78 20.998 67.945 27.474 96.774 23.889-36.08 52.89-99.948 72.245-142.535 43.193-42.587-29.051-47.87-95.578-11.79-148.469" style="fill-rule:evenodd;clip-rule:evenodd;stroke-linecap:round;stroke-linejoin:round;stroke-miterlimit:1.5;fill:#ffb400;fill-opacity:1"/></g></g></svg>