<svg xmlns="http://www.w3.org/2000/svg" width="32" height="32" version="1"><rect width="26.037" height="26.037" x="-29.018" y="-29.018" fill="#5db43e" rx="13" ry="13" style="stroke-width:1" transform="scale(1 -1)rotate(90)"/><path fill="#fff" d="M16 30.019a12.99 12.99 0 0 0 13.018-13.018c0-.17-.019-.334-.025-.501A12.98 12.98 0 0 1 16 29.018 12.98 12.98 0 0 1 3.007 16.5c-.006.167-.025.331-.025.5A12.99 12.99 0 0 0 16 30.02z" opacity=".2" style="stroke-width:1"/><path d="M28.993 16.5c.006-.167.025-.331.025-.5A12.99 12.99 0 0 0 16 2.98 12.99 12.99 0 0 0 2.982 15.999c0 .17.019.334.025.501C3.27 9.524 8.957 3.982 16 3.982S28.729 9.524 28.993 16.5" opacity=".2" style="stroke-width:1"/><path d="M16.06 24.623a6.6 6.6 0 0 0 4.334-1.618c.86-1.115-.779-2.31-1.517-1.222-2.221 1.513-5.355.98-7.026-1.282-.89-1.123-1.39-2.62-1.385-4.125h1.469l-2.35-3.965-2.349 3.965h1.468c-.046 3.591 2.248 7.007 5.328 7.937a6.7 6.7 0 0 0 2.028.31m6.446-4.297 2.348-3.966h-1.468c.042-3.634-2.311-7.088-5.446-7.969-2.114-.665-4.506-.18-6.244 1.341-.887 1.134.774 2.317 1.52 1.22 2.152-1.47 5.166-1.004 6.865 1.095.984 1.141 1.55 2.722 1.543 4.313h-1.468z" style="opacity:.1;stroke-width:.999999"/><path d="M16.196 23.988c1.578-.003 3.178-.528 4.428-1.566.879-1.08-.795-2.237-1.55-1.184-2.27 1.465-5.47.95-7.178-1.241-.909-1.087-1.42-2.538-1.415-3.994h1.5l-2.4-3.84-2.4 3.84h1.5c-.048 3.477 2.296 6.784 5.443 7.685a7.1 7.1 0 0 0 2.072.3m6.586-4.16 2.399-3.841h-1.5c.042-3.519-2.361-6.864-5.564-7.717a6.97 6.97 0 0 0-6.38 1.3c-.906 1.097.792 2.242 1.553 1.18 2.2-1.424 5.279-.972 7.015 1.06 1.005 1.106 1.584 2.637 1.576 4.177h-1.5l2.4 3.84z" style="fill:#3f3f3f;stroke-width:1"/></svg>