<svg xmlns="http://www.w3.org/2000/svg" xmlns:xlink="http://www.w3.org/1999/xlink" width="32" height="32"><defs><radialGradient xlink:href="#a" id="b" cx="18.98" cy="16" r="6.364" fx="18.98" fy="16" gradientTransform="translate(-2.98)" gradientUnits="userSpaceOnUse"/><linearGradient id="a"><stop offset="0" style="stop-color:#fff;stop-opacity:1"/><stop offset="1" style="stop-color:#fff;stop-opacity:0"/></linearGradient></defs><g fill="none" fill-rule="evenodd"><path fill="#ff9f00" d="M10.18 5.82a9.8 9.8 0 0 0-.611 1.943c-.21 1.024-.588 3.814-.491 3.802.036-.024.334-.616.64-1.338 1.265-2.884 3.214-4.77 5.381-5.207 1.327-.269 2.256-.004 3.764.774.849.438.857.212 1.826-.061l1.11-.243-.304-.74C20.462 2.45 18.85.76 17.02.11c-.976-.336-2.75.124-3.8 1.001-1.148.933-2.666 3.825-3.04 4.709"/><path fill="#ff2828" d="M21.906 5.87a9.8 9.8 0 0 0-1.988.442c-.992.33-3.597 1.398-3.539 1.476.04.02.7-.018 1.479-.115 3.131-.346 5.739.399 7.2 2.057.897 1.015 1.131 1.952 1.212 3.646.045.955.245.849.966 1.551l.765.84.49-.633c1.474-2.044 2.132-4.284 1.78-6.195-.197-1.013-1.483-2.32-2.767-2.79-1.382-.529-4.645-.397-5.598-.28"/><path fill="#d529ff" d="M27.726 16.05a9.8 9.8 0 0 0-1.378-1.5c-.781-.695-3.008-2.417-3.047-2.327.003.043.366.597.839 1.223 1.865 2.539 2.524 5.17 1.818 7.264-.43 1.284-1.124 1.956-2.551 2.873-.804.516-.612.636-.86 1.611l-.345 1.083.793.107c2.508.256 4.777-.294 6.255-1.555.78-.677 1.269-2.444 1.033-3.792-.233-1.46-1.98-4.22-2.557-4.987"/><path fill="#288bff" d="M21.82 26.18a9.8 9.8 0 0 0 .61-1.943c.21-1.024.588-3.814.491-3.802-.036.024-.334.616-.64 1.338-1.266 2.884-3.214 4.77-5.381 5.207-1.327.269-2.256.004-3.764-.774-.849-.438-.857-.212-1.826.061l-1.11.243.304.74c1.033 2.3 2.644 3.99 4.475 4.64.975.336 2.75-.124 3.8-1.001 1.148-.933 2.666-3.825 3.04-4.71"/><path fill="#3f9e00" d="M10.093 26.13a9.8 9.8 0 0 0 1.988-.442c.992-.33 3.597-1.398 3.539-1.476-.04-.02-.7.018-1.479.115-3.131.346-5.739-.399-7.2-2.057-.897-1.015-1.131-1.952-1.212-3.646-.045-.955-.245-.849-.966-1.551l-.765-.84-.49.633c-1.474 2.044-2.132 4.284-1.78 6.195.197 1.013 1.483 2.32 2.767 2.79 1.382.529 4.645.397 5.598.28"/><path fill="#deba00" d="M4.273 15.95a9.8 9.8 0 0 0 1.378 1.5c.781.695 3.008 2.417 3.047 2.327-.003-.043-.366-.597-.839-1.223-1.865-2.539-2.524-5.17-1.818-7.264.43-1.284 1.124-1.956 2.551-2.873.804-.516.612-.636.86-1.611l.345-1.083-.793-.107C6.496 5.36 4.227 5.91 2.749 7.17c-.78.677-1.269 2.444-1.033 3.792.233 1.46 1.98 4.22 2.557 4.987"/></g><circle cx="16" cy="16" r="6.364" style="fill:#568fa8;fill-opacity:1;fill-rule:evenodd;stroke:none;stroke-width:.0180001"/><circle cx="16" cy="16" r="6.364" style="fill:url(#b);fill-opacity:1;fill-rule:evenodd;stroke:none;stroke-width:.0180001;stroke-opacity:1"/></svg>