<svg xmlns="http://www.w3.org/2000/svg" viewBox="0 0 1600 1600"><path fill="#f95d00" d="M699.5-.5h200q-.25 278.5.5 557a221687 221687 0 0 1 394.5-394q71.5 70.5 142 142l-494 495 494 495q-70.5 71.5-142 142a222023 222023 0 0 1-394.5-394q-.75 278.5-.5 557h-200q.25-278.5-.5-557a220025 220025 0 0 1-394.5 394q-71.5-70.5-142-142 146.73-147.48 294-294.5l-278-1Q59.16 982.14 12 871.5a259 259 0 0 1-12.5-51v-42q17.34-119.1 128-166.5a218 218 0 0 1 51-12l278-1a122561 122561 0 0 1-294-294.5q70.5-71.5 142-142a219694 219694 0 0 1 394.5 394q.75-278.5.5-557"/><path fill="#f95d00" d="M1599.5 778.5v42q-16.56 115.87-123 164.5-109.67 40.61-203-29-88.18-76.03-71.5-191.5 21.53-106.34 120.5-150.5 109.67-40.6 203 29 63.76 53.04 74 135.5"/></svg>