<svg xmlns="http://www.w3.org/2000/svg" width="10mm" height="10mm" viewBox="0 0 10 10"><defs><clipPath id="c" clipPathUnits="userSpaceOnUse"><circle cx="5" cy="5" r="5" style="opacity:1;fill:#fff;fill-opacity:.97478991;stroke:#008d06;stroke-width:0;stroke-linecap:butt;stroke-linejoin:miter;stroke-miterlimit:4;stroke-dasharray:none;stroke-opacity:1"/></clipPath><clipPath id="b" clipPathUnits="userSpaceOnUse"><circle cx="5" cy="292" r="5" style="opacity:1;fill:#fff;fill-opacity:.97478991;stroke:#008d06;stroke-width:0;stroke-linecap:butt;stroke-linejoin:miter;stroke-miterlimit:4;stroke-dasharray:none;stroke-opacity:1"/></clipPath><clipPath id="a" clipPathUnits="userSpaceOnUse"><circle cx="18.898" cy="18.898" r="18.898" style="opacity:1;fill:#fff;fill-opacity:.97478991;stroke:#008d06;stroke-width:0;stroke-linecap:butt;stroke-linejoin:miter;stroke-miterlimit:4;stroke-dasharray:none;stroke-opacity:1"/></clipPath></defs><path d="m18.898 0-.31.012a19 19 0 0 1 .467-.004zm.157.008a19 19 0 0 1 .965.049 19 19 0 0 0-.965-.05m.965.049a19 19 0 0 1 1 .072 19 19 0 0 0-1-.072m1 .072a19 19 0 0 1 .892.137 19 19 0 0 0-.892-.137m.892.137a19 19 0 0 1 .96.168 19 19 0 0 0-.96-.168m.96.168a19 19 0 0 1 .901.23 19 19 0 0 0-.902-.23m.901.23a19 19 0 0 1 .918.256 19 19 0 0 0-.918-.256m.918.256a19 19 0 0 1 .9.33 19 19 0 0 0-.9-.33m.9.33a19 19 0 0 1 .86.336 19 19 0 0 0-.86-.336m.86.336a19 19 0 0 1 .85.41 19 19 0 0 0-.85-.41m.85.41a19 19 0 0 1 .851.436 19 19 0 0 0-.851-.436m.851.436.186.113.008-.014zm.186.113L9.176 35.076l.002.002L32.252 5.545a19 19 0 0 0-3.914-3m3.914 3 .152.143-.144-.153Zm.152.143.114.119zm.114.119a19 19 0 0 1 .761.863 19 19 0 0 0-.761-.863m.761.863a19 19 0 0 1 .62.756 19 19 0 0 0-.62-.756m.62.756a19 19 0 0 1 .53.744 19 19 0 0 0-.53-.744m.53.744a19 19 0 0 1 .526.79 19 19 0 0 0-.525-.79m.526.79a19 19 0 0 1 .469.813 19 19 0 0 0-.469-.812m.469.813a19 19 0 0 1 .455.864 19 19 0 0 0-.455-.864m.455.864a19 19 0 0 1 .36.804 19 19 0 0 0-.36-.804m.36.804a19 19 0 0 1 .38.936 19 19 0 0 0-.38-.936m.38.936a19 19 0 0 1 .277.832 19 19 0 0 0-.277-.832m.277.832a19 19 0 0 1 .284.957 19 19 0 0 0-.284-.957m.284.957a19 19 0 0 1 .2.9 19 19 0 0 0-.2-.9m.2.9a19 19 0 0 1 .18.948 19 19 0 0 0-.18-.948m.18.948a19 19 0 0 1 .108.892 19 19 0 0 0-.107-.892m.108.892a19 19 0 0 1 .096 1.088 19 19 0 0 0-.096-1.088m.096 1.088a19 19 0 0 1 .013.43 19 19 0 0 0-.013-.43m.013.43a19 19 0 0 1-.013 1.111 19 19 0 0 0 .03-.637 19 19 0 0 0-.017-.474m-.013 1.111a19 19 0 0 1-.043.871 19 19 0 0 0 .043-.87m-.043.871a19 19 0 0 1-.116 1.012 19 19 0 0 0 .116-1.012m-.116 1.012a19 19 0 0 1-.132.877 19 19 0 0 0 .132-.877m-.132.877a19 19 0 0 1-.203.937 19 19 0 0 0 .203-.937m-.203.937a19 19 0 0 1-.233.916 19 19 0 0 0 .233-.916m-.233.916a19 19 0 0 1-.287.885 19 19 0 0 0 .287-.885m-.287.885a19 19 0 0 1-.33.904 19 19 0 0 0 .33-.904m-.33.904a19 19 0 0 1-.383.872 19 19 0 0 0 .383-.872m-.383.872a19 19 0 0 1-.394.814 19 19 0 0 0 .394-.814m-.394.814a19 19 0 0 1-.48.857 19 19 0 0 0 .48-.857m-.48.857a19 19 0 0 1-.487.791 19 19 0 0 0 .486-.79m-.487.791a19 19 0 0 1-.551.784 19 19 0 0 0 .55-.784m-.551.784a19 19 0 0 1-.687.906 19 19 0 0 0 .351-.43 19 19 0 0 0 .336-.476m-.687.906-.145.174zm-.145.174a19 19 0 0 1-.635.681 19 19 0 0 0 .635-.681m-.635.681a19 19 0 0 1-.676.71 19 19 0 0 0 .676-.71m-.676.71a19 19 0 0 1-.705.619 19 19 0 0 0 .705-.62m-.705.619a19 19 0 0 1-.73.626 19 19 0 0 0 .73-.626m-.73.626a19 19 0 0 1-.762.543 19 19 0 0 0 .762-.543m-.762.543a19 19 0 0 1-.767.536 19 19 0 0 0 .767-.536m-.767.536a19 19 0 0 1-.846.486 19 19 0 0 0 .846-.486m-.846.486a19 19 0 0 1-.809.451 19 19 0 0 0 .809-.451m-.809.451a19 19 0 0 1-.767.344 19 19 0 0 0 .767-.344m-.767.344a19 19 0 0 1-.98.424 19 19 0 0 0 .98-.424m-.98.424a19 19 0 0 1-.698.232 19 19 0 0 0 .697-.232m-.698.232a19 19 0 0 1-1.096.35 19 19 0 0 0 1.096-.35m-1.096.35a19 19 0 0 1-.826.185 19 19 0 0 0 .826-.185m-.826.185a19 19 0 0 1-.994.211 19 19 0 0 0 .994-.21m-.994.211a19 19 0 0 1-.916.112 19 19 0 0 0 .916-.112m-.916.112a19 19 0 0 1-.998.109 19 19 0 0 0 .998-.11m-.998.109-.303.01zm-.303.01a19 19 0 0 1-1.273.011l.386.02a19 19 0 0 0 .887-.031m-1.273.011a19 19 0 0 1-.942-.046 19 19 0 0 0 .942.046m-.942-.046a19 19 0 0 1-.945-.086 19 19 0 0 0 .945.086m-.945-.086a19 19 0 0 1-.934-.141 19 19 0 0 0 .934.14m-.934-.141a19 19 0 0 1-.925-.18 19 19 0 0 0 .925.18m-.925-.18a19 19 0 0 1-.912-.232 19 19 0 0 0 .912.232m-.912-.232a19 19 0 0 1-.9-.27 19 19 0 0 0 .9.27m-.9-.27a19 19 0 0 1-.911-.334 19 19 0 0 0 .91.334m-.911-.334a19 19 0 0 1-.846-.35 19 19 0 0 0 .846.35m-.846-.35a19 19 0 0 1-.853-.41 19 19 0 0 0 .853.41m-.853-.41a19 19 0 0 1-.842-.45 19 19 0 0 0 .842.45m-.842-.45-.324-.198-.014.018zm-.338-.18.012-.02a19 19 0 0 1-.856-.523 19 19 0 0 0 .844.543m-.844-.543-.119-.078zm-.119-.078a19 19 0 0 1-.547-.416 19 19 0 0 0 .547.416m-.547-.416a19 19 0 0 1-.957-.73 19 19 0 0 0 .957.73m-.957-.73a19 19 0 0 1-.545-.51 19 19 0 0 0 .545.51m-.545-.51a19 19 0 0 1-.834-.78 19 19 0 0 0 .834.78m-.834-.78a19 19 0 0 1-.45-.516 19 19 0 0 0 .45.516m-.45-.516a19 19 0 0 1-.8-.916 19 19 0 0 0 .8.916m-.8-.916a19 19 0 0 1-.357-.498 19 19 0 0 0 .357.498m-.357-.498a19 19 0 0 1-.729-1.027 19 19 0 0 0 .729 1.027m-.729-1.027a19 19 0 0 1-.623-1.086 19 19 0 0 0 .623 1.086m-.623-1.086a19 19 0 0 1-.308-.54 19 19 0 0 0 .308.54m-.308-.54a19 19 0 0 1-.485-1.083 19 19 0 0 0 .485 1.082m-.485-1.083a19 19 0 0 1-.289-.652 19 19 0 0 0 .29.652m-.289-.652a19 19 0 0 1-.314-.944 19 19 0 0 0 .314.944m-.314-.944a19 19 0 0 1-.28-.853 19 19 0 0 0 .28.853m-.28-.853a19 19 0 0 1-.197-.88 19 19 0 0 0 .198.88m-.197-.88a19 19 0 0 1-.215-.966 19 19 0 0 0 .215.967m-.215-.966a19 19 0 0 1-.105-.867 19 19 0 0 0 .105.867m-.105-.867a19 19 0 0 1-.121-1.014 19 19 0 0 0 .121 1.014m-.121-1.014L.04 20.07zM.04 20.07a19 19 0 0 1-.025-1.476L0 18.898a19 19 0 0 0 .041 1.172m-.025-1.476a19 19 0 0 1 .045-.926 19 19 0 0 0-.045.926m.045-.926a19 19 0 0 1 .082-.975 19 19 0 0 0-.082.975m.082-.975a19 19 0 0 1 .134-.896 19 19 0 0 0-.134.896m.134-.896a19 19 0 0 1 .176-.953 19 19 0 0 0-.176.953m.176-.953a19 19 0 0 1 .227-.89 19 19 0 0 0-.227.89m.227-.89a19 19 0 0 1 .275-.946 19 19 0 0 0-.275.945m.275-.946a19 19 0 0 1 .313-.856 19 19 0 0 0-.313.856m.313-.856a19 19 0 0 1 .355-.884 19 19 0 0 0-.355.884m.355-.884a19 19 0 0 1 .408-.846 19 19 0 0 0-.408.846m.408-.846a19 19 0 0 1 .45-.858 19 19 0 0 0-.45.858m.45-.858a19 19 0 0 1 .466-.761 19 19 0 0 0-.332.504zm.466-.761a19 19 0 0 1 .553-.84 19 19 0 0 0-.553.84m.553-.84a19 19 0 0 1 .525-.69 19 19 0 0 0-.525.69m.525-.69a19 19 0 0 1 .633-.78 19 19 0 0 0-.633.78m.633-.78a19 19 0 0 1 .647-.692 19 19 0 0 0-.647.691m.647-.692a19 19 0 0 1 .65-.655 19 19 0 0 0-.65.655m.65-.655a19 19 0 0 1 .71-.625 19 19 0 0 0-.71.625m.71-.625a19 19 0 0 1 .74-.609 19 19 0 0 0-.74.61m.74-.609a19 19 0 0 1 .775-.555 19 19 0 0 0-.776.555m.775-.555a19 19 0 0 1 .756-.503 19 19 0 0 0-.756.503m.756-.503a19 19 0 0 1 .882-.506 19 19 0 0 0-.882.506m.882-.506a19 19 0 0 1 .76-.405 19 19 0 0 0-.76.405m.76-.405a19 19 0 0 1 .943-.422 19 19 0 0 0-.943.422m.943-.422a19 19 0 0 1 .795-.324 19 19 0 0 0-.795.324m.795-.324a19 19 0 0 1 .946-.314 19 19 0 0 0-.946.314m.946-.314a19 19 0 0 1 .873-.26 19 19 0 0 0-.873.26m.873-.26a19 19 0 0 1 .928-.207 19 19 0 0 0-.928.207m.928-.207a19 19 0 0 1 .931-.178 19 19 0 0 0-.931.178m.931-.178a19 19 0 0 1 .914-.111 19 19 0 0 0-.914.111m.914-.111A19 19 0 0 1 17.95.032a19 19 0 0 0-1.043.094M17.95.032a19 19 0 0 1 .637-.021 19 19 0 0 0-.418.002z" clip-path="url(#a)" style="fill:#ff7efd;fill-opacity:1;stroke-width:.72307909" transform="scale(.26458)"/><path d="m8.752 295.876-6.333.008.83-8.836" clip-path="url(#b)" style="fill:none;stroke:#f48400;stroke-width:1.36500001;stroke-linecap:butt;stroke-linejoin:miter;stroke-miterlimit:4;stroke-dasharray:none;stroke-opacity:1" transform="translate(0 -287)"/><circle cx="5" cy="5" r="4.9" fill="none" clip-path="url(#c)" style="fill:#ff7efd;fill-opacity:0;stroke:#008d06;stroke-width:.20061818;stroke-linecap:butt;stroke-linejoin:miter;stroke-miterlimit:4;stroke-dasharray:none;stroke-opacity:1"/></svg>