<svg xmlns="http://www.w3.org/2000/svg" xml:space="preserve" id="svg4446" x="0" y="0" version="1.1" viewBox="0 0 160.5 120.4"><style id="style833" type="text/css">.st0{fill:#83b9f5}.st1{fill:#f38577}</style><g id="layer1" transform="translate(0 75.638)"><g id="g5995-0-6" transform="translate(1492.307 1727.845)scale(.88964)"><g id="g5997-6-2" transform="translate(-4.816 7.011)scale(1.00484)"><path id="path5999-1-9" d="M-1598.1-2004.7v7.5h10.3v-7.5z" class="st0"/><path id="path6001-5-1" d="M-1606.2-1992.6v7.5h18.5v-7.5z" class="st0"/><path id="path6003-54-2" d="M-1627.9-1980.5v7.5h40.1v-7.5z" class="st0"/><path id="path6005-7-7" d="M-1650-1968.5v7.5h62.2v-7.5z" class="st0"/><path id="path6007-6-09" d="M-1664.6-1956.4v7.5h76.8v-7.5z" class="st0"/><path id="path6009-5-3" d="M-1640.3-1944.4v7.5h52.5v-7.5z" class="st0"/><path id="path6011-6-6" d="M-1618.9-1932.3v7.5h31.2v-7.5z" class="st0"/><path id="path6013-9-0" d="M-1627.3-1920.3v7.5h39.6v-7.5z" class="st0"/><path id="path6015-3-6" d="M-1606.9-1908.8v7.5h19.1v-7.5z" class="st0"/></g><g id="g6017-7-2" transform="matrix(-3.51396 0 0 3.51396 1727.667 -3255.55)"><path id="path6019-4-61" d="M938.1 349.6h9.3l-4.6 7.1z" class="st1"/><path id="path6021-5-8" d="M942.2 350.9v37.2h1.2v-37.2z" class="st1"/></g><path id="path6023-2-7" d="M-1567.7-2007.4c-1.5 0-2.8 1.2-2.8 2.7v98.7c0 2.2 2.5 3.5 4.3 2.2l68-49.3c1.5-1.1 1.5-3.3 0-4.4l-68-49.3q-.6-.6-1.5-.6" style="fill:#527eb2"/></g></g></svg>