<svg xmlns="http://www.w3.org/2000/svg" width="211.147" height="258.397" version="1.2" viewBox="0 0 158.36 193.798"><defs><clipPath id="a"><path d="M152 49h28v118h-28zm0 0"/></clipPath><clipPath id="b"><path d="M155.67 49.27c-12.39 0-22.52 10.14-22.52 22.53v148.74c0 12.39 10.14 22.52 22.52 22.52h104.32c12.39 0 22.52-10.14 22.52-22.52V71.8c0-12.39-10.14-22.53-22.52-22.53zm0 0"/></clipPath><clipPath id="c"><path d="M149 163h128v81H149Zm0 0"/></clipPath><clipPath id="d"><path d="M155.67 49.27c-12.39 0-22.52 10.14-22.52 22.53v148.74c0 12.39 10.14 22.52 22.52 22.52h104.32c12.39 0 22.52-10.14 22.52-22.52V71.8c0-12.39-10.14-22.53-22.52-22.53zm0 0"/></clipPath><clipPath id="e"><path d="M187 49h96v118h-96zm0 0"/></clipPath><clipPath id="f"><path d="M155.67 49.27c-12.39 0-22.52 10.14-22.52 22.53v148.74c0 12.39 10.14 22.52 22.52 22.52h104.32c12.39 0 22.52-10.14 22.52-22.52V71.8c0-12.39-10.14-22.53-22.52-22.53zm0 0"/></clipPath></defs><path fill="#00a89c" d="M135.84 193.798H31.52c-12.39 0-22.52-10.14-22.52-22.52V22.528C9 10.138 19.14.008 31.52.008h104.32c12.39 0 22.52 10.14 22.52 22.52v148.75c0 12.39-10.14 22.52-22.52 22.52"/><path fill="#fff" d="M131.84 193.798H27.52c-12.39 0-22.52-10.14-22.52-22.52V22.528C5 10.138 15.14.008 27.52.008h104.32c12.39 0 22.52 10.14 22.52 22.52v148.75c0 12.39-10.14 22.52-22.52 22.52"/><path fill="#00a89c" d="M126.84 193.798H22.52c-12.39 0-22.52-10.14-22.52-22.52V22.528C0 10.138 10.14.008 22.52.008h104.32c12.39 0 22.52 10.14 22.52 22.52v148.75c0 12.39-10.14 22.52-22.52 22.52"/><g clip-path="url(#a)" transform="translate(-133.149 -49.27)"><g clip-path="url(#b)"><path fill="#fff" d="m152.79 166.82 13.34-11.14 13.34 11.14V34.32h-26.69zm0 0"/></g></g><g clip-path="url(#c)" transform="translate(-133.149 -49.27)"><g clip-path="url(#d)"><path fill="#fff" d="M212.95 187.22c-21.97 0-39.85 17.88-39.85 39.85s17.88 39.85 39.85 39.85 39.85-17.87 39.85-39.85c0-21.97-17.87-39.85-39.85-39.85m0 103.7c-35.21 0-63.85-28.64-63.85-63.85s28.64-63.85 63.85-63.85 63.85 28.64 63.85 63.85-28.64 63.85-63.85 63.85"/></g></g><g clip-path="url(#e)" transform="translate(-133.149 -49.27)"><g clip-path="url(#f)"><path fill="#fff" d="M280.41 166.82c-9.38.02-19.17-.04-22.35 0-18.47.25-18.89-3.35-24.83-8.1-9.08-7.24-29.79-27.84-39.95-37.25-3.46-3.21-5.42-6.94-5.42-10.43v-2.84c0-4.64 1.75-9.13 4.9-12.54l56.73-61.52h34.74l-69.52 74.26c5.93 6.98 25.91 26.4 51.77 48.46 5.43 4.63 9.6 8.13 13.93 9.96"/></g></g></svg>