<svg xmlns="http://www.w3.org/2000/svg" xmlns:xlink="http://www.w3.org/1999/xlink" xml:space="preserve" viewBox="0 0 512 512"><defs><circle id="a" cx="278.26" cy="263.69" r="233.71"/></defs><clipPath id="b"><use xlink:href="#a" style="overflow:visible"/></clipPath><circle cx="278.26" cy="260.18" r="237.5" style="clip-path:url(#b);fill-opacity:.4745"/><circle cx="278.26" cy="248.5" r="233.71" style="fill:#fff"/><linearGradient id="c" x1="-840.841" x2="-490.361" y1="67.257" y2="67.257" gradientTransform="scale(-1 1)rotate(-30 -104.494 -455.822)" gradientUnits="userSpaceOnUse"><stop offset="0" style="stop-color:#ff0"/><stop offset="1" style="stop-color:#ff0;stop-opacity:0"/></linearGradient><circle cx="278.26" cy="248.5" r="233.71" style="fill:url(#c)"/><linearGradient id="d" x1="-28.067" x2="322.413" y1="33.488" y2="33.488" gradientTransform="scale(1 -1)rotate(30 768.136 27.995)" gradientUnits="userSpaceOnUse"><stop offset="0" style="stop-color:#0ff"/><stop offset="1" style="stop-color:#0ff;stop-opacity:0"/></linearGradient><circle cx="278.26" cy="248.5" r="233.71" style="fill:url(#d)"/><linearGradient id="e" x1="-405.21" x2="-54.73" y1="754.255" y2="754.255" gradientTransform="matrix(0 1 1 0 -476 420)" gradientUnits="userSpaceOnUse"><stop offset="0" style="stop-color:#f0f"/><stop offset="1" style="stop-color:#f0f;stop-opacity:0"/></linearGradient><circle cx="278.26" cy="248.5" r="233.71" style="fill:url(#e)"/><path d="M110.42 86.22a233.6 233.6 0 0 0-34.86 46.31c34.17 33.44 70.97 68.93 85.97 85.1 25.39 27.36 78.3 67.32 116.9 62.72 15.24 10.72 49.77 34.73 61.31 40.42-.23 5.52.88 11.11 2.86 16.67 10.82 30.29 51.28 49.97 27.73 82.25 46.36-28.09 58.68-74.97 39.04-108.4-12.26-20.88-30.11-27.73-44.96-22.74-8.9-10.06-44.28-39.44-57.31-50.17-8.31-37.36-58.69-75.89-90.78-92.6-19.61-10.23-64.47-35.46-105.9-59.56" style="fill-opacity:.4745"/><g transform="translate(-3949.233 -128.646)scale(3.50294)"><linearGradient id="f" x1="1305.286" x2="1386.094" y1="226.028" y2="145.306" gradientTransform="scale(3.503 -3.503)rotate(5.889 3128.443 -9450.308)" gradientUnits="userSpaceOnUse"><stop offset="0" style="stop-color:#343434"/><stop offset="1" style="stop-color:#4d4d4d"/></linearGradient><path d="M1215.2 112.85c-10.69 9.97-31.26-5.85-39.94-15.78-8.93-10.22-42.27-44.69-44.7-46.93-2.44-2.24-4.38-5-2.22-7.74 2.24-2.68 5.34-1.35 8.04.58 2.69 1.92 43.3 27.43 55.14 34.06 11.51 6.44 31.23 23.3 23.68 35.81" style="fill:url(#f)"/><linearGradient id="g" x1="1302.434" x2="1300.866" y1="165.993" y2="248.374" gradientTransform="rotate(89.362 3123.462 -1322.074)scale(3.5029)" gradientUnits="userSpaceOnUse"><stop offset="0" style="stop-color:#5596ea"/><stop offset="1" style="stop-color:#5596ea;stop-opacity:0"/></linearGradient><path d="M1232.35 122.7c-41.72 37.22-75.84 1.55-81.13-10.81 3.13 21.45 17.58 40.64 39.41 48.03 16.49 5.58 42.8 5.45 54.6-15.8z" style="fill:url(#g)"/><path d="M1232.17 126.2c-3.41 1.56-3.04 2.69-6.07 2.2-2.09-.34-20.17-14.04-20.17-14.04-.92-2.2.18-5.22 2.25-7.62 1.92-2.51 4.65-4.21 6.99-3.77 0 0 17.14 14.86 17.9 16.84 1.11 2.86-.07 2.73-.9 6.39" style="fill:#bfbfbf"/><path d="M1233.11 156.52c13.47-7.62 17.39-20.89 12.07-30.6-4.13-7.55-10.92-8.97-15.6-5.32-4.65 3.62-5.06 7.93-3.67 12.21 2.82 8.74 14.2 14.7 7.2 23.71" style="fill:#282828"/></g></svg>