<svg xmlns="http://www.w3.org/2000/svg" width="64" height="64"><defs><linearGradient id="a" x1="35" x2="35" y1="18" y2="59" gradientUnits="userSpaceOnUse"><stop offset="0" stop-color="#27ab5f"/><stop offset="1" stop-color="#249a56"/></linearGradient><filter id="b" width="1.023" height="1.025" x="-.012" y="-.012" color-interpolation-filters="sRGB"><feGaussianBlur stdDeviation=".205"/></filter></defs><rect width="56" height="56" x="4" y="4" fill="#34d07b" rx="4"/><rect width="54" height="54" x="5" y="5" fill="url(#a)" fill-rule="evenodd" rx="3"/><path d="M32 13 11 25v24l7 4 7-4v-8l-7-4v-8l14-8 14 8v8l-7 4v8l7 4 7-4V25z" filter="url(#b)" opacity=".15"/><path fill="#fff" d="M32 11 11 23v24l7 4 7-4v-8l-7-4v-8l14-8 14 8v8l-7 4v8l7 4 7-4V23z"/></svg>