<svg xmlns="http://www.w3.org/2000/svg" width="56pt" height="56pt" viewBox="0 0 56 56"><linearGradient id="a" x1="0" x2="1" y1=".5" y2=".5" gradientTransform="matrix(53.3 0 0 44.107 1.35 5.946)" gradientUnits="userSpaceOnUse"><stop offset="0" stop-color="#ffe53b"/><stop offset=".987" stop-color="#ff005b"/></linearGradient><path fill="url(#a)" fill-rule="evenodd" d="M42.998 30.144a2.31 2.31 0 0 0 2.273 1.924 4.77 4.77 0 0 1 3.376 1.406 4.8 4.8 0 0 1 1.394 3.375v3.814a4.8 4.8 0 0 1-1.394 3.376 4.77 4.77 0 0 1-3.376 1.406 2.305 2.305 0 0 0 0 4.609 9.4 9.4 0 0 0 6.637-2.754 9.42 9.42 0 0 0 2.742-6.637v-3.814a9.42 9.42 0 0 0-2.742-6.636 9.4 9.4 0 0 0-4.332-2.466v-4.516a3 3 0 0 0-.023-.288 27 27 0 0 0-.853-4.183 19 19 0 0 0-1.302-3.376 17.6 17.6 0 0 0-1.705-2.742 16.3 16.3 0 0 0-2.109-2.247 16 16 0 0 0-2.512-1.797 18.6 18.6 0 0 0-3.007-1.371 21 21 0 0 0-3.641-.91 31 31 0 0 0-4.482-.369 39 39 0 0 0-4.009.173 24 24 0 0 0-3.284.53c-1.06.23-2.085.553-3.099.956-.876.346-1.729.772-2.535 1.279a14 14 0 0 0-2.431 1.913 13.2 13.2 0 0 0-1.89 2.339 14 14 0 0 0-1.382 2.857 18.6 18.6 0 0 0-.853 3.445c-.012.115-.023.219-.023.334v2.304a2.305 2.305 0 0 0 4.609 0v-2.131c.126-.83.334-1.636.61-2.42a9.5 9.5 0 0 1 .934-1.912 8 8 0 0 1 1.232-1.533 9.4 9.4 0 0 1 1.637-1.29 10.4 10.4 0 0 1 1.785-.899 16.5 16.5 0 0 1 2.432-.749 21 21 0 0 1 2.696-.438 33 33 0 0 1 3.537-.149c1.267.011 2.546.115 3.802.311.968.15 1.913.391 2.846.714.772.277 1.509.611 2.224 1.014.633.369 1.221.784 1.774 1.267a11 11 0 0 1 1.463 1.567c.484.634.899 1.302 1.256 2.005q.622 1.245 1.003 2.593.466 1.642.691 3.352v6.764zM10.74 45.445a2.305 2.305 0 0 1 0 4.609A9.36 9.36 0 0 1 4.104 47.3a9.4 9.4 0 0 1-2.754-6.637v-3.814c0-2.488.991-4.873 2.754-6.636a9.36 9.36 0 0 1 6.636-2.754 2.306 2.306 0 0 1 2.305 2.305 2.306 2.306 0 0 1-2.305 2.304 4.8 4.8 0 0 0-3.387 1.406 4.8 4.8 0 0 0-1.394 3.375v3.814c0 1.268.507 2.477 1.394 3.376a4.8 4.8 0 0 0 3.387 1.406m8.192.276c0 1.272-1.549 2.305-3.456 2.305a1.153 1.153 0 0 1-1.152-1.153V30.639c0-.636.516-1.152 1.152-1.152 1.907 0 3.456 1.033 3.456 2.304zm22.744 0v1.152c0 .636-.516 1.153-1.152 1.153-1.907 0-3.456-1.033-3.456-2.305v-13.93c0-1.271 1.549-2.304 3.456-2.304.636 0 1.152.516 1.152 1.152v1.152zm-20.218-4.344a.85.85 0 0 1-1.105.47.855.855 0 0 1-.47-1.106l1.982-4.915c.874-2.168 2.323-2.18 3.233-.027l1.341 3.172c.632-2.052 2.229-2.424 3.567-.83l1.297-3.085c.906-2.154 2.24-2.103 2.977.116l1.867 5.62a.853.853 0 0 1-.538 1.072.85.85 0 0 1-1.071-.538l-.979-2.95c-.442-1.331-1.242-1.363-1.785-.07l-1.18 2.805c-.362.862-.929.856-1.266-.014-.505-1.304-1.392-1.329-1.98-.056l-.266.576c-.392.849-1.007.84-1.371-.021l-1.237-2.92c-.547-1.291-1.415-1.283-1.938.019z"/></svg>