<svg xmlns="http://www.w3.org/2000/svg" width="148" height="148" style="shape-rendering:geometricPrecision;text-rendering:geometricPrecision;image-rendering:optimizeQuality;fill-rule:evenodd;clip-rule:evenodd"><path fill="#fcfcfc" d="M-.5-.5h148v148H-.5z" style="opacity:1"/><path fill="#252d25" d="M121.5 77.5v-2a52 52 0 0 1 1-7 20.7 20.7 0 0 0 1-5q.482-8.29-1-16 .543-5.371-3-9 .481-4.615-3-7-1.004-5.024-5-8a39.3 39.3 0 0 0-11-10q-1.815-.648-3-2-7.886-5.727-18-5v-1q-3.212-.995-7-1-6.391-.134-12 2-7.167 1.837-13 6-2.29-.11-3 2a34.5 34.5 0 0 0-8 6q0-1-1-1Q55.115-.953 83.5 4q54.162 18.575 38 73.5" style="opacity:1"/><path fill="#558d06" d="M79.5 5.5q-8.03.103-16 1h-3q5.609-2.134 12-2 3.788.005 7 1" style="opacity:1"/><path fill="#59f504" d="M79.5 6.5q10.114-.727 18 5-1.983-.255-3.5 1-6.1-5.097-13-1-1.368 7.585-2 16-3.228 2.666.5 4.5-3.587 1.037 0 3a7.3 7.3 0 0 1-3 2q4.166.092 6 3.5a40.6 40.6 0 0 0-14-2q0-1 1-1a65 65 0 0 1 5-2.5l-2-2q2-9 0-18a22.7 22.7 0 0 0 2-8.5z" style="opacity:1"/><path fill="#1bfe0f" d="M97.5 11.5q1.185 1.352 3 2-1.065 5.04 4 5.5-2.491 6.51-8.5 10.5a14.7 14.7 0 0 1-1.5 5 62.5 62.5 0 0 0-7.5 8q-1.574-2.41-4.5-2-1.834-3.408-6-3.5a7.3 7.3 0 0 0 3-2q-3.587-1.963 0-3-3.728-1.834-.5-4.5.632-8.416 2-16 6.9-4.097 13 1 1.517-1.255 3.5-1" style="opacity:1"/><path fill="#d1fa03" d="M60.5 6.5h3q-1.265 9.885 4 19a314 314 0 0 0 2 12q-1 0-1 1a26.3 26.3 0 0 1-5 2q-3.94-7.845-5-17h-3q.56-5.223-3-9-2.013-2.257-5-2 5.833-4.163 13-6" style="opacity:1"/><path fill="#f9ce03" d="M44.5 14.5a14.7 14.7 0 0 1-3 3.5q6.533 1.78 7 8.5a173 173 0 0 1 9.5 13q1.224 1.985 3.5 2a6.54 6.54 0 0 1-3 3q-2.473-3.378-6.5-5-4.978-9.102-14.5-13a20.7 20.7 0 0 0-1-5v-1a34.5 34.5 0 0 1 8-6" style="opacity:1"/><path fill="#f9f701" d="M47.5 12.5q2.987-.257 5 2 3.56 3.777 3 9h3q1.06 9.155 5 17l-2 1q-2.276-.015-3.5-2a173 173 0 0 0-9.5-13q-.467-6.72-7-8.5a14.7 14.7 0 0 0 3-3.5q.71-2.11 3-2" style="opacity:1"/><path fill="#93fd03" d="M79.5 5.5v1h-5a22.7 22.7 0 0 1-2 8.5q2 9 0 18l2 2a65 65 0 0 0-5 2.5 314 314 0 0 1-2-12q-5.265-9.115-4-19a162 162 0 0 1 16-1" style="opacity:1"/><path fill="#352122" d="M35.5 19.5q1 0 1 1v1q-4.296 2.285-5 7-2.11.71-2 3-5.635 6.892-6 16-1.965 10.351 0 21 .585 6.06 4 11 1.239 4.477 4 8 .87 3.373 4 5 .822 3.048 4 3-.618 3.71 3 4 2.329 3.918 7 4 1.703 2.57 5 2-2.128 1.426-5 1-21.73-12.51-28.5-37-5.843-29.182 14.5-50" style="opacity:1"/><path fill="#04fc47" d="M100.5 13.5a39.3 39.3 0 0 1 11 10q1.695 2.723 2 6a8.44 8.44 0 0 0-4 .5 26.8 26.8 0 0 1-10 6.5q-1.329 1.238-1 3a29.8 29.8 0 0 1-7 2v3q-1.936-.356-3 1h-1q-2.04-3.04-5-5 2.926-.41 4.5 2a62.5 62.5 0 0 1 7.5-8 14.7 14.7 0 0 0 1.5-5q6.009-3.99 8.5-10.5-5.065-.46-4-5.5" style="opacity:1"/><path fill="#fc8601" d="M31.5 28.5a179 179 0 0 1 6 6 158 158 0 0 1 14 8.5 44 44 0 0 1 4 4.5 167 167 0 0 1-14-5 59 59 0 0 0-6-5q-1.783-1.393-4-1l-2-5q-.11-2.29 2-3" style="opacity:1"/><path fill="#faa203" d="M36.5 21.5a20.7 20.7 0 0 1 1 5q9.522 3.898 14.5 13 4.027 1.622 6.5 5a6.54 6.54 0 0 1-3 3 44 44 0 0 0-4-4.5 158 158 0 0 0-14-8.5 179 179 0 0 0-6-6q.704-4.715 5-7" style="opacity:1"/><path fill="#03fb78" d="M111.5 23.5q3.996 2.976 5 8v5a107 107 0 0 0-13 3v3a270 270 0 0 0-12.5 4 11 11 0 0 1-2.5-1q1.064-1.356 3-1v-3a29.8 29.8 0 0 0 7-2q-.329-1.762 1-3a26.8 26.8 0 0 0 10-6.5 8.44 8.44 0 0 1 4-.5q-.305-3.277-2-6" style="opacity:1"/><path fill="#f96003" d="m29.5 31.5 2 5q2.217-.393 4 1a59 59 0 0 1 6 5 167 167 0 0 0 14 5v2l-2 1q-12.303-5.679-26-7.5a9.5 9.5 0 0 1-1.5-2.5 50 50 0 0 1-2.5 7q.364-9.108 6-16" style="opacity:1"/><path fill="#04fba2" d="M116.5 31.5q3.481 2.385 3 7v5q-11.376.543-20 7.5a8.4 8.4 0 0 1-4 .5q-2 2-4 0-1.107-3.66-4-6h1q1.147.635 2.5 1a270 270 0 0 1 12.5-4v-3a107 107 0 0 1 13-3z" style="opacity:1"/><path fill="#04fac3" d="M119.5 38.5q3.543 3.629 3 9a145 145 0 0 1-24.5 5q-1.605-.042-2.5-1a8.4 8.4 0 0 0 4-.5q8.624-6.957 20-7.5z" style="opacity:1"/><path fill="#02fee7" d="M122.5 47.5a32.5 32.5 0 0 1-.5 8 737 737 0 0 0-29.5 0q.257-1.487-1-2v-2q2 2 4 0 .895.958 2.5 1a145 145 0 0 0 24.5-5" style="opacity:1"/><path fill="#fd1d05" d="M53.5 50.5v9a649 649 0 0 1-30 4v-16a50 50 0 0 0 2.5-7q.561 1.374 1.5 2.5 13.697 1.821 26 7.5" style="opacity:1"/><path fill="#03f3fa" d="M122.5 47.5q1.482 7.71 1 16-1.935-.837-2.5-3-1.21 5.923-1.5 0-13.523 0-27-1v-4a737 737 0 0 1 29.5 0q.746-3.97.5-8" style="opacity:1"/><path fill="#05cdf7" d="M91.5 53.5q1.257.513 1 2v4q13.477 1 27 1 .29 5.923 1.5 0 .565 2.163 2.5 3a20.7 20.7 0 0 1-1 5q-.975.456-2 1a148 148 0 0 0-20-5.5 41 41 0 0 0-9-.5z" style="opacity:1"/><path fill="#f50226" d="M23.5 47.5v16a649 649 0 0 0 30-4v4q-8.582-1.128-15 4.5-7.57 1.917-15 .5-1.965-10.649 0-21" style="opacity:1"/><path fill="#f5034e" d="M55.5 49.5q-2 8 0 16-9.427 3.15-19 6.5-2.305 1.665-2 4.5h-6q.356 1.936-1 3-3.415-4.94-4-11 7.43 1.417 15-.5 6.418-5.628 15-4.5v-13z" style="opacity:1"/><path fill="#07aafa" d="M91.5 63.5a41 41 0 0 1 9 .5 148 148 0 0 1 20 5.5q1.025-.544 2-1a52 52 0 0 0-1 7l-2 2q-8.212-4.823-18-6.5a31 31 0 0 0-9-5.5q-1.195.686-1 2-1 0-1-1-.356-1.936 1-3" style="opacity:1"/><path fill="#038cf9" d="M119.5 77.5q.147 3.08-2 5-1.461-1.703-3.5-3l-1 1a4.93 4.93 0 0 1-.5-3q-9.969-2.735-18-9.5a4.93 4.93 0 0 0-3-.5q-.195-1.314 1-2a31 31 0 0 1 9 5.5q9.788 1.677 18 6.5" style="opacity:1"/><path fill="#0475f6" d="M90.5 66.5q0 1 1 1a4.93 4.93 0 0 1 3 .5q8.031 6.765 18 9.5a4.93 4.93 0 0 0 .5 3l1-1q2.039 1.297 3.5 3-.915 2.9-3 5 .013-2.712-1.5-5-3.435 1.163-5.5-2.5a8.44 8.44 0 0 0-4-.5v-4q-7.585-1.607-13-7a186 186 0 0 1-3 2q.357-2.856 3-4" style="opacity:1"/><path fill="#045bfb" d="M114.5 87.5q-1.417 4.417-6 6-.481-2.322-3-2-.38-3.771-2.5-7a54.5 54.5 0 0 1-9.5-8.5 4.93 4.93 0 0 0-3-.5v-4h-3v-1a186 186 0 0 0 3-2q5.415 5.393 13 7v4a8.44 8.44 0 0 1 4 .5q2.065 3.663 5.5 2.5 1.513 2.288 1.5 5" style="opacity:1"/><path fill="#fc007f" d="M55.5 65.5q.915 1.337 1 3a810 810 0 0 0-7 7.5q-5.57.77-10 3.5.329 1.762-1 3-3.98 2.202-7 5-2.761-3.523-4-8 1.356-1.064 1-3h6q-.305-2.835 2-4.5 9.573-3.35 19-6.5" style="opacity:1"/><path fill="#0f0788" d="M81.5 77.5q2.65 3.438 3 8-2.65-3.437-3-8" style="opacity:1"/><path fill="#fb01a3" d="m56.5 68.5 5 5q-2.872-.426-5 1-5-1-6 4-1.238 1.329-3 1 .255 1.983-1 3.5A26.6 26.6 0 0 1 36 89.5a4.93 4.93 0 0 0-.5 3q-3.13-1.627-4-5 3.02-2.798 7-5 1.329-1.238 1-3 4.43-2.73 10-3.5a810 810 0 0 1 7-7.5" style="opacity:1"/><path fill="#f702ba" d="M56.5 74.5a328 328 0 0 1-13.5 18 11.4 11.4 0 0 1-1.5 3.5q1.255 1.517 1 3.5-3.618-.29-3-4-3.178.048-4-3a4.93 4.93 0 0 1 .5-3A26.6 26.6 0 0 0 46.5 83q1.255-1.517 1-3.5 1.762.329 3-1 1-5 6-4" style="opacity:1"/><path fill="#ee03f2" d="M63.5 75.5q1.647 1.65.5 4a331 331 0 0 0-9.5 26q-3.297.57-5-2-1.025-2.514-4-2-.266-3.72 3-5.5-1.255-1.517-1-3.5a4.93 4.93 0 0 0 3-.5 48 48 0 0 1 4-7.5q1.536-2.03 4-2a52 52 0 0 0 1-7z" style="opacity:1"/><path fill="#12193a" d="M121.5 75.5v2a61.5 61.5 0 0 1-8.5 16q-1.665 2.306-4.5 2v-2q4.583-1.583 6-6 2.085-2.1 3-5 2.147-1.92 2-5z" style="opacity:1"/><path fill="#0334f7" d="M87.5 71.5h3v4a4.93 4.93 0 0 1 3 .5 54.5 54.5 0 0 0 9.5 8.5q2.12 3.229 2.5 7 2.519-.322 3 2v2l-2 1a44 44 0 0 0-3-2q1.238-1.426.5-3a95 95 0 0 0-11-9q-.91-5.662-6.5-7 2.09-1.78-.5-2-2.962 1.449-4.5 4-1.356-1.064-1-3a50 50 0 0 0 7-3" style="opacity:1"/><path fill="#f701d9" d="m61.5 73.5 2 2h-4a52 52 0 0 1-1 7q-2.464-.03-4 2a48 48 0 0 0-4 7.5 4.93 4.93 0 0 1-3 .5q-.255 1.983 1 3.5-3.266 1.78-3 5.5 2.975-.514 4 2-4.671-.082-7-4 .255-1.983-1-3.5a11.4 11.4 0 0 0 1.5-3.5 328 328 0 0 0 13.5-18q2.128-1.426 5-1" style="opacity:1"/><path fill="#0a0cf7" d="M106.5 96.5q-4.692 5.204-11 8-2.188.1-4-1-4.038-8.583-7-18-.35-4.562-3-8 1.538-2.551 4.5-4 2.59.22.5 2 5.59 1.338 6.5 7a95 95 0 0 1 11 9q.738 1.574-.5 3a44 44 0 0 1 3 2" style="opacity:1"/><path fill="#120f31" d="M108.5 95.5q-1.054 3.324-4 5.5a24.6 24.6 0 0 1-10 5.5l1-2q6.308-2.796 11-8z" style="opacity:1"/><path fill="#212021" d="M68.5 38.5q7.2-.225 14 2 2.96 1.96 5 5 2.893 2.34 4 6v12q-1.356 1.064-1 3-2.643 1.144-3 4v1a50 50 0 0 1-7 3q-.356 1.936 1 3 .35 4.563 3 8 2.962 9.417 7 18v3h3q-3.105 1.93-1 5l-2 2a11.1 11.1 0 0 1 2 3.5v10q-4 3 0 6a3.94 3.94 0 0 1-1 2 109 109 0 0 0-9 2q-5.382 9.193-16 6-4.55-1.787-5-6.5a30.5 30.5 0 0 1-9-1.5 3.94 3.94 0 0 1-1-2q3.56-8.063 0-16a28.5 28.5 0 0 0 1-9.5q-2.398.401-4-1 2.872.426 5-1a331 331 0 0 1 9.5-26q1.147-2.35-.5-4l-2-2-5-5a5.73 5.73 0 0 0-1-3q-2-8 0-16v-2a6.54 6.54 0 0 0 3-3 6.54 6.54 0 0 0 3-3l2-1a26.3 26.3 0 0 0 5-2" style="opacity:1"/><path fill="#6e6f6e" d="M58.5 99.5a4.93 4.93 0 0 0 .5 3q12.897-1.992 25.5 0-13.56-.372-27 1-.401-2.398 1-4" style="opacity:1"/><path fill="#f6f6f6" d="M84.5 102.5q-12.603-1.992-25.5 0a4.93 4.93 0 0 1-.5-3 485 485 0 0 1 9-26q-2.712.013-5-1.5-14.663-16.035 2-30 14.017-4.81 23.5 6.5 6.39 17.434-9.5 26.5A678 678 0 0 1 87 97.5q.74 2.451.5 5z" style="opacity:1"/><path fill="#0f058e" d="M91.5 103.5q1.812 1.1 4 1l-1 2h-3z" style="opacity:1"/></svg>