<svg xmlns="http://www.w3.org/2000/svg" xml:space="preserve" id="Livello_1" x="0" y="0" version="1.1" viewBox="0 0 512 512"><style>.st1{fill:#0364b8}.st2{fill:#0078d4}.st3{fill:#28a8ea}.st10,.st8{opacity:.1;enable-background:new}.st10{opacity:.2}</style><path d="M512 267.91c.03-4-2.04-7.73-5.45-9.82h-.06l-.21-.12-177.42-105.02c-.77-.52-1.56-.99-2.38-1.42a23.84 23.84 0 0 0-21.84 0c-.82.43-1.62.9-2.38 1.42L124.84 257.96l-.21.12c-5.42 3.37-7.08 10.5-3.71 15.92.99 1.6 2.36 2.93 3.99 3.88L302.32 382.9c.77.51 1.56.99 2.38 1.42a23.84 23.84 0 0 0 21.84 0c.82-.43 1.61-.9 2.38-1.42l177.41-105.02c3.55-2.06 5.71-5.87 5.67-9.97" style="fill:#0a2767"/><path d="M145.53 197.79h116.43v106.72H145.53zM488.19 89.3V40.48c.28-12.21-9.38-22.33-21.59-22.62H164.47c-12.21.29-21.87 10.42-21.59 22.62V89.3l178.6 47.63z" class="st1"/><path d="M142.88 89.3h119.07v107.16H142.88z" class="st2"/><path d="M381.02 89.3H261.95v107.16l119.07 107.16h107.16V196.47z" class="st3"/><path d="M261.95 196.47h119.07v107.16H261.95z" class="st2"/><path d="M261.95 303.63h119.07v107.16H261.95z" class="st1"/><path d="M145.53 304.51h116.43v97.02H145.53z" style="fill:#14447d"/><path d="M381.02 303.63h107.16v107.16H381.02z" class="st2"/><linearGradient id="SVGID_1_" x1="315.534" x2="315.534" y1="-877.426" y2="-651.193" gradientTransform="translate(0 1145.333)" gradientUnits="userSpaceOnUse"><stop offset="0" style="stop-color:#35b8f1"/><stop offset="1" style="stop-color:#28a8ea"/></linearGradient><path d="m506.55 277.23-.23.12-177.41 99.78c-.77.48-1.56.93-2.38 1.33a24.7 24.7 0 0 1-9.62 2.38l-9.69-5.67c-.82-.41-1.61-.87-2.38-1.37l-179.8-102.61h-.08l-5.88-3.29v202c.09 13.48 11.09 24.33 24.56 24.24h344.18c.2 0 .38-.1.6-.1 2.85-.18 5.65-.77 8.33-1.74 1.16-.49 2.28-1.07 3.35-1.74.8-.45 2.17-1.44 2.17-1.44 6.1-4.51 9.71-11.64 9.74-19.23V267.91c-.01 3.86-2.1 7.42-5.46 9.32" style="fill:url(#SVGID_1_)"/><path d="M502.47 267.11v12.38L316.96 407.22 124.9 271.28c0-.07-.05-.12-.12-.12l-17.62-10.6v-8.93l7.26-.12 15.36 8.81.36.12 1.31.83s180.51 103 180.99 103.23l6.91 4.05c.6-.24 1.19-.48 1.91-.71.36-.24 179.2-100.85 179.2-100.85z" style="opacity:.5;fill:#0a2767"/><path d="m506.55 277.23-.23.13-177.41 99.78a24.854 24.854 0 0 1-26.6 0L124.9 277.36l-.21-.13a10.72 10.72 0 0 1-5.61-9.32V469.9c.09 13.47 11.08 24.33 24.55 24.24h343.83c13.47.09 24.47-10.77 24.55-24.24V267.91c-.01 3.86-2.1 7.42-5.46 9.32" style="fill:#1490df"/><path d="m331.49 375.67-2.66 1.49c-.77.49-1.56.94-2.38 1.35a24.65 24.65 0 0 1-9.36 2.48l67.5 79.82 117.75 28.37a24.3 24.3 0 0 0 7.47-9.32z" class="st8"/><path d="m343.52 368.9-14.68 8.25c-.77.49-1.56.94-2.38 1.35a24.65 24.65 0 0 1-9.36 2.48l31.62 87.19 153.66 20.97A24.06 24.06 0 0 0 512 469.9v-2.61z" style="opacity:.05"/><path d="M143.96 494.14h343.46c5.29.03 10.44-1.64 14.7-4.76L307.2 375.2c-.82-.41-1.61-.87-2.38-1.37l-179.8-102.61h-.08l-5.87-3.31v201.3c-.01 13.75 11.13 24.92 24.89 24.93" class="st3"/><path d="M285.77 134.94v253.98a21.89 21.89 0 0 1-13.69 20.24c-2.56 1.1-5.31 1.67-8.1 1.67H119.07v-285.8h23.81v-11.91h121.09c12.04.04 21.77 9.79 21.8 21.82" class="st8"/><path d="M273.86 146.85v253.98c.03 2.88-.58 5.72-1.79 8.33a21.7 21.7 0 0 1-20 13.54h-133V125.02h133c3.45-.03 6.86.83 9.88 2.5a21.66 21.66 0 0 1 11.91 19.33" class="st10"/><path d="M273.86 146.85v230.16c-.06 12.02-9.77 21.77-21.79 21.87h-133V125.02h133c3.45-.03 6.86.83 9.88 2.5a21.66 21.66 0 0 1 11.91 19.33" class="st10"/><path d="M261.95 146.85v230.16c-.01 12.04-9.75 21.81-21.79 21.87H119.07V125.02h121.09c12.04.01 21.8 9.77 21.79 21.81z" class="st10"/><linearGradient id="SVGID_2_" x1="45.507" x2="216.447" y1="-1037.364" y2="-741.303" gradientTransform="translate(0 1145.333)" gradientUnits="userSpaceOnUse"><stop offset="0" style="stop-color:#1784d9"/><stop offset=".5" style="stop-color:#107ad5"/><stop offset="1" style="stop-color:#0a63c9"/></linearGradient><path d="M21.83 125.02h218.3c12.05 0 21.83 9.77 21.83 21.83v218.3c0 12.05-9.77 21.83-21.83 21.83H21.83C9.77 386.98 0 377.2 0 365.15v-218.3c0-12.05 9.77-21.83 21.83-21.83" style="fill:url(#SVGID_2_)"/><path d="M68.22 216.56a63.5 63.5 0 0 1 24.93-27.54 75.4 75.4 0 0 1 39.61-9.93 70.15 70.15 0 0 1 36.66 9.42 62.9 62.9 0 0 1 24.25 26.31 84.8 84.8 0 0 1 8.5 38.7 89.6 89.6 0 0 1-8.75 40.48 64.4 64.4 0 0 1-25 27.23 72.94 72.94 0 0 1-38.03 9.67 71.6 71.6 0 0 1-37.47-9.53 64 64 0 0 1-24.58-26.36 82.9 82.9 0 0 1-8.6-38.23 92.1 92.1 0 0 1 8.48-40.22m26.57 64.66a41.15 41.15 0 0 0 14.03 18.12 36.7 36.7 0 0 0 21.91 6.6 38.38 38.38 0 0 0 23.39-6.81 39.44 39.44 0 0 0 13.62-18.12 70.3 70.3 0 0 0 4.35-25.28c.09-8.7-1.29-17.36-4.1-25.6-2.48-7.44-7.06-14-13.19-18.88a36.2 36.2 0 0 0-23.18-7.14 37.73 37.73 0 0 0-22.42 6.66 41.53 41.53 0 0 0-14.29 18.28 72.65 72.65 0 0 0-.1 52.21z" style="fill:#fff"/><path d="M381.02 89.3h107.16v107.16H381.02z" style="fill:#50d9ff"/></svg>