<svg xmlns="http://www.w3.org/2000/svg" xmlns:xlink="http://www.w3.org/1999/xlink" viewBox="0 0 512 512"><defs><linearGradient xlink:href="#a" id="f" x1="458" x2="442" y1="-51.7" y2="-202" gradientUnits="userSpaceOnUse"/><linearGradient id="a"><stop offset="0" style="stop-color:#5ca2b8"/><stop offset="1" style="stop-color:#aedce8"/></linearGradient><linearGradient xlink:href="#a" id="g" x1="396" x2="379" y1="-225" y2="-368" gradientTransform="translate(-3.63 -1.82)" gradientUnits="userSpaceOnUse"/><linearGradient xlink:href="#a" id="h" x1="450" x2="433" y1="-143" y2="-242" gradientTransform="translate(-3.63 -1.82)" gradientUnits="userSpaceOnUse"/><linearGradient xlink:href="#a" id="i" x1="490" x2="442" y1="-113" y2="-202" gradientTransform="translate(-3.63 -1.82)" gradientUnits="userSpaceOnUse"/><linearGradient xlink:href="#a" id="j" x1="447" x2="425" y1="-140" y2="-268" gradientTransform="translate(-3.63 -1.82)" gradientUnits="userSpaceOnUse"/><linearGradient xlink:href="#b" id="c" x1="20.1" x2="462" y1="-202" y2="-202" gradientUnits="userSpaceOnUse"/><linearGradient id="b"><stop offset="0" style="stop-color:#5587a3"/><stop offset="1" style="stop-color:#457d8f"/></linearGradient><linearGradient xlink:href="#b" id="e" x1="20.1" x2="32.6" y1="-202" y2="-124" gradientUnits="userSpaceOnUse"/><filter id="d" width="1.5" height="1.5" x="-.25" y="-.25" color-interpolation-filters="sRGB"><feGaussianBlur in="SourceAlpha" result="blur" stdDeviation="5"/><feColorMatrix result="bluralpha" values="1 0 0 0 0 0 1 0 0 0 0 0 1 0 0 0 0 0 0.3 0"/><feOffset dy="4" in="bluralpha" result="offsetBlur"/><feMerge><feMergeNode in="offsetBlur"/><feMergeNode in="SourceGraphic"/></feMerge></filter></defs><g style="fill:url(#c);filter:url(#d)" transform="matrix(1.1 0 0 1.1 -8.76 480)"><path d="m267-422 26.6 117-56.6 91-90.2-57.5-26.6-117zM20.1-230l117-26.6 91 56.6-57.5 90.2-117 26.6zM213 17.7l-26.6-117 56.6-91 90.2 57.5 26.6 117zM462-175l-117 26.6-91-56.6 57.5-90.2 117-26.6z" style="fill:url(#e)"/></g><g style="fill:url(#f)" transform="matrix(1.1 0 0 1.1 -4.76 482)"><path d="m252-404 20.4 89.4-45.3 70.6-71.2-44.1-20.4-89.4z" style="fill:url(#g)"/><path d="m36-220 89.4-20.4 70.6 45.3-44.1 71.2-89.4 20.4z" style="fill:url(#h)"/><path d="m221-3.63-20.4-89.4 45.3-70.6 71.2 44.1 20.4 89.4z" style="fill:url(#i)"/><path d="m439-188-89.4 20.4-70.6-45.3 44.1-71.2 89.4-20.4z" style="fill:url(#j)"/></g></svg>