<svg xmlns="http://www.w3.org/2000/svg" width="32" height="32" version="1"><rect width="28" height="28" x="-31" y="-30" rx="1.5" ry="1.5" style="opacity:.2" transform="scale(1 -1)rotate(90)"/><rect width="28" height="28" x="-30" y="-30" rx="1.5" ry="1.5" style="fill:#ec6295" transform="scale(1 -1)rotate(90)"/><path fill="#fff" d="M3.5 2C2.669 2 2 2.669 2 3.5v1C2 3.669 2.669 3 3.5 3h25c.831 0 1.5.669 1.5 1.5v-1c0-.831-.669-1.5-1.5-1.5z" style="opacity:.2"/><path d="M20 7v15h3V7zm0 17v3h3v-3z" style="opacity:.2"/><path d="M20 6v15h3V6zm0 17v3h3v-3z" style="fill:#f5f5f5"/><path d="M15.5 7A8.5 7.5 0 0 0 7 14.5a8.5 7.5 0 0 0 8.5 7.5 8.5 7.5 0 0 0 2.5-.334v-2.268a5.5 5.5 0 0 1-2.5.602 5.5 5.5 0 0 1-5.5-5.5A5.5 5.5 0 0 1 15.5 9a5.5 5.5 0 0 1 2.5.607V7.34A8.5 7.5 0 0 0 15.5 7" style="opacity:.2"/><path d="M15.5 6A8.5 7.5 0 0 0 7 13.5a8.5 7.5 0 0 0 8.5 7.5 8.5 7.5 0 0 0 2.5-.334v-2.268a5.5 5.5 0 0 1-2.5.602 5.5 5.5 0 0 1-5.5-5.5A5.5 5.5 0 0 1 15.5 8a5.5 5.5 0 0 1 2.5.607V6.34A8.5 7.5 0 0 0 15.5 6" style="fill:#f5f5f5"/></svg>