<svg xmlns="http://www.w3.org/2000/svg" width="100" height="100"><path fill="#444" stroke="#333" stroke-width="1.5" d="M18 42c4 4 16 20 16 20s-2 8 0 13c-1 0-23-23-23-23S-6 36 5 19c6 10 7 17 13 23z"/><path fill="#555" stroke="#444" stroke-linejoin="round" stroke-width="2" d="M4 23c1-8 11-10 16-9s12 2 23 11l28 23-37 14-21-20C7.5 35 3 30 4 23z"/><path fill="#444" stroke="#222" d="M72 48 34 62s-3 10 1 14l36-15c4-5 1-13 1-13z"/><path fill="#c5c3ba" stroke="#333" d="M70 53 38 65v8l20 22 34-17v-8z"/><path fill="#757368" d="m38 65 20 21v8L38 73z"/><path fill="none" stroke="#fff" d="M58 86 39 66"/><path fill="#444" d="m59 86 32-15v6L59 93z"/><path fill="#eee" d="m87 74 2 2-28 14-2-3z"/><path fill="#555" stroke="#555" d="m66 64 8-3 5 4-8 4zm-16 7 9-4 5 5-9 4z"/><path fill="#eee" d="m25.8 28.6 8.8 2.7L31 33l9.8 10.3 2.3-7L41 34l-1.4.7-2.8-3.1 4.4-2 2.5 2.7-1.5.9L45 36l-2.9 8.6 3.4 3.8s2-.3 3.4 1.3c1 1.1.8 2.1-.3 2.9-1.4.6-2.9.9-4.4-.7-1.1-1.5.1-2.5.1-2.5L42 47l-9.5 2.7-2.6-2.9s-2.4.1-4.1-1.7c-.9-1.3-.3-3.2 1.4-3.7 2.1-.8 3.3.1 4.3 1.1 1.8 1.8-.2 3.8-.2 3.8L33 48l7.7-2.2-11-12-3.6 1.8z"/></svg>