<svg xmlns="http://www.w3.org/2000/svg" width="34" height="34" fill="none"><g fill-rule="evenodd" clip-path="url(#a)" clip-rule="evenodd"><path fill="#023789" d="m3.03 8.594 5.592 5.592 5.748-5.748 2.797 2.797-5.749 5.747 5.593 5.592-2.874 2.874-5.593-5.592-5.747 5.747L0 22.808l5.748-5.747-5.592-5.592z"/><path fill="url(#b)" d="m14.092 25.5 2.851-2.851v-.001l5.703-5.702-5.595-5.594-2.797-2.798L8.66 2.96 11.51.108l5.595 5.595L22.809 0l2.798 2.797L19.903 8.5l5.595 5.594 5.704-5.702L34 11.189l-5.704 5.702 5.595 5.595-2.851 2.851-5.596-5.594-5.704 5.702 5.596 5.595-2.852 2.852-5.595-5.595L11.186 34 8.39 31.203z"/></g><defs><linearGradient id="b" x1="12.838" x2="9.543" y1="-.694" y2="31.434" gradientUnits="userSpaceOnUse"><stop stop-color="#01F1FF"/><stop offset="1" stop-color="#0197FF"/></linearGradient><clipPath id="a"><path fill="#fff" d="M0 0h34v34H0z"/></clipPath></defs></svg>