<svg xmlns="http://www.w3.org/2000/svg" width="168" height="168" style="shape-rendering:geometricPrecision;text-rendering:geometricPrecision;image-rendering:optimizeQuality;fill-rule:evenodd;clip-rule:evenodd"><path fill="#664bc2" d="M44.5 26.5a29.2 29.2 0 0 1 1 9q.1 2.188-1 4a25.6 25.6 0 0 1-6 6q-10.93 3.44-17.5-6Q17.505 15.995 40.5 22a25.2 25.2 0 0 1 4 4.5" style="opacity:.976"/><path fill="#44e5d0" d="M84.5 20.5v21h-5l-5-6q-2-4.5 0-9 2.556-6.789 10-6" style="opacity:.986"/><path fill="#29cbcb" d="M84.5 20.5q6.92-.045 10 6 .354 4.662-1 9l-5 6h-4z" style="opacity:.979"/><path fill="#67329e" d="M129.5 45.5a25.7 25.7 0 0 0-6-6q-1.1-1.812-1-4a29.2 29.2 0 0 1 1-9q3.876-6.939 12-6 15.044 1.817 12.5 17-5.816 11.696-18.5 8" style="opacity:.966"/><path fill="#d0e4fb" d="M44.5 26.5h30q-2 4.5 0 9h-29a29.2 29.2 0 0 0-1-9" style="opacity:.842"/><path fill="#b4c5f2" d="M94.5 26.5h29a29.2 29.2 0 0 0-1 9q-13.773-.49-27 1l-2-1q1.354-4.338 1-9" style="opacity:.833"/><path fill="#d0e3fc" d="m93.5 35.5 2 1a159 159 0 0 1 15 15q3 4 7 7l16 15a25.7 25.7 0 0 0-6 6q-8.5-7.5-16-16-2.57-4.07-7-6-7.5-8.5-16-16z" style="opacity:.999"/><path fill="#ebf3fe" d="M73.5 35.5h1l5 6-16 17c-3 1-5 3-6 6q-8.5 7.5-16 16h-1q-1.46-3.953-5-6l16-17c3-1 5-3 6-6q8.5-7.5 16-16" style="opacity:.958"/><path fill="#d1e4fc" d="m44.5 39.5 13 12c-1 3-3 5-6 6l-13-12a25.6 25.6 0 0 0 6-6" style="opacity:.989"/><path fill="#b4c5f2" d="M123.5 39.5a25.7 25.7 0 0 1 6 6q-7.095 5.59-12 13-4-3-7-7z" style="opacity:.997"/><path fill="#d0e3fa" d="M63.5 58.5q7.5 6.5 14 14a25.6 25.6 0 0 1-6 6q-6.5-7.5-14-14c1-3 3-5 6-6" style="opacity:.99"/><path fill="#b4c4f2" d="M104.5 57.5q4.43 1.93 7 6a159 159 0 0 0-15 15 25.6 25.6 0 0 1-6-6z" style="opacity:.997"/><path fill="#fcc94c" d="M84.5 70.5a31.7 31.7 0 0 1 6 2 25.6 25.6 0 0 0 6 6v10l-1 2-5 6q-2.903.975-6 1z" style="opacity:.989"/><path fill="#fee40c" d="M84.5 70.5v27a52 52 0 0 1-7-1 1465 1465 0 0 1-5-6l-1-2v-10a25.6 25.6 0 0 0 6-6 54 54 0 0 1 7-2" style="opacity:.977"/><path fill="#46e6d1" d="M35.5 74.5q3.54 2.047 5 6 1.821 3.945 0 8l-5 6q-18.824 2.917-14.5-16 5.81-7.256 14.5-4" style="opacity:.979"/><path fill="#29cccb" d="M133.5 73.5q12.741-1.984 15 10.5-2.29 13.898-16 10.5-2-3-5-5v-10a25.7 25.7 0 0 1 6-6" style="opacity:.976"/><path fill="#d0e3fa" d="M40.5 80.5h31v8h-31q1.821-4.055 0-8" style="opacity:.932"/><path fill="#b3c5f1" d="M96.5 80.5h31v8h-31z" style="opacity:.932"/><path fill="#ebf3fd" d="M40.5 88.5h1q7.5 8.5 16 16a25.7 25.7 0 0 0 6 6l16 17q-2.115 3.621-6 5a181 181 0 0 1-16-16 25.7 25.7 0 0 0-6-6q-8.5-7.5-16-16z" style="opacity:.906"/><path fill="#d1e3fc" d="M127.5 89.5q3 2 5 5l-16 17q-3.621 2.117-5 6a96.3 96.3 0 0 0-17 16 25.7 25.7 0 0 0-6-6q7.5-8.5 16-16 4-3 7-7a85 85 0 0 1 16-15" style="opacity:.989"/><path fill="#d0e4fb" d="M72.5 90.5q2.456 2.962 5 6-6.5 7.5-14 14a25.7 25.7 0 0 1-6-6z" style="opacity:.995"/><path fill="#b3c5f2" d="M95.5 90.5a157 157 0 0 0 16 14q-3 4-7 7l-14-15z" style="opacity:1"/><path fill="#b3c5f1" d="m116.5 111.5 13 12a25.7 25.7 0 0 0-6 6 102 102 0 0 1-12-12q1.379-3.883 5-6" style="opacity:.999"/><path fill="#cfe5fc" d="M51.5 110.5a25.7 25.7 0 0 1 6 6q-6 7-13 13l-5-6z" style="opacity:1"/><path fill="#664bc2" d="m39.5 123.5 5 6 2 5a632 632 0 0 0-3 8q-3.163 6.219-10.5 6-16.887-2.227-12-19 6.642-10.326 18.5-6" style="opacity:.979"/><path fill="#67329e" d="M124.5 142.5a648 648 0 0 0-3-8l2-5a25.7 25.7 0 0 1 6-6q19.614-4.142 18.5 16-5.249 11.249-17.5 8.5-3.744-1.996-6-5.5" style="opacity:.973"/><path fill="#29cbcc" d="m84.5 126.5 4 1a25.7 25.7 0 0 1 6 6v1q.332 4.169-1 8-2.145 6.335-9 6z" style="opacity:.977"/><path fill="#45e5d0" d="M84.5 126.5v22q-6.907.078-10-6-1.332-3.831-1-8v-2q3.885-1.379 6-5a20.7 20.7 0 0 1 5-1" style="opacity:.986"/><path fill="#d0e3fb" d="M46.5 134.5h27q-.332 4.169 1 8h-31a632 632 0 0 1 3-8" style="opacity:.933"/><path fill="#b4c4f1" d="M94.5 134.5h27a648 648 0 0 1 3 8h-31q1.332-3.831 1-8" style="opacity:.93"/></svg>