<svg xmlns="http://www.w3.org/2000/svg" xmlns:xlink="http://www.w3.org/1999/xlink" xml:space="preserve" width="511.985" height="511.985"><defs><linearGradient xlink:href="#a" id="f" x1=".465" x2=".557" y1="-.674" y2=".811" gradientTransform="rotate(17.975 -304.856 527.337)scale(231.661 231.77017)" gradientUnits="userSpaceOnUse"/><linearGradient id="a"><stop offset="0" style="stop-color:#1972e7"/><stop offset="1" style="stop-color:#1969d5"/></linearGradient><linearGradient xlink:href="#b" id="e" x1="101.744" x2="101.599" y1="33.726" y2="135.466" gradientTransform="rotate(17.975 256.81 256.074)scale(3.78 3.78178)" gradientUnits="userSpaceOnUse"/><linearGradient id="b" x2="1" gradientTransform="translate(29.399 42.333)scale(61.286)" gradientUnits="userSpaceOnUse"><stop offset="0" style="stop-color:#afccfb"/><stop offset="1" style="stop-color:#8bb5f8"/></linearGradient><linearGradient xlink:href="#c" id="g" x1=".018" x2="1.77" y1="-.512" y2=".499" gradientTransform="matrix(39.53785 185.80008 -185.7402 39.6043 130.757 128.594)" gradientUnits="userSpaceOnUse"/><linearGradient id="c" x2="1" gradientTransform="rotate(60 -26.875 45.321)scale(50.236)" gradientUnits="userSpaceOnUse"><stop offset="0" style="stop-color:#659cf6"/><stop offset="1" style="stop-color:#4285f4"/></linearGradient><linearGradient xlink:href="#d" id="h" x1="67.452" x2="67.733" y1="40.321" y2="95.25" gradientTransform="matrix(5.79883 0 0 5.80156 -146.516 -146.885)" gradientUnits="userSpaceOnUse"/><linearGradient id="d"><stop offset="0" style="stop-color:#3680f0"/><stop offset="1" style="stop-color:#2678ec"/></linearGradient></defs><g style="stroke-width:.806845"><g style="stroke-width:1.00033"><path d="m255.993 255.994 110.85 63.997-110.85 191.994c141.38 0 255.992-114.61 255.992-255.99 0-46.642-12.536-90.332-34.331-127.998H255.99z" style="fill:url(#e);stroke-width:1.00033" transform="matrix(.95104 -.3084 .30855 .9506 -66.478 91.698)"/><path d="M256.566 0C161.57 0 78.692 51.647 34.312 128.36l111.116 192.462 111.138-64.163V128.33h222.24C434.418 51.637 351.55 0 256.566 0" style="fill:url(#f);stroke-width:1.00033" transform="matrix(.95104 -.3084 .30855 .9506 -66.478 91.698)"/><path d="M.002 255.994c0 141.38 114.607 255.99 255.991 255.99l110.85-191.993-110.85-63.997-110.85 63.997L34.315 128.027C12.53 165.682 0 209.357 0 255.991" style="fill:url(#g);stroke-width:1.00033" transform="matrix(.95104 -.3084 .30855 .9506 -66.478 91.698)"/></g><g style="stroke-width:1.53469"><path fill="#fff" d="M358.685 246.22c0 62.113-50.353 112.465-112.465 112.465s-112.465-50.353-112.465-112.464c0-62.112 50.353-112.465 112.465-112.465s112.465 50.353 112.465 112.465" style="stroke-width:1.53469" transform="matrix(.65176 0 0 .65145 95.495 95.692)"/><path d="M336.684 246.22c0 49.962-40.503 90.465-90.464 90.465-49.962 0-90.465-40.503-90.465-90.464s40.503-90.464 90.465-90.464c49.961 0 90.464 40.503 90.464 90.464" style="fill:url(#h);stroke-width:1.53469" transform="matrix(.65176 0 0 .65145 95.495 95.692)"/></g></g></svg>