<svg xmlns="http://www.w3.org/2000/svg" xml:space="preserve" viewBox="0 0 368 302"><script/><path d="m0 0-24.6 42.5 49.1.013z" style="fill:#20acd9" transform="matrix(1.25 0 0 -1.25 30.675 53.5)"/><path d="m0 0 24.5 42.5L49 0z" style="fill:#27a7d4" transform="matrix(1.25 0 0 -1.25 30.675 53.5)"/><path d="m0 0-24.6 42.5 49.1.013z" style="fill:#259ed2" transform="matrix(1.25 0 0 -1.25 61.425 107.25)"/><path d="m0 0 24.5 42.5L49 0z" style="fill:#2a8ece" transform="matrix(1.25 0 0 -1.25 61.425 107.25)"/><path d="m0 0-24.6 42.5 49.1.013z" style="fill:#3088c8" transform="matrix(1.25 0 0 -1.25 92.05 159.75)"/><path d="m0 0 24.5 42.5L49 0z" style="fill:#357abe" transform="matrix(1.25 0 0 -1.25 92.05 159.75)"/><path d="m0 0-24.6 42.5 49.1.013z" style="fill:#3a6db3" transform="matrix(1.25 0 0 -1.25 123.3 213.5)"/><path d="m0 0 24.5 42.5L49 0z" style="fill:#22697d" transform="matrix(1.25 0 0 -1.25 123.3 213.5)"/><path d="m0 0-24.6 42.5 49.1.013z" style="fill:#3a9ab1" transform="matrix(1.25 0 0 -1.25 184.55 213.5)"/><path d="m0 0 24.5 42.5L49 0z" style="fill:#3aa6ae" transform="matrix(1.25 0 0 -1.25 153.3 159.75)"/><path d="m0 0-24.6 42.5 49.1.013z" style="fill:#3bacac" transform="matrix(1.25 0 0 -1.25 214.55 159.75)"/><path d="m0 0 24.5 42.5L49.1 0z" style="fill:#3daaa0" transform="matrix(1.25 0 0 -1.25 184.55 107.25)"/><path d="m0 0-24.6 42.5 49.1.013z" style="fill:#3faa8d" transform="matrix(1.25 0 0 -1.25 245.8 107.25)"/><path d="m0 0 24.5 42.5L49 0z" style="fill:#40ab86" transform="matrix(1.25 0 0 -1.25 214.55 53.5)"/><path d="m0 0-24.6 42.5 49.1.013z" style="fill:#2f6b54" transform="matrix(1.25 0 0 -1.25 214.55 159.75)"/><path d="m0 0 24.5 42.5L49 0z" style="fill:#44b496" transform="matrix(1.25 0 0 -1.25 184.55 107.25)"/><path d="m0 0-24.6 42.5 49.1.013z" style="fill:#52b89b" transform="matrix(1.25 0 0 -1.25 245.8 107.25)"/><path d="m0 0 24.5 42.5L49 0z" style="fill:#5cba9d" transform="matrix(1.25 0 0 -1.25 214.55 53.5)"/><path d="m0 0-24.6 42.5 49.1.013z" style="fill:#6fc0a6" transform="matrix(1.25 0 0 -1.25 275.8 53.5)"/><path d="m0 0 24.5 42.5L49.1 0z" style="fill:#88c9b2" transform="matrix(1.25 0 0 -1.25 275.8 53.5)"/><path d="m0 0-24.5 42.5 49.1-.006z" style="fill:#99d0bb" transform="matrix(1.25 0 0 -1.25 337.05 53.5)"/><path d="m0 0 24.8 42.4L49.1-.3z" style="fill:#37a084" transform="matrix(1.25 0 0 -1.25 214.55 159.75)"/><path d="m0 0 24.5 42.5L49.1 0z" style="fill:#35896c" transform="matrix(1.25 0 0 -1.25 245.8 213.5)"/><path d="m0 0-24.6 42.5 49.1.013z" style="fill:#379b7f" transform="matrix(1.25 0 0 -1.25 307.05 213.5)"/><path d="m0 0 24.5 42.5L49 0z" style="fill:#3bad91" transform="matrix(1.25 0 0 -1.25 307.05 213.5)"/><path d="m0 0-24.6 42.5 49.1.013z" style="fill:#368f74" transform="matrix(1.25 0 0 -1.25 245.8 213.5)"/><path d="m49.55 286 17.5-50.5h-9.825l-7.35 23.125c-2.025 6.15-3.825 12.3-5.175 18.25h-.15c-1.35-6.15-3-12.075-4.95-18.5l-6.9-23H22.65l16.375 50.5zm53-15.625c.15-.825.3-2.175.3-3.9 0-8.025-3.9-17.75-15.75-17.75-11.7 0-17.875 9.525-17.875 19.625 0 11.175 6.975 18.5 18.875 18.5 5.25 0 9.6-.975 12.75-2.25l-1.35-6.375c-2.775 1.05-5.85 1.65-10.125 1.65-5.85 0-11.025-2.85-11.25-9.45zm-24.5-6.45c.375-3.75 2.775-8.925 8.475-8.925 6.15 0 7.65 5.55 7.575 8.925zM111.175 286h9.225v-18.875c0-1.05.15-2.025.3-2.85.825-4.125 3.825-6.975 8.25-6.975 1.125 0 1.95.15 2.7.3v-8.7a9.7 9.7 0 0 0-2.175-.225c-3.9 0-8.175 2.625-9.975 7.8h-.3l-.3-6.975h-8.025c.225 3.3.3 6.825.3 11.775zm57.125 0c-.375-2.25-.525-5.475-.525-8.775v-13.25c0-7.95-3.375-15.375-15.125-15.375-5.775 0-10.5 1.575-13.25 3.225l1.8 6c2.475-1.575 6.225-2.7 9.825-2.7 6.45 0 7.425 3.975 7.425 6.375v.6c-13.5-.075-21.625 4.575-21.625 13.75 0 5.55 4.125 10.875 11.475 10.875 4.725 0 8.55-2.025 10.8-4.875h.225l.6 4.05zm-9.525-12.875c0 .6-.075 1.35-.3 2.025-.825 2.625-3.525 5.025-7.2 5.025-2.925 0-5.25-1.65-5.25-5.25 0-5.55 6.225-6.975 12.75-6.825zm54.15 6.05c-2.625 1.275-6.675 2.1-10.65 2.1-12.3 0-19.375-7.95-19.375-20.375 0-13.25 7.875-20.875 19.75-20.875 4.2 0 7.725.9 10.2 2.1l1.575-5.325c-1.725-.9-5.7-2.25-12-2.25-15.625 0-26.375 10.725-26.375 26.5 0 16.625 10.725 25.625 25 25.625 6.15 0 10.95-1.2 13.375-2.4zM222.05 286h6.525v-19.375c0-1.125.15-2.175.3-3.075.9-4.95 4.2-8.475 8.85-8.475.9 0 1.575.075 2.25.225v-6.225a7 7 0 0 0-1.875-.225c-4.425 0-8.4 3.075-10.05 7.95h-.3l-.225-7.125h-5.775c.225 3.375.3 7.05.3 11.325zm21.625-36.25 13.375 33.5c.3.825.45 1.35.45 1.725s-.225.9-.525 1.575c-1.5 3.375-3.75 5.925-5.55 7.35-1.95 1.65-4.125 2.7-5.775 3.225l1.65 5.55c1.65-.3 4.875-1.425 8.1-4.275 4.5-3.9 7.725-10.275 12.45-22.75l9.9-25.875h-6.975l-7.2 21.25c-.9 2.625-1.65 5.4-2.325 7.575h-.15c-.6-2.175-1.5-5.025-2.325-7.425l-7.95-21.5zm40.125 51.125h6.525v-19.75h.15c2.175 3.6 6.375 5.7 11.175 5.7 8.55 0 16.5-6.45 16.5-19.5 0-11.025-6.6-18.5-15.375-18.5-5.925 0-10.2 2.625-12.875 7.05h-.15l-.3-6.225h-5.925c.15 3.45.3 7.2.3 11.85zM290.325 265c0-.9.225-1.875.45-2.7 1.275-4.95 5.475-8.175 9.975-8.175 6.975 0 10.8 6.225 10.8 13.5 0 8.325-4.05 14-11.025 14-4.725 0-8.7-3.15-9.9-7.725-.15-.825-.3-1.725-.3-2.7zm37.975-24v8.7h-5.625v5.025h5.625v19.75c0 4.275.675 7.5 2.55 9.45 1.575 1.8 4.05 2.775 7.125 2.775 2.55 0 4.575-.375 5.85-.9l-.3-4.95c-.825.225-2.1.45-3.825.45-3.675 0-4.95-2.55-4.95-7.05v-19.625h9.45V249.6h-9.45v-10.425z" style="fill:#2b2b2a"/></svg>