<svg xmlns="http://www.w3.org/2000/svg" xmlns:xlink="http://www.w3.org/1999/xlink" width="48" height="48"><linearGradient id="a"><stop offset="0" stop-color="#292c2f"/><stop offset="1" stop-opacity="0"/></linearGradient><linearGradient id="d" x1="428.371" x2="428.371" y1="530.798" y2="525.798" gradientTransform="matrix(2.85714 0 0 2.8 -1209.918 -1455.232)" gradientUnits="userSpaceOnUse"><stop offset="0" stop-color="#da4453"/><stop offset="1" stop-color="#fa4e5f"/></linearGradient><linearGradient id="k" x1="34" x2="34" y1="31" y2="17" gradientUnits="userSpaceOnUse"><stop offset="0" stop-color="#4d4d4d"/><stop offset="1" stop-color="#585858"/></linearGradient><linearGradient id="h" x1="32" x2="32" y1="31" y2="17" gradientUnits="userSpaceOnUse"><stop offset="0" stop-color="#afb0b3"/><stop offset="1" stop-color="#bdc3c7"/></linearGradient><linearGradient id="e" x1="29" x2="29" y1="17" y2="31" gradientUnits="userSpaceOnUse"><stop offset="0" stop-color="#31363b"/><stop offset="1" stop-color="#4d4d4d"/></linearGradient><linearGradient id="f" x1="26" x2="26" y1="17" y2="31" gradientUnits="userSpaceOnUse"><stop offset="0" stop-color="#7f8c8d"/><stop offset="1" stop-color="#afb0b3"/></linearGradient><linearGradient id="b" x1="24" x2="24" y1="44" y2="4" gradientUnits="userSpaceOnUse"><stop offset="0" stop-color="#bdc3c7"/><stop offset="1" stop-color="#eff0f1"/></linearGradient><linearGradient xlink:href="#a" id="c" x1="17" x2="38.141" y1="17" y2="38.141" gradientUnits="userSpaceOnUse"/><linearGradient xlink:href="#a" id="g" x1="25" x2="41.564" y1="17" y2="33.564" gradientUnits="userSpaceOnUse"/><circle cx="24" cy="24" r="20" fill="url(#b)"/><path fill="url(#c)" d="m10 17 2 14 12.965 12.965a20 20 0 0 0 18.988-19.012L36 17l-4 6-6-6-10 6z" opacity=".2"/><path fill="url(#d)" d="M7 17h3l3.5 10L17 17h3l-5 14h-3z"/><path fill="url(#e)" d="m18 31 5-14h3l-5 14zm10 0 5-14h3l-5 14z"/><path fill="url(#f)" d="m15 31 5-14h3l-5 14zm10 0 5-14h3l-5 14z"/><path fill="url(#g)" d="m26 17-1 14 9.82 9.82a20 20 0 0 0 9.133-15.867L36 17l-3 7z" opacity=".2"/><path fill="url(#h)" d="M28 31h-3l-5-14h3zm10 0h-3l-5-14h3z"/><path fill="url(#k)" d="m23 17 5 14h3l-5-14zm10 0 5 14h3l-5-14z"/><path fill="#232629" d="M43.979 23.418A20 20 0 0 1 24 43 20 20 0 0 1 4.021 23.582 20 20 0 0 0 4 24a20 20 0 0 0 20 20 20 20 0 0 0 20-20 20 20 0 0 0-.021-.582" opacity=".2"/></svg>