<svg xmlns="http://www.w3.org/2000/svg" width="48" height="48" viewBox="0 0 48 48"><title>Weawow SVG Icon</title><path fill="none" stroke="currentColor" stroke-linecap="round" stroke-linejoin="round" d="M40.61 26.64a12.31 12.31 0 0 0-4.32-9.37v0a7.68 7.68 0 0 0-9.91-7.38A10.86 10.86 0 0 0 9.14 22.05a12.41 12.41 0 0 0 10.68 18.77h19.45l-6.37-2.75a12.34 12.34 0 0 0 7.71-11.43"/><path fill="none" stroke="currentColor" stroke-linecap="round" stroke-linejoin="round" d="m36.47 22.79-1.65 5.3-1.65-5.3-1.65 5.3-1.65-5.3m-11.74 0-1.65 5.3-1.65-5.3-1.65 5.3-1.65-5.3"/><circle cx="26.38" cy="18.12" r=".75" fill="currentColor"/><circle cx="21.62" cy="18.12" r=".75" fill="currentColor"/><circle cx="24" cy="24.09" r="4" fill="none" stroke="currentColor" stroke-linecap="round" stroke-linejoin="round"/></svg>