<svg xmlns="http://www.w3.org/2000/svg" id="svg4369" width="624.712" height="135.419" viewBox="0 0 165.288 35.83"><defs id="defs4363"><clipPath id="clipPath4283" clipPathUnits="userSpaceOnUse"><path id="path4281" d="M0 851.277h1874.53V0H0Z"/></clipPath></defs><g id="layer1" transform="translate(-26.099 -114.859)"><g id="g4277" transform="matrix(.1264 0 0 -.1264 -9.759 186.567)"><g id="g4279" clip-path="url(#clipPath4283)"><g id="g4285" transform="translate(673.153 567.312)"><path id="path4287" d="M0 0c-17.63 0-32.056-14.425-32.056-32.056 0-17.625 14.426-32.05 32.056-32.05s32.052 14.425 32.052 32.05C32.052-14.425 17.63 0 0 0" style="fill:#4c8c2b;fill-opacity:1;fill-rule:nonzero;stroke:none"/></g><g id="g4289" transform="translate(1011.4 567.312)"><path id="path4291" d="M0 0c-17.63 0-32.052-14.425-32.052-32.056 0-17.625 14.422-32.05 32.052-32.05 17.631 0 32.057 14.425 32.057 32.05C32.057-14.425 17.631 0 0 0" style="fill:#4c8c2b;fill-opacity:1;fill-rule:nonzero;stroke:none"/></g><g id="g4293" transform="translate(607.59 482.906)"><path id="path4295" d="M0 0h-54.184c-1.472 0-2.947-1.105-3.316-2.582l-34.281-106.523c-1.104-2.947-2.948-2.58-4.052 0L-137.117-2.211C-137.853-.37-138.961 0-140.433 0h-40.545c-1.476 0-2.58-.37-3.319-2.211l-41.281-106.894c-1.108-2.58-2.948-2.947-4.056 0L-263.911-2.582c-.372 1.477-1.844 2.582-3.32 2.582h-54.184c-2.211 0-2.947-1.476-2.211-3.318l77.773-188.721c.736-1.843 2.212-2.211 3.688-2.211h29.118c1.476 0 2.947.368 3.688 2.211l46.808 106.524c1.108 2.58 2.584 2.58 3.688 0l47.18-106.524c.736-1.843 2.212-2.211 3.687-2.211h29.118c1.476 0 2.948.368 3.688 2.211L2.212-3.318C2.952-1.476 2.212 0 0 0" style="fill:#4c8c2b;fill-opacity:1;fill-rule:nonzero;stroke:none"/></g><g id="g4297" transform="translate(699.796 483.68)"><path id="path4299" d="M0 0h-53.291c-1.847 0-2.959-1.113-2.959-2.963v-189.101c0-1.848 1.112-2.959 2.959-2.959H0c1.852 0 2.959 1.111 2.959 2.959V-2.963C2.959-1.113 1.852 0 0 0" style="fill:#4c8c2b;fill-opacity:1;fill-rule:nonzero;stroke:none"/></g><g id="g4301" transform="translate(871.51 402.264)"><path id="path4303" d="M0 0c-1.112 1.482-1.112 2.59.369 4.072l78.452 73.642c1.851 1.85 1.109 3.702-1.481 3.702H11.099c-1.478 0-2.59-.374-3.699-1.482l-68.831-63.282c-1.851-1.85-3.702-.738-3.702 1.852v143.585c0 1.847-1.108 2.959-2.96 2.959h-53.29c-1.847 0-2.96-1.112-2.96-2.959v-272.737c0-1.848 1.113-2.959 2.96-2.959h53.29c1.852 0 2.96 1.111 2.96 2.959v57.362c0 1.477.369 2.59 1.482 3.698l19.612 17.396c1.851 1.477 2.59 1.477 4.071-.374l57.359-79.191c.739-1.108 2.22-1.85 3.703-1.85h56.988c2.221 0 3.329 1.481 1.478 3.702z" style="fill:#4c8c2b;fill-opacity:1;fill-rule:nonzero;stroke:none"/></g><g id="g4305" transform="translate(1038.044 483.68)"><path id="path4307" d="M0 0h-53.287c-1.851 0-2.959-1.113-2.959-2.963v-189.101c0-1.848 1.108-2.959 2.959-2.959H0c1.852 0 2.964 1.111 2.964 2.959V-2.963C2.964-1.113 1.852 0 0 0" style="fill:#4c8c2b;fill-opacity:1;fill-rule:nonzero;stroke:none"/></g><g id="g4309" transform="translate(1141.666 567.312)"><path id="path4311" d="M0 0h-53.291c-1.848 0-2.959-1.112-2.959-2.959v-272.737c0-1.848 1.111-2.959 2.959-2.959H0c1.851 0 2.959 1.111 2.959 2.959V-2.959C2.959-1.112 1.851 0 0 0" style="fill:#4c8c2b;fill-opacity:1;fill-rule:nonzero;stroke:none"/></g><g id="g4313" transform="translate(1560.594 357.118)"><path id="path4315" d="M0 0c-1.481 1.112-2.964 1.481-4.072-.37-6.661-11.842-17.761-22.944-38.486-22.944-24.425 0-42.925 22.206-42.925 52.546 0 30.347 18.5 52.183 42.925 52.183 20.725 0 31.825-10.364 38.486-23.314.739-1.482 2.591-1.482 4.072-.37l29.603 27.013c1.482 1.482 1.482 2.59.369 4.072-14.801 21.833-38.116 38.854-72.53 38.854-58.1 0-102.135-44.038-102.135-98.438 0-54.767 44.035-98.802 102.135-98.802 34.414 0 57.729 17.391 72.53 38.854 1.113 1.483 1.113 2.591-.369 4.072z" style="fill:#4c8c2b;fill-opacity:1;fill-rule:nonzero;stroke:none"/></g><g id="g4317" transform="translate(1222.573 405.41)"><path id="path4319" d="M0 0c8.385 9.992 16.788 17.513 25.69 22.99 7.899 4.86 15.193 7.514 21.628 9.857 5.193 1.889 10.097 3.674 14.842 6.439 5.232 3.047 9.79 6.995 14.344 12.423 7.071 8.426 8.693 19.639 5.248 29.322-35.294 7.197-73.315-4.669-98.096-34.201-33.343-39.736-31.023-97.526 3.549-134.471-3.545 8.202-5.786 17.008-6.588 26.167C-21.343-39.063-14.459-17.232 0 0" style="fill:#4c8c2b;fill-opacity:1;fill-rule:nonzero;stroke:none"/></g><g id="g4321" transform="translate(1329.007 415.447)"><path id="path4323" d="M0 0c-8.967-10.687-15.519-14.821-21.3-18.47-5.241-3.307-10.191-6.431-17.53-15.177-11.674-13.913-17.231-31.538-15.649-49.628 1.561-17.835 9.88-34.016 23.444-45.655 24.01 3.339 46.912 15.242 63.721 35.274C68.708-50.727 63.108 13.277 20.179 49.299a103 103 0 0 1-7.102 5.451 64 64 0 0 0 1.402-8.83C15.943 29.181 10.802 12.873 0 0" style="fill:#4c8c2b;fill-opacity:1;fill-rule:nonzero;stroke:none"/></g><g id="g4325" transform="translate(1283.96 387.015)"><path id="path4327" d="M0 0c16.306 19.433 22.524 14.215 38.831 33.647 14.15 16.865 16.403 39.75 7.656 58.461a102.7 102.7 0 0 1-17.504 6.926c3.027-11.536.599-24.315-7.651-34.146C-3.127 35.739-22.56 52.045-55.172 13.179c-25.802-30.749-23.129-75.914 5.21-103.448 16.22-8.997 35.024-13.716 54.768-12.782C-23.153-75.482-25.679-30.603 0 0" style="fill:#ffa300;fill-opacity:1;fill-rule:nonzero;stroke:none"/></g></g></g></g></svg>