<svg xmlns="http://www.w3.org/2000/svg" width="128" height="128" style="shape-rendering:geometricPrecision;text-rendering:geometricPrecision;image-rendering:optimizeQuality;fill-rule:evenodd;clip-rule:evenodd"><path fill="#55c4e6" d="M47.5 4.5q3 2.5 7 3.5L49 15.5l-2.5-3q-2.761 3.018-3 7h-4v4a8.4 8.4 0 0 0-4 .5q1.73 1.37-.5 2.5l-2.5-3q-1.858 2.26 1 3.5a111 111 0 0 0-9 8.5q.024 3.748-1 8a162 162 0 0 0-15 8v-3h-4q2.435-9.856 8-18a169 169 0 0 1 2 6q1.381-3.384 5-3v-6a41.6 41.6 0 0 0 8-1v-7h8a47 47 0 0 1 3-7 10.25 10.25 0 0 0-4-1.5q1.32-1.062 2-2.5a27.4 27.4 0 0 1 11-4" style="opacity:1"/><path fill="#53bfe4" d="M75.5 3.5q-.436 1.725-2.5 2L65.5 7a32.7 32.7 0 0 1-7 9.5q-2.68 2.964-6.5 4a20.1 20.1 0 0 0-1.5 6 28.5 28.5 0 0 1-7 3v4q-4.25-3.22-8 0-1.185-1.662-1.5-4a14.7 14.7 0 0 1-1.5 5l-2-2q-2.177 3.088-6 3a111 111 0 0 1 9-8.5q-2.858-1.24-1-3.5l2.5 3q2.23-1.13.5-2.5a8.4 8.4 0 0 1 4-.5v-4h4q.239-3.982 3-7l2.5 3L54.5 8q-4-1-7-3.5 7.62-2.273 16-2 6.123.048 12 1" style="opacity:1"/><path fill="#4bb5e2" d="M75.5 3.5q7.764.752 14 5 .329 1.763-1 3-6.092 1.219-8 7l-2-2a106 106 0 0 1-4 11h-3v3h-3q-.802 4.108 3 5.5.045 2.145-1 4.5-1.815-.648-3-2a85 85 0 0 0-.5-13q-3.5-4-7 0a85 85 0 0 0-.5 13q-5.837 4.136-3 11-1.258.513-1 2-1.442-2.648-1-6h-7q.517 9.016 1 17.5.29 3.012-2 4.5 2.847-6.8-3-11v-27a28.5 28.5 0 0 0 7-3 20.1 20.1 0 0 1 1.5-6q3.82-1.036 6.5-4a32.7 32.7 0 0 0 7-9.5L73 5.5q2.064-.275 2.5-2" style="opacity:1"/><path fill="#57c9e5" d="M36.5 8.5q-.68 1.438-2 2.5 2.157.328 4 1.5a47 47 0 0 0-3 7h-8v7a41.6 41.6 0 0 1-8 1v6q-3.619-.384-5 3a169 169 0 0 0-2-6q8.657-14.658 24-22" style="opacity:1"/><path fill="#3799de" d="M105.5 19.5q4.114 2.61 6 7a77 77 0 0 1-1 10h-3v3h-3q-.5 4.5-5 5v3h-4a25 25 0 0 1-.5 7l-1-3q-.348 1.856-1.5 3-1.586-14.018 4-26.5 2.303-.744 4.5.5 5.234-1.719 2.5-6.5.276-2.064 2-2.5" style="opacity:1"/><path fill="#42a6df" d="M89.5 8.5q9.615 3.107 16 11-1.724.436-2 2.5 2.734 4.781-2.5 6.5-2.197-1.244-4.5-.5-5.586 12.482-4 26.5-.832 5.268 2 9v4a10.2 10.2 0 0 0-3-3q.25-15.508-.5-31-3.5-4-7 0-.75 14.991-.5 30a178 178 0 0 1-1.5-19q-2.26-1.507-3.5-4-2.749 5.47-8 9 2-4.5 0-9 1.045-2.355 1-4.5-3.802-1.392-3-5.5h3v-3h3a106 106 0 0 0 4-11l2 2q1.908-5.781 8-7 1.329-1.237 1-3" style="opacity:1"/><path fill="#50bfe6" d="M35.5 33.5v14q-2.514-1.025-2-4-2.217-.393-4 1l-6 6q-1.783 1.393-4 1-.225 5.72-6 5a43 43 0 0 0-5 10h-4v-18h4v3a162 162 0 0 1 15-8q1.024-4.252 1-8 3.823.088 6-3l2 2a14.7 14.7 0 0 0 1.5-5q.315 2.338 1.5 4" style="opacity:1"/><path fill="#a2daf3" d="M67.5 38.5q-4.055-1.821-8 0-.249-6.52.5-13 3.5-4 7 0 .749 6.48.5 13" style="opacity:1"/><path fill="#3292dd" d="M111.5 26.5q5.835 5.863 8 14-2.02 1.007-3.5 0-2.544 5.113-8.5 4a18.5 18.5 0 0 1-.5 6q-2.034 1.32-4.5 1v3a29.8 29.8 0 0 1-7 2q.453 3.84-1 7-2.832-3.732-2-9 1.152-1.144 1.5-3l1 3q.745-3.465.5-7h4v-3q4.5-.5 5-5h3v-3h3q.826-4.96 1-10" style="opacity:1"/><path fill="#a4dcf3" d="M43.5 33.5v23a25 25 0 0 0-8-1v-22q3.75-3.22 8 0" style="opacity:1"/><path fill="#f5fbfc" d="M67.5 38.5q1.185 1.352 3 2 2 4.5 0 9a6.54 6.54 0 0 1-3 3q-4.055 1.821-8 0a6.54 6.54 0 0 1-3-3q-2.837-6.864 3-11 3.945-1.821 8 0" style="opacity:1"/><path fill="#308ad9" d="M119.5 40.5q2.057 3.654 3 8-1.935-.837-2.5-3-1.676 2.175-2 5a3.65 3.65 0 0 0-1.5-1q-2.024 2.175-5 2-2.587 3.62-4 8-5.185.69-5 6l-6 2a122 122 0 0 1-4 20q.257 1.487-1 2v-11q5.453-4.365 3-11v-4q1.453-3.16 1-7a29.8 29.8 0 0 0 7-2v-3q2.466.32 4.5-1 .743-2.96.5-6 5.956 1.113 8.5-4 1.48 1.007 3.5 0" style="opacity:.998"/><path fill="#4cb7e1" d="M35.5 47.5v8a808 808 0 0 0-4 5q0-1-1-1 1.007-2.02 0-3.5 2.882-1.545 0-4.5a294 294 0 0 0-4 8h-3v4h-4q-.865 4.718-6 4.5a26.6 26.6 0 0 1-2 3.5h-6q-1.393 1.783-1 4a72.5 72.5 0 0 1 0-24v15h4a43 43 0 0 1 5-10q5.775.72 6-5 2.217.393 4-1l6-6q1.783-1.393 4-1-.514 2.975 2 4" style="opacity:1"/><path fill="#47b2e3" d="M30.5 59.5v9q-2.322.481-2 3h-5v5q-3.985-.507-7 2-2.3 5.443-1 11l-1 1q-1.329-1.238-1-3-3.02.163-5-2a92 92 0 0 0-4-10q-.393-2.217 1-4h6a26.6 26.6 0 0 0 2-3.5q5.135.218 6-4.5h4v-4h3a294 294 0 0 1 4-8q2.882 2.955 0 4.5 1.007 1.48 0 3.5" style="opacity:1"/><path fill="#85a3b3" d="M59.5 52.5q3.945 1.821 8 0v3q-4.055 1.821-8 0z" style="opacity:1"/><path fill="#3b9add" d="M83.5 63.5q-5.688 4.938-3 12-2.57-1.703-2-5-2.464-.03-4 2a4.45 4.45 0 0 1-1.5-2q-1.065 2.21-3.5 2a458 458 0 0 1-2 23v-43a6.54 6.54 0 0 0 3-3q5.251-3.53 8-9 1.24 2.493 3.5 4a178 178 0 0 0 1.5 19" style="opacity:1"/><path fill="#9ccded" d="M91.5 64.5a25 25 0 0 0-8-1q-.25-15.009.5-30 3.5-4 7 0 .75 15.492.5 31" style="opacity:1"/><path fill="#2b85d9" d="M122.5 48.5q1.893 13.711 0 27v-16q-.479-9.53-4-.5-2.451.74-5 .5v4h-4a29.8 29.8 0 0 1-2 7q-4.5.5-5 5-3.316.7-6 3a67.5 67.5 0 0 0-4 9 122 122 0 0 0 4-20l6-2q-.185-5.31 5-6 1.413-4.38 4-8 2.976.175 5-2 .879.315 1.5 1 .324-2.825 2-5 .565 2.163 2.5 3" style="opacity:1"/><path fill="#2680db" d="M122.5 59.5q-2.349 5.073-3 11 2.31 1.548 1.5 4l-1-2-1 5q-.582-1.392-2-2-3.33 2.148-4.5 6-3.321-3.636-3 2-3.399.538-5.5-2l-1.5 1.5q1.58 2.082.5 4.5-2.593.711-3.5 3-2.893.759-5 3a3.65 3.65 0 0 1-1.5-1q-.285 3.312-1.5 6v-9q1.257-.513 1-2a67.5 67.5 0 0 1 4-9q2.684-2.3 6-3 .5-4.5 5-5a29.8 29.8 0 0 0 2-7h4v-4q2.549.24 5-.5 3.521-9.03 4 .5" style="opacity:1"/><path fill="#f8fbfc" d="M35.5 55.5a25 25 0 0 1 8 1q5.847 4.2 3 11a6.54 6.54 0 0 1-3 3q-12.663 3.354-12-10a808 808 0 0 1 4-5" style="opacity:1"/><path fill="#3ea3de" d="M55.5 51.5q.658-.098 1 .5a230 230 0 0 0-2 14.5q4.96 13.574-8.5 18 .08 4.763-2.5 8v-22a6.54 6.54 0 0 0 3-3q2.29-1.488 2-4.5-.483-8.484-1-17.5h7q-.442 3.352 1 6" style="opacity:1"/><path fill="#43aae1" d="M30.5 68.5v4q2.466.32 4.5-1 .696.891.5 2v17q-.23-6.408-5-11-1.329 1.238-1 3l-6 2v3h-4v4h-6q.356 1.936-1 3a54.3 54.3 0 0 1-4-9q1.98 2.163 5 2-.329 1.762 1 3l1-1q-1.3-5.557 1-11 3.015-2.507 7-2v-5h5q-.322-2.519 2-3" style="opacity:1"/><path fill="#5ea3c8" d="M30.5 59.5q1 0 1 1-.663 13.354 12 10v3q-4.055 1.821-8 0a2.43 2.43 0 0 0-.5-2q-2.034 1.32-4.5 1z" style="opacity:1"/><path fill="#f3fafb" d="M83.5 63.5a25 25 0 0 1 8 1 10.2 10.2 0 0 1 3 3q2.453 6.635-3 11-3.832 1.332-8 1a303 303 0 0 0-3-4q-2.688-7.062 3-12" style="opacity:1"/><path fill="#2078d6" d="M122.5 59.5v16q-1.107 11.695-8 21-1.201-2.313-1-5h-6v5h-3a4.93 4.93 0 0 1-.5 3q-.348-1.856-1.5-3-.732-3.464-3-6 .907-2.289 3.5-3 1.08-2.418-.5-4.5l1.5-1.5q2.101 2.538 5.5 2-.321-5.636 3-2 1.17-3.852 4.5-6 1.418.608 2 2l1-5 1 2q.81-2.452-1.5-4 .651-5.927 3-11" style="opacity:1"/><path fill="#a2d0f4" d="M35.5 73.5q3.945 1.821 8 0v19q-.467 1.466-2 2a177 177 0 0 1-6-1z" style="opacity:1"/><path fill="#a0d0f0" d="M59.5 55.5q3.945 1.821 8 0v11q-1.485 8.715-1 18-1.983.255-3.5-1a36.3 36.3 0 0 1-.5 7q-1.092-5.8-3-11z" style="opacity:1"/><path fill="#3b9add" d="M56.5 49.5a6.54 6.54 0 0 0 3 3v48q-1.083-.627-1.5-2l-1-14q-6.187 6.375-7.5 15a9.86 9.86 0 0 0-6 1q-.904 1.703-1 3-3.21-.582-6 0-.297 4.928-5 5 .402 2.398-1 4a32.3 32.3 0 0 1-10-9q2.927-.41 4.5 2a11.14 11.14 0 0 0 3.5-5.5q2.098-.892 4 .5 2.055-3.396 3-7 2.955.546 6 1 1.533-.534 2-2 2.58-3.237 2.5-8 13.46-4.426 8.5-18 .78-7.354 2-14.5-.342-.598-1-.5-.258-1.487 1-2" style="opacity:1"/><path fill="#7899be" d="M91.5 78.5v3q-1 0-1 1-3.18.262-6-1h-1v-2q4.168.332 8-1" style="opacity:1"/><path fill="#96c7f0" d="M67.5 66.5v29q1.983 8.24-6 7.5-1.32-1.062-2-2.5v-21q1.908 5.2 3 11 .58-3.346.5-7 1.517 1.255 3.5 1-.485-9.285 1-18" style="opacity:1"/><path fill="#318edb" d="M80.5 75.5a303 303 0 0 1 3 4v12a246 246 0 0 1-2-7q-1.095 2.15-3 3.5 1.255 1.517 1 3.5-1.983.255-3.5-1-1.167 6.82-6 3-.036 6.573-3.5 12-3.292 1.904-6.5 0-1.84 3.339-5.5 4.5 3.278.906.5 3.5-1.517 1.255-3.5 1v4q-3.097.025-6 1a3887 3887 0 0 0-10-3 22.8 22.8 0 0 0-5-4q1.402-1.602 1-4 4.703-.072 5-5 2.79-.582 6 0 .096-1.297 1-3a9.86 9.86 0 0 1 6-1q1.313-8.625 7.5-15l1 14q.417 1.373 1.5 2 .68 1.438 2 2.5 7.983.74 6-7.5a458 458 0 0 0 2-23q2.435.21 3.5-2a4.45 4.45 0 0 0 1.5 2q1.536-2.03 4-2-.57 3.297 2 5" style="opacity:1"/><path fill="#3ea3e1" d="M35.5 90.5v3q-.945 3.604-3 7-1.902-1.392-4-.5a11.14 11.14 0 0 1-3.5 5.5q-1.573-2.41-4.5-2a26.6 26.6 0 0 1-8-9q1.356-1.064 1-3h6v-4h4v-3l6-2q-.329-1.762 1-3 4.77 4.592 5 11" style="opacity:1"/><path fill="#8ec8fb" d="M83.5 81.5h1q-.245 3.535.5 7 1.791 3.038 4.5 1a13.1 13.1 0 0 0 1-7q0-1 1-1v12q-2.955.546-6 1-2.127-.757-2-3z" style="opacity:1"/><path fill="#9fc7ee" d="M84.5 81.5q2.82 1.262 6 1a13.1 13.1 0 0 1-1 7q-2.709 2.038-4.5-1a25 25 0 0 1-.5-7" style="opacity:1"/><path fill="#2179d8" d="M99.5 90.5q2.268 2.536 3 6-2.322.481-2 3-5.453.234-1 3.5-7.86 2.781-6.5 10.5-1.967-3.237-5-1-1.114 3.561 1.5 6a40.8 40.8 0 0 0-14 3q-1.663-1.185-4-1.5a11.4 11.4 0 0 0 1.5-3.5q3.195-.961 4.5-4 1.783-1.393 4-1 1.216-3.448 2.5-7a26.7 26.7 0 0 1 6.5-1.5 2.43 2.43 0 0 0-2-.5q1.064-1.356 3-1v-3q1.215-2.688 1.5-6 .621.685 1.5 1 2.107-2.241 5-3" style="opacity:1"/><path fill="#196aae" d="M4.5 75.5a92 92 0 0 1 4 10 54.3 54.3 0 0 0 4 9 26.6 26.6 0 0 0 8 9 32.3 32.3 0 0 0 10 9 22.8 22.8 0 0 1 5 4v1q-20.193-9.946-28.5-31a28.8 28.8 0 0 1-2.5-11" style="opacity:.996"/><path fill="#257fda" d="M88.5 102.5a2.43 2.43 0 0 1 2 .5q-3.395.354-6.5 1.5a927 927 0 0 0-2.5 7q-2.217-.393-4 1-1.305 3.039-4.5 4a11.4 11.4 0 0 1-1.5 3.5q2.337.315 4 1.5a25 25 0 0 0-8 1 4.93 4.93 0 0 0-.5-3q-6.755-3.767 0-5l1-6a13.96 13.96 0 0 0 5-6l1 2q6.515-6.556 7-16 2.157 4.981.5 10 1.533 5.23 7 4" style="opacity:1"/><path fill="#2b84d9" d="M83.5 91.5q-.127 2.243 2 3 3.045-.454 6-1v8q-1.936-.356-3 1-5.467 1.23-7-4 1.657-5.019-.5-10-.485 9.444-7 16l-1-2a13.96 13.96 0 0 1-5 6l-1 6q-6.755 1.233 0 5 .725 1.422.5 3-11.515.78-22-3a19.2 19.2 0 0 1 6-1v-4q1.983.255 3.5-1 2.778-2.594-.5-3.5 3.66-1.161 5.5-4.5 3.208 1.904 6.5 0 3.464-5.427 3.5-12 4.833 3.82 6-3 1.517 1.255 3.5 1 .255-1.983-1-3.5 1.905-1.35 3-3.5a246 246 0 0 0 2 7" style="opacity:1"/><path fill="#206fcf" d="M114.5 96.5q-8.798 15.304-25 22-2.614-2.439-1.5-6 3.033-2.237 5 1-1.36-7.719 6.5-10.5-4.453-3.266 1-3.5-.322-2.519 2-3 1.152 1.144 1.5 3a4.93 4.93 0 0 0 .5-3h3v-5h6q-.201 2.687 1 5" style="opacity:1"/><path fill="#1c60b2" d="M35.5 116.5q4.984 1.488 10 3 10.485 3.78 22 3a25 25 0 0 1 8-1 40.8 40.8 0 0 1 14-3q-11.891 6.984-26 6-15.315 1.046-28-7z" style="opacity:.85"/></svg>