<svg xmlns="http://www.w3.org/2000/svg" xmlns:xlink="http://www.w3.org/1999/xlink" width="48" height="48" viewBox="0 0 12.7 12.7"><defs><linearGradient id="f"><stop offset="0" style="stop-color:#520;stop-opacity:1"/><stop offset="1" style="stop-color:#2b1100;stop-opacity:1"/></linearGradient><linearGradient id="d"><stop offset="0" style="stop-color:#2ca05a;stop-opacity:1"/><stop offset="1" style="stop-color:#87deaa;stop-opacity:1"/></linearGradient><linearGradient id="e"><stop offset="0" style="stop-color:#4d4d4d;stop-opacity:1"/><stop offset="1" style="stop-color:#1a1a1a;stop-opacity:1"/></linearGradient><linearGradient id="b"><stop offset="0" style="stop-color:#333;stop-opacity:1"/><stop offset="1" style="stop-color:#000;stop-opacity:1"/></linearGradient><linearGradient id="a"><stop offset="0" style="stop-color:#333;stop-opacity:1"/><stop offset="1" style="stop-color:#000;stop-opacity:1"/></linearGradient><linearGradient id="c"><stop offset="0" style="stop-color:#333;stop-opacity:1"/><stop offset="1" style="stop-color:#000;stop-opacity:1"/></linearGradient><linearGradient xlink:href="#a" id="g" x1="43.455" x2="43.455" y1="140.153" y2="153.382" gradientTransform="matrix(2.3622 0 0 2.51968 -79.898 -346.475)" gradientUnits="userSpaceOnUse"/><linearGradient xlink:href="#b" id="k" x1="39.486" x2="39.486" y1="140.153" y2="153.382" gradientTransform="matrix(.8 0 0 .8 7.368 28.666)" gradientUnits="userSpaceOnUse"/><linearGradient xlink:href="#c" id="l" x1="48.746" x2="48.746" y1="140.153" y2="153.382" gradientTransform="matrix(.8 0 0 .8 5.992 28.666)" gradientUnits="userSpaceOnUse"/><linearGradient xlink:href="#c" id="m" x1="35" x2="35" y1="-2" y2="48" gradientTransform="matrix(.7647 0 0 .80004 -.47 5.6)" gradientUnits="userSpaceOnUse"/><linearGradient xlink:href="#d" id="h" x1="30" x2="30" y1="33" y2="16" gradientTransform="matrix(.62963 0 0 .70588 3.852 8.706)" gradientUnits="userSpaceOnUse"/><linearGradient xlink:href="#c" id="i" x1="43.455" x2="43.455" y1="140.153" y2="153.382" gradientTransform="translate(3.711 51.48)scale(.76667)" gradientUnits="userSpaceOnUse"/><linearGradient xlink:href="#e" id="j" x1="42.925" x2="42.925" y1="149.414" y2="151.795" gradientTransform="matrix(1 0 0 .77778 0 33.203)" gradientUnits="userSpaceOnUse"/><linearGradient xlink:href="#f" id="n" x1="41.073" x2="41.073" y1="146.503" y2="147.561" gradientUnits="userSpaceOnUse"/></defs><g style="display:inline"><path d="M7.121 8C5.392 8 4 9.486 4 11.33v25.34C4 38.514 5.392 40 7.121 40H40.88c1.728 0 3.12-1.486 3.12-3.33V11.33C44 9.486 42.608 8 40.879 8zM15 21a3 3 0 0 1 3 3 3 3 0 0 1-3 3 3 3 0 0 1-3-3 3 3 0 0 1 3-3m18 0a3 3 0 0 1 3 3 3 3 0 0 1-3 3 3 3 0 0 1-3-3 3 3 0 0 1 3-3" style="opacity:1;fill:url(#g);fill-opacity:1;fill-rule:nonzero;stroke:none;stroke-width:.00998151;stroke-miterlimit:4;stroke-dasharray:none;stroke-opacity:1;paint-order:markers fill stroke" transform="scale(.26458)"/><path d="M8.705 11C7.76 11 7 11.905 7 13.031V29.97C7 31.095 7.76 32 8.705 32h30.59C40.24 32 41 31.095 41 29.969V13.03c0-1.125-.76-2.03-1.705-2.03zM15 21a3 3 0 0 1 3 3 3 3 0 0 1-3 3 3 3 0 0 1-3-3 3 3 0 0 1 3-3m18 0a3 3 0 0 1 3 3 3 3 0 0 1-3 3 3 3 0 0 1-3-3 3 3 0 0 1 3-3" style="opacity:1;fill:#dbe3e2;fill-opacity:1;fill-rule:nonzero;stroke:none;stroke-width:.09447239;stroke-miterlimit:4;stroke-dasharray:none;stroke-opacity:1;paint-order:markers fill stroke" transform="scale(.26458)"/><path d="M7 20v10.088C7 31.148 7.76 32 8.705 32h30.59C40.24 32 41 31.148 41 30.088V20zm8 1a3 3 0 0 1 3 3 3 3 0 0 1-3 3 3 3 0 0 1-3-3 3 3 0 0 1 3-3m18 0a3 3 0 0 1 3 3 3 3 0 0 1-3 3 3 3 0 0 1-3-3 3 3 0 0 1 3-3" style="opacity:1;fill:url(#h);fill-opacity:1;fill-rule:nonzero;stroke:none;stroke-width:.09165162;stroke-miterlimit:4;stroke-dasharray:none;stroke-opacity:1;paint-order:markers fill stroke" transform="scale(.26458)"/><text xml:space="preserve" x="34.537" y="162.359" style="font-style:normal;font-weight:400;font-size:8.1139679px;line-height:1.25;font-family:sans-serif;letter-spacing:0;word-spacing:0;fill:url(#i);fill-opacity:1;stroke:none;stroke-width:.20284916" transform="matrix(1.11548 0 0 .89647 -35.517 -140.682)"><tspan x="34.537" y="162.359" style="font-style:normal;font-variant:normal;font-weight:400;font-stretch:normal;font-size:2.70465589px;font-family:&quot;Third Rail - Demo&quot;;-inkscape-font-specification:&quot;Third Rail - Demo&quot;;fill:url(#i);fill-opacity:1;stroke-width:.20284916">Elisa</tspan></text><g transform="translate(-35.517 -140.682)"><path d="m37.37 151.266 1.057-1.852h6.88l1.058 1.852z" style="fill:url(#j);fill-opacity:1;stroke:none;stroke-width:.23334046px;stroke-linecap:butt;stroke-linejoin:miter;stroke-opacity:1"/><circle cx="39.486" cy="150.207" r=".529" style="opacity:1;fill:url(#k);fill-opacity:1;fill-rule:nonzero;stroke:none;stroke-width:.05291666;stroke-miterlimit:4;stroke-dasharray:none;stroke-opacity:1;paint-order:markers fill stroke"/><circle cx="44.248" cy="150.207" r=".529" style="opacity:1;fill:url(#l);fill-opacity:1;fill-rule:nonzero;stroke:none;stroke-width:.05291666;stroke-miterlimit:4;stroke-dasharray:none;stroke-opacity:1;paint-order:markers fill stroke"/></g><path d="M14.818 20C12.703 20 11 21.781 11 23.994v.012C11 26.219 12.703 28 14.818 28h18.364C35.297 28 37 26.219 37 24.006v-.012C37 21.781 35.297 20 33.182 20zM15 21a3 3 0 0 1 3 3 3 3 0 0 1-3 3 3 3 0 0 1-3-3 3 3 0 0 1 3-3m18 0a3 3 0 0 1 3 3 3 3 0 0 1-3 3 3 3 0 0 1-3-3 3 3 0 0 1 3-3" style="opacity:1;fill:url(#m);fill-opacity:1;fill-rule:nonzero;stroke:none;stroke-width:.07709182;stroke-miterlimit:4;stroke-dasharray:none;stroke-opacity:1;paint-order:markers fill stroke" transform="scale(.26458)"/><path d="M40.544 146.503h2.646v1.058h-2.646z" style="opacity:1;fill:#dbe2e3;fill-opacity:1;fill-rule:nonzero;stroke:none;stroke-width:.02415304;stroke-miterlimit:4;stroke-dasharray:none;stroke-opacity:1;paint-order:markers fill stroke" transform="translate(-35.517 -140.682)"/><path d="M40.544 146.503v1.058h.966a1.6 1.6 0 0 0 .092-.529 1.6 1.6 0 0 0-.092-.529z" style="display:inline;opacity:1;fill:url(#n);fill-opacity:1;fill-rule:nonzero;stroke:none;stroke-width:.02415304;stroke-miterlimit:4;stroke-dasharray:none;stroke-opacity:1;paint-order:markers fill stroke" transform="translate(-35.517 -140.682)"/></g></svg>