<svg xmlns="http://www.w3.org/2000/svg" width="500" height="500" style="shape-rendering:geometricPrecision;text-rendering:geometricPrecision;image-rendering:optimizeQuality;fill-rule:evenodd;clip-rule:evenodd"><path fill="#66635a" d="M392.5 329.5v1h-32v-66h-33v-65h-33v-98h-32v33h-33v-33h-32v98h-33v65h-33v66h-32v-98q15.873.48 31.5-1 .75-31.996.5-64 16.372.48 32.5-1 .75-48.498.5-97 16.008.25 32-.5a269 269 0 0 0 1-32.5h97q-.25 16.008.5 32a269 269 0 0 0 32.5 1q-.25 48.502.5 97a269 269 0 0 0 32.5 1q-.25 32.004.5 64a253 253 0 0 0 31.5 1z" style="opacity:1"/><path fill="#fefefd" d="M229.5 134.5h-32v-33h32zm65 0h-32v-33h32z" style="opacity:1"/><path fill="#eacc9c" d="M197.5 134.5h97v65h-97z" style="opacity:1"/><path fill="#f4ca8c" d="M201.5 136.5q45.502-.25 91 .5a954 954 0 0 1 1 61.5h-95q-.5-30.017 1-60 1.533-.533 2-2" style="opacity:1"/><path fill="#fefefe" d="M197.5 199.5h130v65h33v66h-33v31q-.512 1.258-2 1h-31v66h-96q.484-34.068-1-68-15.769 1.681-32 0 1.041-13.47 2-27a15.2 15.2 0 0 0-1.5-6 303 303 0 0 1-34.5 1v-64h33v-65z" style="opacity:1"/><path fill="#e8cba0" d="M360.5 330.5h32a1611 1611 0 0 1-57 1.5q-3.266 1.803-7 1.5.49 14.272-1 28v-31z" style="opacity:1"/><path fill="#f4ca8d" d="M99.5 329.5v1q.627 1.083 2 1.5l60 1q1.974 13.16 0 26.5-2.106-2.249-2 1l1 2q2.047-1.96 4 0a9949 9949 0 0 0 31.5 2q.75 46.998.5 94h-96q.49-15.271-1-30-.549-1.792-2.5-2a231 231 0 0 1-29.5 1v-96q15.77.491 31-1 0-1 1-1m293 0q1 0 1 1 15.23 1.491 31 1v95a4251 4251 0 0 1-33.5 0q-1.416 1.144-1.5 3 1.424 14.45 1 29h-94a2256 2256 0 0 1-1-95q15.271.49 30-1 1.488.258 2-1 1.49-13.728 1-28 3.734.303 7-1.5 28.756-.252 57-1.5z" style="opacity:1"/><path fill="#eecb9a" d="M99.5 330.5h65v32q-1.953-1.96-4 0l-1-2q-.106-3.249 2-1 1.974-13.34 0-26.5l-60-1q-1.373-.417-2-1.5" style="opacity:1"/><path fill="#e7cba6" d="M98.5 330.5q-15.23 1.491-31 1v96a231 231 0 0 0 29.5-1q1.951.208 2.5 2h-33v-98z" style="opacity:1"/><path fill="#eacb9f" d="M164.5 362.5h33v98h-98v-32q1.49 14.729 1 30h96q.25-47.002-.5-94a9949 9949 0 0 1-31.5-2" style="opacity:1"/><path fill="#fffced" d="M198.5 428.5h-1v-66h-33v-32h-33v-2a303 303 0 0 0 34.5-1 15.2 15.2 0 0 1 1.5 6q-.959 13.53-2 27 16.231 1.681 32 0a1174 1174 0 0 1 1 68" style="opacity:1"/><path fill="#65635a" d="M197.5 428.5h97v32h-97z" style="opacity:1"/><path fill="#edcb99" d="M393.5 330.5h32v98q-16.768-.492-33 1-1.49 14.729-1 30-47.757.498-95-1h94q.424-14.55-1-29 .084-1.856 1.5-3 16.436.066 33.5 0v-95q-15.77.491-31-1" style="opacity:1"/><path fill="#e8cca6" d="M325.5 362.5q-14.729 1.49-30 1-.497 47.757 1 95 47.243 1.498 95 1-.49-15.271 1-30v31h-98v-98z" style="opacity:.992"/></svg>