<svg xmlns="http://www.w3.org/2000/svg" width="128" height="128"><script/><defs><linearGradient id="b" x1="64" x2="120" y1="246" y2="246" gradientTransform="translate(0 -166)" gradientUnits="userSpaceOnUse"><stop style="stop-color:#bfbdba"/><stop offset=".857" style="stop-color:#bfbdba"/><stop offset=".929" style="stop-color:#dedcd9"/><stop offset="1" style="stop-color:#bfbdba"/></linearGradient><linearGradient id="c" x1="64" x2="120" y1="246" y2="246" gradientTransform="matrix(-1 0 0 1 128 -166)" gradientUnits="userSpaceOnUse"><stop style="stop-color:#bfbdba"/><stop offset=".857" style="stop-color:#bfbdba"/><stop offset=".929" style="stop-color:#dedcd9"/><stop offset="1" style="stop-color:#bfbdba"/></linearGradient><linearGradient id="e" x1="320" x2="416" y1="116" y2="116" gradientTransform="matrix(-.25 0 0 .25 168 31)" gradientUnits="userSpaceOnUse"><stop style="stop-color:#f5f5f3"/><stop offset=".5" style="stop-color:#fff"/><stop offset="1" style="stop-color:#deded9"/></linearGradient><linearGradient id="f" x1="320" x2="416" y1="116" y2="116" gradientTransform="matrix(.25 0 0 .25 -40 31)" gradientUnits="userSpaceOnUse"><stop style="stop-color:#f5f5f3"/><stop offset=".5" style="stop-color:#f5f5f3"/><stop offset="1" style="stop-color:#cccac7"/></linearGradient><linearGradient id="g" x1="59.092" x2="46.289" y1="216.78" y2="169" gradientTransform="translate(-11.863 -168.98)" gradientUnits="userSpaceOnUse"><stop style="stop-color:#0cc"/><stop offset="1" style="stop-color:#30e3d1"/></linearGradient><filter id="a" filterUnits="objectBoundingBox"><feColorMatrix in="SourceGraphic" values="0 0 0 0 1 0 0 0 0 1 0 0 0 0 1 0 0 0 1 0"/></filter><mask id="d"><path d="M0 0h128v128H0z" filter="url(#a)" style="opacity:.1"/></mask></defs><path d="M120 94.355V101c0 4.434-3.566 8-8 8H90c-9.684 0-18.023 5.738-21.816 14h-8.368c-3.793-8.262-12.132-14-21.816-14H16a7.98 7.98 0 0 1-8-8v-6.645z" style="fill:#1ca8a8"/><path d="M66.328 54.02c-.16.988-.273 1.98-.328 2.98h-2v63h4.184c3.793-8.262 12.132-14 21.816-14h22c4.434 0 8-3.566 8-8V62.355c0-4.433-3.566-8-8-8z" style="fill:url(#b)"/><path d="M61.676 54.02c.156.988.27 1.98.324 2.98h2v63h-4.184c-3.793-8.262-12.132-14-21.816-14H16a7.98 7.98 0 0 1-8-8V62.355c0-4.433 3.566-8 8-8z" style="fill:url(#c)"/><g mask="url(#d)"><path d="M120 91.656A7.465 7.465 0 0 1 112.508 99h-.5v1h.5A8.49 8.49 0 0 0 120 95.52zM88 99l24 1v-1z"/><path d="M120 94.656a7.465 7.465 0 0 1-7.492 7.344h-.5v1h.5a8.5 8.5 0 0 0 7.465-4.426c.011-.191.027-.383.027-.574ZM94 102l18 1v-1z"/></g><path d="M112 21c4.434 0 8 3.566 8 8v59c0 4.434-3.566 8-8 8H88c-13.254 0-24 10.746-24 24V47c0-13.254 10.746-26 24-26z" style="fill:url(#e)"/><path d="M16 21a7.98 7.98 0 0 0-8 8v59c0 4.434 3.566 8 8 8h24c13.254 0 24 10.746 24 24V47c0-13.254-10.746-26-24-26z" style="fill:url(#f)"/><path d="M102 32v6H90c-4.375.184-8.465 1.297-12 3.281v-5.55C81.531 33.394 85.625 32 90 32z" style="fill:#0cc"/><path d="M108 44v4H90c-4.375.184-8.465 1.297-12 3.281v-3.55C81.531 45.394 85.625 44 90 44zm0 8v4H90c-4.375.184-8.465 1.297-12 3.281v-3.55C81.531 53.394 85.625 52 90 52zm0 8v4H90c-4.375.184-8.465 1.297-12 3.281v-3.55C81.531 61.394 85.625 60 90 60zM36 76H20v4h16zM20 44v4h20c3.574.148 6.953.93 10 2.293v-3.734C46.953 44.94 43.574 44 40 44zm0 8v4h20c3.574.148 6.953.93 10 2.293v-3.734C46.953 52.94 43.574 52 40 52zm0 8v4h20c3.574.148 6.953.93 10 2.293v-3.734C46.953 60.94 43.574 60 40 60zm0-24v4h20c3.574.148 6.953.93 10 2.293v-3.734C46.953 36.94 43.574 36 40 36zm0 32v4h20c3.574.148 6.953.93 10 2.293v-3.734C46.953 68.94 43.574 68 40 68zm80 0v4H90c-4.375.184-8.465 1.297-12 3.281v-3.55C81.531 69.394 85.625 68 90 68z" style="fill:#dedcd9"/><path d="M34.434 0s-8.23 20.438-8.207 31.188c.015 8 1.101 17.027 6.21 23.183 3.926 4.727 16.63 7.965 16.63 7.965L52.93 61.3s9.379-9.156 10.418-15.211c1.347-7.887-2.227-16.246-6.211-23.184C51.78 13.582 34.434 0 34.434 0" style="fill:url(#g)"/><path d="M53.215 77.82C42.44 37.617 42.727 33.13 37.457 11.004c6.531 21.703 8.848 25.578 19.621 65.781z" style="fill:#1ca8a8"/><path d="M42.09 30.066c3.617-6.261 4.914-7.515 6.195-9.597-1.16 2.152-1.637 3.879-5.254 10.14zm2.508 9.719c5.02-8.695 6.82-10.437 8.597-13.332-1.605 2.992-2.27 5.39-7.293 14.086zM47.36 50.21c5.312-9.198 7.214-11.042 9.097-14.1-1.703 3.163-2.406 5.699-7.715 14.898z" style="fill:#1ca8a8"/><path d="M42.836 29.867c-6.266-3.613-8.012-4.05-10.164-5.215 2.078 1.285 3.355 2.543 9.617 6.157zm2.687 9.673c-8.695-5.024-11.125-5.634-14.113-7.247 2.89 1.785 4.66 3.531 13.36 8.55zm2.821 10.405c-9.2-5.312-11.77-5.957-14.93-7.664 3.055 1.89 4.934 3.735 14.133 9.047z" style="fill:#1ca8a8"/></svg>