<svg xmlns="http://www.w3.org/2000/svg" xmlns:xlink="http://www.w3.org/1999/xlink" width="256" height="256" version="1.0"><defs><linearGradient id="g"><stop offset="0" style="stop-color:#fce94f;stop-opacity:1"/><stop offset=".5" style="stop-color:#fce94f;stop-opacity:1"/><stop offset=".75" style="stop-color:#edd400;stop-opacity:1"/><stop offset="1" style="stop-color:#c4a000;stop-opacity:1"/></linearGradient><linearGradient id="e"><stop offset="0" style="stop-color:#fff;stop-opacity:1"/><stop offset=".786" style="stop-color:#edd400;stop-opacity:1"/><stop offset="1" style="stop-color:#fff;stop-opacity:1"/></linearGradient><linearGradient id="s"><stop offset="0" style="stop-color:#fff;stop-opacity:1"/><stop offset="1" style="stop-color:#eeeeec;stop-opacity:1"/></linearGradient><linearGradient id="a"><stop offset="0" style="stop-color:#fef8c4;stop-opacity:1"/><stop offset="1" style="stop-color:#edd400;stop-opacity:1"/></linearGradient><linearGradient id="b"><stop offset="0" style="stop-color:#fff;stop-opacity:1"/><stop offset="1" style="stop-color:#fff;stop-opacity:0"/></linearGradient><linearGradient id="r"><stop offset="0" style="stop-color:#ff6c6c;stop-opacity:1"/><stop offset="1" style="stop-color:#c00;stop-opacity:1"/></linearGradient><linearGradient id="k"><stop offset="0" style="stop-color:#fff5ac;stop-opacity:1"/><stop offset="1" style="stop-color:#edd400;stop-opacity:1"/></linearGradient><linearGradient id="m"><stop offset="0" style="stop-color:#000;stop-opacity:1"/><stop offset="1" style="stop-color:#000;stop-opacity:0"/></linearGradient><linearGradient id="l"><stop offset="0" style="stop-color:#fff;stop-opacity:1"/><stop offset="1" style="stop-color:#fff;stop-opacity:0"/></linearGradient><linearGradient id="i"><stop offset="0" style="stop-color:#000;stop-opacity:1"/><stop offset="1" style="stop-color:#000;stop-opacity:0"/></linearGradient><linearGradient id="d"><stop offset="0" style="stop-color:#fff;stop-opacity:1"/><stop offset="1" style="stop-color:#fce94f;stop-opacity:1"/></linearGradient><linearGradient id="h"><stop offset="0" style="stop-color:#fff;stop-opacity:1"/><stop offset="1" style="stop-color:#fce94f;stop-opacity:1"/></linearGradient><linearGradient id="f"><stop offset="0" style="stop-color:#c4a000;stop-opacity:1"/><stop offset=".206" style="stop-color:#edd400;stop-opacity:1"/><stop offset=".5" style="stop-color:#fce94f;stop-opacity:1"/><stop offset=".75" style="stop-color:#edd400;stop-opacity:1"/><stop offset="1" style="stop-color:#c4a000;stop-opacity:1"/></linearGradient><linearGradient xlink:href="#a" id="w" x1="21" x2="42.231" y1="37.678" y2="54.18" gradientTransform="matrix(12 0 0 6.7873 -165.333 -255.733)" gradientUnits="userSpaceOnUse"/><linearGradient xlink:href="#b" id="G" x1="21" x2="25" y1="26" y2="31" gradientTransform="matrix(1.77778 0 0 4.44444 33.778 -186.267)" gradientUnits="userSpaceOnUse"/><linearGradient xlink:href="#b" id="I" x1="21" x2="25" y1="26" y2="31" gradientTransform="matrix(1.77778 0 0 4.44444 129.778 -185.778)" gradientUnits="userSpaceOnUse"/><linearGradient xlink:href="#d" id="z" x1="12" x2="44.565" y1="14" y2="47.688" gradientTransform="matrix(4.90667 0 0 4.74074 0 -199.407)" gradientUnits="userSpaceOnUse"/><linearGradient xlink:href="#b" id="K" x1="21" x2="25" y1="26" y2="31" gradientTransform="matrix(2.96296 0 0 5.92592 54.519 -211.26)" gradientUnits="userSpaceOnUse"/><linearGradient xlink:href="#e" id="P" x1="40.036" x2="41.661" y1="12.359" y2="35.395" gradientTransform="translate(0 -208)scale(5.33333)" gradientUnits="userSpaceOnUse"/><linearGradient xlink:href="#f" id="x" x1="3" x2="39" y1="27" y2="28" gradientTransform="translate(0 -208)scale(5.33333)" gradientUnits="userSpaceOnUse"/><linearGradient xlink:href="#g" id="u" x1="8" x2="38" y1="39" y2="39" gradientTransform="translate(0 -208)scale(5.33333)" gradientUnits="userSpaceOnUse"/><radialGradient xlink:href="#h" id="E" cx="23.078" cy="12.744" r="3.5" fx="23.078" fy="12.744" gradientTransform="matrix(5.86493 -14.07582 -10 -10.66667 103.638 316.78)" gradientUnits="userSpaceOnUse"/><radialGradient xlink:href="#i" id="B" cx="23.5" cy="19.5" r="14.5" fx="23.5" fy="19.5" gradientTransform="matrix(1.65517 0 0 .73563 86.437 -126.345)" gradientUnits="userSpaceOnUse"/><radialGradient xlink:href="#k" id="D" cx="21.625" cy="16.75" r="5.5" fx="21.625" fy="16.75" gradientTransform="matrix(3.73333 0 0 -3.87879 34.933 -73.697)" gradientUnits="userSpaceOnUse"/><radialGradient xlink:href="#l" id="A" cx="10.451" cy="27.331" r="7" fx="10.451" fy="27.331" gradientTransform="matrix(14 14.63659 -2.30883 11.71736 -26.538 -554.336)" gradientUnits="userSpaceOnUse"/><radialGradient xlink:href="#m" id="t" cx="24" cy="38.5" r="6" fx="24" fy="38.5" gradientTransform="matrix(15.55556 0 0 5.77778 -248 -209.111)" gradientUnits="userSpaceOnUse"/><radialGradient xlink:href="#i" id="v" cx="23.5" cy="19.5" r="14.5" fx="23.5" fy="19.5" gradientTransform="matrix(2.94253 0 0 1.28736 58.85 -17.103)" gradientUnits="userSpaceOnUse"/><radialGradient xlink:href="#r" id="F" cx="23" cy="28.5" r="3" fx="23" fy="28.5" gradientTransform="matrix(3.2 0 0 6.22222 1.067 -239.156)" gradientUnits="userSpaceOnUse"/><radialGradient xlink:href="#r" id="H" cx="23" cy="28.5" r="3" fx="23" fy="28.5" gradientTransform="matrix(3.2 0 0 6.22222 97.067 -238.667)" gradientUnits="userSpaceOnUse"/><radialGradient xlink:href="#r" id="J" cx="23" cy="28.5" r="3" fx="23" fy="28.5" gradientTransform="matrix(5.33333 0 0 8.2963 0 -281.778)" gradientUnits="userSpaceOnUse"/><radialGradient xlink:href="#h" id="C" cx="13.071" cy="21.094" r="15.5" fx="13.071" fy="21.094" gradientTransform="matrix(7.61904 12.04623 -9.88272 8.62259 177.85 -446.034)" gradientUnits="userSpaceOnUse"/><radialGradient xlink:href="#s" id="O" cx="3.5" cy="16.969" r="3.048" fx="3.5" fy="16.969" gradientTransform="matrix(.52907 1.26976 -1.31246 .78747 23.92 -1.007)" gradientUnits="userSpaceOnUse"/><radialGradient xlink:href="#s" id="L" cx="3.5" cy="16.969" r="3.048" fx="3.5" fy="16.969" gradientTransform="matrix(.52907 1.26976 -1.31246 .78747 23.92 -1.007)" gradientUnits="userSpaceOnUse"/><radialGradient xlink:href="#s" id="M" cx="3.5" cy="16.969" r="3.048" fx="3.5" fy="16.969" gradientTransform="matrix(.52907 1.26976 -1.31246 .78747 23.92 -1.007)" gradientUnits="userSpaceOnUse"/><radialGradient xlink:href="#s" id="N" cx="3.5" cy="16.969" r="3.048" fx="3.5" fy="16.969" gradientTransform="matrix(.52907 1.26976 -1.31246 .78747 23.92 -1.007)" gradientUnits="userSpaceOnUse"/><radialGradient xlink:href="#d" id="y" cx="13.819" cy="8.88" r="14.5" fx="13.819" fy="8.88" gradientTransform="matrix(1.9025 2.4521 -3.01646 3.88788 86.747 -183.966)" gradientUnits="userSpaceOnUse"/></defs><path d="M218.667 13.333C218.667 32.47 176.853 48 125.333 48S32 32.47 32 13.333c0-19.136 41.813-34.666 93.333-34.666s93.334 15.53 93.334 34.666" style="opacity:.6;color:#000;fill:url(#t);fill-opacity:1;fill-rule:evenodd;stroke:none;stroke-width:.48304588px;marker:none;visibility:visible;display:inline;overflow:visible" transform="translate(0 208)"/><path d="M200 8c0 14.72-34.645 26.667-77.333 26.667S45.333 22.72 45.333 8s34.646-26.667 77.334-26.667S200-6.72 200 8z" style="color:#000;fill:url(#u);fill-opacity:1;fill-rule:evenodd;stroke:#c4a000;stroke-width:5.33333158px;stroke-linecap:butt;stroke-linejoin:miter;stroke-miterlimit:4;stroke-opacity:1;stroke-dashoffset:0;marker:none;visibility:visible;display:inline;overflow:visible" transform="translate(0 208)"/><path d="M170.667 8c0 10.304-19.115 18.667-42.667 18.667S85.333 18.304 85.333 8 104.448-10.667 128-10.667 170.667-2.304 170.667 8" style="opacity:.2;color:#000;fill:url(#v);fill-opacity:1;fill-rule:evenodd;stroke:none;stroke-width:1px;marker:none;visibility:visible;display:inline;overflow:visible" transform="translate(0 208)"/><path d="M194.667 5.578c0 13.113-32.256 23.755-72 23.755s-72-10.642-72-23.755 32.256-23.756 72-23.756 72 10.643 72 23.756z" style="color:#000;fill:none;stroke:url(#w);stroke-width:5.33333254px;stroke-linecap:butt;stroke-linejoin:miter;stroke-miterlimit:4;stroke-opacity:1;stroke-dashoffset:0;marker:none;visibility:visible;display:inline;overflow:visible" transform="translate(0 208)"/><path d="M160 0c0 8.832-16.725 16-37.333 16S85.333 8.832 85.333 0s16.726-16 37.334-16S160-8.832 160 0" style="color:#000;fill:#c4a000;fill-opacity:1;fill-rule:evenodd;stroke:none;stroke-width:1.38169873px;marker:none;visibility:visible;display:inline;overflow:visible" transform="translate(0 208)"/><path d="M120.94-136c-40.539 0-73.435 16.692-73.435 37.301 0 5.42-.814 16.941.595 30.443-13.271-5.114-13.256-16.61-14.42-30.276H18.816c-.041.932-.148 1.902-.148 2.844C23.56-35.708 70.535.399 120.94 2.667c20.27 0 45.454-5.5 61.097-32.283s12.338-58.778 12.338-69.083c0-20.61-32.896-37.301-73.435-37.301z" style="color:#000;fill:url(#x);fill-opacity:1;fill-rule:evenodd;stroke:#c4a000;stroke-width:5.33333158px;stroke-linecap:butt;stroke-linejoin:miter;stroke-miterlimit:4;stroke-opacity:1;stroke-dashoffset:0;marker:none;visibility:visible;display:inline;overflow:visible" transform="translate(0 208)"/><path d="M26 17.5a3.5.5 0 1 1-7 0 3.5.5 0 1 1 7 0z" style="color:#000;fill:#c4a000;fill-opacity:1;fill-rule:evenodd;stroke:#edd400;stroke-width:.68313003px;stroke-linecap:butt;stroke-linejoin:miter;stroke-miterlimit:4;stroke-opacity:1;stroke-dasharray:none;stroke-dashoffset:0;marker:none;visibility:visible;display:inline;overflow:visible" transform="matrix(3.80952 0 0 16 36.952 -184)"/><path d="M101.333-106.667c0 14.72 60.8 26.667 24 26.667s-66.666-11.947-66.666-26.667 29.866-26.666 66.666-26.666-24 11.946-24 26.666" style="opacity:.6;color:#000;fill:url(#y);fill-opacity:1;fill-rule:evenodd;stroke:none;stroke-width:.91345936px;marker:none;visibility:visible;display:inline;overflow:visible" transform="translate(0 208)"/><path d="M184-109.333C184-97.557 156.523-88 122.667-88s-61.334-9.557-61.334-21.333 27.478-21.334 61.334-21.334S184-121.109 184-109.333z" style="color:#000;fill:none;stroke:url(#z);stroke-width:5.33333302;stroke-linecap:butt;stroke-linejoin:miter;stroke-miterlimit:4;stroke-opacity:1;stroke-dasharray:none;stroke-dashoffset:0;marker:none;visibility:visible;display:inline;overflow:visible" transform="translate(0 208)"/><path d="M56.667-106.667c0 4.883-4.091 30.718-3.334 42.667.379 5.974-26.105-21.932-21.666-26.667 10-10.666-5 0-5 5.334 0 42.998 50.772 69.717 58.092 74.202s15.034 5.798 21.908 5.798l21.333-80c-23.722 0-65.272-8.628-71.333-21.334" style="opacity:.6;color:#000;fill:url(#A);fill-opacity:1;fill-rule:evenodd;stroke:none;stroke-width:1px;marker:none;visibility:visible;display:inline;overflow:visible" transform="translate(0 208)"/><path d="M189.333-106.782c0 13.312-29.866 24.115-66.666 24.115S56-93.47 56-106.782s29.867-24.115 66.667-24.115 66.666 10.803 66.666 24.115z" style="color:#000;fill:none;stroke:#c4a000;stroke-width:5.33333349;stroke-linecap:butt;stroke-linejoin:miter;stroke-miterlimit:4;stroke-opacity:1;stroke-dasharray:none;stroke-dashoffset:0;marker:none;visibility:visible;display:inline;overflow:visible" transform="translate(0 208)"/><path d="M149.333-112c0 5.888-10.752 10.667-24 10.667s-24-4.779-24-10.667 10.752-10.667 24-10.667 24 4.779 24 10.667" style="opacity:.1;color:#000;fill:url(#B);fill-opacity:1;fill-rule:evenodd;stroke:none;stroke-width:1px;marker:none;visibility:visible;display:inline;overflow:visible" transform="translate(0 208)"/><path d="M121.205-130.667c-37.46 0-68.26 14.996-68.26 34.024l.96 33.976c-13.844-2.262-21.976-11.5-22.71-30-4.776-1.71-5.204.595-7.195 1.5 8.678 54.778 50.426 86.285 97.205 88.5 18.73 0 42.077-5.106 56.532-29.833s11.306-54.153 11.306-63.667c0-19.028-30.378-34.5-67.838-34.5z" style="color:#000;fill:none;stroke:url(#C);stroke-width:5.33333254px;stroke-linecap:butt;stroke-linejoin:miter;stroke-miterlimit:4;stroke-opacity:1;stroke-dashoffset:0;marker:none;visibility:visible;display:inline;overflow:visible" transform="translate(0 208)"/><path d="M141.333-133.333c0-7.36-8.362-13.334-18.666-13.334S104-140.693 104-133.333s8.363 24 18.667 24 18.666-16.64 18.666-24z" style="color:#000;fill:url(#D);fill-opacity:1;fill-rule:evenodd;stroke:#c4a000;stroke-width:5.33333349px;stroke-linecap:butt;stroke-linejoin:miter;stroke-miterlimit:4;stroke-opacity:1;stroke-dashoffset:0;marker:none;visibility:visible;display:inline;overflow:visible" transform="translate(0 208)"/><path d="M136-131.81c0-5.257-5.973-9.523-13.333-9.523s-13.334 4.266-13.334 9.523c0 5.258 5.974 17.143 13.334 17.143S136-126.552 136-131.81z" style="color:#000;fill:none;stroke:url(#E);stroke-width:5.33333302px;stroke-linecap:butt;stroke-linejoin:miter;stroke-miterlimit:4;stroke-opacity:1;stroke-dashoffset:0;marker:none;visibility:visible;display:inline;overflow:visible" transform="translate(0 208)"/><path d="m74.667-77.822-8 16 8 16 8-16z" style="fill:url(#F);fill-opacity:1;stroke:#a40000;stroke-width:5.33333302;stroke-linecap:round;stroke-linejoin:miter;stroke-miterlimit:4;stroke-opacity:1;stroke-dashoffset:0" transform="translate(0 208)"/><path d="m74.667-75.156-5.334 13.334 5.334 13.333z" style="fill:url(#G);fill-opacity:1;stroke:none" transform="translate(0 208)"/><path d="m170.667-77.333-8 16 8 16 8-16z" style="fill:url(#H);fill-opacity:1;stroke:#a40000;stroke-width:5.33333302;stroke-linecap:round;stroke-linejoin:miter;stroke-miterlimit:4;stroke-opacity:1;stroke-dashoffset:0" transform="translate(0 208)"/><path d="m170.667-74.667-5.334 13.334L170.667-48z" style="fill:url(#I);fill-opacity:1;stroke:none" transform="translate(0 208)"/><path d="m122.667-66.667-13.334 21.334L122.667-24 136-45.333z" style="fill:url(#J);fill-opacity:1;stroke:#a40000;stroke-width:5.33333254;stroke-linecap:round;stroke-linejoin:miter;stroke-miterlimit:4;stroke-opacity:1;stroke-dashoffset:0" transform="translate(0 208)"/><path d="m122.667-63.111-8.89 17.778 8.89 17.777z" style="fill:url(#K);fill-opacity:1;stroke:none" transform="translate(0 208)"/><path d="M5 20.5a2 1.5 0 1 1-4 0 2 1.5 0 1 1 4 0z" style="color:#000;fill:#2e3436;fill-opacity:1;fill-rule:evenodd;stroke:#c4a000;stroke-width:1.22474468px;stroke-linecap:butt;stroke-linejoin:miter;stroke-miterlimit:4;stroke-opacity:1;stroke-dasharray:none;stroke-dashoffset:0;marker:none;visibility:visible;display:inline;overflow:visible" transform="matrix(5.33333 0 0 3.55556 8 36.444)"/><path d="M7 18a2.5 3 0 1 1-5 0 2.5 3 0 1 1 5 0" style="color:#000;fill:url(#L);fill-opacity:1;fill-rule:evenodd;stroke:none;stroke-width:.54772246px;marker:none;visibility:visible;display:inline;overflow:visible" transform="matrix(9.6 0 0 8 -8.533 -114.667)"/><path d="M7 18a2.5 3 0 1 1-5 0 2.5 3 0 1 1 5 0" style="color:#000;fill:url(#M);fill-opacity:1;fill-rule:evenodd;stroke:none;stroke-width:.6846531px;marker:none;visibility:visible;display:inline;overflow:visible" transform="matrix(7.46667 0 0 6.22222 -9.6 -56)"/><path d="M7 18a2.5 3 0 1 1-5 0 2.5 3 0 1 1 5 0" style="color:#000;fill:url(#N);fill-opacity:1;fill-rule:evenodd;stroke:none;stroke-width:.91287076px;marker:none;visibility:visible;display:inline;overflow:visible" transform="matrix(5.33333 0 0 4.44444 5.333 -2.667)"/><path d="M7 18a2.5 3 0 1 1-5 0 2.5 3 0 1 1 5 0" style="color:#000;fill:url(#O);fill-opacity:1;fill-rule:evenodd;stroke:none;stroke-width:1.09544492px;marker:none;visibility:visible;display:inline;overflow:visible" transform="matrix(4.26667 0 0 3.55556 2.133 32)"/><path d="M34.667-205.333C19.947-205.333 8-193.387 8-178.667c0 3.762.926 7.254 2.333 10.5-4.635 3.915-7.666 9.63-7.666 16.167 0 8.016 4.457 14.855 11 18.5-.172.94-.334 1.844-.334 2.833 0 2.524.625 4.877 1.667 7-4.156 2.26-7 6.607-7 11.667 0 7.36 5.973 13.333 13.333 13.333S34.667-104.64 34.667-112c0-1.222-.192-2.376-.5-3.5 6.434-2.073 11.166-8.046 11.166-15.167 0-3.695-1.227-7.123-3.333-9.833a21.47 21.47 0 0 0 3.333-11.5c0-.74-.26-1.447-.333-2.167 9.57-4.05 16.333-13.46 16.333-24.5 0-14.72-11.946-26.666-26.666-26.666z" style="color:#000;fill:none;stroke:#babdb6;stroke-width:5.33333302px;stroke-linecap:butt;stroke-linejoin:miter;stroke-miterlimit:4;stroke-opacity:1;stroke-dasharray:none;stroke-dashoffset:0;marker:none;visibility:visible;display:inline;overflow:visible" transform="translate(0 208)"/><path d="M34.667-200.333C22.743-200.333 13-190.59 13-178.667c0 4.472 1.504 8.553 3.833 12-5.43 2.655-9.166 8.219-9.166 14.667 0 7.57 5.176 13.817 12.166 15.667-.996 1.665-1.666 3.586-1.666 5.666 0 6.134 5.033 11.167 11.166 11.167 6.134 0 11.167-5.033 11.167-11.167 0-4.053-2.255-7.559-5.5-9.5 3.213-2.983 5.333-7.106 5.333-11.833 0-1.991-.346-3.902-1-5.667 9.656-2.154 17-10.697 17-21 0-11.923-9.743-21.666-21.666-21.666zM21.333-120.5a8.48 8.48 0 0 0-8.5 8.5c0 4.71 3.79 8.5 8.5 8.5s8.5-3.79 8.5-8.5-3.79-8.5-8.5-8.5z" style="color:#000;fill:none;stroke:#fff;stroke-width:4.4444437px;stroke-linecap:butt;stroke-linejoin:miter;stroke-miterlimit:4;stroke-opacity:1;stroke-dasharray:none;stroke-dashoffset:0;marker:none;visibility:visible;display:inline;overflow:visible" transform="translate(0 208)"/><path d="M218.667-152c-19.206 0-32 15.461-32 34.667L192-106.667c0-15.816 5.083-29.333 21.333-29.333 16.251 0 29.334 12.684 29.334 28.5v48.333c-2.017 25.12-39.39 30.08-59 33.834A68.5 68.5 0 0 1 176-16c25.99-7.042 74.577-7.397 77.333-42.667v-58.666c0-19.206-15.461-34.667-34.666-34.667" style="fill:#edd400;fill-opacity:1;stroke:#c4a000;stroke-width:5.33333254;stroke-linecap:round;stroke-linejoin:round;stroke-miterlimit:4;stroke-opacity:1;stroke-dashoffset:0" transform="translate(0 208)"/><path d="M192-122.667c16-42.666 54.19-18.857 55.62.667l-.477 66.667c0 16.19-28.476 28.666-65.81 34" style="opacity:.8;fill:none;stroke:url(#P);stroke-width:5.33333349;stroke-linecap:round;stroke-linejoin:round;stroke-miterlimit:4;stroke-opacity:1;stroke-dasharray:none;stroke-dashoffset:0" transform="translate(0 208)"/></svg>