<svg xmlns="http://www.w3.org/2000/svg" xml:space="preserve" style="fill-rule:evenodd;clip-rule:evenodd;stroke-linejoin:round;stroke-miterlimit:2" viewBox="0 0 24 24"><path d="M11.998 0C6.422 0 1.773 3.573 1.773 7.295S8.561 23.973 11.998 24c3.435.027 10.218-12.971 10.229-16.705C22.227 3.575 17.575 0 11.998 0m3.842 5.078a2.303 2.303 0 0 1 2.39 2.29l-.001.05.007 1.783.001.075a2.28 2.28 0 0 1-2.266 2.267 2.37 2.37 0 0 1-1.772-.799v3.115l-1.746.239V5.375l1.688-.287.058.785a2.3 2.3 0 0 1 1.64-.795zm-5.555.035h1.7l-.005 5.953c0 1.736-.931 2.973-2.58 2.973a4.95 4.95 0 0 1-2.423-.523l.207-1.748a3.3 3.3 0 0 0 2.108.85.95.95 0 0 0 .946-.946l-.002-.059v-.904l-.011.014a2.33 2.33 0 0 1-1.77.806 2.29 2.29 0 0 1-2.261-2.28l.001-.065V7.47l-.001-.077a2.295 2.295 0 0 1 2.285-2.285c.673 0 1.312.297 1.746.811zM9.082 6.385a1.16 1.16 0 0 0-1.139 1.273v1.26a1.17 1.17 0 0 0 1.139 1.258 1.19 1.19 0 0 0 1.154-1.139V7.55a1.163 1.163 0 0 0-1.154-1.153zm5.98.008a1.156 1.156 0 0 0-.874 1.228v1.33a1.186 1.186 0 0 0 1.152 1.26 1.17 1.17 0 0 0 1.14-1.26v-1.33a1.157 1.157 0 0 0-1.418-1.228" style="fill:url(#a);fill-rule:nonzero"/><defs><linearGradient id="a" x1="0" x2="1" y1="0" y2="0" gradientTransform="rotate(90 .928 11.072)scale(13.8566)" gradientUnits="userSpaceOnUse"><stop offset="0" style="stop-color:#1a82f6;stop-opacity:1"/><stop offset="1" style="stop-color:#004fa7;stop-opacity:1"/></linearGradient></defs></svg>