<svg xmlns="http://www.w3.org/2000/svg" xmlns:xlink="http://www.w3.org/1999/xlink" width="48" height="48"><script/><defs><linearGradient id="c"><stop offset="0" style="stop-color:#424242;stop-opacity:1"/><stop offset="1" style="stop-color:#424242;stop-opacity:.32751092"/></linearGradient><linearGradient id="b"><stop offset="0" style="stop-color:#23232b;stop-opacity:1"/><stop offset=".88" style="stop-color:#332e56;stop-opacity:.36862746"/><stop offset="1" style="stop-color:#302e51;stop-opacity:.17647059"/></linearGradient><linearGradient id="a"><stop offset="0" style="stop-color:#fff;stop-opacity:0"/><stop offset="1" style="stop-color:#fff;stop-opacity:1"/></linearGradient><linearGradient xlink:href="#a" id="f" x1="42.483" x2="14.753" y1="35.069" y2="4.339" gradientTransform="translate(43.296 .616)scale(.9761)" gradientUnits="userSpaceOnUse"/><linearGradient xlink:href="#b" id="d" x1="11.587" x2="31.626" y1="5.757" y2="35.134" gradientTransform="translate(-2.015 1002.32)scale(1.08007)" gradientUnits="userSpaceOnUse"/><linearGradient xlink:href="#c" id="e" x1="23.926" x2="31.169" y1="1011.621" y2="1026.079" gradientTransform="translate(-1.772 -110.98)scale(1.10879)" gradientUnits="userSpaceOnUse"/><linearGradient xlink:href="#a" id="g" x1="42.483" x2="14.753" y1="35.069" y2="4.339" gradientTransform="translate(-16.704 .616)scale(.9761)" gradientUnits="userSpaceOnUse"/></defs><g transform="translate(0 -1004.362)"><path d="M23.975 1011.407a21.875 21.875 0 0 0-21.298 16.98 21.875 21.875 0 0 0 21.298 17.01 21.875 21.875 0 0 0 21.3-16.978 21.875 21.875 0 0 0-21.3-17.012" style="color:#000;clip-rule:nonzero;display:inline;overflow:visible;visibility:visible;opacity:1;isolation:auto;mix-blend-mode:normal;color-interpolation:sRGB;color-interpolation-filters:linearRGB;solid-color:#000;solid-opacity:1;fill:#cd3585;fill-opacity:1;fill-rule:nonzero;stroke:none;stroke-width:1;stroke-linecap:butt;stroke-linejoin:miter;stroke-miterlimit:4;stroke-dasharray:none;stroke-dashoffset:0;stroke-opacity:1;marker:none;color-rendering:auto;image-rendering:auto;shape-rendering:auto;text-rendering:auto"/><path d="M2.678 1028.395a21.875 21.875 0 0 0 21.297 17.004 21.875 21.875 0 0 0 21.298-16.977H45a21.875 21.875 0 0 1-21.025 16 21.875 21.875 0 0 1-21.026-16.027z" style="color:#000;clip-rule:nonzero;display:inline;overflow:visible;visibility:visible;opacity:.3;isolation:auto;mix-blend-mode:normal;color-interpolation:sRGB;color-interpolation-filters:linearRGB;solid-color:#000;solid-opacity:1;fill:#161e25;fill-opacity:1;fill-rule:nonzero;stroke:none;stroke-width:2.79999995;stroke-linecap:butt;stroke-linejoin:miter;stroke-miterlimit:4;stroke-dasharray:none;stroke-dashoffset:0;stroke-opacity:.55;marker:none;color-rendering:auto;image-rendering:auto;shape-rendering:auto;text-rendering:auto"/><path d="M23.975 1011.47c-10.197.013-19.026 6.958-21.293 16.9l.004.025h.26c2.643-9.386 11.228-15.927 21.03-15.949a21.875 21.875 0 0 1 21.016 15.976h.275a21.875 21.875 0 0 0-21.292-16.952" style="color:#000;clip-rule:nonzero;display:inline;overflow:visible;visibility:visible;opacity:.3;isolation:auto;mix-blend-mode:normal;color-interpolation:sRGB;color-interpolation-filters:linearRGB;solid-color:#000;solid-opacity:1;fill:#fff;fill-opacity:1;fill-rule:nonzero;stroke:none;stroke-width:2.79999995;stroke-linecap:butt;stroke-linejoin:miter;stroke-miterlimit:4;stroke-dasharray:none;stroke-dashoffset:0;stroke-opacity:.55;marker:none;color-rendering:auto;image-rendering:auto;shape-rendering:auto;text-rendering:auto"/><circle cx="23.8" cy="1028.163" r="12.363" style="color:#000;clip-rule:nonzero;display:inline;overflow:visible;visibility:visible;opacity:1;isolation:auto;mix-blend-mode:normal;color-interpolation:sRGB;color-interpolation-filters:linearRGB;solid-color:#000;solid-opacity:1;fill:#f7f7f7;fill-opacity:1;fill-rule:nonzero;stroke:none;stroke-width:1;stroke-linecap:butt;stroke-linejoin:miter;stroke-miterlimit:4;stroke-dasharray:none;stroke-dashoffset:0;stroke-opacity:1;marker:none;color-rendering:auto;image-rendering:auto;shape-rendering:auto;text-rendering:auto"/><path d="m17.14 1022.645-4.264 7.987a11.3 11.3 0 0 0 11.03 8.91c4.601.051 9.26-3.728 10.677-7.058l-3.489-.176-5.393-5.334-3.954 3.553z" style="opacity:.39100001;fill:url(#d);fill-opacity:1;fill-rule:evenodd;stroke:none;stroke-width:1px;stroke-linecap:butt;stroke-linejoin:miter;stroke-opacity:1"/><circle cx="30.542" cy="1024.555" r="2.61" style="color:#000;clip-rule:nonzero;display:inline;overflow:visible;visibility:visible;opacity:.45800003;isolation:auto;mix-blend-mode:normal;color-interpolation:sRGB;color-interpolation-filters:linearRGB;solid-color:#000;solid-opacity:1;fill:url(#e);fill-opacity:1;fill-rule:nonzero;stroke:none;stroke-width:1;stroke-linecap:butt;stroke-linejoin:miter;stroke-miterlimit:4;stroke-dasharray:none;stroke-dashoffset:0;stroke-opacity:1;marker:none;color-rendering:auto;image-rendering:auto;shape-rendering:auto;text-rendering:auto"/><path d="M23.8 1015.8a12.363 12.363 0 0 0-12.362 12.363 12.36 12.36 0 0 0 3.572 8.687 12.36 12.36 0 0 1-3.133-8.203 12.363 12.363 0 0 1 12.362-12.362 12.36 12.36 0 0 1 8.783 3.668 12.36 12.36 0 0 0-9.222-4.152" style="color:#000;clip-rule:nonzero;display:inline;overflow:visible;visibility:visible;opacity:.24200003;isolation:auto;mix-blend-mode:normal;color-interpolation:sRGB;color-interpolation-filters:linearRGB;solid-color:#000;solid-opacity:1;fill:#161e25;fill-opacity:1;fill-rule:nonzero;stroke:none;stroke-width:2.79999995;stroke-linecap:butt;stroke-linejoin:miter;stroke-miterlimit:4;stroke-dasharray:none;stroke-dashoffset:0;stroke-opacity:.55;marker:none;color-rendering:auto;image-rendering:auto;shape-rendering:auto;text-rendering:auto"/><path d="M23.977 1015.8h-.103a12.363 12.363 0 0 1 12.288 12.359 12.363 12.363 0 0 1-12.362 12.366 12.363 12.363 0 0 1-12.359-12.26l-.003.072a12.54 12.54 0 0 0 12.539 12.54 12.54 12.54 0 0 0 12.537-12.54 12.54 12.54 0 0 0-12.537-12.537" style="color:#000;clip-rule:nonzero;display:inline;overflow:visible;visibility:visible;opacity:.36700056;isolation:auto;mix-blend-mode:normal;color-interpolation:sRGB;color-interpolation-filters:linearRGB;solid-color:#000;solid-opacity:1;fill:#fff;fill-opacity:1;fill-rule:nonzero;stroke:none;stroke-width:2.79999995;stroke-linecap:butt;stroke-linejoin:miter;stroke-miterlimit:4;stroke-dasharray:none;stroke-dashoffset:0;stroke-opacity:.55;marker:none;color-rendering:auto;image-rendering:auto;shape-rendering:auto;text-rendering:auto"/></g><g style="display:inline"><path d="M83.975 7.045a21.875 21.875 0 0 0-21.298 16.979 21.875 21.875 0 0 0 21.298 17.011 21.875 21.875 0 0 0 21.3-16.979 21.875 21.875 0 0 0-21.3-17.01" style="color:#000;clip-rule:nonzero;display:inline;overflow:visible;visibility:visible;opacity:.45;isolation:auto;mix-blend-mode:normal;color-interpolation:sRGB;color-interpolation-filters:linearRGB;solid-color:#000;solid-opacity:1;fill:url(#f);fill-opacity:1;fill-rule:nonzero;stroke:none;stroke-width:1;stroke-linecap:butt;stroke-linejoin:miter;stroke-miterlimit:4;stroke-dasharray:none;stroke-dashoffset:0;stroke-opacity:1;marker:none;color-rendering:auto;image-rendering:auto;shape-rendering:auto;text-rendering:auto"/><path d="M23.975 7.045A21.875 21.875 0 0 0 2.677 24.024a21.875 21.875 0 0 0 21.298 17.011 21.875 21.875 0 0 0 21.3-16.979 21.875 21.875 0 0 0-21.3-17.01" style="color:#000;clip-rule:nonzero;display:inline;overflow:visible;visibility:visible;opacity:.45;isolation:auto;mix-blend-mode:normal;color-interpolation:sRGB;color-interpolation-filters:linearRGB;solid-color:#000;solid-opacity:1;fill:url(#g);fill-opacity:1;fill-rule:nonzero;stroke:none;stroke-width:1;stroke-linecap:butt;stroke-linejoin:miter;stroke-miterlimit:4;stroke-dasharray:none;stroke-dashoffset:0;stroke-opacity:1;marker:none;color-rendering:auto;image-rendering:auto;shape-rendering:auto;text-rendering:auto"/></g></svg>