<svg xmlns="http://www.w3.org/2000/svg" width="32" height="32" version="1"><rect width="23" height="30" x="4" y="2" rx="1.5" ry="1.5" style="opacity:.2"/><rect width="23" height="30" x="4" y="1" rx="1.5" ry="1.5" style="fill:#8e8e8e"/><rect width="19" height="22" x="6" y="4" rx="1.5" ry="1.5" style="opacity:.5"/><rect width="7" height="1" x="12" y="2" rx=".5" ry=".5" style="opacity:.5"/><circle cx="15.5" cy="28.5" r="1.5" style="opacity:.5"/><path d="M5.5 1C4.669 1 4 1.669 4 2.5v1C4 2.669 4.669 2 5.5 2h20c.831 0 1.5.669 1.5 1.5v-1c0-.831-.669-1.5-1.5-1.5z" style="opacity:.2;fill:#fff"/><path d="M17.016 7.975 14 8.5v10.387l3-.387-.016-4.682L20.524 19 24 18.5l-4-5.363 4.014-4.5-3.52-.649-3.51 4.5Zm-6.342 2.652a.12.12 0 0 0-.078.037L9.56 11.711a.136.136 0 0 0-.018.17l1.25 1.92a5.3 5.3 0 0 0-.53 1.357l-2.158.53a.14.14 0 0 0-.105.13v1.364c0 .062.046.116.105.13l2.159.53c.115.48.293.939.529 1.357l-1.25 1.92a.136.136 0 0 0 .018.17l1.035 1.047a.13.13 0 0 0 .164.016l1.959-1.202c.384.224.985.404 1.424.524l.459 2.217a.13.13 0 0 0 .127.109h1.542a.13.13 0 0 0 .127-.11l.46-2.216c.438-.12 1.039-.3 1.423-.524l1.96 1.202c.052.032.12.028.163-.016l1.035-1.047a.136.136 0 0 0 .018-.17l-1.041-1.6-.129.02-.73-1.07A4.5 4.5 0 0 1 15.5 21.03a4.5 4.5 0 0 1-4.5-4.5 4.5 4.5 0 0 1 2.5-4.027v-.983a4.3 4.3 0 0 0-.781.329l-1.96-1.202a.14.14 0 0 0-.085-.021" style="opacity:.2"/><path d="M17.016 6.975 14 7.5v10.387l3-.387-.016-4.682L20.524 18 24 17.5l-4-5.363 4.014-4.5-3.52-.649-3.51 4.5Zm-6.342 2.652a.12.12 0 0 0-.078.037L9.56 10.711a.136.136 0 0 0-.018.17l1.25 1.92a5.3 5.3 0 0 0-.53 1.357l-2.158.53a.14.14 0 0 0-.105.13v1.364c0 .062.046.116.105.13l2.159.53c.115.48.293.939.529 1.357l-1.25 1.92a.136.136 0 0 0 .018.17l1.035 1.047a.13.13 0 0 0 .164.016l1.959-1.202c.384.224.985.404 1.424.524l.459 2.217a.13.13 0 0 0 .127.109h1.542a.13.13 0 0 0 .127-.11l.46-2.216c.438-.12 1.039-.3 1.423-.524l1.96 1.202c.052.032.12.028.163-.016l1.035-1.047a.136.136 0 0 0 .018-.17l-1.041-1.6-.129.02-.73-1.07A4.5 4.5 0 0 1 15.5 20.03a4.5 4.5 0 0 1-4.5-4.5 4.5 4.5 0 0 1 2.5-4.027v-.983a4.3 4.3 0 0 0-.781.329l-1.96-1.202a.14.14 0 0 0-.085-.021" style="fill:#fff"/></svg>