<svg xmlns="http://www.w3.org/2000/svg" width="767.133" height="763.541"><script/><path d="M-3085.198 553.747c0 63.786-51.08 115.495-114.085 115.495s-114.082-51.709-114.082-115.495c0-63.785 51.078-115.493 114.082-115.493s114.085 51.708 114.085 115.493" style="fill:#000;fill-opacity:1;stroke:none" transform="translate(3739.185 -41.384)"/><path d="M-3499.718 140.365c-161.521 2.36-284.579 180.382-126.804 341.996l42.052 110.935c6.98 25.359-16.705 81.164-6.218 96.745 12.078-23.926 15.12-58.135 31.088-62.078 28.081 19.874 69.621 26.616 93.1 52.243 8.772-24.845-26.81-37.533-56.613-51.76 27.85 4.659 47.12-10.467 67.74 13.868 3.04-12.31-.807-21.724-8.836-29.347l-12.598-17.253c23.29 12.391 81.26 12.314 94.573 34.023 5.152-41.081-43.596-27.05-66.595-39.344 14.924 1.853 29.75-5.585 44.507-3.547-3.954-11.523-10.747-16.508-20.781-15.64-79.13 18.899-84.7-115.03-83.61-153.02 106.22-45.152 213.494 35.845 298.939-41.923 27.978-41.877 143.454 67.494 179.004 160.114 53.157-22.521-98.485-169.624-142.517-209.454 23.001-61.257-66.62-150.429-147.588-111.097-56.971-54.205-120.418-76.314-178.843-75.461m-42.866 331.031c7.745-.14 14.014 4.065 15.218 12.738l17.18 82.234c-9.259 2.67-13.287 11.952-11.453 28.701 3.922-4.637 5.535-12.56 14.561-9.997l21.273 27.411c-72.344 5.67-77.918-35.288-90.488-103.033 3.832-25.147 20.8-37.774 33.709-38.054" style="fill:#000;fill-opacity:1;stroke:none" transform="translate(3739.185 -41.384)"/><path d="M463.913 78.701a15.405 14.52 0 1 1-30.81 0 15.405 14.52 0 1 1 30.81 0" style="fill:#fff;fill-opacity:1;stroke:none" transform="matrix(2.05933 0 0 2.32344 -443.741 64.709)"/><path d="M463.913 78.701a15.405 14.52 0 1 1-30.81 0 15.405 14.52 0 1 1 30.81 0" style="fill:#000;fill-opacity:1;stroke:none" transform="matrix(1.35314 0 0 1.52668 -113.065 148.883)"/></svg>