<svg xmlns="http://www.w3.org/2000/svg" width="432" height="432" fill="none"><g filter="url(#a)"><circle cx="216" cy="216" r="144" fill="#ff9800"/></g><mask id="b" width="288" height="288" x="72" y="72" maskUnits="userSpaceOnUse" style="mask-type:alpha"><circle cx="216" cy="216" r="144" fill="#ff9800"/></mask><g mask="url(#b)"><path fill="url(#c)" d="M0 0h432v432H0z"/><path fill="#002b6d" d="M216 92c-68.373 0-124 55.627-124 124s55.627 124 124 124 124-55.627 124-124S284.373 92 216 92m105.844 137.418c-.254 2.016-2.679 2.996-4.274 1.733-5.138-4.069-1.352-8.501-2.929-11.183-2.163-3.674-10.54-4.271-15.134-9.551-4.081-4.692-.891-5.992-2.699-10.791-1.356-3.602-10.437-8.198-15.737-7.642-7.048.739-12.538 4.355-12.137 10.341.357 5.373 21.76 3.158 21.815 14.993.02 4.752-8.868 7.95-10.214 10.647-1.35 2.696-2.019 6.886-3.96 8.077-1.986 1.22-7.391-1.159-9.441 0-1.75.989-1.851 6.194-3.596 7.192-2.099 1.199-11.987 2.396-15.137 6.445-3.146 4.046-1.649 14.237-3.296 17.383-1.721 3.285-7.042 9.291-7.941 13.637-1.315 6.35 1.401 13.404-.15 17.833-3.654 10.442-26.268 15.901-36.866 8.092-5.695-4.196-.796-11.743-4.496-16.484-1.935-2.48-4.345-2.546-8.391-7.941-4.046-5.396 1.05-12.138-1.95-17.083-3.855-6.362-29.439-13.551-33.566-22.779-3.279-7.333-3.746-24.725-1.5-31.92 1.569-5.023 10.598-7.278 13.937-10.041 2.985-2.468 5.546-8.692 12.138-9.741 5.401-.86 11.241 4.945 13.937 6.742 2.696 1.799 7.642-.9 12.138.45 4.495 1.349 19.779 14.837 26.974 14.837 7.192 0 8.991-9.442 8.092-14.387-.9-4.946-9.442-4.496-12.588-6.745-3.146-2.247-7.192-10.788-12.587-10.788-5.396 0-14.387 5.732-21.129 6.629-6.742.9-10.806-4.216-11.126-10.453-.337-6.517 6.572-9.6 11.576-11.463 5.732-2.137 30.682-4.158 44.844-14.387 4.124-2.979 4.064-14.713 13.937-21.241 6.843-4.525 16.138-2.353 21.582-3.568.764-.17 1.566-.1 2.221.326 33.797 22.038 52.878 61.507 47.653 102.831M206.331 109.769c.972-.086 1.941.352 2.474 1.168 2.835 4.335 3.53 12.686-.649 14.543-4.928 2.192-9.504.64-12.183 2.192-3.201 1.851-2.397 8.011-11.028 9.859-4.738 1.015-14.58-4.928-17.864-4.928s-11.501 3.44-13.144 5.006c-1.105 1.052-3.167 1.577-5.125 1.623-2.445.061-3.619-3.074-1.75-4.657 16.284-13.804 36.773-22.784 59.269-24.806" opacity=".1"/><g clip-path="url(#d)"><path fill="url(#e)" d="M220.643 177.432c29.091-17.724 63.641-27.146 100.206-25.174.542.029.929.291 1.151.649l110 110V432H146.552c-16.108-17.586-28.013-40.751-32.989-67.291-4.491-23.957-2.724-47.397 4.02-68.08 2.328-7.139.133-15.043-4.939-20.578-11.964-13.055-18.703-30.852-17.242-49.916 2.798-36.52 34.627-63.86 71.092-61.066 11.867.909 22.762 4.898 31.965 11.124 6.602 4.466 15.376 5.386 22.184 1.239"/><g filter="url(#f)"><path fill="#fcfcfc" fill-rule="evenodd" d="M320.893 155.152c1.627-.45 1.437-2.803-.248-2.894-36.566-1.972-71.115 7.451-100.207 25.174-6.807 4.147-15.581 3.227-22.184-1.239-9.203-6.226-20.098-10.214-31.964-11.123-36.465-2.794-68.295 24.546-71.093 61.065-1.46 19.064 5.279 36.861 17.242 49.916 5.073 5.536 7.267 13.44 4.939 20.578-6.744 20.684-8.511 44.123-4.019 68.08 12.472 66.525 68.48 111.85 125.097 101.235s92.404-73.149 79.932-139.674c-9.323-49.728-42.973-87.61-83.019-99.136-4.794-1.38-8.406-5.471-9.485-10.341-.945-4.268.108-8.794 3.375-11.697 26.052-23.15 57.309-40.438 91.634-49.944M174.73 217.3a8 8 0 1 0 1.22-15.952 8 8 0 0 0-1.22 15.952" clip-rule="evenodd"/></g><path fill="url(#g)" d="M0 0h432v432H0z"/></g></g><defs><linearGradient id="c" x1="216" x2="216" y1="0" y2="432" gradientUnits="userSpaceOnUse"><stop stop-color="#49f3cb"/><stop offset="1" stop-color="#456ed8"/></linearGradient><linearGradient id="e" x1="225.42" x2="311.5" y1="190.516" y2="276.597" gradientUnits="userSpaceOnUse"><stop stop-color="#00485f" stop-opacity=".4"/><stop offset="1" stop-color="#00485f" stop-opacity="0"/></linearGradient><filter id="a" width="312" height="312" x="60" y="64" color-interpolation-filters="sRGB" filterUnits="userSpaceOnUse"><feFlood flood-opacity="0" result="BackgroundImageFix"/><feColorMatrix in="SourceAlpha" result="hardAlpha" values="0 0 0 0 0 0 0 0 0 0 0 0 0 0 0 0 0 0 127 0"/><feOffset dy="4"/><feGaussianBlur stdDeviation="6"/><feColorMatrix values="0 0 0 0 0 0 0 0 0 0 0 0 0 0 0 0 0 0 0.25 0"/><feBlend in2="BackgroundImageFix" result="effect1_dropShadow_173_173"/><feBlend in="SourceGraphic" in2="effect1_dropShadow_173_173" result="shape"/></filter><filter id="f" width="259.016" height="347.486" x="79" y="144" color-interpolation-filters="sRGB" filterUnits="userSpaceOnUse"><feFlood flood-opacity="0" result="BackgroundImageFix"/><feColorMatrix in="SourceAlpha" result="hardAlpha" values="0 0 0 0 0 0 0 0 0 0 0 0 0 0 0 0 0 0 127 0"/><feOffset dy="8"/><feGaussianBlur stdDeviation="8"/><feColorMatrix values="0 0 0 0 0 0 0 0 0 0.19786 0 0 0 0 0.430131 0 0 0 0.3 0"/><feBlend in2="BackgroundImageFix" result="effect1_dropShadow_173_173"/><feColorMatrix in="SourceAlpha" result="hardAlpha" values="0 0 0 0 0 0 0 0 0 0 0 0 0 0 0 0 0 0 127 0"/><feOffset dy="1"/><feColorMatrix values="0 0 0 0 0 0 0 0 0 0.196078 0 0 0 0 0.431373 0 0 0 0.1 0"/><feBlend in2="effect1_dropShadow_173_173" result="effect2_dropShadow_173_173"/><feBlend in="SourceGraphic" in2="effect2_dropShadow_173_173" result="shape"/><feColorMatrix in="SourceAlpha" result="hardAlpha" values="0 0 0 0 0 0 0 0 0 0 0 0 0 0 0 0 0 0 127 0"/><feOffset dy="1"/><feComposite in2="hardAlpha" k2="-1" k3="1" operator="arithmetic"/><feColorMatrix values="0 0 0 0 1 0 0 0 0 1 0 0 0 0 1 0 0 0 1 0"/><feBlend in2="shape" result="effect3_innerShadow_173_173"/></filter><radialGradient id="g" cx="0" cy="0" r="1" gradientTransform="rotate(45)scale(610.94)" gradientUnits="userSpaceOnUse"><stop offset=".141" stop-color="#fff" stop-opacity=".3"/><stop offset=".713" stop-color="#fff" stop-opacity="0"/></radialGradient><clipPath id="d"><path fill="#fff" d="M0 0h432v432H0z"/></clipPath></defs></svg>