<svg xmlns="http://www.w3.org/2000/svg" xmlns:xlink="http://www.w3.org/1999/xlink" width="180" height="180.5" style="clip-rule:evenodd;fill-rule:evenodd;image-rendering:optimizeQuality;shape-rendering:geometricPrecision;text-rendering:geometricPrecision"><defs><linearGradient id="a"><stop offset="0" style="stop-color:#262626;stop-opacity:.99862742"/><stop offset="1" style="stop-color:#222;stop-opacity:0"/></linearGradient><linearGradient xlink:href="#a" id="b" x1="14.431" x2="16.74" y1="142.819" y2="-68.402" gradientUnits="userSpaceOnUse"/></defs><rect width="180" height="180" y=".5" rx=".651" ry=".651" style="clip-rule:evenodd;fill:url(#b);fill-opacity:1;fill-rule:evenodd;stroke:none;stroke-linejoin:round;stroke-miterlimit:4.8;stroke-opacity:1;paint-order:markers stroke fill;image-rendering:optimizeQuality;shape-rendering:geometricPrecision;text-rendering:geometricPrecision"/><path fill="#ead9c1" d="M96.5-.5h33q.058 1.884-1.5 3a970 970 0 0 1-1.5 44 63.5 63.5 0 0 1-7-6.5q-4.649-3.584-10-1.5a75 75 0 0 0-7 7.5 4.93 4.93 0 0 1-3 .5v-45h-3z" style="opacity:1" transform="translate(0 .5)"/><path fill="#e0d0b8" d="M129.5-.5h1v53q-4.938.57-7-4-2.318-1.428-5-1l-2-3q-.978-1.838-3.5-2-5.407 1.926-10 6-1.513 2.288-1.5 5h-5v-52h3v45a4.93 4.93 0 0 0 3-.5 75 75 0 0 1 7-7.5q5.351-2.084 10 1.5a63.5 63.5 0 0 0 7 6.5 970 970 0 0 0 1.5-44q1.558-1.116 1.5-3" style="opacity:1" transform="translate(0 .5)"/><path fill="#bfb2a0" d="M130.5-.5h1v58q-.513 1.258-2 1a85.7 85.7 0 0 1-11-11q2.682-.428 5 1 2.062 4.57 7 4z" style="opacity:1" transform="translate(0 .5)"/><path fill="#c0b3a1" d="M95.5-.5h1v54h5q-.013-2.712 1.5-5 4.593-4.074 10-6 2.522.162 3.5 2-2.352-1.46-5-.5a284 284 0 0 0-14 14.5q-1.487.258-2-1z" style="opacity:1" transform="translate(0 .5)"/><path fill="#7f7f7f" d="M94.5 38.5h1v3a73 73 0 0 1-17-1 3.65 3.65 0 0 1 1-1.5q7.483-.75 15-.5" style="opacity:1" transform="translate(0 .5)"/><path fill="#838383" d="M48.5 41.5a73 73 0 0 1-17-1 3.65 3.65 0 0 1 1-1.5q7.984-.75 16-.5z" style="opacity:1" transform="translate(0 .5)"/><path fill="#7c7c7c" d="M72.5 41.5h-17v-3h17z" style="opacity:1" transform="translate(0 .5)"/><path fill="#7b7b7b" d="M131.5 38.5h1q5.025-.247 10 .5 1.129 1.005 1 2.5h-12z" style="opacity:1" transform="translate(0 .5)"/><path fill="#272726" d="m116.5 44.5 2 3a85.7 85.7 0 0 0 11 11q2.362 2.421 2 6a8.44 8.44 0 0 1-4-.5 45 45 0 0 1-7-8.5 25.3 25.3 0 0 0-7-5 31.2 31.2 0 0 0-6 3.5q-2.943 5.745-8 10a8.4 8.4 0 0 1-4 .5q-.362-3.579 2-6a284 284 0 0 1 14-14.5q2.648-.96 5 .5" style="opacity:1" transform="translate(0 .5)"/><path fill="#d7c9b4" d="M45.5 48.5v6a903 903 0 0 0-18 2v-1q-.245-3.535.5-7 8.935-9.97 17.5 0" style="opacity:1" transform="translate(0 .5)"/><path fill="#b9ab96" d="M45.5 48.5q1.46 3.672 1 8a455 455 0 0 1-4 5q-10.245 5.548-15-5a903 903 0 0 1 18-2z" style="opacity:1" transform="translate(0 .5)"/><path fill="#ddd" d="M32.5 71.5q0-1 1-1h4q.984 35.037-2 69v-68z" style="opacity:1" transform="translate(0 .5)"/><path fill="#cecece" d="M37.5 70.5q2.985 34.464 2 70-3.84.452-7-1h3q2.984-33.963 2-69" style="opacity:1" transform="translate(0 .5)"/><path fill="#bcbcbc" d="M33.5 70.5q3.842-1.9 8 0v69q-1 0-1 1h-1q.985-35.536-2-70z" style="opacity:1" transform="translate(0 .5)"/><path fill="#efefef" d="M32.5 71.5h3v68h-3q-3.064-1.619-4-5-.25-30.005.5-60 .634-2.889 3.5-3" style="opacity:1" transform="translate(0 .5)"/><path fill="#a6a6a6" d="m41.5 70.5 3 2q.25 32.504-.5 65-1.062 1.321-2.5 2z" style="opacity:1" transform="translate(0 .5)"/><path fill="#848484" d="M102.5 72.5h17v3h-17z" style="opacity:1" transform="translate(0 .5)"/><path fill="#838383" d="M126.5 72.5h17v3h-17z" style="opacity:1" transform="translate(0 .5)"/><path fill="#878787" d="M44.5 72.5h4a42.6 42.6 0 0 0-2 8q.01 2.805 1 5 0 1-1 1-2.07 5.905.5 12A92 92 0 0 1 63.5 87a122 122 0 0 1 14-13.5 103 103 0 0 1 19-1v3h-17v7a4235 4235 0 0 1-27 22.5q.816 1.076 2 1.5.5 1.5 2 2a106 106 0 0 0 11 9q6.385 4.126 11.5 10 .746 3.97.5 8-1.352 1.185-2 3l-2 1q.013-2.712-1.5-5A312 312 0 0 1 50.5 114a11.3 11.3 0 0 1-3.5-1.5l-1 1q-1.21 5.29.5 10 1 0 1 1a242 242 0 0 0-2 11q1.238 1.329 3 1v4h-8q0-1 1-1 1.438-.679 2.5-2 .75-32.496.5-65" style="opacity:1" transform="translate(0 .5)"/><path fill="#8d8d8d" d="M63.5 72.5q-1.627 3.13-5 4-1.064-1.356-3-1v-3z" style="opacity:1" transform="translate(0 .5)"/><path fill="#d3d3d3" d="M67.5 70.5h4a45.2 45.2 0 0 1-10 9.5 89 89 0 0 1-15 9.5v-3q1 0 1-1a106 106 0 0 0 11-9q3.373-.87 5-4z" style="opacity:1" transform="translate(0 .5)"/><path fill="#b9b9b9" d="M71.5 70.5q1.538.595.5 2-11.075 11.694-24.5 21-1.393-1.783-1-4a89 89 0 0 0 15-9.5 45.2 45.2 0 0 0 10-9.5" style="opacity:1" transform="translate(0 .5)"/><path fill="#9f9f9f" d="M67.5 70.5q3.79-1.736 8 0l2 3a122 122 0 0 0-14 13.5A92 92 0 0 0 47 98.5q-2.57-6.095-.5-12v3q-.393 2.217 1 4 13.425-9.306 24.5-21 1.038-1.405-.5-2z" style="opacity:1" transform="translate(0 .5)"/><path fill="#777" d="M72.5 106.5q-9.147.925-17-2 7.875-1.672 16-.5 1.128 1.006 1 2.5" style="opacity:1" transform="translate(0 .5)"/><path fill="#6f6f6f" d="M79.5 103.5q8.016-.249 16 .5 2 1.5 0 3a64.2 64.2 0 0 1-16 0q-1.776-1.718 0-3.5" style="opacity:1" transform="translate(0 .5)"/><path fill="#707070" d="M103.5 103.5h16v4h-17q-.1-2.188 1-4m23 0q8.016-.249 16 .5 2 1.5 0 3-7.984.749-16 .5z" style="opacity:1" transform="translate(0 .5)"/><path fill="#525252" d="M55.5 104.5q7.853 2.925 17 2l-16 2q-1.5-.5-2-2-.258-1.487 1-2" style="opacity:1" transform="translate(0 .5)"/><path fill="#a4a4a4" d="M75.5 139.5q-4.337 1.354-9 1v-1h4q3.218-.294.5-3A255 255 0 0 1 59.5 125a153 153 0 0 0-12-9.5q-1.329 1.238-1 3v5q-1.71-4.71-.5-10l1-1a11.3 11.3 0 0 0 3.5 1.5A312 312 0 0 0 74 134.5q1.513 2.288 1.5 5" style="opacity:1" transform="translate(0 .5)"/><path fill="#d0d0d0" d="M46.5 118.5q11.933 10.423 24 21h-4a17.9 17.9 0 0 0-6-4 161 161 0 0 0-13-11q0-1-1-1z" style="opacity:1" transform="translate(0 .5)"/><path fill="#bcbcbc" d="M70.5 139.5a19521 19521 0 0 0-24-21q-.329-1.762 1-3a153 153 0 0 1 12 9.5A255 255 0 0 0 71 136.5q2.718 2.706-.5 3" style="opacity:1" transform="translate(0 .5)"/><path fill="#545454" d="m79.5 135.5 16 2q-8.656-.92-16 2l-2-1q.648-1.815 2-3" style="opacity:1" transform="translate(0 .5)"/><path fill="#676767" d="M60.5 135.5a17.9 17.9 0 0 1 6 4v1h-11v-4q2.872.426 5-1" style="opacity:1" transform="translate(0 .5)"/><path fill="#737373" d="M95.5 137.5h1q.128 1.494-1 2.5-8.274 1.226-16-.5 7.344-2.92 16-2" style="opacity:1" transform="translate(0 .5)"/><path fill="#6f6f6f" d="M119.5 139.5q-8.213 1.483-17 1v-3a77.8 77.8 0 0 1 17-1zm7-3a77.8 77.8 0 0 1 17 1q.129 1.494-1 2.5-7.984.749-16 .5z" style="opacity:1" transform="translate(0 .5)"/></svg>