<svg xmlns="http://www.w3.org/2000/svg" width="148" height="32" fill="none"><path fill="#1F74BD" d="M8.182 11.998c1.938 0 4.018.958 5.074 2.417 1.055-1.46 3.137-2.602 5.076-2.602 3.293 0 6.182 2.403 6.182 7.006l.074 3.105c0 4.772 3.147 5.383 4.443 5.383s4.325-.868 4.325-4.941v-8.592c0-1.478 2.23-1.478 2.23 0v8.592c-.08 5.37-3.963 7.16-6.555 7.16s-6.665-1.534-6.665-7.602l-.075-3.284c0-3.865-2.702-4.423-3.959-4.423-1.98 0-3.96 1.645-3.96 4.423v9.778c0 .614-.497 1.107-1.11 1.107h-.01a1.11 1.11 0 0 1-1.111-1.107V18.64c0-2.778-1.98-4.423-3.96-4.423s-3.96 1.044-3.958 5.148v9.053a1.11 1.11 0 0 1-1.112 1.107A1.11 1.11 0 0 1 2 28.418v-9.053c0-5.4 2.979-7.367 6.182-7.367M28.81 4.222c-2.83 0-4.466 2.407-4.466 4.628 0 1.667-2.22 1.667-2.22 0 0-3.888 2.93-6.85 6.686-6.85s6.687 2.962 6.687 6.85c0 1.667-2.227 1.667-2.227 0 0-2.221-1.63-4.628-4.46-4.628m.214 3.224a1.466 1.466 0 1 1 .001 2.932 1.466 1.466 0 0 1 0-2.932m18.602 12.837c3.491 1.141 4.109 3.057 4.023 4.475-.158 2.72-2.897 4.775-6.366 4.775-2.896 0-5.317-1.527-6.316-3.982a1.11 1.11 0 0 1 .606-1.448 1.115 1.115 0 0 1 1.448.61c.663 1.628 2.257 2.601 4.262 2.601 2.5 0 4.075-1.366 4.15-2.687.02-.381.079-1.388-2.398-2.196l-4.184-1.37c-2.705-.894-3.963-2.324-3.85-4.363.145-2.68 2.832-4.7 6.253-4.7 2.88 0 5.317 1.545 6.215 3.94a1.107 1.107 0 0 1-.651 1.426 1.11 1.11 0 0 1-1.426-.651c-.565-1.52-2.189-2.5-4.135-2.5-2.219 0-3.955 1.119-4.038 2.605-.026.467-.074 1.335 2.336 2.133zm21.342-1.065c0 1.296-.74 2.222-2.407 2.24h-9.797c.206 3.63 2.513 5.852 5.38 5.852 1.732 0 3.861-1.231 4.602-2.722.273-.55.931-.644 1.481-.37.546.273.596.819.319 1.365-1.058 2.522-3.93 3.946-6.403 3.946-4.277 0-7.616-3.525-7.616-8.767 0-5.243 3.243-8.764 7.524-8.764 4.23 0 6.917 4.11 6.917 7.22m-12.125.02h9.348c.666.055.734-.477.63-.945-.5-2.222-2.37-4.08-4.77-4.08-2.642 0-4.785 1.886-5.208 5.026m23.852 1.045c3.491 1.141 4.108 3.057 4.023 4.475-.158 2.72-2.897 4.775-6.366 4.775-2.896 0-5.317-1.527-6.317-3.982a1.11 1.11 0 0 1 .607-1.448 1.115 1.115 0 0 1 1.448.61c.662 1.628 2.256 2.601 4.262 2.601 2.5 0 4.075-1.366 4.15-2.687.019-.381.079-1.388-2.399-2.196l-4.183-1.37c-2.706-.894-3.963-2.324-3.85-4.363.145-2.68 2.832-4.7 6.252-4.7 2.881 0 5.318 1.545 6.216 3.94a1.107 1.107 0 0 1-.651 1.426 1.11 1.11 0 0 1-1.426-.651c-.565-1.52-2.19-2.5-4.135-2.5-2.22 0-3.955 1.119-4.038 2.605-.026.467-.075 1.335 2.335 2.133zm13.974-6.063c-2.945 0-4.953 2.507-4.96 6.543 0 4.037 2.008 6.547 4.956 6.547 1.781 0 3.34-.902 4.166-2.6a1.056 1.056 0 0 1 1.441-.494c.529.273.746.94.478 1.49-1.18 2.427-3.514 3.819-6.085 3.819-4.139 0-7.103-3.524-7.103-8.766 0-5.24 2.96-8.761 7.103-8.761 2.582 0 4.915 1.392 6.089 3.82a1.12 1.12 0 0 1-.478 1.488 1.055 1.055 0 0 1-1.438-.493c-.825-1.695-2.38-2.593-4.17-2.593m16.15-2.222c4.285 0 7.343 3.524 7.343 8.761 0 5.245-3.062 8.766-7.343 8.766-4.276 0-7.339-3.524-7.339-8.766 0-5.24 3.059-8.761 7.339-8.761m0 15.312c3.05 0 5.124-2.51 5.124-6.547 0-4.04-2.078-6.547-5.124-6.547s-5.12 2.51-5.12 6.547 2.075 6.547 5.12 6.547m13.123-6.055v7.172a1.111 1.111 0 0 1-2.222-.002v-15.3a1.111 1.111 0 0 1 2.222 0v.354c0 .537-.019.978-.042 1.496-.006.142-.012.365-.018.522 1.355-2.112 3.411-3.5 5.614-3.5 1.768 0 1.685 2.223 0 2.223-3.451 0-5.554 3.517-5.554 7.035M146 19.218c0 1.296-.741 2.222-2.407 2.24h-9.797c.206 3.63 2.513 5.852 5.379 5.852 1.732 0 3.862-1.231 4.603-2.722.273-.55.931-.644 1.481-.37.546.273.595.819.318 1.365-1.057 2.522-3.929 3.946-6.402 3.946-4.277 0-7.616-3.525-7.616-8.767 0-5.243 3.243-8.764 7.524-8.764 4.23 0 6.917 4.11 6.917 7.22m-12.125.02h9.348c.666.055.734-.477.629-.945-.498-2.222-2.37-4.08-4.769-4.08-2.642 0-4.785 1.886-5.208 5.026"/></svg>