<svg xmlns="http://www.w3.org/2000/svg" xmlns:xlink="http://www.w3.org/1999/xlink" width="48" height="48" version="1.0"><defs><linearGradient id="f"><stop offset="0" style="stop-color:#000;stop-opacity:1"/><stop offset="1" style="stop-color:#000;stop-opacity:0"/></linearGradient><linearGradient id="e"><stop offset="0" style="stop-color:#000;stop-opacity:1"/><stop offset="1" style="stop-color:#000;stop-opacity:0"/></linearGradient><linearGradient id="d"><stop offset="0" style="stop-color:#fff;stop-opacity:1"/><stop offset="1" style="stop-color:#fff;stop-opacity:0"/></linearGradient><linearGradient id="c"><stop offset="0" style="stop-color:#fff;stop-opacity:1"/><stop offset="1" style="stop-color:#fff;stop-opacity:0"/></linearGradient><linearGradient id="k"><stop offset="0" style="stop-color:#fff;stop-opacity:1"/><stop offset="1" style="stop-color:#555753;stop-opacity:1"/></linearGradient><linearGradient id="b"><stop offset="0" style="stop-color:#e9b96e;stop-opacity:1"/><stop offset="1" style="stop-color:#e9b96e;stop-opacity:0"/></linearGradient><linearGradient id="g"><stop offset="0" style="stop-color:#000;stop-opacity:1"/><stop offset="1" style="stop-color:#000;stop-opacity:0"/></linearGradient><linearGradient id="a"><stop offset="0" style="stop-color:#fff;stop-opacity:.58823532"/><stop offset="1" style="stop-color:#fff;stop-opacity:0"/></linearGradient><linearGradient xlink:href="#a" id="p" x1="35" x2="0" y1="47" y2="-6" gradientTransform="matrix(.89744 0 0 1 2.462 0)" gradientUnits="userSpaceOnUse"/><linearGradient xlink:href="#b" id="o" x1="23" x2="25" y1="36.5" y2="36.5" gradientTransform="matrix(.5 0 0 1 11.5 0)" gradientUnits="userSpaceOnUse"/><linearGradient xlink:href="#c" id="t" x1="21.85" x2="27.907" y1="11.703" y2="17.132" gradientTransform="translate(8 9)" gradientUnits="userSpaceOnUse"/><linearGradient xlink:href="#d" id="r" x1="33.5" x2="44.5" y1="27.5" y2="27.5" gradientTransform="matrix(1.2 0 0 1.2 -8.3 -5.5)" gradientUnits="userSpaceOnUse"/><linearGradient xlink:href="#e" id="q" x1="19" x2="39" y1="15" y2="37" gradientTransform="matrix(.92857 0 0 1 3 0)" gradientUnits="userSpaceOnUse"/><linearGradient xlink:href="#f" id="n" x1="31.668" x2="35.556" y1="35.908" y2="44.258" gradientTransform="matrix(.9354 0 -.43557 .8384 1.018 1.895)" gradientUnits="userSpaceOnUse"/><linearGradient xlink:href="#f" id="m" x1="31.668" x2="35.556" y1="35.908" y2="44.258" gradientTransform="matrix(-.9354 0 .43557 .8384 46.982 1.895)" gradientUnits="userSpaceOnUse"/><radialGradient xlink:href="#g" id="l" cx="25" cy="43.5" r="21" fx="25" fy="34.5" gradientTransform="matrix(1 0 0 .21429 0 34.179)" gradientUnits="userSpaceOnUse"/><radialGradient xlink:href="#k" id="s" cx="23" cy="12.811" r="4" fx="22.306" fy="9.107" gradientTransform="matrix(1 0 0 .75 8 12.75)" gradientUnits="userSpaceOnUse"/></defs><path d="M46 43.5c0 2.484-9.408 4.5-21 4.5S4 45.984 4 43.5 13.408 39 25 39s21 2.016 21 4.5" style="opacity:.40000000000000002;color:#000;fill:url(#l);fill-opacity:1;fill-rule:evenodd;stroke:none;stroke-width:1px;stroke-linecap:butt;stroke-linejoin:miter;stroke-miterlimit:4;stroke-dashoffset:0;stroke-opacity:1;marker:none;marker-start:none;marker-mid:none;marker-end:none;visibility:visible;display:inline;overflow:visible" transform="matrix(1 0 0 .77778 -1 10.667)"/><path d="M-15.472 30.016h4.969v21.47h-4.97z" style="fill:#c17d11;fill-opacity:1;stroke:#8f5902;stroke-width:1.06300688;stroke-linecap:round;stroke-linejoin:round;stroke-miterlimit:4;stroke-dashoffset:1.96000013;stroke-opacity:1" transform="skewX(-27.752)scale(1 -.88497)"/><path d="M-14.479 31.146h2.982v19.21h-2.982z" style="fill:none;fill-opacity:1;stroke:#e9b96e;stroke-width:1.06300675999999994;stroke-linecap:round;stroke-linejoin:miter;stroke-miterlimit:4;stroke-dashoffset:1.96000013000000006;stroke-opacity:1" transform="skewX(-27.752)scale(1 -.88497)"/><path d="M34 36h-4l5 9h4z" style="fill:url(#m);fill-opacity:1;stroke:none;stroke-width:1.0630068800000001;stroke-linecap:round;stroke-linejoin:round;stroke-miterlimit:4;stroke-dashoffset:1.96000013000000006;stroke-opacity:1;opacity:.6"/><path d="M32.474 29.945h4.97v21.47h-4.97z" style="fill:#c17d11;fill-opacity:1;stroke:#8f5902;stroke-width:1.06300688;stroke-linecap:round;stroke-linejoin:round;stroke-miterlimit:4;stroke-dashoffset:1.96000013;stroke-opacity:1" transform="skewX(-27.752)scale(1 .88497)"/><path d="M33.468 31.075h2.982v19.21h-2.982z" style="fill:none;fill-opacity:1;stroke:#e9b96e;stroke-width:1.06300675999999994;stroke-linecap:round;stroke-linejoin:miter;stroke-miterlimit:4;stroke-dashoffset:1.96000013000000006;stroke-opacity:1" transform="skewX(-27.752)scale(1 .88497)"/><path d="M14 36h4l-5 9H9z" style="fill:url(#n);fill-opacity:1;stroke:none;stroke-width:1.0630068800000001;stroke-linecap:round;stroke-linejoin:round;stroke-miterlimit:4;stroke-dashoffset:1.96000013000000006;stroke-opacity:1;opacity:.6"/><path d="M22.5 29.5h3v14h-3z" style="fill:#c17d11;fill-opacity:1;stroke:#8f5902;stroke-width:1;stroke-linecap:round;stroke-linejoin:round;stroke-miterlimit:4;stroke-dashoffset:1.96000013;stroke-opacity:1"/><path d="M23 30h1v13h-1z" style="fill:url(#o);fill-opacity:1;stroke:none;stroke-width:1;stroke-linecap:round;stroke-linejoin:round;stroke-miterlimit:4;stroke-dashoffset:1.96000013;stroke-opacity:1"/><path d="M5.5 2.5h37v33h-37z" style="fill:#d3d7cf;fill-opacity:1;stroke:#888a85;stroke-width:1;stroke-linecap:round;stroke-linejoin:round;stroke-miterlimit:4;stroke-dashoffset:1.96000013;stroke-opacity:1"/><path d="M5.5 2.5h37v31h-37z" style="fill:#eeeeec;fill-opacity:1;stroke:#888a85;stroke-width:1;stroke-linecap:round;stroke-linejoin:round;stroke-miterlimit:4;stroke-dashoffset:1.96000013;stroke-opacity:1"/><path d="M6.5 3.5h35v29h-35z" style="fill:url(#p);fill-opacity:1;stroke:#fff;stroke-width:.99999982;stroke-linecap:round;stroke-linejoin:round;stroke-miterlimit:4;stroke-dashoffset:1.96000013;stroke-opacity:1"/><path d="m29 23 9.286 10L42 35" style="opacity:.6;fill:none;fill-opacity:1;stroke:url(#q);stroke-width:1.99999988000000006;stroke-linecap:round;stroke-linejoin:miter;stroke-miterlimit:4;stroke-dasharray:none;stroke-dashoffset:1.96000013000000006;stroke-opacity:1"/><path d="M11.41 5.705c-1.91 6.4-1.321 13.18-.643 19.724.091 1.805.25 3.651.967 5.328.015 1.765-2.939 1.581-2.945-.115-.409-2.03.383-4.044.31-6.083.223-6.048.498-12.237 2.655-17.955.374-1.047.898-3.43 2.437-2.313.892 1.092.78 2.66.653 3.988-.469 3.986-2.232 7.885-1.503 11.958.36 2.843.394 5.72.59 8.57.23 1.826-2.31 1.268-2.034-.236.403-1.182.738-2.37.98-3.6 1.355-5.652 3.039-11.22 4.335-16.887-.343-1.203 1.172-2.896 1.988-1.354.884 1.484.066 3.216-.422 4.688-.95 2.635-2.053 5.404-1.592 8.264.202 3.254.08 6.519.31 9.771-.128 1.811-3.19.675-2.193-.787.428-1.792 1.124-3.512 1.423-5.336 1.434-5.702 3.346-11.327 6.217-16.464 1.557 1 1.594 3.276.765 4.77-1.233 3.393-3.595 6.485-3.63 10.233.102 1.426.437 2.982-.305 4.299-1.911.108-1.077-2.508-.136-3.252.897-2.14 1.408-4.442 2.493-6.507.559-.947 1.272-2.84 2.654-1.952 1.373.862.557 2.362.121 3.496-.383 1.188-.462 2.512-1.1 3.594-1.497 1.087-1.852-2.235-.081-1.853 1.142-.284 2.732.03 3.194 1.258.576 1.387-2.062 2.098-2.303.76.55-1.173 1.067.713.247 1.039-.772.51-1.994.544-2.718-.14-.767-.648-.863-1.854-.261-2.647.663-1.297.388-2.874 1.07-4.153.753-1.113 2.446.174 1.225 1.083-2.11 2.886-1.682 6.889-3.924 9.705-.894 1.668-3.24-.05-2.555-1.563.408-1.291.49-2.695.798-4.026.677-3.632 1.647-7.232 3.249-10.566.1-1.233 1.962-2.658 2.274-.769.268 1.372-1.22 2.006-1.609 3.178-1.354 2.18-2.788 4.457-3.07 7.076-.786 2.259-1.459 4.604-1.39 7.022-.095 1.375-.255 2.777-.823 4.046-1.151.913-2.668-.639-2.387-1.887.365-2.162.254-4.364.393-6.547.198-5.185 1.04-10.324 2.18-15.376-.546-1.789 2.456-1.788 2.314-.08.463 1.654-.478 3.242-.938 4.784-.913 2.34-2.11 4.625-2.404 7.158-1.555 3.488-1.211 7.431-2.19 11.063-.648 1.496-2.9.387-2.676-1.034-.064-3.743-.18-7.49.093-11.228.255-4.18.742-8.34 1.262-12.492-.22-1.589 1.926-.855 2.075.232.056 1.009-.422 2-.928 2.861-1.525 2.343-2.716 5.103-2.412 7.968-.201 2.174-.833 4.356-.4 6.544.226 2.61.68 5.25.237 7.862-1.125 1.256-2.532-.628-2.593-1.803-.982-4.052-.802-8.255-.576-12.383.107-3.266.118-6.55.42-9.798.23-1.424 1.698-1.94 2.812-1.136" style="opacity:1;fill:#729fcf;fill-opacity:1;stroke:none;stroke-width:1;stroke-linecap:round;stroke-linejoin:miter;stroke-miterlimit:4;stroke-dasharray:none;stroke-dashoffset:1.96000013;stroke-opacity:1"/><rect width="13.099" height="2.18" x="40.699" y="6.873" ry="1.09" style="fill:#c17d11;fill-opacity:1;stroke:#8f5902;stroke-width:1.00110912;stroke-linecap:round;stroke-linejoin:miter;stroke-miterlimit:4;stroke-dasharray:none;stroke-dashoffset:1.96000013;stroke-opacity:1" transform="matrix(.89975 .43642 -.3756 .92678 0 0)"/><path d="m32.5 24.5 12 6" style="opacity:1;fill:none;fill-opacity:1;stroke:url(#r);stroke-width:.99999994;stroke-linecap:round;stroke-linejoin:miter;stroke-miterlimit:4;stroke-dasharray:none;stroke-dashoffset:1.96000013;stroke-opacity:1"/><path d="M34.153 25.518c-1.01 1.333-2.635 1.283-4.285.008C28.238 24.268 27.5 21.5 27.5 21.5c1.713 1.17 3.49.123 5.019.539 2.014.548 2.357 2.525 1.634 3.48z" style="color:#000;fill:url(#s);fill-opacity:1;fill-rule:evenodd;stroke:#2e3436;stroke-width:1px;stroke-linecap:butt;stroke-linejoin:miter;marker:none;marker-start:none;marker-mid:none;marker-end:none;stroke-miterlimit:4;stroke-dashoffset:0;stroke-opacity:1;visibility:visible;display:inline;overflow:visible"/><path d="M29.868 25.526C28.238 24.268 27.5 21.5 27.5 21.5c1.713 1.17 2.972.084 4.5.5-1.519.961-2 2-2.132 3.526z" style="color:#000;fill:#3465a4;fill-opacity:1;fill-rule:evenodd;stroke:#729fcf;stroke-width:1px;stroke-linecap:butt;stroke-linejoin:miter;marker:none;marker-start:none;marker-mid:none;marker-end:none;stroke-miterlimit:4;stroke-dashoffset:0;stroke-opacity:1;visibility:visible;display:inline;overflow:visible"/><path d="M29.087 22.97s2.241-.331 3.41.127c1.167.457.757 2.02.757 2.02" style="fill:none;fill-opacity:1;stroke:url(#t);stroke-width:1;stroke-linecap:round;stroke-linejoin:miter;stroke-miterlimit:4;stroke-dasharray:none;stroke-dashoffset:1.96000013;stroke-opacity:1"/></svg>