<svg xmlns="http://www.w3.org/2000/svg" width="128" height="128" style="shape-rendering:geometricPrecision;text-rendering:geometricPrecision;image-rendering:optimizeQuality;fill-rule:evenodd;clip-rule:evenodd"><path fill="#3c97fe" d="M89.5 41.5a513 513 0 0 0-32 .5q-12.502 3.758-18 15.5-11.51-.25-23 .5-1.937 1.938 0 3.5v3h22v17h-28v9q-.926-.165-1.5-1a1057 1057 0 0 1 0-65Q12.917 10.082 27.5 7a290 290 0 0 1 47 1q9.75 3.75 13.5 13.5a76.4 76.4 0 0 1 1.5 20" style="opacity:.987"/><path fill="#279c66" d="M89.5 41.5q19.143-2.058 27.5 15a330 330 0 0 1 1.5 35.5q0 16.508-1 32.5-1.46-3.672-1-8-32.03.396-64-1-.332 4.169 1 8-9.296-3.04-13.5-12a70.9 70.9 0 0 1-2.5-21q1.465-4.18 1-9v-21a5.73 5.73 0 0 0 1-3q5.498-11.742 18-15.5a513 513 0 0 1 32-.5" style="opacity:.998"/><path fill="#3077c7" d="M39.5 57.5a5.73 5.73 0 0 1-1 3q-11.279-.488-22 1-1.937-1.562 0-3.5 11.49-.75 23-.5" style="opacity:1"/><path fill="#b7d6fb" d="M38.5 60.5v4h-22v-3q10.721-1.488 22-1" style="opacity:1"/><path fill="#257b51" d="M76.5 77.5q-11.46-6.23-23-12.5-2.142-.869-4 .5-.485-4.77 4-3.5a313 313 0 0 0 21 11q2.306 1.665 2 4.5" style="opacity:1"/><path fill="#a0cbb7" d="M76.5 77.5q.16 3.605-3 5.5a257 257 0 0 0-19 10q-3.26 1.315-5-1.5 10.96-5.982 22-12-.534-1.533-2-2l-17-8.5q-2.345-1.139-3-3.5 1.858-1.369 4-.5 11.54 6.27 23 12.5" style="opacity:1"/><path fill="#267b52" d="M69.5 77.5q1.466.467 2 2-11.04 6.018-22 12-.255-1.983 1-3.5a13921 13921 0 0 0 19-10.5" style="opacity:1"/><path fill="#3075c4" d="M38.5 81.5q.465 4.82-1 9h-27v-9z" style="opacity:1"/><path fill="#2c7d55" d="M102.5 96.5h-27v-3h27z" style="opacity:1"/><path fill="#a7d0be" d="M75.5 96.5h27v3q-13.01.25-26-.5-1.128-1.005-1-2.5" style="opacity:1"/><path fill="#1d754c" d="M117.5 124.5a544 544 0 0 1-57 .5q-3.63-.435-7-1.5-1.332-3.831-1-8 31.97 1.396 64 1-.46 4.328 1 8" style="opacity:1"/></svg>