<svg xmlns="http://www.w3.org/2000/svg" width="128" height="128"><desc>This is PlayOnLinux for Clarity vector icon theme for gtk</desc><path d="M67.46 5.978a44 44 0 0 1 5.834-.09c4.517 1.207 7.21 5.38 11.243 7.46a17.66 17.66 0 0 0 7.6 1.837c4.304.298 8.608 1.965 11.725 5 3.008 3.62 5.594 8.14 5.107 13.02-.078 2.747-1.35 5.235-2.375 7.725-1.326 3.178-3.436 5.98-6.03 8.23-4.447 3.136-9.78 4.453-14.84 6.212-4.28 1.463-8.602 2.981-12.404 5.49-2.487 1.504-4.562 3.558-6.8 5.382-.018.134-.05.405-.065.538 3.914-.214 7.81-.864 11.633-1.73 4.38-.805 8.197-3.215 12.162-5.1 5.433-2.68 11.006-5.638 17.161-6.051 2.265-.09 4.592.22 6.622 1.284 3.403 1.486 5.633 4.758 7.113 8.04.686 3.141 1.411 6.607.214 9.722-1.938 5.41-6.61 9.362-8.263 14.917-.963 4.155 0 8.563-1.614 12.611-1.45 4.34-5.864 6.893-10.144 7.74-5.51 1.174-10.765-1.831-14.608-5.51-3.106-4.013-4.928-8.787-7.279-13.239a116 116 0 0 0-9.942-17.985c-1.486-1.376-2.155-3.676-4.018-4.606-5.454-.532-10.76 1.183-15.97 2.544-5.43 1.364-10.551 3.661-15.544 6.158-4.56 2.018-9.589 3.064-14.573 2.372C9.951 76.216 3.775 65.1 6.755 56.103c1.876-4.404 4.643-8.325 7.413-12.194 2.547-3.525 2.351-8.115 4.069-11.981 1.962-3.478 4.978-6.426 8.676-7.995 2.684-1.264 5.745-1.228 8.637-1.513 4.592-.452 9.448 1.397 12.034 5.32 1.67 2.437 2.387 5.323 3.118 8.144 2.984 9.523 6.29 19.203 12.085 27.445.865 1.102 1.635 2.306 2.734 3.198.788-3.412-.294-6.848-1.111-10.144-1.632-5.528-3.867-10.849-5.787-16.276-2.107-5.448-3.906-11.13-4.054-17.013-.57-4.919.993-10.328 4.693-13.749 2.345-1.89 5.296-2.767 8.197-3.367M65.587 67.08l.172-.149c-.057 2.482.838 4.836 1.542 7.175 2.619 8.01 6.194 15.732 7.779 24.051.555 3.388 1.001 7.148-.806 10.251-1.955 5.005-5.558 9.559-10.557 11.776-3.457 1.79-8.017 2.882-11.518 1.006-4.17-1.84-6.678-6.132-11.03-7.689-3.56-1.545-7.656.214-11.252-1.26-3.534-1.15-6.468-3.9-7.776-7.386-2.062-5.392-1.318-12.434 1.805-17.32 4.298-4.173 10.037-6.325 15.506-8.537 5.091-1.994 10.296-3.697 15.354-5.78 3.835-1.558 7.83-3.127 10.78-6.138"/></svg>