<svg xmlns="http://www.w3.org/2000/svg" xml:space="preserve" width="800" height="800" viewBox="0 0 318.188 318.188"><path d="M283.149 52.723 232.624 2.197A7.5 7.5 0 0 0 227.321 0H40.342a7.5 7.5 0 0 0-7.5 7.5v303.188a7.5 7.5 0 0 0 7.5 7.5h237.504a7.5 7.5 0 0 0 7.5-7.5V58.025c0-1.989-.79-3.896-2.197-5.302m-48.328-27.117 24.918 24.919h-24.918zM47.842 15h171.98v10.263H47.842zm222.504 288.188H47.842V40.263h171.98v17.763a7.5 7.5 0 0 0 7.5 7.5h43.024z"/><path d="M221.57 257.513q-1.903 8.992-2.33 12.635-.36-2.823-1.443-8.532-1.084-5.711-2.133-10.075l-4.102-18.148H199.55l-4.233 18.148q-.952 3.774-2.051 9.517t-1.526 9.091q-.657-4.726-2.428-12.7l-5.219-24.056H171.59l11.88 47.979h15.325q4.202-18.87 4.775-21.528t1.165-5.825c.591-3.167.678-3.877.854-5.3q.327 2.626 1.033 6.53c.706 3.904.815 4.344 1.034 5.219l4.595 20.904h15.325l11.814-47.979h-12.503zM159.093 61.169c-38.729 0-70.237 31.509-70.237 70.237s31.508 70.237 70.237 70.237 70.237-31.509 70.237-70.237-31.508-70.237-70.237-70.237m13.575 16.692c13.651 3.463 25.281 12.025 32.759 23.528h-46.343zm3.765 53.545-8.67 15.017h-17.34l-8.67-15.017 8.67-15.017h17.34zm-20.15-55.166-23.19 40.166-13.563-23.492c9.431-9.69 22.371-15.949 36.753-16.674m-50.335 70.183a55 55 0 0 1-2.092-15.017c0-9.046 2.2-17.582 6.07-25.126l23.177 40.143zm39.571 38.528c-13.651-3.463-25.281-12.025-32.759-23.528h46.343zm16.384 1.621 23.19-40.166 13.563 23.492c-9.43 9.691-22.371 15.95-36.753 16.674m52.428-55.166c0 9.046-2.2 17.582-6.07 25.126l-23.177-40.143h27.155a55 55 0 0 1 2.092 15.017m-76.905 101.789-15.386 47.351-13.428-20.079q8.139-4.561 8.139-12.898 0-14.177-19.559-14.177h-15.72v47.979h12.963v-17.459h3.282l10.174 17.459h28.124l2.429-8.992h15.588l2.362 8.992h14.178l-15.851-48.176zm-40.562 20.971h-2.429v-10.962h2.56q6.662 0 6.662 4.956 0 6.006-6.793 6.006m44.271 7.58q2.986-11.288 3.856-15.129.869-3.838 1.165-5.514.328 1.806 1.362 5.973 1.034 4.168 1.756 6.794l2.067 7.876z"/></svg>