<svg xmlns="http://www.w3.org/2000/svg" xmlns:xlink="http://www.w3.org/1999/xlink" width="100.5" height="100.5" viewBox="0 0 26.591 26.591"><defs><linearGradient xlink:href="#a" id="k" x1="89.694" x2="77.582" y1="102.901" y2="85.401" gradientTransform="translate(.019 6.086)scale(.9122)" gradientUnits="userSpaceOnUse"/><linearGradient id="a"><stop offset="0" style="stop-color:#38c102;stop-opacity:1"/><stop offset="1" style="stop-color:#bced02;stop-opacity:1"/></linearGradient><linearGradient xlink:href="#b" id="l" x1="69.426" x2="69.426" y1="109.566" y2="87.778" gradientTransform="translate(.019 6.086)scale(.9122)" gradientUnits="userSpaceOnUse"/><linearGradient id="b"><stop offset="0" style="stop-color:#009a01;stop-opacity:1"/><stop offset="1" style="stop-color:#01d901;stop-opacity:1"/></linearGradient><linearGradient xlink:href="#c" id="m" x1="35.142" x2="51.941" y1="47.984" y2="60.841" gradientTransform="translate(.019 6.086)scale(.9122)" gradientUnits="userSpaceOnUse"/><linearGradient id="c"><stop offset="0" style="stop-color:#5a1898;stop-opacity:1"/><stop offset="1" style="stop-color:#971ec6;stop-opacity:1"/></linearGradient><linearGradient xlink:href="#d" id="n" x1="35.907" x2="51.054" y1="92.042" y2="77.181" gradientTransform="translate(.019 6.086)scale(.9122)" gradientUnits="userSpaceOnUse"/><linearGradient id="d"><stop offset="0" style="stop-color:#053980;stop-opacity:1"/><stop offset="1" style="stop-color:#0293e4;stop-opacity:1"/></linearGradient><linearGradient xlink:href="#e" id="o" x1="28.166" x2="49.507" y1="69.663" y2="69.663" gradientTransform="translate(.019 6.086)scale(.9122)" gradientUnits="userSpaceOnUse"/><linearGradient id="e"><stop offset="0" style="stop-color:#151b92;stop-opacity:1"/><stop offset="1" style="stop-color:#1526c3;stop-opacity:1"/></linearGradient><linearGradient xlink:href="#f" id="p" x1="104.454" x2="85.539" y1="50.127" y2="58.698" gradientTransform="translate(.019 6.086)scale(.9122)" gradientUnits="userSpaceOnUse"/><linearGradient id="f"><stop offset="0" style="stop-color:#f18e01;stop-opacity:1"/><stop offset="1" style="stop-color:#ffd02b;stop-opacity:1"/></linearGradient><linearGradient xlink:href="#g" id="q" x1="48.471" x2="59.551" y1="35.151" y2="52.829" gradientTransform="translate(.019 6.086)scale(.9122)" gradientUnits="userSpaceOnUse"/><linearGradient id="g"><stop offset="0" style="stop-color:#d91566;stop-opacity:1"/><stop offset="1" style="stop-color:#fc12aa;stop-opacity:1"/></linearGradient><linearGradient xlink:href="#h" id="r" x1="108.907" x2="87.603" y1="70.388" y2="70.388" gradientTransform="translate(.019 6.086)scale(.9122)" gradientUnits="userSpaceOnUse"/><linearGradient id="h"><stop offset="0" style="stop-color:#f8bc00;stop-opacity:1"/><stop offset="1" style="stop-color:#ffe309;stop-opacity:1"/></linearGradient><linearGradient xlink:href="#i" id="s" x1="49.885" x2="58.13" y1="103.258" y2="86.116" gradientTransform="translate(.019 6.086)scale(.9122)" gradientUnits="userSpaceOnUse"/><linearGradient id="i"><stop offset="0" style="stop-color:#0193be;stop-opacity:1"/><stop offset="1" style="stop-color:#01d4ed;stop-opacity:1"/></linearGradient><linearGradient xlink:href="#j" id="t" x1="90.159" x2="77.582" y1="35.44" y2="53.59" gradientTransform="translate(.019 6.086)scale(.9122)" gradientUnits="userSpaceOnUse"/><linearGradient id="j"><stop offset="0" style="stop-color:#fd4c0b;stop-opacity:1"/><stop offset="1" style="stop-color:#feab27;stop-opacity:1"/></linearGradient><linearGradient xlink:href="#a" id="v" x1="89.694" x2="77.582" y1="102.901" y2="85.401" gradientTransform="translate(-14.662 -135.638)scale(.91873)" gradientUnits="userSpaceOnUse"/><linearGradient xlink:href="#b" id="w" x1="69.426" x2="69.426" y1="109.566" y2="87.778" gradientTransform="translate(-14.662 -135.638)scale(.91873)" gradientUnits="userSpaceOnUse"/><linearGradient xlink:href="#c" id="x" x1="35.142" x2="51.941" y1="47.984" y2="60.841" gradientTransform="translate(-14.662 -135.638)scale(.91873)" gradientUnits="userSpaceOnUse"/><linearGradient xlink:href="#d" id="y" x1="35.907" x2="51.054" y1="92.042" y2="77.181" gradientTransform="translate(-14.662 -135.638)scale(.91873)" gradientUnits="userSpaceOnUse"/><linearGradient xlink:href="#e" id="z" x1="28.166" x2="49.507" y1="69.663" y2="69.663" gradientTransform="translate(-14.662 -135.638)scale(.91873)" gradientUnits="userSpaceOnUse"/><linearGradient xlink:href="#f" id="A" x1="104.454" x2="85.539" y1="50.127" y2="58.698" gradientTransform="translate(-14.662 -135.638)scale(.91873)" gradientUnits="userSpaceOnUse"/><linearGradient xlink:href="#g" id="B" x1="48.471" x2="59.551" y1="35.151" y2="52.829" gradientTransform="translate(-14.662 -135.638)scale(.91873)" gradientUnits="userSpaceOnUse"/><linearGradient xlink:href="#h" id="C" x1="108.907" x2="87.603" y1="70.388" y2="70.388" gradientTransform="translate(-14.662 -135.638)scale(.91873)" gradientUnits="userSpaceOnUse"/><linearGradient xlink:href="#i" id="D" x1="49.885" x2="58.13" y1="103.258" y2="86.116" gradientTransform="translate(-14.662 -135.638)scale(.91873)" gradientUnits="userSpaceOnUse"/><linearGradient xlink:href="#j" id="E" x1="90.159" x2="77.582" y1="35.44" y2="53.59" gradientTransform="translate(-14.662 -135.638)scale(.91873)" gradientUnits="userSpaceOnUse"/><filter id="u" width="1" height="1" x="0" y="0" style="color-interpolation-filters:sRGB"><feFlood flood-color="#FFF" flood-opacity="0" result="result1"/><feBlend in2="SourceGraphic" result="result2"/><feComposite in2="SourceGraphic" k2="1.2" k4=".2" operator="arithmetic" result="result3"/><feComposite in2="SourceGraphic" operator="in"/></filter></defs><g style="stroke-width:.369987"><g style="display:inline;stroke-width:.369987;enable-background:new"><path d="m74.543 81.305 14.073 14.073a36.86 36.86 0 0 0 9.54-16.522L78.93 73.705a16.95 16.95 0 0 1-4.388 7.6z" style="color:#000;fill:#fffb00;fill-opacity:1;stroke:#000;stroke-width:.184994;stroke-miterlimit:4;stroke-dasharray:none;stroke-opacity:.156863" transform="translate(-8.976 -11.383)scale(.35602)"/><path d="m66.943 85.693 5.15 19.224a36.86 36.86 0 0 0 16.523-9.539L74.543 81.305a16.95 16.95 0 0 1-7.6 4.388z" style="color:#000;fill:url(#k);fill-opacity:1;stroke:#000;stroke-width:.184994;stroke-miterlimit:4;stroke-dasharray:none;stroke-opacity:.156863" transform="translate(-8.976 -11.383)scale(.35602)"/><path d="m58.167 85.693-5.151 19.224a36.86 36.86 0 0 0 19.078 0l-5.151-19.224a16.95 16.95 0 0 1-8.776 0z" style="color:#000;fill:url(#l);fill-opacity:1;stroke:#000;stroke-width:.184994;stroke-miterlimit:4;stroke-dasharray:none;stroke-opacity:.156863" transform="translate(-8.976 -11.383)scale(.35602)"/><path d="M50.567 57.329 36.494 43.256a36.86 36.86 0 0 0-9.54 16.522l19.225 5.15a16.95 16.95 0 0 1 4.388-7.6z" style="color:#000;fill:url(#m);fill-opacity:1;stroke:#000;stroke-width:.184994;stroke-miterlimit:4;stroke-dasharray:none;stroke-opacity:.156863" transform="translate(-8.976 -11.383)scale(.35602)"/><path d="m46.179 73.705-19.225 5.15a36.86 36.86 0 0 0 9.54 16.523l14.073-14.073a16.95 16.95 0 0 1-4.388-7.6z" style="color:#000;fill:url(#n);fill-opacity:1;stroke:#000;stroke-width:.184994;stroke-miterlimit:4;stroke-dasharray:none;stroke-opacity:.156863" transform="translate(-8.976 -11.383)scale(.35602)"/><path d="m46.179 64.929-19.225-5.151a36.86 36.86 0 0 0 0 19.078l19.225-5.151a16.95 16.95 0 0 1 0-8.776z" style="color:#000;fill:url(#o);fill-opacity:1;stroke:#000;stroke-width:.184994;stroke-miterlimit:4;stroke-dasharray:none;stroke-opacity:.156863" transform="translate(-8.976 -11.383)scale(.35602)"/><path d="m78.931 64.929 19.224-5.151a36.86 36.86 0 0 0-9.539-16.522L74.543 57.329a16.95 16.95 0 0 1 4.388 7.6z" style="color:#000;fill:url(#p);fill-opacity:1;stroke:#000;stroke-width:.184994;stroke-miterlimit:4;stroke-dasharray:none;stroke-opacity:.156863" transform="translate(-8.976 -11.383)scale(.35602)"/><path d="m58.167 52.94-5.151-19.224a36.86 36.86 0 0 0-16.522 9.54l14.073 14.073a16.95 16.95 0 0 1 7.6-4.388z" style="color:#000;fill:url(#q);fill-opacity:1;stroke:#000;stroke-width:.184994;stroke-miterlimit:4;stroke-dasharray:none;stroke-opacity:.156863" transform="translate(-8.976 -11.383)scale(.35602)"/><path d="m66.943 52.94 5.15-19.224a36.86 36.86 0 0 0-19.077 0l5.15 19.225a16.95 16.95 0 0 1 8.777 0z" style="color:#000;fill:#ff0b0d;fill-opacity:1;stroke:#000;stroke-width:.184994;stroke-miterlimit:4;stroke-dasharray:none;stroke-opacity:.156863" transform="translate(-8.976 -11.383)scale(.35602)"/><path d="m78.931 73.705 19.224 5.15a36.86 36.86 0 0 0 0-19.077l-19.224 5.15a16.95 16.95 0 0 1 0 8.777z" style="color:#000;fill:url(#r);fill-opacity:1;stroke:#000;stroke-width:.184994;stroke-miterlimit:4;stroke-dasharray:none;stroke-opacity:.156863" transform="translate(-8.976 -11.383)scale(.35602)"/><path d="M50.567 81.305 36.494 95.378a36.86 36.86 0 0 0 16.522 9.54l5.15-19.225a16.95 16.95 0 0 1-7.6-4.388z" style="color:#000;fill:url(#s);fill-opacity:1;stroke:#000;stroke-width:.184994;stroke-miterlimit:4;stroke-dasharray:none;stroke-opacity:.156863" transform="translate(-8.976 -11.383)scale(.35602)"/><path d="m74.543 57.329 14.073-14.073a36.86 36.86 0 0 0-16.522-9.54l-5.151 19.225a16.95 16.95 0 0 1 7.6 4.388z" style="color:#000;fill:url(#t);fill-opacity:1;stroke:#000;stroke-width:.184994;stroke-miterlimit:4;stroke-dasharray:none;stroke-opacity:.156863" transform="translate(-8.976 -11.383)scale(.35602)"/><g style="stroke-width:.369987"><path d="M50 0c0 27.614-22.386 50-50 50S-50 27.614-50 0s22.386-50 50-50S50-27.614 50 0z" style="color:#000;fill:none;stroke:currentColor;stroke-width:.324655;stroke-miterlimit:4" transform="matrix(.26373 0 0 -.26373 13.295 13.295)"/><path d="M23 0c0 12.703-10.297 23-23 23S-23 12.703-23 0s10.297-23 23-23S23-12.703 23 0z" style="color:#000;fill:none;stroke:currentColor;stroke-width:.324655;stroke-miterlimit:4" transform="matrix(.26373 0 0 -.26373 13.295 13.295)"/></g></g><g style="stroke-width:.369987;filter:url(#u)" transform="matrix(.35059 0 0 .35049 -3.646 38.518)"><path d="M80.897-63.236a33.67 33.67 0 0 1-8.719 15.139l2.392 2.392a37.1 37.1 0 0 0 9.6-16.65z" style="color:#000;fill:#fffb00;fill-opacity:1;stroke:#000;stroke-width:.189232;stroke-miterlimit:4;stroke-dasharray:none;stroke-opacity:.156863"/><path d="M72.178-48.097a33.67 33.67 0 0 1-15.138 8.718l.88 3.273a37.1 37.1 0 0 0 16.65-9.599z" style="color:#000;fill:url(#v);fill-opacity:1;stroke:#000;stroke-width:.189232;stroke-miterlimit:4;stroke-dasharray:none;stroke-opacity:.156863"/><path d="m39.603-39.379-.881 3.273a37.1 37.1 0 0 0 19.199 0l-.881-3.273a33.8 33.8 0 0 1-8.719 1.165 33.8 33.8 0 0 1-8.718-1.165z" style="color:#000;fill:url(#w);fill-opacity:1;stroke:#000;stroke-width:.189232;stroke-miterlimit:4;stroke-dasharray:none;stroke-opacity:.156863"/><path d="M22.072-98.203a37.1 37.1 0 0 0-9.6 16.65l3.274.88a33.67 33.67 0 0 1 8.718-15.138z" style="color:#000;fill:url(#x);fill-opacity:1;stroke:#000;stroke-width:.189232;stroke-miterlimit:4;stroke-dasharray:none;stroke-opacity:.156863"/><path d="m15.746-63.236-3.273.881a37.1 37.1 0 0 0 9.6 16.65l2.391-2.392a33.67 33.67 0 0 1-8.718-15.139z" style="color:#000;fill:url(#y);fill-opacity:1;stroke:#000;stroke-width:.189232;stroke-miterlimit:4;stroke-dasharray:none;stroke-opacity:.156863"/><path d="M12.473-81.554a37.1 37.1 0 0 0 0 19.2l3.273-.882a33.8 33.8 0 0 1-1.164-8.718c0-3.016.422-5.936 1.164-8.718z" style="color:#000;fill:url(#z);fill-opacity:1;stroke:#000;stroke-width:.189232;stroke-miterlimit:4;stroke-dasharray:none;stroke-opacity:.156863"/><path d="m74.57-98.203-2.392 2.392a33.67 33.67 0 0 1 8.719 15.139l3.273-.882a37.1 37.1 0 0 0-9.6-16.65Z" style="color:#000;fill:url(#A);fill-opacity:1;stroke:#000;stroke-width:.189232;stroke-miterlimit:4;stroke-dasharray:none;stroke-opacity:.156863"/><path d="M38.722-107.803a37.1 37.1 0 0 0-16.65 9.6l2.392 2.392a33.67 33.67 0 0 1 15.14-8.718z" style="color:#000;fill:url(#B);fill-opacity:1;stroke:#000;stroke-width:.189232;stroke-miterlimit:4;stroke-dasharray:none;stroke-opacity:.156863"/><path d="M46.905-109.062a37 37 0 0 0-8.183 1.26l.881 3.273a33.8 33.8 0 0 1 8.718-1.165c3.016 0 5.937.422 8.719 1.165l.88-3.274a37.1 37.1 0 0 0-11.015-1.259z" style="color:#000;fill:#ff0b0d;fill-opacity:1;stroke:#000;stroke-width:.189232;stroke-miterlimit:4;stroke-dasharray:none;stroke-opacity:.156863"/><path d="m84.17-81.554-3.273.882a33.8 33.8 0 0 1 1.164 8.718c0 3.016-.422 5.936-1.164 8.718l3.273.881a37.1 37.1 0 0 0 0-19.199z" style="color:#000;fill:url(#C);fill-opacity:1;stroke:#000;stroke-width:.189232;stroke-miterlimit:4;stroke-dasharray:none;stroke-opacity:.156863"/><path d="m24.464-48.097-2.392 2.392a37.1 37.1 0 0 0 16.65 9.6l.881-3.274a33.67 33.67 0 0 1-15.139-8.718z" style="color:#000;fill:url(#D);fill-opacity:1;stroke:#000;stroke-width:.189232;stroke-miterlimit:4;stroke-dasharray:none;stroke-opacity:.156863"/><path d="m57.92-107.803-.88 3.274a33.67 33.67 0 0 1 15.138 8.718l2.392-2.392a37.1 37.1 0 0 0-16.65-9.6z" style="color:#000;fill:url(#E);fill-opacity:1;stroke:#000;stroke-width:.189232;stroke-miterlimit:4;stroke-dasharray:none;stroke-opacity:.156863"/><path d="M85.624-71.954c0-20.602-16.7-37.303-37.303-37.303-20.601 0-37.303 16.701-37.303 37.303S27.72-34.651 48.321-34.651c20.602 0 37.303-16.701 37.303-37.303" style="color:#000;fill:none;stroke:none;stroke-width:.369987"/></g></g></svg>