<svg xmlns="http://www.w3.org/2000/svg" width="1047.158" height="1122.92" fill="none"><g filter="url(#a)" style="stroke-width:.599561" transform="matrix(1.65585 0 0 1.68001 -323.387 -339.866)"><path fill="#617070" d="M511.603 215c-76.321 0-278.396 42.638-278.396 222.09 0 164.343 187.597 370.91 278.396 370.91S790 601.226 790 437.09C790.207 257.431 587.925 215 511.603 215" style="stroke-width:.599561"/><path fill="#2194cd" d="M511.603 215c-30.404 0-80.664 6.83-130.304 26.287-22.752 8.9-45.09 20.491-65.566 35.186 4.137 22.147 10.342 43.259 18.615 63.543a357.6 357.6 0 0 1 56.672-19.042c26.475-6.416 54.19-9.935 82.733-9.935 94.109 0 179.531 37.05 242.614 97.281l4.964 4.968 2.482 2.483 2.896 2.898c.827.828 1.655 1.863 2.482 2.691.827 1.035 1.862 1.863 2.689 2.898.827.828 1.655 1.862 2.482 2.69.827 1.035 1.861 2.07 2.689 3.105.827.828 1.654 1.656 2.275 2.691 1.448 1.863 3.102 3.518 4.55 5.381.827 1.035 1.448 1.863 2.275 2.898l2.482 3.105 2.482 3.104c.828 1.035 1.448 2.07 2.275 3.105.828 1.035 1.655 2.07 2.276 3.105.827 1.035 1.447 2.07 2.275 3.105.827 1.034 1.448 2.069 2.275 3.104l3.102 4.347c1.035 1.449 2.069 3.105 3.103 4.553.62 1.035 1.241 2.07 2.068 3.105.828 1.242 1.448 2.277 2.275 3.519.621 1.035 1.241 1.863 1.862 2.898.827 1.241 1.448 2.276 2.275 3.518.62 1.035 1.241 1.863 1.655 2.898.827 1.242 1.448 2.484 2.275 3.726.414.828 1.034 1.655 1.448 2.483.827 1.449 1.654 3.105 2.482 4.554 1.654-6.83 2.895-13.868 4.136-20.698Q790 455.304 790 436.676C790.207 257.431 587.925 215 511.603 215" style="stroke-width:.460259"/><path fill="#774b29" d="M385.436 385.552c8.273-5.174 16.96-9.728 25.647-14.075-8.274-15.937-15.099-32.909-20.063-50.503-19.649 4.761-38.471 11.177-56.672 19.042 4.55 10.97 9.721 21.733 15.306 32.289 12.409 3.519 24.406 7.866 35.782 13.247" style="stroke-width:.460259"/><path fill="#765533" d="M534.975 343.328c68.876 0 132.166 24.424 181.599 65.199-63.084-60.231-148.505-97.281-242.614-97.281-28.543 0-56.259 3.519-82.733 9.935 4.964 17.594 11.789 34.566 20.063 50.503 37.436-18.214 79.423-28.356 123.685-28.356" style="stroke-width:.599561"/><path fill="#b1665c" d="M411.29 371.477c-8.894 4.347-17.374 8.901-25.648 14.075 27.302 12.626 52.122 29.805 73.219 50.71-19.029-18.835-35.161-40.775-47.571-64.785" style="stroke-width:.460259"/><path fill="#b96753" d="M780.486 490.905c-.414-.828-.828-1.655-1.448-2.483-.621-1.242-1.448-2.484-2.275-3.726-.621-1.035-1.035-1.863-1.655-2.898-.621-1.242-1.448-2.484-2.275-3.518-.621-1.035-1.241-1.863-1.862-2.898-.827-1.242-1.448-2.277-2.275-3.519-.62-1.035-1.241-2.07-2.068-3.105-1.034-1.448-2.069-3.104-3.103-4.553l-3.102-4.347c-.828-1.035-1.448-2.07-2.275-3.104-.828-1.035-1.448-2.07-2.276-3.105s-1.654-2.07-2.275-3.105c-.827-1.035-1.448-2.07-2.275-3.105l-2.482-3.104-2.482-3.105c-.827-1.035-1.448-1.863-2.275-2.898-1.448-1.863-3.102-3.518-4.55-5.381-.828-.828-1.448-1.863-2.275-2.691-.828-1.035-1.862-2.07-2.689-3.105-.828-.828-1.655-1.863-2.482-2.69-.828-1.035-1.862-1.863-2.689-2.898-.827-.828-1.655-1.863-2.482-2.691-1.034-1.035-1.862-2.07-2.896-2.898l-2.482-2.483-4.964-4.968c-49.433-40.775-112.723-65.199-181.599-65.199-44.262 0-86.249 10.142-123.685 28.149 12.616 24.01 28.542 45.95 47.571 64.785l1.448 1.449c22.751 22.768 41.16 49.883 54.19 79.688 13.651 31.461 21.097 66.027 21.097 102.248 0 48.848-13.444 94.384-37.023 133.296q-8.997 24.527-22.338 46.571c12.824 5.381 25.027 8.279 35.782 8.279 79.01 0 230.618-155.65 269.296-304.262.62-2.69 1.448-5.381 2.068-8.279-1.241-1.242-2.068-2.691-2.895-4.347" style="stroke-width:.460259"/><path fill="#98721e" d="M349.86 372.098c4.964 9.108 10.342 18.008 16.133 26.494 6.412-4.554 12.824-9.107 19.443-13.247-11.376-5.174-23.373-9.521-35.576-13.247" style="stroke-width:.460259"/><path fill="#cb873d" d="M514.499 662.286c0 31.875-5.584 62.508-16.133 90.864 23.579-38.912 37.023-84.448 37.023-133.296 0-36.428-7.446-70.994-21.097-102.248-33.3-13.247-64.118-31.875-90.799-54.643 55.638 48.434 91.006 119.842 91.006 199.323" style="stroke-width:.460259"/><path fill="#c58846" d="M458.654 436.469c-21.097-20.905-45.917-38.084-73.218-50.71-6.619 4.14-13.238 8.486-19.443 13.247 15.72 23.182 34.334 44.087 55.431 62.508.621.621 1.241 1.035 2.069 1.656 26.888 22.975 57.499 41.603 90.799 54.643a257.8 257.8 0 0 0-54.19-79.688c-.414-.828-.827-1.242-1.448-1.656" style="stroke-width:.460259"/><path fill="#65c32f" d="M423.493 462.963c-.621-.621-1.241-1.035-2.069-1.656-22.544-19.249-48.398-34.773-76.528-45.536-29.37-11.177-61.222-17.386-94.522-17.386-2.689 0-5.378 0-8.067.207-2.068 0-3.929.207-5.998.207-.413 2.07-.62 3.933-1.034 6.002A228 228 0 0 0 233 437.09c0 37.671 9.928 77.411 26.061 116.531 44.676 106.595 136.716 207.394 207.453 241.96 3.102 1.656 6.412 2.898 9.514 4.14 8.894-14.696 16.547-30.219 22.338-46.571 10.342-28.356 16.133-58.989 16.133-90.864 0-79.481-35.368-150.889-91.006-199.323" style="stroke-width:.460259"/><path fill="#b1665c" d="M780.486 490.905c-.414-.828-.828-1.655-1.448-2.483-.621-1.242-1.448-2.484-2.275-3.726-.621-1.035-1.035-1.863-1.655-2.898-38.057 20.905-81.699 32.91-128.029 32.91-72.805 0-138.785-29.391-186.77-76.79 22.751 22.768 41.16 49.883 54.19 79.688 36.609 14.489 76.321 22.354 118.101 22.354 53.57 0 104.037-13.04 148.506-36.222.621-2.691 1.448-5.381 2.068-8.279-1.034-1.449-1.861-2.898-2.688-4.554" style="stroke-width:.460259"/><path fill="#b06e64" d="M771.178 475.382c-.827-1.242-1.448-2.277-2.275-3.519-.621-1.035-1.241-2.07-2.068-3.105-1.035-1.448-2.069-3.104-3.103-4.553l-3.102-4.347c-.828-1.035-1.448-2.07-2.276-3.104s-1.447-2.07-2.275-3.105-1.654-2.07-2.275-3.105c-.827-1.035-1.448-2.07-2.275-3.105l-2.482-3.104-2.482-3.105c-.827-1.035-1.448-1.863-2.275-2.898-1.448-1.863-3.103-3.518-4.551-5.381-.827-.828-1.447-1.863-2.275-2.691-.827-1.035-1.861-2.07-2.688-3.105-.828-.828-1.655-1.863-2.482-2.69-.828-1.035-1.862-1.863-2.689-2.898-.828-.828-1.655-1.863-2.482-2.691-1.034-1.035-1.862-2.07-2.896-2.898l-2.482-2.483-4.964-4.968c-49.433-40.775-112.724-65.199-181.599-65.199-44.262 0-86.249 10.142-123.686 28.149 12.617 24.01 28.543 45.95 47.572 64.785l1.448 1.449c47.985 47.399 113.964 76.79 186.769 76.79 46.538 0 90.179-12.005 128.03-32.91-.621-1.242-1.448-2.483-2.276-3.518-.62-.828-1.24-1.863-1.861-2.691" style="stroke-width:.460259"/><path fill="#2169a5" d="M391.227 320.974c-6.412-22.975-9.928-47.191-9.928-72.236 0-2.484 0-4.968.207-7.451-22.752 8.9-45.09 20.491-65.566 35.186 4.136 22.147 10.341 43.259 18.615 63.543 17.994-7.865 37.023-14.281 56.672-19.042m383.881 160.824c.62 1.035 1.241 1.863 1.655 2.898.827 1.242 1.447 2.484 2.275 3.726.413.828 1.034 1.655 1.448 2.483.827 1.449 1.654 3.105 2.482 4.554 1.654-6.83 2.895-13.868 4.136-20.698-3.93 2.484-7.859 4.76-11.996 7.037" style="stroke-width:.460259"/><path fill="#5cb23f" d="M466.514 795.581c3.102 1.656 6.412 2.898 9.514 4.14 8.894-14.696 16.547-30.219 22.338-46.571-9.101 15.317-19.856 29.391-31.852 42.431" style="stroke-width:.460259"/><path fill="#44c741" d="M236.516 398.592c-.414 2.07-.62 3.933-1.034 6.002 2.275-2.069 4.55-4.139 7.032-6.209-2.068 0-4.136.207-5.998.207" style="stroke-width:.460259"/><path fill="#52b810" d="M259.268 553.621c14.892-54.022 45.089-101.628 85.628-137.85-29.37-11.177-61.222-17.386-94.522-17.386-2.689 0-5.378 0-8.067.207-2.275 2.07-4.55 4.14-7.032 6.209A228 228 0 0 0 233 437.09c.207 37.464 9.928 77.411 26.268 116.531" style="stroke-width:.460259"/><path fill="#864b1c" d="M334.348 340.016c-14.892 6.417-29.163 13.868-43.021 22.354 20.063 1.035 39.712 4.554 58.327 9.935-5.585-10.556-10.756-21.319-15.306-32.289" style="stroke-width:.460259"/><path fill="#898f54" d="M242.307 398.385c15.306-13.454 31.646-25.459 49.02-36.222-4.551-.207-9.308-.414-13.858-.414a264 264 0 0 0-31.439 1.863c-4.136 10.763-7.446 22.561-9.721 34.773 2.069.207 4.137 0 5.998 0" style="stroke-width:.460259"/><path fill="#a47215" d="M344.896 415.771c6.826-6.002 13.651-11.591 21.097-16.972-5.791-8.486-11.169-17.386-16.133-26.494-18.615-5.381-38.264-8.9-58.326-9.935-17.374 10.556-33.714 22.768-49.02 36.222 2.689 0 5.378-.207 8.067-.207 33.3 0 65.152 6.002 94.315 17.386" style="stroke-width:.460259"/><path fill="#cb873d" d="M365.993 398.799c-7.239 5.381-14.271 10.97-21.097 16.972 28.13 10.763 53.984 26.287 76.528 45.536-21.097-18.421-39.711-39.326-55.431-62.508" style="stroke-width:.460259"/><path fill="#fff" d="m461.55 439.16-3.723-3.725-.207-.207a262.2 262.2 0 0 1-46.33-63.751c37.436-18.007 79.423-28.149 123.685-28.149 69.082 0 132.166 24.424 181.599 65.199-63.084-60.438-148.505-97.488-242.614-97.488-28.543 0-56.259 3.312-82.94 9.935-19.649 4.761-38.471 11.177-56.672 19.042 4.55 10.97 9.721 21.733 15.306 32.289 4.963 9.108 10.341 18.008 16.132 26.494 15.513 22.975 34.128 43.673 54.811 61.887l.827.828c1.035.828 1.862 1.656 2.896 2.484l.207.207c55.017 48.433 89.765 119.428 89.765 198.494 0 31.875-5.584 62.509-15.926 90.865 23.579-38.912 37.023-84.448 37.023-133.296 0-36.428-7.446-70.994-21.097-102.248-12.617-29.805-30.611-56.299-52.742-78.86" style="stroke-width:.460259"/></g><defs><filter id="a" width="632.4" height="668.4" x="195.3" y="202.3" color-interpolation-filters="sRGB" filterUnits="userSpaceOnUse"><feFlood flood-opacity="0" result="BackgroundImageFix"/><feColorMatrix in="SourceAlpha" result="hardAlpha" values="0 0 0 0 0 0 0 0 0 0 0 0 0 0 0 0 0 0 127 0"/><feOffset dy="25"/><feGaussianBlur stdDeviation="18.85"/><feComposite in2="hardAlpha" operator="out"/><feColorMatrix values="0 0 0 0 0 0 0 0 0 0 0 0 0 0 0 0 0 0 0.09 0"/><feBlend in2="BackgroundImageFix" result="effect1_dropShadow_290_49"/><feBlend in="SourceGraphic" in2="effect1_dropShadow_290_49" result="shape"/></filter></defs></svg>