<svg xmlns="http://www.w3.org/2000/svg" width="256" height="256" style="shape-rendering:geometricPrecision;text-rendering:geometricPrecision;image-rendering:optimizeQuality;fill-rule:evenodd;clip-rule:evenodd"><path fill="#cd721e" d="M120.5-.5h14q15.59 1.52 31 6 17.82 8.84 31.5 24 9.808 11.175 8.5 26a231 231 0 0 1-7 36q-6.653 3.9-11 10.5a8.4 8.4 0 0 1-4 .5 37.8 37.8 0 0 1-5-9q30.486-22.443 14.5-57Q177.408 15.053 151.5 8 125.016.761 98 5.5q-1.148-.105-1.5-1 1.815-.648 3-2a265 265 0 0 0 21-3" style="opacity:1"/><path fill="#f1d5bc" d="M109.5-.5h11a265 265 0 0 1-21 3 83 83 0 0 1 10-3" style="opacity:1"/><path fill="#eed7c2" d="M134.5-.5h13a137.2 137.2 0 0 1 33 11 198 198 0 0 1-15-5q-15.41-4.48-31-6" style="opacity:1"/><path fill="#d6c4b3" d="M99.5 2.5q-1.185 1.352-3 2-1.762-.329-3 1 1.039 1.527 2 3a33.7 33.7 0 0 1-9 2h-2v-1a17.8 17.8 0 0 0 7-1.5q.175-1.902 1-4a17.8 17.8 0 0 1 7-1.5" style="opacity:1"/><path fill="#020101" d="M95.5 8.5a103.5 103.5 0 0 1 14 10q35.16 27.158 61 63a57.4 57.4 0 0 0 8 12 37.8 37.8 0 0 0 5 9l6.5 13a205 205 0 0 0 8.5-24 231 231 0 0 0 7-36q2.285-10.666 2-22h1a25.7 25.7 0 0 0 6 6l-1 16q-7.176 45.547-26 88l-6 12q-2.262 2.522-3 6-2.625 1.739-3 5a49 49 0 0 0-7 9.5q9.385-.327 18-3.5 5.918-.573 11-3a260.7 260.7 0 0 0 51-19 41.7 41.7 0 0 0-1 9 83 83 0 0 0-11 5q-46.732 18.807-97 23-16.53-.498-33 1 .186.91 1 1a206 206 0 0 0 16 18q20.568 21.009 45 37a88 88 0 0 0-9 2 5.73 5.73 0 0 1-3-1 26.2 26.2 0 0 0-7-5q-37.116-29.115-65-67-1.888-5.288-6-9-.915-2.901-3-5a36 36 0 0 0-4-7 123 123 0 0 0-7-13 192.3 192.3 0 0 0-10 32q-7.115 24.306-7 50h-1a25.7 25.7 0 0 0-6-6v-4q5.402-55.118 29-105 1.76-1.52 2-4 4.234-5.454 7-12a152 152 0 0 0 8-11.5q-11.928.612-23 4.5-29.635 6.465-56.5 21a12.9 12.9 0 0 1-.5-5v-1q1.356-1.064 1-3l8-4q4.866-1.444 9-4 39.635-15.131 82-20h5a343 343 0 0 0 37-1 549 549 0 0 0-7-8 163 163 0 0 0-12-13 271 271 0 0 0-30-25l-13-10a33.7 33.7 0 0 0 9-2" style="opacity:1"/><path fill="#b8d399" d="M84.5 9.5v1a31.6 31.6 0 0 0-8-.5 39.5 39.5 0 0 1-12 5.5q6.239-4.875 14-7.5 3.57-1.107 6 1.5" style="opacity:1"/><path fill="#e6801e" d="M178.5 93.5a57.4 57.4 0 0 1-8-12q2.807-.538 4.5-3 18.699-30.472-10.5-51.5-26.38-15.717-57-12 1.984 1.224 2 3.5a103.5 103.5 0 0 0-14-10q-.961-1.473-2-3 1.238-1.329 3-1 .352.895 1.5 1Q125.016.761 151.5 8q25.908 7.053 41.5 28.5 15.986 34.557-14.5 57" style="opacity:1"/><path fill="#b9691e" d="M165.5 5.5a198 198 0 0 0 15 5q1.487-.258 2 1 2.522 2.262 6 3 1.487-.258 2 1 1.739 2.625 5 3 3.712 4.111 9 6 3.864 3.58 3 9 .285 11.334-2 22 1.308-14.825-8.5-26-13.68-15.16-31.5-24" style="opacity:1"/><path fill="#f5e8df" d="M182.5 11.5q3.884-.058 6 3-3.478-.738-6-3" style="opacity:1"/><path fill="#ecdcce" d="M190.5 15.5q3.261.375 5 3-3.261-.375-5-3" style="opacity:1"/><path fill="#dbeac8" d="M62.5 16.5q-.71 2.11-3 2 .71-2.11 3-2" style="opacity:1"/><path fill="#60b411" d="M84.5 10.5h2l13 10q-28.17-5.709-52 10.5a230 230 0 0 0-14 10.5l11-12q3.373-.87 5-4 2.856-.357 4-3 2.29.11 3-2 2.29.11 3-2 2.29.11 3-2 .513-1.258 2-1a39.5 39.5 0 0 0 12-5.5 31.6 31.6 0 0 1 8 .5" style="opacity:1"/><path fill="#d1e7bd" d="M59.5 18.5q-.71 2.11-3 2 .71-2.11 3-2" style="opacity:1"/><path fill="#ebdac9" d="M195.5 18.5q5.324 1.834 9 6-5.288-1.889-9-6" style="opacity:1"/><path fill="#64c111" d="M99.5 20.5a271 271 0 0 1 30 25q3.366 4.953 4.5 11a42.4 42.4 0 0 0 1.5 8.5q-.834.575-1 1.5h-10q-.309-22.37-18-36.5-24.899-12.836-50 0-30.568 17.312-46 48.5v-4q.24-2.48 2-4t2-4q3.645-2.32 4-7-.258-1.487 1-2 2.11-.71 2-3 2.643-1.144 3-4 3.13-1.627 4-5l5-4a230 230 0 0 1 14-10.5q23.83-16.209 52-10.5" style="opacity:1"/><path fill="#f68824" d="M170.5 81.5q-25.84-35.842-61-63-.016-2.276-2-3.5 30.62-3.717 57 12 29.199 21.028 10.5 51.5-1.693 2.462-4.5 3" style="opacity:1"/><path fill="#d5e8bf" d="M56.5 20.5q-.71 2.11-3 2 .71-2.11 3-2" style="opacity:1"/><path fill="#d7e8c3" d="M53.5 22.5q-1.144 2.643-4 3 1.144-2.643 4-3" style="opacity:1"/><path fill="#cbe5b2" d="M49.5 25.5q-1.627 3.13-5 4 1.627-3.13 5-4" style="opacity:1"/><path fill="#ecdfd3" d="M204.5 24.5q2.276.015 3.5 2 .745 3.465.5 7h-1q.864-5.42-3-9" style="opacity:1"/><path fill="#6cd60d" d="M124.5 66.5h-7q-7.07-38.29-46-33.5Q50.372 38.936 35 54.5q-14.562 15.837-22.5 36 1.237 1.329 3 1l-8 4q-1.986 2.025-3-.5a15.9 15.9 0 0 0 1-6.5q.143-3.429 2-6a9.8 9.8 0 0 0 3-4q15.432-31.188 46-48.5 25.101-12.836 50 0 17.691 14.13 18 36.5" style="opacity:1"/><path fill="#d2eabc" d="m44.5 29.5-11 12-5 4a60.9 60.9 0 0 1 16-16" style="opacity:1"/><path fill="#ebcecf" d="M208.5 33.5q3.324 1.054 5.5 4 1.809-5.528 4.5 0-1.494.129-2.5-1-.348 1.856-1.5 3a25.7 25.7 0 0 1-6-6" style="opacity:1"/><path fill="#f3b6b7" d="M218.5 37.5q6.099 4.595 10 11-6.099-4.595-10-11" style="opacity:1"/><path fill="#72e40b" d="M117.5 66.5q-3.352-.442-6 1h-5q1.397-4.654-1.5-9Q91.86 38.615 68.5 44q-32.145 11.641-46 43a2.43 2.43 0 0 0 2 .5q-4.134 2.556-9 4-1.763.329-3-1 7.938-20.163 22.5-36Q50.372 38.936 71.5 33q38.93-4.79 46 33.5" style="opacity:1"/><path fill="#75ed0b" d="M106.5 67.5q-42.365 4.869-82 20a2.43 2.43 0 0 1-2-.5q13.855-31.359 46-43 23.36-5.385 36.5 14.5 2.897 4.346 1.5 9" style="opacity:1"/><path fill="#df0c15" d="M218.5 37.5q3.901 6.405 10 11 .87 3.373 4 5-.11 2.29 2 3a5.73 5.73 0 0 0 1 3 380 380 0 0 1 8.5 24q9.916 29.638-3 58-14.85 24.547-43.5 20.5a83 83 0 0 1-15-4q-1.129-1.006-1-2.5l6-12q-.597 6.388 6 5.5 31.033 3.864 41.5-25.5 7.404-38.889-16-71a8.9 8.9 0 0 1-3-4 47 47 0 0 0-2.5 7l1-16q1.152-1.144 1.5-3 1.006 1.129 2.5 1" style="opacity:1"/><path fill="#def0cc" d="M28.5 45.5q-.87 3.373-4 5 .87-3.373 4-5" style="opacity:1"/><path fill="#dff0ce" d="M24.5 50.5q-.357 2.856-3 4 .357-2.856 3-4" style="opacity:1"/><path fill="#f7cccc" d="M228.5 48.5q3.13 1.627 4 5-3.13-1.627-4-5" style="opacity:1"/><path fill="#f5cdd0" d="M232.5 53.5q2.11.71 2 3-2.11-.71-2-3" style="opacity:1"/><path fill="#e8f4de" d="M21.5 54.5q.11 2.29-2 3-.11-2.29 2-3" style="opacity:1"/><path fill="#f4cbcb" d="M234.5 56.5q2.11.71 2 3h-1a5.73 5.73 0 0 1-1-3" style="opacity:1"/><path fill="#4c8e08" d="M129.5 45.5a163 163 0 0 1 12 13l1 8h-8q.166-.925 1-1.5a42.4 42.4 0 0 1-1.5-8.5q-1.134-6.047-4.5-11" style="opacity:1"/><path fill="#f8d6d6" d="M236.5 59.5q2.11.71 2 3-2.11-.71-2-3" style="opacity:1"/><path fill="#b5df8a" d="M18.5 59.5q-.355 4.68-4 7 .868-4.246 4-7" style="opacity:1"/><path fill="#f30b18" d="M187.5 143.5q18.824-42.453 26-88a47 47 0 0 1 2.5-7 8.9 8.9 0 0 0 3 4q23.404 32.111 16 71-10.468 29.364-41.5 25.5-6.597.888-6-5.5" style="opacity:1"/><path fill="#2d5104" d="M141.5 58.5a549 549 0 0 1 7 8 343 343 0 0 1-37 1q2.648-1.442 6-1h25z" style="opacity:1"/><path fill="#e4f5d6" d="M14.5 66.5q-.24 2.48-2 4-.405-2.82 2-4" style="opacity:1"/><path fill="#f6d7d7" d="M239.5 64.5q4.56 5.121 6 12-3.762-5.523-6-12" style="opacity:1"/><path fill="#ec9e9c" d="M245.5 76.5q2.147 1.92 2 5-2.57-1.703-2-5" style="opacity:1"/><path fill="#bbe690" d="M10.5 74.5v4a9.8 9.8 0 0 1-3 4q.35-4.562 3-8" style="opacity:1"/><path fill="#c31115" d="M235.5 59.5h1q-.11 2.29 2 3 1.257.513 1 2 2.238 6.477 6 12-.57 3.297 2 5 .541 6.623 4 12-.31 4.493 2 8v1q-.208 7.371 2 14v22a37.2 37.2 0 0 1-3 10q-.513 1.257-2 1t-2 1a260.7 260.7 0 0 1-51 19 80.2 80.2 0 0 1-18-5.5q-1.129-1.006-1-2.5.738-3.478 3-6-.129 1.494 1 2.5a83 83 0 0 0 15 4q28.65 4.047 43.5-20.5 12.916-28.362 3-58a380 380 0 0 0-8.5-24" style="opacity:1"/><path fill="#eeaeae" d="M247.5 81.5q3.36 5.397 4 12-3.459-5.377-4-12" style="opacity:1"/><path fill="#076459" d="M78.5 90.5q-6.308-5.395-15-7 11.072-3.888 23-4.5a152 152 0 0 1-8 11.5" style="opacity:1"/><path fill="#109085" d="M63.5 83.5q8.692 1.605 15 7-2.766 6.546-7 12 .128-1.494-1-2.5a4.45 4.45 0 0 0 2-1.5q-19.597-9.048-40-1.5Q13.301 107.722 9 129.5 4 162.002 19.5 191l-3 1.5q-1.258-.513-1-2-2.238-6.477-6-12-2.147-1.92-2-5-1.6-8.43-5-16a157 157 0 0 0-3-20v-25q1.05-3.132 3-6 1.008-1.15 2.5-2 .297-2.823 1.5-5a12.9 12.9 0 0 0 .5 5q26.865-14.535 56.5-21" style="opacity:1"/><path fill="#dbefc7" d="M5.5 88.5a15.9 15.9 0 0 1-1 6.5q1.014 2.525 3 .5.356 1.936-1 3-2.129-.208-4-1.5a138 138 0 0 1 3-8.5" style="opacity:1"/><path fill="#0ea095" d="M71.5 102.5q-.24 2.48-2 4 .21-2.435-2-3.5Q31.807 92.876 17 126.5q-9.59 46.146 20 83 1.224 1.984 3.5 2v4q-1.152 1.144-1.5 3-1.005-1.129-2.5-1a25.7 25.7 0 0 1-6-6q-1.46-3.952-5-6a46.2 46.2 0 0 1-9-13l3-1.5Q4 162.002 9 129.5q4.301-21.778 23.5-32.5 20.403-7.548 40 1.5a4.45 4.45 0 0 1-2 1.5q1.128 1.006 1 2.5" style="opacity:1"/><path fill="#f2cece" d="M251.5 93.5q1.902 3.608 2 8-2.31-3.507-2-8" style="opacity:1"/><path fill="#8d4e13" d="M198.5 91.5a205 205 0 0 1-8.5 24l-6.5-13a8.4 8.4 0 0 0 4-.5q4.347-6.6 11-10.5" style="opacity:1"/><path fill="#ddeae8" d="M2.5 106.5a24.6 24.6 0 0 0-3 6v-5a5.73 5.73 0 0 1 3-1" style="opacity:1"/><path fill="#00b1a5" d="M69.5 106.5q-23.598 49.882-29 105-2.276-.016-3.5-2-29.59-36.854-20-83Q31.807 92.876 67.5 103q2.21 1.065 2 3.5" style="opacity:1"/><path fill="#ebb6b5" d="m253.5 102.5 2 6v8q-2.208-6.629-2-14" style="opacity:1"/><path fill="#edcdcd" d="M255.5 138.5v9a5.73 5.73 0 0 1-3 1 37.2 37.2 0 0 0 3-10" style="opacity:1"/><path fill="#cbe5e3" d="M-.5 137.5a157 157 0 0 1 3 20 198 198 0 0 1-3-11z" style="opacity:1"/><path fill="#186395" d="M71.5 152.5a15 15 0 0 0-6.5 3q-.925 1.423.5 2.5-7.042 5.763-11 13.5a192.3 192.3 0 0 1 10-32 123 123 0 0 1 7 13" style="opacity:1"/><path fill="#dac7d2" d="M250.5 149.5q-.995 3.456-2 7 2.233.05 4 1.5a36 36 0 0 1-2 4.5q.568-4.6-3-3a41.7 41.7 0 0 1 1-9q.513-1.257 2-1" style="opacity:1"/><path fill="#1f7cbd" d="M71.5 152.5a36 36 0 0 1 4 7q-15.705 9.336-21.5 27-5.56 28.134 16.5 46.5 28.953 21.068 65 21.5v1h-18q-7.647-2.186-16-2-3.507-2.31-8-2-3.429-.143-6-2-3.54-4.517-9-7l-1 2a9.1 9.1 0 0 0-5-1q-2.522-2.262-6-3-2.48-.24-4-2-2.736-6.509-8.5-11-2.874 3.8-6 0a18.4 18.4 0 0 1-.5-6q-.115-25.694 7-50 3.958-7.737 11-13.5-1.425-1.077-.5-2.5a15 15 0 0 1 6.5-3" style="opacity:1"/><path fill="#d2eae8" d="M2.5 157.5q3.4 7.57 5 16-3.864-7.422-5-16" style="opacity:1"/><path fill="#1c89d4" d="M75.5 159.5q2.085 2.099 3 5-29.566 23.292-10.5 56 27.757 29.349 68.5 28a187 187 0 0 0 16.5-1q2.522-.162 3.5-2 1.337.915 3 1 .71 2.11 3 2 2 1 0 2-3.978-.136-7 2a238 238 0 0 1-20 2q-36.047-.432-65-21.5-22.06-18.366-16.5-46.5 5.795-17.664 21.5-27" style="opacity:1"/><path fill="#bb026e" d="M250.5 162.5q-2.136 3.022-2 7-.143 3.429-2 6-1.451 1.96-4 2v3q-18.187 33.931-54 48.5-48.67 10.909-59-38 .365-1.353 1-2.5h9q12.322 41.913 54 27.5 33.367-16.61 46-51.5h-3a83 83 0 0 1 11-5q3.568-1.6 3 3" style="opacity:1"/><path fill="#a70b10" d="M178.5 161.5q-.129 1.494 1 2.5a80.2 80.2 0 0 0 18 5.5q-5.082 2.427-11 3a77 77 0 0 1-10-1 20.7 20.7 0 0 0-1-5q.375-3.261 3-5" style="opacity:1"/><path fill="#f2d3e5" d="M250.5 162.5q.136 3.978-2 7-.136-3.978 2-7" style="opacity:1"/><path fill="#1893e3" d="M78.5 164.5q4.112 3.712 6 9-3.695-4.073-6.5 1-22.08 35.934 14.5 57.5 27.42 14.745 57 8.5a26.2 26.2 0 0 1 7 5q-.978 1.838-3.5 2a187 187 0 0 1-16.5 1q-40.743 1.349-68.5-28-19.066-32.708 10.5-56" style="opacity:1"/><path fill="#770a0b" d="M175.5 166.5a20.7 20.7 0 0 1 1 5q4.96.826 10 1-8.615 3.173-18 3.5a49 49 0 0 1 7-9.5" style="opacity:1"/><path fill="#c90079" d="M236.5 164.5h3q-12.633 34.89-46 51.5-41.678 14.413-54-27.5v-1q50.268-4.193 97-23" style="opacity:1"/><path fill="#199af2" d="M84.5 173.5q27.884 37.885 65 67-29.58 6.245-57-8.5-36.58-21.566-14.5-57.5 2.805-5.073 6.5-1" style="opacity:1"/><path fill="#d47ca4" d="M246.5 175.5q-.813 5.118-4 9v-7q2.549-.04 4-2" style="opacity:1"/><path fill="#d4ebe8" d="M9.5 178.5q3.762 5.523 6 12-4.56-5.121-6-12" style="opacity:1"/><path fill="#a60f62" d="M242.5 180.5v4q-1.76 1.52-2 4t-2 4q-2.11.71-2 3 .257 1.487-1 2-2.11.71-2 3-2.643 1.144-3 4-2.643 1.144-3 4 0 1-1 1-4.115 2.609-6 7 0 1-1 1-4.746 2.147-9 8 0 1-1 1-2.856.357-4 3 0 1-1 1-2.29-.11-3 2-2.29-.11-3 2-2.29-.11-3 2-2.29-.11-3 2-.513 1.257-2 1a68.7 68.7 0 0 0-14 7q-3.27 1.941-6-1-.513-1.257-2-1-24.432-15.991-45-37-3.767-9.294-2-19h9a11 11 0 0 0-1 2.5q10.33 48.909 59 38 35.813-14.569 54-48.5" style="opacity:1"/><path fill="#400024" d="M139.5 187.5v1h-18q-7.295-.479-14 1-.814-.09-1-1a273 273 0 0 1 33-1" style="opacity:1"/><path fill="#f3dbe8" d="M242.5 184.5q.406 2.82-2 4 .24-2.48 2-4" style="opacity:1"/><path fill="#7f0347" d="M121.5 188.5q-1.767 9.706 2 19a206 206 0 0 1-16-18q6.705-1.479 14-1" style="opacity:1"/><path fill="#f2d7e3" d="M238.5 192.5q.11 2.29-2 3-.11-2.29 2-3" style="opacity:1"/><path fill="#f4e3ee" d="M235.5 197.5q.11 2.29-2 3-.11-2.29 2-3" style="opacity:1"/><path fill="#f3e1eb" d="M233.5 200.5q-.357 2.856-3 4 .357-2.856 3-4" style="opacity:1"/><path fill="#f3e1ea" d="M230.5 204.5q-.357 2.856-3 4 .357-2.856 3-4" style="opacity:1"/><path fill="#cae8e5" d="M25.5 205.5q3.54 2.048 5 6-3.585-2.087-5-6" style="opacity:1"/><path fill="#f1dae7" d="M226.5 209.5q-1.885 4.391-6 7 1.885-4.391 6-7" style="opacity:1"/><path fill="#d3e3e2" d="M40.5 215.5a25.7 25.7 0 0 1 6 6q-3.324-1.054-5.5-4-1.809 5.528-4.5 0 1.495-.129 2.5 1 .348-1.856 1.5-3" style="opacity:1"/><path fill="#eed3df" d="M219.5 217.5q-3.6 5.105-9 8 4.254-5.853 9-8" style="opacity:1"/><path fill="#749cc2" d="M46.5 221.5h1a18.4 18.4 0 0 0 .5 6q3.126 3.8 6 0 5.764 4.491 8.5 11a76.8 76.8 0 0 1-15.5-10 25 25 0 0 1-.5-7" style="opacity:1"/><path fill="#f2dee9" d="M209.5 226.5q-1.144 2.643-4 3 1.144-2.643 4-3" style="opacity:1"/><path fill="#f3e6ee" d="M204.5 230.5q-.71 2.11-3 2 .71-2.11 3-2" style="opacity:1"/><path fill="#f0e0e9" d="M201.5 232.5q-.71 2.11-3 2 .71-2.11 3-2" style="opacity:1"/><path fill="#efdee8" d="M198.5 234.5q-.71 2.11-3 2 .71-2.11 3-2" style="opacity:1"/><path fill="#f3e6ed" d="M195.5 236.5q-.71 2.11-3 2 .71-2.11 3-2" style="opacity:1"/><path fill="#dce8f1" d="M66.5 240.5q3.478.738 6 3-3.883.058-6-3" style="opacity:1"/><path fill="#e9d4e1" d="M190.5 239.5q-6.121 5.06-14 7a68.7 68.7 0 0 1 14-7" style="opacity:1"/><path fill="#6da0cc" d="M87.5 249.5q-8.315-1.264-15-6a9.1 9.1 0 0 1 5 1l1-2q5.46 2.483 9 7" style="opacity:1"/><path fill="#cdcdcf" d="M168.5 244.5q1.487-.257 2 1-4.824-.233-8 3-2.29.11-3-2a88 88 0 0 1 9-2" style="opacity:1"/><path fill="#e6f1f6" d="M162.5 250.5q-3.022 2.136-7 2 3.022-2.136 7-2" style="opacity:1"/><path fill="#ccdeee" d="M93.5 251.5q4.493-.31 8 2-4.392-.098-8-2" style="opacity:1"/><path fill="#a6c9e4" d="M101.5 253.5q8.353-.186 16 2h-10z" style="opacity:1"/><path fill="#d0e3f1" d="M155.5 252.5a83 83 0 0 1-10 3h-10v-1a238 238 0 0 0 20-2" style="opacity:1"/></svg>