<svg xmlns="http://www.w3.org/2000/svg" xmlns:xlink="http://www.w3.org/1999/xlink" width="71" height="17" viewBox="0 0 107.92 25.84"><defs><linearGradient id="a"><stop offset="0" style="stop-color:#ca153e;stop-opacity:1"/><stop offset="1" style="stop-color:#e93c17;stop-opacity:.97402596"/></linearGradient><linearGradient xlink:href="#a" id="c" x1="18.49" x2="70.355" y1="16.178" y2="2.715" gradientTransform="scale(1.52)" gradientUnits="userSpaceOnUse"/><linearGradient xlink:href="#a" id="b" x1="0" x2="16" y1="16" y2="0" gradientUnits="userSpaceOnUse"/></defs><path d="M2.002.002A2.01 2.01 0 0 0 0 2.004v12.01c0 .46.159.887.424 1.226a2 2 0 0 0 1.578.776h12.01a2.01 2.01 0 0 0 2.002-2.002V2.004a2 2 0 0 0-.393-1.186V.816L15.615.81l-.02-.026-.013-.017-.043-.051a2 2 0 0 0-1.527-.713ZM10 2v3h2v2l3.014.008L15 9h-3v2h-2l.008 3.014L8 14v-4H6l.006 2.012L4 12V9H1V7h3l.004-2.996L6 4v2l2.008.006V2.004Z" style="opacity:1;fill:url(#b);fill-opacity:1;stroke:none;stroke-width:.5;stroke-linecap:round;stroke-miterlimit:4;stroke-dasharray:none;stroke-opacity:1" transform="scale(1.52)"/><path d="M83.16 4.127V6.72h2.088V4.127Zm-53.77 1.22v3.286h-1.395V10.3h1.396v6.19c0 1.458.28 2.483.866 3.063.588.573 1.624.843 3.103.843h2.048v-1.778H33.36c-.781 0-1.285-.14-1.514-.374-.217-.23-.356-.82-.356-1.755v-6.19h3.918V8.634H31.49V5.347h-.093zm59.09 0v3.286h-1.395V10.3h1.396v6.19c0 1.458.28 2.483.867 3.063.587.573 1.623.843 3.102.843h2.045v-1.778H92.45c-.781 0-1.285-.14-1.514-.374h-.003c-.217-.23-.356-.82-.356-1.755v-6.19h3.918V8.634h-3.918V5.347h-.092zM42.133 8.354c-1.754 0-3.168.57-4.212 1.704-1.038 1.129-1.553 2.658-1.553 4.569 0 1.85.545 3.333 1.639 4.426v.003c1.1 1.094 2.595 1.64 4.459 1.64q1.116-.002 2.2-.232a11.5 11.5 0 0 0 2.114-.665l.059-.024v-2.016l-.137.074a9.3 9.3 0 0 1-2.027.799 8.2 8.2 0 0 1-2.096.264c-1.244 0-2.202-.335-2.892-.997-.662-.65-1.034-1.601-1.13-2.839h8.724v-1.02c0-1.74-.462-3.127-1.39-4.145-.919-1.025-2.18-1.54-3.755-1.541Zm12.487 0q-1.23 0-2.182.529h-.003c-.557.312-1.037.789-1.463 1.38v-1.63h-2.096v11.762h2.096V13.76c0-1.114.292-1.98.866-2.615s1.35-.95 2.358-.95c.834 0 1.443.26 1.852.78.409.521.62 1.319.62 2.402v7.018h2.088v-7.08c0-1.612-.344-2.845-1.045-3.687-.701-.85-1.742-1.274-3.09-1.274m10.625 0q-.94 0-1.93.208-.99.199-2.039.606l-.06.023v1.974l.137-.074a7.6 7.6 0 0 1 1.787-.703 7.8 7.8 0 0 1 1.91-.235c1.025 0 1.809.236 2.36.7.557.458.834 1.1.834 1.954v.095h-2.574c-1.741 0-3.065.333-3.964 1.013-.891.679-1.338 1.693-1.338 3.016 0 1.135.36 2.06 1.074 2.746.722.68 1.692 1.018 2.895 1.018q1.423 0 2.42-.508c.587-.306 1.073-.784 1.487-1.38v1.588h2.087v-6.697c0-1.779-.417-3.123-1.265-4.014-.848-.89-2.13-1.33-3.82-1.33m12.315 0c-1.824 0-3.276.55-4.335 1.65-1.052 1.102-1.576 2.614-1.576 4.52 0 1.877.52 3.382 1.564 4.497s2.46 1.674 4.222 1.674q.97 0 1.829-.19a8 8 0 0 0 1.674-.564l.053-.024v-1.974l-.136.077a7.5 7.5 0 0 1-1.603.662 6.2 6.2 0 0 1-1.61.214c-1.213 0-2.138-.38-2.802-1.137-.664-.765-1-1.838-1-3.236 0-1.397.336-2.466 1-3.224.664-.765 1.589-1.146 2.803-1.146q.814-.001 1.609.223a7 7 0 0 1 1.603.653l.136.077V9.111l-.053-.024a7.7 7.7 0 0 0-1.642-.546v.003a8 8 0 0 0-1.736-.19m5.602.28v11.761h2.087V8.633Zm12.24 0 4.72 11.482-.326.834c-.35.918-.675 1.5-.936 1.722-.268.23-.651.348-1.16.348H96.49v1.778h1.612c.87 0 1.576-.217 2.105-.653.536-.442 1.058-1.35 1.597-2.734l5.136-12.778h-2.214l-3.554 8.897-3.557-8.897zm-53.248 1.52c.917 0 1.637.297 2.185.899.536.58.81 1.359.84 2.333l-6.555.012c.11-1.017.45-1.811 1.042-2.372.623-.582 1.445-.873 2.488-.873m24.29 4.423h1.8v.33c0 1.223-.314 2.194-.938 2.926-.618.725-1.432 1.084-2.465 1.084-.748 0-1.326-.19-1.754-.564-.422-.382-.632-.889-.632-1.544 0-.826.278-1.384.843-1.719.562-.333 1.617-.513 3.147-.513" style="fill:url(#c);fill-opacity:1;stroke-width:.06579708;paint-order:markers fill stroke"/></svg>