<svg xmlns="http://www.w3.org/2000/svg" width="932" height="287" style="shape-rendering:geometricPrecision;text-rendering:geometricPrecision;image-rendering:optimizeQuality;fill-rule:evenodd;clip-rule:evenodd"><path d="M-.5-.5h932v287H-.5z" style="opacity:1"/><path fill="#f9f9f9" d="M201.5 64.5h22v61h52v-61h22v151h-22v-67h-52v67q-10.722 1.488-22 1z" style="opacity:1"/><path fill="#7f7f7f" d="M352.5 64.5h-22v151h22q-11.223 1.488-23 1v-153q11.778-.488 23 1" style="opacity:1"/><path fill="#f9f9f9" d="M352.5 64.5v151h-22v-151z" style="opacity:1"/><path fill="#a4c775" d="M841.5 63.5q-10.714-.145-17.5 8a448 448 0 0 1-8.5 17q2.828-14.591 14-24.5 6.192-2.09 12-.5" style="opacity:1"/><path fill="#656565" d="M201.5 64.5q11.222-1.488 23-1v61h50a901 901 0 0 1 1-60v61h-52v-61z" style="opacity:1"/><path fill="#abcf85" d="M841.5 63.5q1.724.436 2 2.5-.276 2.064-2 2.5z" style="opacity:1"/><path fill="#abcc73" d="M802.5 55.5a146 146 0 0 0-10.5 10q-1.705 7.492-6.5 13 2.325-16.182 17-23" style="opacity:1"/><path fill="#adcd7e" d="M805.5 77.5a211 211 0 0 0 7-22h-10q5.034-2.82 11-1.5a6.3 6.3 0 0 1 1 3 113.5 113.5 0 0 1-9 20.5" style="opacity:1"/><path fill="#707070" d="M275.5 64.5q11.223-1.488 23-1v153h-23v-1h22v-151z" style="opacity:1"/><path fill="#b0e121" d="M802.5 55.5h10a211 211 0 0 1-7 22q-1.957 2.845-2 7 .302 8.353 3 16-13.05 4.283-23 14-2.128-.757-2-3 3.399-15.552 4-32v-1q4.795-5.508 6.5-13a146 146 0 0 1 10.5-10" style="opacity:1"/><path fill="#b0e12c" d="M841.5 63.5v5a36.2 36.2 0 0 1-5 9q-1.494-.128-2.5 1a145 145 0 0 0-.5 17 120 120 0 0 0-14 2h-4v-9a448 448 0 0 0 8.5-17q6.786-8.145 17.5-8" style="opacity:1"/><path fill="#f0efee" d="M440.5 76.5h-16q-5.625.147-10-3.5a11.3 11.3 0 0 1-1.5-3.5q-1.08 2.418.5 4.5 8.393 4.888 14 13 1 1 2 0-3.891-3.13-6-7.5 1.063-1.356 3-1h9q-.626 8.859 7 13.5a103 103 0 0 1 8.5 4.5 27.4 27.4 0 0 0 3.5 10.5l-.5 1.5-1.5-3q-.425-1.184-1.5-2-.348 1.856-1.5 3-.005-4.762-3-8.5-3.607-.422 0 2-5.143 1.052-10-1a130 130 0 0 0-23-13q-14.5-3.003-20 10.5-1.694 3.192-.5 7a27.6 27.6 0 0 1 1.5-5q2.142-9.904 12-10.5-8.35 19.959 10 32a146.8 146.8 0 0 1 33.5 23.5q8.233 9.47 10 22 .746-3.97.5-8 19.61-2.84 33.5 11 9.541 17.45-2 34-14.392 12.62-33.5 9.5-8.5-1.12-16-5 5.783-3.783 9.5-9.5 15.564 6.771 31.5 1.5-16.52 4.065-32-3.5-15.246 19.872-40 23.5a114 114 0 0 0 8-3.5q30.606-14.337 29.5-48-2.545-9.594-9-17 17.923 31.21-9.5 55.5a124 124 0 0 1-12 7.5q-15.082 5.268-31 4.5-28.06-6.042-26.5-34.5a47.2 47.2 0 0 1 5-12 120 120 0 0 1 9.5-9q-6.913-12.129-1.5-25 1.517-1.255 3.5-1-2.14 12.119 6 21a20 20 0 0 0-4 3.5q25.689-9.403 48 6.5a34.1 34.1 0 0 1-1 10q.356 3.844 1.5 0 2.342-6.666.5-13-1.352-7.454-7-12.5a504 504 0 0 0-25-17q-20.132-16.514-18.5-42.5 5.366-19.867 24.5-27.5a286 286 0 0 1 23-6q6.675-1.67 12 2.5 1.794-.519 0-1.5l2-.5a401 401 0 0 0 19 7.5q1.619 4.35-1 8.5a16.6 16.6 0 0 0-5 6q-.828-2.255 0-5h-6q.324 3.27-2.5 5 .028-2.412.5-5z" style="opacity:1"/><path fill="#323130" d="M424.5 76.5a31 31 0 0 1-2 2q.186.91 1 1 2.109 4.37 6 7.5-1 1-2 0-5.607-8.112-14-13-1.58-2.082-.5-4.5a11.3 11.3 0 0 0 1.5 3.5q4.375 3.647 10 3.5" style="opacity:1"/><path fill="#949391" d="M424.5 76.5h16l-14 2q-1.937-.356-3 1-.814-.09-1-1a31 31 0 0 0 2-2" style="opacity:1"/><path fill="#161514" d="m432.5 62.5 7 3.5q-4.488 3.201-8-.5-.356-1.936 1-3" style="opacity:1"/><path fill="#787875" d="M432.5 62.5q-1.356 1.064-1 3-1.214-1.453-3-2.5 1.977-2.445 4-.5" style="opacity:1"/><path fill="#2b431a" d="M783.5 85.5q.31 4.493-2 8 .098-4.392 2-8" style="opacity:1"/><path fill="#a6c785" d="M815.5 89.5v8h4l-4 2q-1.314.195-2-1 .884-4.71 2-9" style="opacity:1"/><path fill="#aed589" d="M836.5 77.5q-4.26 9.918 1 19.5-.504 1.545-2 1.5-7.71-1.482-16-1a120 120 0 0 1 14-2 145 145 0 0 1 .5-17q1.006-1.128 2.5-1" style="opacity:1"/><path fill="#526d46" d="M819.5 97.5q8.29-.482 16 1a151 151 0 0 0-20 1z" style="opacity:1"/><path fill="#b7df78" d="M785.5 79.5q-.601 16.448-4 32v-18q2.31-3.507 2-8 .143-3.429 2-6" style="opacity:1"/><path fill="#6e6c6c" d="M393.5 96.5q-.258 1.487 1 2a27.6 27.6 0 0 0-1.5 5q-1.194-3.808.5-7" style="opacity:1"/><path fill="#969696" d="M67.5 102.5q-11.279-.488-22 1-.814-.09-1-1 11.735-1.98 23 0" style="opacity:1"/><path fill="#989898" d="M123.5 102.5a117 117 0 0 0-21 1q4.647-1.982 10.5-2 5.524.002 10.5 1" style="opacity:1"/><path fill="#a2c474" d="M805.5 77.5q-.896 10.72 3 20.5a11.3 11.3 0 0 1-1 3.5 61.6 61.6 0 0 0-15 7.5 163 163 0 0 1-11 10.5q-1.977-10.233 0-20v12q-.128 2.243 2 3 9.95-9.717 23-14-2.698-7.647-3-16 .043-4.155 2-7" style="opacity:1"/><path fill="#f4f4f4" d="M45.5 103.5q10.721-1.488 22-1a1441 1441 0 0 1 16.5 90 7012 7012 0 0 1 18.5-89 117 117 0 0 1 21-1 21463 21463 0 0 1 19.5 91 2662 2662 0 0 1 16-90q5.103-1.934 11-2l10.5 1-24 114h-27a4901 4901 0 0 0-17-86 5684 5684 0 0 1-16.5 85 85 85 0 0 1-26 0 20305 20305 0 0 1-24.5-112" style="opacity:1"/><path fill="#b2b2b2" d="M655.5 106.5a118 118 0 0 0-16 1q4.575-2.153 10-2 3.294.007 6 1" style="opacity:1"/><path fill="#505050" d="M452.5 105.5q-1.587 1.65-2.5 4a4.93 4.93 0 0 1-.5-3q1.152-1.144 1.5-3 1.075.816 1.5 2" style="opacity:1"/><path fill="#f7f7f7" d="M529.5 208.5a625 625 0 0 0-1 50h-20v-150h18a31.1 31.1 0 0 0 1 11q9.675-8.926 22-13.5 21.67-2.536 33.5 15.5 9.607 18.034 8.5 38.5 1.401 29.304-18 51-23.096 16.11-44-2.5" style="opacity:1"/><path fill="#f6f6f6" d="M655.5 106.5q21.697 2.933 28.5 24 4.78 17.144 3.5 35-1.356 1.064-1 3a842 842 0 0 0-58 1q.972 15.19 12 25.5 19.135 10.155 36-3.5a160 160 0 0 1 8 15q-34.569 27.723-65.5-4-17.08-26.815-10-58 4.745-21.222 22.5-33.5a42.3 42.3 0 0 1 8-3.5 118 118 0 0 1 16-1" style="opacity:1"/><path fill="#f5f5f5" d="M749.5 105.5q7.554-.658 14.5 2a99 99 0 0 1-2.5 22q-9.852-2.699-19 1.5a46.5 46.5 0 0 0-10.5 13.5 890 890 0 0 0-1.5 72h-22v-108h18q.209 9.085 2 18 7.111-14.112 21-21" style="opacity:1"/><path fill="#c2c2c2" d="M508.5 108.5v150h20a625 625 0 0 1 1-50v51h-22a5701 5701 0 0 1 1-151" style="opacity:1"/><path fill="#030303" d="M668.5 143.5v8h-40q.868-18.022 17-25.5 20.219-2.877 23 17.5m-123-17q16.407-1.435 21.5 14 6.082 24.03-3 47-9.066 14.844-25.5 8.5a25.6 25.6 0 0 1-8.5-6.5 676 676 0 0 1 0-52q6.803-7.088 15.5-11" style="opacity:1"/><path fill="#a8cd7a" d="M815.5 129.5q4.137-1.977 9.5-2 12.046.074 22.5 6 5.465-5.752 8-13.5l-1-2.5a31 31 0 0 1-9-5.5q-14.757-3.627-30-2-8.472 3.233-17 6.5 2.63-2.584 6-4.5 20.691-8.382 42-1a40.1 40.1 0 0 1 12 8.5q-4.42 9.376-11 17a78.8 78.8 0 0 0-15-7.5 56.7 56.7 0 0 0-17 .5" style="opacity:1"/><path fill="#a8cc6e" d="M798.5 116.5q-13.742 14.52-23 32 5.603-20.192 23-32" style="opacity:1"/><path fill="#b0e123" d="M815.5 129.5q-8.17 1.063-12 8-2.835-.305-4.5 2a81.3 81.3 0 0 0-7 19 90.5 90.5 0 0 0 0 19q1.314 3.387 3.5 6 2.74 2.47 4 6 1.601 3.36 5 5.5a111 111 0 0 0 14 3.5q11.739-1.245 22-7a651 651 0 0 1 4 14.5q-4.603 4.572-11 7a30 30 0 0 0-9 2q-13.265 1.107-26-1.5-6.495-4.413-12.5-10a146 146 0 0 1-11.5-17v-3a104.2 104.2 0 0 1 1-34v-1q9.258-17.48 23-32 8.528-3.267 17-6.5 15.243-1.627 30 2a31 31 0 0 0 9 5.5l1 2.5q-2.535 7.748-8 13.5-10.454-5.926-22.5-6-5.363.023-9.5 2" style="opacity:1"/><path fill="#acce7d" d="M815.5 129.5a70.6 70.6 0 0 0-12 8q3.83-6.937 12-8" style="opacity:1"/><path fill="#4d4d4d" d="M275.5 215.5v1a1123 1123 0 0 1-1-67h-50q.496 33.26-1 66v-67h52z" style="opacity:1"/><path fill="#6a6a6a" d="M668.5 143.5q1.465 4.18 1 9a421 421 0 0 1-41-1h40z" style="opacity:1"/><path fill="#afe21d" d="M835.5 166.5q-.925.166-1.5 1a61 61 0 0 0-.5 11h-6q.531-6.206-1.5-12-4.585-1.426-9.5-1v-6a41 41 0 0 0 9-.5l1.5-1.5 1-11q2.5-2 5 0l1 12q5.091 1.434 10.5 1v6q-4.82-.465-9 1" style="opacity:1"/><path fill="#40572e" d="M835.5 142.5q1.477 6.202 1 13 5.313-.469 10 1h-11z" style="opacity:1"/><path fill="#41562f" d="M863.5 143.5v13h-12q5.193-1.473 11-1-.475-6.303 1-12" style="opacity:1"/><path fill="#b0e14f" d="M835.5 155.5v1q4.207 1.228 9 1.5 1.416 4.078 1 8.5h-10q4.18-1.465 9-1v-6q-5.409.434-10.5-1l-1-12q-2.5-2-5 0l-1 11-1.5 1.5a41 41 0 0 1-9 .5v6q4.915-.426 9.5 1 2.031 5.794 1.5 12h6q-3.672 1.46-8 1 .473-5.807-1-11-3.732-2.832-9-2v-9q4.619.36 9-1a43.1 43.1 0 0 0 1-13q4.422-.416 8.5 1 .265 5.784 1.5 11" style="opacity:1"/><path fill="#bfea7e" d="M852.5 156.5h11q-4.256 2.853-10 2v8q5.313-.469 10 1h-11z" style="opacity:1"/><path fill="#a7cd79" d="M775.5 149.5a104.2 104.2 0 0 0-1 34q-6.16-17.14 1-34" style="opacity:1"/><path fill="#afe128" d="M883.5 166.5q-5.409-.434-10.5 1a72.4 72.4 0 0 0-.5 12h-7a61 61 0 0 0-.5-11q-.575-.834-1.5-1-4.687-1.469-10-1v-8q5.744.853 10-2 1.475-5.697 1-12 4.422-.416 8.5 1l1 12a42.4 42.4 0 0 0 8.5 1.5q1.402 3.572 1 7.5" style="opacity:1"/><path fill="#b0d584" d="M803.5 137.5q-15.95 20.827-8 46-2.186-2.613-3.5-6a90.5 90.5 0 0 1 0-19 81.3 81.3 0 0 1 7-19q1.665-2.305 4.5-2" style="opacity:1"/><path fill="#a1c37e" d="M835.5 142.5v13q-1.235-5.216-1.5-11-4.078-1.416-8.5-1a43.1 43.1 0 0 1-1 13 23.8 23.8 0 0 1-9 1v9q5.268-.832 9 2h-11v-13h11v-13z" style="opacity:1"/><path fill="#9ab97c" d="M846.5 156.5q2 6 0 12h-11q5.193-1.473 11-1z" style="opacity:1"/><path fill="#9fbb7a" d="M851.5 156.5h1v11h11v1h-11q-1.475-5.697-1-12" style="opacity:1"/><path fill="#a6c97f" d="m874.5 168.5 9-2q.402-3.928-1-7.5a42.4 42.4 0 0 1-8.5-1.5l-1-12q-4.078-1.416-8.5-1 .475 6.303-1 12v-13q5.193-1.473 11-1v13h11v13z" style="opacity:1"/><path fill="#bfbfbf" d="M687.5 165.5v4h-59a842 842 0 0 1 58-1q-.356-1.936 1-3" style="opacity:1"/><path fill="#1c2e17" d="M852.5 168.5h11v13q-1.475-5.697-1-12-5.313.469-10-1" style="opacity:1"/><path fill="#acd194" d="M874.5 168.5v13h-11v-12q1.473 5.193 1 11h9q-.475-6.303 1-12" style="opacity:1"/><path fill="#444342" d="M391.5 173.5q11.106-1.912 22 2.5 1.794.981 0 1.5-8.127-3.57-17-3-2.128-1.426-5-1" style="opacity:1"/><path fill="#c0ea81" d="M835.5 156.5h11v11q-5.807-.473-11 1l-2 10a61 61 0 0 1 .5-11q.575-.834 1.5-1h10q.416-4.422-1-8.5-4.793-.272-9-1.5" style="opacity:1"/><path fill="#9b9a99" d="M466.5 176.5q2.98.996 5 3.5-1.838.845-3-1a50.5 50.5 0 0 0-10-.5z" style="opacity:1"/><path fill="#1b3015" d="M835.5 168.5h11q-4.687 1.469-10 1 .475 6.303-1 12z" style="opacity:1"/><path fill="#454442" d="M428.5 164.5q1.842 6.334-.5 13-1.144 3.844-1.5 0a34.1 34.1 0 0 0 1-10q1.356-1.064 1-3" style="opacity:1"/><path fill="#10100f" d="M458.5 178.5q5.025-.247 10 .5 1.162 1.845 3 1-2.02-2.504-5-3.5a4.93 4.93 0 0 1-3-.5q8.508-1.656 9.5 6.5-6.671 5.113-14.5 1.5-1.554-2.664 0-5.5" style="opacity:1"/><path fill="#beeb76" d="m883.5 166.5-9 2q-1.475 5.697-1 12h-9q.473-5.807-1-11v-2q.925.166 1.5 1 .748 5.477.5 11h7a72.4 72.4 0 0 1 .5-12q5.091-1.434 10.5-1" style="opacity:1"/><path fill="#b1d38d" d="M824.5 168.5q1.473 5.193 1 11 4.328.46 8-1l2-10v13h-11z" style="opacity:1"/><path fill="#0e0d0d" d="M391.5 173.5q2.872-.426 5 1-16.972.15-12 15.5 2 1 4 0 8.528-7.734 20-5 5.422 1.098 10 4-13.133 6.925-28 5-14.25-2.25-8.5-15.5 3.894-4.148 9.5-5" style="opacity:1"/><path fill="#b3d57e" d="M774.5 186.5a146 146 0 0 0 11.5 17q6.005 5.587 12.5 10-18.293-7.798-24-27" style="opacity:1"/><path fill="#aad27a" d="M798.5 213.5q12.735 2.607 26 1.5a30 30 0 0 1 9-2q6.397-2.428 11-7a651 651 0 0 0-4-14.5q-10.261 5.755-22 7a111 111 0 0 1-14-3.5q-3.399-2.14-5-5.5 10.637 8.055 24 6.5a118.7 118.7 0 0 0 19-7.5q1.914 8.72 4 17.5l-1 2.5q-17.106 10.35-37 8.5-5.415-1.107-10-3.5" style="opacity:1"/><path fill="#181817" d="m419.5 215.5-1-2a124 124 0 0 0 12-7.5q27.423-24.29 9.5-55.5 6.455 7.406 9 17 1.106 33.663-29.5 48" style="opacity:1"/></svg>