<svg xmlns="http://www.w3.org/2000/svg" width="326" height="324" fill="none" viewBox="0 0 326 324"><path fill="url(#paint0_linear_1_3)" d="m209.27 230.63-51.12.06c13.03-12.53 31.62-30.11 31.62-30.11l27.35-38.44-4.81-43.25-62.1-31.79-5.63 5.87s17.83 4.11 1.56 20.38L13.81 245.68s-17 14.79-11.83 42.14c1.94 10.26 7.62 17.81 13.97 23.25 9.38 8.03 21.36 12.71 33.71 12.71l98.7-.47"/><path fill="url(#paint1_linear_1_3)" d="M1.58 11.94c-.4-2.89.23-5.87 1.94-8.23C4.87 1.85 6.95.22 10.12.22c7.39 0 271.33.74 271.33.74s26.62 2.22 37.71 25.14c2.77 5.73 4.02 11.41 4.33 16.72.78 13.31-4.44 26.27-13.86 35.69L189.77 200.58s20.7-26.62 15.16-55.08c-7.7-39.51-43.62-52.49-56.93-52.49H93.29S64.9 94.53 37.5 74.48c-10.97-8.03-19.65-18.76-25.67-30.95-4.19-8.49-8.61-19.69-10.25-31.59"/><path fill="url(#paint2_linear_1_3)" d="M278.49 230.66c-25.71 0-46.56 20.84-46.56 46.56 0 25.71 20.84 46.56 46.56 46.56 25.71 0 46.56-20.84 46.56-46.56-.01-25.71-20.85-46.56-46.56-46.56m18.26 50.04-14 8.08-14 8.08c-2.68 1.55-6.04-.39-6.04-3.48v-32.32c0-3.1 3.35-5.03 6.04-3.48l14 8.08 14 8.08c2.68 1.54 2.68 5.42 0 6.96"/><path fill="url(#paint3_linear_1_3)" d="M189.77 200.58s93.89-128.8-28.11-159.8c0 0-92.29-17.5-146.15 9.25 0 0 22.15 42.75 77.77 42.98h47.38c12.33 0 24.51 3.18 35.01 9.64 11.96 7.36 24.32 20.27 29.25 42.85 0 0 6.95 23.88-15.15 55.08"/><path fill="url(#paint4_linear_1_3)" d="M158.15 230.69s-94.36-11.4-64.49-64.92l-79.85 79.9s-17.15 15.1-11.83 42.14c4.75 24.16 28.68 35.96 47.68 35.96h159s10-1 .17-9.31c0 0-24.67-23.19-15.67-47.19 0 0 4-13 18-30 0 0 3.83-3.83-.57-6.12-1.19-.62-2.55-.87-3.89-.86z"/><defs><linearGradient id="paint0_linear_1_3" x1="200.727" x2="27.221" y1="166.999" y2="295.859" gradientUnits="userSpaceOnUse"><stop stop-color="#a7ede7"/><stop offset=".162" stop-color="#a1d3ec"/><stop offset=".554" stop-color="#939bf6"/><stop offset=".844" stop-color="#8a77fd"/><stop offset="1" stop-color="#876aff"/></linearGradient><linearGradient id="paint1_linear_1_3" x1="1.462" x2="323.558" y1="100.402" y2="100.402" gradientUnits="userSpaceOnUse"><stop stop-color="#a7ede7"/><stop offset=".021" stop-color="#a4e0e9"/><stop offset=".08" stop-color="#9cc1ef"/><stop offset=".147" stop-color="#96a5f4"/><stop offset=".223" stop-color="#908ff8"/><stop offset=".311" stop-color="#8c7efb"/><stop offset=".42" stop-color="#8973fd"/><stop offset=".574" stop-color="#876cff"/><stop offset="1" stop-color="#876aff"/></linearGradient><linearGradient id="paint2_linear_1_3" x1="322.522" x2="238.346" y1="298.071" y2="258.213" gradientUnits="userSpaceOnUse"><stop stop-color="#a7ede7"/><stop offset=".057" stop-color="#a2daeb"/><stop offset=".175" stop-color="#9ab8f1"/><stop offset=".301" stop-color="#939bf6"/><stop offset=".437" stop-color="#8e85fa"/><stop offset=".585" stop-color="#8a76fd"/><stop offset=".755" stop-color="#886dfe"/><stop offset="1" stop-color="#876aff"/></linearGradient><linearGradient id="paint3_linear_1_3" x1="15.515" x2="224.27" y1="117.866" y2="117.866" gradientUnits="userSpaceOnUse"><stop stop-color="#a7ede7"/><stop offset=".174" stop-color="#a6e9e8"/><stop offset=".349" stop-color="#a3ddea"/><stop offset=".525" stop-color="#9ec9ee"/><stop offset=".701" stop-color="#97acf3"/><stop offset=".876" stop-color="#8e88f9"/><stop offset="1" stop-color="#876aff"/></linearGradient><linearGradient id="paint4_linear_1_3" x1=".956" x2="213.158" y1="244.777" y2="244.777" gradientUnits="userSpaceOnUse"><stop stop-color="#a7ede7"/><stop offset=".162" stop-color="#a1d3ec"/><stop offset=".554" stop-color="#939bf6"/><stop offset=".844" stop-color="#8a77fd"/><stop offset="1" stop-color="#876aff"/></linearGradient></defs></svg>