<svg xmlns="http://www.w3.org/2000/svg" xml:space="preserve" style="fill-rule:evenodd;clip-rule:evenodd;stroke-linejoin:round;stroke-miterlimit:2" viewBox="0 0 240 240"><path d="M0 0h240v240H0z" style="fill:#a7f175"/><path d="M112.908 165.979c-10.413 0-17.037-6.317-17.037-14.329 0-34.287 90.164-41.151 90.164-77.563 0-22.213-25.731-31.787-58.577-31.787-19.98 0-42.571 3.698-63.552 10.315v43.438c30.919-22.52 65.272-32.16 87.4-32.16 13.914 0 23.355 3.882 23.355 10.838 0 28.658-124.353 24.117-124.353 86.042 0 23.736 16.321 37.335 39.283 37.335 34.732 0 61.003-33.753 80.657-74.897l3.982 1.43c-10.351 25.143-31.771 52.712-35.943 70.434h44.715V103.39h-10.327c-14.99 32.574-36.957 62.59-59.767 62.59" style="fill:#000;fill-rule:nonzero"/></svg>