<svg xmlns="http://www.w3.org/2000/svg" width="24" height="24" fill="none" stroke="#000" stroke-linecap="round" stroke-linejoin="round" stroke-width="2" style="opacity:1" viewBox="0 0 48 48"><circle cx="24" cy="24" r="21.5"/><path d="m13.35 12.548-.316 13.282-2.949 2.948c-.78.78-.78 2.046 0 2.826l7.088 7.087c.78.781 2.046.781 2.826 0l2.948-2.948 13.282-.316c2.868 0 2.844-1.802.91-3.736L17.086 11.639c-1.352-1.353-3.682-1.331-3.735.91zM37.73 22.55l-.001-.032c-.143-4.518-3.084-8.817-7.275-10.539-1.348-.59-2.79-.9-4.24-.947m7.529 11.669c-.118-3.3-2.458-6.439-5.675-7.342a7.5 7.5 0 0 0-2.005-.337"/></svg>