<svg xmlns="http://www.w3.org/2000/svg" xmlns:xlink="http://www.w3.org/1999/xlink" width="512" height="512"><script/><defs><filter id="k" color-interpolation-filters="sRGB"><feGaussianBlur stdDeviation="9"/></filter><filter id="l"><feGaussianBlur stdDeviation="9"/></filter><filter id="m" width="1.204" height="1.282" x="-.102" y="-.141"><feGaussianBlur stdDeviation="9.267"/></filter><filter id="o" width="1.239" height="1.214" x="-.119" y="-.107"><feGaussianBlur stdDeviation="9.267"/></filter><filter id="p" width="1.204" height="1.282" x="-.102" y="-.141"><feGaussianBlur stdDeviation="9.267"/></filter><filter id="q" width="1.251" height="1.221" x="-.125" y="-.11"><feGaussianBlur stdDeviation="9.267"/></filter><filter id="r" width="1.239" height="1.214" x="-.119" y="-.107"><feGaussianBlur stdDeviation="9.267"/></filter><filter id="n" width="1.251" height="1.221" x="-.126" y="-.111"><feGaussianBlur stdDeviation="9.291"/></filter><filter id="s" width="1.235" height="1.235" x="-.118" y="-.118"><feGaussianBlur stdDeviation="3.136"/></filter><filter id="F"><feGaussianBlur stdDeviation="4.831"/></filter><filter id="B"><feGaussianBlur stdDeviation="4.819"/></filter><filter id="C"><feGaussianBlur stdDeviation="4.825"/></filter><filter id="G"><feGaussianBlur stdDeviation="5.057"/></filter><filter id="D"><feGaussianBlur stdDeviation="5.057"/></filter><filter id="E"><feGaussianBlur stdDeviation="4.822"/></filter><filter id="H"><feGaussianBlur stdDeviation="1.758"/></filter><linearGradient id="j"><stop offset="0" style="stop-color:#fff;stop-opacity:1"/><stop offset="1" style="stop-color:#b0b0b0;stop-opacity:1"/></linearGradient><linearGradient id="a"><stop offset="0" style="stop-color:#ff7004;stop-opacity:1"/><stop offset="1" style="stop-color:#ba4704;stop-opacity:1"/></linearGradient><linearGradient id="g"><stop offset="0" style="stop-color:#d70016;stop-opacity:1"/><stop offset="1" style="stop-color:#8d0016;stop-opacity:1"/></linearGradient><linearGradient id="f"><stop offset="0" style="stop-color:#d000d0;stop-opacity:1"/><stop offset="1" style="stop-color:#760076;stop-opacity:1"/></linearGradient><linearGradient id="e"><stop offset="0" style="stop-color:#1476e6;stop-opacity:1"/><stop offset="1" style="stop-color:#143e9a;stop-opacity:1"/></linearGradient><linearGradient id="d"><stop offset="0" style="stop-color:#17b414;stop-opacity:1"/><stop offset="1" style="stop-color:#176314;stop-opacity:1"/></linearGradient><linearGradient id="b"><stop offset="0" style="stop-color:#f7f10e;stop-opacity:1"/><stop offset="1" style="stop-color:#c58907;stop-opacity:1"/></linearGradient><linearGradient xlink:href="#a" id="t" x1="372.859" x2="318.297" y1="593.388" y2="726.388" gradientTransform="translate(1.875 -533.766)" gradientUnits="userSpaceOnUse"/><linearGradient xlink:href="#b" id="u" x1="277.627" x2="454.048" y1="637.059" y2="683.489" gradientTransform="rotate(60 717.317 524.507)" gradientUnits="userSpaceOnUse"/><linearGradient xlink:href="#d" id="v" x1="253.838" x2="401.186" y1="725.269" y2="612.484" gradientTransform="rotate(120 409.147 523.424)" gradientUnits="userSpaceOnUse"/><linearGradient xlink:href="#e" id="w" x1="326.125" x2="342.125" y1="701.766" y2="581.766" gradientTransform="rotate(180 255.062 522.883)" gradientUnits="userSpaceOnUse"/><linearGradient xlink:href="#f" id="x" x1="456.976" x2="273.627" y1="694.418" y2="643.987" gradientTransform="rotate(-120 100.977 522.342)" gradientUnits="userSpaceOnUse"/><linearGradient xlink:href="#g" id="y" x1="432.115" x2="263.694" y1="650.053" y2="710.341" gradientTransform="rotate(-60 -207.193 521.26)" gradientUnits="userSpaceOnUse"/><linearGradient xlink:href="#j" id="A" x1="256" x2="256" y1="224" y2="288" gradientUnits="userSpaceOnUse"/></defs><g style="display:inline"><path d="M510 287a225 225 0 1 1-.431-13.92" style="opacity:.95;fill:#1a1a1a;fill-opacity:1;stroke:none;filter:url(#k)" transform="translate(-17.333 -17.244)scale(.95556)"/><path d="M510 287a225 225 0 1 1-.431-13.92" style="opacity:.95;fill:#1a1a1a;fill-opacity:1;stroke:none;display:inline;filter:url(#l)" transform="translate(-17.333 -17.244)scale(.95556)"/><path d="M510 287a225 225 0 1 1-.431-13.92" style="opacity:.95;fill:#1a1a1a;fill-opacity:1;stroke:none;display:inline" transform="translate(-17.333 -17.244)scale(.95556)"/></g><g style="display:inline"><path d="m303.203 32.669-55.469 157.906 218.438-36.75C433.818 91.69 374.213 46.032 303.203 32.669" style="fill:#000;fill-opacity:1;fill-rule:nonzero;stroke:none;display:inline;filter:url(#m)"/><path d="M473.012 185.213 308.527 216.13l141.045 170.798c37.633-59.087 47.373-133.536 23.44-201.714" style="fill:#000;fill-opacity:1;fill-rule:nonzero;stroke:none;display:inline;filter:url(#n)"/><path d="m425.809 408.545-109.016-126.99L239.4 489.101c69.988 3.047 139.331-25.742 186.409-80.557" style="fill:#000;fill-opacity:1;fill-rule:nonzero;stroke:none;display:inline;filter:url(#o)"/><path d="m208.797 479.331 55.469-157.906-218.438 36.75c32.354 62.135 91.959 107.793 162.969 121.156" style="fill:#000;fill-opacity:1;fill-rule:nonzero;stroke:none;display:inline;filter:url(#p)"/><path d="m38.988 326.787 164.485-30.916L62.428 125.073C24.795 184.16 15.055 258.61 38.988 326.787" style="fill:#000;fill-opacity:1;fill-rule:nonzero;stroke:none;display:inline;filter:url(#q)"/><path d="m86.191 103.455 109.016 126.99L272.6 22.899c-69.988-3.048-139.331 25.741-186.41 80.556" style="fill:#000;fill-opacity:1;fill-rule:nonzero;stroke:none;display:inline;filter:url(#r)"/><path d="M288 256a32 32 0 1 1-64 0 32 32 0 1 1 64 0" style="display:inline;fill:#000;fill-opacity:1;stroke:none;filter:url(#s)"/></g><g style="display:inline"><path d="m303.203 32.669-55.469 157.906 218.438-36.75C433.818 91.69 374.213 46.032 303.203 32.669" style="fill:url(#t);fill-opacity:1;fill-rule:nonzero;stroke:none;display:inline;filter:url(#filter3903)"/><path d="M473.012 185.213 308.527 216.13l141.045 170.798c37.633-59.087 47.373-133.536 23.44-201.714" style="fill:url(#u);fill-opacity:1;fill-rule:nonzero;stroke:none;display:inline;filter:url(#filter3903)"/><path d="m425.809 408.545-109.016-126.99L239.4 489.101c69.988 3.047 139.331-25.742 186.409-80.557" style="fill:url(#v);fill-opacity:1;fill-rule:nonzero;stroke:none;display:inline;filter:url(#filter3903)"/><path d="m208.797 479.331 55.469-157.906-218.438 36.75c32.354 62.135 91.959 107.793 162.969 121.156" style="fill:url(#w);fill-opacity:1;fill-rule:nonzero;stroke:none;display:inline;filter:url(#filter3903)"/><path d="m38.988 326.787 164.485-30.916L62.428 125.073C24.795 184.16 15.055 258.61 38.988 326.787" style="fill:url(#x);fill-opacity:1;fill-rule:nonzero;stroke:none;display:inline;filter:url(#filter3903)"/><path d="m86.191 103.455 109.016 126.99L272.6 22.899c-69.988-3.048-139.331 25.741-186.41 80.556" style="fill:url(#y);fill-opacity:1;fill-rule:nonzero;stroke:none;display:inline;filter:url(#filter3903)"/><path d="M288 256a32 32 0 1 1-64 0 32 32 0 1 1 64 0" style="fill:url(#A);fill-opacity:1;stroke:none"/></g><g style="opacity:.5;display:inline"><path d="M262.75 177.906c62.523-10.733 125.195-20.603 187.625-31.875C419.72 95.155 367.864 57.206 309.656 44.25z" style="opacity:.15;fill:#fff;fill-opacity:1;fill-rule:nonzero;stroke:none;display:inline;filter:url(#B)"/><path d="M327.031 222.844c40.524 48.788 80.415 98.102 121.407 146.5 28.72-51.924 35.593-115.91 17.78-172.719z" style="opacity:.25;fill:#fff;fill-opacity:1;fill-rule:nonzero;stroke:none;display:inline;filter:url(#C)"/><path d="M253.688 479.313c59.785-1.051 118.43-27.006 158.75-70.875l-92.22-107.5z" style="opacity:.15;fill:#fff;fill-opacity:1;fill-rule:nonzero;stroke:none;display:inline;filter:url(#D)"/><path d="M61.438 365.688c30.573 50.936 82.515 89.038 140.906 102.062l46.906-133.656z" style="opacity:.15;fill:#fff;fill-opacity:1;fill-rule:nonzero;stroke:none;display:inline;filter:url(#E)"/><path d="M63.25 143.219c-28.513 51.852-35.189 115.62-17.469 172.156l139.25-26.219L63.72 142.344z" style="opacity:.25;fill:#fff;fill-opacity:1;fill-rule:nonzero;stroke:none;display:inline;filter:url(#F)"/><path d="M257.719 32.719C198.32 33.77 139.789 59.879 99.53 103.53l92.25 107.532 66.532-178.375z" style="opacity:.15;fill:#fff;fill-opacity:1;fill-rule:nonzero;stroke:none;display:inline;filter:url(#G)"/><path d="M254.781 234.031c-17.879-.186-28.234 25.63-14.562 37.5 10.37 10.67 31.406 7.507 36.219-7.156 5.241-12.604-3.314-29.036-17.282-30.156a21.5 21.5 0 0 0-4.375-.188" style="opacity:.15;fill:#fff;fill-opacity:1;stroke:none;display:inline;filter:url(#H)"/></g></svg>