<svg xmlns="http://www.w3.org/2000/svg" width="256" height="255" style="shape-rendering:geometricPrecision;text-rendering:geometricPrecision;image-rendering:optimizeQuality;fill-rule:evenodd;clip-rule:evenodd"><path fill="#2b2c2b" d="M251.5 43.5q-3.284-2.587-3.5-7-1.217-2.19-2.5-1a55.7 55.7 0 0 1 4.5 14q.75 47.498.5 95-1.231 4.712-1.5 10-1-4-2 0-.663-3.268-3-2-2.23-1.13-.5-2.5a7.3 7.3 0 0 0-3-2l1-1q-3.14 1.642-7 1l2-1-6-3 1-1a8.2 8.2 0 0 1-4-2.5q.017 1.412-1.5 2l-4.5-1.5 2-1a29.5 29.5 0 0 1-4.5-2.5l-1 1q-2.6-3.801-6.5-4.5 1.72 1.921-1 1a6.98 6.98 0 0 1-2.5-3.5q-3.56 4.182-4-1a11.3 11.3 0 0 0-3.5-1.5l1-1q-2.342-.477-3.5-2.5l-1 1a7.3 7.3 0 0 0-2-3q-2.349-.841-4 2-.539-4.567-2-1l-2-4a4.93 4.93 0 0 0-.5 3 41 41 0 0 0-5-7 259 259 0 0 0 2-17q2.312-10.687 3-22a2014 2014 0 0 0 22-2q5.28-1.025 7.5-6a30.5 30.5 0 0 0 0-11q-2.176-2.946-5.5-4-1.063-1.356-3-1a626 626 0 0 0-50-1h-31q1.194 12.664 12 19 4.74 3.75 11 4h14a105 105 0 0 0-1 9 3801 3801 0 0 1-3 16 34.4 34.4 0 0 0-11-2.5q-12.49-.75-25-.5 5.718-1.236 12-1.5-3.75-2.75-6.5-6.5a4.46 4.46 0 0 1-1.5 2q-4.454-1.706-6.5-6-2.74 1.743-5-1-1.743 1.03-3.5.5a18.6 18.6 0 0 1-3.5-6.5q-8.873.887-17-4l-1 2q-1.673-3.612-5-6-5.085.93-5-5l-1 1q-1.757-2.09-4.5-2.5 1.73-1.37-.5-2.5-.621.685-1.5 1-4.512-.366-8.5-4l-1 1q-1.565-1.684-2-4-3.135 1.5-5-2l-1 2q-3.206-2.29-3.5-5-1.948.885-2.5 3l-2-4q-1.076 1.425-2.5.5a51 51 0 0 0-4.5-5.5q-3.724.95-7-2l-1 1a4.93 4.93 0 0 1-.5-3q-7.625 1.31-11.5-6-2.574 1.579-3-2-2.349-.84-4 2a7.3 7.3 0 0 0-2-3 599 599 0 0 1-5.5 8 9.8 9.8 0 0 1-3 4q1.644-8.177 6.5-15 17.2-21.855 45-25 62.63.815 126 0 22.064-1.635 42.5 6.5 21.457 10.69 28 33.5" style="opacity:1"/><path fill="#252524" d="M123.5 97.5q-34.65 3.228-63-16.5a436 436 0 0 0-19-16.5q.098-.658-.5-1-4.971 28.43 0 57 4.215 19.945 18.5 34a36 36 0 0 0 8 6q11.68 7.89 26 8 7.804 1.886 16 0 10.451-.69 20-4a447 447 0 0 1 17-2h4a197 197 0 0 1-3 24h-36q.723 7.723 6 13 2.6 6.098 9 8 .627 1.083 2 1.5 4.473.747 9 .5 27.762.495 55-1 3.006-1.76 4.5-5 3.711-11.82-7.5-16.5l-18-1a377 377 0 0 0 3-21.5q.71-2.11 3-2 6.839.317 13.5 2 1.605-.042 2.5-1v-7a107.3 107.3 0 0 0-7-33 4.93 4.93 0 0 1 .5-3l2 4q1.461-3.567 2 1 1.651-2.841 4-2a7.3 7.3 0 0 1 2 3l1-1q1.158 2.023 3.5 2.5l-1 1q1.9.464 3.5 1.5.44 5.182 4 1a6.98 6.98 0 0 0 2.5 3.5q2.72.921 1-1 3.9.699 6.5 4.5l1-1a29.5 29.5 0 0 0 4.5 2.5l-2 1 4.5 1.5q1.517-.588 1.5-2a8.2 8.2 0 0 0 4 2.5l-1 1 6 3-2 1q3.86.642 7-1l-1 1a7.3 7.3 0 0 1 3 2q-1.73 1.37.5 2.5 2.337-1.268 3 2 1-4 2 0 .269-5.288 1.5-10 .25 29.504-.5 59-7.47 40.72-48.5 46-5.218.474-10-1.5l1-3-3-1 1-1q-3.411.58-6.5.5-3.33-4.653-7-7-1.371 5.528-2-1-.582 1.392-2 2-5.293-2.291-6-8l-1 2q-2-2-4 0-2.978-1.374-6-5l-1 1-3-4q-1.774 1.846-3.5 0-.885-1.948-3-2.5l1-1q-3.885-3.433-5.5 1.5a34.4 34.4 0 0 1-7-7l-1 2q-.952-5.403-4-2-1.112-1.712-2.5 0-5.12-5.882-14-8.5 3.845-1.144 0-1.5-1.721.477-2.5 2-2.052-2.29-1.5-4.5-3.185-2.373-6.5-.5a14.6 14.6 0 0 0-4-6q-2.014 1.07-4-1-1.256 2.26-3.5 1.5l1-1a129 129 0 0 1-3-2 3.94 3.94 0 0 1 1-2q-4.395-2.488-9-1-1.981-4.51-4.5-6.5-.854 5.791-2.5 0-1.824.753-3.5 1-.75-1.75-2.5-2.5l2-1-9-4.5q-2.645 4.016-3.5-1-2.415.975-4.5-1.5 5.535-.637.5-2.5a6.54 6.54 0 0 0-3 3l-1-3-1 1q-1.665-2.614-4.5-4 2.032-1.763-.5-3a68 68 0 0 1-2 4 16.2 16.2 0 0 1-3.5-1.5q3.566-1.461-1-2a9.5 9.5 0 0 1-1.5-2.5q-2.098.826-4 1a14.7 14.7 0 0 0-4.5-3q2.032-1.763-.5-3-1.461 3.567-2-1l-1 2-2-6a9.6 9.6 0 0 1-3 3q-4.647-2.142-6-7a8.9 8.9 0 0 0-3 4q-.476-2.701-2-1a1074 1074 0 0 1-2.5-45q-.25-27.504.5-55A60 60 0 0 1 7.5 41q-.105-1.148-1-1.5a599 599 0 0 0 5.5-8 7.3 7.3 0 0 1 2 3q1.651-2.84 4-2 .426 3.579 3 2 3.875 7.31 11.5 6a4.93 4.93 0 0 0 .5 3l1-1q3.276 2.95 7 2a51 51 0 0 1 4.5 5.5q1.424.925 2.5-.5l2 4q.552-2.115 2.5-3 .294 2.71 3.5 5l1-2q1.865 3.5 5 2 .434 2.316 2 4l1-1q3.988 3.634 8.5 4a3.65 3.65 0 0 0 1.5-1q2.23 1.13.5 2.5 2.743.41 4.5 2.5l1-1q-.085 5.93 5 5 3.327 2.388 5 6l1-2q8.127 4.887 17 4a18.6 18.6 0 0 0 3.5 6.5q1.757.53 3.5-.5 2.26 2.743 5 1 2.046 4.294 6.5 6a4.46 4.46 0 0 0 1.5-2q2.75 3.75 6.5 6.5-6.282.264-12 1.5" style="opacity:1"/><path fill="#505050" d="M251.5 43.5a41.5 41.5 0 0 1 4 12v9a781 781 0 0 1-4-21" style="opacity:1"/><path fill="#535353" d="M3.5 43.5Q-.493 66.33 1 91.5q-.417 1.373-1.5 2v-35a77 77 0 0 1 4-15" style="opacity:1"/><path fill="#424242" d="M255.5 65.5v75q-3.787-18.683-1-37.5a1826 1826 0 0 0-.5-36.5q.575-.835 1.5-1" style="opacity:1"/><path fill="#535353" d="M-.5 104.5a19.6 19.6 0 0 1 2 3.5 829 829 0 0 0 0 45q-.504 1.545-2 1.5z" style="opacity:1"/><path fill="#474747" d="M255.5 141.5v52q-2.619-1.124-3-4 1.08-5.233 2-10.5a170 170 0 0 1-1-23q.8-7.495 2-14.5" style="opacity:1"/><path fill="#4e4e4e" d="M255.5 194.5v14q-2.954 12.956-9.5 25a28.7 28.7 0 0 1-7.5 8q-.166-.925-1-1.5l5-4-1-1 3-2.5q10.475-17.178 9.5-37 .575-.834 1.5-1" style="opacity:1"/><path fill="#434343" d="M-.5 155.5q1.725.436 2 2.5 2.42 9.397-1 18l2 1q-1.11 2.647 0 6l-2 2q2 8 0 16a238 238 0 0 0 7 27.5q-1.935-.837-2.5-3-3.825-10.362-5.5-20z" style="opacity:1"/><path fill="#060606" d="M251.5 43.5a781 781 0 0 0 4 21v1q-.925.165-1.5 1 .434 18.341.5 36.5-2.787 18.818 1 37.5v1q-1.2 7.005-2 14.5-.285 11.44 1 23a349 349 0 0 1-2 10.5q.381 2.876 3 4v1q-.925.166-1.5 1 .975 19.822-9.5 37l-3 2.5 1 1-5 4q.834.575 1 1.5-7.709 2.207-12 9l-5 4h-184q-2.105-2.147-5-3.5a8.4 8.4 0 0 0-4-.5 19.8 19.8 0 0 1-3-5.5q-1.424-.926-2.5.5a14.7 14.7 0 0 0-1.5-5q-5.117-.885-9-4 .165-.925 1-1.5a54 54 0 0 1-6-6.5 238 238 0 0 1-7-27.5q2-8 0-16l2-2q-1.11-3.353 0-6l-2-1q3.42-8.603 1-18-.275-2.064-2-2.5v-1q1.496.045 2-1.5a829 829 0 0 1 0-45 19.6 19.6 0 0 0-2-3.5v-11q1.083-.627 1.5-2-1.493-25.17 2.5-48a9.8 9.8 0 0 0 3-4q.895.352 1 1.5A60 60 0 0 0 5 52.5q-.75 27.496-.5 55a1741 1741 0 0 0 1.5 100q10.053 36.553 47.5 42.5 74.253 1.248 148-.5 41.03-5.28 48.5-46 .75-29.496.5-59 .25-47.502-.5-95a55.7 55.7 0 0 0-4.5-14q1.283-1.19 2.5 1 .216 4.413 3.5 7" style="opacity:1"/><path fill="#aacb31" d="M146.5 162.5q7.71-1.482 16-1a815 815 0 0 1-25 48 41 41 0 0 1-9-.5q-1.373-.417-2-1.5-.166-.925-1-1.5a431 431 0 0 0 9-17.5q6.724-1 13-2a197 197 0 0 0 3-24z" style="opacity:1"/><path fill="#8fbc38" d="M130.5 186.5h17q-6.276 1-13 2a431 431 0 0 1-9 17.5q.834.575 1 1.5-6.4-1.902-9-8 2.993-5.454 6-11a247 247 0 0 0 7-2" style="opacity:1"/><path fill="#77ad3e" d="M130.5 186.5a247 247 0 0 1-7 2 2561 2561 0 0 1-6 11q-5.277-5.277-6-13z" style="opacity:1"/><path fill="#dce420" d="M174.5 164.5a377 377 0 0 1-3 21.5l18 1q11.211 4.68 7.5 16.5-1.494 3.24-4.5 5-21.006.25-42-.5a851 851 0 0 0 22-42.5q.686-1.197 2-1" style="opacity:1"/><path fill="#c5db27" d="M162.5 161.5h7q4.328-.46 8 1-2.29-.11-3 2-1.314-.197-2 1a851 851 0 0 1-22 42.5q20.994.75 42 .5a757 757 0 0 1-55 1 815 815 0 0 0 25-48" style="opacity:1"/><path fill="#669e55" d="M178.5 130.5h1q10.147 11.294 14 26v7q-6.493-9.01-17-13a41.7 41.7 0 0 0 1-9 49.4 49.4 0 0 0 1-11" style="opacity:1"/><path fill="#e3e819" d="M166.5 148.5q5.203.07 10 2 10.507 3.99 17 13-.895.958-2.5 1a67.8 67.8 0 0 0-13.5-2q-3.672-1.46-8-1-6.775-1-14-2a67 67 0 0 0 4.5-10q3.062-1.384 6.5-1" style="opacity:1"/><path fill="#c5dd3c" d="M153.5 146.5q2.398-.401 4 1a145 145 0 0 0-24 1q-2.638 7.623-7 15.5a4.93 4.93 0 0 0 3 .5q-9.549 3.31-20 4-1.368-1.858-.5-4a174 174 0 0 0 7.5-16 278 278 0 0 1 37-2" style="opacity:1"/><path fill="#bbde48" d="M95.5 148.5h21a174 174 0 0 1-7.5 16q-.868 2.142.5 4-8.196 1.886-16 0a112 112 0 0 0-5-2q4.246-9.411 7-18" style="opacity:1"/><path fill="#d5e52a" d="M157.5 147.5q4.82-.465 9 1-3.438-.384-6.5 1a67 67 0 0 1-4.5 10q7.225 1 14 2h-7q-8.29-.482-16 1a447 447 0 0 0-17 2 4.93 4.93 0 0 1-3-.5q4.362-7.877 7-15.5a145 145 0 0 1 24-1" style="opacity:1"/><path fill="#b1d756" d="M75.5 144.5a52 52 0 0 0 7 1 99 99 0 0 0 13 3q-2.754 8.589-7 18a112 112 0 0 1 5 2q-14.32-.11-26-8a52.2 52.2 0 0 1 4.5-13q.634-2.889 3.5-3" style="opacity:1"/><path fill="#7fac50" d="M155.5 136.5v3q7.619-1.546 15 .5l-3 1q2.577.519 5 1.5l1-2a6.85 6.85 0 0 0 4 1 41.7 41.7 0 0 1-1 9 27.6 27.6 0 0 0-10-2q-4.18-1.465-9-1-1.602-1.401-4-1a29.2 29.2 0 0 0 1-9q0-1 1-1" style="opacity:1"/><path fill="#4c9968" d="M154.5 137.5a29.2 29.2 0 0 1-1 9 278 278 0 0 0-37 2h-21a99 99 0 0 1-13-3 284 284 0 0 1 24-1.5q-4.8-.152-9-2 2.337-.315 4-1.5 12.543.248 25-1 14.172-1.824 28-2" style="opacity:1"/><path fill="#3f9e7d" d="M53.5 125.5q3.974 2.46 8 5 12.592 8.697 28 9 5.697 1.475 12 1-1.663 1.185-4 1.5 4.2 1.848 9 2-12.265.256-24 1.5a52 52 0 0 1-7-1l-10-5q-7.596-5.599-12-14" style="opacity:1"/><path fill="#a5d764" d="m65.5 139.5 10 5q-2.866.111-3.5 3a52.2 52.2 0 0 0-4.5 13 36 36 0 0 1-8-6q-1.703-3.367-1.5-7l1 1a17 17 0 0 1 3.5-8q1.238-1.329 3-1" style="opacity:1"/><path fill="#085b4b" d="M181.5 116.5a41 41 0 0 1 5 7 107.3 107.3 0 0 1 7 33q-3.853-14.706-14-26a21.4 21.4 0 0 1 1-7 21.4 21.4 0 0 1 1-7" style="opacity:1"/><path fill="#82a530" d="M159.5 109.5v5q5.3.007 9.5 3l1-1q1.139 2.345 3.5 3a32 32 0 0 0 4.5 5 11 11 0 0 0 2.5-1 21.4 21.4 0 0 0-1 7h-1q-8.445-9.34-21-12 .537-4.784 2-9" style="opacity:1"/><path fill="#85c667" d="M157.5 118.5q12.555 2.66 21 12a49.4 49.4 0 0 1-1 11 6.85 6.85 0 0 1-4-1l-1 2a28 28 0 0 0-5-1.5l3-1q-7.381-2.046-15-.5v-3a168 168 0 0 1 2-18" style="opacity:1"/><path fill="#5bb37a" d="M152.5 117.5a20.7 20.7 0 0 0 5 1 168 168 0 0 0-2 18q-1 0-1 1-13.828.176-28 2 3.681-1.681 8-2.5l-8-1a526 526 0 0 0 26-18.5" style="opacity:1"/><path fill="#51b888" d="M123.5 114.5q14.715-.326 29 3a526 526 0 0 1-26 18.5l8 1q-4.319.819-8 2.5a209 209 0 0 1-25 1q-6.303.475-12-1a77.6 77.6 0 0 0 12-2.5l-10-1a35.2 35.2 0 0 0 10-5 574 574 0 0 0 22-16.5" style="opacity:1"/><path fill="#43bd9d" d="M85.5 108.5a499 499 0 0 0 38 6 574 574 0 0 1-22 16.5 35.2 35.2 0 0 1-10 5l10 1a77.6 77.6 0 0 1-12 2.5q-15.409-.303-28-9 1.225-2.712-2-4.5 2.437-1.28 1-3 3.147 1.476 6-1 9.543-6.765 19-13.5" style="opacity:1"/><path fill="#035f55" d="M159.5 102.5v7q-1.463 4.216-2 9a20.7 20.7 0 0 1-5-1 116 116 0 0 0-29-3 499 499 0 0 1-38-6q-1.757-1.267-4-2-17.833-5.414-28-21-.098-.658.5-1 18.503 16.36 43.5 19.5l-6 2a68 68 0 0 1 13-1 43.4 43.4 0 0 0-8 2q8.973 2.25 18 .5l3 .5-5 1a55.3 55.3 0 0 0 16-.5l4 .5-7 1a161 161 0 0 1 28 3.5q3.058-1.165 2-3.5a924 924 0 0 0 4-7.5" style="opacity:1"/><path fill="#1e1e1e" d="M4.5 107.5q.774 22.47 2.5 45 1.524-1.701 2 1a8.9 8.9 0 0 1 3-4q1.353 4.858 6 7a9.6 9.6 0 0 0 3-3l2 6 1-2q.539 4.567 2 1 2.532 1.237.5 3a14.7 14.7 0 0 1 4.5 3q1.902-.174 4-1 .561 1.375 1.5 2.5 4.566.539 1 2a16.2 16.2 0 0 0 3.5 1.5 68 68 0 0 0 2-4q2.532 1.237.5 3 2.835 1.386 4.5 4l1-1 1 3a6.54 6.54 0 0 1 3-3q5.035 1.863-.5 2.5 2.085 2.475 4.5 1.5.855 5.016 3.5 1l9 4.5-2 1q1.75.75 2.5 2.5 1.676-.247 3.5-1 1.646 5.791 2.5 0 2.519 1.99 4.5 6.5 4.605-1.488 9 1a3.94 3.94 0 0 0-1 2 129 129 0 0 0 3 2l-1 1q2.244.76 3.5-1.5 1.986 2.07 4 1a14.6 14.6 0 0 1 4 6q3.315-1.873 6.5.5-.552 2.21 1.5 4.5.779-1.523 2.5-2 3.845.356 0 1.5 8.88 2.618 14 8.5 1.388-1.712 2.5 0 3.048-3.403 4 2l1-2a34.4 34.4 0 0 0 7 7q1.615-4.933 5.5-1.5l-1 1q2.115.552 3 2.5 1.726 1.846 3.5 0l3 4 1-1q3.022 3.626 6 5 2-2 4 0l1-2q.707 5.709 6 8 1.418-.608 2-2 .629 6.528 2 1 3.67 2.347 7 7 3.089.08 6.5-.5l-1 1 3 1-1 3q4.782 1.974 10 1.5a3655 3655 0 0 1-148 .5Q16.053 244.053 6 207.5a1741 1741 0 0 1-1.5-100" style="opacity:1"/><path fill="#016f65" d="M41.5 64.5a436 436 0 0 1 19 16.5q28.35 19.728 63 16.5 12.51-.25 25 .5a34.4 34.4 0 0 1 11 2.5v2a924 924 0 0 1-4 7.5q1.058 2.335-2 3.5a161 161 0 0 0-28-3.5l7-1-4-.5a55.3 55.3 0 0 1-16 .5l5-1-3-.5q-9.027 1.75-18-.5a43.4 43.4 0 0 1 8-2 68 68 0 0 0-13 1l6-2Q72.503 100.86 54 84.5q-.598.342-.5 1a21.6 21.6 0 0 1-4-5q-4.023-7.053-8-14z" style="opacity:1"/><path fill="#9fc433" d="M183.5 99.5a259 259 0 0 1-2 17 21.4 21.4 0 0 0-1 7q-1.147.635-2.5 1a32 32 0 0 1-4.5-5 11.6 11.6 0 0 1-.5-7l10-20q.745 3.465.5 7" style="opacity:1"/><path fill="#37c7b3" d="M49.5 80.5a21.6 21.6 0 0 0 4 5q10.167 15.586 28 21v3q-6.724 1.744-11.5 7l-1-1q-4.06 4.362-9.5 2-8.985-16.415-12-35 .37-1.82 2-2" style="opacity:1"/><path fill="#9bce6d" d="M41.5 64.5v2q-.514 30.926 12 59 4.404 8.401 12 14-1.762-.329-3 1a17 17 0 0 0-3.5 8l-1-1q-.203 3.633 1.5 7-14.285-14.055-18.5-34-4.971-28.57 0-57 .598.342.5 1" style="opacity:1"/><path fill="#60732b" d="M187.5 75.5h21a2014 2014 0 0 1-22 2q-.257-1.487 1-2" style="opacity:1"/><path fill="#34baa9" d="M41.5 66.5q3.977 6.947 8 14-1.63.18-2 2 3.015 18.585 12 35 5.44 2.362 9.5-2l1 1q4.776-5.256 11.5-7v-3q2.243.733 4 2-9.457 6.735-19 13.5-2.853 2.476-6 1 1.437 1.72-1 3 3.225 1.788 2 4.5-4.026-2.54-8-5-12.514-28.074-12-59" style="opacity:1"/><path fill="#b2d02e" d="M210.5 54.5q3.324 1.054 5.5 4a30.5 30.5 0 0 1 0 11q-2.22 4.976-7.5 6h-10q4.172-11.877 12-21" style="opacity:1"/><path fill="#9cc535" d="M197.5 53.5h10q1.937-.356 3 1-7.828 9.123-12 21h-11a163 163 0 0 1 10-22" style="opacity:1"/><path fill="#87b93c" d="M186.5 53.5h11a163 163 0 0 0-10 22q-1.257.513-1 2-.688 11.313-3 22a25 25 0 0 0-.5-7l-10 20a11.6 11.6 0 0 0 .5 7q-2.361-.655-3.5-3l-1 1q-4.2-2.993-9.5-3v-9a953 953 0 0 0 27-52" style="opacity:1"/><path fill="#6eac43" d="M186.5 53.5a953 953 0 0 1-27 52v-5a3804 3804 0 0 0 3-16 1298 1298 0 0 0 16-30.5 32.4 32.4 0 0 1 8-.5" style="opacity:1"/><path fill="#5b9f49" d="M157.5 53.5v-1q25.262-.495 50 1h-21a32.4 32.4 0 0 0-8 .5 1298 1298 0 0 1-16 30.5q.306-4.527 1-9h-7a179 179 0 0 1 11-21.5 50.4 50.4 0 0 0-10-.5" style="opacity:1"/><path fill="#469751" d="M157.5 53.5q5.025-.247 10 .5a179 179 0 0 0-11 21.5h-7a31 31 0 0 0-2-2 140 140 0 0 0 10-20" style="opacity:1"/><path fill="#338b56" d="M157.5 53.5a140 140 0 0 1-10 20 31 31 0 0 1 2 2q-6.26-.25-11-4a435 435 0 0 1 9-17.5 50.4 50.4 0 0 1 10-.5" style="opacity:1"/><path fill="#1f7c5c" d="M157.5 52.5v1a50.4 50.4 0 0 0-10 .5 435 435 0 0 0-9 17.5q-10.806-6.336-12-19z" style="opacity:1"/><path fill="#707070" d="M7.5 228.5a54 54 0 0 0 6 6.5q-.835.575-1 1.5-3.74-3.236-5-8" style="opacity:1"/><path fill="#393939" d="M12.5 236.5q3.883 3.115 9 4a14.7 14.7 0 0 1 1.5 5q1.076-1.426 2.5-.5a19.8 19.8 0 0 0 3 5.5q-10.335-4.335-16-14" style="opacity:1"/><path fill="#545454" d="M238.5 241.5q-4.377 6.685-12 9 4.291-6.793 12-9m-210 9a8.4 8.4 0 0 1 4 .5q2.895 1.353 5 3.5h-4a22.8 22.8 0 0 1-5-4" style="opacity:1"/></svg>