<svg xmlns="http://www.w3.org/2000/svg" width="256" height="256" fill="none"><g clip-path="url(#a)"><path fill="url(#b)" d="M0 72c0-13.255 10.745-24 24-24h208c13.255 0 24 10.745 24 24v120c0 26.51-21.49 48-48 48H48c-26.51 0-48-21.49-48-48z"/><path fill="url(#c)" d="M24 48C10.745 48 0 58.745 0 72v2.5c0-13.255 10.745-24 24-24h208c13.255 0 24 10.745 24 24V72c0-13.255-10.745-24-24-24z"/><mask id="e" width="132" height="144" x="124" y="48" maskUnits="userSpaceOnUse" style="mask-type:alpha"><path fill="#fff" d="M256 167.901v-.003.102c0 13.255-10.745 24-24 24-10.185 0-18.888-6.344-22.373-15.296l-40.123-96.746C162.903 61.337 145.134 48 124.25 48H232c13.255 0 24 10.745 24 24z"/></mask><g filter="url(#d)" mask="url(#e)" opacity=".5" style="mix-blend-mode:darken"><path fill="#411200" d="M24 48C10.745 48 0 58.745 0 72v120c0 26.51 21.49 48 48 48h160c26.509 0 48-21.49 48-48v-24.102.102c0 13.255-10.745 24-24 24-10.185 0-18.888-6.344-22.373-15.296l-40.123-96.746C162.903 61.337 145.134 48 124.25 48z"/></g><path fill="url(#g)" d="M24 48C10.745 48 0 58.745 0 72v120c0 26.51 21.49 48 48 48h160c26.509 0 48-21.49 48-48v-24.102.102c0 13.255-10.745 24-24 24-10.185 0-18.888-6.344-22.373-15.296l-40.123-96.746C162.903 61.337 145.134 48 124.25 48z"/><path fill="url(#h)" d="M13.322 50.5C16.538 48.9 20.164 48 24 48h100.25c19.302 0 35.943 11.393 43.565 27.821C159.72 60.75 143.806 50.5 125.5 50.5z"/><path fill="url(#i)" d="M255.999 178.166v-7.575.011-.204.012-2.345L256 168l-.001-.065v-.037.204C255.944 181.31 245.22 192 232 192c-8.904 0-16.675-4.848-20.818-12.049 3.592 8.375 11.812 14.295 21.443 14.541 12.932-.331 23.32-10.891 23.374-23.89z"/><mask id="k" width="161" height="192" x="96" y="48" maskUnits="userSpaceOnUse" style="mask-type:alpha"><path fill="#cd2121" d="M208.001 240c26.509 0 48-21.49 48-48v-24.102.204c-.056 13.208-10.78 23.898-24 23.898-10.185 0-18.888-6.344-22.373-15.296l-40.123-96.746C162.903 61.337 145.135 48 124.251 48H96.379l66.866 161.382C170.208 227.3 187.621 240 208.001 240"/></mask><g filter="url(#j)" mask="url(#k)" opacity=".25" style="mix-blend-mode:darken"><path fill="#712d09" d="M59.068 16a36 36 0 0 1 33.258 22.22l70.918 171.162C170.208 227.3 187.621 240 208 240H48c-26.51 0-48-21.49-48-48V40c0-13.255 10.745-24 24-24z"/></g><path fill="url(#l)" d="M59.068 16a36 36 0 0 1 33.258 22.22l70.918 171.162C170.208 227.3 187.621 240 208 240H48c-26.51 0-48-21.49-48-48V40c0-13.255 10.745-24 24-24z"/><path fill="url(#m)" d="M59.068 16a36 36 0 0 1 32.796 21.154A36 36 0 0 0 60.318 18.5H24c-13.255 0-24 10.745-24 24V40c0-13.255 10.745-24 24-24z"/><path fill="url(#n)" d="M163.353 209.659C170.387 227.43 187.726 240 208 240c-24.013 0-37.124-11.266-44.647-30.341"/></g><defs><linearGradient id="b" x1="128" x2="128" y1="48" y2="240" gradientUnits="userSpaceOnUse"><stop stop-color="#b6480e"/><stop offset=".703" stop-color="#a62d01"/></linearGradient><linearGradient id="c" x1="128" x2="128" y1="48" y2="74.5" gradientUnits="userSpaceOnUse"><stop stop-color="#ca5010"/><stop offset="1" stop-color="#ca5010" stop-opacity="0"/></linearGradient><linearGradient id="g" x1="0" x2="0" y1="48" y2="240" gradientUnits="userSpaceOnUse"><stop stop-color="#ffa83d"/><stop offset=".6" stop-color="#d06228"/><stop offset="1" stop-color="#da3b01"/></linearGradient><linearGradient id="h" x1="134.661" x2="134.661" y1="48" y2="194.492" gradientUnits="userSpaceOnUse"><stop stop-color="#ffba66"/><stop offset=".15" stop-color="#ffba66" stop-opacity="0"/><stop offset=".85" stop-color="#df8e64" stop-opacity="0"/><stop offset="1" stop-color="#df8e64"/></linearGradient><linearGradient id="i" x1="134.661" x2="134.661" y1="48" y2="194.492" gradientUnits="userSpaceOnUse"><stop stop-color="#ffba66"/><stop offset=".15" stop-color="#ffba66" stop-opacity="0"/><stop offset=".85" stop-color="#df8e64" stop-opacity="0"/><stop offset="1" stop-color="#df8e64"/></linearGradient><linearGradient id="l" x1="0" x2="0" y1="16" y2="240" gradientUnits="userSpaceOnUse"><stop stop-color="#ffce91"/><stop offset=".697" stop-color="#ffad49"/><stop offset="1" stop-color="#e27c46"/></linearGradient><linearGradient id="m" x1="104" x2="104" y1="16" y2="240" gradientUnits="userSpaceOnUse"><stop stop-color="#ffddb3"/><stop offset=".101" stop-color="#ffddb3" stop-opacity="0"/><stop offset=".85" stop-color="#efc4ad" stop-opacity="0"/><stop offset=".95" stop-color="#efc4ad"/></linearGradient><linearGradient id="n" x1="104" x2="104" y1="16" y2="240" gradientUnits="userSpaceOnUse"><stop stop-color="#ffddb3"/><stop offset=".101" stop-color="#ffddb3" stop-opacity="0"/><stop offset=".85" stop-color="#efc4ad" stop-opacity="0"/><stop offset=".95" stop-color="#efc4ad"/></linearGradient><filter id="d" width="280" height="216" x="-4" y="32" color-interpolation-filters="sRGB" filterUnits="userSpaceOnUse"><feFlood flood-opacity="0" result="BackgroundImageFix"/><feColorMatrix in="SourceAlpha" result="hardAlpha" values="0 0 0 0 0 0 0 0 0 0 0 0 0 0 0 0 0 0 127 0"/><feOffset dx="8" dy="-4"/><feGaussianBlur stdDeviation="6"/><feComposite in2="hardAlpha" operator="out"/><feColorMatrix values="0 0 0 0 0.443137 0 0 0 0 0.176471 0 0 0 0 0.0352941 0 0 0 1 0"/><feBlend in2="BackgroundImageFix" result="effect1_dropShadow_5178_1150"/><feBlend in="SourceGraphic" in2="effect1_dropShadow_5178_1150" result="shape"/></filter><filter id="j" width="232" height="248" x="-4" y="4" color-interpolation-filters="sRGB" filterUnits="userSpaceOnUse"><feFlood flood-opacity="0" result="BackgroundImageFix"/><feColorMatrix in="SourceAlpha" result="hardAlpha" values="0 0 0 0 0 0 0 0 0 0 0 0 0 0 0 0 0 0 127 0"/><feOffset dx="8"/><feGaussianBlur stdDeviation="6"/><feComposite in2="hardAlpha" operator="out"/><feColorMatrix values="0 0 0 0 0.443137 0 0 0 0 0.176471 0 0 0 0 0.0352941 0 0 0 1 0"/><feBlend in2="BackgroundImageFix" result="effect1_dropShadow_5178_1150"/><feBlend in="SourceGraphic" in2="effect1_dropShadow_5178_1150" result="shape"/></filter><clipPath id="a"><path fill="#fff" d="M0 0h256v256H0z"/></clipPath></defs></svg>