<svg xmlns="http://www.w3.org/2000/svg" width="450" height="450" style="shape-rendering:geometricPrecision;text-rendering:geometricPrecision;image-rendering:optimizeQuality;fill-rule:evenodd;clip-rule:evenodd"><path d="M-.5-.5h450v450H-.5z" style="opacity:1"/><path fill="#faf9f9" d="M208.5 82.5q16.008-.25 32 .5 5.498 2.502 6.5 8.5 1 111 0 222-1.25 7.25-8.5 8.5a138.5 138.5 0 0 1-32-1q-4.152-2.643-4.5-7.5-1-111 0-222 1.079-6.189 6.5-9" style="opacity:1"/><path fill="#f9faf9" d="M143.5 148.5q14.508-.25 29 .5 6.363 1.867 7.5 8.5a6159 6159 0 0 1 0 157q-.75 6.75-7.5 7.5-14.5 1-29 0-5.28-.756-7.5-5.5a6477 6477 0 0 1 0-161q1.817-5.75 7.5-7m134 0q14.009-.25 28 .5 6.04.64 7.5 6.5 1 80.5 0 161-2.22 4.744-7.5 5.5-15 1-30 0-5.25-1.25-6.5-6.5a6397 6397 0 0 1 0-160q2.799-5.574 8.5-7m-203 78q16.507-.25 33 .5 3.75 1.75 5.5 5.5a1722 1722 0 0 1 0 83q-1.028 3.836-4.5 5.5a135.7 135.7 0 0 1-32 1q-5.28-.756-7.5-5.5-1-42 0-84 2.04-3.784 5.5-6" style="opacity:1"/><path fill="#f9f9f9" d="M341.5 226.5q16.507-.25 33 .5 3.75 1.75 5.5 5.5a1722 1722 0 0 1 0 83q-1.161 3.659-4.5 5.5a144 144 0 0 1-33 1q-4.624-1.179-6.5-5.5a822 822 0 0 1-1-80q.56-6.798 6.5-10" style="opacity:1"/></svg>