<svg xmlns="http://www.w3.org/2000/svg" xmlns:xlink="http://www.w3.org/1999/xlink" width="128" height="128"><defs><radialGradient xlink:href="#a" id="i" cx="134.2" cy="222.988" r="2" fx="134.2" fy="222.988" gradientTransform="matrix(4 0 0 4 -492.799 -641.952)" gradientUnits="userSpaceOnUse"/><radialGradient xlink:href="#a" id="h" cx="134.2" cy="222.988" r="2" fx="134.2" fy="222.988" gradientTransform="matrix(4 0 0 4 -492.799 -681.952)" gradientUnits="userSpaceOnUse"/><radialGradient xlink:href="#a" id="g" cx="134.2" cy="222.988" r="2" fx="134.2" fy="222.988" gradientTransform="matrix(6 0 0 6 -785.198 -1065.928)" gradientUnits="userSpaceOnUse"/><radialGradient xlink:href="#a" id="f" cx="134.2" cy="222.988" r="2" fx="134.2" fy="222.988" gradientTransform="matrix(6 0 0 6 -785.198 -1153.928)" gradientUnits="userSpaceOnUse"/><radialGradient xlink:href="#a" id="e" cx="134.2" cy="222.988" r="2" fx="134.2" fy="222.988" gradientTransform="matrix(4 0 0 4 -452.799 -681.952)" gradientUnits="userSpaceOnUse"/><radialGradient xlink:href="#a" id="d" cx="134.2" cy="222.988" r="2" fx="134.2" fy="222.988" gradientTransform="matrix(4 0 0 4 -452.799 -641.952)" gradientUnits="userSpaceOnUse"/><radialGradient xlink:href="#a" id="c" cx="134.2" cy="222.988" r="2" fx="134.2" fy="222.988" gradientTransform="matrix(6 0 0 6 -697.198 -1065.928)" gradientUnits="userSpaceOnUse"/><radialGradient xlink:href="#a" id="b" cx="134.2" cy="222.988" r="2" fx="134.2" fy="222.988" gradientTransform="matrix(6 0 0 6 -697.198 -1153.928)" gradientUnits="userSpaceOnUse"/><linearGradient id="a"><stop offset="0" stop-color="#fff"/><stop offset=".4" stop-color="#fff"/><stop offset="1" stop-color="#f6f5f4"/></linearGradient></defs><g transform="translate(0 -172)"><path fill="none" d="M22.352 194.352h82.687v82.687H22.352z" color="#000" font-family="sans-serif" font-weight="400" overflow="visible" style="line-height:normal;font-variant-ligatures:normal;font-variant-position:normal;font-variant-caps:normal;font-variant-numeric:normal;font-variant-alternates:normal;font-feature-settings:normal;text-indent:0;text-align:start;text-decoration-line:none;text-decoration-style:solid;text-decoration-color:#000;text-transform:none;text-orientation:mixed;white-space:normal;shape-padding:0;isolation:auto;mix-blend-mode:normal;solid-color:#000;solid-opacity:1;marker:none"/><g fill="none" stroke="#f6f5f4" stroke-width="8" color="#000"><path d="m84 256 24 24m-24-64 24-24m-64 64-24 24m24-64-24-24m24 24h40v40H44z" overflow="visible" style="marker:none"/><path d="M20 192h88v88H20z" overflow="visible" style="marker:none"/></g><path fill="#d5d3cf" d="M98.5 194v2h-69v-2z" style="marker:none"/><path fill="#d5d3cf" d="M120 192c0 6.627-5.373 12-12 12-1.85 0-3.222-.095-5.165-1.166-1.092-1.726-3.55-4.584-5.668-5.666C96.096 195.224 96 193.85 96 192c0-6.627 5.373-12 12-12s12 5.373 12 12" color="#000" overflow="visible" style="marker:none"/><path fill="#d5d3cf" d="M110 203h2v69h-2z" style="marker:none"/><circle cx="108" cy="280" r="12" fill="#d5d3cf" color="#000" overflow="visible" style="marker:none"/><path fill="#d5d3cf" d="M79 258v2H49v-2zm20.604 16.425-1.414 1.415-15-15 1.415-1.415zm3.454-74.632 1.414 1.414-15 15-1.414-1.414z" style="marker:none"/><circle cx="108" cy="190" r="12" fill="url(#b)" color="#000" overflow="visible" style="marker:none"/><path fill="#d5d3cf" d="M86 222h2v26h-2zm-7-4v2H49v-2z" style="marker:none"/><circle cx="84" cy="216" r="8" fill="#d5d3cf" color="#000" overflow="visible" style="marker:none"/><path fill="#d5d3cf" d="M98.5 282v2h-69v-2z" style="marker:none"/><circle cx="108" cy="278" r="12" fill="url(#c)" color="#000" overflow="visible" style="marker:none"/><path fill="#d5d3cf" d="M92 256c0 .666 0 1-.235 1.932-1.165.59-4.765 4.542-5.787 5.822-.502.246-1.295.246-1.978.246a8 8 0 1 1 8-8" color="#000" overflow="visible" style="marker:none"/><circle cx="84" cy="254" r="8" fill="url(#d)" color="#000" overflow="visible" style="marker:none"/><circle cx="84" cy="214" r="8" fill="url(#e)" color="#000" overflow="visible" style="marker:none"/><path fill="#d5d3cf" d="M22 203h2v69h-2z" style="marker:none"/><circle cx="20" cy="280" r="12" fill="#d5d3cf" color="#000" overflow="visible" style="marker:none"/><path fill="#d5d3cf" d="M46 222h2v26h-2z" style="marker:none"/><circle cx="44" cy="216" r="8" fill="#d5d3cf" color="#000" overflow="visible" style="marker:none"/><path fill="#d5d3cf" d="M43.586 259.586 45 261l-15 15-1.414-1.414z" style="marker:none"/><path fill="#d5d3cf" d="M7.912 192c0 6.627 5.372 12 12 12 1.849 0 3.222-.095 5.165-1.166 1.092-1.726 3.55-4.584 5.668-5.666 1.071-1.944 1.167-3.318 1.167-5.168 0-6.627-5.373-12-12-12-6.628 0-12 5.373-12 12" color="#000" overflow="visible" style="marker:none"/><path fill="#d5d3cf" d="m40.077 214.953-1.414 1.415-15-15 1.415-1.414z" style="marker:none"/><circle cx="20" cy="190" r="12" fill="url(#f)" color="#000" overflow="visible" style="marker:none"/><circle cx="20" cy="278" r="12" fill="url(#g)" color="#000" overflow="visible" style="marker:none"/><circle cx="44" cy="214" r="8" fill="url(#h)" color="#000" overflow="visible" style="marker:none"/><path fill="#d5d3cf" d="M36 256c0 .666 0 1 .235 1.932 1.165.59 4.765 4.542 5.787 5.822.502.246 1.295.246 1.978.246a8 8 0 1 0-8-8" color="#000" overflow="visible" style="marker:none"/><circle cx="44" cy="254" r="8" fill="url(#i)" color="#000" overflow="visible" style="marker:none"/></g></svg>