<svg xmlns="http://www.w3.org/2000/svg" xml:space="preserve" style="fill-rule:evenodd;clip-rule:evenodd;stroke-linejoin:round;stroke-miterlimit:2" viewBox="0 0 33 28"><path id="Artboard1" d="M-2.266-1.049h37.194v29.322H-2.266z" style="fill:none" transform="matrix(.88723 0 0 .95491 2.01 1.002)"/><g transform="translate(.45 1.25)"><path id="green" d="M13.1 2.9H2.2C1 2.9 0 3.9 0 5.1v11.4c0-.3.1-.6.3-.8z" style="fill:#34a853;fill-rule:nonzero"/><path id="blue" d="M29.9 25.5H2.2c-1.2 0-2.2-1-2.2-2.2v-6.8c0-.3.1-.6.3-.8L15.7.3c.2-.2.5-.3.8-.3h13.4c1.2 0 2.2 1 2.2 2.2v21.2c0 1.2-1 2.1-2.2 2.1" style="fill:#4285f4;fill-rule:nonzero"/><path id="red" d="M15.7.3.3 15.7c-.2.2-.3.5-.3.8v.1c0-.3.2-.5.5-.5h13.3c1.2 0 2.2-1 2.2-2.2V.6c0-.3.2-.5.5-.6h-.1c-.2 0-.5.1-.7.3" style="fill:#ea4335;fill-rule:nonzero"/><path id="yellow" d="M0 16.6c0-.4.3-.8.7-.9l9.7-3.1c1-.3 1.8-1.1 2.1-2.1L15.6.8c.1-.4.5-.7 1-.7h-.1c-.3 0-.6.1-.8.3L.3 15.7q-.3.3-.3.9" style="fill:#fbbc04;fill-rule:nonzero"/></g></svg>