<svg xmlns="http://www.w3.org/2000/svg" xmlns:xlink="http://www.w3.org/1999/xlink" xml:space="preserve" width="500pt" height="500pt"><defs><radialGradient xlink:href="#a" id="b" cx=".492" cy=".484" r=".713" fx=".492" fy=".484"/><linearGradient id="a"><stop offset="0" style="stop-color:#7f7f7f;stop-opacity:1"/><stop offset="1" style="stop-color:#000;stop-opacity:0"/></linearGradient></defs><path d="M156.01 324.29h48.596" style="font-size:12;fill:none;fill-rule:evenodd;stroke:#000;stroke-width:1.036376"/><path d="m239.752 190.823-35.146.246 1.676 265.604 32.38-.05" style="fill:none;fill-rule:evenodd;stroke:#000;stroke-opacity:1;stroke-width:12.5;stroke-linejoin:miter;stroke-linecap:butt;fill-opacity:1;stroke-dasharray:none"/><path d="M155.172 333.506h53.624" style="font-size:12;fill:none;fill-rule:evenodd;stroke:#000;stroke-width:13.13064;stroke-opacity:.2695"/><path d="m465.48 398.86-34.353-.101.542 133.322 34.107.195" style="fill:none;fill-rule:evenodd;stroke:#000;stroke-opacity:.2695;stroke-width:12.5;stroke-linejoin:miter;stroke-linecap:butt;fill-opacity:1;stroke-dasharray:none"/><path d="M367.153 199.448h56.975" style="font-size:12;fill:none;fill-rule:evenodd;stroke:#000;stroke-width:13.30727;stroke-opacity:.2695"/><path d="m466.42 119.9-36.427-.05.736 133.517 33.566-.05" style="fill:none;fill-rule:evenodd;stroke:#000;stroke-opacity:.2695;stroke-width:12.5;stroke-linejoin:miter;stroke-linecap:butt;fill-opacity:1;stroke-dasharray:none"/><path d="M364.885 465.052h60.145" style="font-size:12;fill:none;fill-rule:evenodd;stroke:#000;stroke-width:13.59266;stroke-opacity:.2695"/><path d="m453.851 110.684-36.426-.05.736 133.517 33.566-.051" style="fill:none;fill-rule:evenodd;stroke:#000;stroke-opacity:1;stroke-width:12.5;stroke-linejoin:miter;stroke-linecap:butt;fill-opacity:1;stroke-dasharray:none"/><path d="M370.504 190.23h50.272m-50.864 266.443h50.864" style="font-size:12;fill:none;fill-rule:evenodd;stroke:#000;stroke-width:12.5;stroke-dasharray:none"/><path d="m452.912 389.644-34.353-.102.542 133.323 34.107.194" style="fill:none;fill-rule:evenodd;stroke:#000;stroke-opacity:1;stroke-width:12.5;stroke-linejoin:miter;stroke-linecap:butt;fill-opacity:1;stroke-dasharray:none"/><path d="m251.823 200.04-34.649.245 1.676 265.605 32.38-.051" style="fill:none;fill-rule:evenodd;stroke:#000;stroke-opacity:.2695;stroke-width:12.5;stroke-linejoin:miter;stroke-linecap:butt;fill-opacity:1;stroke-dasharray:none"/><path d="M156.01 325.128h46.083" style="fill:none;fill-rule:evenodd;stroke:#000;stroke-opacity:1;stroke-width:12.5;stroke-linejoin:miter;stroke-linecap:butt;fill-opacity:1;stroke-dasharray:none"/><path d="m152.47 221.436 105.624 47.73" style="fill:#70d4bc;fill-rule:evenodd;stroke:none;stroke-opacity:1;stroke-width:0;stroke-linejoin:miter;stroke-linecap:square;stroke-dasharray:none;fill-opacity:1"/><path d="M211.973 452.367c-.02.026 25.99.081 25.99.081h0" style="font-size:12;fill:#d7d7d7;fill-rule:evenodd;stroke:#b8b8b8;stroke-width:1.875;stroke-linecap:square;stroke-dasharray:none"/><path d="M201.99 460.65c.026.103-.832-129.475-.832-129.475v-.003" style="font-size:12;fill:#d7d7d7;fill-rule:evenodd;stroke:#b8b8b8;stroke-width:1.865471;stroke-linecap:square;stroke-opacity:1"/><path d="M201.208 320.025c.027.106-.832-132.99-.832-132.99v-.002m-.046-.101c-.03.026 38.238-.288 38.238-.288h0M157.24 321.283c-.035.026 43.983-.288 43.983-.288h.001" style="font-size:12;fill:#d7d7d7;fill-rule:evenodd;stroke:#b8b8b8;stroke-width:1.875;stroke-linecap:square;stroke-dasharray:none;stroke-opacity:1"/><path d="M414.022 185.65c.027.062-.832-79.085-.832-79.085v-.002" style="font-size:12;fill:#d7d7d7;fill-rule:evenodd;stroke:#b8b8b8;stroke-width:1.869468;stroke-linecap:square"/><path d="M414.705 106.619c-.03.027 38.239-.288 38.239-.288h0" style="font-size:12;fill:#d7d7d7;fill-rule:evenodd;stroke:#b8b8b8;stroke-width:1.875;stroke-linecap:square;stroke-dasharray:none;stroke-opacity:1"/><path d="M371.616 186.594c-.033.027 42.42-.287 42.42-.287h.002" style="font-size:12;fill:#d7d7d7;fill-rule:evenodd;stroke:#b8b8b8;stroke-width:1.841395;stroke-linecap:square"/><path d="M247.502 151.234h136.532v99.2H247.502z" style="font-size:12;fill:url(#b);fill-rule:evenodd;stroke:none;stroke-width:0;stroke-dashoffset:5;stroke-opacity:1;stroke-dasharray:none;fill-opacity:.2908"/><path d="M423.713 239.888c-.022.026 27.47.082 27.47.082h0" style="font-size:12;fill:#d7d7d7;fill-rule:evenodd;stroke:#b8b8b8;stroke-width:1.875;stroke-linecap:square;stroke-dasharray:none"/><path d="M414.028 247.86c.027.04-.205-51.26-.205-51.26v-.001" style="font-size:12;fill:#d7d7d7;fill-rule:evenodd;stroke:#b8b8b8;stroke-width:1.874993;stroke-linecap:square"/><path d="M414.718 452.26c.027.054-.25-66.714-.25-66.714v-.001" style="font-size:12;fill:#d7d7d7;fill-rule:evenodd;stroke:#b8b8b8;stroke-width:1.874995;stroke-linecap:square"/><path d="M415.249 385.636c-.03.047 36.916-.134 36.916-.134h0" style="font-size:12;fill:#d7d7d7;fill-rule:evenodd;stroke:#b8b8b8;stroke-width:1.875;stroke-linecap:square;stroke-dasharray:none"/><path d="M371.278 452.761c-.033.027 42.421-.288 42.421-.288h.001" style="font-size:12;fill:#d7d7d7;fill-rule:evenodd;stroke:#b8b8b8;stroke-width:1.841395;stroke-linecap:square"/><path d="M424.674 518.715c-.022.026 27.626.082 27.626.082h0m-36.841 8.046c.027.051-.205-64.297-.205-64.297v-.002" style="font-size:12;fill:#d7d7d7;fill-rule:evenodd;stroke:#b8b8b8;stroke-width:1.875;stroke-linecap:square;stroke-dasharray:none"/><path d="M246.252 419.361h136.532v99.2H246.252zM31.251 286.235h136.532v99.2H31.251zM460.004 69.358h136.532v99.2H460.004zm-1.25 135.001h136.532v99.2H458.754zm.625 144.376h136.532v99.2H459.379zm.625 135.001h136.532v99.2H460.004z" style="font-size:12;fill:url(#b);fill-rule:evenodd;stroke:none;stroke-width:0;stroke-dashoffset:5;stroke-opacity:1;stroke-dasharray:none;fill-opacity:.2908"/><g style="font-size:12"><path d="M290.74 182.763h118.977v81.273H290.74z" style="font-size:12;fill:#ead4bc;fill-rule:evenodd;stroke:#b39166;stroke-width:12.5;stroke-dashoffset:5;fill-opacity:1;stroke-dasharray:none" transform="translate(168.985 300.164)"/><path d="m284.499 176.512 131.434-.002-12.516 12.523-106.475-.044z" style="fill:#d4b993;fill-rule:evenodd;stroke:none;stroke-opacity:1;stroke-width:0;stroke-linejoin:miter;stroke-linecap:square;stroke-dasharray:none;fill-opacity:1" transform="translate(168.985 300.164)"/><path d="m284.556 176.58 12.374 12.374-.055 68.722-12.32 12.43z" style="fill:#b39a7d;fill-rule:evenodd;stroke:none;stroke-opacity:1;stroke-width:0;stroke-linejoin:miter;stroke-linecap:square;stroke-dasharray:none;fill-opacity:1" transform="translate(168.985 300.164)"/><path d="m415.993 176.736-12.375 12.375.056 68.722 12.319 12.43z" style="fill:#887058;fill-rule:evenodd;stroke:none;stroke-opacity:1;stroke-width:0;stroke-linejoin:miter;stroke-linecap:square;stroke-dasharray:none;fill-opacity:1" transform="translate(168.985 300.164)"/><path d="m416.09 270.28-131.435.003 12.516-12.523 106.475.043z" style="fill:#695144;fill-rule:evenodd;stroke:none;stroke-opacity:1;stroke-width:0;stroke-linejoin:miter;stroke-linecap:square;stroke-dasharray:none;fill-opacity:1" transform="translate(168.985 300.164)"/></g><g style="font-size:12"><path d="M290.74 182.763h118.977v81.273H290.74z" style="font-size:12;fill:#ead4bc;fill-rule:evenodd;stroke:#b39166;stroke-width:12.5;stroke-dashoffset:5;fill-opacity:1;stroke-dasharray:none" transform="translate(168.36 166.413)"/><path d="m284.499 176.512 131.434-.002-12.516 12.523-106.475-.044z" style="fill:#d4b993;fill-rule:evenodd;stroke:none;stroke-opacity:1;stroke-width:0;stroke-linejoin:miter;stroke-linecap:square;stroke-dasharray:none;fill-opacity:1" transform="translate(168.36 166.413)"/><path d="m284.556 176.58 12.374 12.374-.055 68.722-12.32 12.43z" style="fill:#b39a7d;fill-rule:evenodd;stroke:none;stroke-opacity:1;stroke-width:0;stroke-linejoin:miter;stroke-linecap:square;stroke-dasharray:none;fill-opacity:1" transform="translate(168.36 166.413)"/><path d="m415.993 176.736-12.375 12.375.056 68.722 12.319 12.43z" style="fill:#887058;fill-rule:evenodd;stroke:none;stroke-opacity:1;stroke-width:0;stroke-linejoin:miter;stroke-linecap:square;stroke-dasharray:none;fill-opacity:1" transform="translate(168.36 166.413)"/><path d="m416.09 270.28-131.435.003 12.516-12.523 106.475.043z" style="fill:#695144;fill-rule:evenodd;stroke:none;stroke-opacity:1;stroke-width:0;stroke-linejoin:miter;stroke-linecap:square;stroke-dasharray:none;fill-opacity:1" transform="translate(168.36 166.413)"/></g><g style="font-size:12"><path d="M290.74 182.763h118.977v81.273H290.74z" style="font-size:12;fill:#ead4bc;fill-rule:evenodd;stroke:#b39166;stroke-width:12.5;stroke-dashoffset:5;fill-opacity:1;stroke-dasharray:none" transform="translate(167.423 20.787)"/><path d="m284.499 176.512 131.434-.002-12.516 12.523-106.475-.044z" style="fill:#d4b993;fill-rule:evenodd;stroke:none;stroke-opacity:1;stroke-width:0;stroke-linejoin:miter;stroke-linecap:square;stroke-dasharray:none;fill-opacity:1" transform="translate(167.423 20.787)"/><path d="m284.556 176.58 12.374 12.374-.055 68.722-12.32 12.43z" style="fill:#b39a7d;fill-rule:evenodd;stroke:none;stroke-opacity:1;stroke-width:0;stroke-linejoin:miter;stroke-linecap:square;stroke-dasharray:none;fill-opacity:1" transform="translate(167.423 20.787)"/><path d="m415.993 176.736-12.375 12.375.056 68.722 12.319 12.43z" style="fill:#887058;fill-rule:evenodd;stroke:none;stroke-opacity:1;stroke-width:0;stroke-linejoin:miter;stroke-linecap:square;stroke-dasharray:none;fill-opacity:1" transform="translate(167.423 20.787)"/><path d="m416.09 270.28-131.435.003 12.516-12.523 106.475.043z" style="fill:#695144;fill-rule:evenodd;stroke:none;stroke-opacity:1;stroke-width:0;stroke-linejoin:miter;stroke-linecap:square;stroke-dasharray:none;fill-opacity:1" transform="translate(167.423 20.787)"/></g><g style="font-size:12"><path d="M290.74 182.763h118.977v81.273H290.74z" style="font-size:12;fill:#ead4bc;fill-rule:evenodd;stroke:#b39166;stroke-width:12.5;stroke-dashoffset:5;fill-opacity:1;stroke-dasharray:none" transform="translate(169.454 -114.213)"/><path d="m284.499 176.512 131.434-.002-12.516 12.523-106.475-.044z" style="fill:#d4b993;fill-rule:evenodd;stroke:none;stroke-opacity:1;stroke-width:0;stroke-linejoin:miter;stroke-linecap:square;stroke-dasharray:none;fill-opacity:1" transform="translate(169.454 -114.213)"/><path d="m284.556 176.58 12.374 12.374-.055 68.722-12.32 12.43z" style="fill:#b39a7d;fill-rule:evenodd;stroke:none;stroke-opacity:1;stroke-width:0;stroke-linejoin:miter;stroke-linecap:square;stroke-dasharray:none;fill-opacity:1" transform="translate(169.454 -114.213)"/><path d="m415.993 176.736-12.375 12.375.056 68.722 12.319 12.43z" style="fill:#887058;fill-rule:evenodd;stroke:none;stroke-opacity:1;stroke-width:0;stroke-linejoin:miter;stroke-linecap:square;stroke-dasharray:none;fill-opacity:1" transform="translate(169.454 -114.213)"/><path d="m416.09 270.28-131.435.003 12.516-12.523 106.475.043z" style="fill:#695144;fill-rule:evenodd;stroke:none;stroke-opacity:1;stroke-width:0;stroke-linejoin:miter;stroke-linecap:square;stroke-dasharray:none;fill-opacity:1" transform="translate(169.454 -114.213)"/></g><g style="font-size:12"><path d="M290.74 182.763h118.977v81.273H290.74z" style="font-size:12;fill:#ead4bc;fill-rule:evenodd;stroke:#b39166;stroke-width:12.5;stroke-dashoffset:5;fill-opacity:1;stroke-dasharray:none" transform="translate(-45.391 -32.963)"/><path d="m284.499 176.512 131.434-.002-12.516 12.523-106.475-.044z" style="fill:#d4b993;fill-rule:evenodd;stroke:none;stroke-opacity:1;stroke-width:0;stroke-linejoin:miter;stroke-linecap:square;stroke-dasharray:none;fill-opacity:1" transform="translate(-45.391 -32.963)"/><path d="m284.556 176.58 12.374 12.374-.055 68.722-12.32 12.43z" style="fill:#b39a7d;fill-rule:evenodd;stroke:none;stroke-opacity:1;stroke-width:0;stroke-linejoin:miter;stroke-linecap:square;stroke-dasharray:none;fill-opacity:1" transform="translate(-45.391 -32.963)"/><path d="m415.993 176.736-12.375 12.375.056 68.722 12.319 12.43z" style="fill:#887058;fill-rule:evenodd;stroke:none;stroke-opacity:1;stroke-width:0;stroke-linejoin:miter;stroke-linecap:square;stroke-dasharray:none;fill-opacity:1" transform="translate(-45.391 -32.963)"/><path d="m416.09 270.28-131.435.003 12.516-12.523 106.475.043z" style="fill:#695144;fill-rule:evenodd;stroke:none;stroke-opacity:1;stroke-width:0;stroke-linejoin:miter;stroke-linecap:square;stroke-dasharray:none;fill-opacity:1" transform="translate(-45.391 -32.963)"/></g><g style="font-size:12"><path d="M290.74 182.763h118.977v81.273H290.74z" style="font-size:12;fill:#ead4bc;fill-rule:evenodd;stroke:#b39166;stroke-width:12.5;stroke-dashoffset:5;fill-opacity:1;stroke-dasharray:none" transform="translate(-45.722 234.538)"/><path d="m284.499 176.512 131.434-.002-12.516 12.523-106.475-.044z" style="fill:#d4b993;fill-rule:evenodd;stroke:none;stroke-opacity:1;stroke-width:0;stroke-linejoin:miter;stroke-linecap:square;stroke-dasharray:none;fill-opacity:1" transform="translate(-45.722 234.538)"/><path d="m284.556 176.58 12.374 12.374-.055 68.722-12.32 12.43z" style="fill:#b39a7d;fill-rule:evenodd;stroke:none;stroke-opacity:1;stroke-width:0;stroke-linejoin:miter;stroke-linecap:square;stroke-dasharray:none;fill-opacity:1" transform="translate(-45.722 234.538)"/><path d="m415.993 176.736-12.375 12.375.056 68.722 12.319 12.43z" style="fill:#887058;fill-rule:evenodd;stroke:none;stroke-opacity:1;stroke-width:0;stroke-linejoin:miter;stroke-linecap:square;stroke-dasharray:none;fill-opacity:1" transform="translate(-45.722 234.538)"/><path d="m416.09 270.28-131.435.003 12.516-12.523 106.475.043z" style="fill:#695144;fill-rule:evenodd;stroke:none;stroke-opacity:1;stroke-width:0;stroke-linejoin:miter;stroke-linecap:square;stroke-dasharray:none;fill-opacity:1" transform="translate(-45.722 234.538)"/></g><g style="font-size:12"><path d="M290.74 182.763h118.977v81.273H290.74z" style="font-size:12;fill:#ead4bc;fill-rule:evenodd;stroke:#b39166;stroke-width:12.5;stroke-dashoffset:5;fill-opacity:1;stroke-dasharray:none" transform="translate(-259.767 101.413)"/><path d="m284.499 176.512 131.434-.002-12.516 12.523-106.475-.044z" style="fill:#d4b993;fill-rule:evenodd;stroke:none;stroke-opacity:1;stroke-width:0;stroke-linejoin:miter;stroke-linecap:square;stroke-dasharray:none;fill-opacity:1" transform="translate(-259.767 101.413)"/><path d="m284.556 176.58 12.374 12.374-.055 68.722-12.32 12.43z" style="fill:#b39a7d;fill-rule:evenodd;stroke:none;stroke-opacity:1;stroke-width:0;stroke-linejoin:miter;stroke-linecap:square;stroke-dasharray:none;fill-opacity:1" transform="translate(-259.767 101.413)"/><path d="m415.993 176.736-12.375 12.375.056 68.722 12.319 12.43z" style="fill:#887058;fill-rule:evenodd;stroke:none;stroke-opacity:1;stroke-width:0;stroke-linejoin:miter;stroke-linecap:square;stroke-dasharray:none;fill-opacity:1" transform="translate(-259.767 101.413)"/><path d="m416.09 270.28-131.435.003 12.516-12.523 106.475.043z" style="fill:#695144;fill-rule:evenodd;stroke:none;stroke-opacity:1;stroke-width:0;stroke-linejoin:miter;stroke-linecap:square;stroke-dasharray:none;fill-opacity:1" transform="translate(-259.767 101.413)"/></g></svg>