<svg xmlns="http://www.w3.org/2000/svg" width="32.657" height="30" fill="none"><path fill="url(#a)" fill-rule="evenodd" d="M14.29 29.632.857 23.453c-1.144-.54-1.144-1.373 0-1.863l4.676-2.158 8.705 4.021c1.145.54 2.985.54 4.08 0l8.705-4.021L31.7 21.59c1.144.54 1.144 1.373 0 1.863l-13.431 6.18c-1.045.49-2.885.49-3.98 0" clip-rule="evenodd" style="fill:url(#a)"/><path fill="url(#b)" fill-rule="evenodd" d="M14.29 22.031.857 15.852c-1.144-.54-1.144-1.373 0-1.863l4.577-2.11 8.854 4.071c1.144.54 2.985.54 4.08 0l8.854-4.07 4.576 2.109c1.144.539 1.144 1.373 0 1.863l-13.43 6.18c-1.145.538-2.985.538-4.08 0" clip-rule="evenodd" style="fill:url(#b)"/><path fill="url(#c)" fill-rule="evenodd" d="M14.29 14.626.857 8.447c-1.144-.54-1.144-1.373 0-1.863L14.29.404c1.144-.539 2.985-.539 4.08 0l13.43 6.18c1.144.539 1.144 1.373 0 1.863l-13.43 6.179c-1.145.49-2.985.49-4.08 0" clip-rule="evenodd" style="fill:url(#c)"/><defs><linearGradient id="a" x1="16.317" x2="16.317" y1="35.489" y2="12.93" gradientTransform="translate(46)" gradientUnits="userSpaceOnUse"><stop stop-color="#FCC2B1"/><stop offset=".885" stop-color="#D9420B"/></linearGradient><linearGradient id="b" x1="16.317" x2="16.317" y1="25.722" y2="10.886" gradientTransform="translate(46)" gradientUnits="userSpaceOnUse"><stop stop-color="#DEEDC9"/><stop offset=".661" stop-color="#8BBA25"/></linearGradient><linearGradient id="c" x1="16.317" x2="16.317" y1="19.714" y2="-.475" gradientTransform="translate(46)" gradientUnits="userSpaceOnUse"><stop stop-color="#C2EBFA"/><stop offset="1" stop-color="#26A8DE"/></linearGradient></defs></svg>