<svg xmlns="http://www.w3.org/2000/svg" width="64" height="64"><circle cx="32" cy="33" r="28" style="opacity:.2"/><circle cx="32" cy="32" r="28" style="fill:#0068ce"/><path d="m43.454 14-6.11 6.078 7.544 7.507L51 21.505zm.403 3.215 1.537 1.527-1.262 1.249-1.532-1.527zm2.338 2.325 1.54 1.53-1.26 1.248-1.537-1.527zm-12.544.265L13.808 39.532a2.74 2.74 0 0 0 0 3.888l7.825 7.775a2.776 2.776 0 0 0 3.91 0L45.386 31.47Zm3.205 8.48-.771 2.868-.756-.75-7.07 7.027 3.749.1c.28-.03.568-.144.782-.347l1.476-1.466-.612-.61 1.83-1.82 1.83 1.82-1.83 1.822-.613-.613-1.458 1.45c-.41.408-1.064.61-1.601.62l-3.974-.108c-.278.03-.568.145-.782.347l-2.298 2.288-.008.008-1.041 1.033a2.14 2.14 0 0 1-.27 2.71 2.175 2.175 0 0 1-3.06 0 2.14 2.14 0 0 1 0-3.04 2.17 2.17 0 0 1 2.725-.271l1.058-1.053c.203-.212.322-.5.352-.776l-.111-3.952h.003c.01-.534.213-1.184.623-1.59l1.51-1.504a1.28 1.28 0 0 1 .25-1.466 1.3 1.3 0 0 1 1.829 0 1.283 1.283 0 0 1 0 1.821c-.4.397-.993.474-1.474.244-.184.184-.685.683-1.53 1.522a1.36 1.36 0 0 0-.35.779l.104 3.724 9.357-9.301-.755-.748z" style="opacity:.2"/><path d="m43.454 13-6.11 6.078 7.544 7.507L51 20.505zm.403 3.215 1.537 1.527-1.262 1.249-1.532-1.527zm2.338 2.325 1.54 1.53-1.26 1.248-1.537-1.527zm-12.544.265L13.808 38.532a2.74 2.74 0 0 0 0 3.888l7.825 7.775a2.776 2.776 0 0 0 3.91 0L45.386 30.47Zm3.205 8.48-.771 2.868-.756-.75-7.07 7.027 3.749.1c.28-.03.568-.144.782-.347l1.476-1.466-.612-.61 1.83-1.82 1.83 1.82-1.83 1.822-.613-.613-1.458 1.45c-.41.408-1.064.61-1.601.62l-3.974-.108c-.278.03-.568.145-.782.347l-2.298 2.288-.008.008-1.041 1.033a2.14 2.14 0 0 1-.27 2.71 2.175 2.175 0 0 1-3.06 0 2.14 2.14 0 0 1 0-3.04 2.17 2.17 0 0 1 2.725-.271l1.058-1.053c.203-.212.322-.5.352-.776l-.111-3.952h.003c.01-.534.213-1.184.623-1.59l1.51-1.504a1.28 1.28 0 0 1 .25-1.466 1.3 1.3 0 0 1 1.829 0 1.283 1.283 0 0 1 0 1.821c-.4.397-.993.474-1.474.244-.184.184-.685.683-1.53 1.522a1.36 1.36 0 0 0-.35.779l.104 3.724 9.357-9.301-.755-.748z" style="fill:#fff"/><path d="M32 4A28 28 0 0 0 4 32a28 28 0 0 0 .033.482A28 28 0 0 1 32 5a28 28 0 0 1 27.982 27.242L60 32A28 28 0 0 0 32 4" style="opacity:.2;fill:#fff"/></svg>