<svg xmlns="http://www.w3.org/2000/svg" width="128" height="54"><path d="M0 0v54h128V0z" style="fill:#040404;stroke:none"/><path d="M9 7c2.878 10.522 7.65 27.039 14.363 35.682 2.066 2.66 7.256 3.159 10.219 1.715 3.248-1.584 4.529-7.325 5.84-10.397C43.262 24.996 47.284 16.055 51 7 36.199 7 34.839 18.528 30 31 24.296 18.806 24.338 7 9 7" style="fill:#702a3c;stroke:none"/><path d="m51 7 2 8h2c-.271 5.94 6.165 25.467 11.47 28.972C69.238 45.8 73.842 45 77 45L66 17l-8-3 6-1c-2.824-6.213-6.757-6-13-6" style="fill:#9ea3a4;stroke:none"/><path d="M61 7c1.602 3.777 2.78 6.275 7 7v1l-3 1c2.606 7.703 6.091 21.586 11.843 27.397 7.235 7.31 14.949-3.654 14.949-10.397 0-8.179-6.627-17.069-8.792-25l-6 11h-1C74.174 8.723 69.746 9.082 61 7" style="fill:#615e62;stroke:none"/><path d="M62 7v1h10z" style="fill:#702a3c;stroke:none"/><path d="m82 7 9.834 25 5.815 11.972L108 45c-4.385-12.962-8.623-22.13-18-31l5-1-2-6z" style="fill:#9ea3a4;stroke:none"/><path d="M93 7v1h11z" style="fill:#702a3c;stroke:none"/><path d="m50 8-7 17 11-1c-4.511 11.63-5.435 19-19 19v2c5.47 0 15.895 2.01 20.606-1.028C66.415 37.004 56.104 14.918 50 8m43 0c1.114 3.63 2.17 5.342 6 6l-3 2c5.154 13.287 6.952 29 23 29-2.124-7.766-6.411-23.17-13-28 .38-8.978-5.73-9-13-9" style="fill:#615e62;stroke:none"/><path d="m73 11 1 1z" style="fill:#9ea3a4;stroke:none"/><path d="m84 12 1 1zm-31 1 1 1zm5 1 7 3-1-4zm32 0 6 3-1-4z" style="fill:#c9cccd;stroke:none"/><path d="m105 13 1 1zm-41 1v1h4z" style="fill:#9ea3a4;stroke:none"/><path d="m85 14 1 1z" style="fill:#c9cccd;stroke:none"/><path d="M95 14v1l4 1z" style="fill:#9ea3a4;stroke:none"/><path d="m54 15 1 1z" style="fill:#c9cccd;stroke:none"/><path d="m106 16 1 1z" style="fill:#9ea3a4;stroke:none"/><path d="m86 17 1 1zm-10 1 1 1z" style="fill:#c9cccd;stroke:none"/><path d="m108 19 1 1zm-21 2 1 1z" style="fill:#702a3c;stroke:none"/><path d="M36 43c12.729 0 14.81-7.335 18-19-12.165.001-14.97 7.925-18 19m43-19 3 7 3-7z" style="fill:#9ea3a4;stroke:none"/><path d="m42 26 1 1zm-1 3 1 1zm-1 2 1 1zm-1 2 1 1z" style="fill:#615e62;stroke:none"/><path d="m61 34 1 1zm1 2 1 1z" style="fill:#c9cccd;stroke:none"/><path d="m37 38 1 1zm57 0 1 1zm-58 2 1 1zm28 1 1 1z" style="fill:#615e62;stroke:none"/></svg>