<?xml version="1.0" encoding="UTF-8" standalone="no"?>
<svg
   xmlns:dc="http://purl.org/dc/elements/1.1/"
   xmlns:cc="http://creativecommons.org/ns#"
   xmlns:rdf="http://www.w3.org/1999/02/22-rdf-syntax-ns#"
   xmlns:svg="http://www.w3.org/2000/svg"
   xmlns="http://www.w3.org/2000/svg"
   viewBox="0 0 853.33331 640"
   height="640"
   width="853.33331"
   xml:space="preserve"
   id="svg2"
   version="1.1"><metadata
     id="metadata8"><rdf:RDF><cc:Work
         rdf:about=""><dc:format>image/svg+xml</dc:format><dc:type
           rdf:resource="http://purl.org/dc/dcmitype/StillImage" /></cc:Work></rdf:RDF></metadata><defs
     id="defs6"><clipPath
       id="clipPath18"
       clipPathUnits="userSpaceOnUse"><path
         id="path16"
         d="M 0,480 H 640 V 0 H 0 Z" /></clipPath></defs><g
     transform="matrix(1.3333333,0,0,-1.3333333,0,640)"
     id="g10"><g
       id="g12"><g
         clip-path="url(#clipPath18)"
         id="g14"><g
           transform="translate(336.7324,363.0806)"
           id="g20"><path
             id="path22"
             style="fill:#ffffff;fill-opacity:1;fill-rule:nonzero;stroke:none"
             d="m 0,0 c -0.466,-1.229 -0.851,-2.497 -0.921,-3.819 -5.563,-23.514 -11.138,-47.03 -16.587,-70.571 11.82,-0.022 23.64,0.011 35.459,-0.006 C 12.399,-51.082 6.662,-27.816 1.1,-4.507 0.84,-2.979 0.455,-1.479 0,0 m -28.737,28.504 c 19.224,0.005 38.455,0.059 57.679,-0.027 17.275,-57.582 34.745,-115.104 52.03,-172.681 -14.669,0.017 -29.338,-0.048 -44.007,0.033 -3.359,12.085 -6.793,24.149 -10.157,36.228 -0.282,0.509 -0.12,1.717 -1.04,1.441 -17.069,0.033 -34.143,0.011 -51.211,0.011 -3.213,-12.551 -6.468,-25.092 -9.583,-37.67 -14.36,-0.091 -28.721,-0.059 -43.081,-0.015 16.479,57.554 32.946,115.114 49.37,172.68" /></g><g
           transform="translate(258.2358,114.5088)"
           id="g24"><path
             id="path26"
             style="fill:#ffffff;fill-opacity:1;fill-rule:nonzero;stroke:none"
             d="m 0,0 c 5.335,4.772 12.762,6.431 19.761,6.252 6.451,-0.093 13.342,-1.55 18.19,-6.084 4.106,-3.743 5.937,-9.371 6.083,-14.81 -5.033,-0.016 -10.059,-0.01 -15.092,0 -0.194,3.24 -1.598,6.755 -4.755,8.131 -4.128,1.766 -9.643,1.327 -12.709,-2.226 -1.934,-2.286 -2.546,-5.373 -2.562,-8.293 -0.043,-7.032 -0.005,-14.063 -0.021,-21.094 -0.012,-2.898 0.249,-5.959 1.857,-8.456 1.55,-2.529 4.48,-3.959 7.389,-4.106 2.936,-0.178 6.219,0.314 8.359,2.525 1.852,1.923 2.339,4.68 2.551,7.242 5.092,-0.017 10.189,0.022 15.281,-0.021 -0.385,-5.64 -2.091,-11.544 -6.354,-15.494 -4.989,-4.696 -12.129,-6.023 -18.759,-6.066 -7.08,-0.185 -14.55,1.814 -19.718,6.868 -4.723,4.496 -6.998,11.078 -7.096,17.508 -0.027,6.663 -0.016,13.331 -0.005,19.994 0.086,6.695 2.459,13.634 7.6,18.13" /></g><g
           transform="translate(336.1582,108.3232)"
           id="g28"><path
             id="path30"
             style="fill:#ffffff;fill-opacity:1;fill-rule:nonzero;stroke:none"
             d="m 0,0 c -2.28,-9.377 -4.421,-18.792 -6.652,-28.179 4.474,-0.006 8.954,-0.016 13.428,0.005 C 4.522,-18.78 2.215,-9.404 0,0 m -10.926,10.801 c 7.296,0.022 14.593,0.033 21.895,0 6.533,-21.841 13.147,-43.66 19.701,-65.496 -5.568,-0.005 -11.137,-0.005 -16.7,0 -1.322,4.783 -2.676,9.555 -4.008,14.334 -6.533,0 -13.071,0.021 -19.605,-0.006 -1.229,-4.773 -2.42,-9.556 -3.65,-14.328 -5.439,0 -10.872,-0.011 -16.305,0.006 6.197,21.835 12.486,43.649 18.672,65.49" /></g><g
           transform="translate(391.1826,107.3809)"
           id="g32"><path
             id="path34"
             style="fill:#ffffff;fill-opacity:1;fill-rule:nonzero;stroke:none"
             d="m 0,0 c 0.012,-13.992 -0.011,-27.989 0.012,-41.981 3.845,0.086 7.881,-0.417 11.532,1.083 3.012,1.154 5.124,3.938 5.98,6.982 1.49,5.342 0.732,10.959 0.921,16.43 0.005,5.048 0.298,10.985 -3.63,14.809 C 10.796,1.007 4.957,-0.233 0,0 m -16.375,11.749 c 5.466,0.022 10.932,0.005 16.397,0.011 6.137,-0.049 12.448,0.428 18.374,-1.544 6.479,-1.902 12.058,-6.777 14.442,-13.147 2.86,-7.031 1.766,-14.739 1.988,-22.123 0.238,-7.307 -1.501,-15.113 -6.718,-20.513 -5.503,-5.851 -13.796,-8.012 -21.591,-8.174 -7.632,-0.028 -15.259,-0.017 -22.892,-0.006 0.006,21.83 0.011,43.666 0,65.496" /></g><g
           transform="translate(161.9175,451.8911)"
           id="g36"><path
             id="path38"
             style="fill:#e85984;fill-opacity:1;fill-rule:nonzero;stroke:none"
             d="m 0,0 c 5.525,3.261 10.937,6.728 16.543,9.848 0.022,-103.983 -0.022,-207.961 0.022,-311.944 -9.02,-5.417 -18.011,-10.888 -27.047,-16.278 -1.311,-0.737 -2.54,-1.609 -3.786,-2.454 -12.351,-7.069 -24.382,-14.696 -36.657,-21.9 -0.108,103.982 0,207.966 -0.054,311.944 C -34.045,-20.433 -16.977,-10.292 0,0" /></g><g
           transform="translate(336.7324,363.0806)"
           id="g40"><path
             id="path42"
             style="fill:#e85984;fill-opacity:1;fill-rule:nonzero;stroke:none"
             d="M 0,0 C 0.455,-1.479 0.84,-2.979 1.1,-4.507 0.693,-3.911 0.276,-3.326 -0.146,-2.751 -0.342,-3.017 -0.731,-3.553 -0.921,-3.819 -0.851,-2.497 -0.466,-1.229 0,0" /></g><g
           transform="translate(307.9956,391.5845)"
           id="g44"><path
             id="path46"
             style="fill:#e51050;fill-opacity:1;fill-rule:nonzero;stroke:none"
             d="m 0,0 c -16.424,-57.565 -32.892,-115.125 -49.37,-172.68 14.36,-0.044 28.721,-0.076 43.081,0.015 3.115,12.579 6.37,25.119 9.582,37.67 17.069,0 34.143,0.022 51.211,-0.011 0.921,0.277 0.759,-0.931 1.04,-1.441 3.365,-12.079 6.799,-24.143 10.158,-36.228 14.669,-0.081 29.338,-0.016 44.006,-0.033 C 92.423,-115.131 74.954,-57.609 57.679,-0.027 38.455,0.06 19.224,0.005 0,0 m -129.535,70.155 c 43.471,-0.179 86.952,-0.028 130.423,-0.076 h 164.637 c 2.908,-0.016 5.898,0.179 8.71,-0.753 9.143,-2.611 16.002,-11.522 16.061,-21.05 0.049,-15.785 0.022,-31.57 0.016,-47.355 -0.005,-80.29 -0.032,-160.579 0.012,-240.869 -0.104,-0.634 0.275,-2.08 -0.878,-1.831 -106.319,-0.021 -212.636,-0.005 -318.959,-0.011 -0.044,103.984 0,207.961 -0.022,311.945" /></g><g
           transform="translate(336.5859,360.3291)"
           id="g48"><path
             id="path50"
             style="fill:#e51050;fill-opacity:1;fill-rule:nonzero;stroke:none"
             d="m 0,0 c 0.423,-0.574 0.84,-1.159 1.246,-1.755 5.563,-23.309 11.3,-46.575 16.852,-69.89 -11.82,0.017 -23.64,-0.016 -35.459,0.006 5.449,23.542 11.023,47.057 16.587,70.572 C -0.585,-0.802 -0.195,-0.266 0,0" /></g><g
           transform="translate(374.8076,119.1299)"
           id="g52"><path
             id="path54"
             style="fill:#770829;fill-opacity:1;fill-rule:nonzero;stroke:none"
             d="m 0,0 c 0.011,-21.83 0.006,-43.666 0,-65.496 7.633,-0.011 15.26,-0.022 22.892,0.006 7.795,0.162 16.088,2.323 21.591,8.174 5.217,5.4 6.956,13.206 6.718,20.513 -0.222,7.384 0.872,15.092 -1.988,22.123 C 46.829,-8.31 41.25,-3.435 34.771,-1.533 28.845,0.438 22.534,-0.038 16.397,0.011 10.932,0.005 5.466,0.021 0,0 m -49.575,-0.006 c -6.187,-21.841 -12.476,-43.654 -18.673,-65.49 5.434,-0.017 10.867,-0.006 16.306,-0.006 1.229,4.773 2.421,9.556 3.65,14.328 6.533,0.028 13.071,0.006 19.605,0.006 1.332,-4.778 2.686,-9.551 4.007,-14.334 5.564,-0.005 11.132,-0.005 16.701,0 -6.554,21.836 -13.168,43.655 -19.702,65.496 -7.301,0.033 -14.598,0.023 -21.894,0 m -66.997,-4.615 c -5.141,-4.496 -7.513,-11.435 -7.6,-18.13 -0.011,-6.663 -0.022,-13.331 0.005,-19.994 0.098,-6.43 2.373,-13.012 7.097,-17.508 5.167,-5.054 12.637,-7.053 19.717,-6.868 6.63,0.043 13.77,1.37 18.759,6.066 4.263,3.95 5.969,9.854 6.354,15.493 -5.092,0.043 -10.189,0.005 -15.281,0.022 -0.211,-2.563 -0.699,-5.319 -2.551,-7.242 -2.14,-2.211 -5.423,-2.703 -8.359,-2.525 -2.909,0.147 -5.839,1.577 -7.388,4.106 -1.609,2.497 -1.869,5.557 -1.858,8.456 0.016,7.031 -0.022,14.062 0.021,21.094 0.016,2.92 0.629,6.006 2.562,8.293 3.067,3.553 8.581,3.992 12.709,2.226 3.157,-1.376 4.561,-4.891 4.756,-8.131 5.032,-0.01 10.059,-0.016 15.091,0 -0.146,5.439 -1.977,11.067 -6.083,14.81 -4.848,4.534 -11.738,5.991 -18.19,6.084 -6.999,0.179 -14.425,-1.48 -19.761,-6.252 M 123.5,273.375 c 10.249,0 20.492,0.017 30.741,-0.005 0.017,-124.746 0.017,-249.492 0,-374.233 -118.354,0.01 -236.714,0 -355.068,0.006 -3.792,0.07 -7.735,-0.374 -11.338,1.093 -8.596,2.969 -14.858,11.566 -14.939,20.671 -0.082,30.341 0.027,60.686 -0.054,91.027 1.245,0.844 2.475,1.716 3.786,2.454 9.036,5.389 18.027,10.86 27.047,16.277 106.323,0.006 212.64,-0.011 318.959,0.011 1.153,-0.249 0.774,1.197 0.878,1.831 -0.044,80.29 -0.017,160.579 -0.012,240.868" /></g><g
           transform="translate(336.1582,108.3232)"
           id="g56"><path
             id="path58"
             style="fill:#770829;fill-opacity:1;fill-rule:nonzero;stroke:none"
             d="M 0,0 C 2.215,-9.404 4.522,-18.78 6.776,-28.174 2.302,-28.195 -2.178,-28.185 -6.652,-28.179 -4.421,-18.792 -2.28,-9.377 0,0" /></g><g
           transform="translate(391.1826,107.3809)"
           id="g60"><path
             id="path62"
             style="fill:#770829;fill-opacity:1;fill-rule:nonzero;stroke:none"
             d="m 0,0 c 4.957,-0.233 10.796,1.007 14.815,-2.677 3.928,-3.824 3.635,-9.761 3.63,-14.809 -0.189,-5.471 0.569,-11.088 -0.921,-16.43 -0.856,-3.044 -2.968,-5.828 -5.98,-6.982 -3.651,-1.5 -7.687,-0.997 -11.532,-1.083 C -0.011,-27.989 0.012,-13.992 0,0" /></g></g></g></g></svg>