<svg xmlns="http://www.w3.org/2000/svg" xml:space="preserve" width="853.333" height="640"><defs><clipPath id="a" clipPathUnits="userSpaceOnUse"><path d="M0 480h640V0H0Z"/></clipPath></defs><g clip-path="url(#a)" transform="matrix(1.33333 0 0 -1.33333 0 640)"><path d="M0 0c-.466-1.229-.851-2.497-.921-3.819-5.563-23.514-11.138-47.03-16.587-70.571 11.82-.022 23.64.011 35.459-.006C12.399-51.082 6.662-27.816 1.1-4.507.84-2.979.455-1.479 0 0m-28.737 28.504c19.224.005 38.455.059 57.679-.027 17.275-57.582 34.745-115.104 52.03-172.681-14.669.017-29.338-.048-44.007.033-3.359 12.085-6.793 24.149-10.157 36.228-.282.509-.12 1.717-1.04 1.441-17.069.033-34.143.011-51.211.011-3.213-12.551-6.468-25.092-9.583-37.67-14.36-.091-28.721-.059-43.081-.015a191384 191384 0 0 1 49.37 172.68" style="fill:#fff;fill-opacity:1;fill-rule:nonzero;stroke:none" transform="translate(336.732 363.08)"/><path d="M0 0c5.335 4.772 12.762 6.431 19.761 6.252 6.451-.093 13.342-1.55 18.19-6.084 4.106-3.743 5.937-9.371 6.083-14.81-5.033-.016-10.059-.01-15.092 0-.194 3.24-1.598 6.755-4.755 8.131-4.128 1.766-9.643 1.327-12.709-2.226-1.934-2.286-2.546-5.373-2.562-8.293-.043-7.032-.005-14.063-.021-21.094-.012-2.898.249-5.959 1.857-8.456 1.55-2.529 4.48-3.959 7.389-4.106 2.936-.178 6.219.314 8.359 2.525 1.852 1.923 2.339 4.68 2.551 7.242 5.092-.017 10.189.022 15.281-.021-.385-5.64-2.091-11.544-6.354-15.494-4.989-4.696-12.129-6.023-18.759-6.066-7.08-.185-14.55 1.814-19.718 6.868-4.723 4.496-6.998 11.078-7.096 17.508-.027 6.663-.016 13.331-.005 19.994C-7.514-11.435-5.141-4.496 0 0" style="fill:#fff;fill-opacity:1;fill-rule:nonzero;stroke:none" transform="translate(258.236 114.509)"/><path d="M0 0c-2.28-9.377-4.421-18.792-6.652-28.179 4.474-.006 8.954-.016 13.428.005C4.522-18.78 2.215-9.404 0 0m-10.926 10.801c7.296.022 14.593.033 21.895 0 6.533-21.841 13.147-43.66 19.701-65.496q-8.354-.008-16.7 0c-1.322 4.783-2.676 9.555-4.008 14.334-6.533 0-13.071.021-19.605-.006-1.229-4.773-2.42-9.556-3.65-14.328-5.439 0-10.872-.011-16.305.006 6.197 21.835 12.486 43.649 18.672 65.49" style="fill:#fff;fill-opacity:1;fill-rule:nonzero;stroke:none" transform="translate(336.158 108.323)"/><path d="M0 0c.012-13.992-.011-27.989.012-41.981 3.845.086 7.881-.417 11.532 1.083 3.012 1.154 5.124 3.938 5.98 6.982 1.49 5.342.732 10.959.921 16.43.005 5.048.298 10.985-3.63 14.809C10.796 1.007 4.957-.233 0 0m-16.375 11.749c5.466.022 10.932.005 16.397.011 6.137-.049 12.448.428 18.374-1.544 6.479-1.902 12.058-6.777 14.442-13.147 2.86-7.031 1.766-14.739 1.988-22.123.238-7.307-1.501-15.113-6.718-20.513-5.503-5.851-13.796-8.012-21.591-8.174-7.632-.028-15.259-.017-22.892-.006.006 21.83.011 43.666 0 65.496" style="fill:#fff;fill-opacity:1;fill-rule:nonzero;stroke:none" transform="translate(391.183 107.38)"/><path d="M0 0c5.525 3.261 10.937 6.728 16.543 9.848.022-103.983-.022-207.961.022-311.944-9.02-5.417-18.011-10.888-27.047-16.278-1.311-.737-2.54-1.609-3.786-2.454-12.351-7.069-24.382-14.696-36.657-21.9-.108 103.982 0 207.966-.054 311.944C-34.045-20.433-16.977-10.292 0 0" style="fill:#e85984;fill-opacity:1;fill-rule:nonzero;stroke:none" transform="translate(161.917 451.891)"/><path d="M0 0c.455-1.479.84-2.979 1.1-4.507A63 63 0 0 1-.146-2.751c-.196-.266-.585-.802-.775-1.068C-.851-2.497-.466-1.229 0 0" style="fill:#e85984;fill-opacity:1;fill-rule:nonzero;stroke:none" transform="translate(336.732 363.08)"/><path d="M0 0a196675 196675 0 0 0-49.37-172.68c14.36-.044 28.721-.076 43.081.015 3.115 12.579 6.37 25.119 9.582 37.67 17.069 0 34.143.022 51.211-.011.921.277.759-.931 1.04-1.441 3.365-12.079 6.799-24.143 10.158-36.228 14.669-.081 29.338-.016 44.006-.033C92.423-115.131 74.954-57.609 57.679-.027 38.455.06 19.224.005 0 0m-129.535 70.155c43.471-.179 86.952-.028 130.423-.076h164.637c2.908-.016 5.898.179 8.71-.753 9.143-2.611 16.002-11.522 16.061-21.05.049-15.785.022-31.57.016-47.355-.005-80.29-.032-160.579.012-240.869-.104-.634.275-2.08-.878-1.831-106.319-.021-212.636-.005-318.959-.011-.044 103.984 0 207.961-.022 311.945" style="fill:#e51050;fill-opacity:1;fill-rule:nonzero;stroke:none" transform="translate(307.996 391.584)"/><path d="M0 0q.636-.861 1.246-1.755c5.563-23.309 11.3-46.575 16.852-69.89-11.82.017-23.64-.016-35.459.006C-11.912-48.097-6.338-24.582-.774-1.067-.585-.802-.195-.266 0 0" style="fill:#e51050;fill-opacity:1;fill-rule:nonzero;stroke:none" transform="translate(336.586 360.33)"/><path d="M0 0c.011-21.83.006-43.666 0-65.496 7.633-.011 15.26-.022 22.892.006 7.795.162 16.088 2.323 21.591 8.174 5.217 5.4 6.956 13.206 6.718 20.513-.222 7.384.872 15.092-1.988 22.123C46.829-8.31 41.25-3.435 34.771-1.533 28.845.438 22.534-.038 16.397.011 10.932.005 5.466.021 0 0m-49.575-.006c-6.187-21.841-12.476-43.654-18.673-65.49 5.434-.017 10.867-.006 16.306-.006 1.229 4.773 2.421 9.556 3.65 14.328 6.533.028 13.071.006 19.605.006 1.332-4.778 2.686-9.551 4.007-14.334q8.347-.007 16.701 0C-14.533-43.666-21.147-21.847-27.681-.006c-7.301.033-14.598.023-21.894 0m-66.997-4.615c-5.141-4.496-7.513-11.435-7.6-18.13-.011-6.663-.022-13.331.005-19.994.098-6.43 2.373-13.012 7.097-17.508 5.167-5.054 12.637-7.053 19.717-6.868 6.63.043 13.77 1.37 18.759 6.066 4.263 3.95 5.969 9.854 6.354 15.493-5.092.043-10.189.005-15.281.022-.211-2.563-.699-5.319-2.551-7.242-2.14-2.211-5.423-2.703-8.359-2.525-2.909.147-5.839 1.577-7.388 4.106-1.609 2.497-1.869 5.557-1.858 8.456.016 7.031-.022 14.062.021 21.094.016 2.92.629 6.006 2.562 8.293 3.067 3.553 8.581 3.992 12.709 2.226 3.157-1.376 4.561-4.891 4.756-8.131 5.032-.01 10.059-.016 15.091 0-.146 5.439-1.977 11.067-6.083 14.81-4.848 4.534-11.738 5.991-18.19 6.084-6.999.179-14.425-1.48-19.761-6.252M123.5 273.375c10.249 0 20.492.017 30.741-.005q.025-187.12 0-374.233c-118.354.01-236.714 0-355.068.006-3.792.07-7.735-.374-11.338 1.093-8.596 2.969-14.858 11.566-14.939 20.671-.082 30.341.027 60.686-.054 91.027 1.245.844 2.475 1.716 3.786 2.454 9.036 5.389 18.027 10.86 27.047 16.277 106.323.006 212.64-.011 318.959.011 1.153-.249.774 1.197.878 1.831-.044 80.29-.017 160.579-.012 240.868" style="fill:#770829;fill-opacity:1;fill-rule:nonzero;stroke:none" transform="translate(374.808 119.13)"/><path d="M0 0c2.215-9.404 4.522-18.78 6.776-28.174-4.474-.021-8.954-.011-13.428-.005C-4.421-18.792-2.28-9.377 0 0" style="fill:#770829;fill-opacity:1;fill-rule:nonzero;stroke:none" transform="translate(336.158 108.323)"/><path d="M0 0c4.957-.233 10.796 1.007 14.815-2.677 3.928-3.824 3.635-9.761 3.63-14.809-.189-5.471.569-11.088-.921-16.43-.856-3.044-2.968-5.828-5.98-6.982-3.651-1.5-7.687-.997-11.532-1.083C-.011-27.989.012-13.992 0 0" style="fill:#770829;fill-opacity:1;fill-rule:nonzero;stroke:none" transform="translate(391.183 107.38)"/></g></svg>