<svg xmlns="http://www.w3.org/2000/svg" width="512" height="512"><path fill="#fefefe" d="m255.625-.312 3.085.006c14.609.05 28.94.3 43.29 3.306l2.954.602C348.224 12.653 388.425 31.038 422 60l2.258 1.922C437.763 73.733 450.434 86.484 461 101l2.57 3.45c6.04 8.19 11.4 16.706 16.43 25.55l1.104 1.915c21.606 37.748 31.373 80.514 31.209 123.71l-.007 3.085c-.05 14.609-.3 28.94-3.306 43.29l-.602 2.954C495.934 364.538 463.965 420.79 415 458l-1.637 1.263C403.368 466.946 392.908 473.688 382 480l-2.052 1.195C353.97 496.136 324.563 505.525 295 510l-3.388.537c-10.762 1.545-21.401 1.803-32.264 1.779-2.948-.003-5.896.02-8.844.045-13.39.045-26.302-1.157-39.504-3.361l-3.445-.57C146.292 497.426 87.863 461.292 51 411l-1.287-1.725C43.196 400.532 37.39 391.475 32 382l-1.104-1.915C9.29 342.337-.477 299.571-.312 256.375l.006-3.085c.05-14.609.3-28.94 3.306-43.29l.602-2.954C12.653 163.776 31.038 123.575 60 90l1.922-2.258C73.733 74.237 86.484 61.566 101 51l3.45-2.57c8.19-6.04 16.706-11.4 25.55-16.43l1.915-1.104C169.663 9.29 212.429-.477 255.625-.312"/><path fill="#010101" d="m255.625-.312 3.085.006c14.609.05 28.94.3 43.29 3.306l2.954.602C348.224 12.653 388.425 31.038 422 60l2.258 1.922C437.763 73.733 450.434 86.484 461 101l2.57 3.45c6.04 8.19 11.4 16.706 16.43 25.55l1.104 1.915c21.606 37.748 31.373 80.514 31.209 123.71l-.007 3.085c-.05 14.609-.3 28.94-3.306 43.29l-.602 2.954C495.934 364.538 463.965 420.79 415 458l-1.637 1.263C403.368 466.946 392.908 473.688 382 480l-2.052 1.195C353.97 496.136 324.563 505.525 295 510l-3.388.537c-10.762 1.545-21.401 1.803-32.264 1.779-2.948-.003-5.896.02-8.844.045-13.39.045-26.302-1.157-39.504-3.361l-3.445-.57C146.292 497.426 87.863 461.292 51 411l-1.287-1.725C43.196 400.532 37.39 391.475 32 382l-1.104-1.915C9.29 342.337-.477 299.571-.312 256.375l.006-3.085c.05-14.609.3-28.94 3.306-43.29l.602-2.954C12.653 163.776 31.038 123.575 60 90l1.922-2.258C73.733 74.237 86.484 61.566 101 51l3.45-2.57c8.19-6.04 16.706-11.4 25.55-16.43l1.915-1.104C169.663 9.29 212.429-.477 255.625-.312M207 29l-3.062.748A259.3 259.3 0 0 0 162 44l-2.2.94C134.266 55.916 112.113 73.045 92 92l-2.219 2.09C84.37 99.34 79.675 105.094 75 111l-2.406 2.96C65.549 122.812 59.65 132.21 54 142l-1.215 2.093C42.752 161.58 35.807 180.461 31 200l-.558 2.194C29.195 207.108 27.963 212.021 27 217l-.546 2.82c-1.745 10.37-1.792 20.672-1.77 31.163.003 3.05-.02 6.098-.045 9.148C24.464 314.777 45.864 368.24 82 409c.784.895 1.567 1.79 2.375 2.71C92.605 421 101.227 429.34 111 437l2.7 2.145c23.918 18.514 51.886 33.4 81.3 40.855l2.375.604c2.766.693 5.538 1.361 8.313 2.021l2.57.626c15.704 3.587 31.633 4.158 47.68 4.124h2.835c22.04-.05 43.21-2.47 64.227-9.375l2.407-.777C357.28 466.828 386.512 451.14 411 428a635 635 0 0 1 4.125-3.562c7.803-6.834 14.443-14.31 20.875-22.438l2.371-2.926c15.5-19.516 26.4-41.046 35.629-64.074l1.438-3.543c2.63-6.88 4.513-13.86 6.187-21.02l.589-2.481c3.939-17.693 5.338-35.177 5.224-53.269l-.01-3.118c-.066-15.22-.695-29.746-4.428-44.569l-.65-2.751C471.932 160.462 449.772 123.519 419 91l-1.934-2.062C412.117 83.81 406.571 79.428 401 75l-2.895-2.375c-19.145-15.336-41.164-26.055-63.95-34.797a530 530 0 0 1-5.307-2.078c-10.545-4.06-21.625-6.45-32.723-8.437l-2.014-.362c-8.812-1.504-17.593-2.114-26.525-2.19l-2.923-.03C235.59 24.356 235.59 24.356 207 29"/><path fill="#6b6b6b" d="M181 66c7.175 3.331 11.132 9.574 14.102 16.66l.83 1.955c.907 2.145 1.8 4.296 2.693 6.448q.976 2.317 1.956 4.635 2.109 5.001 4.202 10.008a4467 4467 0 0 0 6.826 16.208q4.206 9.945 8.402 19.896 6.845 16.232 13.74 32.442 1.575 3.704 3.149 7.412a6145 6145 0 0 0 9.24 21.656q1.994 4.648 3.982 9.298.931 2.173 1.87 4.345 1.277 2.963 2.543 5.932l1.45 3.37C257 229 257 229 257 232l9 1 2-4c1.31-1.612 1.31-1.612 2.793-3.172l1.65-1.75 1.745-1.828q1.782-1.891 3.562-3.785l1.719-1.825c2.33-2.495 4.563-5.068 6.793-7.652 2.21-2.529 4.474-5.007 6.738-7.488a643 643 0 0 0 10.223-11.473c2.831-3.23 5.719-6.409 8.597-9.597a500 500 0 0 0 5.555-6.305l1.68-1.902a250 250 0 0 0 3.204-3.72 434 434 0 0 1 4.241-4.94l1.33-1.615c2.523-2.865 4.1-3.93 7.834-4.89C339 157 339 157 341.875 158.5c2.76 3.247 3.125 5.263 3.125 9.5-2.174 4.437-5.382 7.77-8.75 11.313l-3.258 3.48-1.575 1.681c-2.275 2.45-4.457 4.975-6.644 7.503-2.224 2.538-4.498 5.03-6.773 7.523a643 643 0 0 0-10.223 11.473c-2.83 3.228-5.717 6.406-8.593 9.593a619 619 0 0 0-7.282 8.29 252 252 0 0 1-4.523 4.945l-1.38 1.479a1008 1008 0 0 1-3.96 4.204c-1.908 2.355-2.801 3.54-3.039 6.516l1 3c.146 2.268.221 4.54.25 6.813l.078 3.644c-.357 3.86-1.543 6.147-3.328 9.543-.902 7.974 2.816 16.273 5.272 23.745 1.265 3.92 2.43 7.87 3.603 11.817a4116 4116 0 0 0 6.563 21.75l.877 2.88 1.776 5.828q2.331 7.646 4.659 15.293l.853 2.8q.805 2.643 1.606 5.288.82 2.694 1.66 5.382l.834 2.697.755 2.415C306 371 306 371 306 374h2l.277-2.762c.795-5.518 2.607-10.75 4.286-16.05l2.18-6.977 1.131-3.607c1.451-4.645 2.873-9.3 4.294-13.956 2.4-7.851 4.807-15.69 7.457-23.46 2.28-6.718 4.215-13.514 6.14-20.34 2.262-8 4.669-15.94 7.235-23.848l1.023-3.29c1.736-5.26 2.95-8.8 7.977-11.71 2.866-1.433 4.813-1.306 8-1 6.78 3.722 9.085 7.533 11.25 14.813 6.967 23.353 14.185 46.632 21.356 69.924l4.205 13.66L403 372c1.798-2.697 2.577-4.476 3.48-7.516l.829-2.755.878-2.979 1.887-6.297.97-3.256c1.466-4.905 2.962-9.8 4.456-14.697l1.75-5.75 10.5-34.5.875-2.88q.87-2.854 1.746-5.708a818 818 0 0 0 4.45-15.01l.915-3.152a493 493 0 0 0 1.692-5.965c1.65-5.63 3.398-9.368 7.572-13.535 2.903-1.451 4.773-1.372 8-1 3.865 2.406 5.703 3.775 6.79 8.26.23 4.094-.388 6.675-1.74 10.53l-.647 1.893a566 566 0 0 1-2.09 5.942q-1.019 2.924-2.03 5.852-.671 1.943-1.35 3.883c-1.766 5.08-3.359 10.201-4.917 15.348-2.092 6.778-4.397 13.487-6.662 20.208-2.19 6.507-4.355 13.016-6.354 19.584-2.392 7.858-5.023 15.633-7.646 23.416-2.6 7.728-5.126 15.47-7.472 23.28-2.239 7.118-4.234 12.916-10.882 16.804-4.602.925-8.021.425-12.312-1.437-7.198-6.863-9.116-18.768-12.012-28.047q-.765-2.433-1.533-4.865a7415 7415 0 0 1-4.019-12.81c-1.328-4.24-2.663-8.478-3.997-12.716a8103 8103 0 0 1-12.512-40.056q-1.48-4.788-2.954-9.58l-1.027-3.33-.89-2.893c-.682-2.264-.682-2.264-1.744-4.266l-.531 1.762a2575 2575 0 0 1-12.637 40.633 3522 3522 0 0 0-3.894 12.293l-.739 2.34-1.465 4.645q-2.238 7.095-4.48 14.187-2.309 7.31-4.606 14.624c-.754 2.394-1.517 4.785-2.28 7.176a283 283 0 0 0-2.423 8.024c-1.86 6.278-3.281 9.821-8.945 13.316-3.62 1.206-6.192 1.323-10 1-6.927-3.597-9.01-8.532-11.269-15.632-.27-.874-.542-1.748-.82-2.65l-.899-2.842q-.97-3.07-1.933-6.144c-1.03-3.274-2.074-6.542-3.123-9.81-3.446-10.752-6.85-21.512-10.108-32.322a1759 1759 0 0 0-5.183-16.854 590 590 0 0 1-3.124-10.299c-1.132-3.874-2.34-7.72-3.557-11.568l-.984-3.516c-1.053-3.207-1.968-5.665-4-8.363-3.93-1.88-7.703-2.491-12-3l-2.27-.61c-1.778-.607-1.778-.607-3.343.551l-1.7 1.622-2.09 1.949L234 285a1765 1765 0 0 1-3.504 3.27q-3.918 3.647-7.824 7.308c-3.675 3.435-7.406 6.804-11.156 10.156a911 911 0 0 0-8.891 8.141l-1.662 1.537-1.662 1.537c-6.709 6.204-13.436 12.388-20.238 18.488-4.968 4.46-9.87 8.987-14.77 13.52-4.589 4.244-9.2 8.463-13.81 12.684l-5.981 5.482-3 2.748a1280 1280 0 0 0-7.537 6.95A798 798 0 0 1 125 385l-1.499 1.372a299 299 0 0 1-4.376 3.878l-2.555 2.266C114 394 114 394 110.805 393.922 108 393 108 393 106 390c-.406-2.383-.406-2.383 0-5 1.906-2.43 1.906-2.43 4.5-4.875l2.8-2.664a355 355 0 0 1 8.313-7.36c3.32-2.922 6.536-5.95 9.762-8.976a863 863 0 0 1 15.102-13.852A893 893 0 0 0 155.5 339a960 960 0 0 1 11.5-10.5c4.949-4.436 9.828-8.944 14.707-13.457 4.589-4.244 9.2-8.463 13.81-12.684a14537 14537 0 0 0 8.979-8.23 8351 8351 0 0 0 7.574-6.95 1775 1775 0 0 1 16.97-15.402A112 112 0 0 0 233 268c-.27-2.01-.615-4.01-1-6a147 147 0 0 1-.187-6.625l-.043-3.352c.23-3.023.23-3.023 1.304-5.046 1.416-2.536 1.416-2.536-.074-7.977l-11-26h-95l-17 41c-4.77 7.154-4.77 7.154-10 9-4.342.543-6.424.304-10.312-1.75-3.043-2.547-4.417-4.387-4.99-8.326-.035-5.65 1.028-9.854 3.353-14.97l.986-2.28c1.077-2.481 2.176-4.952 3.275-7.424a2822 2822 0 0 0 2.31-5.307q2.434-5.607 4.884-11.207c3.68-8.436 7.24-16.923 10.805-25.408 1.996-4.747 3.999-9.49 6.001-14.234l1.194-2.827a8415 8415 0 0 1 7.807-18.423l1.054-2.481q2.593-6.1 5.197-12.195a2006 2006 0 0 0 10.186-24.256c1.702-4.135 3.415-8.264 5.129-12.394q1.232-2.983 2.446-5.974c1.13-2.78 2.28-5.554 3.433-8.325l.986-2.473c2.636-6.255 6.298-12.403 12.285-15.947 4.646-1.883 10.074-1.287 14.971-.799"/><path fill="#6a6a6a" d="M181 66c7.175 3.331 11.132 9.574 14.102 16.66l.83 1.955c.907 2.145 1.8 4.296 2.693 6.448q.976 2.317 1.956 4.635 2.109 5.001 4.202 10.008a4467 4467 0 0 0 6.826 16.208q4.206 9.945 8.402 19.896 6.845 16.232 13.74 32.442 1.575 3.704 3.149 7.412a6145 6145 0 0 0 9.24 21.656q1.994 4.648 3.982 9.298.931 2.173 1.87 4.345 1.277 2.963 2.543 5.932l1.45 3.37C257 229 257 229 257 232l-2.125.227c-8.81 1.22-13.76 4.528-19.875 10.773-4.69-9.878-8.828-19.869-13-30h-95l-17 41c-4.77 7.154-4.77 7.154-10 9-4.342.543-6.424.304-10.312-1.75-3.043-2.547-4.417-4.387-4.99-8.326-.035-5.65 1.028-9.854 3.353-14.97l.986-2.28c1.077-2.481 2.176-4.952 3.275-7.424a2822 2822 0 0 0 2.31-5.307q2.434-5.607 4.884-11.207c3.68-8.436 7.24-16.923 10.805-25.408 1.996-4.747 3.999-9.49 6.001-14.234l1.194-2.827a8415 8415 0 0 1 7.807-18.423l1.054-2.481q2.593-6.1 5.197-12.195a2006 2006 0 0 0 10.186-24.256c1.702-4.135 3.415-8.264 5.129-12.394q1.232-2.983 2.446-5.974c1.13-2.78 2.28-5.554 3.433-8.325l.986-2.473c2.636-6.255 6.298-12.403 12.285-15.947 4.646-1.883 10.074-1.287 14.971-.799"/><path fill="#030303" d="M341 158c2.5 2.063 2.5 2.063 4 5 .013 6.271-1.378 9.17-5.71 13.63l-1.915 1.87-3.867 3.953-1.862 1.873c-1.879 1.91-3.655 3.888-5.396 5.924-2.697 3.133-5.463 6.196-8.25 9.25a643 643 0 0 0-10.223 11.473c-2.83 3.228-5.717 6.406-8.593 9.593a619 619 0 0 0-7.282 8.29 252 252 0 0 1-4.523 4.945l-1.38 1.479a1008 1008 0 0 1-3.96 4.204c-1.908 2.355-2.801 3.54-3.039 6.516l1 3c.87 8.463.602 14.929-4.36 22.012-3.66 4.435-7.994 7.626-13.64 8.988-5.732.47-11.45.88-16.812-1.437-3.031-.882-3.031-.882-4.856.37-2.236 1.912-4.264 3.973-6.332 6.067a756 756 0 0 1-5.405 5.047q-2.968 2.759-5.923 5.531c-3.675 3.435-7.406 6.804-11.156 10.156a911 911 0 0 0-8.891 8.141l-1.662 1.537-1.662 1.537c-6.709 6.204-13.436 12.388-20.238 18.488-4.968 4.46-9.87 8.987-14.77 13.52-4.589 4.244-9.2 8.463-13.81 12.684l-5.981 5.482-3 2.748a1280 1280 0 0 0-7.537 6.95A798 798 0 0 1 125 385l-1.499 1.372a299 299 0 0 1-4.376 3.878l-2.555 2.266C114 394 114 394 110.805 393.922 108 393 108 393 106 390c-.406-2.383-.406-2.383 0-5 1.906-2.43 1.906-2.43 4.5-4.875l2.8-2.664a355 355 0 0 1 8.313-7.36c3.32-2.922 6.536-5.95 9.762-8.976a863 863 0 0 1 15.102-13.852A893 893 0 0 0 155.5 339a960 960 0 0 1 11.5-10.5c4.949-4.436 9.828-8.944 14.707-13.457 4.589-4.244 9.2-8.463 13.81-12.684a14537 14537 0 0 0 8.979-8.23 8351 8351 0 0 0 7.574-6.95 1775 1775 0 0 1 16.97-15.402A112 112 0 0 0 233 268a90 90 0 0 0-1-6c-.749-8.526-.501-15.161 5-22 4.504-4.761 8.74-7.782 15.445-8.23l3.68.042 3.695.02C263 232 263 232 266 233l.825-1.802c1.145-2.142 2.301-3.618 3.968-5.37l1.65-1.75c.575-.604 1.151-1.207 1.745-1.828q1.782-1.891 3.562-3.785l1.719-1.825c2.33-2.495 4.563-5.068 6.793-7.652 2.21-2.529 4.474-5.007 6.738-7.488a643 643 0 0 0 10.223-11.473c2.831-3.23 5.719-6.409 8.597-9.597a500 500 0 0 0 5.555-6.305 698 698 0 0 1 9.438-10.562l1.456-1.615c4.407-4.827 6.218-5.52 12.731-3.948"/><path fill="#fcfcfc" d="M174 99c2.544 1.272 2.674 2.166 3.733 4.765l1.007 2.442 1.084 2.688 1.148 2.796c1.245 3.038 2.48 6.08 3.715 9.121q1.93 4.718 3.862 9.435l2.614 6.392q4.132 10.11 8.36 20.181l1.052 2.508q1.968 4.693 3.947 9.381 1.339 3.173 2.67 6.35l1.506 3.572c1.307 3.383 2.305 6.881 3.302 10.369h-75c1.986-5.959 4.024-11.71 6.45-17.477l1-2.401q1.615-3.875 3.238-7.747 2.288-5.487 4.574-10.977l1.179-2.828c2.758-6.626 5.49-13.262 8.204-19.906l1.119-2.738q2.15-5.259 4.292-10.522 1.47-3.61 2.944-7.216l.881-2.176c2.006-4.899 2.006-4.899 3.119-6.012"/></svg>