<?xml version="1.0" encoding="UTF-8"?>
<svg version="1.1" xmlns="http://www.w3.org/2000/svg" width="512" height="512">
<path d="M0 0 C1.01790619 0.00215515 2.03581238 0.0043103 3.08456421 0.00653076 C17.69363523 0.05620146 32.02575853 0.30709809 46.375 3.3125 C47.34985352 3.51117676 48.32470703 3.70985352 49.32910156 3.91455078 C92.59881524 12.96579926 132.80019334 31.35020671 166.375 60.3125 C167.12007813 60.94671875 167.86515625 61.5809375 168.6328125 62.234375 C182.13779833 74.04551515 194.80918743 86.79610228 205.375 101.3125 C206.23149066 102.46244831 207.08826433 103.61218589 207.9453125 104.76171875 C213.9859414 112.95339526 219.34505071 121.46895078 224.375 130.3125 C224.73948242 130.94430176 225.10396484 131.57610352 225.47949219 132.22705078 C247.08534998 169.97532572 256.85198095 212.74189997 256.6875 255.9375 C256.68534485 256.95540619 256.6831897 257.97331238 256.68096924 259.02206421 C256.63129854 273.63113523 256.38040191 287.96325853 253.375 302.3125 C253.07698486 303.77478027 253.07698486 303.77478027 252.77294922 305.26660156 C240.30899799 364.85082385 208.33955313 421.10212629 159.375 458.3125 C158.83472168 458.72918945 158.29444336 459.14587891 157.73779297 459.57519531 C147.7427884 467.2584873 137.28290964 474.00092968 126.375 480.3125 C125.69775879 480.70679199 125.02051758 481.10108398 124.32275391 481.50732422 C98.34595271 496.44860428 68.93794741 505.83676312 39.375 510.3125 C38.25689941 510.48982666 37.13879883 510.66715332 35.98681641 510.84985352 C25.22545702 512.39416151 14.5855899 512.65229671 3.72314453 512.62817383 C0.77468385 512.62502635 -2.17275697 512.64852578 -5.12109375 512.67382812 C-18.51105903 512.71844438 -31.42266733 511.51675057 -44.625 509.3125 C-45.76195312 509.12437744 -46.89890625 508.93625488 -48.0703125 508.74243164 C-109.3334805 497.73890506 -167.76225972 461.60462894 -204.625 411.3125 C-205.26211914 410.45857666 -205.26211914 410.45857666 -205.91210938 409.58740234 C-212.42901959 400.8447849 -218.23537157 391.78842938 -223.625 382.3125 C-223.98948242 381.68069824 -224.35396484 381.04889648 -224.72949219 380.39794922 C-246.33534998 342.64967428 -256.10198095 299.88310003 -255.9375 256.6875 C-255.93534485 255.66959381 -255.9331897 254.65168762 -255.93096924 253.60293579 C-255.88129854 238.99386477 -255.63040191 224.66174147 -252.625 210.3125 C-252.42632324 209.33764648 -252.22764648 208.36279297 -252.02294922 207.35839844 C-242.97170074 164.08868476 -224.58729329 123.88730666 -195.625 90.3125 C-194.99078125 89.56742187 -194.3565625 88.82234375 -193.703125 88.0546875 C-181.89198485 74.54970167 -169.14139772 61.87831257 -154.625 51.3125 C-153.47505169 50.45600934 -152.32531411 49.59923567 -151.17578125 48.7421875 C-142.98410474 42.7015586 -134.46854922 37.34244929 -125.625 32.3125 C-124.99319824 31.94801758 -124.36139648 31.58353516 -123.71044922 31.20800781 C-85.96217428 9.60215002 -43.19560003 -0.16448095 0 0 Z " fill="#FEFEFE" transform="translate(255.625,-0.3125)"/>
<path d="M0 0 C1.01790619 0.00215515 2.03581238 0.0043103 3.08456421 0.00653076 C17.69363523 0.05620146 32.02575853 0.30709809 46.375 3.3125 C47.34985352 3.51117676 48.32470703 3.70985352 49.32910156 3.91455078 C92.59881524 12.96579926 132.80019334 31.35020671 166.375 60.3125 C167.12007813 60.94671875 167.86515625 61.5809375 168.6328125 62.234375 C182.13779833 74.04551515 194.80918743 86.79610228 205.375 101.3125 C206.23149066 102.46244831 207.08826433 103.61218589 207.9453125 104.76171875 C213.9859414 112.95339526 219.34505071 121.46895078 224.375 130.3125 C224.73948242 130.94430176 225.10396484 131.57610352 225.47949219 132.22705078 C247.08534998 169.97532572 256.85198095 212.74189997 256.6875 255.9375 C256.68534485 256.95540619 256.6831897 257.97331238 256.68096924 259.02206421 C256.63129854 273.63113523 256.38040191 287.96325853 253.375 302.3125 C253.07698486 303.77478027 253.07698486 303.77478027 252.77294922 305.26660156 C240.30899799 364.85082385 208.33955313 421.10212629 159.375 458.3125 C158.83472168 458.72918945 158.29444336 459.14587891 157.73779297 459.57519531 C147.7427884 467.2584873 137.28290964 474.00092968 126.375 480.3125 C125.69775879 480.70679199 125.02051758 481.10108398 124.32275391 481.50732422 C98.34595271 496.44860428 68.93794741 505.83676312 39.375 510.3125 C38.25689941 510.48982666 37.13879883 510.66715332 35.98681641 510.84985352 C25.22545702 512.39416151 14.5855899 512.65229671 3.72314453 512.62817383 C0.77468385 512.62502635 -2.17275697 512.64852578 -5.12109375 512.67382812 C-18.51105903 512.71844438 -31.42266733 511.51675057 -44.625 509.3125 C-45.76195312 509.12437744 -46.89890625 508.93625488 -48.0703125 508.74243164 C-109.3334805 497.73890506 -167.76225972 461.60462894 -204.625 411.3125 C-205.26211914 410.45857666 -205.26211914 410.45857666 -205.91210938 409.58740234 C-212.42901959 400.8447849 -218.23537157 391.78842938 -223.625 382.3125 C-223.98948242 381.68069824 -224.35396484 381.04889648 -224.72949219 380.39794922 C-246.33534998 342.64967428 -256.10198095 299.88310003 -255.9375 256.6875 C-255.93534485 255.66959381 -255.9331897 254.65168762 -255.93096924 253.60293579 C-255.88129854 238.99386477 -255.63040191 224.66174147 -252.625 210.3125 C-252.42632324 209.33764648 -252.22764648 208.36279297 -252.02294922 207.35839844 C-242.97170074 164.08868476 -224.58729329 123.88730666 -195.625 90.3125 C-194.99078125 89.56742187 -194.3565625 88.82234375 -193.703125 88.0546875 C-181.89198485 74.54970167 -169.14139772 61.87831257 -154.625 51.3125 C-153.47505169 50.45600934 -152.32531411 49.59923567 -151.17578125 48.7421875 C-142.98410474 42.7015586 -134.46854922 37.34244929 -125.625 32.3125 C-124.99319824 31.94801758 -124.36139648 31.58353516 -123.71044922 31.20800781 C-85.96217428 9.60215002 -43.19560003 -0.16448095 0 0 Z M-48.625 29.3125 C-49.63530273 29.55919434 -50.64560547 29.80588867 -51.68652344 30.06005859 C-66.15689279 33.64355383 -79.97563923 38.33926166 -93.625 44.3125 C-94.35090332 44.62268066 -95.07680664 44.93286133 -95.82470703 45.25244141 C-121.35865594 56.22873088 -143.51193555 73.35763168 -163.625 92.3125 C-164.3571875 93.00214844 -165.089375 93.69179687 -165.84375 94.40234375 C-171.25504239 99.65258577 -175.95005717 105.40648889 -180.625 111.3125 C-181.4190625 112.28960937 -182.213125 113.26671875 -183.03125 114.2734375 C-190.07574211 123.12363804 -195.97425421 132.52252477 -201.625 142.3125 C-202.02605957 143.00327637 -202.42711914 143.69405273 -202.84033203 144.40576172 C-212.87345838 161.89110528 -219.81821826 180.77324436 -224.625 200.3125 C-224.80901367 201.03663086 -224.99302734 201.76076172 -225.18261719 202.50683594 C-226.43015978 207.4208039 -227.66189857 212.33382487 -228.625 217.3125 C-228.80522705 218.24312256 -228.9854541 219.17374512 -229.17114258 220.13256836 C-230.91609391 230.50192024 -230.96319295 240.80424416 -230.94067383 251.2956543 C-230.93753065 254.34525923 -230.9609916 257.39387474 -230.98632812 260.44335938 C-231.16073813 315.08998869 -209.76075491 368.55222884 -173.625 409.3125 C-172.84125 410.20710938 -172.0575 411.10171875 -171.25 412.0234375 C-163.01918609 421.31168237 -154.39765748 429.6521269 -144.625 437.3125 C-143.28888672 438.37404297 -143.28888672 438.37404297 -141.92578125 439.45703125 C-118.00685293 457.97168288 -90.03869676 472.8578819 -60.625 480.3125 C-59.84125 480.51182129 -59.0575 480.71114258 -58.25 480.91650391 C-55.48353858 481.60964488 -52.71208975 482.27767884 -49.9375 482.9375 C-49.08905518 483.14415283 -48.24061035 483.35080566 -47.36645508 483.5637207 C-31.66329051 487.15072318 -15.73367591 487.72123333 0.3125 487.6875 C1.2481076 487.68728851 2.18371521 487.68707703 3.14767456 487.68685913 C25.1885336 487.63736812 46.35722377 485.21734103 67.375 478.3125 C68.16922363 478.05597656 68.96344727 477.79945313 69.78173828 477.53515625 C101.65559094 467.1405626 130.8865703 451.45336905 155.375 428.3125 C156.74497848 427.11921034 158.11983093 425.9314883 159.5 424.75 C167.30278646 417.91669803 173.94314049 410.4409101 180.375 402.3125 C181.15746094 401.34699219 181.93992187 400.38148438 182.74609375 399.38671875 C198.24528939 379.8701316 209.1450624 358.34078043 218.375 335.3125 C219.0865625 333.55873047 219.0865625 333.55873047 219.8125 331.76953125 C222.44249738 324.89044434 224.32594383 317.91022596 226 310.75 C226.19424561 309.93104248 226.38849121 309.11208496 226.58862305 308.26831055 C230.52752612 290.57583415 231.92651615 273.09135746 231.8125 255 C231.80945862 253.97101593 231.80641724 252.94203186 231.80328369 251.88186646 C231.73682672 236.66100441 231.10769566 222.13533558 227.375 207.3125 C227.16069336 206.40467773 226.94638672 205.49685547 226.72558594 204.56152344 C216.30596678 160.77485604 194.14644163 123.83089175 163.375 91.3125 C162.73691406 90.631875 162.09882813 89.95125 161.44140625 89.25 C156.49238896 84.12296051 150.94599861 79.74016949 145.375 75.3125 C143.94220703 74.136875 143.94220703 74.136875 142.48046875 72.9375 C123.33463599 57.60117183 101.31579353 46.88237262 78.53076172 38.140625 C76.75700046 37.45924355 74.98899188 36.7629057 73.22265625 36.0625 C62.67762052 32.00305767 51.59812168 29.61292714 40.5 27.625 C39.83532715 27.50568115 39.1706543 27.3863623 38.48583984 27.26342773 C29.67400233 25.75925947 20.89323299 25.14945554 11.9609375 25.07421875 C10.99649719 25.06437958 10.03205688 25.05454041 9.03839111 25.04440308 C-20.03527446 24.66701328 -20.03527446 24.66701328 -48.625 29.3125 Z " fill="#010101" transform="translate(255.625,-0.3125)"/>
<path d="M0 0 C7.17464464 3.33108501 11.13184423 9.57389346 14.1015625 16.66015625 C14.37538757 17.30526154 14.64921265 17.95036682 14.93133545 18.61502075 C15.83907494 20.76017515 16.73191142 22.91120947 17.625 25.0625 C18.27587925 26.60824021 18.92776181 28.15355826 19.58056641 29.69848633 C20.98711025 33.03199398 22.38743834 36.36801968 23.78320312 39.70605469 C26.04551856 45.11426913 28.32578589 50.51480233 30.609375 55.9140625 C33.41310579 62.54477794 36.21442746 69.17649244 39.01115417 75.81016541 C43.57365673 86.63146274 48.15427469 97.44492928 52.75033569 108.25201416 C53.8007126 110.72227853 54.85027745 113.19288653 55.8996582 115.66357422 C58.9687239 122.88719277 62.04333655 130.10827345 65.14045715 137.31991577 C66.47034607 140.41795983 67.7963651 143.51765224 69.12191772 146.61755371 C69.74299227 148.06689557 70.36602196 149.51540135 70.99111938 150.9630127 C71.84395 152.93815993 72.69026018 154.9159798 73.53515625 156.89453125 C74.013479 158.00675049 74.49180176 159.11896973 74.98461914 160.26489258 C76 163 76 163 76 166 C78.97 166.33 81.94 166.66 85 167 C85.66 165.68 86.32 164.36 87 163 C88.30932617 161.38769531 88.30932617 161.38769531 89.79296875 159.828125 C90.33719482 159.2503833 90.8814209 158.6726416 91.44213867 158.07739258 C92.30609253 157.17283325 92.30609253 157.17283325 93.1875 156.25 C94.37583379 154.98906652 95.56334163 153.72735409 96.75 152.46484375 C97.3171875 151.86269043 97.884375 151.26053711 98.46875 150.64013672 C100.79839456 148.14483185 103.03180907 145.57232051 105.26171875 142.98828125 C107.47256489 140.45947072 109.73596443 137.98127436 112 135.5 C115.45328153 131.71337002 118.86099051 127.8952368 122.22265625 124.02734375 C125.05432947 120.79736924 127.94202507 117.61809344 130.8203125 114.4296875 C132.69145094 112.3439382 134.53924831 110.24182372 136.375 108.125 C137.20644531 107.18333984 137.20644531 107.18333984 138.0546875 106.22265625 C139.13238982 104.99130561 140.20548246 103.75570064 141.25878906 102.50341797 C142.65692834 100.8424444 144.07710777 99.20228768 145.5 97.5625 C145.93876465 97.02963379 146.3775293 96.49676758 146.82958984 95.94775391 C149.35281804 93.08277084 150.93008581 92.01796303 154.6640625 91.05859375 C158 91 158 91 160.875 92.5 C163.6350094 95.74706989 164 97.76307962 164 102 C161.82628354 106.43676373 158.61790697 109.76925731 155.25 113.3125 C154.16329301 114.47193551 153.07735104 115.63208854 151.9921875 116.79296875 C151.47237305 117.34774902 150.95255859 117.9025293 150.41699219 118.47412109 C148.14240017 120.92350085 145.95987368 123.44882896 143.7734375 125.9765625 C141.54861908 128.51501171 139.27496681 131.00641776 137 133.5 C133.54671847 137.28662998 130.13900949 141.1047632 126.77734375 144.97265625 C123.94688384 148.20124678 121.06038793 151.37913175 118.18359375 154.56640625 C115.72688142 157.30438797 113.30977689 160.07417541 110.90234375 162.85546875 C109.41984304 164.52670672 107.90540591 166.16963333 106.37890625 167.80078125 C105.69622681 168.53276733 105.69622681 168.53276733 104.99975586 169.27954102 C103.68476727 170.68607205 102.36209018 172.08540313 101.0390625 173.484375 C99.13064625 175.83881957 98.23759257 177.02384042 98 180 C98.33 180.99 98.66 181.98 99 183 C99.14648082 185.26763574 99.2209626 187.54032366 99.25 189.8125 C99.28867187 191.61654297 99.28867187 191.61654297 99.328125 193.45703125 C98.97066741 197.31672217 97.78510473 199.60360337 96 203 C95.09830883 210.97433125 98.8158639 219.2732026 101.27197266 226.74462891 C102.53730508 230.66452862 103.70185343 234.61423083 104.875 238.5625 C107.04213759 245.81876632 109.23034199 253.06830527 111.4375 260.3125 C111.72705566 261.26286133 112.01661133 262.21322266 112.31494141 263.19238281 C112.90695047 265.13480017 113.49907381 267.0771827 114.09130859 269.01953125 C115.64538316 274.11682904 117.19779043 279.21463404 118.75 284.3125 C119.17236938 285.69852417 119.17236938 285.69852417 119.60327148 287.11254883 C120.13992956 288.8748936 120.67521643 290.63765664 121.20898438 292.40087891 C121.7555857 294.1969029 122.30944008 295.99072977 122.86914062 297.78271484 C123.14435547 298.67297363 123.41957031 299.56323242 123.703125 300.48046875 C124.07679199 301.67579224 124.07679199 301.67579224 124.45800781 302.89526367 C125 305 125 305 125 308 C125.66 308 126.32 308 127 308 C127.13728516 306.63294922 127.13728516 306.63294922 127.27734375 305.23828125 C128.07160084 299.71992112 129.88385549 294.4883786 131.5625 289.1875 C132.28927666 286.86204609 133.01583271 284.53652322 133.7421875 282.2109375 C134.11569336 281.02081055 134.48919922 279.83068359 134.87402344 278.60449219 C136.32534423 273.95850341 137.74665827 269.30360153 139.16821289 264.6484375 C141.56719399 256.79701768 143.97547079 248.95832369 146.625 241.1875 C148.9050075 234.46989401 150.83994926 227.67409565 152.765625 220.84887695 C155.02718655 212.84816581 157.43382108 204.90802076 160 197 C160.33773438 195.91460937 160.67546875 194.82921875 161.0234375 193.7109375 C162.75870087 188.44961897 163.97360025 184.91002091 169 182 C171.86608129 180.56695936 173.81300783 180.69355845 177 181 C183.77925007 184.72194122 186.08508283 188.53258485 188.25 195.8125 C195.21731898 219.16643575 202.43487558 242.44524944 209.60614014 265.73712158 C211.00787479 270.29016072 212.40919089 274.84332868 213.81054688 279.39648438 C216.53996523 288.26444587 219.26983188 297.1322693 222 306 C223.79825297 303.30262055 224.57687862 301.52425142 225.48046875 298.484375 C225.75375 297.57494141 226.02703125 296.66550781 226.30859375 295.72851562 C226.59863281 294.74560547 226.88867188 293.76269531 227.1875 292.75 C227.81627466 290.65100224 228.44518462 288.55204501 229.07421875 286.453125 C229.39438965 285.37869141 229.71456055 284.30425781 230.04443359 283.19726562 C231.5103803 278.29229934 233.00566766 273.39637689 234.5 268.5 C235.08349552 266.5833827 235.66682831 264.66671586 236.25 262.75 C239.75 251.25 243.25 239.75 246.75 228.25 C247.03891113 227.29988037 247.32782227 226.34976074 247.62548828 225.37084961 C248.20530067 223.4674398 248.78698601 221.56459946 249.37060547 219.66235352 C250.89920434 214.67107143 252.38743459 209.6720139 253.8203125 204.65234375 C254.12259766 203.61207031 254.42488281 202.57179688 254.73632812 201.5 C255.31227387 199.51520237 255.87681481 197.52704549 256.42773438 195.53515625 C258.07723483 189.90507646 259.82646293 186.16678377 264 182 C266.90295805 180.54852097 268.77261779 180.62760975 272 181 C275.86469308 183.40631833 277.70324165 184.77535579 278.78979492 189.25927734 C279.01987236 193.35364028 278.40192284 195.93466425 277.05078125 199.7890625 C276.7299482 200.72677994 276.7299482 200.72677994 276.40263367 201.68344116 C275.72003792 203.66919391 275.01713804 205.64697516 274.3125 207.625 C273.63325394 209.57464731 272.958329 211.52575426 272.28366089 213.47698975 C271.83546291 214.77206503 271.38552142 216.06653819 270.93386841 217.3604126 C269.16712213 222.44062329 267.57439978 227.56131437 266.01635742 232.70849609 C263.92372971 239.48553353 261.61887254 246.19481403 259.35449219 252.91601562 C257.16459522 259.42256838 254.99937691 265.9317658 253 272.5 C250.60814711 280.35757296 247.97652762 288.1332115 245.35449219 295.91601562 C242.75355145 303.64384866 240.22848 311.38555731 237.88232422 319.1953125 C235.64297774 326.31363358 233.6475447 332.11181348 227 336 C222.39829274 336.92529841 218.97860077 336.42467581 214.6875 334.5625 C207.49033371 327.70008563 205.57211507 315.79544797 202.67578125 306.515625 C202.1654183 304.8938824 201.65460036 303.27228293 201.14335632 301.65081787 C199.79900114 297.38257521 198.46107597 293.11234338 197.12445068 288.8416748 C195.79603752 284.60149743 194.46111657 280.36337075 193.12695312 276.125 C189.14733005 263.4741829 185.17674253 250.82061311 181.25927734 238.15039062 C181.04682342 237.46365643 180.83436949 236.77692223 180.61547756 236.0693779 C179.62809014 232.87682239 178.64291598 229.68362843 177.66120911 226.48931885 C177.32207993 225.39037292 176.98295074 224.291427 176.63354492 223.15917969 C176.34009689 222.2045282 176.04664886 221.24987671 175.74430847 220.26629639 C175.06151073 218.00152193 175.06151073 218.00152193 174 216 C173.82460693 216.58152832 173.64921387 217.16305664 173.46850586 217.76220703 C169.36716204 231.34300926 165.15715704 244.88393878 160.83203125 258.39501953 C159.52425763 262.48948683 158.23027339 266.58827627 156.9375 270.6875 C156.69378662 271.4599707 156.45007324 272.23244141 156.19897461 273.02832031 C155.71053705 274.57663652 155.22217411 276.12497627 154.73388672 277.67333984 C153.24209598 282.40280283 151.74837484 287.13165697 150.25415039 291.86035156 C148.71454628 296.73349823 147.17960289 301.60808192 145.6484375 306.48388672 C144.89380163 308.87785466 144.13088884 311.26906764 143.3671875 313.66015625 C142.5176824 316.3269497 141.71606198 318.99167982 140.9453125 321.68359375 C139.08575614 327.9615175 137.66403787 331.50516812 132 335 C128.38069302 336.20643566 125.80768995 336.32268559 122 336 C115.07333358 332.40346167 112.98928078 327.46790525 110.73127747 320.3681488 C110.46030746 319.4938472 110.18933746 318.61954559 109.91015625 317.71875 C109.61376755 316.78068008 109.31737885 315.84261017 109.01200867 314.87611389 C108.36535952 312.82897935 107.7212003 310.78105702 107.07922363 308.73245239 C106.0494387 305.45847444 105.00492132 302.18954234 103.95605469 298.92163086 C100.5103092 288.1698394 97.10644493 277.40953384 93.84810925 266.59957695 C92.15048844 260.97231714 90.41850768 255.3563113 88.66457081 249.74635506 C87.5958258 246.32087096 86.54685518 242.89173169 85.540802 239.44726562 C84.40908236 235.57319666 83.20005279 231.72745521 81.984375 227.87890625 C81.65958664 226.71867447 81.33479828 225.55844269 81.00016785 224.36305237 C79.94744087 221.1561869 79.03194651 218.69845634 77 216 C73.07010772 214.11995269 69.29745762 213.50879767 65 213 C64.25079285 212.79866959 63.50158569 212.59733917 62.72967529 212.38990784 C60.95154496 211.78260247 60.95154496 211.78260247 59.38671875 212.94140625 C58.82597656 213.47636719 58.26523438 214.01132812 57.6875 214.5625 C56.99785156 215.20574219 56.30820313 215.84898437 55.59765625 216.51171875 C54.74042969 217.33285156 53.88320312 218.15398437 53 219 C51.83357776 220.09149877 50.66547613 221.18120444 49.49609375 222.26953125 C46.88380651 224.70126875 44.27639262 227.13806915 41.671875 229.578125 C37.99670463 233.01303908 34.2657756 236.38159135 30.515625 239.734375 C27.52944401 242.42379266 24.57530188 245.14634956 21.625 247.875 C20.80237671 248.63574829 20.80237671 248.63574829 19.96313477 249.41186523 C19.41455811 249.91919189 18.86598145 250.42651855 18.30078125 250.94921875 C11.5921578 257.15316761 4.8653631 263.33686793 -1.9375 269.4375 C-6.90512383 273.89643915 -11.80683252 278.42438331 -16.70703125 282.95703125 C-21.29570729 287.20071432 -25.90631603 291.42040541 -30.51611328 295.64111328 C-32.510781 297.46775371 -34.50454707 299.29537612 -36.49804688 301.12329102 C-37.49766859 302.03955675 -38.49766748 302.95541117 -39.49804688 303.87084961 C-42.01883817 306.17842534 -44.53292269 308.49261596 -47.03515625 310.8203125 C-49.99963004 313.57392414 -52.99395326 316.29177823 -56 319 C-56.4945166 319.4527832 -56.9890332 319.90556641 -57.49853516 320.37207031 C-58.94068506 321.68328756 -60.4075193 322.96719549 -61.875 324.25 C-62.71804687 324.99765625 -63.56109375 325.7453125 -64.4296875 326.515625 C-67 328 -67 328 -70.1953125 327.921875 C-73 327 -73 327 -75 324 C-75.40625 321.6171875 -75.40625 321.6171875 -75 319 C-73.09375 316.5703125 -73.09375 316.5703125 -70.5 314.125 C-69.11361328 312.80628906 -69.11361328 312.80628906 -67.69921875 311.4609375 C-64.96190626 308.9652691 -62.20062119 306.51021733 -59.38671875 304.1015625 C-56.06736627 301.17879387 -52.85074407 298.15035513 -49.625 295.125 C-44.6392293 290.45171904 -39.61898042 285.82726157 -34.5234375 281.2734375 C-31.49121879 278.54162436 -28.49463353 275.77287299 -25.5 273 C-21.69020002 269.47298019 -17.8666241 265.96489692 -14 262.5 C-9.05135091 258.06383237 -4.17165228 253.55566166 0.70703125 249.04296875 C5.29570729 244.79928568 9.90631603 240.57959459 14.51611328 236.35888672 C16.51082518 234.53220583 18.50459907 232.70450295 20.49829102 230.87670898 C21.49739624 229.96076778 22.49658211 229.04491455 23.49584961 228.12915039 C26.02196074 225.81406372 28.54705298 223.49788212 31.0703125 221.1796875 C36.69710088 216.0123933 42.34593612 210.87167852 48.0390625 205.77734375 C49.39086769 204.55210199 50.70992352 203.29007648 52 202 C51.73069882 199.99037616 51.38535955 197.99063033 51 196 C50.88732456 193.79365764 50.82543431 191.58417973 50.8125 189.375 C50.79832031 188.26898438 50.78414062 187.16296875 50.76953125 186.0234375 C51 183 51 183 52.07421875 180.9765625 C53.48981315 178.44074272 53.48981315 178.44074272 52 173 C48.37 164.42 44.74 155.84 41 147 C9.65 147 -21.7 147 -54 147 C-59.61 160.53 -65.22 174.06 -71 188 C-75.76923077 195.15384615 -75.76923077 195.15384615 -81 197 C-85.34153843 197.5426923 -87.42417482 197.30420953 -91.3125 195.25 C-94.35450017 192.70320916 -95.7285159 190.86316218 -96.30256653 186.92352295 C-96.33668186 181.27396 -95.27432461 177.07024478 -92.94921875 171.953125 C-92.62383621 171.20105774 -92.29845367 170.44899048 -91.96321106 169.6741333 C-90.88598819 167.19272449 -89.78659767 164.72178743 -88.6875 162.25 C-87.91613519 160.48191859 -87.1466439 158.71301879 -86.37890625 156.94335938 C-84.75625038 153.20513638 -83.12682102 149.46996899 -81.49365234 145.73632812 C-77.814163 137.29973476 -74.2547278 128.81259138 -70.68887329 120.32751465 C-68.69310415 115.58094785 -66.69035565 110.83733 -64.6875 106.09375 C-64.0968853 104.69464386 -64.0968853 104.69464386 -63.49433899 103.26727295 C-60.89952728 97.12291641 -58.29691453 90.98191846 -55.6875 84.84375 C-55.33948334 84.02495361 -54.99146667 83.20615723 -54.63290405 82.36254883 C-52.90391257 78.29627381 -51.17208217 74.23123662 -49.43603516 70.16796875 C-45.99340801 62.10155866 -42.58617291 54.02280701 -39.24957275 45.91186523 C-37.54774825 41.77744652 -35.83472612 37.64770386 -34.12133789 33.51806641 C-33.30002144 31.52920962 -32.48428701 29.53803714 -31.67456055 27.54443359 C-30.5445344 24.76315762 -29.39534544 21.99049958 -28.2421875 19.21875 C-27.91672943 18.40281372 -27.59127136 17.58687744 -27.25595093 16.74621582 C-24.62001149 10.49116796 -20.95797844 4.34260218 -14.97116089 0.79919434 C-10.32542019 -1.08439095 -4.89720678 -0.48849943 0 0 Z " fill="#6B6B6B" transform="translate(181,66)"/>
<path d="M0 0 C7.17464464 3.33108501 11.13184423 9.57389346 14.1015625 16.66015625 C14.37538757 17.30526154 14.64921265 17.95036682 14.93133545 18.61502075 C15.83907494 20.76017515 16.73191142 22.91120947 17.625 25.0625 C18.27587925 26.60824021 18.92776181 28.15355826 19.58056641 29.69848633 C20.98711025 33.03199398 22.38743834 36.36801968 23.78320312 39.70605469 C26.04551856 45.11426913 28.32578589 50.51480233 30.609375 55.9140625 C33.41310579 62.54477794 36.21442746 69.17649244 39.01115417 75.81016541 C43.57365673 86.63146274 48.15427469 97.44492928 52.75033569 108.25201416 C53.8007126 110.72227853 54.85027745 113.19288653 55.8996582 115.66357422 C58.9687239 122.88719277 62.04333655 130.10827345 65.14045715 137.31991577 C66.47034607 140.41795983 67.7963651 143.51765224 69.12191772 146.61755371 C69.74299227 148.06689557 70.36602196 149.51540135 70.99111938 150.9630127 C71.84395 152.93815993 72.69026018 154.9159798 73.53515625 156.89453125 C74.013479 158.00675049 74.49180176 159.11896973 74.98461914 160.26489258 C76 163 76 163 76 166 C74.948125 166.11214844 74.948125 166.11214844 73.875 166.2265625 C65.06589748 167.44738921 60.114228 170.75528543 54 177 C49.31008675 167.12197758 45.17160563 157.13104224 41 147 C9.65 147 -21.7 147 -54 147 C-59.61 160.53 -65.22 174.06 -71 188 C-75.76923077 195.15384615 -75.76923077 195.15384615 -81 197 C-85.34153843 197.5426923 -87.42417482 197.30420953 -91.3125 195.25 C-94.35450017 192.70320916 -95.7285159 190.86316218 -96.30256653 186.92352295 C-96.33668186 181.27396 -95.27432461 177.07024478 -92.94921875 171.953125 C-92.62383621 171.20105774 -92.29845367 170.44899048 -91.96321106 169.6741333 C-90.88598819 167.19272449 -89.78659767 164.72178743 -88.6875 162.25 C-87.91613519 160.48191859 -87.1466439 158.71301879 -86.37890625 156.94335938 C-84.75625038 153.20513638 -83.12682102 149.46996899 -81.49365234 145.73632812 C-77.814163 137.29973476 -74.2547278 128.81259138 -70.68887329 120.32751465 C-68.69310415 115.58094785 -66.69035565 110.83733 -64.6875 106.09375 C-64.0968853 104.69464386 -64.0968853 104.69464386 -63.49433899 103.26727295 C-60.89952728 97.12291641 -58.29691453 90.98191846 -55.6875 84.84375 C-55.33948334 84.02495361 -54.99146667 83.20615723 -54.63290405 82.36254883 C-52.90391257 78.29627381 -51.17208217 74.23123662 -49.43603516 70.16796875 C-45.99340801 62.10155866 -42.58617291 54.02280701 -39.24957275 45.91186523 C-37.54774825 41.77744652 -35.83472612 37.64770386 -34.12133789 33.51806641 C-33.30002144 31.52920962 -32.48428701 29.53803714 -31.67456055 27.54443359 C-30.5445344 24.76315762 -29.39534544 21.99049958 -28.2421875 19.21875 C-27.91672943 18.40281372 -27.59127136 17.58687744 -27.25595093 16.74621582 C-24.62001149 10.49116796 -20.95797844 4.34260218 -14.97116089 0.79919434 C-10.32542019 -1.08439095 -4.89720678 -0.48849943 0 0 Z " fill="#6A6A6A" transform="translate(181,66)"/>
<path d="M0 0 C2.5 2.0625 2.5 2.0625 4 5 C4.01318843 11.27110048 2.62194634 14.17077435 -1.70996094 18.62988281 C-2.65790527 19.55559082 -2.65790527 19.55559082 -3.625 20.5 C-4.91480276 21.81698376 -6.2038746 23.13468378 -7.4921875 24.453125 C-8.41402832 25.3802832 -8.41402832 25.3802832 -9.35449219 26.32617188 C-11.23262718 28.23663085 -13.00874897 30.21433455 -14.75 32.25 C-17.4472508 35.38317012 -20.21313891 38.44613426 -23 41.5 C-26.45328153 45.28662998 -29.86099051 49.1047632 -33.22265625 52.97265625 C-36.05311616 56.20124678 -38.93961207 59.37913175 -41.81640625 62.56640625 C-44.27311858 65.30438797 -46.69022311 68.07417541 -49.09765625 70.85546875 C-50.58015696 72.52670672 -52.09459409 74.16963333 -53.62109375 75.80078125 C-54.07621338 76.28877197 -54.53133301 76.7767627 -55.00024414 77.27954102 C-56.31523273 78.68607205 -57.63790982 80.08540313 -58.9609375 81.484375 C-60.86935375 83.83881957 -61.76240743 85.02384042 -62 88 C-61.67 88.99 -61.34 89.98 -61 91 C-60.13064019 99.46250247 -60.39779286 105.92871248 -65.359375 113.01171875 C-69.01934404 117.44725265 -73.35438753 120.63829418 -79 122 C-84.73245855 122.47046693 -90.44922365 122.88042173 -95.8125 120.5625 C-98.84299339 119.68115517 -98.84299339 119.68115517 -100.66796875 120.93359375 C-102.90402986 122.84544984 -104.93212602 124.90619657 -107 127 C-108.79103046 128.69404706 -110.5972815 130.37091171 -112.40478516 132.04736328 C-114.38529975 133.88455439 -116.35716783 135.73068964 -118.328125 137.578125 C-122.00329537 141.01303908 -125.7342244 144.38159135 -129.484375 147.734375 C-132.47055599 150.42379266 -135.42469812 153.14634956 -138.375 155.875 C-139.19762329 156.63574829 -139.19762329 156.63574829 -140.03686523 157.41186523 C-140.58544189 157.91919189 -141.13401855 158.42651855 -141.69921875 158.94921875 C-148.4078422 165.15316761 -155.1346369 171.33686793 -161.9375 177.4375 C-166.90512383 181.89643915 -171.80683252 186.42438331 -176.70703125 190.95703125 C-181.29570729 195.20071432 -185.90631603 199.42040541 -190.51611328 203.64111328 C-192.510781 205.46775371 -194.50454707 207.29537612 -196.49804688 209.12329102 C-197.49766859 210.03955675 -198.49766748 210.95541117 -199.49804688 211.87084961 C-202.01883817 214.17842534 -204.53292269 216.49261596 -207.03515625 218.8203125 C-209.99963004 221.57392414 -212.99395326 224.29177823 -216 227 C-216.7417749 227.6791748 -216.7417749 227.6791748 -217.49853516 228.37207031 C-218.94068506 229.68328756 -220.4075193 230.96719549 -221.875 232.25 C-222.71804687 232.99765625 -223.56109375 233.7453125 -224.4296875 234.515625 C-227 236 -227 236 -230.1953125 235.921875 C-233 235 -233 235 -235 232 C-235.40625 229.6171875 -235.40625 229.6171875 -235 227 C-233.09375 224.5703125 -233.09375 224.5703125 -230.5 222.125 C-229.57574219 221.24585938 -228.65148437 220.36671875 -227.69921875 219.4609375 C-224.96190626 216.9652691 -222.20062119 214.51021733 -219.38671875 212.1015625 C-216.06736627 209.17879387 -212.85074407 206.15035513 -209.625 203.125 C-204.6392293 198.45171904 -199.61898042 193.82726157 -194.5234375 189.2734375 C-191.49121879 186.54162436 -188.49463353 183.77287299 -185.5 181 C-181.69020002 177.47298019 -177.8666241 173.96489692 -174 170.5 C-169.05135091 166.06383237 -164.17165228 161.55566166 -159.29296875 157.04296875 C-154.70429271 152.79928568 -150.09368397 148.57959459 -145.48388672 144.35888672 C-143.48917482 142.53220583 -141.49540093 140.70450295 -139.50170898 138.87670898 C-138.50260376 137.96076778 -137.50341789 137.04491455 -136.50415039 136.12915039 C-133.97803926 133.81406372 -131.45294702 131.49788212 -128.9296875 129.1796875 C-123.30289912 124.0123933 -117.65406388 118.87167852 -111.9609375 113.77734375 C-110.60913231 112.55210199 -109.29007648 111.29007648 -108 110 C-108.25892537 107.98901299 -108.60555657 105.98885029 -109 104 C-109.74886415 95.47364671 -109.50117044 88.83854771 -104 82 C-99.49552866 77.23900979 -95.25967979 74.21805114 -88.5546875 73.76953125 C-87.34039062 73.78371094 -86.12609375 73.79789062 -84.875 73.8125 C-83.04582031 73.82216797 -83.04582031 73.82216797 -81.1796875 73.83203125 C-78 74 -78 74 -75 75 C-74.72760498 74.40541992 -74.45520996 73.81083984 -74.17456055 73.19824219 C-73.02970512 71.05559444 -71.87355302 69.57993363 -70.20703125 67.828125 C-69.39069214 66.96151245 -69.39069214 66.96151245 -68.55786133 66.07739258 C-67.98189209 65.47435303 -67.40592285 64.87131348 -66.8125 64.25 C-65.62416621 62.98906652 -64.43665837 61.72735409 -63.25 60.46484375 C-62.6828125 59.86269043 -62.115625 59.26053711 -61.53125 58.64013672 C-59.20160544 56.14483185 -56.96819093 53.57232051 -54.73828125 50.98828125 C-52.52743511 48.45947072 -50.26403557 45.98127436 -48 43.5 C-44.54671847 39.71337002 -41.13900949 35.8952368 -37.77734375 32.02734375 C-34.94567053 28.79736924 -32.05797493 25.61809344 -29.1796875 22.4296875 C-27.30854906 20.3439382 -25.46075169 18.24182372 -23.625 16.125 C-20.51987686 12.56689419 -17.36404106 9.05679834 -14.1875 5.5625 C-13.46651123 4.76320068 -13.46651123 4.76320068 -12.73095703 3.94775391 C-8.32367604 -0.87882112 -6.51292488 -1.57208532 0 0 Z " fill="#030303" transform="translate(341,158)"/>
<path d="M0 0 C2.54397992 1.27198996 2.67418342 2.16617638 3.7331543 4.76489258 C4.06550079 5.57082855 4.39784729 6.37676453 4.74026489 7.2071228 C5.09796967 8.09396759 5.45567444 8.98081238 5.82421875 9.89453125 C6.20287079 10.81746979 6.58152283 11.74040833 6.97164917 12.6913147 C8.21651694 15.72919459 9.45201844 18.77079215 10.6875 21.8125 C11.97304834 24.95789779 13.26075338 28.10240727 14.54850769 31.24690247 C15.42075542 33.37741684 16.29217836 35.50826906 17.16279602 37.63945007 C19.91805606 44.37987538 22.70397491 51.10650032 25.5234375 57.8203125 C25.87060318 58.64784531 26.21776886 59.47537811 26.57545471 60.32798767 C27.88843115 63.45623904 29.20200898 66.58421222 30.52230835 69.7093811 C31.41545796 71.82435352 32.30383749 73.94127456 33.19140625 76.05859375 C33.68842041 77.23736084 34.18543457 78.41612793 34.69750977 79.63061523 C36.00546426 83.01413538 37.00344164 86.51204573 38 90 C13.25 90 -11.5 90 -37 90 C-35.01376563 84.0412969 -32.97626445 78.29051906 -30.55078125 72.5234375 C-30.22071579 71.73095612 -29.89065033 70.93847473 -29.55058289 70.12197876 C-28.47403438 67.53846913 -27.39326975 64.95674621 -26.3125 62.375 C-24.78619674 58.71679681 -23.26213955 55.05765973 -21.73828125 51.3984375 C-21.34923615 50.46497498 -20.96019104 49.53151245 -20.55935669 48.56976318 C-17.80077108 41.94424498 -15.06984064 35.30780774 -12.35546875 28.6640625 C-11.98617752 27.76062103 -11.61688629 26.85717957 -11.23640442 25.92636108 C-9.8035738 22.41969511 -8.37138461 18.91277926 -6.9437561 15.4039917 C-5.96458949 12.99763766 -4.98252974 10.59248235 -4 8.1875 C-3.7091301 7.46970367 -3.41826019 6.75190735 -3.11857605 6.01235962 C-1.11343558 1.11343558 -1.11343558 1.11343558 0 0 Z " fill="#FCFCFC" transform="translate(174,99)"/>
</svg>
