<svg xmlns="http://www.w3.org/2000/svg" width="844" height="772" style="shape-rendering:geometricPrecision;text-rendering:geometricPrecision;image-rendering:optimizeQuality;fill-rule:evenodd;clip-rule:evenodd"><path fill="#ebe21d" d="M445.5-.5h43c43.761 2.773 85.761 13.107 126 31l4 3h-3c-16.176-7.836-33.176-13.503-51-17h-1a245.51 245.51 0 0 0-13-3 378.35 378.35 0 0 0-42-4c-57.146-1.879-111.146 10.121-162 36a370.137 370.137 0 0 1-41-11c44.581-20.313 91.248-31.98 140-35Z" style="opacity:.97"/><path fill="#faf7d1" d="M508.5 9.5c-3.545 2.785-7.545 5.118-12 7a2924.79 2924.79 0 0 0-92 44 197.606 197.606 0 0 1-15-11 731.433 731.433 0 0 0-19.5 25c-.692.937-.525 1.603.5 2a46.107 46.107 0 0 1-5.5 6c.077-1.238-.089-2.238-.5-3a5984.738 5984.738 0 0 1-93 45 124.177 124.177 0 0 0-17 5c-1.226-.02-2.226-.353-3-1a189.1 189.1 0 0 1 20-25 673.625 673.625 0 0 1 32-30 486.27 486.27 0 0 1 43-28c50.854-25.879 104.854-37.879 162-36Z" style="opacity:1"/><path fill="#f9f5ca" d="M508.5 9.5a378.35 378.35 0 0 1 42 4c.086.996-.248 1.83-1 2.5a12182.578 12182.578 0 0 0-160 78 707.941 707.941 0 0 0-54 26 115.326 115.326 0 0 0-22 10 302.358 302.358 0 0 0-37 16 763 763 0 0 1-49 25.5v-3a280.93 280.93 0 0 1 20-35l4-5c.774.647 1.774.98 3 1a124.177 124.177 0 0 1 17-5 5984.738 5984.738 0 0 0 93-45c.411.762.577 1.762.5 3a46.107 46.107 0 0 0 5.5-6c12.387-12.676 26.72-15.343 43-8 1.196-.346 1.196-.846 0-1.5a942.285 942.285 0 0 1-9-6.5 2924.79 2924.79 0 0 1 92-44c4.455-1.882 8.455-4.215 12-7Z" style="opacity:1"/><path fill="#3e2f2a" d="M563.5 16.5h1a538.565 538.565 0 0 0 44 14.5c-4.383-.008-8.716-.674-13-2-8.668-1.336-17.002-.336-25 3a25.558 25.558 0 0 0-5.5 6.5l-1.5-3a979.628 979.628 0 0 0-2-15.5c.108-1.681.775-2.848 2-3.5Z" style="opacity:1"/><path fill="#f8f2bd" d="M564.5 16.5c17.824 3.497 34.824 9.164 51 17-2.427.023-4.76.523-7 1.5a5317.954 5317.954 0 0 0-103 51 134.873 134.873 0 0 0-15 5.5 9.264 9.264 0 0 0-2.5-2 766.19 766.19 0 0 1-62.5 30c-13.622-2.442-26.289.058-38 7.5-13.455 8.455-24.622 19.288-33.5 32.5a235.731 235.731 0 0 0-16.5 28 138.334 138.334 0 0 0-25 11l1 2-14 6 2 2a32149.102 32149.102 0 0 1-38 17c-10.097-13.098-22.097-24.098-36-33 4.062-3.364 8.729-5.698 14-7 5.263 1.88 10.597 2.213 16 1a112.173 112.173 0 0 1 20-10.5 27.173 27.173 0 0 1-12-3.5 416.533 416.533 0 0 0 25-11 22.981 22.981 0 0 1 5 2 125.754 125.754 0 0 1 18-9.5c2.631-1.691 2.297-2.858-1-3.5a557.747 557.747 0 0 0 45-22c3.225-1.441 6.225-1.107 9 1 41.513-20.59 83.18-40.923 125-61a906.725 906.725 0 0 0 63-30l9-3 1.5 3a25.558 25.558 0 0 1 5.5-6.5c7.998-3.336 16.332-4.336 25-3 4.284 1.326 8.617 1.992 13 2a538.565 538.565 0 0 1-44-14.5Z" style="opacity:1"/><path fill="#868280" d="M700.5 39.5a41.732 41.732 0 0 0-1 9c-23.015-7.67-46.681-11.336-71-11l-10-4-4-3c29.364-3.412 58.031-.412 86 9Z" style="opacity:.967"/><path fill="#f8f3b8" d="M615.5 33.5h3l10 4 8 6a8703.51 8703.51 0 0 1-106 53 4458.193 4458.193 0 0 1-83 38c-6.303-6.657-13.636-11.657-22-15a766.19 766.19 0 0 0 62.5-30 9.264 9.264 0 0 1 2.5 2 134.873 134.873 0 0 1 15-5.5 5317.954 5317.954 0 0 1 103-51 17.758 17.758 0 0 1 7-1.5Z" style="opacity:1"/><path fill="#ebdd1c" d="M305.5 34.5a370.137 370.137 0 0 0 41 11 486.27 486.27 0 0 0-43 28 737.257 737.257 0 0 0-45-11 331.997 331.997 0 0 1 47-28Z" style="opacity:.991"/><path fill="#494544" d="M628.5 37.5c24.319-.336 47.985 3.33 71 11a57.68 57.68 0 0 1 8 4c-.995 11.822-1.328 23.822-1 36a346.577 346.577 0 0 1-13-2l-10-9a196.992 196.992 0 0 0-47-34l-8-6Z" style="opacity:.999"/><path fill="#f7f2b1" d="M636.5 43.5a196.992 196.992 0 0 1 47 34l-22 10c-12.589-16.473-28.922-22.306-49-17.5A54.334 54.334 0 0 0 595 82.5a119.961 119.961 0 0 0-11.5 17 2735.221 2735.221 0 0 1-63 30c-6.185.636-11.852 2.636-17 6l-2-2a121.345 121.345 0 0 1-13 7c-10.09 3.267-19.757 7.267-29 12a158.536 158.536 0 0 0-12-18 4458.193 4458.193 0 0 0 83-38 8703.51 8703.51 0 0 0 106-53Z" style="opacity:1"/><path fill="#6c6a69" d="M700.5 39.5c46.908 18.575 79.908 51.242 99 98l-8-4c-11.218-23.737-27.218-43.737-48-60-10.723-9.034-22.723-16.034-36-21a57.68 57.68 0 0 0-8-4 41.732 41.732 0 0 1 1-9Z" style="opacity:.963"/><path fill="#40312b" d="M404.5 60.5a942.285 942.285 0 0 0 9 6.5c1.196.654 1.196 1.154 0 1.5-16.28-7.343-30.613-4.676-43 8-1.025-.397-1.192-1.063-.5-2 6.34-8.5 12.84-16.834 19.5-25a197.606 197.606 0 0 0 15 11Z" style="opacity:1"/><path fill="#ead71d" d="M258.5 62.5a737.257 737.257 0 0 1 45 11 673.625 673.625 0 0 0-32 30 633.334 633.334 0 0 1-48-13 176.404 176.404 0 0 1 35-28Z" style="opacity:.994"/><path fill="#e7c817" d="M661.5 87.5a162.762 162.762 0 0 1 19 33 269.522 269.522 0 0 1 9 35 32.462 32.462 0 0 1-.5 8c-.278.916-.778 1.582-1.5 2a43.842 43.842 0 0 1-4.5 7c-19.956 16.071-41.789 29.237-65.5 39.5a260.983 260.983 0 0 1-27 9.5h-10c-3.882-.711-6.382-3.044-7.5-7a148.464 148.464 0 0 1-5.5-29v-23l2-20c3.033-14.769 7.7-29.102 14-43a119.961 119.961 0 0 1 11.5-17A54.334 54.334 0 0 1 612.5 70c20.078-4.806 36.411 1.027 49 17.5Z" style="opacity:.999"/><path fill="#373533" d="M707.5 52.5c13.277 4.966 25.277 11.966 36 21-.994 9.82-1.327 19.82-1 30-11.068-7.2-23.068-12.2-36-15-.328-12.178.005-24.178 1-36Z" style="opacity:1"/><path fill="#3a2b25" d="M687.5 165.5c-30.895 29.873-67.895 46.873-111 51-5.74-27.455-5.24-54.789 1.5-82 4.519-15.544 12.019-29.377 22.5-41.5 15.711-14.535 32.044-15.202 49-2 20.463 20.759 33.13 45.592 38 74.5Z" style="opacity:1"/><path fill="#f9f4c4" d="M550.5 13.5a245.51 245.51 0 0 1 13 3c-1.225.652-1.892 1.819-2 3.5a979.628 979.628 0 0 1 2 15.5l-9 3a906.725 906.725 0 0 1-63 30 10827.607 10827.607 0 0 0-125 61c-2.775-2.107-5.775-2.441-9-1a557.747 557.747 0 0 1-45 22c3.297.642 3.631 1.809 1 3.5a125.754 125.754 0 0 0-18 9.5 22.981 22.981 0 0 0-5-2 416.533 416.533 0 0 1-25 11 27.173 27.173 0 0 0 12 3.5 112.173 112.173 0 0 0-20 10.5c-5.403 1.213-10.737.88-16-1-5.271 1.302-9.938 3.636-14 7a59.562 59.562 0 0 0-9-5v-1l9-18v3a763 763 0 0 0 49-25.5 302.358 302.358 0 0 1 37-16 115.326 115.326 0 0 1 22-10 707.941 707.941 0 0 1 54-26 12182.578 12182.578 0 0 1 160-78c.752-.67 1.086-1.504 1-2.5Z" style="opacity:1"/><path fill="#ead11d" d="M223.5 90.5a633.334 633.334 0 0 0 48 13 189.1 189.1 0 0 0-20 25l-4 5a1480.647 1480.647 0 0 1-52-13 25.497 25.497 0 0 1 5-7c2.638-2.974 5.305-5.974 8-9a74.59 74.59 0 0 1 15-14Z" style="opacity:.997"/><path fill="#f6f0a0" d="m683.5 77.5 10 9a118.153 118.153 0 0 1 12 14c.889 2.236 2.222 4.236 4 6-8.766 6.408-18.433 11.074-29 14a162.762 162.762 0 0 0-19-33l22-10Z" style="opacity:1"/><path fill="#c7c5c5" d="M671.5 168.5c-4.06-36.89-24.726-54.39-62-52.5-8.358 1.537-15.025 5.704-20 12.5-.709.904-1.709 1.237-3 1 6.778-17.952 19.611-28.286 38.5-31 12.957.812 23.623 6.145 32 16 10.897 13.492 18.063 28.826 21.5 46-1.609 3.277-3.942 5.944-7 8Z" style="opacity:1"/><path fill="#282725" d="M743.5 73.5c20.782 16.263 36.782 36.263 48 60a78.003 78.003 0 0 0-19-4 186.002 186.002 0 0 0-30-26c-.327-10.18.006-20.18 1-30Z" style="opacity:1"/><path fill="#595654" d="M693.5 86.5c4.312.748 8.646 1.414 13 2 12.932 2.8 24.932 7.8 36 15a186.002 186.002 0 0 1 30 26l1 2c-2.461 1.031-5.127 1.698-8 2a63.707 63.707 0 0 1-7-6.5c-2.455-1.631-4.955-1.797-7.5-.5a40.914 40.914 0 0 0-.5 9c.219 1.175-.114 2.175-1 3a115.053 115.053 0 0 0-13 6 247.23 247.23 0 0 0-26-38c-.919-2.589-2.586-4.589-5-6a118.153 118.153 0 0 0-12-14Z" style="opacity:.999"/><path fill="#4f4b4a" d="M200.5 113.5a25.497 25.497 0 0 0-5 7 406.14 406.14 0 0 0-22 26 28.906 28.906 0 0 0-8 3 148.836 148.836 0 0 0-20-21 5312.055 5312.055 0 0 1 53.5-16c.765.07 1.265.403 1.5 1Z" style="opacity:.999"/><path fill="#fcfcfc" d="M671.5 168.5c-10.944 10.257-23.277 18.591-37 25-.438.065-.772-.101-1-.5 10.508-20.585 7.508-38.918-9-55-10.387-7.681-22.054-10.848-35-9.5 4.975-6.796 11.642-10.963 20-12.5 37.274-1.89 57.94 15.61 62 52.5Z" style="opacity:1"/><path fill="#e8c816" d="M425.5 119.5c8.364 3.343 15.697 8.343 22 15a158.536 158.536 0 0 1 12 18 152.616 152.616 0 0 1 11 35 109.25 109.25 0 0 1 3 22v27c-.951 1.419-1.284 3.085-1 5-1.254 4.764-3.921 8.598-8 11.5-9.789 4.697-20.122 7.364-31 8a485.683 485.683 0 0 1-52-.5c-18.182-2.56-35.182-8.393-51-17.5l-3-3c.228-.399.562-.565 1-.5 44.622 22.283 89.955 23.783 136 4.5 5.868-29.598 2.368-58.098-10.5-85.5-13.884-25.271-34.384-32.771-61.5-22.5-24.91 12.743-43.577 31.576-56 56.5a20.69 20.69 0 0 1 1-5 235.731 235.731 0 0 1 16.5-28c8.878-13.212 20.045-24.045 33.5-32.5 11.711-7.442 24.378-9.942 38-7.5Z" style="opacity:.999"/><path fill="#eac91e" d="M195.5 120.5a1480.647 1480.647 0 0 0 52 13 280.93 280.93 0 0 0-20 35l-9 18c-19.278-9.235-39.611-13.235-61-12a288.926 288.926 0 0 1 16-28 406.14 406.14 0 0 1 22-26Z" style="opacity:.998"/><path fill="#f5ef93" d="M705.5 100.5c2.414 1.411 4.081 3.411 5 6a262.35 262.35 0 0 1 18 33c-12.864 6.164-25.864 11.497-39 16a269.522 269.522 0 0 0-9-35c10.567-2.926 20.234-7.592 29-14-1.778-1.764-3.111-3.764-4-6Z" style="opacity:1"/><path fill="#f7f1a7" d="M583.5 99.5c-6.3 13.898-10.967 28.231-14 43-25.095 11.042-50.095 23.042-75 36-7.196.924-13.53 3.591-19 8-1.545.952-3.212 1.285-5 1a152.616 152.616 0 0 0-11-35c9.243-4.733 18.91-8.733 29-12a121.345 121.345 0 0 0 13-7l2 2c5.148-3.364 10.815-5.364 17-6a2735.221 2735.221 0 0 0 63-30Z" style="opacity:1"/><path fill="#30584d" d="M589.5 128.5c12.946-1.348 24.613 1.819 35 9.5 16.508 16.082 19.508 34.415 9 55 .228.399.562.565 1 .5-1.014 1.174-2.347 1.84-4 2 6.515-9.902 8.515-20.568 6-32v-2c-8.833-23.085-25.5-32.752-50-29-1.13 1.122-1.797 2.456-2 4-.667 0-1 .333-1 1h-1c.396-3.221 1.729-5.888 4-8 1.291.237 2.291-.096 3-1Z" style="opacity:1"/><path fill="#2da991" d="M772.5 129.5a78.003 78.003 0 0 1 19 4l8 4c17.931 10.839 30.431 26.172 37.5 46 2.821 7.959 4.987 15.959 6.5 24v25c-2.648 17.463-10.648 31.963-24 43.5-5.272 3.307-10.939 5.474-17 6.5-.597-.235-.93-.735-1-1.5 8.436-26.083 10.103-52.583 5-79.5 4.476 7.738 11.143 10.904 20 9.5 2.635-1.961 4.469-4.461 5.5-7.5 2.152-10.202-.181-19.202-7-27-5.058-5.911-11.224-7.744-18.5-5.5-2.859 2.552-4.526 5.719-5 9.5-6.51-18.029-15.843-34.362-28-49l-1-2Z" style="opacity:.993"/><path fill="#3a2b25" d="M328.5 239.5c-.342-.838-1.008-1.172-2-1a132.596 132.596 0 0 1 1-18v-1a640.108 640.108 0 0 1 9-27c12.423-24.924 31.09-43.757 56-56.5 27.116-10.271 47.616-2.771 61.5 22.5 12.868 27.402 16.368 55.902 10.5 85.5-46.045 19.283-91.378 17.783-136-4.5Z" style="opacity:1"/><path fill="#767472" d="M208.5 104.5a5999.972 5999.972 0 0 0-8 9c-.235-.597-.735-.93-1.5-1a5312.055 5312.055 0 0 0-53.5 16 310.33 310.33 0 0 0-42 14 66.686 66.686 0 0 0-12 5c.412-2.473-.588-3.806-3-4a389.893 389.893 0 0 1 49-18.5 8754.75 8754.75 0 0 0 71-20.5Z" style="opacity:.942"/><path fill="#605d5c" d="M145.5 128.5a148.836 148.836 0 0 1 20 21 764.376 764.376 0 0 0-41 16 346.049 346.049 0 0 0-21-23 310.33 310.33 0 0 1 42-14Z" style="opacity:.992"/><path fill="#519687" d="M595.5 148.5c-1.681 1.508-3.681 2.508-6 3a73.609 73.609 0 0 0-5.5-10 8.43 8.43 0 0 1-.5-4c0-.667.333-1 1-1a21.17 21.17 0 0 1 7-2 108.956 108.956 0 0 0 4 14Z" style="opacity:1"/><path fill="#696766" d="M103.5 142.5a346.049 346.049 0 0 1 21 23 753.342 753.342 0 0 0-33 16c-8.02-7.022-16.02-14.022-24-21 7.353-5.346 15.353-9.68 24-13a66.686 66.686 0 0 1 12-5Z" style="opacity:.989"/><path fill="#f7ee9f" d="m569.5 142.5-2 20c-4.866 2.57-9.7 5.237-14.5 8a3.647 3.647 0 0 0-1.5-1c-26.825 12.409-52.825 25.742-78 40a109.25 109.25 0 0 0-3-22c1.788.285 3.455-.048 5-1 5.47-4.409 11.804-7.076 19-8 24.905-12.958 49.905-24.958 75-36Z" style="opacity:1"/><path fill="#c8c6c5" d="M445.5 244.5c7.734-33.338-2.6-59.171-31-77.5-16.095-7.048-31.428-5.714-46 4 3.525.179 6.859.679 10 1.5a102.078 102.078 0 0 0-18 1c15.11-20.096 35.11-27.929 60-23.5 16.807 6.141 28.307 17.641 34.5 34.5 6.677 17.922 8.177 36.255 4.5 55a44.022 44.022 0 0 1-14 5Z" style="opacity:1"/><path fill="#64a799" d="M615.5 155.5a34.32 34.32 0 0 0-8-6 143.444 143.444 0 0 1 4-8.5c5.68-.05 10.347 2.117 14 6.5a56.72 56.72 0 0 1-10 8Z" style="opacity:1"/><path fill="#257f6a" d="M636.5 161.5c-4.205.217-8.205.883-12 2h-5c.302 2.559-.032 4.893-1 7 .633-5.391-.367-10.391-3-15a56.72 56.72 0 0 0 10-8c-3.653-4.383-8.32-6.55-14-6.5a143.444 143.444 0 0 0-4 8.5 73.314 73.314 0 0 0-12-1 108.956 108.956 0 0 1-4-14 21.17 21.17 0 0 0-7 2c.203-1.544.87-2.878 2-4 24.5-3.752 41.167 5.915 50 29Z" style="opacity:1"/><path fill="#262523" d="M595.5 148.5c4.034.005 8.034.338 12 1a34.32 34.32 0 0 1 8 6c2.633 4.609 3.633 9.609 3 15a29.417 29.417 0 0 1-2 7 25.658 25.658 0 0 1-6 6 16.339 16.339 0 0 0-5 2 68.206 68.206 0 0 1-14-1 21.614 21.614 0 0 0-5-4 50.815 50.815 0 0 1-5-10c-.31-4.2.357-8.2 2-12 1.971-2.308 3.971-4.642 6-7 2.319-.492 4.319-1.492 6-3Z" style="opacity:1"/><path fill="#f2f2f2" d="M591.5 155.5c4.85.019 7.183 2.519 7 7.5-.046 3.944-1.713 6.777-5 8.5-1.529-.029-2.696-.696-3.5-2-2.347-5.052-1.847-9.719 1.5-14Z" style="opacity:1"/><path fill="#84b7ac" d="M583.5 158.5c-1.643 3.8-2.31 7.8-2 12-1.305-1.897-1.971-4.231-2-7l1-7c1.239.442 2.239 1.109 3 2Z" style="opacity:1"/><path fill="#fcfcfc" d="M445.5 244.5c-11.297 3.376-22.964 5.376-35 6a72.367 72.367 0 0 1-12-.5c16.691-13.579 21.858-30.745 15.5-51.5-6.947-15.46-18.78-24.126-35.5-26-3.141-.821-6.475-1.321-10-1.5 14.572-9.714 29.905-11.048 46-4 28.4 18.329 38.734 44.162 31 77.5Z" style="opacity:1"/><path fill="#f5ed87" d="M728.5 139.5c5.559 10.335 9.559 21.335 12 33-1.914 1.6-4.081 2.934-6.5 4-2.521-1.173-5.021-1.173-7.5 0a192.79 192.79 0 0 1-34 15c-2.167-.37-4.167-1.037-6-2a257.91 257.91 0 0 1 4.5-15 12.494 12.494 0 0 0 0-7c-17.397 20.123-38.564 34.957-63.5 44.5a275.767 275.767 0 0 1-35 10.5c-.342-.838-1.008-1.172-2-1a260.983 260.983 0 0 0 27-9.5c23.711-10.263 45.544-23.429 65.5-39.5a43.842 43.842 0 0 0 4.5-7c.722-.418 1.222-1.084 1.5-2 .497-2.646.664-5.313.5-8 13.136-4.503 26.136-9.836 39-16Z" style="opacity:1"/><path fill="#58a494" d="M636.5 161.5v2c.535 6.861-.298 13.528-2.5 20-4.088 1.138-7.588.138-10.5-3 2.446-2.927 3.446-6.427 3-10.5-.033-2.61-.7-4.777-2-6.5 3.795-1.117 7.795-1.783 12-2Z" style="opacity:1"/><path fill="#a39f9d" d="M765.5 133.5c10.889 13.101 19.223 27.767 25 44a12.624 12.624 0 0 0-4-1 202.052 202.052 0 0 1-15 2 183.655 183.655 0 0 1-21-43 40.914 40.914 0 0 1 .5-9c2.545-1.297 5.045-1.131 7.5.5a63.707 63.707 0 0 0 7 6.5Z" style="opacity:1"/><path fill="#fdfdfb" d="M686.5 189.5c-6.456 14.959-16.123 27.459-29 37.5a96.798 96.798 0 0 1-12 5.5c-14.745 4.622-29.078 3.455-43-3.5l-10-5c-1.238-.69-1.238-1.19 0-1.5a275.767 275.767 0 0 0 35-10.5c24.936-9.543 46.103-24.377 63.5-44.5a12.494 12.494 0 0 1 0 7 257.91 257.91 0 0 0-4.5 15Z" style="opacity:1"/><path fill="#fbfcfc" d="M806.5 201.5a714.244 714.244 0 0 0-5-21c.474-3.781 2.141-6.948 5-9.5 7.276-2.244 13.442-.411 18.5 5.5 6.819 7.798 9.152 16.798 7 27-1.031 3.039-2.865 5.539-5.5 7.5-8.857 1.404-15.524-1.762-20-9.5Z" style="opacity:1"/><path fill="#2f6d5d" d="M582.5 137.5h1a8.43 8.43 0 0 0 .5 4 73.609 73.609 0 0 1 5.5 10 2464.252 2464.252 0 0 0-6 7c-.761-.891-1.761-1.558-3-2l-1 7c.029 2.769.695 5.103 2 7a50.815 50.815 0 0 0 5 10c-3.225 3.335-2.559 6.335 2 9 5.244 5.947 11.911 8.614 20 8h9a262.857 262.857 0 0 0 13-2c-5.885 3.298-12.218 5.631-19 7-9.28 1.017-17.28-1.65-24-8a29.804 29.804 0 0 0-4.5 6 11.105 11.105 0 0 0-4.5-3c-3.456-20.353-2.122-40.353 4-60Z" style="opacity:1"/><path fill="#98cabf" d="M624.5 163.5c1.3 1.723 1.967 3.89 2 6.5.446 4.073-.554 7.573-3 10.5a32.508 32.508 0 0 1-7-3 29.417 29.417 0 0 0 2-7c.968-2.107 1.302-4.441 1-7h5Z" style="opacity:1"/><path fill="#cdcbcb" d="M156.5 174.5a49.783 49.783 0 0 1-3 9c-16.361.256-31.694 4.256-46 12 14.199-11.59 30.533-18.59 49-21Z" style="opacity:.932"/><path fill="#ba8826" d="M156.5 174.5h1c21.389-1.235 41.722 2.765 61 12v1a148.09 148.09 0 0 1-5 13c-18.459-10.929-38.459-16.595-60-17a49.783 49.783 0 0 0 3-9Z" style="opacity:.999"/><path fill="#2f5a4e" d="M378.5 172.5c16.72 1.874 28.553 10.54 35.5 26 6.358 20.755 1.191 37.921-15.5 51.5 3.986.499 7.986.666 12 .5-5 1.333-10 1.333-15 0 1.85-.742 2.516-1.742 2-3 .709-.904 1.709-1.237 3-1 12.467-13.15 15.967-28.483 10.5-46-10.719-20.609-27.552-28.775-50.5-24.5-8.301 7.762-13.634 17.262-16 28.5a34.163 34.163 0 0 0-1 10c-.364 8.253 2.302 15.253 8 21 1.391 2.39 3.391 4.057 6 5a83.289 83.289 0 0 0 16 8c-12.566-1.977-24.566-5.81-36-11.5a6.978 6.978 0 0 1-2.5-3.5c1.399-19.198 7.399-36.865 18-53 1.715-3.217 4.215-5.55 7.5-7a102.078 102.078 0 0 1 18-1Z" style="opacity:1"/><path fill="#878481" d="M88.5 143.5c2.412.194 3.412 1.527 3 4-8.647 3.32-16.647 7.654-24 13-11.214 5.878-20.214 14.212-27 25-8.201 13.497-11.034 28.164-8.5 44 2.472 14.278 8.639 26.611 18.5 37-4.602-2.767-8.436-6.434-11.5-11a126.369 126.369 0 0 1-9.5-19c-4.704-17.034-3.704-33.701 3-50 7.836-12.669 18.17-22.836 31-30.5a218.505 218.505 0 0 1 25-12.5Z" style="opacity:.977"/><path fill="#5f5c5b" d="M67.5 160.5c7.98 6.978 15.98 13.978 24 21a249.108 249.108 0 0 0-31 22 254.406 254.406 0 0 0-20-18c6.786-10.788 15.786-19.122 27-25Z" style="opacity:.995"/><path fill="#f6ec99" d="M567.5 162.5v23a203.845 203.845 0 0 1-17 9c5.333 1.333 5.333 2.667 0 4a3.647 3.647 0 0 0 1 1.5 132.438 132.438 0 0 1-28 11.5 22.981 22.981 0 0 1-5-2l-14 7c2.055.687 3.721 1.854 5 3.5a348.997 348.997 0 0 1-34 17.5c-.916-.043-1.583-.376-2-1v-27c25.175-14.258 51.175-27.591 78-40a3.647 3.647 0 0 1 1.5 1c4.8-2.763 9.634-5.43 14.5-8Z" style="opacity:1"/><path fill="#4f4b4a" d="M153.5 183.5c21.541.405 41.541 6.071 60 17a178.682 178.682 0 0 1 24 21c-1.903.296-3.57.963-5 2a34.482 34.482 0 0 0-8-6c-7.756-6.724-16.423-12.224-26-16.5-16.816-7.079-34.316-11.246-52.5-12.5a31.73 31.73 0 0 0-10.5 1.5c-1.36 1.938-1.027 3.604 1 5a64.08 64.08 0 0 0 17 4.5c-20.026 15.024-35.692 33.691-47 56-14.195 6.194-24.862 16.194-32 30a252.505 252.505 0 0 1-24-19c-9.861-10.389-16.028-22.722-18.5-37-2.534-15.836.299-30.503 8.5-44a254.406 254.406 0 0 1 20 18c-7.182 8.028-12.015 17.361-14.5 28-1.242 10.366 1.258 19.699 7.5 28 8.47-22.631 22.136-41.465 41-56.5a63.422 63.422 0 0 1 13-7.5c14.306-7.744 29.639-11.744 46-12Z" style="opacity:.988"/><path fill="#96c3b9" d="M586.5 180.5a21.614 21.614 0 0 1 5 4c-.763 1.868-1.763 3.535-3 5-4.559-2.665-5.225-5.665-2-9Z" style="opacity:1"/><path fill="#268873" d="M591.5 184.5a68.206 68.206 0 0 0 14 1l3 12c-8.089.614-14.756-2.053-20-8 1.237-1.465 2.237-3.132 3-5Z" style="opacity:1"/><path fill="#25846f" d="M636.5 163.5c2.515 11.432.515 22.098-6 32a262.857 262.857 0 0 1-13 2l-7-14a25.658 25.658 0 0 0 6-6 32.508 32.508 0 0 0 7 3c2.912 3.138 6.412 4.138 10.5 3 2.202-6.472 3.035-13.139 2.5-20Z" style="opacity:1"/><path fill="#2b806c" d="M400.5 246.5a85.79 85.79 0 0 0-10-12 2464.252 2464.252 0 0 1-6-7 579.57 579.57 0 0 1 5-6l7 2c2.881 2.18 6.214 3.18 10 3 1.459-7.746 1.125-15.412-1-23-4.317-.417-8.317.25-12 2a5.727 5.727 0 0 0-3 1l-4-7a57.509 57.509 0 0 0 9-9c-2.109-5.693-6.109-7.693-12-6a54.38 54.38 0 0 0-4 11 45.782 45.782 0 0 0-12-1l-2.5-10c-3.451-1.553-5.951-.553-7.5 3a59.225 59.225 0 0 0 5 9c-3.376 3.059-6.043 6.725-8 11a43.327 43.327 0 0 0-10-3c2.366-11.238 7.699-20.738 16-28.5 22.948-4.275 39.781 3.891 50.5 24.5 5.467 17.517 1.967 32.85-10.5 46Z" style="opacity:1"/><path fill="#f4ea7c" d="M740.5 172.5c3.717 11.951 6.05 24.284 7 37a518.27 518.27 0 0 0-47 24 38.133 38.133 0 0 1-12-2 2480.173 2480.173 0 0 1-12 4c.146-2.442-.687-3.109-2.5-2-6.069-2.894-12.569-4.227-19.5-4v4h-8c-.667 0-1-.333-1-1a96.798 96.798 0 0 0 12-5.5c12.877-10.041 22.544-22.541 29-37.5 1.833.963 3.833 1.63 6 2a192.79 192.79 0 0 0 34-15c2.479-1.173 4.979-1.173 7.5 0 2.419-1.066 4.586-2.4 6.5-4Z" style="opacity:1"/><path fill="#89c0b4" d="m610.5 183.5 7 14h-9l-3-12a16.339 16.339 0 0 1 5-2Z" style="opacity:1"/><path fill="#e9d81f" d="M710.5 106.5a247.23 247.23 0 0 1 26 38c13.496 26.823 22.162 55.156 26 85 .219 1.175-.114 2.175-1 3a78.877 78.877 0 0 0-12-3 303.396 303.396 0 0 0-2-20c-.95-12.716-3.283-25.049-7-37-2.441-11.665-6.441-22.665-12-33a262.35 262.35 0 0 0-18-33Z" style="opacity:.999"/><path fill="#f6e991" d="M567.5 185.5a148.464 148.464 0 0 0 5.5 29c1.118 3.956 3.618 6.289 7.5 7-.709.904-1.709 1.237-3 1-11.448-.222-22.448 1.944-33 6.5l-17 8.5a54.722 54.722 0 0 0-9 2 109.048 109.048 0 0 1-14-4 154.019 154.019 0 0 1-26 11l-3-.5a10.258 10.258 0 0 0 4-1.5 31.871 31.871 0 0 0-7-3c-.284-1.915.049-3.581 1-5 .417.624 1.084.957 2 1a348.997 348.997 0 0 0 34-17.5c-1.279-1.646-2.945-2.813-5-3.5l14-7a22.981 22.981 0 0 0 5 2 132.438 132.438 0 0 0 28-11.5 3.647 3.647 0 0 1-1-1.5c5.333-1.333 5.333-2.667 0-4a203.845 203.845 0 0 0 17-9Z" style="opacity:1"/><path fill="#686564" d="M750.5 135.5a183.655 183.655 0 0 0 21 43c8.613 20.789 12.946 42.456 13 65 .915 26.439-4.585 51.439-16.5 75-1.277 2.247-2.777 4.247-4.5 6l1-10c3.08-28.566 2.413-56.9-2-85-3.838-29.844-12.504-58.177-26-85 4.187-2.26 8.521-4.26 13-6 .886-.825 1.219-1.825 1-3Z" style="opacity:1"/><path fill="#666463" d="M773.5 131.5c12.157 14.638 21.49 30.971 28 49a714.244 714.244 0 0 1 5 21c5.103 26.917 3.436 53.417-5 79.5.07.765.403 1.265 1 1.5-8.667 22.656-22.333 41.656-41 57 .463-2.982.796-5.982 1-9 10.881-13.392 20.047-28.059 27.5-44a135.792 135.792 0 0 0 10.5-43c1.569-22.789-1.764-44.789-10-66-5.777-16.233-14.111-30.899-25-44 2.873-.302 5.539-.969 8-2Z" style="opacity:.998"/><path fill="#7cb4a8" d="M367.5 194.5a16.339 16.339 0 0 1-5 2 59.225 59.225 0 0 1-5-9c1.549-3.553 4.049-4.553 7.5-3l2.5 10Z" style="opacity:1"/><path fill="#84baae" d="m386.5 199.5-7-4a54.38 54.38 0 0 1 4-11c5.891-1.693 9.891.307 12 6a57.509 57.509 0 0 1-9 9Z" style="opacity:1"/><path fill="#262624" d="M367.5 194.5c4.066-.193 8.066.14 12 1l7 4 4 7c1.276 5.081.943 10.081-1 15a579.57 579.57 0 0 0-5 6 598.896 598.896 0 0 0-6 3c-5.119 1.459-10.119 1.126-15-1-.473-1.406-1.473-2.073-3-2-3.347-3.695-5.347-8.028-6-13v-7c1.957-4.275 4.624-7.941 8-11a16.339 16.339 0 0 0 5-2Z" style="opacity:1"/><path fill="#255b4c" d="M611.5 202.5c-9.807 4.026-20.141 6.026-31 6a43.145 43.145 0 0 0-2-11 11.105 11.105 0 0 1 4.5 3 29.804 29.804 0 0 1 4.5-6c6.72 6.35 14.72 9.017 24 8Z" style="opacity:1"/><path fill="#eee" d="M362.5 199.5c6.882.387 9.382 4.053 7.5 11-2.438 6.197-5.438 6.531-9 1-.917-4.262-.417-8.262 1.5-12Z" style="opacity:1"/><path fill="#b5b2b1" d="M790.5 177.5c8.236 21.211 11.569 43.211 10 66-4.637.666-9.303 1.333-14 2a31.147 31.147 0 0 0-2-2c-.054-22.544-4.387-44.211-13-65a202.052 202.052 0 0 0 15-2c1.425.123 2.758.457 4 1Z" style="opacity:1"/><path fill="#7bb1a5" d="M344.5 204.5a43.327 43.327 0 0 1 10 3v7h-11a34.163 34.163 0 0 1 1-10Z" style="opacity:1"/><path fill="#f6ebb0" d="M337.5 187.5a20.69 20.69 0 0 0-1 5 640.108 640.108 0 0 0-9 27l-52 26c-4.011-6.694-8.011-13.361-12-20a32149.102 32149.102 0 0 0 38-17l-2-2 14-6-1-2a138.334 138.334 0 0 1 25-11Z" style="opacity:1"/><path fill="#555150" d="M153.5 199.5c14.416 2.715 27.416 8.381 39 17-16.691 9.177-31.191 21.177-43.5 36a4.934 4.934 0 0 0-.5 3c-5.736-2.402-11.736-3.735-18-4h-8a47.098 47.098 0 0 0-16 4c11.308-22.309 26.974-40.976 47-56Z" style="opacity:1"/><path fill="#9c9996" d="M224.5 217.5c-6.639 1.766-12.973 4.099-19 7a129.073 129.073 0 0 0-13-8c-11.584-8.619-24.584-14.285-39-17a64.08 64.08 0 0 1-17-4.5c-2.027-1.396-2.36-3.062-1-5a31.73 31.73 0 0 1 10.5-1.5c18.184 1.254 35.684 5.421 52.5 12.5 9.577 4.276 18.244 9.776 26 16.5Z" style="opacity:1"/><path fill="#25816c" d="M343.5 214.5h11c.653 4.972 2.653 9.305 6 13l-9 8c-5.698-5.747-8.364-12.747-8-21Z" style="opacity:1"/><path fill="#75b0a3" d="M396.5 223.5c2.503-5.392 2.503-11.059 0-17-.825-.886-1.825-1.219-3-1 3.683-1.75 7.683-2.417 12-2 2.125 7.588 2.459 15.254 1 23-3.786.18-7.119-.82-10-3Z" style="opacity:1"/><path fill="#cabd8d" d="M218.5 187.5a59.562 59.562 0 0 1 9 5c13.903 8.902 25.903 19.902 36 33 3.989 6.639 7.989 13.306 12 20a114.677 114.677 0 0 1 6 13c-4.36 2.67-8.693 5.336-13 8a225.483 225.483 0 0 0-17.5-30 106.916 106.916 0 0 0-13.5-15 178.682 178.682 0 0 0-24-21 148.09 148.09 0 0 0 5-13Z" style="opacity:.999"/><path fill="#f7e9a9" d="M327.5 219.5v1c-1.454 4.099-2.454 8.432-3 13 .301 1.922.967 3.588 2 5 .992-.172 1.658.162 2 1-.438-.065-.772.101-1 .5l3 3c15.818 9.107 32.818 14.94 51 17.5-1.109.79-2.442 1.29-4 1.5 1.237.232 2.237.732 3 1.5-22.304-1.829-43.971-6.329-65-13.5a160.687 160.687 0 0 0 11 10.5 147.852 147.852 0 0 0-8.5 4c-1.261-.259-2.261-.926-3-2-5.609 4.388-11.609 5.055-18 2a96.238 96.238 0 0 1-10.5 6l-5-12a114.677 114.677 0 0 0-6-13l52-26Z" style="opacity:1"/><path fill="#226e5b" d="M26.5 242.5c12.192 21.193 28.525 38.526 49 52a332.508 332.508 0 0 1 11.5 10c6.328 8.61 6.995 17.61 2 27-2.397 2.282-5.23 3.616-8.5 4 8.565-4.829 11.399-12.162 8.5-22-2.717-5.551-6.883-9.551-12.5-12l-11-8a18.329 18.329 0 0 0-6-4l-20-19a284.387 284.387 0 0 1-14-17 107.865 107.865 0 0 1-9.5-22c-2.267-1.435-4.267-1.102-6 1l-3 6a981.692 981.692 0 0 1-4.5 20c.228-12.311 3.062-23.978 8.5-35 1.588-2.809 3.755-3.475 6.5-2 2.047 7.495 5.047 14.495 9 21Z" style="opacity:1"/><path fill="#a7cfc5" d="M393.5 205.5c1.175-.219 2.175.114 3 1 2.503 5.941 2.503 11.608 0 17l-7-2c1.943-4.919 2.276-9.919 1-15a5.727 5.727 0 0 1 3-1Z" style="opacity:1"/><path fill="#e68b29" d="M577.5 222.5c11.894 2.397 19.394 9.397 22.5 21-4.584-7.048-11.084-11.215-19.5-12.5a60.931 60.931 0 0 0-11-.5c-26.201 2.35-48.034 13.35-65.5 33 .824-3.301 2.49-6.301 5-9 5.763-6.269 11.929-11.936 18.5-17l17-8.5c10.552-4.556 21.552-6.722 33-6.5Z" style="opacity:1"/><path fill="#d2b837" d="M327.5 220.5a132.596 132.596 0 0 0-1 18c-1.033-1.412-1.699-3.078-2-5 .546-4.568 1.546-8.901 3-13Z" style="opacity:.808"/><path fill="#f4e479" d="M700.5 233.5v2c.03.997-.47 1.664-1.5 2-4.373-1.592-8.206-.759-11.5 2.5a139.063 139.063 0 0 0-29 12.5 10.258 10.258 0 0 0 4 1.5 71.83 71.83 0 0 1-6 4.5 258.375 258.375 0 0 1-40 16l-4 2c1.372 2.12.705 3.12-2 3v4l-8 2h-6c-1.624.14-2.79-.527-3.5-2a112.933 112.933 0 0 1-17.5 8 80.357 80.357 0 0 1-12-4 36.16 36.16 0 0 1-7 4 24.837 24.837 0 0 0-8-1c6.125-2.056 12.125-4.722 18-8 5.624-3.539 4.957-5.539-2-6a160.824 160.824 0 0 1 24.5-11c6.849 2.838 12.683 1.338 17.5-4.5l5-1-7-3.5a108.365 108.365 0 0 1 18-8l-2-2 26-13h8v-4c6.931-.227 13.431 1.106 19.5 4 1.813-1.109 2.646-.442 2.5 2 3.968-1.311 7.968-2.645 12-4a38.133 38.133 0 0 0 12 2Z" style="opacity:1"/><path fill="#4f847b" d="M25.5 253.5a453.208 453.208 0 0 0-18 36c-5.92-9.506-7.586-19.839-5-31a981.692 981.692 0 0 0 4.5-20l3-6c1.733-2.102 3.733-2.435 6-1a107.865 107.865 0 0 0 9.5 22Z" style="opacity:1"/><path fill="#f3e373" d="M691.5 264.5c-4.84-.744-8.507.922-11 5a9.86 9.86 0 0 0-6 1 214.4 214.4 0 0 1-33.5 15 36.898 36.898 0 0 1-13-4 70.43 70.43 0 0 0-24.5 9.5 12.93 12.93 0 0 1-5 .5v-4c1.983.343 3.317-.324 4-2l8-2v-4c2.705.12 3.372-.88 2-3l4-2a258.375 258.375 0 0 0 40-16 71.83 71.83 0 0 0 6-4.5 10.258 10.258 0 0 1-4-1.5 139.063 139.063 0 0 1 29-12.5c3.294-3.259 7.127-4.092 11.5-2.5 1.03-.336 1.53-1.003 1.5-2 5.781.444 11.114-.889 16-4a58.547 58.547 0 0 1 14 5l-40 20a9.86 9.86 0 0 1-6 1v4a32.462 32.462 0 0 1 8 .5c-.752.671-1.086 1.504-1 2.5Z" style="opacity:1"/><path fill="#f5e481" d="M580.5 221.5h10c.992-.172 1.658.162 2 1-1.238.31-1.238.81 0 1.5l10 5c13.922 6.955 28.255 8.122 43 3.5 0 .667.333 1 1 1l-26 13 2 2a108.365 108.365 0 0 0-18 8l7 3.5-5 1c-4.817 5.838-10.651 7.338-17.5 4.5a160.824 160.824 0 0 0-24.5 11c6.957.461 7.624 2.461 2 6-5.875 3.278-11.875 5.944-18 8-5.862-2.578-11.696-2.245-17.5 1l-7-2a126.507 126.507 0 0 0-12 4c-3.869-.982-7.369-2.315-10.5-4a125.443 125.443 0 0 0 22-11.5 144.8 144.8 0 0 0 5-4.5c10.482-3.995 19.315-10.328 26.5-19 2.438-8.073-.729-11.407-9.5-10 2.421-.985 5.421-2.319 9-4 5.073-3.44 10.073-6.773 15-10a60.931 60.931 0 0 1 11 .5c8.416 1.285 14.916 5.452 19.5 12.5-3.106-11.603-10.606-18.603-22.5-21 1.291.237 2.291-.096 3-1Z" style="opacity:1"/><path fill="#5a5756" d="M192.5 216.5a129.073 129.073 0 0 1 13 8 181.105 181.105 0 0 1 16 16c-16.888 6.375-31.388 16.375-43.5 30a16.2 16.2 0 0 0-1.5 3.5 15.414 15.414 0 0 1 2 4.5c-8.243-9.903-18.243-17.57-30-23a4.934 4.934 0 0 1 .5-3c12.309-14.823 26.809-26.823 43.5-36Z" style="opacity:1"/><path fill="#f3e46d" d="M747.5 209.5a303.396 303.396 0 0 1 2 20 514.69 514.69 0 0 1-2 56c-7.799 1.354-15.132.021-22-4l-10 6c-8.526-2.431-16.526-5.098-24-8 6.564-5.033 6.564-10.033 0-15-.086-.996.248-1.829 1-2.5a32.462 32.462 0 0 0-8-.5v-4a9.86 9.86 0 0 0 6-1l40-20a58.547 58.547 0 0 0-14-5c-4.886 3.111-10.219 4.444-16 4v-2a518.27 518.27 0 0 1 47-24Z" style="opacity:1"/><path fill="#a5cdc3" d="M384.5 227.5c1.971 2.308 3.971 4.642 6 7-1.259 4.473-4.259 6.807-9 7a102.904 102.904 0 0 1-3-11 598.896 598.896 0 0 1 6-3Z" style="opacity:1"/><path fill="#f5e38c" d="M569.5 230.5c-4.927 3.227-9.927 6.56-15 10-3.579 1.681-6.579 3.015-9 4-12.004 3.759-22.171 10.426-30.5 20-2.157 3.365-1.991 6.532.5 9.5 4.359.534 8.692.368 13-.5a144.8 144.8 0 0 1-5 4.5 125.443 125.443 0 0 1-22 11.5c.065-.438-.101-.772-.5-1-3.064 2.97-6.564 3.97-10.5 3-3.194.23-6.194-.436-9-2-4.964 2.794-10.297 4.461-16 5l-10 5a174.7 174.7 0 0 1-10-2c.221-1.235.888-2.235 2-3l-2.5-1a61.808 61.808 0 0 1-16.5 2.5 356.488 356.488 0 0 0-16.5 7.5c-2.163.005-3.663-.995-4.5-3l6-2c-1.112-.765-1.779-1.765-2-3 26.334-2.998 46.334-15.832 60-38.5a431.77 431.77 0 0 1-48 7 400.263 400.263 0 0 1-43-.5c-.763-.768-1.763-1.268-3-1.5 1.558-.21 2.891-.71 4-1.5a485.683 485.683 0 0 0 52 .5c10.878-.636 21.211-3.303 31-8 4.079-2.902 6.746-6.736 8-11.5a31.871 31.871 0 0 1 7 3 10.258 10.258 0 0 1-4 1.5l3 .5a154.019 154.019 0 0 0 26-11 109.048 109.048 0 0 0 14 4 54.722 54.722 0 0 1 9-2c-6.571 5.064-12.737 10.731-18.5 17-2.51 2.699-4.176 5.699-5 9 17.466-19.65 39.299-30.65 65.5-33Z" style="opacity:1"/><path fill="#8cbdb2" d="M360.5 227.5c1.527-.073 2.527.594 3 2a87.357 87.357 0 0 1-6 11c-2.609-.943-4.609-2.61-6-5l9-8Z" style="opacity:1"/><path fill="#247a66" d="M363.5 229.5c4.881 2.126 9.881 2.459 15 1 .797 3.723 1.797 7.39 3 11a35.15 35.15 0 0 1 2 8 40.58 40.58 0 0 0 14-2c.516 1.258-.15 2.258-2 3a85.882 85.882 0 0 1-22-2 83.289 83.289 0 0 1-16-8 87.357 87.357 0 0 0 6-11Z" style="opacity:1"/><path fill="#62a395" d="M390.5 234.5a85.79 85.79 0 0 1 10 12c-1.291-.237-2.291.096-3 1a40.58 40.58 0 0 1-14 2 35.15 35.15 0 0 0-2-8c4.741-.193 7.741-2.527 9-7Z" style="opacity:1"/><path fill="#fdfdfb" d="M545.5 244.5c8.771-1.407 11.938 1.927 9.5 10-7.185 8.672-16.018 15.005-26.5 19a40.477 40.477 0 0 1-13 .5c-2.491-2.968-2.657-6.135-.5-9.5 8.329-9.574 18.496-16.241 30.5-20Z" style="opacity:1"/><path fill="#fdfdfc" d="M380.5 263.5a400.263 400.263 0 0 0 43 .5 431.77 431.77 0 0 0 48-7c-13.666 22.668-33.666 35.502-60 38.5h-10c-18.164-2.832-35.164-8.832-51-18a10899.885 10899.885 0 0 1-24-17 160.687 160.687 0 0 1-11-10.5c21.029 7.171 42.696 11.671 65 13.5Z" style="opacity:1"/><path fill="#25967f" d="M122.5 251.5a496.231 496.231 0 0 1 21 5.5c5.404 2.264 10.404 5.098 15 8.5-.06.543-.393.876-1 1-25.483-9.999-44.65-2.999-57.5 21-5.838 19.487-.67 35.32 15.5 47.5 20.982 11.205 39.482 8.039 55.5-9.5 7.557-11.29 9.391-23.457 5.5-36.5.07-.765.403-1.265 1-1.5 6.905 12.391 10.572 25.725 11 40-18.329 27.831-43.329 35.998-75 24.5-7.683-3.517-14.017-8.684-19-15.5 5.535-18.58.535-33.58-15-45l-5-6c7.138-13.806 17.805-23.806 32-30a47.098 47.098 0 0 1 16-4Z" style="opacity:1"/><path fill="#62615f" d="M29.5 236.5a126.369 126.369 0 0 0 9.5 19c3.064 4.566 6.898 8.233 11.5 11a252.505 252.505 0 0 0 24 19l5 6-4 3c-20.475-13.474-36.808-30.807-49-52 1.525-1.716 2.525-3.716 3-6Z" style="opacity:1"/><path fill="#c7b67d" d="m281.5 258.5 5 12a228.707 228.707 0 0 1 8 37v9a43.836 43.836 0 0 1-2-1c-3.332 2.352-6.999 3.685-11 4 .325 7.852-.008 15.518-1 23a330.141 330.141 0 0 0-1.5-39 260.76 260.76 0 0 0-10.5-37c4.307-2.664 8.64-5.33 13-8Z" style="opacity:.999"/><path fill="#d2e9e4" d="M122.5 251.5h8c12.042 2.189 22.709 7.355 32 15.5-1.566.3-2.899-.2-4-1.5-4.596-3.402-9.596-6.236-15-8.5a496.231 496.231 0 0 0-21-5.5Z" style="opacity:1"/><path fill="#299c85" d="M130.5 251.5c6.264.265 12.264 1.598 18 4 11.757 5.43 21.757 13.097 30 23 .238 1.904 1.238 3.238 3 4a115.377 115.377 0 0 1 6 13v10c-3.738-11.471-9.571-21.805-17.5-31 2.144 4.365 4.644 8.699 7.5 13-.597.235-.93.735-1 1.5 3.891 13.043 2.057 25.21-5.5 36.5-16.018 17.539-34.518 20.705-55.5 9.5-16.17-12.18-21.338-28.013-15.5-47.5 12.85-23.999 32.017-30.999 57.5-21 .607-.124.94-.457 1-1 1.101 1.3 2.434 1.8 4 1.5-9.291-8.145-19.958-13.311-32-15.5Z" style="opacity:1"/><path fill="#b3b0ae" d="M224.5 217.5a34.482 34.482 0 0 1 8 6c25.345 26.042 39.345 57.375 42 94v21a348.078 348.078 0 0 0-15 2c.313-3.542-.021-6.875-1-10-.208-14.271-2.875-27.938-8-41-5.982-18.618-15.649-34.952-29-49a181.105 181.105 0 0 0-16-16c6.027-2.901 12.361-5.234 19-7Z" style="opacity:1"/><path fill="#f7e5a0" d="M326.5 260.5c8.023 5.699 16.023 11.366 24 17a41087.745 41087.745 0 0 0-42 21 3.647 3.647 0 0 0 1 1.5 392.607 392.607 0 0 0-15 7.5 228.707 228.707 0 0 0-8-37 96.238 96.238 0 0 0 10.5-6c6.391 3.055 12.391 2.388 18-2 .739 1.074 1.739 1.741 3 2a147.852 147.852 0 0 1 8.5-4Z" style="opacity:1"/><path fill="#3a2a25" d="M691.5 264.5c6.564 4.967 6.564 9.967 0 15-15.513 10.674-29.347 23.34-41.5 38a5660.907 5660.907 0 0 1-1.5 40c-1.33 9.629-2.663 19.295-4 29a1067.012 1067.012 0 0 1-8 31 385.253 385.253 0 0 1-13 28c-6.126 9.878-13.459 18.878-22 27a111.585 111.585 0 0 1-21 14 72.837 72.837 0 0 1-24 8 274.97 274.97 0 0 1-32 1c-20.67-2.89-40.004-9.556-58-20a40541.899 40541.899 0 0 1-25-16 676.182 676.182 0 0 1-34-28c-8.694-9.027-17.361-18.027-26-27a764.209 764.209 0 0 0-25-29 7716.014 7716.014 0 0 0-15-20 183.22 183.22 0 0 0-17-22.5 91.583 91.583 0 0 0-18-5.5c-4.216-1.411-6.216-4.411-6-9 .813-9.742 5.147-11.575 13-5.5a148.31 148.31 0 0 1 14 15c2.362 1.511 4.695 3.011 7 4.5a516.328 516.328 0 0 0 27 14 285.682 285.682 0 0 0 25 10 256.178 256.178 0 0 0 55 14c37.984 5.535 74.984 1.702 111-11.5a465.017 465.017 0 0 0 37-16.5c29.584-12.364 56.084-29.364 79.5-51l7-9c2.551-4.012 4.051-8.345 4.5-13 2.493-4.078 6.16-5.744 11-5Z" style="opacity:1"/><path fill="#e9cb1f" d="M749.5 229.5a78.877 78.877 0 0 1 12 3c.886-.825 1.219-1.825 1-3 4.413 28.1 5.08 56.434 2 85l-21-4a325.161 325.161 0 0 0 4-25 514.69 514.69 0 0 0 2-56Z" style="opacity:1"/><path fill="#a29f9c" d="M784.5 243.5a31.147 31.147 0 0 1 2 2c4.697-.667 9.363-1.334 14-2a135.792 135.792 0 0 1-10.5 43c-7.453 15.941-16.619 30.608-27.5 44a19.22 19.22 0 0 1 1-6c1.723-1.753 3.223-3.753 4.5-6 11.915-23.561 17.415-48.561 16.5-75Z" style="opacity:1"/><path fill="#625f5e" d="M221.5 240.5c13.351 14.048 23.018 30.382 29 49 .03.997-.47 1.664-1.5 2-18.626 2.297-30.96 12.297-37 30-4.239 24.027 4.928 40.527 27.5 49.5a61.522 61.522 0 0 0 17 1.5c-3.386 20.357-10.553 39.024-21.5 56a192.587 192.587 0 0 0 17.5-23c2.885-.306 5.552.027 8 1a167.773 167.773 0 0 1-12 18c-5.026 4.695-10.026 9.361-15 14-2.273.457-3.606 1.79-4 4-.934-1.068-1.268-2.401-1-4 1.135-2.245 1.635-4.578 1.5-7a95.245 95.245 0 0 0-18.5-21.5c-3.283-.743-6.283-.076-9 2-4.733 3.552-8.066 8.052-10 13.5-.617.111-1.117.444-1.5 1a119.388 119.388 0 0 1-25.5-23c18.779-13.87 29.612-32.537 32.5-56 2.771-23.92-2.729-45.587-16.5-65-1.762-.762-2.762-2.096-3-4a15.414 15.414 0 0 0-2-4.5 16.2 16.2 0 0 1 1.5-3.5c12.112-13.625 26.612-23.625 43.5-30Z" style="opacity:1"/><path fill="#fcfdfd" d="M133.5 272.5c14.811.162 24.977 7.162 30.5 21 3.989 12.494 1.489 23.328-7.5 32.5-19.358 7.239-32.525 1.072-39.5-18.5-4.643-16.707.857-28.374 16.5-35Z" style="opacity:1"/><path fill="#5d958c" d="M25.5 253.5a284.387 284.387 0 0 0 14 17c-1.25.077-2.083.744-2.5 2l-1-1a796.181 796.181 0 0 0-16.5 34c-5.917-3.914-9.917-9.247-12-16a453.208 453.208 0 0 1 18-36Z" style="opacity:1"/><path fill="#f2db63" d="M691.5 279.5c7.474 2.902 15.474 5.569 24 8l10-6c6.868 4.021 14.201 5.354 22 4a325.161 325.161 0 0 1-4 25 19.22 19.22 0 0 0-1 6c-2.784-.667-5.45 0-8 2l-14 2a859.393 859.393 0 0 1-50 24l1 2a6522.406 6522.406 0 0 0-13 6l-10 5a5660.907 5660.907 0 0 0 1.5-40c12.153-14.66 25.987-27.326 41.5-38Z" style="opacity:1"/><path fill="#7ec0b9" d="m39.5 270.5 20 19a8.435 8.435 0 0 1-.5 4 299.352 299.352 0 0 1-15.5 29c-9.134-4.145-17.134-9.812-24-17a796.181 796.181 0 0 1 16.5-34l1 1c.417-1.256 1.25-1.923 2.5-2Z" style="opacity:1"/><path fill="#f4dd79" d="M596.5 285.5c-3.545 2.785-7.545 5.118-12 7l2 2a64.902 64.902 0 0 1-14 6c1.311.758 1.811 1.758 1.5 3-6.71 4.61-13.876 8.61-21.5 12-1.85-2.185-4.184-3.518-7-4-3.443.221-3.776 1.221-1 3-1.189.929-2.522 1.262-4 1-.214 1.644.12 3.144 1 4.5a240.294 240.294 0 0 0-14 6.5l3 2c-2.49 1.583-5.157 2.583-8 3-.876.131-1.543-.202-2-1 2.295-.636 3.961-1.969 5-4l-3.5-1a129.099 129.099 0 0 0-14 6 27.484 27.484 0 0 0-11.5-.5 54.942 54.942 0 0 1-7.5 3.5 55.84 55.84 0 0 0-9-3l-.5-1c1.832-.557 3.165-1.557 4-3 4.899-3.458 10.232-6.458 16-9l-5-2a539.934 539.934 0 0 0 34.5-16 9.568 9.568 0 0 0 3 3c1.3-1.959 3.133-3.126 5.5-3.5a14.72 14.72 0 0 1-5-1.5l16-8a24.837 24.837 0 0 1 8 1 36.16 36.16 0 0 0 7-4 80.357 80.357 0 0 0 12 4 112.933 112.933 0 0 0 17.5-8c.71 1.473 1.876 2.14 3.5 2Z" style="opacity:1"/><path fill="#f4dd80" d="M501.5 289.5c3.131 1.685 6.631 3.018 10.5 4a126.507 126.507 0 0 1 12-4l7 2c5.804-3.245 11.638-3.578 17.5-1l-16 8a14.72 14.72 0 0 0 5 1.5c-2.367.374-4.2 1.541-5.5 3.5a9.568 9.568 0 0 1-3-3 539.934 539.934 0 0 1-34.5 16l5 2c-5.768 2.542-11.101 5.542-16 9-.996.086-1.829-.248-2.5-1a72.243 72.243 0 0 1-13.5 7 57.514 57.514 0 0 0-14 4 146.306 146.306 0 0 1-13-4 54.224 54.224 0 0 0-9 4 24.837 24.837 0 0 0-8-1c2.422-1.768 5.088-3.268 8-4.5-1.941-.304-3.607-1.137-5-2.5l-10 6a22.531 22.531 0 0 0-4-3 662.398 662.398 0 0 1 31-15c4.582-1.653 8.748-.986 12.5 2a130.287 130.287 0 0 1 13.5-5.5l2-2a25.628 25.628 0 0 1-10-3.5l20-10a45.166 45.166 0 0 1 9-7c3.936.97 7.436-.03 10.5-3 .399.228.565.562.5 1Z" style="opacity:1"/><path fill="#f4dc86" d="M490.5 291.5a45.166 45.166 0 0 0-9 7l-20 10a25.628 25.628 0 0 0 10 3.5l-2 2a130.287 130.287 0 0 0-13.5 5.5c-3.752-2.986-7.918-3.653-12.5-2a662.398 662.398 0 0 0-31 15 22.531 22.531 0 0 1 4 3l10-6c1.393 1.363 3.059 2.196 5 2.5-2.912 1.232-5.578 2.732-8 4.5a140.164 140.164 0 0 1-29 12.5c-2.63 2.321-5.63 4.154-9 5.5.363.683.696 1.35 1 2a285.682 285.682 0 0 1-25-10v-3a58.636 58.636 0 0 0 16-7.5c-2.404-.196-4.071-1.362-5-3.5 4.381-2.735 9.048-4.568 14-5.5 3.169-.978 6.003-.478 8.5 1.5a374.39 374.39 0 0 0 16.5-8 14.587 14.587 0 0 1-6-4 545.949 545.949 0 0 1 40-19 174.7 174.7 0 0 0 10 2l10-5c5.703-.539 11.036-2.206 16-5 2.806 1.564 5.806 2.23 9 2Z" style="opacity:1"/><path fill="#696766" d="M250.5 289.5c5.125 13.062 7.792 26.729 8 41a256.091 256.091 0 0 1-2 42 61.522 61.522 0 0 1-17-1.5c-22.572-8.973-31.739-25.473-27.5-49.5 6.04-17.703 18.374-27.703 37-30 1.03-.336 1.53-1.003 1.5-2Z" style="opacity:1"/><path fill="#f5dd8c" d="M445.5 297.5a545.949 545.949 0 0 0-40 19 14.587 14.587 0 0 0 6 4 374.39 374.39 0 0 1-16.5 8c-2.497-1.978-5.331-2.478-8.5-1.5-4.952.932-9.619 2.765-14 5.5.929 2.138 2.596 3.304 5 3.5a58.636 58.636 0 0 1-16 7.5v3a516.328 516.328 0 0 1-27-14c.325-1.632 1.325-2.632 3-3 2.536 1.856 5.202 2.189 8 1 9.954-3.825 19.288-8.658 28-14.5-5.23-.651-10.064.516-14.5 3.5l-2.5-1c15.6-6.965 30.6-14.631 45-23h10c.221 1.235.888 2.235 2 3l-6 2c.837 2.005 2.337 3.005 4.5 3a356.488 356.488 0 0 1 16.5-7.5 61.808 61.808 0 0 0 16.5-2.5l2.5 1c-1.112.765-1.779 1.765-2 3Z" style="opacity:1"/><path fill="#5aab9f" d="M59.5 289.5a18.329 18.329 0 0 1 6 4 5.577 5.577 0 0 0 1 3l-14 28c-.825.886-1.825 1.219-3 1-2.319-.492-4.319-1.492-6-3a299.352 299.352 0 0 0 15.5-29 8.435 8.435 0 0 0 .5-4Z" style="opacity:1"/><path fill="#4d4a49" d="M32.5 186.5c-6.704 16.299-7.704 32.966-3 50-.475 2.284-1.475 4.284-3 6-3.953-6.505-6.953-13.505-9-21-2.745-1.475-4.912-.809-6.5 2-5.438 11.022-8.272 22.689-8.5 35-2.586 11.161-.92 21.494 5 31 2.083 6.753 6.083 12.086 12 16 6.866 7.188 14.866 12.855 24 17 1.681 1.508 3.681 2.508 6 3 3.713 2.185 7.713 3.852 12 5 5.652 3.878 11.986 5.545 19 5 3.27-.384 6.103-1.718 8.5-4 4.995-9.39 4.328-18.39-2-27a332.508 332.508 0 0 0-11.5-10l4-3c15.535 11.42 20.535 26.42 15 45-2.539 4.204-6.205 6.87-11 8-5.829.45-11.495-.216-17-2l-1 1.5c3.039 13.895 8.372 26.729 16 38.5 3.682 6.195 8.35 11.695 14 16.5 3.421 1.699 6.421 3.865 9 6.5 9.251 19.252 21.918 35.919 38 50-33.045-10.541-58.211-30.874-75.5-61-10.451-19.187-17.618-39.52-21.5-61-18.892-9.024-32.725-23.024-41.5-42a200.127 200.127 0 0 1-4.5-19v-27c3.083-17.17 10.25-32.503 21.5-46a227.312 227.312 0 0 1 11.5-13Z" style="opacity:.975"/><path fill="#686563" d="M237.5 221.5c4.951 4.55 9.451 9.55 13.5 15a225.483 225.483 0 0 1 17.5 30 260.76 260.76 0 0 1 10.5 37 330.141 330.141 0 0 1 1.5 39c-1.669 23.002-8.336 44.336-20 64-2.448-.973-5.115-1.306-8-1 17.437-26.946 24.77-56.279 22-88-2.655-36.625-16.655-67.958-42-94 1.43-1.037 3.097-1.704 5-2Z" style="opacity:1"/><path fill="#3d9888" d="m65.5 293.5 11 8c-1.687 7.387-4.52 14.387-8.5 21a36.17 36.17 0 0 0-4 7c-.67.752-1.504 1.086-2.5 1-4.287-1.148-8.287-2.815-12-5 1.175.219 2.175-.114 3-1l14-28a5.577 5.577 0 0 1-1-3Z" style="opacity:1"/><path fill="#1e846f" d="M76.5 301.5c5.617 2.449 9.783 6.449 12.5 12 2.899 9.838.065 17.171-8.5 22-7.014.545-13.348-1.122-19-5 .996.086 1.83-.248 2.5-1a36.17 36.17 0 0 1 4-7c3.98-6.613 6.813-13.613 8.5-21Z" style="opacity:1"/><path fill="#f5df94" d="M350.5 277.5c15.836 9.168 32.836 15.168 51 18-14.4 8.369-29.4 16.035-45 23l2.5 1c4.436-2.984 9.27-4.151 14.5-3.5-8.712 5.842-18.046 10.675-28 14.5-2.798 1.189-5.464.856-8-1-1.675.368-2.675 1.368-3 3a1874.012 1874.012 0 0 0-7-4.5 148.31 148.31 0 0 0-14-15c-7.853-6.075-12.187-4.242-13 5.5-.216 4.589 1.784 7.589 6 9-4.337.557-8.337 1.89-12 4v-24a392.607 392.607 0 0 1 15-7.5 3.647 3.647 0 0 1-1-1.5 41087.745 41087.745 0 0 1 42-21Z" style="opacity:1"/><path fill="#f3dc6e" d="M680.5 269.5c-.449 4.655-1.949 8.988-4.5 13l-7 9c-23.416 21.636-49.916 38.636-79.5 51-4.083-.268-7.75-1.601-11-4l4-2a6.846 6.846 0 0 1-1-4c-3.77-.059-7.104 1.108-10 3.5-3.468 1.081-6.468.415-9-2 5.075-.919 5.742-2.752 2-5.5 5.242-1.811 4.908-2.811-1-3a43.385 43.385 0 0 0-8 2c-3.87-1.695-7.87-2.195-12-1.5a69.749 69.749 0 0 0-12 6c-3.196.805-6.196.638-9-.5 2.843-.417 5.51-1.417 8-3l-3-2a240.294 240.294 0 0 1 14-6.5c-.88-1.356-1.214-2.856-1-4.5 1.478.262 2.811-.071 4-1-2.776-1.779-2.443-2.779 1-3 2.816.482 5.15 1.815 7 4 7.624-3.39 14.79-7.39 21.5-12 .311-1.242-.189-2.242-1.5-3a64.902 64.902 0 0 0 14-6l-2-2c4.455-1.882 8.455-4.215 12-7h6c-.683 1.676-2.017 2.343-4 2v4a12.93 12.93 0 0 0 5-.5 70.43 70.43 0 0 1 24.5-9.5 36.898 36.898 0 0 0 13 4 214.4 214.4 0 0 0 33.5-15 9.86 9.86 0 0 1 6-1Z" style="opacity:1"/><path fill="#e9c41e" d="m743.5 310.5 21 4-1 10a19.22 19.22 0 0 0-1 6 104.618 104.618 0 0 1-1 9 79.88 79.88 0 0 1-2 11 315.854 315.854 0 0 0-24-6l7-28a19.22 19.22 0 0 1 1-6Z" style="opacity:.997"/><path fill="#31463f" d="M181.5 282.5c13.771 19.413 19.271 41.08 16.5 65-2.888 23.463-13.721 42.13-32.5 56-13.152 8.367-27.485 11.201-43 8.5a192.493 192.493 0 0 1-18-6.5c-2.579-2.635-5.579-4.801-9-6.5-5.65-4.805-10.318-10.305-14-16.5 10.457 13.069 23.79 21.903 40 26.5 31.834 2.84 54.334-10.326 67.5-39.5 6.103-16.482 8.103-33.482 6-51-1.433-8.129-3.933-15.796-7.5-23a115.377 115.377 0 0 0-6-13Z" style="opacity:1"/><path fill="#f1d759" d="m742.5 316.5-7 28a67.013 67.013 0 0 1-5 12c-1.45-1.883-3.45-2.883-6-3a75.963 75.963 0 0 0-11 4 80.357 80.357 0 0 1-12-4c-6.567 4.479-13.567 5.146-21 2-7.791 2.257-15.124 1.257-22-3 4.288-1.985 8.622-3.985 13-6l-1-2a859.393 859.393 0 0 0 50-24l14-2c2.55-2 5.216-2.667 8-2Z" style="opacity:1"/><path fill="#add8d3" d="M187.5 305.5c6.272 26.411 3.438 51.745-8.5 76a71.916 71.916 0 0 1-7 9l-.5-1c5.598-7.196 9.598-15.196 12-24 5.206-12.118 6.873-24.785 5-38-.428-14.275-4.095-27.609-11-40-2.856-4.301-5.356-8.635-7.5-13 7.929 9.195 13.762 19.529 17.5 31Z" style="opacity:1"/><path fill="#582e2a" d="M640.5 324.5a383.065 383.065 0 0 1-12 66c-.904.709-1.237 1.709-1 3a331.672 331.672 0 0 1-16-2c-8.76-2.056-17.76-3.39-27-4-38.888-2.764-76.555 2.736-113 16.5a122.563 122.563 0 0 0-22 13.5 116.403 116.403 0 0 0-30 .5 898.405 898.405 0 0 1-52.5-48.5c-.399.228-.565.562-.5 1a906.965 906.965 0 0 0-24.5-27c-.667-.667-.667-1.333 0-2 43.765 30.069 92.265 43.569 145.5 40.5 26.964-2.434 52.964-8.767 78-19 26.467-10.232 51.467-23.065 75-38.5Z" style="opacity:1"/><path fill="#f3d77d" d="M467.5 333.5c-6.481 4.902-13.814 8.235-22 10l-2 6c2.747-.313 5.414.02 8 1a4.457 4.457 0 0 1-2 1.5c2.702.607 5.368.44 8-.5l4 2c5.058-2.919 10.391-3.919 16-3a257.332 257.332 0 0 0-19 10 39.934 39.934 0 0 1-9 3v4c-2.938.477-5.604 1.477-8 3a256.178 256.178 0 0 1-55-14 43.836 43.836 0 0 0-1-2c3.37-1.346 6.37-3.179 9-5.5a140.164 140.164 0 0 0 29-12.5 24.837 24.837 0 0 1 8 1 54.224 54.224 0 0 1 9-4 146.306 146.306 0 0 0 13 4 57.514 57.514 0 0 1 14-4Z" style="opacity:1"/><path fill="#218e78" d="M188.5 327.5c1.873 13.215.206 25.882-5 38-24.086 14.387-49.42 16.887-76 7.5-13.96-5.652-25.294-14.652-34-27 3.525-.179 6.859-.679 10-1.5 4.795-1.13 8.461-3.796 11-8 4.983 6.816 11.317 11.983 19 15.5 31.671 11.498 56.671 3.331 75-24.5Z" style="opacity:1"/><path fill="#e9be1f" d="M735.5 344.5a315.854 315.854 0 0 1 24 6 236.986 236.986 0 0 1-9 36l-28-7a117.504 117.504 0 0 0 8-23 67.013 67.013 0 0 0 5-12Z" style="opacity:.99"/><path fill="#f4d88c" d="M306.5 327.5a91.583 91.583 0 0 1 18 5.5 183.22 183.22 0 0 1 17 22.5 414.47 414.47 0 0 0-60 29c7.31-16.909 11.644-34.576 13-53 3.663-2.11 7.663-3.443 12-4Z" style="opacity:1"/><path fill="#9f9c99" d="M274.5 317.5c2.77 31.721-4.563 61.054-22 88a192.587 192.587 0 0 1-17.5 23c10.947-16.976 18.114-35.643 21.5-56a256.091 256.091 0 0 0 2-42c.979 3.125 1.313 6.458 1 10a348.078 348.078 0 0 1 15-2v-21Z" style="opacity:1"/><path fill="#f2d672" d="M522.5 331.5c2.804 1.138 5.804 1.305 9 .5a69.749 69.749 0 0 1 12-6c4.13-.695 8.13-.195 12 1.5a43.385 43.385 0 0 1 8-2c5.908.189 6.242 1.189 1 3 3.742 2.748 3.075 4.581-2 5.5 2.532 2.415 5.532 3.081 9 2 2.896-2.392 6.23-3.559 10-3.5a6.846 6.846 0 0 0 1 4l-4 2c3.25 2.399 6.917 3.732 11 4a465.017 465.017 0 0 1-37 16.5c-36.016 13.202-73.016 17.035-111 11.5 2.396-1.523 5.062-2.523 8-3v-4a39.934 39.934 0 0 0 9-3 257.332 257.332 0 0 1 19-10c-5.609-.919-10.942.081-16 3l-4-2c-2.632.94-5.298 1.107-8 .5a4.457 4.457 0 0 0 2-1.5 16.873 16.873 0 0 0-8-1l2-6c8.186-1.765 15.519-5.098 22-10a72.243 72.243 0 0 0 13.5-7c.671.752 1.504 1.086 2.5 1-.835 1.443-2.168 2.443-4 3l.5 1a55.84 55.84 0 0 1 9 3 54.942 54.942 0 0 0 7.5-3.5 27.484 27.484 0 0 1 11.5.5 129.099 129.099 0 0 1 14-6l3.5 1c-1.039 2.031-2.705 3.364-5 4 .457.798 1.124 1.131 2 1Z" style="opacity:1"/><path fill="#f0d154" d="M658.5 352.5c6.876 4.257 14.209 5.257 22 3 7.433 3.146 14.433 2.479 21-2a80.357 80.357 0 0 0 12 4 75.963 75.963 0 0 1 11-4c2.55.117 4.55 1.117 6 3a117.504 117.504 0 0 1-8 23 35.666 35.666 0 0 1-4 7 185.63 185.63 0 0 0-14-2.5l-1.5-1.5-10 6a62.82 62.82 0 0 0-16-6c-6.008 3.363-12.175 3.696-18.5 1a36.16 36.16 0 0 0-7 4 92.741 92.741 0 0 0-7-1c1.337-9.705 2.67-19.371 4-29l10-5Z" style="opacity:1"/><path fill="#1e8570" d="M187.5 295.5c3.567 7.204 6.067 14.871 7.5 23 2.103 17.518.103 34.518-6 51-13.166 29.174-35.666 42.34-67.5 39.5-16.21-4.597-29.543-13.431-40-26.5-7.628-11.771-12.961-24.605-16-38.5l1-1.5c5.505 1.784 11.171 2.45 17 2-3.141.821-6.475 1.321-10 1.5 8.706 12.348 20.04 21.348 34 27 26.58 9.387 51.914 6.887 76-7.5-2.402 8.804-6.402 16.804-12 24l.5 1a71.916 71.916 0 0 0 7-9c11.938-24.255 14.772-49.589 8.5-76v-10Z" style="opacity:1"/><path fill="#f3d485" d="M341.5 355.5a7716.014 7716.014 0 0 1 15 20c-.652 1.225-1.819 1.892-3.5 2a20.78 20.78 0 0 1-5.5-2 237.382 237.382 0 0 1-36 15c-7.17 3.455-13.836 7.455-20 12-9.771 5.25-19.771 9.584-30 13a150.935 150.935 0 0 0 20-31 414.47 414.47 0 0 1 60-29Z" style="opacity:1"/><path fill="#c6ab6a" d="M294.5 316.5v15c-1.356 18.424-5.69 36.091-13 53a150.935 150.935 0 0 1-20 31 2133.459 2133.459 0 0 1-12 11l-1-2a167.773 167.773 0 0 0 12-18c11.664-19.664 18.331-40.998 20-64 .992-7.482 1.325-15.148 1-23 4.001-.315 7.668-1.648 11-4 .683.363 1.35.696 2 1Z" style="opacity:.999"/><path fill="#78322d" d="M634.5 391.5c.219-1.175-.114-2.175-1-3-1.695.674-3.362 1.341-5 2a383.065 383.065 0 0 0 12-66c.958-.453 1.792-1.119 2.5-2 .333 23.52-2.501 46.52-8.5 69Z" style="opacity:1"/><path fill="#efca4e" d="M718.5 386.5a167.74 167.74 0 0 1-13 27c0 .667-.333 1-1 1-2.635-1.229-5.301-1.229-8 0l4 2c-2.961 2.279-5.794 2.279-8.5 0a50.162 50.162 0 0 0-7 4 223.584 223.584 0 0 1-15-5 96.63 96.63 0 0 1-10 5 361.304 361.304 0 0 0-14-4c-2.504.193-4.837.859-7 2-1.07-.028-1.903-.361-2.5-1a1067.012 1067.012 0 0 0 8-31c2.202.224 4.535.557 7 1a36.16 36.16 0 0 1 7-4c6.325 2.696 12.492 2.363 18.5-1a62.82 62.82 0 0 1 16 6l10-6 1.5 1.5a185.63 185.63 0 0 1 14 2.5Z" style="opacity:1"/><path fill="#78332d" d="M584.5 387.5a7692.644 7692.644 0 0 1-145 41 39.46 39.46 0 0 1 10-11 122.563 122.563 0 0 1 22-13.5c36.445-13.764 74.112-19.264 113-16.5Z" style="opacity:1"/><path fill="#80322d" d="M584.5 387.5c9.24.61 18.24 1.944 27 4a5576.417 5576.417 0 0 0-174 49 25.913 25.913 0 0 1-9-8c2.835-2.418 5.669-2.418 8.5 0 .608-1.566 1.442-2.9 2.5-4a7692.644 7692.644 0 0 0 145-41Z" style="opacity:1"/><path fill="#86312c" d="M634.5 391.5a5.727 5.727 0 0 1-1 3 6509.74 6509.74 0 0 0-188 53 983.77 983.77 0 0 1-8-7 5576.417 5576.417 0 0 1 174-49 331.672 331.672 0 0 0 16 2c-.237-1.291.096-2.291 1-3 1.638-.659 3.305-1.326 5-2 .886.825 1.219 1.825 1 3Z" style="opacity:1"/><path fill="#e8b71f" d="m722.5 379.5 28 7a270.742 270.742 0 0 1-12 35 238.058 238.058 0 0 1-33-8 167.74 167.74 0 0 0 13-27 35.666 35.666 0 0 0 4-7Z" style="opacity:.995"/><path fill="#8c302c" d="M633.5 394.5c-.399 3.616-1.399 6.95-3 10a16851.306 16851.306 0 0 0-174 48.5c-.556.383-.889.883-1 1.5l-10-7a6509.74 6509.74 0 0 1 188-53Z" style="opacity:1"/><path fill="#94302c" d="M630.5 404.5c-1.924 8.495-4.924 16.495-9 24 .03-.997-.47-1.664-1.5-2a2717.221 2717.221 0 0 0-61.5 18c-12.847-4.63-25.181-3.63-37 3a96.64 96.64 0 0 0-26-1.5 25.471 25.471 0 0 0-9 4c-1.641 1.129-2.641 2.629-3 4.5-2.031 6.159-.364 11.325 5 15.5 10.248 7.288 21.581 12.121 34 14.5v1c-25.071-4.706-47.405-15.04-67-31 .111-.617.444-1.117 1-1.5a16851.306 16851.306 0 0 1 174-48.5Z" style="opacity:1"/><path fill="#f1c972" d="M381.5 404.5c8.639 8.973 17.306 17.973 26 27a153.215 153.215 0 0 1-22 8c-2.755-1.469-5.755-2.802-9-4a22.725 22.725 0 0 1-7 3 110.214 110.214 0 0 0-16.5 3 228.963 228.963 0 0 0-5.5-3 189.346 189.346 0 0 1-12.5 4c-7.036-1.594-13.703-.594-20 3a124.343 124.343 0 0 0-7.5-2c-7.996 2.027-15.33 5.361-22 10-1.538.047-2.538-.62-3-2 .763-.768 1.763-1.268 3-1.5-2.189-.677-2.522-1.844-1-3.5 7.237-3.577 14.903-5.577 23-6a281.277 281.277 0 0 0 20-10.5 14.72 14.72 0 0 1-5-1.5l19-10 16-2a36.16 36.16 0 0 0 7-4c1.145-1.276 1.145-2.609 0-4l4-2c4.482-.667 8.816-1.334 13-2Z" style="opacity:1"/><path fill="#33312f" d="M228.5 438.5c-1.38 1.206-2.547.873-3.5-1a398.978 398.978 0 0 1-14.5-19c-7.991-1.512-11.824 1.822-11.5 10a538.866 538.866 0 0 0 14.5 22c-1.208.734-2.541 1.067-4 1a150.886 150.886 0 0 1-15.5-20 10.098 10.098 0 0 1-1.5-6c1.934-5.448 5.267-9.948 10-13.5 2.717-2.076 5.717-2.743 9-2a95.245 95.245 0 0 1 18.5 21.5c.135 2.422-.365 4.755-1.5 7Z" style="opacity:1"/><path fill="#565251" d="M165.5 403.5a119.388 119.388 0 0 0 25.5 23c.383-.556.883-.889 1.5-1a10.098 10.098 0 0 0 1.5 6 150.886 150.886 0 0 0 15.5 20c-18.341 7.286-37.341 9.619-57 7a65.509 65.509 0 0 1-10-3c-16.082-14.081-28.749-30.748-38-50a192.493 192.493 0 0 0 18 6.5c15.515 2.701 29.848-.133 43-8.5Z" style="opacity:1"/><path fill="#f2cd7d" d="M356.5 375.5a764.209 764.209 0 0 1 25 29c-4.184.666-8.518 1.333-13 2l-4 2c1.145 1.391 1.145 2.724 0 4a36.16 36.16 0 0 1-7 4l-16 2-19 10a14.72 14.72 0 0 0 5 1.5 281.277 281.277 0 0 1-20 10.5c-8.097.423-15.763 2.423-23 6-1.522 1.656-1.189 2.823 1 3.5-1.237.232-2.237.732-3 1.5-3.667-1.333-7.333-1.333-11 0a195.794 195.794 0 0 1-22-25c4.041-3.676 8.041-7.343 12-11 10.229-3.416 20.229-7.75 30-13 6.164-4.545 12.83-8.545 20-12a237.382 237.382 0 0 0 36-15 20.78 20.78 0 0 0 5.5 2c1.681-.108 2.848-.775 3.5-2Z" style="opacity:.999"/><path fill="#edc447" d="M704.5 414.5a255.378 255.378 0 0 1-21 31c-1.777-.286-3.444-.953-5-2a32.415 32.415 0 0 1-7 3 79.113 79.113 0 0 1-12-3 54.224 54.224 0 0 0-9 4c-8.424-4.334-16.591-4.001-24.5 1-1.749-.248-2.582-1.248-2.5-3a385.253 385.253 0 0 0 13-28c.597.639 1.43.972 2.5 1 2.163-1.141 4.496-1.807 7-2a361.304 361.304 0 0 1 14 4 96.63 96.63 0 0 0 10-5 223.584 223.584 0 0 0 15 5 50.162 50.162 0 0 1 7-4c2.706 2.279 5.539 2.279 8.5 0l-4-2c2.699-1.229 5.365-1.229 8 0Z" style="opacity:1"/><path fill="#e8b120" d="M705.5 413.5a238.058 238.058 0 0 0 33 8 351.192 351.192 0 0 1-19 39 1667.472 1667.472 0 0 1-39-10 18.924 18.924 0 0 1 3-5 255.378 255.378 0 0 0 21-31c.667 0 1-.333 1-1Z" style="opacity:.996"/><path fill="#692f2b" d="M449.5 417.5a39.46 39.46 0 0 0-10 11c-1.058 1.1-1.892 2.434-2.5 4-2.831-2.418-5.665-2.418-8.5 0-22.333-19-43-39.667-62-62-.065-.438.101-.772.5-1a898.405 898.405 0 0 0 52.5 48.5 116.403 116.403 0 0 1 30-.5Z" style="opacity:1"/><path fill="#534d49" d="M228.5 438.5c-.268 1.599.066 2.932 1 4 16.677 17.36 35.343 32.027 56 44 27.504 17.064 57.171 29.064 89 36 15.266 4.324 30.932 7.157 47 8.5a608.344 608.344 0 0 0 38 1.5c7.569-.035 14.902-.702 22-2a196.99 196.99 0 0 0 20 1.5c4.476 5.669 3.809 10.669-2 15-5.564.249-10.898 1.082-16 2.5-76.807 5.988-148.14-10.679-214-50a326.147 326.147 0 0 1-56-49 538.866 538.866 0 0 1-14.5-22c-.324-8.178 3.509-11.512 11.5-10a398.978 398.978 0 0 0 14.5 19c.953 1.873 2.12 2.206 3.5 1Z" style="opacity:1"/><path fill="#efc265" d="M407.5 431.5a676.182 676.182 0 0 0 34 28 38.133 38.133 0 0 0-12 2c-1.884-.216-3.551-.883-5-2a133.066 133.066 0 0 0-9.5 6c-1.36-3.051-3.527-3.718-6.5-2-1.284-1.085-2.784-1.752-4.5-2a88.322 88.322 0 0 1-12 4c-2.05-.191-3.883-.858-5.5-2a139.907 139.907 0 0 1-20 10v4c-1.478-.262-2.811.071-4 1a8.905 8.905 0 0 1-3 4c-8.013 2.673-15.347 6.34-22 11a231.249 231.249 0 0 1-31-17 373.335 373.335 0 0 1 15.5-6c1.892.277 3.225 1.277 4 3a50.132 50.132 0 0 1 11.5-5c-.333-3 1-4.333 4-4v-3c15.404-6.368 30.07-13.702 44-22a153.215 153.215 0 0 0 22-8Z" style="opacity:1"/><path fill="#f0c56e" d="M385.5 439.5c-13.93 8.298-28.596 15.632-44 22v3c-3-.333-4.333 1-4 4a50.132 50.132 0 0 0-11.5 5c-.775-1.723-2.108-2.723-4-3a373.335 373.335 0 0 0-15.5 6 289.807 289.807 0 0 1-33-22l-2-3c3.667-1.333 7.333-1.333 11 0 .462 1.38 1.462 2.047 3 2 6.67-4.639 14.004-7.973 22-10 2.521.589 5.021 1.255 7.5 2 6.297-3.594 12.964-4.594 20-3a189.346 189.346 0 0 0 12.5-4c1.829.965 3.662 1.965 5.5 3a110.214 110.214 0 0 1 16.5-3 22.725 22.725 0 0 0 7-3c3.245 1.198 6.245 2.531 9 4Z" style="opacity:1"/><path fill="#a12e2c" d="M621.5 428.5c-12.009 28.678-33.009 47.012-63 55 15.825-8.74 18.159-20.24 7-34.5a46.153 46.153 0 0 0-7-4.5 2717.221 2717.221 0 0 1 61.5-18c1.03.336 1.53 1.003 1.5 2Z" style="opacity:1"/><path fill="#ba7f26" d="m248.5 424.5 1 2a195.794 195.794 0 0 0 22 25l2 3c28.14 29.113 61.14 51.113 99 66l2 2c-31.829-6.936-61.496-18.936-89-36-18.861-14.189-36.194-30.189-52-48 4.974-4.639 9.974-9.305 15-14Z" style="opacity:.999"/><path fill="#ecb4b9" d="M558.5 444.5a46.153 46.153 0 0 1 7 4.5c11.159 14.26 8.825 25.76-7 34.5a4.934 4.934 0 0 1-3-.5c12.541-5.957 15.708-15.123 9.5-27.5-9.41-9.9-20.91-13.4-34.5-10.5a45.8 45.8 0 0 1-9 2.5c11.819-6.63 24.153-7.63 37-3Z" style="opacity:1"/><path fill="#ecbd42" d="M683.5 445.5a18.924 18.924 0 0 0-3 5 178.815 178.815 0 0 1-22 23 49.702 49.702 0 0 1-16-2c-1.884.216-3.551.883-5 2-2.968-.682-5.634.151-8 2.5-3 .667-6 .667-9 0a17.341 17.341 0 0 0 7-3.5c-5.414-1.353-10.414-.353-15 3-3.696-1.371-7.363-2.371-11-3 8.541-8.122 15.874-17.122 22-27-.082 1.752.751 2.752 2.5 3 7.909-5.001 16.076-5.334 24.5-1a54.224 54.224 0 0 1 9-4 79.113 79.113 0 0 0 12 3 32.415 32.415 0 0 0 7-3c1.556 1.047 3.223 1.714 5 2Z" style="opacity:1"/><path fill="#e06258" d="M527.5 456.5c-1.656 5.335-3.656 10.335-6 15a13.116 13.116 0 0 0-7 1 60.841 60.841 0 0 0 9 5 11.988 11.988 0 0 0 1 6c-.457.798-1.124 1.131-2 1-12.419-2.379-23.752-7.212-34-14.5-5.364-4.175-7.031-9.341-5-15.5 5.168-5.78 11.668-8.114 19.5-7a49.711 49.711 0 0 1 17.5 2.5c2.831 1.666 5.164 3.832 7 6.5Z" style="opacity:1"/><path fill="#df9724" d="M233.5 438.5c15.806 17.811 33.139 33.811 52 48-20.657-11.973-39.323-26.64-56-44 .394-2.21 1.727-3.543 4-4Z" style="opacity:.997"/><path fill="#ecadb0" d="M521.5 447.5a63.707 63.707 0 0 0 6.5 7c.692.937.525 1.603-.5 2-1.836-2.668-4.169-4.834-7-6.5a49.711 49.711 0 0 0-17.5-2.5c-7.832-1.114-14.332 1.22-19.5 7 .359-1.871 1.359-3.371 3-4.5a25.471 25.471 0 0 1 9-4 96.64 96.64 0 0 1 26 1.5Z" style="opacity:1"/><path fill="#e59623" d="M213.5 450.5a326.147 326.147 0 0 0 56 49l-110-28a121.345 121.345 0 0 1-7-13c19.659 2.619 38.659.286 57-7 1.459.067 2.792-.266 4-1Z" style="opacity:.999"/><path fill="#e8ab20" d="M680.5 450.5a1667.472 1667.472 0 0 0 39 10c-5.85 11.826-12.85 22.826-21 33a933.532 933.532 0 0 1-47-12l7-8a178.815 178.815 0 0 0 22-23Z" style="opacity:.998"/><path fill="#df6c66" d="M558.5 483.5c-11.753 3.02-23.753 3.687-36 2v-1c.876.131 1.543-.202 2-1a11.988 11.988 0 0 1-1-6c9.939 2.412 19.939 2.579 30 .5-10.993-1.216-21.66-3.383-32-6.5 2.344-4.665 4.344-9.665 6-15 1.025-.397 1.192-1.063.5-2a63.707 63.707 0 0 1-6.5-7 45.8 45.8 0 0 0 9-2.5c13.59-2.9 25.09.6 34.5 10.5 6.208 12.377 3.041 21.543-9.5 27.5a4.934 4.934 0 0 0 3 .5Z" style="opacity:1"/><path fill="#eebd5c" d="M441.5 459.5c8.338 5.341 16.672 10.674 25 16a51.089 51.089 0 0 0-11 3l-24 12 1 2c-3.116 1.303-5.949 2.97-8.5 5-1.011-.837-2.178-1.17-3.5-1a4.934 4.934 0 0 1-.5 3c-1.011-.837-2.178-1.17-3.5-1a4.934 4.934 0 0 1-.5 3c-1.049-1.017-2.216-1.184-3.5-.5a161.698 161.698 0 0 1-21 11.5 324.264 324.264 0 0 1-54-19c6.653-4.66 13.987-8.327 22-11a8.905 8.905 0 0 0 3-4c1.189-.929 2.522-1.262 4-1v-4a139.907 139.907 0 0 0 20-10c1.617 1.142 3.45 1.809 5.5 2a88.322 88.322 0 0 0 12-4c1.716.248 3.216.915 4.5 2 2.973-1.718 5.14-1.051 6.5 2a133.066 133.066 0 0 1 9.5-6c1.449 1.117 3.116 1.784 5 2a38.133 38.133 0 0 1 12-2Z" style="opacity:1"/><path fill="#e69223" d="m159.5 471.5 110 28c65.86 39.321 137.193 55.988 214 50 3.083 6.75 8.083 11.417 15 14 5.508 3.228 11.508 5.394 18 6.5 7.993.5 15.993.666 24 .5a2985.294 2985.294 0 0 0 58 16c-16.509 10.419-34.175 18.419-53 24a135437.744 135437.744 0 0 1-351-91 310.545 310.545 0 0 1-35-48Z" style="opacity:.998"/><path fill="#ebb83f" d="m658.5 473.5-7 8a387.514 387.514 0 0 1-37 27l-4 2c-6.344-11.273-15.844-18.607-28.5-22-1.03-.336-1.53-1.003-1.5-2a111.585 111.585 0 0 0 21-14c3.637.629 7.304 1.629 11 3 4.586-3.353 9.586-4.353 15-3a17.341 17.341 0 0 1-7 3.5c3 .667 6 .667 9 0 2.366-2.349 5.032-3.182 8-2.5 1.449-1.117 3.116-1.784 5-2a49.702 49.702 0 0 0 16 2Z" style="opacity:1"/><path fill="#f5bcc1" d="M521.5 471.5c10.34 3.117 21.007 5.284 32 6.5-10.061 2.079-20.061 1.912-30-.5a60.841 60.841 0 0 1-9-5 13.116 13.116 0 0 1 7-1Z" style="opacity:1"/><path fill="#bab7b6" d="M205.5 422.5c1.322-.17 2.489.163 3.5 1 14.125 20.459 31.292 37.959 51.5 52.5 50.299 35.325 106.299 54.992 168 59 23.341.436 46.675.436 70 0 2.532.612 3.365 2.112 2.5 4.5-76.346 12.303-148.513-.197-216.5-37.5-29.427-17.082-54.927-38.915-76.5-65.5-2.491-2.819-4.324-5.986-5.5-9.5.057-2.209 1.057-3.709 3-4.5Z" style="opacity:1"/><path fill="#f8f7f7" d="M203.5 425.5c1.788-.285 3.455.048 5 1 21.873 29.71 48.873 53.543 81 71.5 51.77 27.234 106.936 41.067 165.5 41.5a5380.05 5380.05 0 0 0 43.5-1.5c-74.771 10.176-145.438-2.491-212-38-26.051-14.699-49.217-33.199-69.5-55.5a123.227 123.227 0 0 1-13.5-19Z" style="opacity:1"/><path fill="#e7a521" d="M651.5 481.5a933.532 933.532 0 0 0 47 12 269.359 269.359 0 0 1-24 31 1967.352 1967.352 0 0 0-60-16 387.514 387.514 0 0 0 37-27Z" style="opacity:.998"/><path fill="#bd8f31" d="M580.5 486.5c-.03.997.47 1.664 1.5 2 12.656 3.393 22.156 10.727 28.5 22v1l-18 8c-2.666-5.181-6.333-9.681-11-13.5-8.067-4.729-16.4-8.563-25-11.5a72.837 72.837 0 0 0 24-8Z" style="opacity:.998"/><path fill="#ecb752" d="M466.5 475.5c17.996 10.444 37.33 17.11 58 20a5441.067 5441.067 0 0 0-21 9.5 90.741 90.741 0 0 0-15 12.5l-5 6a372.472 372.472 0 0 1-90-10c-.342-.838-1.008-1.172-2-1a161.698 161.698 0 0 0 21-11.5c1.284-.684 2.451-.517 3.5.5a4.934 4.934 0 0 0 .5-3c1.322-.17 2.489.163 3.5 1a4.934 4.934 0 0 0 .5-3c1.322-.17 2.489.163 3.5 1 2.551-2.03 5.384-3.697 8.5-5l-1-2 24-12a51.089 51.089 0 0 1 11-3Z" style="opacity:1"/><path fill="#4d4947" d="M556.5 494.5c8.6 2.937 16.933 6.771 25 11.5 4.667 3.819 8.334 8.319 11 13.5 2.477 15.377-2.523 27.711-15 37-11.371 7.185-23.704 11.851-37 14-8.007.166-16.007 0-24-.5-6.492-1.106-12.492-3.272-18-6.5 11.487-.318 17.654-6.318 18.5-18 1.612-11.945-2.222-21.778-11.5-29.5a22.411 22.411 0 0 0-8-2.5c-3.416.544-6.416 1.878-9 4a90.741 90.741 0 0 1 15-12.5 5441.067 5441.067 0 0 1 21-9.5 274.97 274.97 0 0 0 32-1Z" style="opacity:1"/><path fill="#c3944a" d="M273.5 454.5a289.807 289.807 0 0 0 33 22 231.249 231.249 0 0 0 31 17 324.264 324.264 0 0 0 54 19c.992-.172 1.658.162 2 1a97.167 97.167 0 0 1-21 7c-37.86-14.887-70.86-36.887-99-66Z" style="opacity:.996"/><path fill="#e79f22" d="M614.5 508.5a1967.352 1967.352 0 0 1 60 16 328.827 328.827 0 0 1-31 30 2026.477 2026.477 0 0 1-43-11c9.083-8.842 12.417-19.508 10-32v-1l4-2Z" style="opacity:.997"/><path fill="#3c3a38" d="M498.5 563.5c-6.917-2.583-11.917-7.25-15-14 5.102-1.418 10.436-2.251 16-2.5 5.809-4.331 6.476-9.331 2-15a196.99 196.99 0 0 1-20-1.5l2-7 5-6c2.584-2.122 5.584-3.456 9-4a22.411 22.411 0 0 1 8 2.5c9.278 7.722 13.112 17.555 11.5 29.5-.846 11.682-7.013 17.682-18.5 18Z" style="opacity:1"/><path fill="#ba7926" d="M610.5 511.5c2.417 12.492-.917 23.158-10 32a78.399 78.399 0 0 1-23 13c12.477-9.289 17.477-21.623 15-37l18-8Z" style="opacity:.999"/><path fill="#e58c24" d="M194.5 519.5a135437.744 135437.744 0 0 0 351 91c-28.101 9.62-57.101 15.286-87 17a10757.227 10757.227 0 0 0-198-52c-24.723-15.384-46.723-34.051-66-56Z" style="opacity:.995"/><path fill="#bf8d3e" d="M393.5 513.5a372.472 372.472 0 0 0 90 10l-2 7c-7.098 1.298-14.431 1.965-22 2a608.344 608.344 0 0 1-38-1.5c-16.068-1.343-31.734-4.176-47-8.5l-2-2a97.167 97.167 0 0 0 21-7Z" style="opacity:.998"/><path fill="#6d6b6a" d="M550.5 523.5c7.204-.555 14.204.278 21 2.5 2.854 3.6 2.187 6.6-2 9-10.621 5.822-21.954 8.155-34 7-8.485-2.614-9.151-6.614-2-12 5.52-2.89 11.186-5.057 17-6.5Z" style="opacity:1"/><path fill="#e69823" d="M600.5 543.5a2026.477 2026.477 0 0 0 43 11 240.846 240.846 0 0 1-45 32 2985.294 2985.294 0 0 1-58-16c13.296-2.149 25.629-6.815 37-14a78.399 78.399 0 0 0 23-13Z" style="opacity:.992"/><path fill="#e58724" d="M260.5 575.5a10757.227 10757.227 0 0 1 198 52c-71.732 3.57-137.732-13.764-198-52Z" style="opacity:.967"/><path fill="#c8c6c6" d="M403.5 771.5h-51c-25.777-1.048-51.444-4.214-77-9.5-11.86-2.767-22.86-7.433-33-14-9.47-10.364-8.803-20.197 2-29.5 10.874-8.942 22.874-16.108 36-21.5 46.599-17.65 94.599-29.983 144-37 71.356-11.551 143.022-14.218 215-8 22.629 1.655 43.962 7.655 64 18 9.505 6.883 11.339 15.383 5.5 25.5a39.314 39.314 0 0 1-10.5 10.5c-16.266 10.466-33.599 18.799-52 25-52.799 16.96-106.799 28.293-162 34a1486.808 1486.808 0 0 1-81 6.5Z" style="opacity:.993"/></svg>