<svg xmlns="http://www.w3.org/2000/svg" width="844" height="772" style="shape-rendering:geometricPrecision;text-rendering:geometricPrecision;image-rendering:optimizeQuality;fill-rule:evenodd;clip-rule:evenodd"><path fill="#ebe21d" d="M445.5-.5h43q65.641 4.16 126 31l4 3h-3q-24.264-11.754-51-17h-1a246 246 0 0 0-13-3 378 378 0 0 0-42-4q-85.719-2.818-162 36a370 370 0 0 1-41-11q66.872-30.47 140-35" style="opacity:.97"/><path fill="#faf7d1" d="M508.5 9.5q-5.317 4.177-12 7a2925 2925 0 0 0-92 44 198 198 0 0 1-15-11 731 731 0 0 0-19.5 25q-1.038 1.405.5 2a46 46 0 0 1-5.5 6q.116-1.857-.5-3a5985 5985 0 0 1-93 45 124 124 0 0 0-17 5q-1.839-.03-3-1a189 189 0 0 1 20-25 674 674 0 0 1 32-30 486 486 0 0 1 43-28q76.281-38.818 162-36" style="opacity:1"/><path fill="#f9f5ca" d="M508.5 9.5a378 378 0 0 1 42 4q.129 1.495-1 2.5a12183 12183 0 0 0-160 78 708 708 0 0 0-54 26 115.3 115.3 0 0 0-22 10 302 302 0 0 0-37 16 763 763 0 0 1-49 25.5v-3a281 281 0 0 1 20-35l4-5q1.161.97 3 1a124 124 0 0 1 17-5 5985 5985 0 0 0 93-45q.616 1.143.5 3a46 46 0 0 0 5.5-6q18.58-19.014 43-8 1.794-.519 0-1.5a942 942 0 0 1-9-6.5 2925 2925 0 0 1 92-44q6.683-2.823 12-7" style="opacity:1"/><path fill="#3e2f2a" d="M563.5 16.5h1a539 539 0 0 0 44 14.5q-6.574-.011-13-2-13.002-2.004-25 3a25.6 25.6 0 0 0-5.5 6.5l-1.5-3a980 980 0 0 0-2-15.5q.162-2.522 2-3.5" style="opacity:1"/><path fill="#f8f2bd" d="M564.5 16.5q26.736 5.246 51 17-3.64.035-7 1.5a5318 5318 0 0 0-103 51 135 135 0 0 0-15 5.5 9.3 9.3 0 0 0-2.5-2 766 766 0 0 1-62.5 30q-20.433-3.663-38 7.5-20.183 12.682-33.5 32.5a236 236 0 0 0-16.5 28 138.3 138.3 0 0 0-25 11l1 2-14 6 2 2a32149 32149 0 0 1-38 17q-15.146-19.647-36-33 6.093-5.047 14-7 7.895 2.82 16 1a112 112 0 0 1 20-10.5 27.2 27.2 0 0 1-12-3.5 417 417 0 0 0 25-11 23 23 0 0 1 5 2 126 126 0 0 1 18-9.5q3.946-2.537-1-3.5a558 558 0 0 0 45-22q4.838-2.161 9 1 62.27-30.885 125-61a907 907 0 0 0 63-30l9-3 1.5 3a25.6 25.6 0 0 1 5.5-6.5q11.998-5.004 25-3 6.426 1.989 13 2a539 539 0 0 1-44-14.5" style="opacity:1"/><path fill="#868280" d="M700.5 39.5a41.7 41.7 0 0 0-1 9q-34.522-11.504-71-11l-10-4-4-3q44.046-5.118 86 9" style="opacity:.967"/><path fill="#f8f3b8" d="M615.5 33.5h3l10 4 8 6a8704 8704 0 0 1-106 53 4458 4458 0 0 1-83 38q-9.454-9.986-22-15a766 766 0 0 0 62.5-30 9.3 9.3 0 0 1 2.5 2 135 135 0 0 1 15-5.5 5318 5318 0 0 1 103-51 17.8 17.8 0 0 1 7-1.5" style="opacity:1"/><path fill="#ebdd1c" d="M305.5 34.5a370 370 0 0 0 41 11 486 486 0 0 0-43 28 737 737 0 0 0-45-11 332 332 0 0 1 47-28" style="opacity:.991"/><path fill="#494544" d="M628.5 37.5q36.478-.505 71 11a58 58 0 0 1 8 4q-1.492 17.733-1 36a347 347 0 0 1-13-2l-10-9a197 197 0 0 0-47-34z" style="opacity:.999"/><path fill="#f7f2b1" d="M636.5 43.5a197 197 0 0 1 47 34l-22 10q-18.883-24.71-49-17.5A54.3 54.3 0 0 0 595 82.5a120 120 0 0 0-11.5 17 2735 2735 0 0 1-63 30q-9.278.954-17 6l-2-2a121 121 0 0 1-13 7q-15.135 4.9-29 12a158.5 158.5 0 0 0-12-18 4458 4458 0 0 0 83-38 8704 8704 0 0 0 106-53" style="opacity:1"/><path fill="#6c6a69" d="M700.5 39.5q70.362 27.863 99 98l-8-4q-16.827-35.606-48-60-16.084-13.551-36-21a58 58 0 0 0-8-4 41.7 41.7 0 0 1 1-9" style="opacity:.963"/><path fill="#40312b" d="M404.5 60.5a942 942 0 0 0 9 6.5q1.794.981 0 1.5-24.42-11.014-43 8-1.538-.595-.5-2a732 732 0 0 1 19.5-25 198 198 0 0 0 15 11" style="opacity:1"/><path fill="#ead71d" d="M258.5 62.5a737 737 0 0 1 45 11 674 674 0 0 0-32 30 633 633 0 0 1-48-13 176.4 176.4 0 0 1 35-28" style="opacity:.994"/><path fill="#e7c817" d="M661.5 87.5a162.8 162.8 0 0 1 19 33 269.5 269.5 0 0 1 9 35 32.5 32.5 0 0 1-.5 8q-.417 1.373-1.5 2a44 44 0 0 1-4.5 7q-29.934 24.106-65.5 39.5a261 261 0 0 1-27 9.5h-10q-5.823-1.066-7.5-7a148.5 148.5 0 0 1-5.5-29v-23l2-20q4.55-22.153 14-43a120 120 0 0 1 11.5-17A54.3 54.3 0 0 1 612.5 70q30.117-7.21 49 17.5" style="opacity:.999"/><path fill="#373533" d="M707.5 52.5q19.916 7.449 36 21-1.49 14.73-1 30-16.602-10.8-36-15-.492-18.267 1-36" style="opacity:1"/><path fill="#3a2b25" d="M687.5 165.5q-46.342 44.81-111 51-8.61-41.183 1.5-82 6.779-23.316 22.5-41.5 23.566-21.803 49-2 30.695 31.138 38 74.5" style="opacity:1"/><path fill="#f9f4c4" d="M550.5 13.5a246 246 0 0 1 13 3q-1.838.978-2 3.5a980 980 0 0 1 2 15.5l-9 3a907 907 0 0 1-63 30 10828 10828 0 0 0-125 61q-4.162-3.161-9-1a558 558 0 0 1-45 22q4.946.963 1 3.5a126 126 0 0 0-18 9.5 23 23 0 0 0-5-2 417 417 0 0 1-25 11 27.2 27.2 0 0 0 12 3.5 112 112 0 0 0-20 10.5q-8.105 1.82-16-1-7.907 1.953-14 7a59.6 59.6 0 0 0-9-5v-1l9-18v3a763 763 0 0 0 49-25.5 302 302 0 0 1 37-16 115.3 115.3 0 0 1 22-10 708 708 0 0 1 54-26 12183 12183 0 0 1 160-78q1.129-1.005 1-2.5" style="opacity:1"/><path fill="#ead11d" d="M223.5 90.5a633 633 0 0 0 48 13 189 189 0 0 0-20 25l-4 5a1481 1481 0 0 1-52-13 25.5 25.5 0 0 1 5-7q3.957-4.461 8-9a74.6 74.6 0 0 1 15-14" style="opacity:.997"/><path fill="#f6f0a0" d="m683.5 77.5 10 9a118 118 0 0 1 12 14q1.333 3.354 4 6-13.15 9.611-29 14a162.8 162.8 0 0 0-19-33z" style="opacity:1"/><path fill="#c7c5c5" d="M671.5 168.5q-6.09-55.335-62-52.5-12.537 2.306-20 12.5-1.063 1.356-3 1 10.167-26.928 38.5-31 19.435 1.218 32 16 16.345 20.238 21.5 46-2.413 4.916-7 8" style="opacity:1"/><path fill="#282725" d="M743.5 73.5q31.173 24.394 48 60a78 78 0 0 0-19-4 186 186 0 0 0-30-26q-.49-15.27 1-30" style="opacity:1"/><path fill="#595654" d="M693.5 86.5q6.469 1.122 13 2 19.398 4.2 36 15a186 186 0 0 1 30 26l1 2q-3.691 1.547-8 2a64 64 0 0 1-7-6.5q-3.683-2.446-7.5-.5a41 41 0 0 0-.5 9q.329 1.763-1 3a115 115 0 0 0-13 6 247 247 0 0 0-26-38q-1.379-3.883-5-6a118 118 0 0 0-12-14" style="opacity:.999"/><path fill="#4f4b4a" d="M200.5 113.5a25.5 25.5 0 0 0-5 7 406 406 0 0 0-22 26 28.9 28.9 0 0 0-8 3 149 149 0 0 0-20-21 5312 5312 0 0 1 53.5-16q1.147.105 1.5 1" style="opacity:.999"/><path fill="#fcfcfc" d="M671.5 168.5q-16.416 15.386-37 25-.658.098-1-.5 15.762-30.877-9-55-15.58-11.522-35-9.5 7.463-10.194 20-12.5 55.91-2.835 62 52.5" style="opacity:1"/><path fill="#e8c816" d="M425.5 119.5q12.546 5.014 22 15a158.5 158.5 0 0 1 12 18 152.6 152.6 0 0 1 11 35 109.3 109.3 0 0 1 3 22v27q-1.426 2.128-1 5-1.881 7.147-8 11.5-14.683 7.046-31 8a486 486 0 0 1-52-.5q-27.273-3.84-51-17.5l-3-3q.342-.598 1-.5 66.933 33.425 136 4.5 8.802-44.397-10.5-85.5-20.826-37.907-61.5-22.5-37.365 19.114-56 56.5a20.7 20.7 0 0 1 1-5 236 236 0 0 1 16.5-28q13.317-19.818 33.5-32.5 17.567-11.163 38-7.5" style="opacity:.999"/><path fill="#eac91e" d="M195.5 120.5a1481 1481 0 0 0 52 13 281 281 0 0 0-20 35l-9 18q-28.917-13.853-61-12a289 289 0 0 1 16-28 406 406 0 0 1 22-26" style="opacity:.998"/><path fill="#f5ef93" d="M705.5 100.5q3.621 2.117 5 6a262 262 0 0 1 18 33q-19.296 9.246-39 16a269.5 269.5 0 0 0-9-35q15.85-4.389 29-14-2.667-2.646-4-6" style="opacity:1"/><path fill="#f7f1a7" d="M583.5 99.5q-9.45 20.847-14 43-37.643 16.563-75 36-10.795 1.386-19 8-2.318 1.428-5 1a152.6 152.6 0 0 0-11-35q13.865-7.1 29-12a121 121 0 0 0 13-7l2 2q7.722-5.046 17-6a2735 2735 0 0 0 63-30" style="opacity:1"/><path fill="#30584d" d="M589.5 128.5q19.42-2.022 35 9.5 24.762 24.123 9 55 .342.598 1 .5-1.52 1.76-4 2 9.773-14.852 6-32v-2q-13.25-34.628-50-29-1.695 1.683-2 4-1 0-1 1h-1q.594-4.832 4-8 1.937.356 3-1" style="opacity:1"/><path fill="#2da991" d="M772.5 129.5a78 78 0 0 1 19 4l8 4q26.897 16.258 37.5 46 4.231 11.938 6.5 24v25q-3.972 26.195-24 43.5-7.908 4.96-17 6.5-.895-.353-1-1.5 12.654-39.125 5-79.5 6.714 11.606 20 9.5 3.953-2.942 5.5-7.5 3.228-15.303-7-27-7.587-8.866-18.5-5.5-4.289 3.828-5 9.5-9.765-27.043-28-49z" style="opacity:.993"/><path fill="#3a2b25" d="M328.5 239.5q-.512-1.257-2-1a133 133 0 0 1 1-18v-1a640 640 0 0 1 9-27q18.635-37.386 56-56.5 40.674-15.406 61.5 22.5 19.302 41.103 10.5 85.5-69.067 28.925-136-4.5" style="opacity:1"/><path fill="#767472" d="M208.5 104.5a6000 6000 0 0 0-8 9q-.353-.895-1.5-1a5312 5312 0 0 0-53.5 16 310 310 0 0 0-42 14 66.7 66.7 0 0 0-12 5q.618-3.71-3-4a390 390 0 0 1 49-18.5 8755 8755 0 0 0 71-20.5" style="opacity:.942"/><path fill="#605d5c" d="M145.5 128.5a149 149 0 0 1 20 21 764 764 0 0 0-41 16 346 346 0 0 0-21-23 310 310 0 0 1 42-14" style="opacity:.992"/><path fill="#519687" d="M595.5 148.5q-2.522 2.262-6 3a73.6 73.6 0 0 0-5.5-10 8.4 8.4 0 0 1-.5-4q0-1 1-1a21.2 21.2 0 0 1 7-2 109 109 0 0 0 4 14" style="opacity:1"/><path fill="#696766" d="M103.5 142.5a346 346 0 0 1 21 23 753 753 0 0 0-33 16q-12.03-10.533-24-21 11.03-8.02 24-13a66.7 66.7 0 0 1 12-5" style="opacity:.989"/><path fill="#f7ee9f" d="m569.5 142.5-2 20q-7.3 3.855-14.5 8a3.65 3.65 0 0 0-1.5-1q-40.238 18.613-78 40a109.3 109.3 0 0 0-3-22q2.682.428 5-1 8.205-6.614 19-8 37.357-19.437 75-36" style="opacity:1"/><path fill="#c8c6c5" d="M445.5 244.5q11.6-50.007-31-77.5-24.142-10.572-46 4 5.288.269 10 1.5a102 102 0 0 0-18 1q22.665-30.144 60-23.5 25.21 9.212 34.5 34.5 10.015 26.883 4.5 55a44 44 0 0 1-14 5" style="opacity:1"/><path fill="#64a799" d="M615.5 155.5a34.3 34.3 0 0 0-8-6 143 143 0 0 1 4-8.5q8.52-.075 14 6.5a56.7 56.7 0 0 1-10 8" style="opacity:1"/><path fill="#257f6a" d="M636.5 161.5q-6.308.325-12 2h-5q.452 3.839-1 7 .95-8.087-3-15a56.7 56.7 0 0 0 10-8q-5.48-6.575-14-6.5a143 143 0 0 0-4 8.5 73.3 73.3 0 0 0-12-1 109 109 0 0 1-4-14 21.2 21.2 0 0 0-7 2q.305-2.317 2-4 36.75-5.628 50 29" style="opacity:1"/><path fill="#262523" d="M595.5 148.5q6.051.007 12 1a34.3 34.3 0 0 1 8 6q3.95 6.913 3 15a29.4 29.4 0 0 1-2 7 25.7 25.7 0 0 1-6 6 16.3 16.3 0 0 0-5 2 68.2 68.2 0 0 1-14-1 21.6 21.6 0 0 0-5-4 50.8 50.8 0 0 1-5-10q-.465-6.3 2-12 2.957-3.462 6-7 3.478-.738 6-3" style="opacity:1"/><path fill="#f2f2f2" d="M591.5 155.5q7.275.029 7 7.5-.07 5.916-5 8.5-2.294-.044-3.5-2-3.52-7.578 1.5-14" style="opacity:1"/><path fill="#84b7ac" d="M583.5 158.5q-2.465 5.7-2 12-1.957-2.846-2-7l1-7q1.859.663 3 2" style="opacity:1"/><path fill="#fcfcfc" d="M445.5 244.5q-16.946 5.064-35 6a72.4 72.4 0 0 1-12-.5q25.037-20.368 15.5-51.5-10.42-23.19-35.5-26-4.712-1.231-10-1.5 21.858-14.572 46-4 42.6 27.493 31 77.5" style="opacity:1"/><path fill="#f5ed87" d="M728.5 139.5q8.338 15.502 12 33-2.871 2.4-6.5 4-3.782-1.76-7.5 0a193 193 0 0 1-34 15q-3.25-.555-6-2a258 258 0 0 1 4.5-15 12.5 12.5 0 0 0 0-7q-26.096 30.185-63.5 44.5a276 276 0 0 1-35 10.5q-.513-1.257-2-1a261 261 0 0 0 27-9.5q35.566-15.394 65.5-39.5a44 44 0 0 0 4.5-7q1.083-.627 1.5-2 .746-3.97.5-8 19.704-6.754 39-16" style="opacity:1"/><path fill="#58a494" d="M636.5 161.5v2q.803 10.292-2.5 20-6.132 1.707-10.5-3 3.669-4.39 3-10.5-.05-3.915-2-6.5 5.692-1.675 12-2" style="opacity:1"/><path fill="#a39f9d" d="M765.5 133.5q16.334 19.651 25 44a12.6 12.6 0 0 0-4-1 202 202 0 0 1-15 2 183.7 183.7 0 0 1-21-43 41 41 0 0 1 .5-9q3.817-1.946 7.5.5a64 64 0 0 0 7 6.5" style="opacity:1"/><path fill="#fdfdfb" d="M686.5 189.5q-9.684 22.438-29 37.5a97 97 0 0 1-12 5.5q-22.117 6.933-43-3.5l-10-5q-1.857-1.035 0-1.5a276 276 0 0 0 35-10.5q37.404-14.315 63.5-44.5a12.5 12.5 0 0 1 0 7 258 258 0 0 0-4.5 15" style="opacity:1"/><path fill="#fbfcfc" d="M806.5 201.5a714 714 0 0 0-5-21q.711-5.672 5-9.5 10.914-3.366 18.5 5.5 10.228 11.697 7 27-1.547 4.558-5.5 7.5-13.286 2.106-20-9.5" style="opacity:1"/><path fill="#2f6d5d" d="M582.5 137.5h1a8.4 8.4 0 0 0 .5 4 73.6 73.6 0 0 1 5.5 10 2464 2464 0 0 0-6 7q-1.141-1.337-3-2l-1 7q.043 4.154 2 7a50.8 50.8 0 0 0 5 10q-4.838 5.002 2 9 7.866 8.92 20 8h9a263 263 0 0 0 13-2q-8.827 4.947-19 7-13.92 1.525-24-8a29.8 29.8 0 0 0-4.5 6 11.1 11.1 0 0 0-4.5-3q-5.183-30.53 4-60" style="opacity:1"/><path fill="#98cabf" d="M624.5 163.5q1.95 2.585 2 6.5.669 6.11-3 10.5a32.5 32.5 0 0 1-7-3 29.4 29.4 0 0 0 2-7q1.452-3.161 1-7z" style="opacity:1"/><path fill="#cdcbcb" d="M156.5 174.5a50 50 0 0 1-3 9q-24.541.384-46 12 21.299-17.385 49-21" style="opacity:.932"/><path fill="#ba8826" d="M156.5 174.5h1q32.083-1.853 61 12v1a148 148 0 0 1-5 13q-27.688-16.393-60-17a50 50 0 0 0 3-9" style="opacity:.999"/><path fill="#2f5a4e" d="M378.5 172.5q25.08 2.81 35.5 26 9.537 31.132-15.5 51.5 5.979.749 12 .5-7.5 2-15 0 2.775-1.113 2-3 1.063-1.356 3-1 18.7-19.725 10.5-46-16.078-30.913-50.5-24.5-12.451 11.643-16 28.5a34.2 34.2 0 0 0-1 10q-.546 12.38 8 21 2.087 3.585 6 5a83.3 83.3 0 0 0 16 8q-18.849-2.965-36-11.5a6.98 6.98 0 0 1-2.5-3.5q2.099-28.797 18-53 2.572-4.825 7.5-7a102 102 0 0 1 18-1" style="opacity:1"/><path fill="#878481" d="M88.5 143.5q3.618.29 3 4-12.97 4.98-24 13-16.821 8.817-27 25-12.301 20.246-8.5 44 3.708 21.417 18.5 37-6.904-4.15-11.5-11a126.4 126.4 0 0 1-9.5-19q-7.056-25.551 3-50 11.754-19.004 31-30.5a218.5 218.5 0 0 1 25-12.5" style="opacity:.977"/><path fill="#5f5c5b" d="M67.5 160.5q11.97 10.467 24 21a249 249 0 0 0-31 22 254 254 0 0 0-20-18q10.179-16.183 27-25" style="opacity:.995"/><path fill="#f6ec99" d="M567.5 162.5v23a204 204 0 0 1-17 9q8 2 0 4a3.65 3.65 0 0 0 1 1.5 132.4 132.4 0 0 1-28 11.5 23 23 0 0 1-5-2l-14 7q3.082 1.03 5 3.5a349 349 0 0 1-34 17.5q-1.374-.064-2-1v-27q37.762-21.387 78-40a3.65 3.65 0 0 1 1.5 1q7.2-4.145 14.5-8" style="opacity:1"/><path fill="#4f4b4a" d="M153.5 183.5q32.312.607 60 17a178.7 178.7 0 0 1 24 21q-2.855.444-5 2a34.5 34.5 0 0 0-8-6q-11.634-10.086-26-16.5-25.224-10.619-52.5-12.5a31.7 31.7 0 0 0-10.5 1.5q-2.04 2.906 1 5a64 64 0 0 0 17 4.5q-30.039 22.536-47 56-21.293 9.291-32 30a253 253 0 0 1-24-19q-14.792-15.583-18.5-37-3.801-23.754 8.5-44a254 254 0 0 1 20 18q-10.773 12.042-14.5 28-1.863 15.549 7.5 28 12.704-33.947 41-56.5a63.4 63.4 0 0 1 13-7.5q21.459-11.616 46-12" style="opacity:.988"/><path fill="#96c3b9" d="M586.5 180.5a21.6 21.6 0 0 1 5 4q-1.145 2.802-3 5-6.838-3.998-2-9" style="opacity:1"/><path fill="#268873" d="M591.5 184.5a68.2 68.2 0 0 0 14 1l3 12q-12.134.92-20-8 1.855-2.198 3-5" style="opacity:1"/><path fill="#25846f" d="M636.5 163.5q3.773 17.148-6 32a263 263 0 0 1-13 2l-7-14a25.7 25.7 0 0 0 6-6 32.5 32.5 0 0 0 7 3q4.368 4.707 10.5 3 3.303-9.708 2.5-20" style="opacity:1"/><path fill="#2b806c" d="M400.5 246.5a86 86 0 0 0-10-12 2464 2464 0 0 1-6-7 580 580 0 0 1 5-6l7 2q4.321 3.27 10 3 2.188-11.619-1-23-6.476-.625-12 2a5.73 5.73 0 0 0-3 1l-4-7a57.5 57.5 0 0 0 9-9q-3.163-8.54-12-6a54.4 54.4 0 0 0-4 11 45.8 45.8 0 0 0-12-1l-2.5-10q-5.177-2.33-7.5 3a59 59 0 0 0 5 9q-5.064 4.588-8 11a43.3 43.3 0 0 0-10-3q3.549-16.857 16-28.5 34.422-6.413 50.5 24.5 8.2 26.275-10.5 46" style="opacity:1"/><path fill="#f4ea7c" d="M740.5 172.5q5.575 17.926 7 37a518 518 0 0 0-47 24 38.1 38.1 0 0 1-12-2 2480 2480 0 0 1-12 4q.22-3.663-2.5-2-9.103-4.34-19.5-4v4h-8q-1 0-1-1a97 97 0 0 0 12-5.5q19.316-15.062 29-37.5 2.75 1.445 6 2a193 193 0 0 0 34-15q3.718-1.76 7.5 0 3.629-1.6 6.5-4" style="opacity:1"/><path fill="#89c0b4" d="m610.5 183.5 7 14h-9l-3-12a16.3 16.3 0 0 1 5-2" style="opacity:1"/><path fill="#e9d81f" d="M710.5 106.5a247 247 0 0 1 26 38q20.243 40.234 26 85 .329 1.763-1 3a79 79 0 0 0-12-3 303 303 0 0 0-2-20q-1.425-19.074-7-37-3.662-17.498-12-33a262 262 0 0 0-18-33" style="opacity:.999"/><path fill="#f6e991" d="M567.5 185.5a148.5 148.5 0 0 0 5.5 29q1.677 5.934 7.5 7-1.063 1.356-3 1-17.172-.334-33 6.5l-17 8.5a55 55 0 0 0-9 2 109 109 0 0 1-14-4 154 154 0 0 1-26 11l-3-.5a10.3 10.3 0 0 0 4-1.5 32 32 0 0 0-7-3q-.426-2.872 1-5 .626.936 2 1a349 349 0 0 0 34-17.5q-1.918-2.47-5-3.5l14-7a23 23 0 0 0 5 2 132.4 132.4 0 0 0 28-11.5 3.65 3.65 0 0 1-1-1.5q8-2 0-4a204 204 0 0 0 17-9" style="opacity:1"/><path fill="#686564" d="M750.5 135.5a183.7 183.7 0 0 0 21 43q12.92 31.184 13 65 1.372 39.659-16.5 75-1.916 3.37-4.5 6l1-10q4.62-42.85-2-85-5.757-44.766-26-85 6.281-3.39 13-6 1.329-1.237 1-3" style="opacity:1"/><path fill="#666463" d="M773.5 131.5q18.235 21.957 28 49a714 714 0 0 1 5 21q7.654 40.375-5 79.5.105 1.147 1 1.5-13 33.984-41 57 .694-4.473 1-9 16.321-20.088 27.5-44a135.8 135.8 0 0 0 10.5-43q2.354-34.183-10-66-8.666-24.349-25-44 4.309-.453 8-2" style="opacity:.998"/><path fill="#7cb4a8" d="M367.5 194.5a16.3 16.3 0 0 1-5 2 59 59 0 0 1-5-9q2.323-5.33 7.5-3z" style="opacity:1"/><path fill="#84baae" d="m386.5 199.5-7-4a54.4 54.4 0 0 1 4-11q8.837-2.54 12 6a57.5 57.5 0 0 1-9 9" style="opacity:1"/><path fill="#262624" d="M367.5 194.5q6.099-.29 12 1l7 4 4 7q1.914 7.621-1 15a580 580 0 0 0-5 6 599 599 0 0 0-6 3q-7.678 2.189-15-1-.71-2.11-3-2-5.02-5.542-6-13v-7q2.936-6.412 8-11a16.3 16.3 0 0 0 5-2" style="opacity:1"/><path fill="#255b4c" d="M611.5 202.5q-14.711 6.039-31 6a43.2 43.2 0 0 0-2-11 11.1 11.1 0 0 1 4.5 3 29.8 29.8 0 0 1 4.5-6q10.08 9.525 24 8" style="opacity:1"/><path fill="#eee" d="M362.5 199.5q10.323.58 7.5 11-3.657 9.296-9 1-1.375-6.393 1.5-12" style="opacity:1"/><path fill="#b5b2b1" d="M790.5 177.5q12.354 31.817 10 66-6.955 1-14 2a31 31 0 0 0-2-2q-.08-33.816-13-65a202 202 0 0 0 15-2q2.137.185 4 1" style="opacity:1"/><path fill="#7bb1a5" d="M344.5 204.5a43.3 43.3 0 0 1 10 3v7h-11a34.2 34.2 0 0 1 1-10" style="opacity:1"/><path fill="#f6ebb0" d="M337.5 187.5a20.7 20.7 0 0 0-1 5 640 640 0 0 0-9 27l-52 26q-6.017-10.041-12-20a32149 32149 0 0 0 38-17l-2-2 14-6-1-2a138.3 138.3 0 0 1 25-11" style="opacity:1"/><path fill="#555150" d="M153.5 199.5q21.624 4.072 39 17-25.036 13.765-43.5 36a4.93 4.93 0 0 0-.5 3q-8.604-3.603-18-4h-8a47.1 47.1 0 0 0-16 4q16.961-33.464 47-56" style="opacity:1"/><path fill="#9c9996" d="M224.5 217.5q-9.959 2.649-19 7a129 129 0 0 0-13-8q-17.376-12.928-39-17a64 64 0 0 1-17-4.5q-3.04-2.094-1-5a31.7 31.7 0 0 1 10.5-1.5q27.276 1.881 52.5 12.5 14.366 6.414 26 16.5" style="opacity:1"/><path fill="#25816c" d="M343.5 214.5h11q.98 7.458 6 13l-9 8q-8.546-8.62-8-21" style="opacity:1"/><path fill="#75b0a3" d="M396.5 223.5q3.755-8.088 0-17-1.237-1.329-3-1 5.524-2.625 12-2 3.188 11.381 1 23-5.679.27-10-3" style="opacity:1"/><path fill="#cabd8d" d="M218.5 187.5a59.6 59.6 0 0 1 9 5q20.854 13.353 36 33 5.983 9.959 12 20a115 115 0 0 1 6 13q-6.54 4.005-13 8a225.5 225.5 0 0 0-17.5-30 107 107 0 0 0-13.5-15 178.7 178.7 0 0 0-24-21 148 148 0 0 0 5-13" style="opacity:.999"/><path fill="#f7e9a9" d="M327.5 219.5v1q-2.181 6.148-3 13 .451 2.882 2 5 1.488-.257 2 1-.658-.098-1 .5l3 3q23.727 13.66 51 17.5-1.663 1.185-4 1.5 1.856.348 3 1.5-33.456-2.744-65-13.5a161 161 0 0 0 11 10.5 148 148 0 0 0-8.5 4q-1.892-.389-3-2-8.413 6.582-18 2a96 96 0 0 1-10.5 6l-5-12a115 115 0 0 0-6-13z" style="opacity:1"/><path fill="#226e5b" d="M26.5 242.5q18.288 31.79 49 52a333 333 0 0 1 11.5 10q9.492 12.915 2 27-3.595 3.423-8.5 4 12.848-7.243 8.5-22-4.075-8.327-12.5-12l-11-8a18.3 18.3 0 0 0-6-4l-20-19a284 284 0 0 1-14-17 108 108 0 0 1-9.5-22q-3.4-2.153-6 1l-3 6a982 982 0 0 1-4.5 20q.343-18.467 8.5-35 2.382-4.213 6.5-2 3.07 11.243 9 21" style="opacity:1"/><path fill="#a7cfc5" d="M393.5 205.5q1.763-.329 3 1 3.755 8.912 0 17l-7-2q2.914-7.379 1-15a5.73 5.73 0 0 1 3-1" style="opacity:1"/><path fill="#e68b29" d="M577.5 222.5q17.841 3.596 22.5 21-6.876-10.572-19.5-12.5a61 61 0 0 0-11-.5q-39.301 3.525-65.5 33 1.236-4.952 5-9 8.644-9.404 18.5-17l17-8.5q15.828-6.834 33-6.5" style="opacity:1"/><path fill="#d2b837" d="M327.5 220.5a133 133 0 0 0-1 18q-1.549-2.118-2-5 .819-6.852 3-13" style="opacity:.808"/><path fill="#f4e479" d="M700.5 233.5v2q.045 1.496-1.5 2-6.56-2.388-11.5 2.5a139 139 0 0 0-29 12.5 10.3 10.3 0 0 0 4 1.5 72 72 0 0 1-6 4.5 258.4 258.4 0 0 1-40 16l-4 2q2.058 3.18-2 3v4l-8 2h-6q-2.436.21-3.5-2a113 113 0 0 1-17.5 8 80.4 80.4 0 0 1-12-4 36.2 36.2 0 0 1-7 4 24.8 24.8 0 0 0-8-1q9.188-3.083 18-8 8.436-5.308-2-6a161 161 0 0 1 24.5-11q10.274 4.257 17.5-4.5l5-1-7-3.5a108.4 108.4 0 0 1 18-8l-2-2 26-13h8v-4q10.397-.34 19.5 4 2.72-1.663 2.5 2 5.952-1.967 12-4a38.1 38.1 0 0 0 12 2" style="opacity:1"/><path fill="#4f847b" d="M25.5 253.5a453 453 0 0 0-18 36q-8.88-14.259-5-31a982 982 0 0 0 4.5-20l3-6q2.6-3.153 6-1a108 108 0 0 0 9.5 22" style="opacity:1"/><path fill="#f3e373" d="M691.5 264.5q-7.26-1.116-11 5a9.86 9.86 0 0 0-6 1 214.4 214.4 0 0 1-33.5 15 36.9 36.9 0 0 1-13-4 70.4 70.4 0 0 0-24.5 9.5 12.9 12.9 0 0 1-5 .5v-4q2.975.514 4-2l8-2v-4q4.058.18 2-3l4-2a258.4 258.4 0 0 0 40-16 72 72 0 0 0 6-4.5 10.3 10.3 0 0 1-4-1.5 139 139 0 0 1 29-12.5q4.94-4.888 11.5-2.5 1.545-.504 1.5-2 8.671.666 16-4a58.6 58.6 0 0 1 14 5l-40 20a9.86 9.86 0 0 1-6 1v4a32.5 32.5 0 0 1 8 .5q-1.128 1.006-1 2.5" style="opacity:1"/><path fill="#f5e481" d="M580.5 221.5h10q1.487-.257 2 1-1.857.465 0 1.5l10 5q20.883 10.433 43 3.5 0 1 1 1l-26 13 2 2a108.4 108.4 0 0 0-18 8l7 3.5-5 1q-7.226 8.757-17.5 4.5a161 161 0 0 0-24.5 11q10.436.692 2 6-8.812 4.917-18 8-8.793-3.867-17.5 1l-7-2a127 127 0 0 0-12 4q-5.803-1.473-10.5-4a125.4 125.4 0 0 0 22-11.5 145 145 0 0 0 5-4.5q15.723-5.992 26.5-19 3.657-12.11-9.5-10 3.632-1.478 9-4 7.61-5.16 15-10a61 61 0 0 1 11 .5q12.624 1.928 19.5 12.5-4.659-17.404-22.5-21 1.937.356 3-1" style="opacity:1"/><path fill="#5a5756" d="M192.5 216.5a129 129 0 0 1 13 8 181 181 0 0 1 16 16q-25.332 9.563-43.5 30a16.2 16.2 0 0 0-1.5 3.5 15.4 15.4 0 0 1 2 4.5q-12.364-14.855-30-23a4.93 4.93 0 0 1 .5-3q18.464-22.235 43.5-36" style="opacity:1"/><path fill="#f3e46d" d="M747.5 209.5a303 303 0 0 1 2 20 515 515 0 0 1-2 56q-11.698 2.031-22-4l-10 6q-12.789-3.647-24-8 9.846-7.55 0-15-.128-1.494 1-2.5a32.5 32.5 0 0 0-8-.5v-4a9.86 9.86 0 0 0 6-1l40-20a58.6 58.6 0 0 0-14-5q-7.329 4.666-16 4v-2a518 518 0 0 1 47-24" style="opacity:1"/><path fill="#a5cdc3" d="M384.5 227.5q2.957 3.462 6 7-1.889 6.71-9 7a103 103 0 0 1-3-11 599 599 0 0 1 6-3" style="opacity:1"/><path fill="#f5e38c" d="M569.5 230.5q-7.39 4.84-15 10-5.368 2.522-9 4-18.006 5.639-30.5 20-3.236 5.048.5 9.5 6.538.802 13-.5a145 145 0 0 1-5 4.5 125.4 125.4 0 0 1-22 11.5q.098-.658-.5-1-4.596 4.455-10.5 3-4.791.346-9-2-7.446 4.191-16 5l-10 5a175 175 0 0 1-10-2q.332-1.853 2-3l-2.5-1a61.8 61.8 0 0 1-16.5 2.5 357 357 0 0 0-16.5 7.5q-3.245.007-4.5-3l6-2q-1.668-1.147-2-3 39.501-4.497 60-38.5a432 432 0 0 1-48 7 400 400 0 0 1-43-.5q-1.144-1.152-3-1.5 2.337-.315 4-1.5a486 486 0 0 0 52 .5q16.317-.954 31-8 6.119-4.353 8-11.5a32 32 0 0 1 7 3 10.3 10.3 0 0 1-4 1.5l3 .5a154 154 0 0 0 26-11 109 109 0 0 0 14 4 55 55 0 0 1 9-2q-9.856 7.596-18.5 17-3.764 4.048-5 9 26.199-29.475 65.5-33" style="opacity:1"/><path fill="#8cbdb2" d="M360.5 227.5q2.29-.11 3 2a87 87 0 0 1-6 11q-3.913-1.415-6-5z" style="opacity:1"/><path fill="#247a66" d="M363.5 229.5q7.322 3.189 15 1 1.196 5.585 3 11a35.2 35.2 0 0 1 2 8 40.6 40.6 0 0 0 14-2q.775 1.887-2 3a86 86 0 0 1-22-2 83.3 83.3 0 0 1-16-8 87 87 0 0 0 6-11" style="opacity:1"/><path fill="#62a395" d="M390.5 234.5a86 86 0 0 1 10 12q-1.937-.356-3 1a40.6 40.6 0 0 1-14 2 35.2 35.2 0 0 0-2-8q7.111-.29 9-7" style="opacity:1"/><path fill="#fdfdfb" d="M545.5 244.5q13.157-2.11 9.5 10-10.777 13.008-26.5 19a40.5 40.5 0 0 1-13 .5q-3.736-4.452-.5-9.5 12.494-14.361 30.5-20" style="opacity:1"/><path fill="#fdfdfc" d="M380.5 263.5a400 400 0 0 0 43 .5 432 432 0 0 0 48-7q-20.499 34.003-60 38.5h-10q-27.246-4.248-51-18a10900 10900 0 0 1-24-17 161 161 0 0 1-11-10.5q31.544 10.756 65 13.5" style="opacity:1"/><path fill="#25967f" d="M122.5 251.5a496 496 0 0 1 21 5.5q8.106 3.397 15 8.5-.09.814-1 1-38.225-14.999-57.5 21-8.756 29.23 15.5 47.5 31.473 16.808 55.5-9.5 11.336-16.935 5.5-36.5.105-1.147 1-1.5 10.358 18.587 11 40-27.494 41.747-75 24.5-11.525-5.276-19-15.5 8.303-27.87-15-45l-5-6q10.707-20.709 32-30a47.1 47.1 0 0 1 16-4" style="opacity:1"/><path fill="#62615f" d="M29.5 236.5a126.4 126.4 0 0 0 9.5 19q4.596 6.85 11.5 11a253 253 0 0 0 24 19l5 6-4 3q-30.712-20.21-49-52 2.287-2.574 3-6" style="opacity:1"/><path fill="#c7b67d" d="m281.5 258.5 5 12a228.7 228.7 0 0 1 8 37v9a44 44 0 0 1-2-1q-4.998 3.528-11 4 .488 11.778-1 23a330 330 0 0 0-1.5-39 261 261 0 0 0-10.5-37q6.46-3.995 13-8" style="opacity:.999"/><path fill="#d2e9e4" d="M122.5 251.5h8q18.063 3.283 32 15.5-2.349.45-4-1.5-6.894-5.103-15-8.5a496 496 0 0 0-21-5.5" style="opacity:1"/><path fill="#299c85" d="M130.5 251.5q9.396.397 18 4 17.636 8.145 30 23 .357 2.856 3 4a115 115 0 0 1 6 13v10q-5.607-17.207-17.5-31 3.216 6.548 7.5 13-.895.353-1 1.5 5.836 19.565-5.5 36.5-24.027 26.308-55.5 9.5-24.256-18.27-15.5-47.5 19.275-35.999 57.5-21 .91-.186 1-1 1.651 1.95 4 1.5-13.937-12.217-32-15.5" style="opacity:1"/><path fill="#b3b0ae" d="M224.5 217.5a34.5 34.5 0 0 1 8 6q38.018 39.063 42 94v21a348 348 0 0 0-15 2q.469-5.313-1-10-.312-21.407-8-41-8.973-27.928-29-49a181 181 0 0 0-16-16q9.041-4.351 19-7" style="opacity:1"/><path fill="#f7e5a0" d="M326.5 260.5q12.034 8.549 24 17a41088 41088 0 0 0-42 21 3.65 3.65 0 0 0 1 1.5 393 393 0 0 0-15 7.5 228.7 228.7 0 0 0-8-37 96 96 0 0 0 10.5-6q9.587 4.582 18-2 1.108 1.611 3 2a148 148 0 0 1 8.5-4" style="opacity:1"/><path fill="#3a2a25" d="M691.5 264.5q9.846 7.45 0 15-23.27 16.01-41.5 38a5661 5661 0 0 1-1.5 40q-1.995 14.443-4 29a1067 1067 0 0 1-8 31 385 385 0 0 1-13 28q-9.189 14.817-22 27a111.6 111.6 0 0 1-21 14 72.8 72.8 0 0 1-24 8 275 275 0 0 1-32 1q-31.006-4.334-58-20a40542 40542 0 0 1-25-16 676 676 0 0 1-34-28q-13.041-13.54-26-27a764 764 0 0 0-25-29 7716 7716 0 0 0-15-20 183 183 0 0 0-17-22.5 91.6 91.6 0 0 0-18-5.5q-6.324-2.116-6-9 1.22-14.613 13-5.5a148 148 0 0 1 14 15q3.543 2.267 7 4.5a516 516 0 0 0 27 14 286 286 0 0 0 25 10 256.2 256.2 0 0 0 55 14q56.976 8.303 111-11.5a465 465 0 0 0 37-16.5q44.376-18.546 79.5-51l7-9q3.827-6.018 4.5-13 3.74-6.116 11-5" style="opacity:1"/><path fill="#e9cb1f" d="M749.5 229.5a79 79 0 0 1 12 3q1.329-1.237 1-3 6.62 42.15 2 85l-21-4a325 325 0 0 0 4-25 515 515 0 0 0 2-56" style="opacity:1"/><path fill="#a29f9c" d="M784.5 243.5a31 31 0 0 1 2 2q7.045-1 14-2a135.8 135.8 0 0 1-10.5 43q-11.179 23.912-27.5 44a19.2 19.2 0 0 1 1-6q2.584-2.63 4.5-6 17.872-35.341 16.5-75" style="opacity:1"/><path fill="#625f5e" d="M221.5 240.5q20.027 21.072 29 49 .045 1.496-1.5 2-27.94 3.446-37 30-6.358 36.04 27.5 49.5a61.5 61.5 0 0 0 17 1.5q-5.08 30.536-21.5 56a192.6 192.6 0 0 0 17.5-23q4.328-.46 8 1a168 168 0 0 1-12 18q-7.539 7.042-15 14-3.41.685-4 4-1.401-1.602-1-4 1.702-3.367 1.5-7a95.3 95.3 0 0 0-18.5-21.5q-4.924-1.114-9 2-7.1 5.328-10 13.5-.925.166-1.5 1a119.4 119.4 0 0 1-25.5-23q28.168-20.805 32.5-56 4.156-35.88-16.5-65-2.643-1.144-3-4a15.4 15.4 0 0 0-2-4.5 16.2 16.2 0 0 1 1.5-3.5q18.168-20.437 43.5-30" style="opacity:1"/><path fill="#fcfdfd" d="M133.5 272.5q22.216.243 30.5 21 5.983 18.741-7.5 32.5-29.037 10.858-39.5-18.5-6.964-25.06 16.5-35" style="opacity:1"/><path fill="#5d958c" d="M25.5 253.5a284 284 0 0 0 14 17q-1.875.116-2.5 2l-1-1a796 796 0 0 0-16.5 34q-8.875-5.87-12-16a453 453 0 0 1 18-36" style="opacity:1"/><path fill="#f2db63" d="M691.5 279.5q11.211 4.353 24 8l10-6q10.302 6.031 22 4a325 325 0 0 1-4 25 19.2 19.2 0 0 0-1 6q-4.176-1-8 2l-14 2a859 859 0 0 1-50 24l1 2a6522 6522 0 0 0-13 6l-10 5a5661 5661 0 0 0 1.5-40q18.23-21.99 41.5-38" style="opacity:1"/><path fill="#7ec0b9" d="m39.5 270.5 20 19a8.44 8.44 0 0 1-.5 4 299 299 0 0 1-15.5 29q-13.701-6.218-24-17a796 796 0 0 1 16.5-34l1 1q.625-1.884 2.5-2" style="opacity:1"/><path fill="#f4dd79" d="M596.5 285.5q-5.317 4.177-12 7l2 2a65 65 0 0 1-14 6q1.966 1.137 1.5 3-10.064 6.915-21.5 12-2.775-3.277-7-4-5.164.332-1 3-1.783 1.393-4 1-.32 2.466 1 4.5a240 240 0 0 0-14 6.5l3 2q-3.735 2.375-8 3-1.314.197-2-1 3.442-.954 5-4l-3.5-1a129 129 0 0 0-14 6 27.5 27.5 0 0 0-11.5-.5 55 55 0 0 1-7.5 3.5 56 56 0 0 0-9-3l-.5-1q2.748-.836 4-3 7.348-5.187 16-9l-5-2a540 540 0 0 0 34.5-16 9.6 9.6 0 0 0 3 3q1.95-2.939 5.5-3.5a14.7 14.7 0 0 1-5-1.5l16-8a24.8 24.8 0 0 1 8 1 36.2 36.2 0 0 0 7-4 80.4 80.4 0 0 0 12 4 113 113 0 0 0 17.5-8q1.064 2.21 3.5 2" style="opacity:1"/><path fill="#f4dd80" d="M501.5 289.5q4.697 2.527 10.5 4a127 127 0 0 1 12-4l7 2q8.707-4.867 17.5-1l-16 8a14.7 14.7 0 0 0 5 1.5q-3.55.561-5.5 3.5a9.6 9.6 0 0 1-3-3 540 540 0 0 1-34.5 16l5 2q-8.652 3.813-16 9-1.494.129-2.5-1a72.2 72.2 0 0 1-13.5 7 57.5 57.5 0 0 0-14 4 146 146 0 0 1-13-4 54 54 0 0 0-9 4 24.8 24.8 0 0 0-8-1q3.633-2.652 8-4.5-2.911-.456-5-2.5l-10 6a22.5 22.5 0 0 0-4-3 662 662 0 0 1 31-15q6.873-2.48 12.5 2a130 130 0 0 1 13.5-5.5l2-2a25.6 25.6 0 0 1-10-3.5l20-10a45.2 45.2 0 0 1 9-7q5.904 1.455 10.5-3 .598.342.5 1" style="opacity:1"/><path fill="#f4dc86" d="M490.5 291.5a45.2 45.2 0 0 0-9 7l-20 10a25.6 25.6 0 0 0 10 3.5l-2 2a130 130 0 0 0-13.5 5.5q-5.627-4.48-12.5-2a662 662 0 0 0-31 15 22.5 22.5 0 0 1 4 3l10-6q2.089 2.044 5 2.5-4.367 1.848-8 4.5a140.2 140.2 0 0 1-29 12.5q-3.945 3.481-9 5.5.544 1.025 1 2a286 286 0 0 1-25-10v-3a58.6 58.6 0 0 0 16-7.5q-3.606-.293-5-3.5 6.572-4.102 14-5.5 4.754-1.467 8.5 1.5a374 374 0 0 0 16.5-8 14.6 14.6 0 0 1-6-4 546 546 0 0 1 40-19 175 175 0 0 0 10 2l10-5q8.554-.809 16-5 4.209 2.346 9 2" style="opacity:1"/><path fill="#696766" d="M250.5 289.5q7.688 19.593 8 41a256 256 0 0 1-2 42 61.5 61.5 0 0 1-17-1.5q-33.858-13.46-27.5-49.5 9.06-26.554 37-30 1.545-.504 1.5-2" style="opacity:1"/><path fill="#f5dd8c" d="M445.5 297.5a546 546 0 0 0-40 19 14.6 14.6 0 0 0 6 4 374 374 0 0 1-16.5 8q-3.746-2.967-8.5-1.5-7.428 1.398-14 5.5 1.394 3.207 5 3.5a58.6 58.6 0 0 1-16 7.5v3a516 516 0 0 1-27-14q.487-2.448 3-3 3.803 2.784 8 1 14.932-5.737 28-14.5-7.846-.976-14.5 3.5l-2.5-1q23.4-10.447 45-23h10q.332 1.853 2 3l-6 2q1.255 3.007 4.5 3a357 357 0 0 1 16.5-7.5 61.8 61.8 0 0 0 16.5-2.5l2.5 1q-1.668 1.147-2 3" style="opacity:1"/><path fill="#5aab9f" d="M59.5 289.5a18.3 18.3 0 0 1 6 4 5.6 5.6 0 0 0 1 3l-14 28q-1.238 1.329-3 1-3.478-.738-6-3a299 299 0 0 0 15.5-29 8.44 8.44 0 0 0 .5-4" style="opacity:1"/><path fill="#4d4a49" d="M32.5 186.5q-10.056 24.449-3 50-.713 3.426-3 6-5.93-9.757-9-21-4.118-2.213-6.5 2-8.158 16.533-8.5 35-3.88 16.741 5 31 3.125 10.13 12 16 10.299 10.782 24 17 2.522 2.262 6 3 5.57 3.278 12 5 8.479 5.817 19 5 4.905-.577 8.5-4 7.492-14.085-2-27a333 333 0 0 0-11.5-10l4-3q23.303 17.13 15 45-3.808 6.306-11 8-8.743.675-17-2l-1 1.5q4.558 20.843 16 38.5 5.524 9.293 14 16.5 5.132 2.548 9 6.5 13.877 28.878 38 50-49.567-15.811-75.5-61-15.677-28.78-21.5-61-28.338-13.536-41.5-42a200 200 0 0 1-4.5-19v-27q4.625-25.755 21.5-46a227 227 0 0 1 11.5-13" style="opacity:.975"/><path fill="#686563" d="M237.5 221.5q7.426 6.825 13.5 15a225.5 225.5 0 0 1 17.5 30 261 261 0 0 1 10.5 37 330 330 0 0 1 1.5 39q-2.504 34.504-20 64-3.672-1.46-8-1 26.155-40.419 22-88-3.982-54.937-42-94 2.145-1.556 5-2" style="opacity:1"/><path fill="#3d9888" d="m65.5 293.5 11 8q-2.53 11.08-8.5 21a36.2 36.2 0 0 0-4 7q-1.005 1.129-2.5 1-6.43-1.722-12-5 1.762.329 3-1l14-28a5.6 5.6 0 0 1-1-3" style="opacity:1"/><path fill="#1e846f" d="M76.5 301.5q8.425 3.673 12.5 12 4.348 14.757-8.5 22-10.521.817-19-5 1.495.129 2.5-1a36.2 36.2 0 0 1 4-7q5.97-9.92 8.5-21" style="opacity:1"/><path fill="#f5df94" d="M350.5 277.5q23.754 13.752 51 18-21.6 12.553-45 23l2.5 1q6.654-4.476 14.5-3.5-13.068 8.763-28 14.5-4.197 1.784-8-1-2.513.552-3 3a1874 1874 0 0 0-7-4.5 148 148 0 0 0-14-15q-11.78-9.113-13 5.5-.324 6.884 6 9-6.505.835-12 4v-24a393 393 0 0 1 15-7.5 3.65 3.65 0 0 1-1-1.5 41088 41088 0 0 1 42-21" style="opacity:1"/><path fill="#f3dc6e" d="M680.5 269.5q-.673 6.982-4.5 13l-7 9q-35.124 32.454-79.5 51-6.125-.402-11-4l4-2a6.85 6.85 0 0 1-1-4q-5.656-.088-10 3.5-5.202 1.622-9-2 7.613-1.378 2-5.5 7.862-2.716-1-3a43.4 43.4 0 0 0-8 2q-5.805-2.543-12-1.5a70 70 0 0 0-12 6q-4.794 1.207-9-.5 4.265-.625 8-3l-3-2a240 240 0 0 1 14-6.5q-1.32-2.034-1-4.5 2.217.393 4-1-4.164-2.668 1-3 4.225.723 7 4 11.436-5.085 21.5-12 .466-1.863-1.5-3a65 65 0 0 0 14-6l-2-2q6.683-2.823 12-7h6q-1.025 2.514-4 2v4a12.9 12.9 0 0 0 5-.5 70.4 70.4 0 0 1 24.5-9.5 36.9 36.9 0 0 0 13 4 214.4 214.4 0 0 0 33.5-15 9.86 9.86 0 0 1 6-1" style="opacity:1"/><path fill="#e9c41e" d="m743.5 310.5 21 4-1 10a19.2 19.2 0 0 0-1 6 105 105 0 0 1-1 9 80 80 0 0 1-2 11 316 316 0 0 0-24-6l7-28a19.2 19.2 0 0 1 1-6" style="opacity:.997"/><path fill="#31463f" d="M181.5 282.5q20.657 29.12 16.5 65-4.332 35.195-32.5 56-19.728 12.551-43 8.5a193 193 0 0 1-18-6.5q-3.868-3.952-9-6.5-8.476-7.207-14-16.5 15.685 19.604 40 26.5 47.751 4.26 67.5-39.5 9.154-24.723 6-51-2.15-12.194-7.5-23a115 115 0 0 0-6-13" style="opacity:1"/><path fill="#f1d759" d="m742.5 316.5-7 28a67 67 0 0 1-5 12q-2.175-2.824-6-3a76 76 0 0 0-11 4 80.4 80.4 0 0 1-12-4q-9.85 6.719-21 2-11.686 3.385-22-3 6.433-2.977 13-6l-1-2a859 859 0 0 0 50-24l14-2q3.824-3 8-2" style="opacity:1"/><path fill="#add8d3" d="M187.5 305.5q9.407 39.617-8.5 76a72 72 0 0 1-7 9l-.5-1q8.397-10.794 12-24 7.81-18.177 5-38-.642-21.413-11-40-4.284-6.452-7.5-13 11.893 13.793 17.5 31" style="opacity:1"/><path fill="#582e2a" d="M640.5 324.5a383 383 0 0 1-12 66q-1.356 1.063-1 3a332 332 0 0 1-16-2q-13.14-3.084-27-4-58.332-4.146-113 16.5a122.6 122.6 0 0 0-22 13.5 116.4 116.4 0 0 0-30 .5 898 898 0 0 1-52.5-48.5q-.598.343-.5 1a907 907 0 0 0-24.5-27q-1-1 0-2 65.648 45.104 145.5 40.5 40.446-3.65 78-19 39.7-15.348 75-38.5" style="opacity:1"/><path fill="#f3d77d" d="M467.5 333.5q-9.721 7.353-22 10l-2 6q4.12-.47 8 1a4.46 4.46 0 0 1-2 1.5q4.053.91 8-.5l4 2q7.587-4.379 16-3a257 257 0 0 0-19 10 40 40 0 0 1-9 3v4q-4.406.716-8 3a256.2 256.2 0 0 1-55-14 44 44 0 0 0-1-2q5.055-2.019 9-5.5a140.2 140.2 0 0 0 29-12.5 24.8 24.8 0 0 1 8 1 54 54 0 0 1 9-4 146 146 0 0 0 13 4 57.5 57.5 0 0 1 14-4" style="opacity:1"/><path fill="#218e78" d="M188.5 327.5q2.81 19.823-5 38-36.13 21.58-76 7.5-20.94-8.478-34-27 5.288-.268 10-1.5 7.192-1.694 11-8 7.475 10.224 19 15.5 47.506 17.247 75-24.5" style="opacity:1"/><path fill="#e9be1f" d="M735.5 344.5a316 316 0 0 1 24 6 237 237 0 0 1-9 36l-28-7a117.5 117.5 0 0 0 8-23 67 67 0 0 0 5-12" style="opacity:.99"/><path fill="#f4d88c" d="M306.5 327.5a91.6 91.6 0 0 1 18 5.5 183 183 0 0 1 17 22.5 414.5 414.5 0 0 0-60 29q10.966-25.364 13-53 5.495-3.165 12-4" style="opacity:1"/><path fill="#9f9c99" d="M274.5 317.5q4.155 47.581-22 88a192.6 192.6 0 0 1-17.5 23q16.42-25.464 21.5-56a256 256 0 0 0 2-42q1.469 4.687 1 10a348 348 0 0 1 15-2z" style="opacity:1"/><path fill="#f2d672" d="M522.5 331.5q4.206 1.707 9 .5a70 70 0 0 1 12-6q6.195-1.043 12 1.5a43.4 43.4 0 0 1 8-2q8.862.284 1 3 5.613 4.122-2 5.5 3.798 3.622 9 2 4.344-3.588 10-3.5a6.85 6.85 0 0 0 1 4l-4 2q4.875 3.598 11 4a465 465 0 0 1-37 16.5q-54.024 19.803-111 11.5 3.594-2.284 8-3v-4a40 40 0 0 0 9-3 257 257 0 0 1 19-10q-8.413-1.379-16 3l-4-2q-3.947 1.41-8 .5a4.46 4.46 0 0 0 2-1.5 16.9 16.9 0 0 0-8-1l2-6q12.279-2.647 22-10a72.2 72.2 0 0 0 13.5-7q1.006 1.129 2.5 1-1.252 2.164-4 3l.5 1a56 56 0 0 1 9 3 55 55 0 0 0 7.5-3.5 27.5 27.5 0 0 1 11.5.5 129 129 0 0 1 14-6l3.5 1q-1.558 3.046-5 4 .686 1.197 2 1" style="opacity:1"/><path fill="#f0d154" d="M658.5 352.5q10.314 6.385 22 3 11.15 4.719 21-2a80.4 80.4 0 0 0 12 4 76 76 0 0 1 11-4q3.825.176 6 3a117.5 117.5 0 0 1-8 23 35.7 35.7 0 0 1-4 7 186 186 0 0 0-14-2.5l-1.5-1.5-10 6a62.8 62.8 0 0 0-16-6q-9.012 5.044-18.5 1a36.2 36.2 0 0 0-7 4 93 93 0 0 0-7-1q2.005-14.557 4-29z" style="opacity:1"/><path fill="#1e8570" d="M187.5 295.5q5.35 10.806 7.5 23 3.154 26.277-6 51-19.749 43.76-67.5 39.5-24.315-6.896-40-26.5-11.442-17.657-16-38.5l1-1.5q8.257 2.675 17 2-4.712 1.232-10 1.5 13.06 18.522 34 27 39.87 14.08 76-7.5-3.603 13.206-12 24l.5 1a72 72 0 0 0 7-9q17.908-36.383 8.5-76z" style="opacity:1"/><path fill="#f3d485" d="M341.5 355.5a7716 7716 0 0 1 15 20q-.978 1.838-3.5 2a20.8 20.8 0 0 1-5.5-2 237.4 237.4 0 0 1-36 15q-10.755 5.183-20 12-14.657 7.875-30 13a151 151 0 0 0 20-31 414.5 414.5 0 0 1 60-29" style="opacity:1"/><path fill="#c6ab6a" d="M294.5 316.5v15q-2.034 27.636-13 53a151 151 0 0 1-20 31 2134 2134 0 0 1-12 11l-1-2a168 168 0 0 0 12-18q17.496-29.496 20-64 1.488-11.223 1-23 6.002-.472 11-4 1.025.544 2 1" style="opacity:.999"/><path fill="#78322d" d="M634.5 391.5q.329-1.763-1-3-2.543 1.011-5 2a383 383 0 0 0 12-66q1.438-.679 2.5-2 .499 35.28-8.5 69" style="opacity:1"/><path fill="#efca4e" d="M718.5 386.5a167.7 167.7 0 0 1-13 27q0 1-1 1-3.952-1.843-8 0l4 2q-4.441 3.418-8.5 0a50 50 0 0 0-7 4 224 224 0 0 1-15-5 97 97 0 0 1-10 5 361 361 0 0 0-14-4q-3.756.289-7 2-1.605-.042-2.5-1a1067 1067 0 0 0 8-31q3.303.336 7 1a36.2 36.2 0 0 1 7-4q9.488 4.044 18.5-1a62.8 62.8 0 0 1 16 6l10-6 1.5 1.5a186 186 0 0 1 14 2.5" style="opacity:1"/><path fill="#78332d" d="M584.5 387.5a7693 7693 0 0 1-145 41 39.5 39.5 0 0 1 10-11 122.6 122.6 0 0 1 22-13.5q54.668-20.646 113-16.5" style="opacity:1"/><path fill="#80322d" d="M584.5 387.5q13.86.916 27 4a5576 5576 0 0 0-174 49 25.9 25.9 0 0 1-9-8q4.253-3.627 8.5 0 .913-2.35 2.5-4a7693 7693 0 0 0 145-41" style="opacity:1"/><path fill="#86312c" d="M634.5 391.5a5.73 5.73 0 0 1-1 3 6510 6510 0 0 0-188 53 984 984 0 0 1-8-7 5576 5576 0 0 1 174-49 332 332 0 0 0 16 2q-.356-1.937 1-3 2.457-.989 5-2 1.329 1.237 1 3" style="opacity:1"/><path fill="#e8b71f" d="m722.5 379.5 28 7a271 271 0 0 1-12 35 238 238 0 0 1-33-8 167.7 167.7 0 0 0 13-27 35.7 35.7 0 0 0 4-7" style="opacity:.995"/><path fill="#8c302c" d="M633.5 394.5q-.599 5.424-3 10a16851 16851 0 0 0-174 48.5q-.834.574-1 1.5l-10-7a6510 6510 0 0 1 188-53" style="opacity:1"/><path fill="#94302c" d="M630.5 404.5q-2.886 12.743-9 24 .045-1.496-1.5-2a2717 2717 0 0 0-61.5 18q-19.271-6.945-37 3a96.6 96.6 0 0 0-26-1.5 25.5 25.5 0 0 0-9 4q-2.462 1.694-3 4.5-3.046 9.238 5 15.5 15.372 10.932 34 14.5v1q-37.607-7.06-67-31 .166-.926 1-1.5a16851 16851 0 0 1 174-48.5" style="opacity:1"/><path fill="#f1c972" d="M381.5 404.5q12.959 13.46 26 27a153 153 0 0 1-22 8q-4.132-2.203-9-4a22.7 22.7 0 0 1-7 3 110 110 0 0 0-16.5 3 229 229 0 0 0-5.5-3 189 189 0 0 1-12.5 4q-10.554-2.391-20 3a124 124 0 0 0-7.5-2q-11.995 3.041-22 10-2.307.07-3-2 1.144-1.152 3-1.5-3.283-1.016-1-3.5 10.855-5.365 23-6a281 281 0 0 0 20-10.5 14.7 14.7 0 0 1-5-1.5l19-10 16-2a36.2 36.2 0 0 0 7-4q1.717-1.914 0-4l4-2q6.724-1 13-2" style="opacity:1"/><path fill="#33312f" d="M228.5 438.5q-2.07 1.81-3.5-1a399 399 0 0 1-14.5-19q-11.986-2.268-11.5 10a539 539 0 0 0 14.5 22q-1.812 1.1-4 1a151 151 0 0 1-15.5-20 10.1 10.1 0 0 1-1.5-6q2.9-8.172 10-13.5 4.076-3.114 9-2a95.3 95.3 0 0 1 18.5 21.5q.202 3.633-1.5 7" style="opacity:1"/><path fill="#565251" d="M165.5 403.5a119.4 119.4 0 0 0 25.5 23q.575-.834 1.5-1a10.1 10.1 0 0 0 1.5 6 151 151 0 0 0 15.5 20q-27.512 10.929-57 7a65.5 65.5 0 0 1-10-3q-24.123-21.122-38-50a193 193 0 0 0 18 6.5q23.272 4.051 43-8.5" style="opacity:1"/><path fill="#f2cd7d" d="M356.5 375.5a764 764 0 0 1 25 29q-6.277 1-13 2l-4 2q1.717 2.086 0 4a36.2 36.2 0 0 1-7 4l-16 2-19 10a14.7 14.7 0 0 0 5 1.5 281 281 0 0 1-20 10.5q-12.145.635-23 6-2.283 2.484 1 3.5-1.856.348-3 1.5-5.5-2-11 0a196 196 0 0 1-22-25q6.062-5.514 12-11 15.343-5.125 30-13 9.245-6.817 20-12a237.4 237.4 0 0 0 36-15 20.8 20.8 0 0 0 5.5 2q2.522-.162 3.5-2" style="opacity:.999"/><path fill="#edc447" d="M704.5 414.5a255.4 255.4 0 0 1-21 31q-2.666-.43-5-2a32.4 32.4 0 0 1-7 3 79 79 0 0 1-12-3 54 54 0 0 0-9 4q-12.636-6.501-24.5 1-2.623-.372-2.5-3a385 385 0 0 0 13-28q.895.958 2.5 1 3.244-1.711 7-2a361 361 0 0 1 14 4 97 97 0 0 0 10-5 224 224 0 0 0 15 5 50 50 0 0 1 7-4q4.059 3.418 8.5 0l-4-2q4.048-1.843 8 0" style="opacity:1"/><path fill="#e8b120" d="M705.5 413.5a238 238 0 0 0 33 8 351 351 0 0 1-19 39 1668 1668 0 0 1-39-10 19 19 0 0 1 3-5 255.4 255.4 0 0 0 21-31q1 0 1-1" style="opacity:.996"/><path fill="#692f2b" d="M449.5 417.5a39.5 39.5 0 0 0-10 11q-1.587 1.65-2.5 4-4.247-3.627-8.5 0-33.5-28.5-62-62-.098-.657.5-1a898 898 0 0 0 52.5 48.5 116.4 116.4 0 0 1 30-.5" style="opacity:1"/><path fill="#534d49" d="M228.5 438.5q-.401 2.398 1 4 25.015 26.04 56 44 41.256 25.596 89 36 22.899 6.486 47 8.5a608 608 0 0 0 38 1.5q11.353-.053 22-2a197 197 0 0 0 20 1.5q6.714 8.504-2 15-8.346.373-16 2.5-115.21 8.982-214-50a326 326 0 0 1-56-49 539 539 0 0 1-14.5-22q-.486-12.268 11.5-10a399 399 0 0 0 14.5 19q1.43 2.81 3.5 1" style="opacity:1"/><path fill="#efc265" d="M407.5 431.5a676 676 0 0 0 34 28 38.1 38.1 0 0 0-12 2q-2.826-.324-5-2a133 133 0 0 0-9.5 6q-2.04-4.577-6.5-2-1.926-1.628-4.5-2a88 88 0 0 1-12 4q-3.075-.287-5.5-2a140 140 0 0 1-20 10v4q-2.217-.393-4 1a8.9 8.9 0 0 1-3 4q-12.02 4.01-22 11a231 231 0 0 1-31-17 373 373 0 0 1 15.5-6q2.838.415 4 3a50 50 0 0 1 11.5-5q-.5-4.5 4-4v-3q23.106-9.553 44-22a153 153 0 0 0 22-8" style="opacity:1"/><path fill="#f0c56e" d="M385.5 439.5q-20.894 12.447-44 22v3q-4.5-.5-4 4a50 50 0 0 0-11.5 5q-1.162-2.585-4-3a373 373 0 0 0-15.5 6 290 290 0 0 1-33-22l-2-3q5.5-2 11 0 .693 2.07 3 2 10.005-6.959 22-10 3.782.883 7.5 2 9.446-5.391 20-3a189 189 0 0 0 12.5-4q2.743 1.447 5.5 3a110 110 0 0 1 16.5-3 22.7 22.7 0 0 0 7-3q4.868 1.797 9 4" style="opacity:1"/><path fill="#a12e2c" d="M621.5 428.5q-18.014 43.018-63 55 23.738-13.11 7-34.5a46 46 0 0 0-7-4.5 2717 2717 0 0 1 61.5-18q1.545.504 1.5 2" style="opacity:1"/><path fill="#ba7f26" d="m248.5 424.5 1 2a196 196 0 0 0 22 25l2 3q42.21 43.67 99 66l2 2q-47.744-10.404-89-36-28.291-21.284-52-48 7.461-6.958 15-14" style="opacity:.999"/><path fill="#ecb4b9" d="M558.5 444.5a46 46 0 0 1 7 4.5q16.738 21.39-7 34.5a4.93 4.93 0 0 1-3-.5q18.812-8.935 9.5-27.5-14.115-14.85-34.5-10.5a45.8 45.8 0 0 1-9 2.5q17.729-9.945 37-3" style="opacity:1"/><path fill="#ecbd42" d="M683.5 445.5a19 19 0 0 0-3 5 179 179 0 0 1-22 23 49.7 49.7 0 0 1-16-2q-2.826.324-5 2-4.452-1.023-8 2.5-4.5 1-9 0a17.34 17.34 0 0 0 7-3.5q-8.121-2.03-15 3-5.544-2.056-11-3 12.811-12.183 22-27-.123 2.628 2.5 3 11.864-7.501 24.5-1a54 54 0 0 1 9-4 79 79 0 0 0 12 3 32.4 32.4 0 0 0 7-3q2.334 1.57 5 2" style="opacity:1"/><path fill="#e06258" d="M527.5 456.5q-2.484 8.002-6 15a13.1 13.1 0 0 0-7 1 61 61 0 0 0 9 5 12 12 0 0 0 1 6q-.686 1.197-2 1-18.628-3.568-34-14.5-8.046-6.262-5-15.5 7.752-8.67 19.5-7a49.7 49.7 0 0 1 17.5 2.5q4.246 2.499 7 6.5" style="opacity:1"/><path fill="#df9724" d="M233.5 438.5q23.709 26.716 52 48-30.985-17.96-56-44 .59-3.315 4-4" style="opacity:.997"/><path fill="#ecadb0" d="M521.5 447.5a64 64 0 0 0 6.5 7q1.038 1.405-.5 2-2.754-4.001-7-6.5a49.7 49.7 0 0 0-17.5-2.5q-11.748-1.67-19.5 7 .538-2.806 3-4.5a25.5 25.5 0 0 1 9-4 96.6 96.6 0 0 1 26 1.5" style="opacity:1"/><path fill="#e59623" d="M213.5 450.5a326 326 0 0 0 56 49l-110-28a121 121 0 0 1-7-13q29.488 3.929 57-7 2.188.1 4-1" style="opacity:.999"/><path fill="#e8ab20" d="M680.5 450.5a1668 1668 0 0 0 39 10q-8.775 17.739-21 33a934 934 0 0 1-47-12l7-8a179 179 0 0 0 22-23" style="opacity:.998"/><path fill="#df6c66" d="M558.5 483.5q-17.63 4.53-36 2v-1q1.314.197 2-1a12 12 0 0 1-1-6q14.909 3.618 30 .5-16.49-1.824-32-6.5 3.516-6.998 6-15 1.538-.595.5-2a64 64 0 0 1-6.5-7 45.8 45.8 0 0 0 9-2.5q20.385-4.35 34.5 10.5 9.312 18.565-9.5 27.5a4.93 4.93 0 0 0 3 .5" style="opacity:1"/><path fill="#eebd5c" d="M441.5 459.5q12.508 8.011 25 16a51 51 0 0 0-11 3l-24 12 1 2q-4.674 1.955-8.5 5-1.517-1.255-3.5-1a4.93 4.93 0 0 1-.5 3q-1.517-1.255-3.5-1a4.93 4.93 0 0 1-.5 3q-1.574-1.526-3.5-.5a162 162 0 0 1-21 11.5 324.3 324.3 0 0 1-54-19q9.98-6.99 22-11a8.9 8.9 0 0 0 3-4q1.783-1.393 4-1v-4a140 140 0 0 0 20-10q2.425 1.713 5.5 2a88 88 0 0 0 12-4q2.574.372 4.5 2 4.46-2.577 6.5 2a133 133 0 0 1 9.5-6q2.174 1.676 5 2a38.1 38.1 0 0 1 12-2" style="opacity:1"/><path fill="#e69223" d="m159.5 471.5 110 28q98.79 58.982 214 50 4.625 10.125 15 14 8.262 4.841 18 6.5 11.99.75 24 .5a2985 2985 0 0 0 58 16q-24.763 15.629-53 24a135438 135438 0 0 1-351-91 310.6 310.6 0 0 1-35-48" style="opacity:.998"/><path fill="#ebb83f" d="m658.5 473.5-7 8a388 388 0 0 1-37 27l-4 2q-9.516-16.91-28.5-22-1.545-.504-1.5-2a111.6 111.6 0 0 0 21-14q5.456.944 11 3 6.879-5.03 15-3a17.34 17.34 0 0 1-7 3.5q4.5 1 9 0 3.548-3.523 8-2.5 2.174-1.676 5-2a49.7 49.7 0 0 0 16 2" style="opacity:1"/><path fill="#f5bcc1" d="M521.5 471.5q15.51 4.676 32 6.5-15.091 3.118-30-.5a61 61 0 0 1-9-5 13.1 13.1 0 0 1 7-1" style="opacity:1"/><path fill="#bab7b6" d="M205.5 422.5q1.983-.255 3.5 1 21.188 30.688 51.5 52.5 75.448 52.988 168 59 35.012.654 70 0 3.798.918 2.5 4.5-114.52 18.455-216.5-37.5-44.14-25.623-76.5-65.5-3.736-4.229-5.5-9.5.085-3.313 3-4.5" style="opacity:1"/><path fill="#f8f7f7" d="M203.5 425.5q2.682-.428 5 1 32.81 44.565 81 71.5 77.654 40.85 165.5 41.5a5380 5380 0 0 0 43.5-1.5q-112.157 15.264-212-38-39.076-22.048-69.5-55.5a123 123 0 0 1-13.5-19" style="opacity:1"/><path fill="#e7a521" d="M651.5 481.5a934 934 0 0 0 47 12 269 269 0 0 1-24 31 1967 1967 0 0 0-60-16 388 388 0 0 0 37-27" style="opacity:.998"/><path fill="#bd8f31" d="M580.5 486.5q-.045 1.496 1.5 2 18.984 5.09 28.5 22v1l-18 8q-4-7.772-11-13.5-12.1-7.094-25-11.5a72.8 72.8 0 0 0 24-8" style="opacity:.998"/><path fill="#ecb752" d="M466.5 475.5q26.994 15.666 58 20a5441 5441 0 0 0-21 9.5 90.7 90.7 0 0 0-15 12.5l-5 6a372.5 372.5 0 0 1-90-10q-.512-1.257-2-1a162 162 0 0 0 21-11.5q1.926-1.026 3.5.5a4.93 4.93 0 0 0 .5-3q1.983-.255 3.5 1a4.93 4.93 0 0 0 .5-3q1.983-.255 3.5 1 3.826-3.045 8.5-5l-1-2 24-12a51 51 0 0 1 11-3" style="opacity:1"/><path fill="#4d4947" d="M556.5 494.5q12.9 4.406 25 11.5 7 5.728 11 13.5 3.716 23.066-15 37-17.056 10.777-37 14-12.01.25-24-.5-9.738-1.659-18-6.5 17.23-.477 18.5-18 2.418-17.917-11.5-29.5a22.4 22.4 0 0 0-8-2.5q-5.124.817-9 4a90.7 90.7 0 0 1 15-12.5 5441 5441 0 0 1 21-9.5 275 275 0 0 0 32-1" style="opacity:1"/><path fill="#c3944a" d="M273.5 454.5a290 290 0 0 0 33 22 231 231 0 0 0 31 17 324.3 324.3 0 0 0 54 19q1.488-.257 2 1a97.2 97.2 0 0 1-21 7q-56.79-22.33-99-66" style="opacity:.996"/><path fill="#e79f22" d="M614.5 508.5a1967 1967 0 0 1 60 16 329 329 0 0 1-31 30 2027 2027 0 0 1-43-11q13.625-13.263 10-32v-1z" style="opacity:.997"/><path fill="#3c3a38" d="M498.5 563.5q-10.375-3.875-15-14 7.654-2.127 16-2.5 8.714-6.496 2-15a197 197 0 0 1-20-1.5l2-7 5-6q3.876-3.183 9-4a22.4 22.4 0 0 1 8 2.5q13.918 11.583 11.5 29.5-1.27 17.523-18.5 18" style="opacity:1"/><path fill="#ba7926" d="M610.5 511.5q3.625 18.737-10 32a78.4 78.4 0 0 1-23 13q18.716-13.934 15-37z" style="opacity:.999"/><path fill="#e58c24" d="M194.5 519.5a135438 135438 0 0 0 351 91q-42.151 14.43-87 17a10757 10757 0 0 0-198-52q-37.085-23.076-66-56" style="opacity:.995"/><path fill="#bf8d3e" d="M393.5 513.5a372.5 372.5 0 0 0 90 10l-2 7q-10.647 1.947-22 2a608 608 0 0 1-38-1.5q-24.101-2.014-47-8.5l-2-2a97.2 97.2 0 0 0 21-7" style="opacity:.998"/><path fill="#6d6b6a" d="M550.5 523.5q10.806-.833 21 2.5 4.28 5.4-2 9-15.931 8.733-34 7-12.727-3.921-2-12 8.28-4.335 17-6.5" style="opacity:1"/><path fill="#e69823" d="M600.5 543.5a2027 2027 0 0 0 43 11 241 241 0 0 1-45 32 2985 2985 0 0 1-58-16q19.944-3.223 37-14a78.4 78.4 0 0 0 23-13" style="opacity:.992"/><path fill="#e58724" d="M260.5 575.5a10757 10757 0 0 1 198 52q-107.598 5.355-198-52" style="opacity:.967"/><path fill="#c8c6c6" d="M403.5 771.5h-51q-38.666-1.572-77-9.5-17.79-4.15-33-14-14.205-15.546 2-29.5 16.311-13.412 36-21.5 69.899-26.475 144-37 107.034-17.327 215-8 33.943 2.482 64 18 14.258 10.325 5.5 25.5a39.3 39.3 0 0 1-10.5 10.5q-24.399 15.699-52 25-79.198 25.44-162 34a1487 1487 0 0 1-81 6.5" style="opacity:.993"/></svg>