<svg xmlns="http://www.w3.org/2000/svg" width="48" height="48" fill-rule="evenodd" clip-rule="evenodd"><path fill="#c8f178" d="m12.187 14.648 9.532-5.488a4.55 4.55 0 0 1 4.517-.003l9.571 5.493c.494.283.909.662 1.253 1.094l3.79-2.182a5.5 5.5 0 0 0-1.657-1.475L26.764 4.953a5.62 5.62 0 0 0-5.586.004L8.801 12.085a5.5 5.5 0 0 0-1.67 1.501l3.787 2.181a4.4 4.4 0 0 1 1.269-1.119m9.532 24.276-9.531-5.488a4.52 4.52 0 0 1-2.264-3.912V18.561c0-.431.07-.851.189-1.254l-3.796-2.188A5.4 5.4 0 0 0 6 16.923v14.239a5.6 5.6 0 0 0 2.8 4.837l12.379 7.128a5.5 5.5 0 0 0 1.918.658v-4.363a4.4 4.4 0 0 1-1.378-.498"/><path fill="#a5de37" d="M24.84 27.882v11.544c.49-.086.962-.255 1.396-.499l9.571-5.492a4.53 4.53 0 0 0 2.27-3.916V18.565a4.4 4.4 0 0 0-.201-1.289l-10.404 5.991c-2.139 1.509-2.601 2.939-2.632 4.615"/><path fill="#c8f178" d="m41.671 15.09-3.795 2.187c.131.417.199.851.201 1.287V29.52a4.53 4.53 0 0 1-2.27 3.916l-9.571 5.491a4.4 4.4 0 0 1-1.394.5v4.36a5.5 5.5 0 0 0 1.923-.657l12.43-7.133a5.6 5.6 0 0 0 2.806-4.842V16.928a5.4 5.4 0 0 0-.33-1.838"/><path fill="#a5de37" d="M23.968 24.253c.567-.922 1.409-1.718 2.622-2.479l10.47-6.03a4.4 4.4 0 0 0-1.253-1.095l-9.572-5.491a4.55 4.55 0 0 0-4.516.002l-9.532 5.488a4.4 4.4 0 0 0-1.269 1.12l10.423 6.002c1.218.766 2.062 1.561 2.627 2.483m-3.52-.998-10.334-5.949c-.12.403-.19.823-.19 1.254v10.963c0 1.61.867 3.109 2.264 3.912l9.531 5.489a4.4 4.4 0 0 0 1.377.497V27.879c-.03-1.674-.492-3.103-2.648-4.624"/><linearGradient id="a" x1="15.163" x2="35.163" y1="-5.83" y2="36.382" gradientUnits="userSpaceOnUse"><stop offset="0" stop-color="#fff" stop-opacity="0"/><stop offset="1"/></linearGradient><path fill="url(#a)" d="M24.84 27.882v11.544c.49-.086.962-.255 1.396-.499l9.571-5.492a4.53 4.53 0 0 0 2.27-3.916V18.565a4.4 4.4 0 0 0-.201-1.289l-10.404 5.991c-2.139 1.509-2.601 2.939-2.632 4.615" opacity=".3"/><linearGradient id="b" x1="14.019" x2="34.019" y1="-5.288" y2="36.925" gradientUnits="userSpaceOnUse"><stop offset="0" stop-color="#fff" stop-opacity="0"/><stop offset="1"/></linearGradient><path fill="url(#b)" d="M23.968 24.253c.567-.922 1.409-1.718 2.622-2.479l10.47-6.03a4.4 4.4 0 0 0-1.253-1.095l-9.572-5.491a4.55 4.55 0 0 0-4.516.002l-9.532 5.488a4.4 4.4 0 0 0-1.269 1.12l10.423 6.002c1.218.766 2.062 1.561 2.627 2.483" opacity=".3"/><linearGradient id="c" x1="2.951" x2="22.951" y1="-.044" y2="42.168" gradientUnits="userSpaceOnUse"><stop offset="0" stop-color="#fff" stop-opacity="0"/><stop offset="1"/></linearGradient><path fill="url(#c)" d="m20.448 23.255-10.334-5.949c-.12.403-.19.823-.19 1.254v10.963c0 1.61.867 3.109 2.264 3.912l9.531 5.489a4.4 4.4 0 0 0 1.377.497V27.879c-.03-1.674-.492-3.103-2.648-4.624" opacity=".3"/><path fill="#fff" d="M12.188 33.435a4.52 4.52 0 0 1-2.264-3.912V18.561c0-.431.07-.851.189-1.254l-.89-.513-.068.226a5.4 5.4 0 0 0-.231 1.54v10.963a5.53 5.53 0 0 0 2.765 4.778l9.534 5.491a5.4 5.4 0 0 0 1.689.611l.184.035v-1.015a4.4 4.4 0 0 1-1.377-.498z" opacity=".22"/><path fill="#fff" d="M12.188 33.435a4.52 4.52 0 0 1-2.264-3.912V18.561c0-.431.07-.851.189-1.254l-.445-.257-.034.112c-.14.47-.211.94-.211 1.397v10.963c0 1.789.964 3.454 2.515 4.345l9.532 5.49c.461.263.977.449 1.534.554l.091.017v-.507a4.4 4.4 0 0 1-1.377-.498zm25.888-14.871V29.52a4.53 4.53 0 0 1-2.27 3.916l-9.571 5.491a4.4 4.4 0 0 1-1.394.5v1.014l.172-.03a5.4 5.4 0 0 0 1.721-.617l9.57-5.492a5.54 5.54 0 0 0 2.772-4.783V18.561a5.3 5.3 0 0 0-.249-1.586l-.066-.209-.887.511c.132.416.2.85.202 1.287" opacity=".22"/><path fill="#fff" d="M38.076 18.564V29.52a4.53 4.53 0 0 1-2.27 3.916l-9.571 5.491a4.4 4.4 0 0 1-1.394.5v.506l.085-.015a4.9 4.9 0 0 0 1.559-.558l9.57-5.492a5.04 5.04 0 0 0 2.521-4.35V18.563a4.8 4.8 0 0 0-.226-1.438l-.033-.105-.443.255c.132.418.2.852.202 1.289m-.228-3.436a5.4 5.4 0 0 0-1.543-1.346L26.731 8.29a5.56 5.56 0 0 0-5.511.003l-9.533 5.488a5.5 5.5 0 0 0-1.557 1.368l-.089.113.875.504a4.4 4.4 0 0 1 1.27-1.12v.001l9.532-5.488a4.55 4.55 0 0 1 4.517-.003l9.571 5.493c.494.283.909.662 1.253 1.094l.875-.504z" opacity=".22"/><path fill="#fff" d="M37.454 15.436a4.9 4.9 0 0 0-1.398-1.221l-9.572-5.492a5.07 5.07 0 0 0-5.014.003l-9.532 5.488a5 5 0 0 0-1.413 1.244l-.044.057.437.252a4.4 4.4 0 0 1 1.27-1.12v.001L21.72 9.16a4.55 4.55 0 0 1 4.517-.003l9.571 5.493c.494.283.909.662 1.253 1.094l.438-.252z" opacity=".22"/></svg>