<svg xmlns="http://www.w3.org/2000/svg" xml:space="preserve" width="64" height="64"><path d="M20.088 578.763v-24q0-2.687-1.047-5.328-1.047-2.64-2.593-4.688-1.549-2.047-3.688-3.984-2.141-1.938-3.953-3.219a50 50 0 0 0-3.781-2.422q-1.97-1.14-2.797-1.546-.828-.408-1.328-.626a1.8 1.8 0 0 0-.813-.187 1.8 1.8 0 0 0-.813.187q-.5.218-1.327.626-.829.405-2.798 1.546a50 50 0 0 0-3.781 2.422q-1.812 1.28-3.953 3.22-2.14 1.936-3.687 3.983t-2.594 4.688-1.047 5.328v24q0 .813.594 1.406.594.594 1.406.594h36q.813 0 1.406-.594a1.92 1.92 0 0 0 .594-1.406m-6-24v20h-14v-35.531q3.719 1.97 6.657 4.281 7.343 5.75 7.343 11.25" style="fill:#3c8dbc;fill-opacity:1;fill-rule:nonzero;stroke:none;stroke-width:.15337521" transform="matrix(1.33333 0 0 -1.33333 31.883 774.35)"/></svg>