<svg xmlns="http://www.w3.org/2000/svg" width="241.814" height="133.333"><path fill="#000200" d="M0 0h241.814v133.333H0z" style="stroke-width:1.00001"/><path fill="#0d0" d="M48.86 46.021H35.951V32.22h20.19l10.47 13.802v14.063l-5.235 6.927 5.235 6.927v13.594l-10.47 13.802h-20.19V87.532h12.91v-14.74H35.95V60.761h12.91ZM15.8 32.22h17.396v69.115H15.8Zm104.967 55.312-10.43 13.802h-11.65V88.417h4.33V59.823h-4.33V46.021h11.65l10.43 13.802zm-29.36.885h4.525v12.917H84.243l-10.43-13.802V59.823l10.43-13.802h11.69v13.802h-4.527zm64.821-28.594h-7.4v-6.041l5.825-7.76h10.548l8.462 12.916v14.323h-17.435zm-27.59 41.51V46.022h17.396v55.313zm77.889-41.51h-7.714V46.021h14.68l10.43 13.802v46.98l-10.43 13.906h-22.945l-5.235-6.98v-5.104h21.214zm-2.755 28.594v6.094l-5.195 6.823h-9.485l-10.43-13.802V59.823l10.43-13.802h6.966v42.396z" style="stroke-width:1.00001"/></svg>