<?xml version="1.0" encoding="UTF-8" standalone="no"?>
<!-- Created using Karbon, part of Calligra: http://www.calligra.org/karbon -->

<svg
   width="181.36023pt"
   height="99.999748pt"
   version="1.1"
   id="svg1"
   xmlns="http://www.w3.org/2000/svg"
   xmlns:svg="http://www.w3.org/2000/svg">
  <defs
     id="defs1" />
  <rect
     width="241.81364"
     height="133.33299"
     fill="#000200"
     id="rect1"
     x="0"
     y="0"
     style="stroke-width:1.00001" />
  <path
     id="p1"
     fill="#00dd00"
     d="M 48.860409,46.0213 H 35.951113 V 32.2192 H 56.14157 l 10.469169,13.8021 v 14.0625 l -5.234585,6.9271 5.234585,6.927 V 87.5317 L 56.14157,101.3338 H 35.951113 V 87.5317 H 48.860409 V 72.7921 H 35.951113 V 60.7609 H 48.860409 Z M 15.799952,32.2192 h 17.396072 v 69.1146 H 15.799952 Z"
     style="stroke-width:1.00001" />
  <path
     id="p2"
     fill="#00dd00"
     d="m 120.76687,87.5317 -10.4298,13.8021 H 98.687238 V 88.4171 h 4.329302 V 59.8234 H 98.687238 V 46.0213 h 11.649832 l 10.4298,13.8021 z m -29.360789,0.8854 h 4.526076 v 12.9167 H 84.242959 L 73.813159,87.5317 V 59.8234 l 10.4298,-13.8021 h 11.689198 v 13.8021 h -4.526076 z"
     style="stroke-width:1.00001" />
  <path
     id="p3"
     fill="#00dd00"
     d="m 156.22778,59.8234 h -7.39927 v -6.04168 l 5.82499,-7.76042 h 10.54784 l 8.46189,12.9167 v 14.3229 h -17.43545 z m -27.58972,41.5104 V 46.0213 h 17.39607 v 55.3125 z"
     style="stroke-width:1.00001" />
  <path
     id="p4"
     fill="#00dd00"
     d="M 206.52697,59.8234 H 198.8129 V 46.0213 h 14.68035 l 10.4298,13.8021 v 46.9791 l -10.4298,13.9063 h -22.94547 l -5.23459,-6.9792 v -5.1041 h 21.21378 z m -2.755,28.5937 v 6.0938 l -5.19522,6.8229 h -9.48522 L 178.66173,87.5317 V 59.8234 l 10.4298,-13.8021 h 6.96627 v 42.3958 z"
     style="stroke-width:1.00001" />
</svg>
