<svg xmlns="http://www.w3.org/2000/svg" width="104.326" height="105.179" style="clip-rule:evenodd;fill-rule:evenodd;image-rendering:optimizeQuality;shape-rendering:geometricPrecision;text-rendering:geometricPrecision"><path fill="#9ae5b8" d="M72.5 51.5h-14q-.401-2.398 1-4 6.201-1.477 13-1z" style="opacity:1" transform="translate(-47.438 -46.383)"/><path fill="#51de87" d="M59.5 47.5h12v3h-12z" style="opacity:1" transform="translate(-47.438 -46.383)"/><path fill="#e0dcd6" d="M58.5 51.5h14l2 8h-18q1.91-3.739 2-8" style="opacity:1" transform="translate(-47.438 -46.383)"/><path fill="#2e67b7" d="M109.5 59.5h-20v-5h20z" style="opacity:1" transform="translate(-47.438 -46.383)"/><path fill="#eae9e7" d="M89.5 59.5h20q3.534 9.123 7 18a5.73 5.73 0 0 0-1 3q-1.486 9.719-1 20h-6q.25-13.01-.5-26a479 479 0 0 0-16.5 0q-.488 11.778 1 23-2.828 3.899-8 3 .449-11.63-1-23 1.59-9.323 6-18" style="opacity:1" transform="translate(-47.438 -46.383)"/><path fill="#999895" d="M143.5 70.5h-21v-7h21z" style="opacity:1" transform="translate(-47.438 -46.383)"/><path fill="#fcab57" d="M80.5 69.5a20.5 20.5 0 0 1 3 8 139 139 0 0 1 1 23v48q-15.77.492-31-1h26q-.497-39.258 1-78" style="opacity:1" transform="translate(-47.438 -46.383)"/><path fill="#806e72" d="M122.5 70.5h21v2h-21z" style="opacity:1" transform="translate(-47.438 -46.383)"/><path fill="#ee3c3e" d="M122.5 72.5h9v75h-10q.497-36.76-1-73 .5-1.5 2-2" style="opacity:1" transform="translate(-47.438 -46.383)"/><path fill="#f2554a" d="M131.5 72.5h12q1.815.648 3 2a901 901 0 0 0-1 60h-6v6h6v7h-14z" style="opacity:1" transform="translate(-47.438 -46.383)"/><path fill="#feac56" d="M52.5 66.5a1641 1641 0 0 1 1 81q-4.227-.236-6-4-.25-33.504.5-67a68 68 0 0 1 4.5-10" style="opacity:1" transform="translate(-47.438 -46.383)"/><path fill="#f9f9f9" d="M108.5 100.5q-1.773-4.954-6-8.5-7.68-2.063-10 5.5-1.488-11.222-1-23a479 479 0 0 1 16.5 0q.75 12.99.5 26" style="opacity:1" transform="translate(-47.438 -46.383)"/><path fill="#e4242c" d="M120.5 74.5q1.497 36.24 1 73h-6v-67a5.73 5.73 0 0 1 1-3q1.144-2.643 4-3" style="opacity:1" transform="translate(-47.438 -46.383)"/><path fill="#e73433" d="M146.5 74.5q2.926 1.824 4.5 5 .75 27.496.5 55h-6a901 901 0 0 1 1-60" style="opacity:1" transform="translate(-47.438 -46.383)"/><path fill="#2362b5" d="M108.5 100.5h6v15h-30v-15q5.171.899 8-3 2.32-7.563 10-5.5 4.227 3.546 6 8.5" style="opacity:1" transform="translate(-47.438 -46.383)"/><path fill="#f0f2f6" d="M98.5 94.5q4.27 1.97 5 7-.964 5.212-6 3.5-1.956-1.206-2-3.5a32.8 32.8 0 0 1 3-7" style="opacity:1" transform="translate(-47.438 -46.383)"/><path fill="#febc6c" d="M56.5 59.5h18q3.732 4.45 6 10a1522 1522 0 0 0-1 78h-26q.497-40.758-1-81z" style="opacity:1" transform="translate(-47.438 -46.383)"/><path fill="#58ce77" d="M61.5 89.5q15.732-1.52 13.5 14-4.379 8.287-13.5 5.5-11.918-9.745 0-19.5" style="opacity:1" transform="translate(-47.438 -46.383)"/><path fill="#e6e6e4" d="M84.5 115.5h30v33h-30z" style="opacity:1" transform="translate(-47.438 -46.383)"/><path fill="#fafaf9" d="M90.5 116.5h18v31h-18z" style="opacity:1" transform="translate(-47.438 -46.383)"/><path fill="#9a9895" d="M151.5 135.5v4h-11v-4z" style="opacity:1" transform="translate(-47.438 -46.383)"/><path fill="#cf6660" d="M145.5 134.5h6v1h-11v4h11v1h-12v-6z" style="opacity:1" transform="translate(-47.438 -46.383)"/><path fill="#cd2c33" d="M115.5 80.5v67h30v-7h6q1.322 6.613-4 10.5-16.493.75-33 .5v-51q-.486-10.281 1-20" style="opacity:1" transform="translate(-47.438 -46.383)"/><path fill="#e66203" d="M47.5 143.5q1.773 3.764 6 4 15.23 1.492 31 1v3q-16.007.25-32-.5-4.934-2.115-5-7.5" style="opacity:1" transform="translate(-47.438 -46.383)"/><path fill="#bfbfbb" d="M84.5 148.5h30v3h-30z" style="opacity:1" transform="translate(-47.438 -46.383)"/></svg>