<?xml version="1.0" encoding="UTF-8" standalone="no"?>
<svg
   version="1.1"
   width="104.32578"
   height="105.1792"
   style="clip-rule:evenodd;fill-rule:evenodd;image-rendering:optimizeQuality;shape-rendering:geometricPrecision;text-rendering:geometricPrecision"
   id="svg26"
   xmlns="http://www.w3.org/2000/svg"
   xmlns:svg="http://www.w3.org/2000/svg">
  <defs
     id="defs26" />
  <g
     id="g2"
     transform="translate(-47.437527,-46.383442)">
    <path
       style="opacity:1"
       fill="#9ae5b8"
       d="m 72.5,51.5 c -4.6667,0 -9.3333,0 -14,0 -0.2678,-1.599 0.0655,-2.9324 1,-4 4.1344,-0.9849 8.4677,-1.3182 13,-1 0,1.6667 0,3.3333 0,5 z"
       id="path2" />
  </g>
  <g
     id="g3"
     transform="translate(-47.437527,-46.383442)">
    <path
       style="opacity:1"
       fill="#51de87"
       d="m 59.5,47.5 c 4,0 8,0 12,0 0,1 0,2 0,3 -4,0 -8,0 -12,0 0,-1 0,-2 0,-3 z"
       id="path3" />
  </g>
  <g
     id="g4"
     transform="translate(-47.437527,-46.383442)">
    <path
       style="opacity:1"
       fill="#e0dcd6"
       d="m 58.5,51.5 c 4.6667,0 9.3333,0 14,0 0.6667,2.6667 1.3333,5.3333 2,8 -6,0 -12,0 -18,0 1.2736,-2.4925 1.9403,-5.1592 2,-8 z"
       id="path4" />
  </g>
  <g
     id="g5"
     transform="translate(-47.437527,-46.383442)">
    <path
       style="opacity:1"
       fill="#2e67b7"
       d="m 109.5,59.5 c -6.667,0 -13.3333,0 -20,0 0,-1.6667 0,-3.3333 0,-5 6.6667,0 13.333,0 20,0 0,1.6667 0,3.3333 0,5 z"
       id="path5" />
  </g>
  <g
     id="g6"
     transform="translate(-47.437527,-46.383442)">
    <path
       style="opacity:1"
       fill="#eae9e7"
       d="m 89.5,59.5 c 6.6667,0 13.333,0 20,0 2.356,6.0817 4.69,12.0817 7,18 -0.61,0.891 -0.943,1.891 -1,3 -0.991,6.479 -1.324,13.1457 -1,20 -2,0 -4,0 -6,0 0.166,-8.6731 0,-17.3397 -0.5,-26 -5.289,-0.0948 -10.7889,-0.0948 -16.5,0 -0.3254,7.8516 0.008,15.5182 1,23 -1.8857,2.599 -4.5524,3.599 -8,3 0.299,-7.753 -0.0343,-15.4196 -1,-23 1.0609,-6.2149 3.0609,-12.2149 6,-18 z"
       id="path6" />
  </g>
  <g
     id="g7"
     transform="translate(-47.437527,-46.383442)">
    <path
       style="opacity:1"
       fill="#999895"
       d="m 143.5,70.5 c -7,0 -14,0 -21,0 0,-2.3333 0,-4.6667 0,-7 7,0 14,0 21,0 0,2.3333 0,4.6667 0,7 z"
       id="path7" />
  </g>
  <g
     id="g8"
     transform="translate(-47.437527,-46.383442)">
    <path
       style="opacity:1"
       fill="#fcab57"
       d="m 80.5,69.5 c 1.5598,2.4535 2.5598,5.1202 3,8 0.9657,7.5804 1.299,15.247 1,23 0,5 0,10 0,15 0,11 0,22 0,33 -10.5135,0.328 -20.8468,-0.006 -31,-1 8.6667,0 17.3333,0 26,0 -0.3311,-26.172 0.0022,-52.172 1,-78 z"
       id="path8" />
  </g>
  <g
     id="g9"
     transform="translate(-47.437527,-46.383442)">
    <path
       style="opacity:1"
       fill="#806e72"
       d="m 122.5,70.5 c 7,0 14,0 21,0 0,0.6667 0,1.3333 0,2 -4,0 -8,0 -12,0 -3,0 -6,0 -9,0 0,-0.6667 0,-1.3333 0,-2 z"
       id="path9" />
  </g>
  <g
     id="g10"
     transform="translate(-47.437527,-46.383442)">
    <path
       style="opacity:1"
       fill="#ee3c3e"
       d="m 122.5,72.5 c 3,0 6,0 9,0 0,25 0,50 0,75 -3.333,0 -6.667,0 -10,0 0.331,-24.506 -0.002,-48.8391 -1,-73 0.333,-1 1,-1.6667 2,-2 z"
       id="path10" />
  </g>
  <g
     id="g11"
     transform="translate(-47.437527,-46.383442)">
    <path
       style="opacity:1"
       fill="#f2554a"
       d="m 131.5,72.5 c 4,0 8,0 12,0 1.21,0.4321 2.21,1.0987 3,2 -0.997,19.8264 -1.33,39.826 -1,60 -2,0 -4,0 -6,0 0,2 0,4 0,6 2,0 4,0 6,0 0,2.333 0,4.667 0,7 -4.667,0 -9.333,0 -14,0 0,-25 0,-50 0,-75 z"
       id="path11" />
  </g>
  <g
     id="g12"
     transform="translate(-47.437527,-46.383442)">
    <path
       style="opacity:1"
       fill="#feac56"
       d="m 52.5,66.5 c 0.9979,26.8282 1.3312,53.828 1,81 -2.8176,-0.157 -4.8176,-1.491 -6,-4 -0.1666,-22.336 0,-44.6692 0.5,-67 1.2401,-3.4779 2.7401,-6.8113 4.5,-10 z"
       id="path12" />
  </g>
  <g
     id="g13"
     transform="translate(-47.437527,-46.383442)">
    <path
       style="opacity:1"
       fill="#f9f9f9"
       d="m 108.5,100.5 c -1.182,-3.3028 -3.182,-6.1362 -6,-8.5 -5.1197,-1.3752 -8.453,0.4581 -10,5.5 -0.992,-7.4818 -1.3254,-15.1484 -1,-23 5.7111,-0.0948 11.211,-0.0948 16.5,0 0.5,8.6603 0.666,17.3269 0.5,26 z"
       id="path13" />
  </g>
  <g
     id="g14"
     transform="translate(-47.437527,-46.383442)">
    <path
       style="opacity:1"
       fill="#e4242c"
       d="m 120.5,74.5 c 0.998,24.1609 1.331,48.494 1,73 -2,0 -4,0 -6,0 0,-22.333 0,-44.667 0,-67 0.057,-1.109 0.39,-2.109 1,-3 0.762,-1.7624 2.096,-2.7624 4,-3 z"
       id="path14" />
  </g>
  <g
     id="g15"
     transform="translate(-47.437527,-46.383442)">
    <path
       style="opacity:1"
       fill="#e73433"
       d="m 146.5,74.5 c 1.951,1.2158 3.451,2.8825 4.5,5 0.5,18.3303 0.667,36.664 0.5,55 -2,0 -4,0 -6,0 -0.33,-20.174 0.003,-40.1736 1,-60 z"
       id="path15" />
  </g>
  <g
     id="g16"
     transform="translate(-47.437527,-46.383442)">
    <path
       style="opacity:1"
       fill="#2362b5"
       d="m 108.5,100.5 c 2,0 4,0 6,0 0,5 0,10 0,15 -10,0 -20,0 -30,0 0,-5 0,-10 0,-15 3.4476,0.599 6.1143,-0.401 8,-3 1.547,-5.0419 4.8803,-6.8752 10,-5.5 2.818,2.3638 4.818,5.1972 6,8.5 z"
       id="path16" />
  </g>
  <g
     id="g17"
     transform="translate(-47.437527,-46.383442)">
    <path
       style="opacity:1"
       fill="#f0f2f6"
       d="m 98.5,94.5 c 2.846,1.3134 4.513,3.6467 5,7 -0.643,3.475 -2.643,4.641 -6,3.5 -1.3045,-0.804 -1.9712,-1.971 -2,-3.5 0.7366,-2.4703 1.7366,-4.8036 3,-7 z"
       id="path17" />
  </g>
  <g
     id="g18"
     transform="translate(-47.437527,-46.383442)">
    <path
       style="opacity:1"
       fill="#febc6c"
       d="m 56.5,59.5 c 6,0 12,0 18,0 2.4884,2.9658 4.4884,6.2991 6,10 -0.9978,25.828 -1.3311,51.828 -1,78 -8.6667,0 -17.3333,0 -26,0 0.3312,-27.172 -0.0021,-54.1718 -1,-81 1.3333,-2.3333 2.6667,-4.6667 4,-7 z"
       id="path18" />
  </g>
  <g
     id="g19"
     transform="translate(-47.437527,-46.383442)">
    <path
       style="opacity:1"
       fill="#58ce77"
       d="m 61.5,89.5 c 10.4884,-1.0126 14.9884,3.654 13.5,14 -2.9188,5.525 -7.4188,7.358 -13.5,5.5 -7.9452,-6.497 -7.9452,-12.9971 0,-19.5 z"
       id="path19" />
  </g>
  <g
     id="g20"
     transform="translate(-47.437527,-46.383442)">
    <path
       style="opacity:1"
       fill="#e6e6e4"
       d="m 84.5,115.5 c 10,0 20,0 30,0 0,11 0,22 0,33 -10,0 -20,0 -30,0 0,-11 0,-22 0,-33 z"
       id="path20" />
  </g>
  <g
     id="g21"
     transform="translate(-47.437527,-46.383442)">
    <path
       style="opacity:1"
       fill="#fafaf9"
       d="m 90.5,116.5 c 6,0 12,0 18,0 0,10.333 0,20.667 0,31 -6,0 -12,0 -18,0 0,-10.333 0,-20.667 0,-31 z"
       id="path21" />
  </g>
  <g
     id="g22"
     transform="translate(-47.437527,-46.383442)">
    <path
       style="opacity:1"
       fill="#9a9895"
       d="m 151.5,135.5 c 0,1.333 0,2.667 0,4 -3.667,0 -7.333,0 -11,0 0,-1.333 0,-2.667 0,-4 3.667,0 7.333,0 11,0 z"
       id="path22" />
  </g>
  <g
     id="g23"
     transform="translate(-47.437527,-46.383442)">
    <path
       style="opacity:1"
       fill="#cf6660"
       d="m 145.5,134.5 c 2,0 4,0 6,0 0,0.333 0,0.667 0,1 -3.667,0 -7.333,0 -11,0 0,1.333 0,2.667 0,4 3.667,0 7.333,0 11,0 0,0.333 0,0.667 0,1 -2,0 -4,0 -6,0 -2,0 -4,0 -6,0 0,-2 0,-4 0,-6 2,0 4,0 6,0 z"
       id="path23" />
  </g>
  <g
     id="g24"
     transform="translate(-47.437527,-46.383442)">
    <path
       style="opacity:1"
       fill="#cd2c33"
       d="m 115.5,80.5 c 0,22.333 0,44.667 0,67 2,0 4,0 6,0 3.333,0 6.667,0 10,0 4.667,0 9.333,0 14,0 0,-2.333 0,-4.667 0,-7 2,0 4,0 6,0 0.882,4.409 -0.452,7.909 -4,10.5 -10.995,0.5 -21.995,0.667 -33,0.5 0,-1 0,-2 0,-3 0,-11 0,-22 0,-33 0,-5 0,-10 0,-15 -0.324,-6.8543 0.009,-13.521 1,-20 z"
       id="path24" />
  </g>
  <g
     id="g25"
     transform="translate(-47.437527,-46.383442)">
    <path
       style="opacity:1"
       fill="#e66203"
       d="m 47.5,143.5 c 1.1824,2.509 3.1824,3.843 6,4 10.1532,0.994 20.4865,1.328 31,1 0,1 0,2 0,3 -10.6719,0.167 -21.3385,0 -32,-0.5 -3.2892,-1.41 -4.9559,-3.91 -5,-7.5 z"
       id="path25" />
  </g>
  <g
     id="g26"
     transform="translate(-47.437527,-46.383442)">
    <path
       style="opacity:1"
       fill="#bfbfbb"
       d="m 84.5,148.5 c 10,0 20,0 30,0 0,1 0,2 0,3 -10,0 -20,0 -30,0 0,-1 0,-2 0,-3 z"
       id="path26" />
  </g>
</svg>
