<svg height="64" viewBox="0 0 128 128" width="64" xmlns="http://www.w3.org/2000/svg" xmlns:xlink="http://www.w3.org/1999/xlink"><linearGradient id="a" gradientUnits="userSpaceOnUse" x1="0" x2="128" y1="128" y2="0"><stop offset="0" stop-color="#333"/><stop offset="1" stop-color="#5d5d5d"/></linearGradient><path d="m113.56795 12.002098c-.48048-.05338-1.02348.125808-1.53599.467477-2.05008 1.366717-6.14036 5.244746-7.27929 6.611462s-.72633 4.285978.86817 4.741552c1.5945.455572 2.33738 1.410708 2.33738 3.005209 0 0 .34626 5.272025 0 11.620145-5.87376-7.790407-14.053286-10.458665-17.550667-10.630756-3.618808-.178066-9.044606 1.188219-12.968899 4.41999-2.869701-3.6987-6.457131-7.974025-13.222922-12.02084-6.295136-3.765303-16.638873-5.701495-27.572603-3.19585-10.933726 2.505648-19.149067 11.324863-23.908111 26.913322-5.080909 16.64273-2.9391952 29.777498 1.594234 42.330358 6.419829 17.776223 22.961293 26.195743 30.873302 28.659573 7.027156 2.18827 13.618051.9809 19.084914-2.89146 5.466864-3.87236 6.955951-10.72755 6.272595-15.283271-.683358-4.555721-2.720958-9.349541-12.287969-9.349541 0 0-4.109441.888354-5.476159 2.938427-1.366714 2.050076-1.610036 5.232841.667825 6.143984 2.277859.911145 3.469057-.675082 4.607988 1.602779 1.13893 2.277862-.955134 3.417812-3.00521 3.873382-2.050073.45557-3.427105.4473-9.349541-1.60278-5.922435-2.050073-10.018384-6.341722-13.890747-11.353013-3.872362-5.011293-7.236312-9.113928-8.147457-24.375589-.911143-15.261664 4.283537-24.748512 10.750377-31.219294 5.90759-5.911191 15.09678-6.685451 22.525526-4.662287 6.000835 1.634284 11.935411 8.740205 12.841641 11.134417.970985 2.565291.767354 6.29605-.371575 8.118337-1.13893 1.822289-3.205557 3.374836-3.205557 4.741553 0 1.366715 1.847116 3.645594 4.808336 3.873381 2.961216.227785 8.343327.193145 10.3934.193145s2.920963-1.176577 2.920963-2.087721c0-.911143-.576384-3.52816-.576384-3.52816l10.217713-.200348s.284595.422322.284595 2.016824c0 1.594504.986798 2.636368 2.125729 2.636368 1.13893 0 6.003713-.01196 7.142643-.467477 1.13894-.455572 1.62907-2.879687 2.08464-1.968543.45557.911143 1.82694 2.270602 2.73808 2.270602s5.4689.227785 7.74676 0c2.27787-.227786 2.51393-1.811402 1.60278-3.405904s-2.49838-2.047464-2.2706-5.008682c.22778-2.96122.66782-27.102784.66782-30.519574 0-2.562592-1.09627-4.381043-2.53773-4.541197zm-25.110194 29.771616c2.468909 0 4.9419 1.602779 4.9419 1.602779h-9.082411s1.671604-1.602779 4.140511-1.602779z" fill="url(#a)"/></svg>