<svg xmlns="http://www.w3.org/2000/svg" width="64" height="64" viewBox="0 0 128 128"><linearGradient id="a" x1="0" x2="128" y1="128" y2="0" gradientUnits="userSpaceOnUse"><stop offset="0" stop-color="#333"/><stop offset="1" stop-color="#5d5d5d"/></linearGradient><path fill="url(#a)" d="M113.568 12.002c-.48-.053-1.024.126-1.536.468-2.05 1.366-6.14 5.244-7.28 6.611s-.726 4.286.869 4.742c1.594.455 2.337 1.41 2.337 3.005 0 0 .346 5.272 0 11.62-5.874-7.79-14.053-10.459-17.55-10.63-3.62-.179-9.045 1.187-12.97 4.42-2.869-3.7-6.456-7.975-13.222-12.022-6.295-3.765-16.64-5.701-27.573-3.196-10.934 2.506-19.149 11.325-23.908 26.914-5.08 16.643-2.94 29.777 1.594 42.33 6.42 17.776 22.962 26.196 30.874 28.66 7.027 2.188 13.618.98 19.084-2.892 5.467-3.872 6.956-10.727 6.273-15.283s-2.72-9.35-12.288-9.35c0 0-4.11.889-5.476 2.939-1.367 2.05-1.61 5.233.668 6.144s3.469-.675 4.608 1.603-.955 3.417-3.005 3.873-3.428.447-9.35-1.603-10.018-6.341-13.89-11.353c-3.873-5.011-7.237-9.114-8.148-24.375-.911-15.262 4.283-24.749 10.75-31.22 5.908-5.91 15.097-6.685 22.526-4.662 6 1.634 11.935 8.74 12.841 11.134.971 2.566.768 6.297-.371 8.119s-3.206 3.375-3.206 4.741c0 1.367 1.847 3.646 4.809 3.874 2.96.228 8.343.193 10.393.193s2.92-1.177 2.92-2.088-.575-3.528-.575-3.528l10.217-.2s.285.422.285 2.017.987 2.636 2.126 2.636 6.003-.012 7.142-.468c1.14-.455 1.63-2.88 2.085-1.968s1.827 2.27 2.738 2.27 5.469.228 7.747 0c2.278-.227 2.514-1.81 1.602-3.405s-2.498-2.048-2.27-5.01c.228-2.96.668-27.102.668-30.519 0-2.562-1.097-4.38-2.538-4.54m-25.11 29.772c2.469 0 4.942 1.602 4.942 1.602h-9.083s1.672-1.602 4.14-1.602"/></svg>