<svg xmlns="http://www.w3.org/2000/svg" xmlns:xlink="http://www.w3.org/1999/xlink" width="48" height="48"><defs><linearGradient id="c"><stop style="stop-color:#2e5d89"/><stop offset="1" style="stop-color:#1b92f4"/></linearGradient><linearGradient xlink:href="#a" id="e" x1="428.571" x2="408.571" gradientUnits="userSpaceOnUse" spreadMethod="reflect"/><linearGradient xlink:href="#b" id="f" x1="423.571" x2="396.238" y1="537.798" y2="510.465" gradientTransform="matrix(.9 0 0 .9 -776.286 -995.216)" gradientUnits="userSpaceOnUse"/><linearGradient id="d"><stop style="stop-color:#197cf1"/><stop offset="1" style="stop-color:#20bcfa"/></linearGradient><linearGradient id="a"><stop style="stop-color:#2f3943"/><stop offset="1" style="stop-color:#808c9b"/></linearGradient><linearGradient id="b"><stop style="stop-color:#18222a"/><stop offset="1" style="stop-color:#566069"/></linearGradient><linearGradient xlink:href="#c" id="g" x1="423.571" x2="396.238" y1="537.798" y2="510.465" gradientTransform="matrix(.7 0 0 .7 -694.572 -890.458)" gradientUnits="userSpaceOnUse"/><linearGradient xlink:href="#d" id="i" x1="421.643" x2="396.592" y1="536.87" y2="511.819" gradientTransform="rotate(180 408.571 523.798)" gradientUnits="userSpaceOnUse"/><linearGradient xlink:href="#d" id="j" x1="417.003" x2="393.499" y1="532.229" y2="508.725" gradientTransform="rotate(180 408.571 523.798)" gradientUnits="userSpaceOnUse"/><linearGradient xlink:href="#d" id="k" x1="414.396" x2="391.687" y1="529.622" y2="506.913" gradientTransform="rotate(180 408.571 523.798)" gradientUnits="userSpaceOnUse"/><linearGradient xlink:href="#c" id="h" x1="423.571" x2="374.571" y1="537.798" y2="488.798" gradientTransform="matrix(.5 0 0 .5 -612.856 -785.696)" gradientUnits="userSpaceOnUse"/></defs><g transform="translate(-384.571 -499.798)"><rect width="40" height="40" x="388.571" y="503.798" rx="20" style="stroke-opacity:.550265;fill:url(#e);stroke-width:2.8"/><rect width="36" height="36" x="-426.571" y="-541.798" rx="18" style="stroke-opacity:.550265;fill:url(#f);stroke-width:2.8" transform="rotate(180)"/><rect width="30" height="30" x="-538.798" y="-423.571" rx="15" style="stroke-opacity:.550265;fill:#26333a;stroke-width:2.8" transform="scale(1 -1)rotate(90)"/><rect width="28" height="28" x="-422.572" y="-537.798" rx="14" style="stroke-opacity:.550265;fill:url(#g);stroke-width:2.8" transform="rotate(180)"/><rect width="20" height="20" x="-418.571" y="-533.798" rx="10" style="stroke-opacity:.550265;fill:url(#h);stroke-width:2.8" transform="rotate(180)"/><path d="M408.571 509.798c-7.756 0-14 6.244-14 14s6.244 14 14 14 14-6.244 14-14-6.244-14-14-14m0 1c7.202 0 13 5.798 13 13s-5.798 13-13 13-13-5.798-13-13 5.798-13 13-13" style="stroke-opacity:.550265;fill:url(#i);stroke-width:2.8"/><path d="M408.571 511.798c-6.648 0-12 5.352-12 12s5.352 12 12 12 12-5.352 12-12-5.352-12-12-12m0 3c4.986 0 9 4.014 9 9s-4.014 9-9 9a8.98 8.98 0 0 1-9-9c0-4.986 4.014-9 9-9" style="stroke-opacity:.550265;fill:url(#j);stroke-width:2.8"/><path d="M408.571 515.798a8 8 0 0 0-3.236.684l1.863 4.66 1.252-.332 2.045-4.772a8 8 0 0 0-1.924-.24m2.883.541-1.976 4.611 1.125.649 4.818-1.928a7.98 7.98 0 0 0-3.967-3.332m-7.01.61a7.98 7.98 0 0 0-3.332 3.966l4.612 1.977.648-1.125zm11.444 3.613-4.66 1.863.332 1.252 4.771 2.045c.152-.617.24-1.259.24-1.924a8 8 0 0 0-.683-3.236m-15.076 1.312a8 8 0 0 0-.24 1.924c0 1.154.247 2.247.683 3.236l4.66-1.863-.332-1.252zm10.607 2.83-.648 1.125 1.927 4.819a7.98 7.98 0 0 0 3.332-3.967zm-4.879 1.293-4.818 1.928c.91 1.51 2.3 2.69 3.967 3.332l1.976-4.611zm3.404.457-1.251.332-2.045 4.772c.617.151 1.258.24 1.923.24a8 8 0 0 0 3.237-.684z" style="stroke-opacity:.550265;fill:url(#k);stroke-width:2.8"/><circle cx="643.01" cy="166.834" r="2" style="fill:#2c3e50;color:#000;stroke-linecap:round;stroke-linejoin:round;stroke-width:3" transform="rotate(37.5)"/><path d="M401.571 513.798a3 3 0 0 0-3 3 3 3 0 0 0 3 3 3 3 0 0 0 3-3 3 3 0 0 0-3-3m4 5.5a1.5 1.5 0 0 0-1.5 1.5 1.5 1.5 0 0 0 1.5 1.5 1.5 1.5 0 0 0 1.5-1.5 1.5 1.5 0 0 0-1.5-1.5" style="fill:#84cbfe;stroke-linecap:round;stroke-linejoin:round;stroke-width:2"/></g></svg>