<svg xmlns="http://www.w3.org/2000/svg" xmlns:xlink="http://www.w3.org/1999/xlink" width="128" height="128"><defs><filter id="i"><feGaussianBlur stdDeviation="1.477"/></filter><filter id="d"><feGaussianBlur stdDeviation="1.474"/></filter><filter id="b"><feGaussianBlur stdDeviation="21.031"/></filter><filter id="o"><feGaussianBlur stdDeviation="1.482"/></filter><filter id="j"><feGaussianBlur stdDeviation="1.484"/></filter><filter id="s"><feGaussianBlur stdDeviation="10.554"/></filter><linearGradient id="a"><stop offset="0"/><stop offset="1" stop-opacity="0"/></linearGradient><linearGradient xlink:href="#a" id="e" x1="447.428" x2="450.982" y1="619.264" y2="328.428" gradientUnits="userSpaceOnUse"/><linearGradient id="k" x1="-385.338" x2="-385.338" y1="374.228" y2="469.183" gradientUnits="userSpaceOnUse"><stop offset="0" stop-color="#fff" stop-opacity="0"/><stop offset="1" stop-color="#c8c8c8"/></linearGradient><linearGradient id="n" x1="-463.629" x2="-463.228" y1="707.235" y2="636.132" gradientUnits="userSpaceOnUse"><stop offset="0" stop-color="#1a1a1a"/><stop offset="1" stop-color="#5c5c5c"/></linearGradient><linearGradient id="p" x1="-458.303" x2="-455.26" y1="707.308" y2="631.751" gradientUnits="userSpaceOnUse"><stop offset="0" stop-color="#1a1a1a"/><stop offset="1" stop-color="#ccc" stop-opacity="0"/></linearGradient><radialGradient id="c" cx="442.447" cy="490.717" r="146.972" gradientTransform="matrix(.40813 1.20326 -.947 .32121 726.585 -199.287)" gradientUnits="userSpaceOnUse"><stop offset="0"/><stop offset=".5" stop-color="#666"/><stop offset="1" stop-color="#7f7f7f" stop-opacity="0"/></radialGradient><radialGradient id="f" cx="441.437" cy="485.667" r="152.634" gradientTransform="matrix(.42933 -2.28735 1.1399 .21396 -301.7 1391.476)" gradientUnits="userSpaceOnUse"><stop offset="0" stop-color="#afb5ba" stop-opacity=".961"/><stop offset="1" stop-opacity=".961"/></radialGradient><radialGradient id="q" cx="-462.158" cy="669.53" r="37.779" gradientUnits="userSpaceOnUse"><stop offset="0" stop-color="#fff"/><stop offset="1" stop-opacity="0"/></radialGradient><radialGradient id="r" cx="521.168" cy="545.93" r="146.472" gradientTransform="matrix(.63687 -.77097 1.74067 1.4379 -761.034 162.739)" gradientUnits="userSpaceOnUse"><stop offset="0" stop-color="#fff"/><stop offset=".5" stop-color="#7fccff" stop-opacity=".415"/><stop offset="1" stop-color="#009aff" stop-opacity="0"/></radialGradient></defs><path stroke="#000" stroke-linecap="round" stroke-linejoin="round" stroke-width="2" d="M4056.773 1480.667c0 579.908-470.65 1050.559-1050.56 1050.559-579.908 0-1050.558-470.65-1050.558-1050.56 0-579.907 470.65-1050.558 1050.559-1050.558s1050.558 470.65 1050.558 1050.559" filter="url(#b)" transform="translate(-108.586 -20.604)scale(.0573)"/><path fill-rule="evenodd" stroke="#000" stroke-width=".37" d="M118.001 64.185c0 29.91-24.275 54.186-54.186 54.186-29.91 0-54.186-24.275-54.186-54.186 0-29.91 24.275-54.186 54.186-54.186 29.91 0 54.186 24.275 54.186 54.186z"/><path fill="url(#c)" fill-rule="evenodd" stroke="#000" d="M587.909 485.667c0 80.852-65.62 146.472-146.472 146.472s-146.472-65.62-146.472-146.472 65.62-146.473 146.472-146.473 146.472 65.62 146.472 146.473z" transform="translate(-99.49 -115.484)scale(.36994)"/><path fill="none" stroke="#1a1a1a" stroke-width="1.777" d="M118.03 64.185c0 29.926-24.288 54.215-54.215 54.215C33.89 118.4 9.6 94.11 9.6 64.185S33.89 9.97 63.815 9.97s54.215 24.288 54.215 54.215z"/><path fill="none" stroke="#404040" stroke-width="4.809" d="M120.971 64.185c0 31.55-25.606 57.156-57.156 57.156S6.66 95.735 6.66 64.185 32.265 7.029 63.815 7.029s57.156 25.606 57.156 57.156z"/><path fill="none" stroke="#000" stroke-width="1.946" d="M587.909 485.667c0 80.852-65.62 146.472-146.472 146.472s-146.472-65.62-146.472-146.472 65.62-146.473 146.472-146.473 146.472 65.62 146.472 146.473z" filter="url(#d)" transform="translate(-101.794 -118.018)scale(.37516)"/><path fill="url(#e)" fill-rule="evenodd" d="M587.909 485.667c0 80.852-65.62 146.472-146.472 146.472s-146.472-65.62-146.472-146.472 65.62-146.473 146.472-146.473 146.472 65.62 146.472 146.473" transform="translate(-69.186 -82.142)scale(.30129)"/><g fill="none"><path stroke="#000" stroke-width=".74" d="M69.56 20.43c24.152 3.17 41.181 25.346 38.01 49.5-3.17 24.152-25.346 41.181-49.5 38.01-24.152-3.17-41.181-25.347-38.01-49.5s25.347-41.181 49.5-38.01z" opacity=".523"/><path stroke="#000" stroke-width="1.45" d="M117.844 64.185c0 29.824-24.205 54.029-54.029 54.029S9.786 94.009 9.786 64.185s24.205-54.029 54.03-54.029c29.823 0 54.028 24.205 54.028 54.029z"/><path stroke="#000" stroke-width=".889" d="M70.718 11.602c29.026 3.81 49.49 30.46 45.68 59.486s-30.46 49.49-59.486 45.68-49.49-30.46-45.68-59.486 30.46-49.49 59.486-45.68z" opacity=".523"/><path stroke="url(#f)" stroke-width="12.325" d="M587.909 485.667c0 80.852-65.62 146.472-146.472 146.472s-146.472-65.62-146.472-146.472 65.62-146.473 146.472-146.473 146.472 65.62 146.472 146.473z" transform="translate(-108.442 -125.331)scale(.39022)"/><path stroke="#000" stroke-width="2.456" d="M587.909 485.667c0 80.852-65.62 146.472-146.472 146.472s-146.472-65.62-146.472-146.472 65.62-146.473 146.472-146.473 146.472 65.62 146.472 146.473z" filter="url(#i)" opacity=".523" transform="rotate(-82.521 51.41 146.288)scale(.30453)"/><path stroke="#000" stroke-linecap="round" stroke-linejoin="round" stroke-width=".558" d="M123.628 64.233c0 33.103-26.866 59.968-59.969 59.968-33.102 0-59.968-26.865-59.968-59.968 0-33.102 26.866-59.968 59.968-59.968s59.969 26.866 59.969 59.968" opacity=".592"/><path stroke="#000" stroke-linecap="round" stroke-linejoin="round" stroke-width="3.816" d="M587.909 485.667c0 80.852-65.62 146.472-146.472 146.472s-146.472-65.62-146.472-146.472 65.62-146.473 146.472-146.473 146.472 65.62 146.472 146.473" filter="url(#j)" transform="rotate(-82.521 55.595 108.517)scale(.2288)"/><path stroke="#4d4d4d" stroke-linecap="round" stroke-linejoin="round" stroke-width="1.746" d="M69.735 20.805c23.753 3.119 40.5 24.927 37.381 48.68s-24.927 40.5-48.68 37.381-40.5-24.927-37.38-48.68c3.117-23.752 24.926-40.5 48.679-37.38"/><path stroke="#1a1a1a" stroke-linecap="round" stroke-linejoin="round" stroke-width=".873" d="M68.757 28.257c19.639 2.579 33.485 20.61 30.907 40.25-2.578 19.639-20.61 33.486-40.25 30.907-19.639-2.578-33.485-20.61-30.907-40.25 2.578-19.638 20.61-33.485 40.25-30.907"/><path stroke="#1a1a1a" stroke-linecap="round" stroke-linejoin="round" stroke-width=".873" d="M69.594 21.876c23.162 3.04 39.492 24.307 36.451 47.468s-24.306 39.493-47.468 36.452-39.492-24.307-36.451-47.469 24.306-39.492 47.468-36.451"/><path stroke="#1a1a1a" stroke-linecap="round" stroke-linejoin="round" stroke-width=".873" d="M69.383 23.488c22.272 2.924 37.974 23.373 35.05 45.645s-23.372 37.975-45.645 35.05c-22.272-2.923-37.974-23.372-35.05-45.644S47.11 20.564 69.383 23.488"/><path stroke="#1a1a1a" stroke-linecap="round" stroke-linejoin="round" stroke-width=".873" d="M69.171 25.1c21.382 2.807 36.458 22.439 33.65 43.821-2.807 21.383-22.439 36.458-43.82 33.65-21.383-2.806-36.459-22.438-33.652-43.82S47.79 22.292 69.171 25.1"/></g><path fill="url(#k)" d="M-328.636 403.09c0 30.022-25.403 54.388-56.702 54.388s-56.701-24.366-56.701-54.387 25.402-54.387 56.701-54.387c31.3 0 56.702 24.365 56.702 54.387" transform="translate(130.794 -5.842)scale(.1746)"/><path fill-rule="evenodd" stroke="#000" stroke-width=".879" d="M64.007 37.09c-14.956 0-27.096 12.14-27.096 27.095 0 14.956 12.14 27.091 27.096 27.091s27.09-12.135 27.09-27.09-12.135-27.097-27.09-27.097zm.469 19.186 5.817 3 1.95 6.257-3.006 5.822-6.251 1.944-5.822-3-1.945-6.256 3-5.823z"/><path fill="url(#n)" fill-rule="evenodd" d="M-462.154 632.248c-20.854 0-37.782 16.928-37.782 37.782 0 12.505 6.091 23.591 15.461 30.467l20.186-17.973-7.008-3.415-27.935-2.341-.235-1.131 27.544 2.29-2.555-7.42-18.606-21.937.57-.875 18.442 21.524 3.401-7.037 2.22-29.344 1.053-.1-2.092 28.79 7.99-2.754.072.035 21.215-19.992c-6.293-4.57-13.43-6.57-21.941-6.57m22.955 7.35-20.983 19.68 6.43 3.493 28.86.996c-1.523-9.534-7.088-18.643-14.307-24.168m-13.912 24.391 2.27 7.855 19.297 20.243c4.725-6.307 7.165-13.575 7.165-22.057 0-1.669-.11-3.312-.32-4.924zm1.765 9.029-3.052 6.83-2.021 27.523c9.842-1.502 18.296-6.452 24.1-14.01zm-4.226 7.2-7.393 2.69-20.592 18.273c6.234 4.536 13.109 6.624 21.403 6.624 1.568 0 3.114-.099 4.632-.285z" transform="translate(388.696 -406.824)scale(.70297)"/><path fill="none" stroke="#000" stroke-width="9.675" d="M587.909 485.667a146.472 146.472 0 1 1-292.944 0 146.472 146.472 0 1 1 292.944 0z" filter="url(#o)" opacity=".822" transform="translate(-15.85 -23.462)scale(.18047)"/><g fill-rule="evenodd"><path fill="url(#p)" d="M-462.154 631.751c-20.854 0-37.782 16.928-37.782 37.782 0 12.505 6.091 23.591 15.461 30.468l20.186-17.973-7.008-3.416-27.935-2.34-.235-1.132 27.544 2.291-2.555-7.421-18.606-21.937.57-.875 18.442 21.524 3.401-7.037 2.22-29.343 1.053-.1-2.092 28.788 7.99-2.753.072.035 21.215-19.992c-6.293-4.57-13.43-6.569-21.941-6.569m22.955 7.351-20.983 19.68 6.43 3.492 28.86.997c-1.523-9.534-7.088-18.643-14.307-24.17m-13.912 24.39 2.27 7.856 19.297 20.242c4.725-6.307 7.165-13.574 7.165-22.057 0-1.669-.11-3.312-.32-4.924zm1.765 9.029-3.052 6.831-2.021 27.522c9.842-1.502 18.296-6.452 24.1-14.01zm-4.226 7.201-7.393 2.69-20.592 18.272c6.234 4.536 13.109 6.624 21.403 6.624 1.568 0 3.114-.099 4.632-.285z" transform="translate(388.696 -406.824)scale(.70297)"/><path fill="url(#q)" d="M-462.154 631.751c-20.854 0-37.782 16.928-37.782 37.782 0 12.505 6.091 23.591 15.461 30.468l20.186-17.973-7.008-3.416-27.935-2.34-.235-1.132 27.544 2.291-2.555-7.421-18.606-21.937.57-.875 18.442 21.524 3.401-7.037 2.22-29.343 1.053-.1-2.092 28.788 7.99-2.753.072.035 21.215-19.992c-6.293-4.57-13.43-6.569-21.941-6.569m22.955 7.351-20.983 19.68 6.43 3.492 28.86.997c-1.523-9.534-7.088-18.643-14.307-24.17m-13.912 24.39 2.27 7.856 19.297 20.242c4.725-6.307 7.165-13.574 7.165-22.057 0-1.669-.11-3.312-.32-4.924zm1.765 9.029-3.052 6.831-2.021 27.522c9.842-1.502 18.296-6.452 24.1-14.01zm-4.226 7.201-7.393 2.69-20.592 18.272c6.234 4.536 13.109 6.624 21.403 6.624 1.568 0 3.114-.099 4.632-.285z" transform="translate(388.696 -406.824)scale(.70297)"/></g><path fill="none" stroke="#1a1a1a" stroke-linecap="round" stroke-linejoin="round" stroke-width=".873" d="M68.96 26.712c20.492 2.69 34.94 21.505 32.25 41.998s-21.506 34.94-41.998 32.25c-20.493-2.69-34.94-21.506-32.25-41.998 2.69-20.493 21.505-34.94 41.997-32.25"/><path fill="url(#r)" fill-rule="evenodd" d="M587.909 485.667c0 80.852-65.62 146.472-146.472 146.472s-146.472-65.62-146.472-146.472 65.62-146.473 146.472-146.473 146.472 65.62 146.472 146.473" transform="scale(-.28847 .28847)rotate(-86.657 -30.764 704.968)"/><path fill="#fff" d="m22.54 86.782-.497.252-.591-1.166-3.52 1.787 1.261.658-.552.28-1.292-.703-.273-.54 4.077-2.07-.565-1.113.497-.252zm-4.789-2.584-.693.296-.279-.653.693-.296zm2.93-1.252-.693.296-.28-.653.694-.296zm-.766-1.8-.526.184-.432-1.233-3.725 1.306 1.164.82-.585.204-1.188-.868-.2-.57 4.315-1.514-.413-1.178.526-.185zm-2.297-4.53.59-.163q.186-.052.341-.076a1.7 1.7 0 0 1 .572-.011 2 2 0 0 1 .26.056l.12.431a2 2 0 0 0-.526-.115 1.3 1.3 0 0 0-.484.04l.086.31-.769.212zM16 72.314q.321-.065.614-.02.288.045.527.215.24.166.417.468t.269.744q.09.442.048.79a1.6 1.6 0 0 1-.193.597 1.3 1.3 0 0 1-.399.41 1.7 1.7 0 0 1-.567.22 1.23 1.23 0 0 1-.92-.13 1.26 1.26 0 0 1-.522-.617l-.013.004a1.16 1.16 0 0 1-.289.744q-.135.143-.31.242-.178.096-.388.14a1.19 1.19 0 0 1-.989-.216 1.4 1.4 0 0 1-.38-.438 2.1 2.1 0 0 1-.245-.663 2.2 2.2 0 0 1-.044-.731q.04-.324.179-.558a1.1 1.1 0 0 1 .349-.38q.215-.145.479-.2a1.3 1.3 0 0 1 .79.079q.176.079.32.223.141.143.23.35l.014-.002q-.01-.225.048-.43a1.1 1.1 0 0 1 .184-.373q.124-.167.323-.29.197-.121.468-.178m-2.204 1.28a1.2 1.2 0 0 0-.335.122.63.63 0 0 0-.235.212q-.091.135-.115.325-.027.192.026.452.053.253.153.415a.8.8 0 0 0 .234.252q.135.088.301.105.167.018.356-.021.15-.03.299-.103a.75.75 0 0 0 .255-.201.8.8 0 0 0 .152-.329q.045-.2-.015-.484a1.2 1.2 0 0 0-.182-.468.7.7 0 0 0-.269-.238.66.66 0 0 0-.311-.07q-.165 0-.314.032m2.281-.602a1.2 1.2 0 0 0-.339.122.74.74 0 0 0-.264.233.86.86 0 0 0-.142.372q-.041.22.023.527.059.28.182.464.119.18.276.277.158.094.344.115.183.023.368-.016a1.5 1.5 0 0 0 .413-.145.9.9 0 0 0 .29-.25.84.84 0 0 0 .143-.371 1.5 1.5 0 0 0-.027-.508 1.4 1.4 0 0 0-.177-.476.8.8 0 0 0-.276-.278.8.8 0 0 0-.367-.102 1.7 1.7 0 0 0-.447.036m-2.3-15.413 3.435.442-.084.65-3.434-.442-.07.549-.474-.061.07-.549-.44-.057a2 2 0 0 1-.388-.09.8.8 0 0 1-.3-.185.7.7 0 0 1-.175-.32 1.2 1.2 0 0 1-.018-.487q.015-.116.042-.237.027-.126.06-.216l.495.063q-.018.06-.036.142-.021.079-.03.144a.6.6 0 0 0 .01.243.35.35 0 0 0 .096.16q.066.06.171.095.106.032.247.05l.35.045.099-.762.473.06zm.507-1.278-.529-.105.706-3.553.529.105zm1.828.364-.528-.105.706-3.554.528.105zm1.491-7.822q.37.11.645.312.274.201.433.488.155.285.18.649.028.36-.099.79a2.4 2.4 0 0 1-.29.651q-.175.259-.391.413a1.3 1.3 0 0 1-.467.207 1.7 1.7 0 0 1-.506.03l.113-.657q.152.002.305-.028a.9.9 0 0 0 .29-.12q.136-.093.25-.249.112-.16.187-.412.072-.244.057-.465a.95.95 0 0 0-.124-.405 1 1 0 0 0-.295-.326 1.5 1.5 0 0 0-.466-.22 1.2 1.2 0 0 0-.438-.05.96.96 0 0 0-.705.385q-.135.174-.208.425a1.5 1.5 0 0 0-.054.568q.017.127.055.24.036.11.082.21l-.18.615-2.6-.943.824-2.798.534.158-.655 2.224 1.534.554a1.6 1.6 0 0 1-.097-.484 1.8 1.8 0 0 1 .081-.625q.108-.366.306-.627a1.46 1.46 0 0 1 1.044-.58q.316-.03.655.07m.714-4.361q.687.27 1.107.587.416.312.62.654.2.337.205.691.006.355-.13.7a1.8 1.8 0 0 1-.381.601q-.245.253-.62.363a2.4 2.4 0 0 1-.893.053q-.52-.06-1.211-.331-.723-.284-1.144-.594-.424-.315-.617-.65a1.3 1.3 0 0 1-.186-.683q.005-.35.146-.71.135-.341.366-.594.231-.258.6-.371.369-.114.894-.056.521.056 1.244.34m-.244.62q-.57-.224-.972-.304a2 2 0 0 0-.682-.037.8.8 0 0 0-.446.2 1 1 0 0 0-.265.397 1.1 1.1 0 0 0-.084.492.85.85 0 0 0 .192.458q.172.22.524.437.35.216.916.438.549.215.952.295.404.077.686.035a.9.9 0 0 0 .458-.2 1 1 0 0 0 .271-.401q.095-.24.072-.473a.9.9 0 0 0-.2-.454 2 2 0 0 0-.526-.445 5 5 0 0 0-.896-.438m3.993-2.46-2.21-1.163a2.7 2.7 0 0 0-.443-.191.74.74 0 0 0-.331-.035.44.44 0 0 0-.252.119 1 1 0 0 0-.203.276.8.8 0 0 0-.1.37.8.8 0 0 0 .075.365q.081.174.254.34.171.159.432.297l2.02 1.063-.304.576-2.742-1.443-.23-.117a9 9 0 0 0-.524-.255l.288-.548a1 1 0 0 1 .09.04q.074.034.168.08a6 6 0 0 1 .352.168l.005-.01a2 2 0 0 1-.186-.311 1.02 1.02 0 0 1-.082-.665 1.4 1.4 0 0 1 .143-.39q.209-.395.487-.541.28-.15.672-.058l.005-.01a2 2 0 0 1-.182-.318 1.12 1.12 0 0 1-.067-.694q.037-.185.145-.392.14-.264.31-.417a.8.8 0 0 1 .385-.2q.213-.045.478.021.262.064.585.234l2.323 1.222-.302.574-2.21-1.164a2.7 2.7 0 0 0-.442-.191.74.74 0 0 0-.332-.035.44.44 0 0 0-.251.119 1 1 0 0 0-.203.276.9.9 0 0 0-.104.369.8.8 0 0 0 .07.361q.08.175.253.34.174.16.441.302l2.02 1.063zm3.216-5.317-2.037-1.445a2.7 2.7 0 0 0-.413-.249.74.74 0 0 0-.324-.078.44.44 0 0 0-.265.084 1 1 0 0 0-.237.247.8.8 0 0 0-.15.354.8.8 0 0 0 .027.372q.058.183.207.37.148.18.389.351l1.861 1.321-.377.532-2.527-1.793-.213-.147a9 9 0 0 0-.485-.322l.358-.505q.017.008.084.05l.156.102a6 6 0 0 1 .326.214l.006-.009a2 2 0 0 1-.142-.334 1.03 1.03 0 0 1 .006-.67q.06-.176.194-.366.259-.365.554-.473.297-.11.674.032l.006-.01a2 2 0 0 1-.138-.339 1.12 1.12 0 0 1 .025-.696q.06-.18.196-.37.173-.243.362-.372a.8.8 0 0 1 .409-.148q.216-.015.471.085.251.098.549.309l2.14 1.519-.375.528-2.037-1.445a2.7 2.7 0 0 0-.413-.249.74.74 0 0 0-.324-.078.44.44 0 0 0-.265.084 1 1 0 0 0-.237.247.9.9 0 0 0-.152.352.8.8 0 0 0 .02.368q.059.183.207.37.15.181.398.357l1.861 1.322zM35.71 26.6a1 1 0 0 1-.083-.075l-.129-.135-.14-.156-.119-.148-.012.01q.1.446-.065.802-.163.35-.545.643-.318.246-.654.295a1.4 1.4 0 0 1-.666-.07 2.2 2.2 0 0 1-.65-.38 4 4 0 0 1-.612-.644 4 4 0 0 1-.469-.764 2.1 2.1 0 0 1-.188-.736 1.4 1.4 0 0 1 .121-.676q.147-.322.484-.582.165-.128.345-.21.18-.084.366-.113a1.2 1.2 0 0 1 .77.133l.006-.005-.073-.088-.108-.14-.128-.16-.125-.163-.95-1.234.877-.677 3.004 3.9q.19.248.348.434l.245.285zm-1.357-1.678a2.6 2.6 0 0 0-.489-.505q-.233-.174-.435-.222a.67.67 0 0 0-.37-.003.9.9 0 0 0-.304.149.84.84 0 0 0-.25.296.7.7 0 0 0-.06.375q.021.208.143.463.124.252.363.562.886 1.149 1.576.618a.8.8 0 0 0 .22-.259.75.75 0 0 0 .087-.37q0-.215-.111-.488a2.6 2.6 0 0 0-.37-.616m.375-3.785-.447-.683.927-.607.448.683zm2.76 4.214-2.338-3.57.927-.608 2.338 3.57zm4.263-.6q-.37.203-.694.284a1.8 1.8 0 0 1-.595.058 1.26 1.26 0 0 1-.878-.457l.908-.65q.175.196.415.23a.84.84 0 0 0 .52-.12q.171-.095.287-.221a.6.6 0 0 0 .154-.301.9.9 0 0 0-.01-.392 1.8 1.8 0 0 0-.2-.502l-.108-.197a5 5 0 0 1-.098-.185l-.1-.188-.006.004q.03.455-.187.788-.214.33-.636.562-.356.197-.69.201-.334 0-.64-.156a2.1 2.1 0 0 1-.583-.458 4 4 0 0 1-.502-.723 3.7 3.7 0 0 1-.344-.828 2 2 0 0 1-.071-.749 1.4 1.4 0 0 1 .235-.634q.197-.29.57-.495t.754-.209q.384-.005.746.26l.018-.01-.088-.168-.161-.357a1 1 0 0 1-.035-.103l.92-.507a17 17 0 0 0 .455.875l1.522 2.76q.225.406.274.772.049.368-.067.695a1.7 1.7 0 0 1-.39.607 3 3 0 0 1-.695.514m-1.075-3.867a2.4 2.4 0 0 0-.393-.549 1.3 1.3 0 0 0-.387-.277.7.7 0 0 0-.366-.06.9.9 0 0 0-.32.1.84.84 0 0 0-.29.255.73.73 0 0 0-.119.358q-.015.207.062.47.078.265.257.589.333.604.696.805c.363.2.491.13.747-.011a.9.9 0 0 0 .256-.213.74.74 0 0 0 .148-.344q.034-.208-.028-.484a2.5 2.5 0 0 0-.263-.639m.958-3.654-.34-.742 1.009-.46.34.742zm2.093 4.582-1.773-3.882 1.008-.46 1.773 3.881zm5.63-2.242-2.737-1.734-.47.724.68 1.91-1.096.39-1.866-5.234 1.096-.39.846 2.373 1.514-3.215 1.278-.455-1.448 3.011 3.495 2.16zm2.91-.732q-.3.07-.557.046a1.15 1.15 0 0 1-.457-.148 1.1 1.1 0 0 1-.346-.336 1.6 1.6 0 0 1-.214-.513 1.4 1.4 0 0 1-.02-.648q.072-.283.258-.49.186-.21.469-.35a3 3 0 0 1 .62-.226l.89-.226-.05-.211a1.5 1.5 0 0 0-.13-.367.7.7 0 0 0-.175-.222.4.4 0 0 0-.223-.09.7.7 0 0 0-.267.02q-.135.03-.236.083a.44.44 0 0 0-.158.138.5.5 0 0 0-.084.21q-.02.123.002.3l-1.138.211a1.6 1.6 0 0 1 .052-.535q.07-.255.246-.47.18-.218.474-.38.297-.166.723-.268.388-.09.714-.066t.582.166q.255.139.432.389t.262.615l.357 1.512q.034.147.073.259.042.111.096.184a.3.3 0 0 0 .132.094.4.4 0 0 0 .185-.003q.123-.028.233-.079l.137.584-.163.083a2 2 0 0 1-.146.067 3 3 0 0 1-.358.112q-.408.096-.65-.057-.24-.154-.369-.533l-.023.005q-.124.439-.41.733-.284.293-.764.407m.784-2.296-.55.138a3 3 0 0 0-.324.108.7.7 0 0 0-.252.153.5.5 0 0 0-.139.235.75.75 0 0 0 .013.362q.07.296.238.41a.5.5 0 0 0 .398.056.8.8 0 0 0 .356-.177.9.9 0 0 0 .23-.297q.084-.174.105-.378a1.2 1.2 0 0 0-.025-.4zm5.119 1.134-.254-2.38a3 3 0 0 0-.083-.448 1.1 1.1 0 0 0-.147-.341.6.6 0 0 0-.225-.21.52.52 0 0 0-.307-.051.55.55 0 0 0-.296.123.8.8 0 0 0-.213.276 1.4 1.4 0 0 0-.111.405 2 2 0 0 0-.003.5l.242 2.275-1.102.117-.35-3.295q-.015-.136-.034-.282a26 26 0 0 0-.07-.508q-.015-.105-.029-.156l1.052-.112q.012.047.032.152a17 17 0 0 1 .078.475q.021.126.03.211l.016-.001q.152-.508.43-.76.285-.252.707-.297.486-.053.806.156.323.204.473.644l.024-.003q.085-.274.196-.465.114-.19.26-.313.15-.128.329-.194a1.7 1.7 0 0 1 .403-.09q.349-.037.601.063.256.099.43.303.175.204.274.494.102.291.139.636l.287 2.695-1.095.116-.253-2.38a3 3 0 0 0-.083-.448 1.1 1.1 0 0 0-.148-.341.6.6 0 0 0-.224-.21.52.52 0 0 0-.307-.051.56.56 0 0 0-.293.118.8.8 0 0 0-.21.265 1.3 1.3 0 0 0-.114.385q-.031.22-.011.485l.247 2.326zm17.104 1.151.634-2.416q.073-.278.087-.474a.74.74 0 0 0-.041-.33.44.44 0 0 0-.172-.219 1 1 0 0 0-.315-.135.83.83 0 0 0-.722.141 1.1 1.1 0 0 0-.273.324 2 2 0 0 0-.193.488l-.58 2.208-.63-.166.787-2.997q.032-.12.062-.25a9 9 0 0 0 .13-.569l.6.158a1 1 0 0 1-.018.097l-.04.181a6 6 0 0 1-.085.38l.01.003q.128-.143.262-.25a1.03 1.03 0 0 1 .629-.231q.186-.008.412.052.432.114.637.352.209.24.208.642l.01.002q.129-.142.27-.25.14-.105.305-.16.166-.058.355-.06.19-.008.415.052.29.075.477.208a.8.8 0 0 1 .282.33q.09.197.087.47-.003.27-.096.623L78.1 19.57l-.626-.165.634-2.415q.073-.279.087-.474a.74.74 0 0 0-.041-.331.44.44 0 0 0-.172-.219 1 1 0 0 0-.315-.135.9.9 0 0 0-.383-.018.8.8 0 0 0-.336.149 1.1 1.1 0 0 0-.274.323 2 2 0 0 0-.195.499l-.58 2.208zm4.678 1.534q-.554-.213-.72-.612-.167-.4.03-.91.138-.363.364-.542.23-.18.501-.229.275-.046.58.012.306.06.604.166l.83.304.078-.201a1.5 1.5 0 0 0 .101-.406.64.64 0 0 0-.047-.314.6.6 0 0 0-.193-.238 1.2 1.2 0 0 0-.329-.181 2 2 0 0 0-.33-.095.7.7 0 0 0-.283-.004.5.5 0 0 0-.239.115.8.8 0 0 0-.195.253l-.616-.304q.117-.204.281-.348.167-.147.39-.213a1.4 1.4 0 0 1 .517-.035q.294.027.668.17.694.267.92.72.23.451-.002 1.053l-.608 1.584q-.105.271-.087.439.02.163.22.24a1 1 0 0 0 .104.032q.054.014.106.021l-.147.38a2.2 2.2 0 0 1-.493-.126 1 1 0 0 1-.282-.16.5.5 0 0 1-.147-.216.7.7 0 0 1-.03-.276q.013-.156.073-.343l-.02-.008q-.168.139-.34.236a1.3 1.3 0 0 1-.367.14q-.195.039-.415.016a1.8 1.8 0 0 1-.477-.12m.316-.406q.292.113.55.09.263-.023.47-.135.21-.11.357-.28t.216-.35l.116-.302-.674-.244a3.4 3.4 0 0 0-.442-.13 1.1 1.1 0 0 0-.396-.024.7.7 0 0 0-.336.144.85.85 0 0 0-.243.367q-.114.3-.018.524.1.225.4.34m5.144 2.03q-.33.261-.673.275-.34.016-.74-.179-.67-.328-.766-.934-.094-.605.354-1.521.906-1.851 2.207-1.215.402.198.599.475.195.279.203.68l.006.003.047-.103q.035-.072.068-.15l.072-.146.048-.099.67-1.37.59.288-2.018 4.124-.12.246-.175.392-.042.101-.562-.275q.009-.036.031-.098l.06-.145.073-.167q.039-.09.081-.175zm-1.197-2.076q-.18.366-.261.65t-.064.504q.02.216.138.371a.95.95 0 0 0 .344.266q.233.113.446.125a.76.76 0 0 0 .416-.097q.204-.11.4-.352.194-.24.386-.633.184-.376.248-.665.066-.292.023-.512a.75.75 0 0 0-.185-.374 1.2 1.2 0 0 0-.367-.269.95.95 0 0 0-.41-.107.7.7 0 0 0-.38.114 1.4 1.4 0 0 0-.37.358q-.178.242-.364.62m3.772 2.11q-.16.265-.243.521-.078.255-.063.485.02.23.142.427.125.194.375.345.364.22.67.205a.85.85 0 0 0 .524-.19l.408.438a1.6 1.6 0 0 1-.321.193q-.179.084-.407.103a1.7 1.7 0 0 1-.512-.054 2.3 2.3 0 0 1-.617-.275q-.748-.45-.871-1.134-.12-.681.41-1.56.287-.474.602-.73.318-.258.648-.34.33-.081.659-.006.33.072.642.26.424.257.625.565.204.31.229.657.03.345-.097.716-.124.372-.352.752l-.045.075zm2.086.673q.275-.56.197-.94-.075-.381-.496-.636a1.2 1.2 0 0 0-.325-.132q-.178-.048-.38-.012c-.201.036-.27.084-.41.181q-.21.142-.406.44zm2.489 4.708q-.463-.371-.5-.802t.305-.857q.244-.304.513-.406a1.1 1.1 0 0 1 .547-.065q.276.04.549.189c.273.149.356.213.524.341l.699.543.134-.168q.153-.19.22-.355a.64.64 0 0 0 .052-.314.6.6 0 0 0-.112-.286 1.2 1.2 0 0 0-.257-.272 2 2 0 0 0-.286-.192.7.7 0 0 0-.268-.09.5.5 0 0 0-.263.037.8.8 0 0 0-.263.182l-.495-.477q.175-.159.375-.246.202-.09.436-.084.237.009.503.124.272.116.584.366.579.465.658.967.08.498-.324 1.001l-1.062 1.323q-.181.228-.216.392-.032.161.136.295a1 1 0 0 0 .09.063q.047.029.093.052l-.255.318a2.2 2.2 0 0 1-.431-.271 1 1 0 0 1-.22-.238.5.5 0 0 1-.074-.25.7.7 0 0 1 .055-.274q.06-.143.174-.303l-.017-.014a2 2 0 0 1-.396.12 1.3 1.3 0 0 1-.39.023 1.4 1.4 0 0 1-.402-.112 1.8 1.8 0 0 1-.417-.26m.425-.29q.244.197.496.254.258.058.489.014.233-.04.425-.158.192-.116.313-.267l.203-.253-.569-.437a3.4 3.4 0 0 0-.38-.26 1.1 1.1 0 0 0-.37-.142.7.7 0 0 0-.365.034.85.85 0 0 0-.343.276q-.2.249-.176.493.027.246.277.446m4.933 3.494a1.1 1.1 0 0 1-.42.283 1 1 0 0 1-.475.05 1.6 1.6 0 0 1-.52-.183 2.7 2.7 0 0 1-.543-.411 3.2 3.2 0 0 1-.41-.467 1.6 1.6 0 0 1-.233-.453 1.1 1.1 0 0 1-.042-.462 1.3 1.3 0 0 1 .176-.48l.497.317a.72.72 0 0 0-.07.576q.088.285.426.608.153.145.3.245.15.102.289.14a.53.53 0 0 0 .273-.002.56.56 0 0 0 .256-.163.48.48 0 0 0 .14-.269.64.64 0 0 0-.035-.3 1.8 1.8 0 0 0-.174-.346q-.112-.189-.25-.414-.127-.208-.244-.424c-.117-.216-.133-.29-.167-.437a1.1 1.1 0 0 1-.003-.435.86.86 0 0 1 .237-.418q.372-.39.842-.329.475.06 1.008.568.471.45.59.88.121.431-.154.868l-.477-.354a.6.6 0 0 0 .089-.267.65.65 0 0 0-.038-.267.9.9 0 0 0-.14-.26 1.7 1.7 0 0 0-.212-.242q-.321-.306-.567-.354a.45.45 0 0 0-.435.15.44.44 0 0 0-.127.245.7.7 0 0 0 .037.277q.055.148.16.323.106.172.238.378.086.137.172.284.088.145.154.298.07.153.108.309.043.156.033.313a.9.9 0 0 1-.077.314q-.066.159-.212.311m8.632 8.841a3.2 3.2 0 0 1-1.011.447 2.2 2.2 0 0 1-1.865-.34 2.9 2.9 0 0 1-.743-.798q-.345-.531-.44-1.039-.091-.51.034-.967.126-.46.45-.86.321-.399.807-.714.504-.327 1.002-.45.496-.123.958-.035.463.086.873.384.415.3.75.816.333.514.434 1.011.104.501-.009.956a2.3 2.3 0 0 1-.426.862q-.316.405-.814.727m-.386-.596a2.8 2.8 0 0 0 .64-.558q.255-.303.355-.646.101-.338.037-.705a2 2 0 0 0-.307-.742 2.1 2.1 0 0 0-.56-.596 1.55 1.55 0 0 0-.663-.26 1.8 1.8 0 0 0-.732.062 3 3 0 0 0-.768.362 3 3 0 0 0-.648.56q-.255.308-.366.653-.105.345-.05.719.059.373.302.749.262.404.581.608.323.209.675.244.358.037.74-.084.383-.118.764-.366m3.64 4.821q-.3.15-.611.178a1.4 1.4 0 0 1-.598-.073 1.6 1.6 0 0 1-.545-.343 2.2 2.2 0 0 1-.454-.636l-.671-1.35-1.79.89-.31-.622 4.594-2.285.961 1.933q.203.408.252.761.054.352-.029.645a1.25 1.25 0 0 1-.286.52 1.7 1.7 0 0 1-.513.382m-.318-.623q.436-.216.529-.596.094-.381-.171-.915l-.614-1.236-1.813.901.627 1.262q.269.538.63.67.365.137.812-.086m-2.5 3.156 4.81-1.786 1.355 3.649-.533.198-1.113-2.997-1.542.573 1.036 2.792-.525.195-1.037-2.792-1.676.622 1.165 3.137-.533.198zm2.487 7.92 3.575-3.72q-.171.05-.338.103-.143.044-.305.087a7 7 0 0 1-.28.077l-3.307.825-.15-.6 4.978-1.242.195.785-3.596 3.755.34-.107.319-.094q.175-.052.334-.091l3.264-.814.151.608-4.978 1.24zm2.498 7.945a1.4 1.4 0 0 1-.606-.075 1.24 1.24 0 0 1-.505-.342 2 2 0 0 1-.367-.633 3.6 3.6 0 0 1-.192-.93q-.086-.953.202-1.516.285-.563.904-.764l.194.66q-.195.068-.349.187a1 1 0 0 0-.258.308 1.5 1.5 0 0 0-.142.462q-.04.27-.008.64.027.309.1.562.078.253.203.428a.8.8 0 0 0 .305.262q.183.09.422.068a.67.67 0 0 0 .396-.152.84.84 0 0 0 .23-.342q.082-.216.126-.508t.093-.648q.028-.218.063-.44.039-.22.097-.426.063-.203.152-.386.09-.183.224-.323.138-.14.323-.23.19-.09.443-.113a1.25 1.25 0 0 1 .633.09q.275.126.465.372.19.247.297.595.108.35.145.762.042.475-.004.82-.044.343-.171.589a1.2 1.2 0 0 1-.337.402q-.206.161-.488.27l-.18-.671q.18-.067.317-.178a.8.8 0 0 0 .22-.272q.085-.164.116-.394.03-.225.004-.526a2.4 2.4 0 0 0-.118-.593 1.1 1.1 0 0 0-.205-.373.65.65 0 0 0-.276-.188.8.8 0 0 0-.321-.033.6.6 0 0 0-.368.146.9.9 0 0 0-.215.333 2.3 2.3 0 0 0-.123.468q-.043.263-.082.56-.034.24-.07.477-.035.24-.095.462a2.5 2.5 0 0 1-.146.415 1.3 1.3 0 0 1-.229.349q-.14.15-.34.246a1.4 1.4 0 0 1-.479.123m1.086 5.989q-.6-.016-1.087-.204a2.2 2.2 0 0 1-1.345-1.336 2.9 2.9 0 0 1-.16-1.08 2.9 2.9 0 0 1 .226-1.104q.213-.471.574-.779.366-.306.857-.454a3.4 3.4 0 0 1 1.071-.132q.6.017 1.08.197t.81.513q.333.333.502.811.174.483.157 1.097-.017.612-.215 1.08a2.1 2.1 0 0 1-.549.783q-.351.314-.84.47-.488.153-1.081.138m.019-.71q.463.013.844-.098.381-.105.657-.332.276-.222.43-.56.155-.339.167-.786a2.1 2.1 0 0 0-.124-.808 1.55 1.55 0 0 0-.4-.59 1.8 1.8 0 0 0-.638-.363 3 3 0 0 0-.838-.135 3 3 0 0 0-.851.093q-.385.11-.672.332-.282.225-.448.563-.162.342-.174.79-.013.48.134.83.147.354.418.583.275.234.657.35.383.119.838.13m-3.088 3.623a2.8 2.8 0 0 1 .228-.776q.167-.36.443-.609a1.7 1.7 0 0 1 .663-.359q.388-.112.886-.04l3.23.475-.1.688-3.174-.466a1.9 1.9 0 0 0-.67.005 1.2 1.2 0 0 0-.478.224q-.197.159-.312.396a2 2 0 0 0-.157.54q-.044.296-.003.57.04.275.185.498.143.224.405.376.264.156.664.215l3.126.46-.1.684-3.167-.465a2.15 2.15 0 0 1-.857-.299 1.7 1.7 0 0 1-.55-.544 1.9 1.9 0 0 1-.264-.73q-.062-.404.002-.843m-1.414 6.81 2.4-.74.411-1.545-2.058-.548.179-.672 4.957 1.319-.62 2.333a2.7 2.7 0 0 1-.297.72q-.182.3-.424.474t-.537.22q-.294.045-.625-.043a1.6 1.6 0 0 1-.446-.194 1.3 1.3 0 0 1-.362-.326 1.4 1.4 0 0 1-.227-.463 1.7 1.7 0 0 1-.047-.6l-2.51.839zm3.558.84q.226.06.412.027a.74.74 0 0 0 .334-.152q.152-.117.26-.315.114-.195.184-.463l.424-1.594-1.83-.487-.43 1.622a1.6 1.6 0 0 0-.063.518 1 1 0 0 0 .108.399q.09.17.246.28.155.112.355.166m-.592 4.656q.16-.408.148-.775a1.5 1.5 0 0 0-.18-.677 1.8 1.8 0 0 0-.479-.556 2.9 2.9 0 0 0-.74-.416 2.8 2.8 0 0 0-.835-.195 2 2 0 0 0-.745.095 1.6 1.6 0 0 0-.61.379q-.268.262-.423.659a1.8 1.8 0 0 0-.127.533q-.016.26.044.494.06.239.182.455.125.218.302.416l-.472.425a2.6 2.6 0 0 1-.373-.515 2.2 2.2 0 0 1-.225-.604 2.3 2.3 0 0 1-.04-.685q.031-.359.189-.759.226-.579.582-.945.357-.36.801-.526.447-.16.958-.128t1.05.244q.56.22.95.549.39.333.59.751.2.424.2.924.003.501-.216 1.057-.3.763-.798 1.158a1.9 1.9 0 0 1-1.18.405l.037-.694q.196-.001.394-.056.2-.054.388-.18.186-.127.349-.333.161-.203.279-.5m-5.53 1.178 4.54 2.388-1.812 3.445-.503-.265 1.488-2.829-1.456-.766-1.387 2.636-.496-.261 1.387-2.636-1.582-.833-1.558 2.962-.503-.265zm-18.057 19.921.638-.415 1.914 1.786q.078.068.185.171a30 30 0 0 0 .443.446 13 13 0 0 1-.12-.31 10 10 0 0 1-.101-.276 8 8 0 0 1-.091-.253l-.836-2.472.635-.413 3.074 2.7-.543.354-2.019-1.88a2 2 0 0 1-.156-.146l-.171-.17-.197-.202q.051.13.095.26l.076.223.063.19.878 2.656-.59.383-2.052-1.891-.163-.15-.169-.16-.186-.179a26 26 0 0 1 .256.694l.877 2.622-.537.35zm-4.762 2.522.68-.34 1.7 1.991q.07.076.165.19a30 30 0 0 0 .389.494 13 13 0 0 1-.083-.32 9 9 0 0 1-.07-.287 8 8 0 0 1-.062-.262l-.55-2.55.677-.339 2.748 3.03-.58.29-1.792-2.095a2 2 0 0 1-.138-.163l-.152-.19-.172-.222q.035.136.065.268l.05.232q.027.117.041.195l.571 2.739-.628.314-1.825-2.112-.145-.168-.15-.177-.164-.199a24 24 0 0 1 .175.718l.575 2.705-.573.286zm-5.016 1.97.714-.264 1.47 2.167q.06.082.142.207a29 29 0 0 0 .333.533q-.026-.165-.047-.328a9 9 0 0 1-.038-.292q-.021-.151-.033-.268l-.266-2.595.71-.261 2.398 3.314-.608.224-1.55-2.28a2 2 0 0 1-.12-.177l-.13-.205-.147-.24q.02.14.035.274l.025.235q.013.12.019.199l.266 2.785-.66.243-1.58-2.3-.126-.183-.271-.408a24 24 0 0 1 .096.733l.273 2.751-.601.222zm-1.336.379.218.766-.683.195-.218-.767zm-4.118 1.659q.099-.408.36-.632.258-.222.693-.316.73-.156 1.18.262.447.418.66 1.415.432 2.015-.986 2.318-.438.094-.764-.004a1.2 1.2 0 0 1-.579-.408l-.007.001.027.11q.017.078.038.16l.034.16.023.106.32 1.492-.641.137-.961-4.49-.057-.267-.104-.417-.03-.105.612-.13q.015.033.036.096.018.067.043.15l.045.177q.024.095.044.188zm2.225.894a4 4 0 0 0-.196-.673 1.4 1.4 0 0 0-.261-.435.7.7 0 0 0-.339-.207.95.95 0 0 0-.434.003 1.2 1.2 0 0 0-.428.177.76.76 0 0 0-.267.333 1.4 1.4 0 0 0-.097.524q-.004.31.087.737.087.41.215.676.129.27.298.417a.75.75 0 0 0 .377.18q.206.038.455-.016a.95.95 0 0 0 .388-.169.7.7 0 0 0 .229-.324q.075-.206.07-.51a4 4 0 0 0-.097-.713m-3.288 3.49.092.619-.648.097-.092-.62zm-.706-4.725.582 3.896-.648.097-.582-3.896zm-3.266-1.16q.337-.03.605.017t.463.161q.196.11.327.28.132.166.201.38l-.648.151a.67.67 0 0 0-.323-.392q-.237-.13-.6-.099a1.3 1.3 0 0 0-.398.097.74.74 0 0 0-.29.226.9.9 0 0 0-.166.369 1.8 1.8 0 0 0-.024.535l.055.631h.007q.06-.155.157-.302.093-.144.24-.262.144-.12.341-.201.198-.08.46-.102.373-.033.652.068.276.104.468.34.188.236.3.599.108.367.15.856.04.472-.003.856a1.8 1.8 0 0 1-.199.66 1.17 1.17 0 0 1-.422.442q-.27.166-.673.2a1.33 1.33 0 0 1-.739-.13 1.24 1.24 0 0 1-.522-.499h-.007a7 7 0 0 1 .022.59.3.3 0 0 1-.007.086l-.62.053-.003-.113a15 15 0 0 0-.023-.43l-.023-.271-.259-3q-.07-.824.3-1.272.367-.453 1.201-.524m-.692 3.59q.036.41.151.692.112.286.274.459a.91.91 0 0 0 .745.297 1 1 0 0 0 .424-.124.74.74 0 0 0 .274-.301q.1-.195.133-.494a4 4 0 0 0-.006-.701 4 4 0 0 0-.116-.71 1.3 1.3 0 0 0-.214-.45.66.66 0 0 0-.316-.228 1.1 1.1 0 0 0-.43-.04.92.92 0 0 0-.689.41 1.4 1.4 0 0 0-.199.49q-.066.293-.03.7m-1.712 2.885.015.626-.655.016-.015-.626zm-.113-4.775.093 3.938-.655.016-.093-3.939zm-4.132-.043 1.272 1.842.493-.38.048-1.401.655.022-.183 5.4-.655-.022.114-3.373L60.99 115l-.768-.026 1.655-1.638-1.605-2.302zm-2.248-.266q.59.07.85.415.26.346.195.889-.045.387-.22.615a1.1 1.1 0 0 1-.429.345q-.255.114-.565.132a4 4 0 0 1-.626-.012l-.88-.09-.025.214q-.03.243.002.418.03.177.123.293.092.118.246.183.15.07.363.095.188.021.343.01a.7.7 0 0 0 .275-.066.5.5 0 0 0 .204-.17.8.8 0 0 0 .126-.293l.673.142a1.4 1.4 0 0 1-.188.407 1 1 0 0 1-.325.302q-.205.12-.492.162-.292.045-.69 0-.737-.088-1.07-.472-.332-.38-.256-1.02l.199-1.685q.033-.29-.025-.446-.059-.154-.272-.18a1 1 0 0 0-.11-.005q-.054 0-.106.006l.048-.405a2.2 2.2 0 0 1 .51.002 1 1 0 0 1 .312.084.5.5 0 0 1 .196.174q.071.11.097.26.026.155.014.35l.021.003q.128-.175.272-.313.14-.137.32-.226.18-.085.399-.118.216-.033.491 0m-.206.47a1.24 1.24 0 0 0-.555.048 1.2 1.2 0 0 0-.422.247q-.176.159-.277.36a1.2 1.2 0 0 0-.123.392l-.038.322.714.07q.239.024.46.018.216-.005.39-.075a.7.7 0 0 0 .29-.223.85.85 0 0 0 .144-.415q.037-.318-.111-.512-.154-.195-.472-.232m-5.166-1.284-.564 2.433a2.7 2.7 0 0 0-.073.477.74.74 0 0 0 .05.33q.055.134.18.212a1 1 0 0 0 .318.126.8.8 0 0 0 .384.003.8.8 0 0 0 .334-.165q.147-.123.263-.332.112-.205.178-.493l.515-2.224.635.147-.699 3.019q-.028.12-.055.252a8 8 0 0 0-.113.572l-.603-.14q0-.018.015-.097t.035-.183a6 6 0 0 1 .073-.382l-.01-.003a2 2 0 0 1-.255.259 1.02 1.02 0 0 1-.622.248 1.4 1.4 0 0 1-.413-.04q-.436-.1-.648-.332-.215-.234-.226-.636l-.01-.002q-.124.147-.262.257t-.301.17q-.164.062-.353.07a1.5 1.5 0 0 1-.417-.04 1.5 1.5 0 0 1-.482-.193.8.8 0 0 1-.291-.322 1.1 1.1 0 0 1-.101-.468 2.6 2.6 0 0 1 .077-.625l.592-2.558.632.147-.564 2.433a2.7 2.7 0 0 0-.073.476.74.74 0 0 0 .051.33q.054.135.179.213a1 1 0 0 0 .318.126.9.9 0 0 0 .383.007.8.8 0 0 0 .332-.159q.148-.123.264-.331.113-.21.18-.504l.515-2.224zm-3.96-1.072-.247.758-.675-.22.247-.758zm-5.625.007q.385-.96.996-1.26.61-.3 1.415.022.382.153.637.389.255.235.369.556.111.319.08.718-.035.402-.229.885-.758 1.893-2.397 1.236a2.2 2.2 0 0 1-.686-.413 1.3 1.3 0 0 1-.365-.558 1.6 1.6 0 0 1-.057-.709q.048-.392.237-.866m.64.256a3.3 3.3 0 0 0-.215.73q-.046.303.015.52.06.216.216.353.155.141.385.233.233.093.45.099a.76.76 0 0 0 .413-.11q.198-.112.38-.361.18-.25.346-.666.17-.427.209-.736.037-.308-.026-.524a.8.8 0 0 0-.214-.356 1.2 1.2 0 0 0-.361-.224 1.4 1.4 0 0 0-.449-.105.77.77 0 0 0-.414.105q-.198.112-.382.364a3.2 3.2 0 0 0-.354.678m-.653-2.458-1.32 2.719-.106.227a9 9 0 0 0-.198.434l-.076.174-.557-.27.078-.177q.04-.099.085-.202.043-.105.09-.2.04-.093.072-.158l-.013-.007q-.16.174-.301.287a1 1 0 0 1-.286.165.64.64 0 0 1-.296.034 1 1 0 0 1-.473-.185 1 1 0 0 1-.092-.068l.262-.541q.05.045.127.09.073.048.172.095a.7.7 0 0 0 .392.077.8.8 0 0 0 .356-.143 1.4 1.4 0 0 0 .319-.322q.15-.203.279-.468l.896-1.847zm-2.747-3.173q.292.17.486.36.192.191.288.397.097.203.11.416a1.2 1.2 0 0 1-.054.427l-.618-.247a.67.67 0 0 0-.04-.506q-.122-.242-.437-.424a1.3 1.3 0 0 0-.381-.148.74.74 0 0 0-.368.02.9.9 0 0 0-.347.207 1.8 1.8 0 0 0-.325.426l-.316.55.006.003q.138-.093.302-.158.158-.065.347-.078.185-.015.394.03.208.048.435.179.325.188.497.429.166.243.19.546.018.3-.097.663-.12.363-.366.789a4.3 4.3 0 0 1-.491.7 1.8 1.8 0 0 1-.541.428 1.17 1.17 0 0 1-.6.122 1.5 1.5 0 0 1-.666-.22 1.33 1.33 0 0 1-.532-.53 1.24 1.24 0 0 1-.143-.708l-.006-.003a7 7 0 0 1-.32.496.3.3 0 0 1-.054.066l-.54-.311q.02-.028.063-.094a15 15 0 0 0 .227-.365l.136-.237 1.503-2.61q.413-.716.973-.872.56-.161 1.285.257m-2.62 2.55a2.4 2.4 0 0 0-.272.654q-.07.3-.038.533a.91.91 0 0 0 .442.67q.218.125.42.141a.74.74 0 0 0 .396-.09q.195-.105.391-.33.193-.225.396-.579.213-.369.311-.648.094-.279.081-.492a.66.66 0 0 0-.128-.368 1.1 1.1 0 0 0-.331-.278.92.92 0 0 0-.8-.057q-.22.083-.442.287c-.222.204-.29.321-.426.557"/><path d="M4056.773 1480.667c0 579.908-470.65 1050.559-1050.56 1050.559-579.908 0-1050.558-470.65-1050.558-1050.56 0-579.907 470.65-1050.558 1050.559-1050.558s1050.558 470.65 1050.558 1050.559" style="opacity:.3;fill:none;stroke:#fff;stroke-width:9.774646;stroke-linecap:round;stroke-linejoin:round;filter:url(#s)" transform="matrix(.05675 0 0 .05665 -107.082 -19.188)"/><path fill="url(#r)" fill-rule="evenodd" d="M587.909 485.667c0 80.852-65.62 146.472-146.472 146.472s-146.472-65.62-146.472-146.472 65.62-146.473 146.472-146.473 146.472 65.62 146.472 146.473" opacity=".6" transform="scale(.28847 -.28847)rotate(3.343 12436.628 -3624.85)"/></svg>