<svg width="86" height="96.09" viewBox="0 0 22.754 25.424" xmlns="http://www.w3.org/2000/svg"><path d="M84.667 57.68c-.483 0-.957.126-1.375.368l-8.628 4.98a2.75 2.75 0 0 0-1.374 2.382v9.962c0 .983.523 1.89 1.374 2.382l8.628 4.98a2.75 2.75 0 0 0 2.75 0l8.627-4.98a2.75 2.75 0 0 0 1.375-2.382V65.41a2.75 2.75 0 0 0-1.375-2.381l-8.628-4.981a2.75 2.75 0 0 0-1.374-.369z" style="display:inline;fill:#f0e2d1;fill-opacity:1;stroke-width:5.25484;stroke-linecap:round;stroke-linejoin:round" transform="translate(-73.29 -57.68)"/><path d="M84.507 58.632a.915.915 0 0 0-.299.109l-8.343 4.817a.306.306 0 0 0 0 .53l8.343 4.816a.916.916 0 0 0 .917 0l8.344-4.817a.305.305 0 0 0 0-.53l-8.344-4.816a.917.917 0 0 0-.618-.11zm-9.906 7.252a.306.306 0 0 0-.253.301v9.635c0 .327.175.63.458.794l8.344 4.817a.306.306 0 0 0 .458-.265v-9.635a.916.916 0 0 0-.458-.793l-8.344-4.817a.306.306 0 0 0-.205-.037zm20.132 0a.306.306 0 0 0-.206.037l-8.344 4.817a.917.917 0 0 0-.458.793v9.635c0 .235.255.382.458.265l8.344-4.818a.917.917 0 0 0 .458-.793v-9.635a.305.305 0 0 0-.252-.3z" style="display:inline;fill:#4f433c;fill-opacity:1;stroke-width:5.25484;stroke-linecap:round;stroke-linejoin:round" transform="translate(-73.29 -57.68)"/><g style="display:inline;fill:#f0e2d1;fill-opacity:1"><g style="font-weight:700;font-size:24px;font-family:Heebo;-inkscape-font-specification:'Heebo Bold';text-align:center;text-anchor:middle;white-space:pre;shape-inside:url(#a);fill:#f0e2d1;fill-opacity:1;stroke-width:12;stroke-linecap:round;stroke-linejoin:round" transform="matrix(.26458 0 0 .26458 30.246 -53.6)"><path d="m-60.654 264.152 6.68-1.218-6.68 6.563v3.91l10.23-10.818v-3.342l-10.23.994zm21.679 1.691v-3.193l-10.675 6.163v3.194z" aria-label="&gt;_" style="fill:#f0e2d1;fill-opacity:1"/></g><g style="font-weight:700;font-size:24px;font-family:Heebo;-inkscape-font-specification:'Heebo Bold';text-align:center;text-anchor:middle;white-space:pre;shape-inside:url(#a);fill:#f0e2d1;fill-opacity:1;stroke-width:12;stroke-linecap:round;stroke-linejoin:round" transform="matrix(.26458 0 0 .26458 18.869 -53.6)"><path d="m-60.654 251.635 6.68 6.495-6.68-1.15v3.91l10.23.995v-3.342l-10.23-10.818zm21.679 26.725v-3.194l-10.675-6.163v3.193z" aria-label="&gt;_" style="fill:#f0e2d1;fill-opacity:1"/></g><g style="font-weight:700;font-size:24px;font-family:Heebo;-inkscape-font-specification:'Heebo Bold';text-align:center;text-anchor:middle;white-space:pre;shape-inside:url(#a);fill:#f0e2d1;fill-opacity:1;stroke-width:12;stroke-linecap:round;stroke-linejoin:round" transform="matrix(.26458 0 0 .26458 24.557 -63.453)"><path d="m-65.113 266.726 8.965-2.537-4.336 5.21 3.386 1.955 5.977-8.362-2.895-1.672-14.484 3.45zm33.984-5.412-2.766-1.597-10.675 6.163 2.765 1.597z" aria-label="&gt;_" style="fill:#f0e2d1;fill-opacity:1"/></g></g></svg>