<svg xmlns="http://www.w3.org/2000/svg" xmlns:xlink="http://www.w3.org/1999/xlink" width="64" height="64"><defs><linearGradient id="e"><stop offset="0" style="stop-color:#000;stop-opacity:1"/><stop offset="1" style="stop-color:#000;stop-opacity:0"/></linearGradient><linearGradient id="d"><stop offset="0" style="stop-color:#1d5e8c;stop-opacity:1"/><stop offset="1" style="stop-color:#2675a7;stop-opacity:1"/></linearGradient><linearGradient id="c"><stop offset="0" style="stop-color:#f5f5f5;stop-opacity:1"/><stop offset="1" style="stop-color:#f9f9f9;stop-opacity:1"/></linearGradient><linearGradient id="b"><stop offset="0" style="stop-color:#fff;stop-opacity:1"/><stop offset="1" style="stop-color:#fff;stop-opacity:.48760331"/></linearGradient><linearGradient xlink:href="#a" id="h" x1="434.162" x2="397.228" y1="548.886" y2="495.308" gradientTransform="matrix(1 0 0 .99967 -384.571 -483.622)" gradientUnits="userSpaceOnUse"/><linearGradient id="a"><stop style="stop-color:#127bdc;stop-opacity:1"/><stop offset="1" style="stop-color:#64b4f4;stop-opacity:1"/></linearGradient><linearGradient xlink:href="#b" id="i" x1="390.571" x2="442.571" y1="498.298" y2="498.298" gradientTransform="translate(0 3)" gradientUnits="userSpaceOnUse"/><linearGradient xlink:href="#c" id="g" x1="396.571" x2="426.571" y1="498.798" y2="511.798" gradientTransform="translate(0 1)" gradientUnits="userSpaceOnUse"/><linearGradient xlink:href="#d" id="f" x1="388.571" x2="416.571" y1="487.798" y2="507.798" gradientUnits="userSpaceOnUse"/><linearGradient xlink:href="#e" id="j" x1="443.571" x2="443.571" y1="510.798" y2="526.798" gradientTransform="translate(-23 5)" gradientUnits="userSpaceOnUse"/></defs><g transform="translate(-384.571 -483.798)"><path d="M388.571 489.798v27c0 .554.446 1 1 1h54c.554 0 1-.446 1-1v-21.99l-.002-.01h.002v-1h-28l-4-4z" style="fill:url(#f);fill-opacity:1"/><rect width="52" height="15" x="390.571" y="498.798" rx="1" ry="1" style="color:#000;clip-rule:nonzero;display:inline;overflow:visible;visibility:visible;opacity:1;isolation:auto;mix-blend-mode:normal;color-interpolation:sRGB;color-interpolation-filters:linearRGB;solid-color:#000;solid-opacity:1;fill:url(#g);fill-opacity:1;fill-rule:nonzero;stroke:none;stroke-width:1;stroke-linecap:butt;stroke-linejoin:miter;stroke-miterlimit:4;stroke-dasharray:none;stroke-dashoffset:0;stroke-opacity:1;marker:none;color-rendering:auto;image-rendering:auto;shape-rendering:auto;text-rendering:auto"/><path d="m26 24-4 4H3v1h.002L3 29.012V57c0 .554.446 1 1 1h56c.554 0 1-.446 1-1V24z" style="fill:url(#h)" transform="translate(384.571 483.798)"/><path d="M387.571 511.798v1h20l3-5-4 4z" style="opacity:.3;fill:#fff;fill-opacity:1;fill-rule:evenodd"/><path d="m28 6 3 5h29v-1H32z" style="fill:#fff;fill-opacity:1;fill-rule:evenodd;opacity:.3" transform="translate(384.571 483.798)"/><path d="M391.571 498.798c-.554 0-1 .446-1 1v1c0-.554.446-1 1-1h50c.554 0 1 .446 1 1v-1c0-.554-.446-1-1-1z" style="color:#000;clip-rule:nonzero;display:inline;overflow:visible;visibility:visible;opacity:.85;isolation:auto;mix-blend-mode:normal;color-interpolation:sRGB;color-interpolation-filters:linearRGB;solid-color:#000;solid-opacity:1;fill:url(#i);fill-opacity:1;fill-rule:nonzero;stroke:none;stroke-width:1;stroke-linecap:butt;stroke-linejoin:miter;stroke-miterlimit:4;stroke-dasharray:none;stroke-dashoffset:0;stroke-opacity:1;marker:none;color-rendering:auto;image-rendering:auto;shape-rendering:auto;text-rendering:auto"/><path d="M388.571 541.798c-.554 0-1-.446-1-1v-1c0 .554.446 1 1 1h56c.554 0 1-.446 1-1v1c0 .554-.446 1-1 1z" style="color:#000;clip-rule:nonzero;display:inline;overflow:visible;visibility:visible;opacity:.3;isolation:auto;mix-blend-mode:normal;color-interpolation:sRGB;color-interpolation-filters:linearRGB;solid-color:#000;solid-opacity:1;fill:#000;fill-opacity:1;fill-rule:nonzero;stroke:none;stroke-width:1;stroke-linecap:butt;stroke-linejoin:miter;stroke-miterlimit:4;stroke-dasharray:none;stroke-dashoffset:0;stroke-opacity:1;marker:none;color-rendering:auto;image-rendering:auto;shape-rendering:auto;text-rendering:auto"/><path d="M387.571 512.798h20l3-5h35v33h-30z" style="opacity:.109;fill:url(#j);fill-opacity:1;fill-rule:evenodd;stroke:none;stroke-width:1px;stroke-linecap:butt;stroke-linejoin:miter;stroke-opacity:1"/></g></svg>