<svg xmlns="http://www.w3.org/2000/svg" xmlns:xlink="http://www.w3.org/1999/xlink" width="64" height="64" viewBox="0 0 32 32"><defs><clipPath id="aR"><path d="M166.826 402.017c5.768-17.646 7.956-49.126 24.83-49.126q1.928.001 3.886.374c-15.34 3.576-17.16 34.714-26.52 50.838a73 73 0 0 1-2.197-2.086"/></clipPath><clipPath id="aS"><path d="M195.484 352.88h-28.716v51.212h28.716z"/></clipPath><clipPath id="aT"><path d="M195.484 404.093V352.88h-28.716v51.212h28.716z"/></clipPath><clipPath id="aV"><path d="M169.023 404.103c9.36-16.124 11.178-47.262 26.52-50.838 1.203.222 2.413.556 3.623.98-13.77 6.747-17.576 36.98-28.205 51.537a55 55 0 0 1-1.937-1.678"/></clipPath><clipPath id="aW"><path d="M199.257 353.196h-30.14v52.517h30.14z"/></clipPath><clipPath id="aX"><path d="M199.257 405.713v-52.517h-30.14v52.517z"/></clipPath><clipPath id="b"><path d="M141.147 415.526h89.5v-31.384h-89.5z"/></clipPath><clipPath id="c"><path d="M140.174 416.526h91.464v-33.374h-91.464z"/></clipPath><clipPath id="d"><path d="M141.147 384.142h89.48v31.373h-89.48z"/></clipPath><clipPath id="e"><path d="M141.147 415.526h89.5v-31.384h-89.5z"/></clipPath><clipPath id="f"><path d="M141.147 384.142h89.48v31.373h-89.48z"/></clipPath><clipPath id="g"><path d="M141.162 415.515h89.462v-31.373h-89.462z"/></clipPath><clipPath id="h"><path d="M230.638 384.152h-89.464v31.374h89.464z"/></clipPath><clipPath id="i"><path d="M230.638 415.526v-31.374h-89.464v31.374z"/></clipPath><clipPath id="ba"><path d="M185.528 413.668h28.657V360.46h-28.657v53.207z"/></clipPath><clipPath id="bb"><path d="M185.532 360.462h28.6v53.206h-28.6z"/></clipPath><clipPath id="bc"><path d="m209.912 360.462 4.235 3.7c-5.864 17.564-7.963 49.496-24.955 49.496a20 20 0 0 1-3.664-.343c15.477-3.846 17.46-37.523 24.384-52.863"/></clipPath><clipPath id="bd"><path d="M185.566 413.666h28.62V360.46h-28.62v53.205z"/></clipPath><clipPath id="be"><path d="M185.566 360.46v53.205h28.62V360.46z"/></clipPath><clipPath id="k"><path d="M141.147 415.526h89.5v-31.384h-89.5z"/></clipPath><clipPath id="l"><path d="M140.174 416.526h91.464v-33.374h-91.464z"/></clipPath><clipPath id="m"><path d="M141.147 384.142h89.48v31.373h-89.48z"/></clipPath><clipPath id="n"><path d="M141.147 415.526h89.5v-31.384h-89.5z"/></clipPath><clipPath id="o"><path d="M141.147 384.142h89.48v31.373h-89.48z"/></clipPath><clipPath id="p"><path d="M141.162 415.515h89.462v-31.373h-89.462z"/></clipPath><clipPath id="q"><path d="M230.638 384.152h-89.464v31.374h89.464z"/></clipPath><clipPath id="r"><path d="M230.638 415.526v-31.374h-89.464v31.374z"/></clipPath><clipPath id="bh"><path d="M182.5 413.692h6.682v-.367H182.5z"/></clipPath><clipPath id="bi"><path d="M182.52 413.325h6.668v.367h-6.668z"/></clipPath><clipPath id="bj"><path d="M181.57 412.222c13.863-7.25 15.067-40.086 26.13-53.42q1.111.784 2.2 1.66c-6.923 15.34-8.905 49.02-24.38 52.863-1.322-.246-2.64-.6-3.96-1.103"/></clipPath><clipPath id="bk"><path d="M209.982 358.734h-28.34v54.526h28.34z"/></clipPath><clipPath id="bl"><path d="M209.982 413.26v-54.526h-28.34v54.526z"/></clipPath><clipPath id="bn"><path d="M170.96 405.78c10.63-14.556 14.435-44.8 28.205-51.537 2.83.998 5.678 2.532 8.535 4.557-11.063 13.335-12.267 46.17-26.13 53.42-3.52-1.308-7.054-3.488-10.6-6.44"/></clipPath><clipPath id="bo"><path d="M207.683 354.228h-36.74v57.98h36.74z"/></clipPath><clipPath id="bp"><path d="M207.683 412.207v-57.98h-36.74v57.98z"/></clipPath><clipPath id="s"><path d="M107.023 417.34h89.588v-76.127h-89.588z"/></clipPath><clipPath id="t"><path d="M106.14 418.335h91.47v-78.123h-91.47z"/></clipPath><clipPath id="u"><path d="M107.028 341.218h89.456v76.12h-89.456z"/></clipPath><clipPath id="v"><path d="M107.023 417.34h89.588v-76.127h-89.588z"/></clipPath><clipPath id="w"><path d="M107.028 341.218h89.456v76.12h-89.456z"/></clipPath><clipPath id="x"><path d="M196.495 341.218h-89.472v76.12h89.472z"/></clipPath><clipPath id="y"><path d="M107.14 417.335h89.47v-76.122h-89.47z"/></clipPath><clipPath id="z"><path d="M107.14 341.213v76.123h89.47v-76.123z"/></clipPath><clipPath id="bs"><path d="M154.597 406.73h12.227v-19.47h-12.227z"/></clipPath><clipPath id="bt"><path d="M154.605 387.26h12.206v19.472h-12.206z"/></clipPath><clipPath id="B"><path d="M204.64 416.495h89.5v-54.65h-89.5z"/></clipPath><clipPath id="C"><path d="M203.64 417.495h91.47v-56.65h-91.47z"/></clipPath><clipPath id="D"><path d="M204.647 361.844h89.482v54.648h-89.482z"/></clipPath><clipPath id="E"><path d="M204.64 416.495h89.5v-54.65h-89.5z"/></clipPath><clipPath id="F"><path d="M204.647 361.844h89.482v54.648h-89.482z"/></clipPath><clipPath id="G"><path d="M204.657 416.492h89.47v-54.648h-89.47z"/></clipPath><clipPath id="H"><path d="M294.1 361.846h-89.47v54.65h89.47z"/></clipPath><clipPath id="I"><path d="M294.1 416.495v-54.65h-89.47v54.65z"/></clipPath><clipPath id="bv"><path d="M221.458 415.068h49.877v-62.164h-49.877z"/></clipPath><clipPath id="bw"><path d="M221.504 352.904h49.826v62.132h-49.826z"/></clipPath><clipPath id="bx"><path d="M262.806 415.036c-7.84-30.236-24.22-54.525-37.95-60.648l-.023-.01a22 22 0 0 0-.742-.316c-.032-.01-.062-.024-.1-.036-.07-.03-.14-.052-.2-.08-.033-.008-.064-.025-.093-.037l-.345-.123-.14-.048c-.053-.014-.1-.038-.17-.056-.05-.022-.105-.037-.163-.058-.05-.015-.102-.027-.146-.048-.1-.03-.194-.054-.294-.087-.043-.01-.08-.025-.124-.035-.062-.018-.133-.035-.198-.053-.048-.012-.086-.025-.134-.035-.07-.023-.148-.04-.216-.058l-.264-.055a5.5 5.5 0 0 1 1.964-.347c13.022 0 26.147 23.333 47.87 62.132h-8.53z"/></clipPath><clipPath id="by"><path d="M221.457 415.068h49.83v-62.132h-49.83z"/></clipPath><clipPath id="bz"><path d="M221.458 352.935v62.133h49.83v-62.133z"/></clipPath><clipPath id="K"><path d="M85.885 420.357h89.473v-76.144H85.885z"/></clipPath><clipPath id="L"><path d="M84.892 421.33h91.466v-78.117H84.892z"/></clipPath><clipPath id="M"><path d="M85.887 344.24h89.457v76.116H85.887z"/></clipPath><clipPath id="N"><path d="M85.885 420.357h89.473v-76.144H85.885z"/></clipPath><clipPath id="O"><path d="M85.887 344.24h89.457v76.116H85.887z"/></clipPath><clipPath id="P"><path d="M175.35 344.24H85.885v76.116h89.466V344.24z"/></clipPath><clipPath id="Q"><path d="M85.892 420.33h89.466v-76.117H85.892z"/></clipPath><clipPath id="R"><path d="M85.892 344.213v76.118h89.467v-76.118z"/></clipPath><clipPath id="bC"><path d="M111.2 413.692h45.352V351.26H111.2z"/></clipPath><clipPath id="bD"><path d="M111.217 351.26h45.347v62.434h-45.347z"/></clipPath><clipPath id="bE"><path d="M120.886 365.985c13.37 25.763 19.705 42.07 30.884 46.48-11.526-4.512-24.5-21.528-30.884-46.48"/></clipPath><clipPath id="bF"><path d="M120.87 412.433h30.885V365.95H120.87z"/></clipPath><clipPath id="bG"><path d="M120.87 365.952v46.48h30.885v-46.48z"/></clipPath><clipPath id="T"><path d="M64.298 437.096h135.628v-137.4H64.298z"/></clipPath><clipPath id="U"><path d="M63.298 438.096h137.628v-139.4H63.298z"/></clipPath><clipPath id="V"><path d="M98.22 328.665h67.698v79.73H98.22z"/></clipPath><clipPath id="W"><path d="M64.298 437.096h135.628v-137.4H64.298z"/></clipPath><clipPath id="X"><path d="M98.22 328.665h67.698v79.73H98.22z"/></clipPath><clipPath id="Y"><path d="m98.234 346.8 32.406-18.126 35.3 61.6-32.403 18.132-35.294-61.605z"/></clipPath><clipPath id="Z"><path d="m199.926 389.262-50.094-89.575-85.534 47.834 50.093 89.575z"/></clipPath><clipPath id="aa"><path d="m199.926 389.262-50.093-89.575-85.535 47.834 50.093 89.575z"/></clipPath><clipPath id="bJ"><path d="M125.885 387.26h28.722V351.3h-28.722v35.97z"/></clipPath><clipPath id="bK"><path d="M125.895 351.3h28.7v35.97h-28.7z"/></clipPath><clipPath id="bL"><path d="m126.956 351.382-.242-.028c-.02-.004-.032-.004-.047-.007l-.206-.02-.033-.003-.493-.035h-.05c13.532.38 19.718 7.154 22.785 16.98l5.93 19c-5.668-7.977-11.362-17.484-17.087-28.14-2.76-5.135-6.96-7.28-10.557-7.737"/></clipPath><clipPath id="bM"><path d="M125.894 387.258h28.714v-35.97h-28.714z"/></clipPath><clipPath id="bN"><path d="M125.893 351.287v35.97h28.714v-35.97z"/></clipPath><clipPath id="bP"><path d="M126.956 351.387v-.005c3.598.458 7.798 2.6 10.557 7.737 5.725 10.65 11.422 20.163 17.082 28.14 2.062 6.468 3.76 11.417 5.43 15.182-11.286-10.742-22.617-28.606-33.068-51.054"/></clipPath><clipPath id="bQ"><path d="M127.028 402.367h33.068v-51.06h-33.068z"/></clipPath><clipPath id="bR"><path d="M127.028 351.307v51.06h33.068v-51.06z"/></clipPath><clipPath id="bT"><path d="M156.1 413.58c-.04-.008-.07-.01-.1-.013a2 2 0 0 0-.188-.028l-.113-.012-.2-.035-.088-.01-.435-.077q-.028-.006-.05-.008l-.2-.04-.106-.03-.205-.04-.096-.023-.717-.186c-.02-.008-.053-.014-.083-.025-.07-.017-.14-.042-.216-.066l-.098-.027-.215-.065c-.026-.007-.05-.02-.075-.02l-.497-.172-.24-.086-.096-.04a1.4 1.4 0 0 1-.2-.075c-.023-.012-.052-.022-.07-.035-11.18-4.412-17.514-20.718-30.884-46.48a124 124 0 0 1-2.819-14.716h.717l6.663.01h.063l.425.01.493.035.03.003q.106.014.206.02l.05.007c.073.007.16.016.242.028v.005c10.45 22.448 21.782 40.312 33.068 51.054 1.242 2.813 2.464 4.96 3.805 6.585-.785 1.326-1.642 2.43-2.6 3.236-.01.005-.02.008-.028.018a2 2 0 0 0-.158.075 3 3 0 0 1-.158.081c-.05.02-.106.047-.154.075a1 1 0 0 0-.18.08c-.05.016-.093.04-.14.06a6 6 0 0 0-.297.123l-.126.05a2 2 0 0 0-.22.087c-.038.01-.078.026-.12.038l-.304.106c-.017.005-.023.005-.027.01-.12.037-.235.067-.355.1-.028.013-.05.018-.08.026-.106.028-.2.058-.296.084a.4.4 0 0 0-.07.016 9 9 0 0 1-.744.163c-.023.002-.053.01-.078.016l-.322.05c-.02.01-.04.01-.063.014l-.383.05q-.03.006-.067.008c-.1.016-.196.023-.292.032-.163-.012-.316-.027-.47-.042"/></clipPath><clipPath id="bU"><path d="m119.313 343.45-12.043 68.3 55.044 9.705 12.043-68.3-55.044-9.706z"/></clipPath><clipPath id="bV"><path d="m119.313 343.45-12.043 68.3 55.043 9.706 12.043-68.3z"/></clipPath><clipPath id="bX"><path d="m232.177 398.296-6.468-20.63c7.06 9.714 14.012 21.93 20.63 36.033-7.72-2.427-11.84-7.976-14.163-15.402"/></clipPath><clipPath id="bY"><path d="M225.748 413.707h20.63v-36.032h-20.63z"/></clipPath><clipPath id="bZ"><path d="M225.748 377.675v36.033h20.63v-36.033z"/></clipPath><clipPath id="ac"><path d="M207.146 420.525h89.495v-31.198h-89.495z"/></clipPath><clipPath id="ad"><path d="M206.17 421.525h91.47V388.35h-91.47v33.176z"/></clipPath><clipPath id="ae"><path d="M207.146 389.327h89.48v31.176h-89.48z"/></clipPath><clipPath id="ak"><path d="M207.146 420.525h89.495v-31.198h-89.495z"/></clipPath><clipPath id="al"><path d="M207.146 389.327h89.48v31.176h-89.48z"/></clipPath><clipPath id="am"><path d="M207.146 420.503h89.472v-31.176h-89.472z"/></clipPath><clipPath id="an"><path d="M296.64 389.35h-89.47v31.176h89.47z"/></clipPath><clipPath id="ao"><path d="M296.64 420.525V389.35h-89.47v31.176h89.47z"/></clipPath><clipPath id="cc"><path d="M214.456 421.616h58.7v-73.628h-58.7z"/></clipPath><clipPath id="cd"><path d="M224.852 354.388h37.957v60.648h-37.957z"/></clipPath><clipPath id="ce"><path d="m225.933 354.903-1.076-.515c13.73 6.123 30.108 30.412 37.95 60.648h-1.6c-18.014-32.18-23.808-53.72-35.283-60.133"/></clipPath><clipPath id="cf"><path d="m273.147 413.298-11.516-65.3-47.175 8.318 11.516 65.3z"/></clipPath><clipPath id="cg"><path d="m273.147 413.298-11.516-65.3-47.175 8.318 11.516 65.3z"/></clipPath><clipPath id="ci"><path d="M256.184 415.036h-6.678q-.336-.002-.665-.008l-.628-.007h-.015l-1.267-.06-.6-1.262c-6.62-14.102-13.572-26.32-20.63-36.033-3.32-10.214-5.754-16.413-8.74-20.06 1.278-2.177 2.76-3.708 4.53-4.36.052.017.092.024.137.033q.015.009.03.007c.03.005.063.018.095.02.073.017.15.033.22.058l.134.035c.065.018.136.035.198.05.04.018.08.027.124.037.103.033.195.055.294.087q.066.03.146.048c.055.02.113.036.163.06.06.018.118.03.17.053a1 1 0 0 1 .14.053c.115.04.228.075.347.12.03.01.06.028.093.034.07.03.143.05.2.084.028.01.058.023.1.033a22 22 0 0 1 .742.316 21 21 0 0 1 1.096.525c11.478 6.412 17.272 27.952 35.286 60.133h-5.032z"/></clipPath><clipPath id="cj"><path d="M261.187 353.24h-44.25v61.8h44.25z"/></clipPath><clipPath id="ck"><path d="M261.187 415.03v-61.8h-44.25v61.8z"/></clipPath><clipPath id="aq"><path d="M143.566 416.188h37.986v-8.76h-37.986z"/></clipPath><clipPath id="ar"><path d="M142.566 417.18h39.976v-10.752h-39.976z"/></clipPath><clipPath id="as"><path d="M143.568 407.435h37.98v8.753h-37.98z"/></clipPath><clipPath id="at"><path d="M143.566 416.188h37.986v-8.76h-37.986z"/></clipPath><clipPath id="au"><path d="M143.568 407.435h37.98v8.753h-37.98z"/></clipPath><clipPath id="av"><path d="M181.552 407.435h-37.976v8.753h37.976z"/></clipPath><clipPath id="aw"><path d="M143.566 416.18h37.976v-8.753h-37.976z"/></clipPath><clipPath id="ax"><path d="M143.566 407.428v8.752h37.976v-8.752z"/></clipPath><clipPath id="cn"><path d="M154.208 420.9h30.08v-18.168h-30.08z"/></clipPath><clipPath id="co"><path d="M155.173 407.816h27.347v5.876h-27.347z"/></clipPath><clipPath id="cp"><path d="m156.56 413.622 1.087.046c3.112 0 5.8-.963 8.192-2.65 2.515 1.98 5.553 2.674 9.773 2.674h-20.437c.47 0 .932-.026 1.385-.07"/></clipPath><clipPath id="cq"><path d="m158.155 420.9 18.385-7.625-3.947-9.516-18.385 7.626z"/></clipPath><clipPath id="cr"><path d="m158.155 420.9 18.385-7.626-3.947-9.516-18.385 7.626z"/></clipPath><clipPath id="ct"><path d="M175.613 413.692c-4.22 0-7.258-.693-9.773-2.674a19 19 0 0 0 2.402-2.038c3.497 2.226 6.963 3.698 10.38 4.34 1.305.246 2.606.37 3.888.37h-6.897z"/></clipPath><clipPath id="cu"><path d="m164.075 412.92 15.6 7.07 4.614-10.177-15.6-7.07z"/></clipPath><clipPath id="cv"><path d="m164.075 412.92 15.6 7.072 4.613-10.177-15.6-7.072z"/></clipPath><clipPath id="az"><path d="M186.546 410.283h89.5V361.15h-89.5z"/></clipPath><clipPath id="aJ"><path d="M185.578 411.246h91.47V360.15h-91.47z"/></clipPath><clipPath id="aK"><path d="M186.546 361.187h89.482v49.096h-89.482z"/></clipPath><clipPath id="aL"><path d="M186.546 410.283h89.5V361.15h-89.5z"/></clipPath><clipPath id="aM"><path d="M186.546 361.187h89.482v49.096h-89.482z"/></clipPath><clipPath id="aN"><path d="M276.023 361.187h-89.47v49.096h89.47z"/></clipPath><clipPath id="aO"><path d="M186.578 410.246h89.47V361.15h-89.47z"/></clipPath><clipPath id="aP"><path d="M186.58 361.15v49.095h89.47V361.15z"/></clipPath><clipPath id="cy"><path d="M214.165 414.975h32.908v-50.787h-32.908z"/></clipPath><clipPath id="cz"><path d="M214.167 364.188h32.753v50.772h-32.753z"/></clipPath><clipPath id="cA"><path d="m225.7 377.66 6.473 20.636c2.32 7.428 6.433 12.977 14.158 15.402l.593 1.262c-12.6-.753-18.473-7.16-21.435-16.642-5.178-16.558-8.314-27.292-11.333-34.13 3.857 3.688 7.712 8.214 11.544 13.472"/></clipPath><clipPath id="cB"><path d="M247.073 364.203h-32.77v50.772h32.77z"/></clipPath><clipPath id="cC"><path d="M247.073 414.974v-50.77h-32.77v50.77z"/></clipPath><linearGradient xlink:href="#a" id="j" x1="185.906" x2="185.906" y1="415.525" y2="384.152" spreadMethod="pad"><stop offset="0" stop-color="#231f20"/><stop offset="1" stop-color="#fff"/></linearGradient><linearGradient xlink:href="#a" id="A" x1="151.875" x2="151.875" y1="341.213" y2="417.334" spreadMethod="pad"><stop offset="0" stop-color="#231f20"/><stop offset=".462" stop-color="#231f20"/><stop offset="1" stop-color="#fff"/></linearGradient><linearGradient xlink:href="#a" id="J" x1="249.375" x2="249.375" y1="416.494" y2="361.846" spreadMethod="pad"><stop offset="0" stop-color="#2e2a2b"/><stop offset=".731" stop-color="#fff"/><stop offset="1" stop-color="#fff"/></linearGradient><linearGradient xlink:href="#a" id="S" x1="130.625" x2="130.625" y1="344.213" y2="420.329" spreadMethod="pad"><stop offset="0" stop-color="#231f20"/><stop offset="1" stop-color="#fff"/></linearGradient><linearGradient xlink:href="#a" id="ab" x1="146.375" x2="88.162" y1="393.9" y2="289.807" spreadMethod="pad"><stop offset="0" stop-color="#231f20"/><stop offset=".129" stop-color="#fff"/><stop offset=".4" stop-color="#fff"/><stop offset="1" stop-color="#fff"/></linearGradient><linearGradient xlink:href="#a" id="ap" x1="251.906" x2="251.906" y1="420.525" y2="389.349" spreadMethod="pad"><stop offset="0" stop-color="#231f20"/><stop offset="1" stop-color="#fff"/></linearGradient><linearGradient xlink:href="#a" id="ay" x1="162.555" x2="162.555" y1="407.428" y2="416.181" spreadMethod="pad"><stop offset="0" stop-color="#fff"/><stop offset=".363" stop-color="#fff"/><stop offset="1" stop-color="#918f90"/></linearGradient><linearGradient xlink:href="#a" id="aQ" x1="231.313" x2="231.313" y1="361.15" y2="410.247" spreadMethod="pad"><stop offset="0" stop-color="#231f20"/><stop offset="1" stop-color="#fff"/></linearGradient><linearGradient xlink:href="#a" id="aU" x1="181.125" x2="181.125" y1="414.088" y2="337.71" spreadMethod="pad"><stop offset="0" stop-color="#0994dc"/><stop offset=".11" stop-color="#0994dc"/><stop offset=".35" stop-color="#66cef5"/><stop offset=".45" stop-color="#66cef5"/><stop offset=".846" stop-color="#127bca"/><stop offset="1" stop-color="#127bca"/></linearGradient><linearGradient xlink:href="#a" id="aY" x1="184.188" x2="184.188" y1="415.963" y2="337.638" spreadMethod="pad"><stop offset="0" stop-color="#0e76bc"/><stop offset=".176" stop-color="#0e76bc"/><stop offset=".36" stop-color="#36aee8"/><stop offset=".52" stop-color="#36aee8"/><stop offset=".846" stop-color="#00adef"/><stop offset="1" stop-color="#00adef"/></linearGradient><linearGradient xlink:href="#a" id="bf" x1="199.875" x2="199.875" y1="354.65" y2="416.972" spreadMethod="pad"><stop offset="0" stop-color="#1c63b7"/><stop offset=".5" stop-color="#33bdf2"/><stop offset="1" stop-color="#33bdf2"/></linearGradient><linearGradient xlink:href="#a" id="bm" x1="195.813" x2="195.813" y1="423.9" y2="342.579" spreadMethod="pad"><stop offset="0" stop-color="#166ab8"/><stop offset=".099" stop-color="#166ab8"/><stop offset=".4" stop-color="#36aee8"/><stop offset=".516" stop-color="#36aee8"/><stop offset=".846" stop-color="#0798dd"/><stop offset="1" stop-color="#0798dd"/></linearGradient><linearGradient xlink:href="#a" id="bq" x1="189.313" x2="189.313" y1="423.525" y2="337.051" spreadMethod="pad"><stop offset="0" stop-color="#124379"/><stop offset=".11" stop-color="#124379"/><stop offset=".39" stop-color="#1487cb"/><stop offset=".52" stop-color="#1487cb"/><stop offset=".78" stop-color="#165197"/><stop offset="1" stop-color="#165197"/></linearGradient><linearGradient xlink:href="#a" id="bA" x1="246.375" x2="246.375" y1="356.244" y2="416.954" spreadMethod="pad"><stop offset="0" stop-color="#136ab4"/><stop offset=".315" stop-color="#59caf5"/><stop offset=".6" stop-color="#59caf5"/><stop offset="1" stop-color="#59caf5"/></linearGradient><linearGradient xlink:href="#a" id="bH" x1="136.313" x2="136.313" y1="354.65" y2="416.813" spreadMethod="pad"><stop offset="0" stop-color="#318ed5"/><stop offset=".675" stop-color="#38a7e4"/><stop offset="1" stop-color="#38a7e4"/></linearGradient><linearGradient xlink:href="#a" id="bO" x1="140.25" x2="140.25" y1="354.463" y2="414.888" spreadMethod="pad"><stop offset="0" stop-color="#05a1e6"/><stop offset="1" stop-color="#05a1e6"/></linearGradient><linearGradient xlink:href="#a" id="bS" x1="143.563" x2="143.563" y1="351.307" y2="402.367" spreadMethod="pad"><stop offset="0" stop-color="#1959a6"/><stop offset=".154" stop-color="#1959a6"/><stop offset=".484" stop-color="#05a1e6"/><stop offset=".5" stop-color="#05a1e6"/><stop offset=".918" stop-color="#7ec5ea"/><stop offset="1" stop-color="#7ec5ea"/></linearGradient><linearGradient xlink:href="#a" id="bW" x1="145.313" x2="135.55" y1="354.65" y2="410.014" spreadMethod="pad"><stop offset="0" stop-color="#165096"/><stop offset=".104" stop-color="#165096"/><stop offset="1" stop-color="#0d82ca"/></linearGradient><linearGradient xlink:href="#a" id="ca" x1="236.063" x2="236.063" y1="385.963" y2="414.896" spreadMethod="pad"><stop offset="0" stop-color="#05a1e6"/><stop offset=".649" stop-color="#05a1e6"/><stop offset=".874" stop-color="#0495d6"/><stop offset="1" stop-color="#0495d6"/></linearGradient><linearGradient xlink:href="#a" id="ch" x1="249.594" x2="237.83" y1="417.65" y2="350.933" spreadMethod="pad"><stop offset="0" stop-color="#38a7e4"/><stop offset=".357" stop-color="#38a7e4"/><stop offset=".962" stop-color="#0e88d3"/><stop offset="1" stop-color="#0e88d3"/></linearGradient><linearGradient xlink:href="#a" id="cl" x1="239.063" x2="239.063" y1="415.213" y2="352.093" spreadMethod="pad"><stop offset="0" stop-color="#168cd4"/><stop offset=".5" stop-color="#1c87cc"/><stop offset="1" stop-color="#154b8d"/></linearGradient><linearGradient xlink:href="#a" id="cs" x1="158.563" x2="173.102" y1="416.502" y2="410.471" spreadMethod="pad"><stop offset="0" stop-color="#97d6ee"/><stop offset=".703" stop-color="#55c1ea"/><stop offset="1" stop-color="#55c1ea"/></linearGradient><linearGradient xlink:href="#a" id="cw" x1="166.996" x2="178.479" y1="409.307" y2="414.512" spreadMethod="pad"><stop offset="0" stop-color="#7accec"/><stop offset=".335" stop-color="#7accec"/><stop offset=".841" stop-color="#3fb7ed"/><stop offset="1" stop-color="#3fb7ed"/></linearGradient><linearGradient xlink:href="#a" id="cD" x1="230.688" x2="230.688" y1="411.744" y2="350.007" spreadMethod="pad"><stop offset="0" stop-color="#1da7e7"/><stop offset="1" stop-color="#37abe7"/></linearGradient><linearGradient id="a" gradientUnits="userSpaceOnUse"/><mask id="aZ" width="1" height="1" x="0" y="0" maskUnits="userSpaceOnUse"><g clip-path="url(#b)"><g clip-path="url(#c)"><g clip-path="url(#d)"><g clip-path="url(#e)"><g clip-path="url(#f)"><g clip-path="url(#g)"><g clip-path="url(#h)"><g clip-path="url(#i)"><path fill="url(#j)" d="M230.638 384.152h-89.464v31.374h89.464z"/></g></g></g></g></g></g></g></g></mask><mask id="bg" width="1" height="1" x="0" y="0" maskUnits="userSpaceOnUse"><g clip-path="url(#k)"><g clip-path="url(#l)"><g clip-path="url(#m)"><g clip-path="url(#n)"><g clip-path="url(#o)"><g clip-path="url(#p)"><g clip-path="url(#q)"><g clip-path="url(#r)"><path fill="url(#j)" d="M230.638 384.152h-89.464v31.374h89.464z"/></g></g></g></g></g></g></g></g></mask><mask id="br" width="1" height="1" x="0" y="0" maskUnits="userSpaceOnUse"><g clip-path="url(#s)"><g clip-path="url(#t)"><g clip-path="url(#u)"><g clip-path="url(#v)"><g clip-path="url(#w)"><g clip-path="url(#x)"><g clip-path="url(#y)"><g clip-path="url(#z)"><path fill="url(#A)" d="M107.14 417.335h89.47v-76.122h-89.47z"/></g></g></g></g></g></g></g></g></mask><mask id="bu" width="1" height="1" x="0" y="0" maskUnits="userSpaceOnUse"><g clip-path="url(#B)"><g clip-path="url(#C)"><g clip-path="url(#D)"><g clip-path="url(#E)"><g clip-path="url(#F)"><g clip-path="url(#G)"><g clip-path="url(#H)"><g clip-path="url(#I)"><path fill="url(#J)" d="M294.1 361.846h-89.47v54.65h89.47z"/></g></g></g></g></g></g></g></g></mask><mask id="bB" width="1" height="1" x="0" y="0" maskUnits="userSpaceOnUse"><g clip-path="url(#K)"><g clip-path="url(#L)"><g clip-path="url(#M)"><g clip-path="url(#N)"><g clip-path="url(#O)"><g clip-path="url(#P)"><g clip-path="url(#Q)"><g clip-path="url(#R)"><path fill="url(#S)" d="M85.892 420.33h89.466v-76.117H85.892z"/></g></g></g></g></g></g></g></g></mask><mask id="bI" width="1" height="1" x="0" y="0" maskUnits="userSpaceOnUse"><g clip-path="url(#T)"><g clip-path="url(#U)"><g clip-path="url(#V)"><g clip-path="url(#W)"><g clip-path="url(#X)"><g clip-path="url(#Y)"><g clip-path="url(#Z)"><g clip-path="url(#aa)"><path fill="url(#ab)" d="m199.926 389.262-50.094-89.575-85.534 47.834 50.093 89.575z"/></g></g></g></g></g></g></g></g></mask><mask id="cb" width="1" height="1" x="0" y="0" maskUnits="userSpaceOnUse"><g clip-path="url(#ac)"><g clip-path="url(#ad)"><g clip-path="url(#ae)"><g clip-path="url(#ak)"><g clip-path="url(#al)"><g clip-path="url(#am)"><g clip-path="url(#an)"><g clip-path="url(#ao)"><path fill="url(#ap)" d="M296.64 389.35h-89.47v31.176h89.47z"/></g></g></g></g></g></g></g></g></mask><mask id="cm" width="1" height="1" x="0" y="0" maskUnits="userSpaceOnUse"><g clip-path="url(#aq)"><g clip-path="url(#ar)"><g clip-path="url(#as)"><g clip-path="url(#at)"><g clip-path="url(#au)"><g clip-path="url(#av)"><g clip-path="url(#aw)"><g clip-path="url(#ax)"><path fill="url(#ay)" d="M143.566 416.18h37.976v-8.753h-37.976z"/></g></g></g></g></g></g></g></g></mask><mask id="cx" width="1" height="1" x="0" y="0" maskUnits="userSpaceOnUse"><g clip-path="url(#az)"><g clip-path="url(#aJ)"><g clip-path="url(#aK)"><g clip-path="url(#aL)"><g clip-path="url(#aM)"><g clip-path="url(#aN)"><g clip-path="url(#aO)"><g clip-path="url(#aP)"><path fill="url(#aQ)" d="M186.578 410.246h89.47V361.15h-89.47z"/></g></g></g></g></g></g></g></g></mask></defs><g clip-path="url(#aR)" transform="matrix(.19991 0 0 -.19991 -22.234 92.22)"><g clip-path="url(#aS)"><g clip-path="url(#aT)"><path fill="url(#aU)" d="M195.484 352.88h-28.716v51.212h28.716z"/></g></g></g><g clip-path="url(#aV)" transform="matrix(.19991 0 0 -.19991 -22.234 92.22)"><g clip-path="url(#aW)"><g clip-path="url(#aX)"><path fill="url(#aY)" d="M199.257 353.196h-30.14v52.517h30.14z"/></g></g></g><path fill="#14559a" d="M14.252 9.52q-.385 0-.777.075c-.683.129-1.376.422-2.075.867q.286.285.543.64c.711-.592 1.417-1.026 2.121-1.288a5 5 0 0 1 .792-.22 2.4 2.4 0 0 0-.604-.074"/><g mask="url(#aZ)" transform="matrix(.19991 0 0 -.19991 -22.234 92.22)"><g clip-path="url(#ba)"><g clip-path="url(#bb)"><g clip-path="url(#bc)"><g clip-path="url(#bd)"><g clip-path="url(#be)"><path fill="url(#bf)" d="M185.566 413.666h28.62V360.46h-28.62v53.205z"/></g></g></g></g></g></g><g mask="url(#bg)" transform="translate(-.55 17.517)scale(.15993)"><g clip-path="url(#bh)" transform="matrix(1.25 0 0 -1.25 -135.577 467.106)"><g clip-path="url(#bi)"><path fill="#3092c4" d="M185.528 413.325c-.954.242-1.957.367-3.018.367l6.682-.024a20 20 0 0 1-3.664-.343"/></g></g></g><path fill="#1969bc" d="M19.67 20.906a5 5 0 0 1-.382-.416 7 7 0 0 1-1.706.911 2.6 2.6 0 0 0 .635.217c.174.036.352.054.544.054.635 0 1.136-.076 1.564-.28a3 3 0 0 1-.653-.487"/><g clip-path="url(#bj)" transform="matrix(.19991 0 0 -.19991 -22.234 92.22)"><g clip-path="url(#bk)"><g clip-path="url(#bl)"><path fill="url(#bm)" d="M209.982 358.734h-28.34v54.526h28.34z"/></g></g></g><g clip-path="url(#bn)" transform="matrix(.19991 0 0 -.19991 -22.234 92.22)"><g clip-path="url(#bo)"><g clip-path="url(#bp)"><path fill="url(#bq)" d="M207.683 354.228h-36.74v57.98h36.74z"/></g></g></g><g mask="url(#br)" transform="translate(-.55 17.517)scale(.15993)"><g clip-path="url(#bs)" transform="matrix(1.25 0 0 -1.25 -135.577 467.106)"><g clip-path="url(#bt)"><path fill="#33bdf2" d="M160.024 402.44c-1.668-3.765-3.367-8.717-5.427-15.182 4.094 5.765 8.173 10.735 12.227 14.758-.56 1.717-1.157 3.302-1.803 4.713a59 59 0 0 1-4.997-4.3"/></g></g></g><path fill="#2b74b1" d="m11.05 10.694-.294.217q.194.425.36.943l.44-.417a6 6 0 0 0-.505-.742"/><path fill="#125a9e" d="m11.4 10.46-.35.233q.272.337.506.742l.387-.335a5 5 0 0 0-.543-.64"/><g mask="url(#bu)" transform="matrix(.19991 0 0 -.19991 -22.234 92.22)"><g clip-path="url(#bv)"><g clip-path="url(#bw)"><g clip-path="url(#bx)"><g clip-path="url(#by)"><g clip-path="url(#bz)"><path fill="url(#bA)" d="M221.457 415.068h49.83v-62.132h-49.83z"/></g></g></g></g></g></g><g mask="url(#bB)" transform="translate(-.55 17.517)scale(.15993)"><g clip-path="url(#bC)" transform="matrix(1.25 0 0 -1.25 -135.577 467.106)"><g clip-path="url(#bD)"><path fill="#05a1e6" d="M151.77 412.466c.008.008.02.013.024.013l.03.011.228.088c.018.004.028.01.04.014l.052.023.23.08.5.18c.026 0 .05.012.075.02l.215.065c.033.012.068.018.098.03l.216.063.083.025.717.184.096.025.208.04.103.03.2.04c.018 0 .03.005.05.008l.435.077.088.011.198.035.114.012.193.028a1 1 0 0 1 .106.013l.47.042-1.385.07c-14.664 0-34.863-27.203-43.965-62.433l1.754.008a496 496 0 0 1 7.92 14.718c6.375 24.953 19.355 41.972 30.884 46.48"/></g></g></g><path fill="#0d82ca" d="M9.757 11.768q.5-.477.999-.857l-.24-.46c-.268.326-.513.755-.76 1.317m.242-1.963c.192.16.363.381.52.646l.15-.17a3 3 0 0 0-.708-.495l.032.015z"/><g clip-path="url(#bE)" transform="matrix(.19991 0 0 -.19991 -22.234 92.22)"><g clip-path="url(#bF)"><g clip-path="url(#bG)"><path fill="url(#bH)" d="M120.87 412.433h30.885V365.95H120.87z"/></g></g></g><path fill="#127bca" d="m10.669 10.282-.151.17q.125.21.24.459l.295-.218a4 4 0 0 0-.383-.411"/><g mask="url(#bI)" transform="matrix(.19991 0 0 -.19991 -22.234 92.22)"><g clip-path="url(#bJ)"><g clip-path="url(#bK)"><g clip-path="url(#bL)"><g clip-path="url(#bM)"><g clip-path="url(#bN)"><path fill="url(#bO)" d="M125.894 387.258h28.714v-35.97h-28.714z"/></g></g></g></g></g></g><g clip-path="url(#bP)" transform="matrix(.19991 0 0 -.19991 -22.234 92.22)"><g clip-path="url(#bQ)"><g clip-path="url(#bR)"><path fill="url(#bS)" d="M127.028 402.367h33.068v-51.06h-33.068z"/></g></g></g><path fill="#05a1e6" d="M1.933 19.056C1.453 19.978.93 20.96.35 21.998h1.02a25 25 0 0 1 .563-2.942"/><g clip-path="url(#bT)" transform="matrix(.19991 0 0 -.19991 -22.234 92.22)"><g clip-path="url(#bU)"><g clip-path="url(#bV)"><path fill="url(#bW)" d="m119.313 343.45-12.043 68.3 55.044 9.705 12.043-68.3-55.044-9.706z"/></g></g></g><g clip-path="url(#bX)" transform="matrix(.19991 0 0 -.19991 -22.234 92.22)"><g clip-path="url(#bY)"><g clip-path="url(#bZ)"><path fill="url(#ca)" d="M225.748 413.707h20.63v-36.032h-20.63z"/></g></g></g><g mask="url(#cb)" transform="matrix(.19991 0 0 -.19991 -22.234 92.22)"><g clip-path="url(#cc)"><g clip-path="url(#cd)"><g clip-path="url(#ce)"><g clip-path="url(#cf)"><g clip-path="url(#cg)"><path fill="url(#ch)" d="m273.147 413.298-11.516-65.3-47.175 8.318 11.516 65.3z"/></g></g></g></g></g></g><path fill="#079ae1" d="M21.14 20.731c.598-.729 1.085-1.968 1.748-4.01-.765 1.052-1.535 1.957-2.308 2.694l-.003.007c.169.504.353.95.564 1.31"/><path fill="#1969bc" d="M21.14 20.731a2.4 2.4 0 0 1-.657.577l-.16.086a2.3 2.3 0 0 0 .838.263h.002l.137.013h.008l.064.003h.15l.022-.002.051-.001.025-.004.048-.003.006-.001.018-.001.054-.006h.005l.016-.003.057-.008q.008 0 .017-.003l.065-.01h.003l.006-.002.128-.027c-.354-.128-.65-.436-.906-.871"/><g fill="#1e5cb3"><path d="M16.08 21.674a4 4 0 0 0 .778-.075q.36-.067.724-.196a2.65 2.65 0 0 0 1.18.271h-2.68z"/><path d="M18.76 21.674c.635 0 1.137-.075 1.564-.28a2.3 2.3 0 0 0 .837.264h.002l.137.012h.008l.064.003h.01l.067.001h-2.69z"/></g><path fill="#1d60b5" d="m21.45 21.674.073-.001.023-.002.05-.001.026-.004.048-.003h.006l.019-.002.053-.006h.004l.016-.003.058-.008.017-.003.064-.01h.003q.004-.003.007-.002l.128-.027a1.1 1.1 0 0 0 .393.069l-.99.002z"/><path fill="#175fab" d="m20.576 19.422-.001-.003-.848.741-.442.332.383.416q.3.294.652.488l.16-.086c.24-.14.455-.329.658-.577-.21-.36-.395-.805-.564-1.309"/><g clip-path="url(#ci)" transform="matrix(.19991 0 0 -.19991 -22.234 92.22)"><g clip-path="url(#cj)"><g clip-path="url(#ck)"><path fill="url(#cl)" d="M261.187 353.24h-44.25v61.8h44.25z"/></g></g></g><g mask="url(#cm)" transform="matrix(.19991 0 0 -.19991 -22.234 92.22)"><g clip-path="url(#cn)"><g clip-path="url(#co)"><path fill="#7dcbec" d="m156.56 413.622.084-.01a2 2 0 0 0 .208-.023q.037-.002.067-.008l.383-.05c.022-.005.043-.005.063-.012l.322-.053a.4.4 0 0 1 .08-.016l.742-.163.068-.016.3-.084c.03-.008.053-.013.08-.026l.355-.1c.004-.006.01-.006.024-.01l.3-.106.12-.04.22-.1q.06-.016.126-.043l.294-.123.143-.062.18-.076c.05-.028.107-.052.156-.075l.158-.08c1.278-.628 2.455-1.462 3.543-2.48a12 12 0 0 0 1.255 1.142c-2.38 1.687-5.08 2.65-8.192 2.65a12 12 0 0 1-1.087-.046"/><path fill="#5ec5ed" d="M164.585 409.876a19 19 0 0 0 1.9-2.06l1.746 1.164a19 19 0 0 1-2.402 2.038q-.65-.51-1.255-1.142"/><g clip-path="url(#cp)"><g clip-path="url(#cq)"><g clip-path="url(#cr)"><path fill="url(#cs)" d="m158.155 420.9 18.385-7.625-3.947-9.516-18.385 7.626z"/></g></g></g><g clip-path="url(#ct)"><g clip-path="url(#cu)"><g clip-path="url(#cv)"><path fill="url(#cw)" d="m164.075 412.92 15.6 7.07 4.614-10.177-15.6-7.07z"/></g></g></g></g></g></g><g mask="url(#cx)" transform="matrix(.19991 0 0 -.19991 -22.234 92.22)"><g clip-path="url(#cy)"><g clip-path="url(#cz)"><g clip-path="url(#cA)"><g clip-path="url(#cB)"><g clip-path="url(#cC)"><path fill="url(#cD)" d="M247.073 364.203h-32.77v50.772h32.77z"/></g></g></g></g></g></g></svg>