<svg xmlns="http://www.w3.org/2000/svg" xml:space="preserve" style="fill-rule:evenodd;clip-rule:evenodd" viewBox="0 0 256 256"><circle cx="128" cy="128" r="108" style="fill:#d53"/><circle cx="128" cy="128" r="96" style="fill:none;stroke:#fff;stroke-width:7px"/><path d="M96 73c-30 7-19 49-19 49l19 93 7 3M89 55h-8l11 4s-11 0-11 7c24-1 35 5 35 5" style="fill:#ddd;fill-rule:nonzero"/><path d="M153 223s-24-38-24-63c0-47 31-7 31-44s-31-46-31-46c-15-19-44-15-44-15l7 4s-7 2-9 4 19-3 28 5c-37 3-31 33-31 33l21 120" style="fill:#fff;fill-rule:nonzero"/><path d="m153 127 38-10c34 5-29 24-33 23-30-5-21 20 15 12s9 20-24 9c-47-13-22-36 4-34" style="fill:#fc0;fill-rule:nonzero"/><path d="m143 206 2-3c22 8 23 11 22-9s0-20-23-3c0-5-13-3-15 0-21-9-23-12-22 2 2 29 1 24 21 14" style="fill:#6b5;fill-rule:nonzero"/><path d="M127 195v12c1 2 17 2 17-2s-8 3-13 1-2-13-2-13" style="fill:#4a4;fill-rule:nonzero"/><path d="M105 96c-5-6-18-1-15 7 1-4 8-10 15-7m32 0c1-6 11-7 14-1-4-2-10-2-14 1m-33 16a2.005 2.005 0 0 1 1.936-1.5c1.097 0 2 .903 2 2s-.903 2-2 2c-.909 0-1.709-.62-1.936-1.5m-8 3c.261 3.642 3.33 6.5 6.982 6.5 3.84 0 7-3.16 7-7s-3.16-7-7-7c-3.652 0-6.721 2.858-6.982 6.5m52-6a2.005 2.005 0 0 1 1.936-1.5c1.097 0 2 .903 2 2s-.903 2-2 2c-.909 0-1.709-.62-1.936-1.5m-6 3c.259 3.092 2.876 5.5 5.979 5.5 3.292 0 6-2.708 6-6s-2.708-6-6-6c-3.103 0-5.721 2.408-5.979 5.5" style="fill:#148;fill-rule:nonzero"/></svg>