<?xml version="1.0" encoding="UTF-8" standalone="no"?>
<!-- Created with Inkscape (http://www.inkscape.org/) -->

<svg
   width="160.09518mm"
   height="113.13131mm"
   viewBox="0 0 160.09518 113.13131"
   version="1.1"
   id="svg1"
   xmlns="http://www.w3.org/2000/svg"
   xmlns:svg="http://www.w3.org/2000/svg">
  <defs
     id="defs1" />
  <g
     id="layer1">
    <path
       style="fill:#030303;stroke:none;stroke-width:0.264583"
       d="m 146.90692,1.539e-4 c -0.77102,3.5045718 -1.0854,6.8244028 -2.34016,10.2438641 -3.76159,10.251066 -11.0915,20.384279 -18.67813,28.166683 l 0.0206,-1.926086 c -3.35408,1.406552 -5.37992,6.053112 -8.09617,8.494403 -3.88953,3.49581 -8.49807,4.407084 -12.95277,6.791143 -2.18837,1.171166 -4.39983,3.527431 -6.847269,4.044095 -3.158129,0.66669 -5.363775,-2.403968 -7.506936,-4.134376 C 87.601848,49.334979 83.709864,48.112211 79.999719,49.152138 75.12954,50.517209 69.337613,56.23852 72.17629,61.64297 l 0.510331,-0.139918 c 1.262427,-1.255751 3.812324,-1.050634 5.498401,-0.958916 -0.561565,5.520661 -5.868673,4.60172 -10.125983,5.093788 -5.178423,0.598575 -9.601548,2.732504 -14.939326,2.547713 -3.943018,-0.136512 -8.195273,-2.560385 -12.032414,-1.859212 l 1.255246,1.576269 C 32.384271,66.432745 22.233639,63.333557 13.23535,58.800481 10.618128,57.481997 7.8593195,55.810289 5.7104281,53.804202 5.0076871,53.148161 3.860192,51.35913 2.7433757,51.510887 c -1.165397,0.158358 -0.6884892,2.273335 -0.4659444,2.960305 0.7984198,2.464614 3.1007172,4.500109 5.1074944,6.006934 -1.6362642,-0.554389 -5.2931047,-3.669881 -6.84339217,-3.244805 -0.99147881,0.271852 -0.37227733,1.832417 -0.0906807,2.403165 1.02309887,2.07362 2.94963297,3.361892 4.71165817,4.743197 -1.2007804,-0.331859 -6.5582498,-1.07392 -3.8775704,1.612869 1.6767652,1.680588 4.5445795,2.567814 6.8078456,3.07066 l 0.069958,0.255159 C 6.9194065,69.054505 1.8829341,66.851914 1.0164847,68.100327 c -0.95866697,1.38126 2.9452718,3.347154 3.736082,3.77997 4.6750942,2.558734 10.3688633,4.056731 15.6951343,4.220557 l 0.06996,0.255169 c -3.077717,0.16074 -6.191437,-0.07235 -9.25821,0.254028 -0.860804,0.09197 -2.7229562,0.229479 -3.0656044,1.234483 -0.5370459,1.5752 2.5224054,2.099442 3.4630244,2.215927 4.061503,0.502971 8.34833,0.876402 12.416632,0.258868 l 0.06996,0.255159 c -3.117001,0.973511 -6.519544,1.76572 -9.091298,3.864497 2.688525,3.700173 8.317053,2.073442 12.091537,1.074188 l 0.06996,0.255169 c -1.414393,0.808034 -6.543007,4.929229 -2.012548,5.486613 3.479941,0.42814 8.063034,-1.485037 10.786934,-3.502886 l -5.304981,6.667206 c 3.600469,-0.17002 6.942868,-2.260618 9.786832,-4.32956 -0.359303,0.63965 -0.742373,1.275319 -1.042274,1.946137 -2.418503,5.409793 4.643957,1.08896 6.14969,-0.328702 l -0.851934,4.897525 c 2.545857,-0.36821 3.841028,-3.514345 5.074507,-5.506624 l -0.616389,2.639704 c -0.433717,1.98494 -0.272612,5.79519 2.446321,3.03299 1.802337,-1.83102 2.98997,-4.306736 4.248764,-6.51637 -0.10412,2.025123 -0.883735,5.22122 0.535475,6.94301 2.528994,3.068175 4.768044,-3.92764 5.082272,-5.465515 l 0.255171,-0.06991 c 0.04429,1.50755 1.330878,8.69708 3.943973,5.016018 1.737521,-2.44764 1.375745,-5.774919 2.525705,-8.436043 -0.04039,1.767533 -0.07412,3.924528 0.556183,5.599353 0.222329,0.59077 0.78354,1.5368 1.549928,1.11355 0.958865,-0.52955 1.126559,-2.400735 1.56497,-3.329894 -0.125071,2.319524 0.262744,4.411994 1.238772,6.519054 2.767196,-1.16667 2.789463,-3.79539 3.77399,-6.24742 1.274086,3.489 3.535119,2.08842 3.827482,-1.049458 1.502355,1.873083 3.399583,3.703938 3.852171,0.04117 1.05278,1.074104 1.82272,1.460819 3.296563,1.016547 l -0.234546,-1.85612 1.370488,0.995963 0.255153,-0.07001 0.09055,-1.670917 0.255163,-0.07001 c 0.407967,0.501306 1.442997,1.111057 1.523668,1.777019 0.128447,1.060749 -1.213754,2.340048 -1.841951,3.065638 -2.103035,2.4291 -4.266761,4.85082 -6.195432,7.42195 -0.553514,0.7379 -3.199268,4.46171 -1.005463,4.33758 l 0.189308,2.69158 1.971361,-0.81488 c 0.285079,2.7492 2.132102,2.03418 3.736927,0.62146 -0.152306,1.26501 -0.454519,5.74458 2.113957,4.61687 1.305055,-0.57301 2.141009,-2.36202 2.853531,-3.50977 0.355116,3.48599 1.679649,4.07806 3.226604,0.76139 1.224024,2.33681 2.48119,1.09431 3.387116,-0.65436 0.365058,1.27175 2.095347,4.10732 2.557967,1.19278 0.31497,-1.98429 -0.10855,-4.19969 -0.61536,-6.11502 l 0.25515,-0.07 c 0.78511,1.29361 2.19797,4.73902 3.76164,5.14012 2.03631,0.52234 0.81533,-4.44298 0.60086,-5.23888 l 0.25516,-0.07 c 0.46913,0.6389 3.38119,4.49624 4.24737,2.89858 0.76212,-1.40572 -1.3823,-4.46838 -2.00026,-5.70951 l 0.25516,-0.07 c 1.51865,1.83129 3.47367,3.82992 5.99225,3.84396 -0.7392,-2.67574 -1.87873,-5.0668 -3.62991,-7.23518 2.01131,1.2007 5.08429,4.82339 7.67936,4.09357 1.4752,-0.41487 1.12843,-2.05752 0.54498,-3.05687 -1.39831,-2.39507 -3.54545,-4.48426 -5.77145,-6.098838 2.8599,0.779948 5.67781,2.223578 8.70442,1.728548 -2.04664,-3.937654 -7.15189,-4.84937 -11.00777,-6.126819 -1.39338,-0.461626 -3.89229,-0.84479 -4.71338,-2.203171 -0.47902,-0.792475 -0.18734,-2.03289 -0.25958,-2.926117 2.79418,1.658678 3.69382,0.596504 2.89736,-2.440527 2.54145,1.650918 4.81387,2.224446 4.19789,-1.699722 l 0.25517,-0.06991 c 0.727,0.887821 5.37145,5.287722 6.14461,2.515179 0.53303,-1.911386 -1.80427,-4.418069 -2.69165,-5.931098 l 0.25516,-0.07001 c 0.64094,0.804293 4.13879,3.875178 3.69166,0.877747 -0.30439,-2.040335 -2.05047,-3.984635 -3.09488,-5.7053 l 0.25516,-0.07001 c 1.65213,1.920848 4.90623,5.74547 7.6332,5.823127 3.95896,0.11273 0.0764,-5.692189 -0.78896,-6.876705 1.32112,0.935572 6.78611,5.448836 7.83439,2.124264 0.74104,-2.35016 -2.59895,-5.15671 -3.89578,-6.770734 3.10996,1.614651 6.77137,3.546784 10.33006,2.654563 -0.85815,-2.455984 -2.94188,-3.859315 -4.81108,-5.539563 1.75302,0.695106 3.57267,1.637441 5.45382,1.914685 2.67921,0.394855 0.68377,-1.998045 -0.27817,-2.77074 -0.52768,-0.423872 -1.08115,-0.815738 -1.62804,-1.214065 2.03075,0.09875 10.56832,-0.367192 5.28988,-3.562242 -0.594,-0.359556 -1.2374,-0.642807 -1.86161,-0.944298 3.50125,-0.257615 7.32388,-0.302899 10.34654,-2.28824 -2.112,-1.953865 -5.76068,-2.058795 -8.51922,-2.053685 l -0.0699,-0.255163 c 3.69663,-0.618903 7.15977,-1.115469 10.32791,-3.331359 2.44819,-1.712323 0.97548,-4.179048 -1.66318,-4.084874 -0.99815,0.03564 -1.98989,0.09586 -2.98934,0.09876 l -0.07,-0.255162 c 2.77814,-0.812295 6.03987,-2.327785 8.07007,-4.447591 0.71148,-0.742868 1.75757,-2.590562 0.66401,-3.462043 -1.8826,-1.500275 -7.27085,1.437291 -9.25263,2.016139 l -0.0699,-0.255172 c 3.59655,-1.901659 6.85093,-4.853024 9.67065,-7.754846 0.66776,-0.687221 2.80179,-2.81888 1.73338,-3.874534 -0.72656,-0.717885 -2.48689,0.17581 -3.19712,0.537134 -2.81943,1.434369 -5.15036,3.807286 -7.82004,5.499191 l -0.07,-0.25516 c 4.18258,-3.293292 7.80387,-8.236264 9.85618,-13.127736 0.38374,-0.914609 2.05691,-4.616671 0.66386,-5.310225 -1.33049,-0.662405 -4.10737,4.192512 -4.85287,5.087072 1.13224,-1.987816 2.60731,-4.050209 3.06606,-6.327088 0.49092,-2.4365993 -1.13426,-2.5532663 -2.61599,-1.087496 l -1.29376,1.335889 c 0.55492,-2.148127 1.04394,-4.2502843 0.61245,-6.4773023 -0.12298,-0.634609 -0.46026,-2.029692 -1.36547,-1.909984 -1.36926,0.181082 -2.84539,5.768537 -3.19371,7.0003703 C 149.33823,7.3504317 151.3054,1.62801 146.90713,0 m 6.63014,12.173864 -0.1852,0.325129 0.1852,-0.325129 m 0.84369,6.078695 -0.37041,0.650258 0.37041,-0.650258 M 8.4179144,69.24833 8.2327131,69.573457 8.4179144,69.24833 M 148.78356,31.858697 l -0.1852,0.325128 0.1852,-0.325128 m -14.20702,30.23293 -0.1852,0.325127 z"
       id="path93" />
  </g>
</svg>
