<?xml version="1.0" encoding="UTF-8"?>
<!DOCTYPE svg PUBLIC "-//W3C//DTD SVG 1.1//EN" "http://www.w3.org/Graphics/SVG/1.1/DTD/svg11.dtd">
<svg xmlns="http://www.w3.org/2000/svg" version="1.1" width="128px" height="128px" style="shape-rendering:geometricPrecision; text-rendering:geometricPrecision; image-rendering:optimizeQuality; fill-rule:evenodd; clip-rule:evenodd" xmlns:xlink="http://www.w3.org/1999/xlink">
<g><path style="opacity:1" fill="#55c4e6" d="M 47.5,4.5 C 49.5005,6.16704 51.8338,7.33371 54.5,8C 52.6667,10.5 50.8333,13 49,15.5C 48.1667,14.5 47.3333,13.5 46.5,12.5C 44.6586,14.5117 43.6586,16.845 43.5,19.5C 42.1667,19.5 40.8333,19.5 39.5,19.5C 39.5,20.8333 39.5,22.1667 39.5,23.5C 38.1266,23.3433 36.7932,23.51 35.5,24C 36.6537,24.9138 36.487,25.7471 35,26.5C 34.1667,25.5 33.3333,24.5 32.5,23.5C 31.2612,25.0072 31.5946,26.1739 33.5,27C 30.2759,29.7278 27.2759,32.5611 24.5,35.5C 24.5164,37.9986 24.1831,40.6652 23.5,43.5C 18.375,45.8963 13.375,48.563 8.5,51.5C 8.5,50.5 8.5,49.5 8.5,48.5C 7.16667,48.5 5.83333,48.5 4.5,48.5C 6.12374,41.9289 8.7904,35.9289 12.5,30.5C 13.1646,32.3691 13.8313,34.3691 14.5,36.5C 15.4209,34.244 17.0876,33.244 19.5,33.5C 19.5,31.5 19.5,29.5 19.5,27.5C 22.2062,27.4249 24.8728,27.0916 27.5,26.5C 27.5,24.1667 27.5,21.8333 27.5,19.5C 30.1667,19.5 32.8333,19.5 35.5,19.5C 36.2943,17.1272 37.2943,14.7938 38.5,12.5C 37.2713,11.7189 35.938,11.2189 34.5,11C 35.3805,10.2917 36.0472,9.45837 36.5,8.5C 39.8674,6.37722 43.534,5.04389 47.5,4.5 Z"/></g>
<g><path style="opacity:1" fill="#53bfe4" d="M 75.5,3.5 C 75.2089,4.64911 74.3756,5.31577 73,5.5C 70.5,6 68,6.5 65.5,7C 63.7427,10.5907 61.4094,13.7574 58.5,16.5C 56.7131,18.4756 54.5464,19.8089 52,20.5C 51.187,22.4357 50.687,24.4357 50.5,26.5C 48.3281,27.8011 45.9948,28.8011 43.5,29.5C 43.5,30.8333 43.5,32.1667 43.5,33.5C 40.6675,31.3533 38.0008,31.3533 35.5,33.5C 34.71,32.3915 34.21,31.0581 34,29.5C 33.7978,31.2556 33.2978,32.9223 32.5,34.5C 31.8333,33.8333 31.1667,33.1667 30.5,32.5C 29.0488,34.5589 27.0488,35.5589 24.5,35.5C 27.2759,32.5611 30.2759,29.7278 33.5,27C 31.5946,26.1739 31.2612,25.0072 32.5,23.5C 33.3333,24.5 34.1667,25.5 35,26.5C 36.487,25.7471 36.6537,24.9138 35.5,24C 36.7932,23.51 38.1266,23.3433 39.5,23.5C 39.5,22.1667 39.5,20.8333 39.5,19.5C 40.8333,19.5 42.1667,19.5 43.5,19.5C 43.6586,16.845 44.6586,14.5117 46.5,12.5C 47.3333,13.5 48.1667,14.5 49,15.5C 50.8333,13 52.6667,10.5 54.5,8C 51.8338,7.33371 49.5005,6.16704 47.5,4.5C 52.5805,2.98484 57.9138,2.31817 63.5,2.5C 67.5815,2.53188 71.5815,2.86521 75.5,3.5 Z"/></g>
<g><path style="opacity:1" fill="#4bb5e2" d="M 75.5,3.5 C 80.6755,4.00096 85.3422,5.66763 89.5,8.5C 89.719,9.67504 89.3857,10.675 88.5,11.5C 84.4382,12.3124 81.7715,14.6458 80.5,18.5C 79.8333,17.8333 79.1667,17.1667 78.5,16.5C 77.3427,20.3119 76.0093,23.9786 74.5,27.5C 73.5,27.5 72.5,27.5 71.5,27.5C 71.5,28.5 71.5,29.5 71.5,30.5C 70.5,30.5 69.5,30.5 68.5,30.5C 67.9648,33.2385 68.9648,35.0718 71.5,36C 71.5302,37.4293 71.1969,38.9293 70.5,40.5C 69.2905,40.0679 68.2905,39.4013 67.5,38.5C 67.6657,34.1539 67.499,29.8206 67,25.5C 64.6667,22.8333 62.3333,22.8333 60,25.5C 59.501,29.8206 59.3343,34.1539 59.5,38.5C 55.6086,41.2572 54.6086,44.9239 56.5,49.5C 55.6618,49.8417 55.3284,50.5084 55.5,51.5C 54.5386,49.7354 54.2053,47.7354 54.5,45.5C 52.1667,45.5 49.8333,45.5 47.5,45.5C 47.8445,51.5106 48.1778,57.3439 48.5,63C 48.6932,65.0081 48.0265,66.5081 46.5,67.5C 48.3975,62.9672 47.3975,59.3006 43.5,56.5C 43.5,48.8333 43.5,41.1667 43.5,33.5C 43.5,32.1667 43.5,30.8333 43.5,29.5C 45.9948,28.8011 48.3281,27.8011 50.5,26.5C 50.687,24.4357 51.187,22.4357 52,20.5C 54.5464,19.8089 56.7131,18.4756 58.5,16.5C 61.4094,13.7574 63.7427,10.5907 65.5,7C 68,6.5 70.5,6 73,5.5C 74.3756,5.31577 75.2089,4.64911 75.5,3.5 Z"/></g>
<g><path style="opacity:1" fill="#57c9e5" d="M 36.5,8.5 C 36.0472,9.45837 35.3805,10.2917 34.5,11C 35.938,11.2189 37.2713,11.7189 38.5,12.5C 37.2943,14.7938 36.2943,17.1272 35.5,19.5C 32.8333,19.5 30.1667,19.5 27.5,19.5C 27.5,21.8333 27.5,24.1667 27.5,26.5C 24.8728,27.0916 22.2062,27.4249 19.5,27.5C 19.5,29.5 19.5,31.5 19.5,33.5C 17.0876,33.244 15.4209,34.244 14.5,36.5C 13.8313,34.3691 13.1646,32.3691 12.5,30.5C 18.2714,20.7283 26.2714,13.395 36.5,8.5 Z"/></g>
<g><path style="opacity:1" fill="#3799de" d="M 105.5,19.5 C 108.243,21.2393 110.243,23.5726 111.5,26.5C 111.384,29.8599 111.051,33.1933 110.5,36.5C 109.5,36.5 108.5,36.5 107.5,36.5C 107.5,37.5 107.5,38.5 107.5,39.5C 106.5,39.5 105.5,39.5 104.5,39.5C 104.167,42.5 102.5,44.1667 99.5,44.5C 99.5,45.5 99.5,46.5 99.5,47.5C 98.1667,47.5 96.8333,47.5 95.5,47.5C 95.6633,49.8568 95.4966,52.1902 95,54.5C 94.6667,53.5 94.3333,52.5 94,51.5C 93.7679,52.7375 93.2679,53.7375 92.5,54.5C 91.4426,45.1546 92.7759,36.3212 96.5,28C 98.0349,27.5038 99.5349,27.6705 101,28.5C 104.489,27.3544 105.323,25.1877 103.5,22C 103.684,20.6244 104.351,19.7911 105.5,19.5 Z"/></g>
<g><path style="opacity:1" fill="#42a6df" d="M 89.5,8.5 C 95.9092,10.5717 101.243,14.2384 105.5,19.5C 104.351,19.7911 103.684,20.6244 103.5,22C 105.323,25.1877 104.489,27.3544 101,28.5C 99.5349,27.6705 98.0349,27.5038 96.5,28C 92.7759,36.3212 91.4426,45.1546 92.5,54.5C 91.9455,58.0122 92.6122,61.0122 94.5,63.5C 94.5,64.8333 94.5,66.1667 94.5,67.5C 93.7281,66.3065 92.7281,65.3065 91.5,64.5C 91.6665,54.1613 91.4998,43.828 91,33.5C 88.6667,30.8333 86.3333,30.8333 84,33.5C 83.5002,43.4944 83.3335,53.4944 83.5,63.5C 82.6721,57.3466 82.1721,51.0133 82,44.5C 80.4933,43.4954 79.3267,42.162 78.5,40.5C 76.6675,44.1469 74.0009,47.1469 70.5,49.5C 71.8333,46.5 71.8333,43.5 70.5,40.5C 71.1969,38.9293 71.5302,37.4293 71.5,36C 68.9648,35.0718 67.9648,33.2385 68.5,30.5C 69.5,30.5 70.5,30.5 71.5,30.5C 71.5,29.5 71.5,28.5 71.5,27.5C 72.5,27.5 73.5,27.5 74.5,27.5C 76.0093,23.9786 77.3427,20.3119 78.5,16.5C 79.1667,17.1667 79.8333,17.8333 80.5,18.5C 81.7715,14.6458 84.4382,12.3124 88.5,11.5C 89.3857,10.675 89.719,9.67504 89.5,8.5 Z"/></g>
<g><path style="opacity:1" fill="#50bfe6" d="M 35.5,33.5 C 35.5,38.1667 35.5,42.8333 35.5,47.5C 33.8235,46.8166 33.1568,45.4832 33.5,43.5C 32.0222,43.238 30.6888,43.5713 29.5,44.5C 27.5,46.5 25.5,48.5 23.5,50.5C 22.3112,51.4287 20.9778,51.762 19.5,51.5C 19.3491,55.314 17.3491,56.9807 13.5,56.5C 11.4042,59.6023 9.73756,62.9356 8.5,66.5C 7.16667,66.5 5.83333,66.5 4.5,66.5C 4.5,61.5 4.5,56.5 4.5,51.5C 4.5,50.5 4.5,49.5 4.5,48.5C 5.83333,48.5 7.16667,48.5 8.5,48.5C 8.5,49.5 8.5,50.5 8.5,51.5C 13.375,48.563 18.375,45.8963 23.5,43.5C 24.1831,40.6652 24.5164,37.9986 24.5,35.5C 27.0488,35.5589 29.0488,34.5589 30.5,32.5C 31.1667,33.1667 31.8333,33.8333 32.5,34.5C 33.2978,32.9223 33.7978,31.2556 34,29.5C 34.21,31.0581 34.71,32.3915 35.5,33.5 Z"/></g>
<g><path style="opacity:1" fill="#a2daf3" d="M 67.5,38.5 C 64.796,37.2857 62.1293,37.2857 59.5,38.5C 59.3343,34.1539 59.501,29.8206 60,25.5C 62.3333,22.8333 64.6667,22.8333 67,25.5C 67.499,29.8206 67.6657,34.1539 67.5,38.5 Z"/></g>
<g><path style="opacity:1" fill="#3292dd" d="M 111.5,26.5 C 115.39,30.4087 118.057,35.0754 119.5,40.5C 118.153,41.1712 116.986,41.1712 116,40.5C 114.304,43.909 111.471,45.2423 107.5,44.5C 107.662,46.5273 107.495,48.5273 107,50.5C 105.644,51.3802 104.144,51.7135 102.5,51.5C 102.5,52.5 102.5,53.5 102.5,54.5C 100.263,55.449 97.9294,56.1156 95.5,56.5C 95.8016,59.0593 95.4682,61.3926 94.5,63.5C 92.6122,61.0122 91.9455,58.0122 92.5,54.5C 93.2679,53.7375 93.7679,52.7375 94,51.5C 94.3333,52.5 94.6667,53.5 95,54.5C 95.4966,52.1902 95.6633,49.8568 95.5,47.5C 96.8333,47.5 98.1667,47.5 99.5,47.5C 99.5,46.5 99.5,45.5 99.5,44.5C 102.5,44.1667 104.167,42.5 104.5,39.5C 105.5,39.5 106.5,39.5 107.5,39.5C 107.5,38.5 107.5,37.5 107.5,36.5C 108.5,36.5 109.5,36.5 110.5,36.5C 111.051,33.1933 111.384,29.8599 111.5,26.5 Z"/></g>
<g><path style="opacity:1" fill="#a4dcf3" d="M 43.5,33.5 C 43.5,41.1667 43.5,48.8333 43.5,56.5C 40.9039,55.7347 38.2372,55.4013 35.5,55.5C 35.5,52.8333 35.5,50.1667 35.5,47.5C 35.5,42.8333 35.5,38.1667 35.5,33.5C 38.0008,31.3533 40.6675,31.3533 43.5,33.5 Z"/></g>
<g><path style="opacity:1" fill="#f5fbfc" d="M 67.5,38.5 C 68.2905,39.4013 69.2905,40.0679 70.5,40.5C 71.8333,43.5 71.8333,46.5 70.5,49.5C 69.8333,50.8333 68.8333,51.8333 67.5,52.5C 64.796,53.7143 62.1293,53.7143 59.5,52.5C 58.1667,51.8333 57.1667,50.8333 56.5,49.5C 54.6086,44.9239 55.6086,41.2572 59.5,38.5C 62.1293,37.2857 64.796,37.2857 67.5,38.5 Z"/></g>
<g><path style="opacity:0.998" fill="#308ad9" d="M 119.5,40.5 C 120.871,42.936 121.871,45.6027 122.5,48.5C 121.21,47.9423 120.377,46.9423 120,45.5C 118.883,46.9494 118.216,48.6161 118,50.5C 117.586,50.0426 117.086,49.7093 116.5,49.5C 115.15,50.9501 113.484,51.6168 111.5,51.5C 109.776,53.9138 108.442,56.5804 107.5,59.5C 104.043,59.9601 102.377,61.9601 102.5,65.5C 100.5,66.1667 98.5,66.8333 96.5,67.5C 95.7058,74.368 94.3725,81.0347 92.5,87.5C 92.6716,88.4916 92.3382,89.1583 91.5,89.5C 91.5,86.8333 91.5,84.1667 91.5,81.5C 91.5,80.5 91.5,79.5 91.5,78.5C 95.1353,75.5893 96.1353,71.9226 94.5,67.5C 94.5,66.1667 94.5,64.8333 94.5,63.5C 95.4682,61.3926 95.8016,59.0593 95.5,56.5C 97.9294,56.1156 100.263,55.449 102.5,54.5C 102.5,53.5 102.5,52.5 102.5,51.5C 104.144,51.7135 105.644,51.3802 107,50.5C 107.495,48.5273 107.662,46.5273 107.5,44.5C 111.471,45.2423 114.304,43.909 116,40.5C 116.986,41.1712 118.153,41.1712 119.5,40.5 Z"/></g>
<g><path style="opacity:1" fill="#4cb7e1" d="M 35.5,47.5 C 35.5,50.1667 35.5,52.8333 35.5,55.5C 34.1363,57.1911 32.803,58.8577 31.5,60.5C 31.5,59.8333 31.1667,59.5 30.5,59.5C 31.1712,58.1529 31.1712,56.9862 30.5,56C 32.421,54.9691 32.421,53.4691 30.5,51.5C 29.0957,54.2072 27.7624,56.8739 26.5,59.5C 25.5,59.5 24.5,59.5 23.5,59.5C 23.5,60.8333 23.5,62.1667 23.5,63.5C 22.1667,63.5 20.8333,63.5 19.5,63.5C 18.9233,66.6449 16.9233,68.1449 13.5,68C 12.9288,69.2051 12.2621,70.3717 11.5,71.5C 9.5,71.5 7.5,71.5 5.5,71.5C 4.57131,72.6888 4.23798,74.0222 4.5,75.5C 3.16667,67.5 3.16667,59.5 4.5,51.5C 4.5,56.5 4.5,61.5 4.5,66.5C 5.83333,66.5 7.16667,66.5 8.5,66.5C 9.73756,62.9356 11.4042,59.6023 13.5,56.5C 17.3491,56.9807 19.3491,55.314 19.5,51.5C 20.9778,51.762 22.3112,51.4287 23.5,50.5C 25.5,48.5 27.5,46.5 29.5,44.5C 30.6888,43.5713 32.0222,43.238 33.5,43.5C 33.1568,45.4832 33.8235,46.8166 35.5,47.5 Z"/></g>
<g><path style="opacity:1" fill="#47b2e3" d="M 30.5,59.5 C 30.5,62.5 30.5,65.5 30.5,68.5C 28.9519,68.8212 28.2852,69.8212 28.5,71.5C 26.8333,71.5 25.1667,71.5 23.5,71.5C 23.5,73.1667 23.5,74.8333 23.5,76.5C 20.8431,76.162 18.5098,76.8287 16.5,78.5C 14.9669,82.1285 14.6336,85.7952 15.5,89.5C 15.1667,89.8333 14.8333,90.1667 14.5,90.5C 13.6143,89.675 13.281,88.675 13.5,87.5C 11.4862,87.6085 9.81953,86.9418 8.5,85.5C 7.36543,82.0982 6.0321,78.7649 4.5,75.5C 4.23798,74.0222 4.57131,72.6888 5.5,71.5C 7.5,71.5 9.5,71.5 11.5,71.5C 12.2621,70.3717 12.9288,69.2051 13.5,68C 16.9233,68.1449 18.9233,66.6449 19.5,63.5C 20.8333,63.5 22.1667,63.5 23.5,63.5C 23.5,62.1667 23.5,60.8333 23.5,59.5C 24.5,59.5 25.5,59.5 26.5,59.5C 27.7624,56.8739 29.0957,54.2072 30.5,51.5C 32.421,53.4691 32.421,54.9691 30.5,56C 31.1712,56.9862 31.1712,58.1529 30.5,59.5 Z"/></g>
<g><path style="opacity:1" fill="#85a3b3" d="M 59.5,52.5 C 62.1293,53.7143 64.796,53.7143 67.5,52.5C 67.5,53.5 67.5,54.5 67.5,55.5C 64.796,56.7143 62.1293,56.7143 59.5,55.5C 59.5,54.5 59.5,53.5 59.5,52.5 Z"/></g>
<g><path style="opacity:1" fill="#3b9add" d="M 83.5,63.5 C 79.7079,66.7922 78.7079,70.7922 80.5,75.5C 78.7868,74.3646 78.1201,72.698 78.5,70.5C 76.857,70.4802 75.5237,71.1468 74.5,72.5C 73.8076,71.9747 73.3076,71.3081 73,70.5C 72.2904,71.9733 71.1238,72.6399 69.5,72.5C 69.0141,80.3276 68.3475,87.9943 67.5,95.5C 67.5,85.8333 67.5,76.1667 67.5,66.5C 67.5,62.8333 67.5,59.1667 67.5,55.5C 67.5,54.5 67.5,53.5 67.5,52.5C 68.8333,51.8333 69.8333,50.8333 70.5,49.5C 74.0009,47.1469 76.6675,44.1469 78.5,40.5C 79.3267,42.162 80.4933,43.4954 82,44.5C 82.1721,51.0133 82.6721,57.3466 83.5,63.5 Z"/></g>
<g><path style="opacity:1" fill="#9ccded" d="M 91.5,64.5 C 88.9039,63.7347 86.2372,63.4013 83.5,63.5C 83.3335,53.4944 83.5002,43.4944 84,33.5C 86.3333,30.8333 88.6667,30.8333 91,33.5C 91.4998,43.828 91.6665,54.1613 91.5,64.5 Z"/></g>
<g><path style="opacity:1" fill="#2b85d9" d="M 122.5,48.5 C 123.762,57.6411 123.762,66.6411 122.5,75.5C 122.5,70.1667 122.5,64.8333 122.5,59.5C 122.181,53.1468 120.847,52.9801 118.5,59C 116.866,59.4935 115.199,59.6602 113.5,59.5C 113.5,60.8333 113.5,62.1667 113.5,63.5C 112.167,63.5 110.833,63.5 109.5,63.5C 109.116,65.9294 108.449,68.2627 107.5,70.5C 104.5,70.8333 102.833,72.5 102.5,75.5C 100.289,75.9668 98.289,76.9668 96.5,78.5C 94.9036,81.5019 93.5702,84.5019 92.5,87.5C 94.3725,81.0347 95.7058,74.368 96.5,67.5C 98.5,66.8333 100.5,66.1667 102.5,65.5C 102.377,61.9601 104.043,59.9601 107.5,59.5C 108.442,56.5804 109.776,53.9138 111.5,51.5C 113.484,51.6168 115.15,50.9501 116.5,49.5C 117.086,49.7093 117.586,50.0426 118,50.5C 118.216,48.6161 118.883,46.9494 120,45.5C 120.377,46.9423 121.21,47.9423 122.5,48.5 Z"/></g>
<g><path style="opacity:1" fill="#2680db" d="M 122.5,59.5 C 120.934,62.8824 119.934,66.549 119.5,70.5C 121.04,71.5321 121.54,72.8654 121,74.5C 120.667,73.8333 120.333,73.1667 120,72.5C 119.667,74.1667 119.333,75.8333 119,77.5C 118.612,76.572 117.945,75.9054 117,75.5C 114.78,76.9319 113.28,78.9319 112.5,81.5C 110.286,79.0762 109.286,79.7429 109.5,83.5C 107.234,83.8588 105.401,83.1922 104,81.5C 103.5,82 103,82.5 102.5,83C 103.554,84.3876 103.72,85.8876 103,87.5C 101.271,87.9743 100.105,88.9743 99.5,90.5C 97.5713,91.0063 95.9047,92.0063 94.5,93.5C 93.914,93.2907 93.414,92.9574 93,92.5C 92.8091,94.7078 92.3091,96.7078 91.5,98.5C 91.5,96.8333 91.5,95.1667 91.5,93.5C 91.5,92.1667 91.5,90.8333 91.5,89.5C 92.3382,89.1583 92.6716,88.4916 92.5,87.5C 93.5702,84.5019 94.9036,81.5019 96.5,78.5C 98.289,76.9668 100.289,75.9668 102.5,75.5C 102.833,72.5 104.5,70.8333 107.5,70.5C 108.449,68.2627 109.116,65.9294 109.5,63.5C 110.833,63.5 112.167,63.5 113.5,63.5C 113.5,62.1667 113.5,60.8333 113.5,59.5C 115.199,59.6602 116.866,59.4935 118.5,59C 120.847,52.9801 122.181,53.1468 122.5,59.5 Z"/></g>
<g><path style="opacity:1" fill="#f8fbfc" d="M 35.5,55.5 C 38.2372,55.4013 40.9039,55.7347 43.5,56.5C 47.3975,59.3006 48.3975,62.9672 46.5,67.5C 45.8333,68.8333 44.8333,69.8333 43.5,70.5C 35.0584,72.7358 31.0584,69.4025 31.5,60.5C 32.803,58.8577 34.1363,57.1911 35.5,55.5 Z"/></g>
<g><path style="opacity:1" fill="#3ea3de" d="M 55.5,51.5 C 55.9382,51.4346 56.2716,51.6012 56.5,52C 55.6858,56.7643 55.0192,61.5976 54.5,66.5C 57.8072,75.5486 54.9738,81.5486 46,84.5C 46.0533,87.6752 45.22,90.3419 43.5,92.5C 43.5,86.1667 43.5,79.8333 43.5,73.5C 43.5,72.5 43.5,71.5 43.5,70.5C 44.8333,69.8333 45.8333,68.8333 46.5,67.5C 48.0265,66.5081 48.6932,65.0081 48.5,63C 48.1778,57.3439 47.8445,51.5106 47.5,45.5C 49.8333,45.5 52.1667,45.5 54.5,45.5C 54.2053,47.7354 54.5386,49.7354 55.5,51.5 Z"/></g>
<g><path style="opacity:1" fill="#43aae1" d="M 30.5,68.5 C 30.5,69.8333 30.5,71.1667 30.5,72.5C 32.1439,72.7135 33.6439,72.3802 35,71.5C 35.4643,72.0944 35.631,72.7611 35.5,73.5C 35.5,79.1667 35.5,84.8333 35.5,90.5C 35.3463,86.2285 33.6796,82.5619 30.5,79.5C 29.6143,80.325 29.281,81.325 29.5,82.5C 27.5,83.1667 25.5,83.8333 23.5,84.5C 23.5,85.5 23.5,86.5 23.5,87.5C 22.1667,87.5 20.8333,87.5 19.5,87.5C 19.5,88.8333 19.5,90.1667 19.5,91.5C 17.5,91.5 15.5,91.5 13.5,91.5C 13.7373,92.791 13.404,93.791 12.5,94.5C 10.8946,91.6223 9.56123,88.6223 8.5,85.5C 9.81953,86.9418 11.4862,87.6085 13.5,87.5C 13.281,88.675 13.6143,89.675 14.5,90.5C 14.8333,90.1667 15.1667,89.8333 15.5,89.5C 14.6336,85.7952 14.9669,82.1285 16.5,78.5C 18.5098,76.8287 20.8431,76.162 23.5,76.5C 23.5,74.8333 23.5,73.1667 23.5,71.5C 25.1667,71.5 26.8333,71.5 28.5,71.5C 28.2852,69.8212 28.9519,68.8212 30.5,68.5 Z"/></g>
<g><path style="opacity:1" fill="#5ea3c8" d="M 30.5,59.5 C 31.1667,59.5 31.5,59.8333 31.5,60.5C 31.0584,69.4025 35.0584,72.7358 43.5,70.5C 43.5,71.5 43.5,72.5 43.5,73.5C 40.796,74.7143 38.1293,74.7143 35.5,73.5C 35.631,72.7611 35.4643,72.0944 35,71.5C 33.6439,72.3802 32.1439,72.7135 30.5,72.5C 30.5,71.1667 30.5,69.8333 30.5,68.5C 30.5,65.5 30.5,62.5 30.5,59.5 Z"/></g>
<g><path style="opacity:1" fill="#f3fafb" d="M 83.5,63.5 C 86.2372,63.4013 88.9039,63.7347 91.5,64.5C 92.7281,65.3065 93.7281,66.3065 94.5,67.5C 96.1353,71.9226 95.1353,75.5893 91.5,78.5C 88.9455,79.388 86.2788,79.7214 83.5,79.5C 82.4884,78.1283 81.4884,76.795 80.5,75.5C 78.7079,70.7922 79.7079,66.7922 83.5,63.5 Z"/></g>
<g><path style="opacity:1" fill="#2078d6" d="M 122.5,59.5 C 122.5,64.8333 122.5,70.1667 122.5,75.5C 121.762,83.297 119.095,90.297 114.5,96.5C 113.699,94.9582 113.366,93.2915 113.5,91.5C 111.5,91.5 109.5,91.5 107.5,91.5C 107.5,93.1667 107.5,94.8333 107.5,96.5C 106.5,96.5 105.5,96.5 104.5,96.5C 104.649,97.552 104.483,98.552 104,99.5C 103.768,98.2625 103.268,97.2625 102.5,96.5C 102.012,94.1914 101.012,92.1914 99.5,90.5C 100.105,88.9743 101.271,87.9743 103,87.5C 103.72,85.8876 103.554,84.3876 102.5,83C 103,82.5 103.5,82 104,81.5C 105.401,83.1922 107.234,83.8588 109.5,83.5C 109.286,79.7429 110.286,79.0762 112.5,81.5C 113.28,78.9319 114.78,76.9319 117,75.5C 117.945,75.9054 118.612,76.572 119,77.5C 119.333,75.8333 119.667,74.1667 120,72.5C 120.333,73.1667 120.667,73.8333 121,74.5C 121.54,72.8654 121.04,71.5321 119.5,70.5C 119.934,66.549 120.934,62.8824 122.5,59.5 Z"/></g>
<g><path style="opacity:1" fill="#a2d0f4" d="M 35.5,73.5 C 38.1293,74.7143 40.796,74.7143 43.5,73.5C 43.5,79.8333 43.5,86.1667 43.5,92.5C 43.189,93.4778 42.5223,94.1445 41.5,94.5C 39.4706,94.1972 37.4706,93.8638 35.5,93.5C 35.5,92.5 35.5,91.5 35.5,90.5C 35.5,84.8333 35.5,79.1667 35.5,73.5 Z"/></g>
<g><path style="opacity:1" fill="#a0d0f0" d="M 59.5,55.5 C 62.1293,56.7143 64.796,56.7143 67.5,55.5C 67.5,59.1667 67.5,62.8333 67.5,66.5C 66.5104,72.31 66.1771,78.31 66.5,84.5C 65.1779,84.67 64.0113,84.3366 63,83.5C 63.0534,85.9359 62.8867,88.2692 62.5,90.5C 61.7724,86.6339 60.7724,82.9673 59.5,79.5C 59.5,71.5 59.5,63.5 59.5,55.5 Z"/></g>
<g><path style="opacity:1" fill="#3b9add" d="M 56.5,49.5 C 57.1667,50.8333 58.1667,51.8333 59.5,52.5C 59.5,53.5 59.5,54.5 59.5,55.5C 59.5,63.5 59.5,71.5 59.5,79.5C 59.5,86.5 59.5,93.5 59.5,100.5C 58.7784,100.082 58.2784,99.4158 58,98.5C 57.6667,93.8333 57.3333,89.1667 57,84.5C 52.8749,88.7502 50.3749,93.7502 49.5,99.5C 47.396,99.2011 45.396,99.5344 43.5,100.5C 42.8973,101.635 42.5639,102.635 42.5,103.5C 40.3591,103.112 38.3591,103.112 36.5,103.5C 36.3019,106.785 34.6352,108.452 31.5,108.5C 31.7678,110.099 31.4345,111.432 30.5,112.5C 26.5442,110.212 23.2109,107.212 20.5,103.5C 22.451,103.227 23.951,103.893 25,105.5C 26.7172,104.012 27.8839,102.179 28.5,100C 29.8989,99.4054 31.2322,99.5721 32.5,100.5C 33.8692,98.2361 34.8692,95.9028 35.5,93.5C 37.4706,93.8638 39.4706,94.1972 41.5,94.5C 42.5223,94.1445 43.189,93.4778 43.5,92.5C 45.22,90.3419 46.0533,87.6752 46,84.5C 54.9738,81.5486 57.8072,75.5486 54.5,66.5C 55.0192,61.5976 55.6858,56.7643 56.5,52C 56.2716,51.6012 55.9382,51.4346 55.5,51.5C 55.3284,50.5084 55.6618,49.8417 56.5,49.5 Z"/></g>
<g><path style="opacity:1" fill="#7899be" d="M 91.5,78.5 C 91.5,79.5 91.5,80.5 91.5,81.5C 90.8333,81.5 90.5,81.8333 90.5,82.5C 88.3792,82.6747 86.3792,82.3414 84.5,81.5C 84.1667,81.5 83.8333,81.5 83.5,81.5C 83.5,80.8333 83.5,80.1667 83.5,79.5C 86.2788,79.7214 88.9455,79.388 91.5,78.5 Z"/></g>
<g><path style="opacity:1" fill="#96c7f0" d="M 67.5,66.5 C 67.5,76.1667 67.5,85.8333 67.5,95.5C 68.822,100.993 66.822,103.493 61.5,103C 60.6195,102.292 59.9528,101.458 59.5,100.5C 59.5,93.5 59.5,86.5 59.5,79.5C 60.7724,82.9673 61.7724,86.6339 62.5,90.5C 62.8867,88.2692 63.0534,85.9359 63,83.5C 64.0113,84.3366 65.1779,84.67 66.5,84.5C 66.1771,78.31 66.5104,72.31 67.5,66.5 Z"/></g>
<g><path style="opacity:1" fill="#318edb" d="M 80.5,75.5 C 81.4884,76.795 82.4884,78.1283 83.5,79.5C 83.5,80.1667 83.5,80.8333 83.5,81.5C 83.5,84.8333 83.5,88.1667 83.5,91.5C 82.8347,89.3021 82.1681,86.9688 81.5,84.5C 80.7702,85.9337 79.7702,87.1004 78.5,88C 79.3366,89.0113 79.67,90.1779 79.5,91.5C 78.1779,91.67 77.0113,91.3366 76,90.5C 75.2219,95.0469 73.2219,96.0469 70,93.5C 69.9757,97.8818 68.809,101.882 66.5,105.5C 64.3052,106.769 62.1385,106.769 60,105.5C 58.7727,107.726 56.9393,109.226 54.5,110C 56.6857,110.604 56.8524,111.77 55,113.5C 53.9887,114.337 52.8221,114.67 51.5,114.5C 51.5,115.833 51.5,117.167 51.5,118.5C 49.4352,118.517 47.4352,118.85 45.5,119.5C 42.1563,118.492 38.8229,117.492 35.5,116.5C 34.0158,114.926 32.3492,113.593 30.5,112.5C 31.4345,111.432 31.7678,110.099 31.5,108.5C 34.6352,108.452 36.3019,106.785 36.5,103.5C 38.3591,103.112 40.3591,103.112 42.5,103.5C 42.5639,102.635 42.8973,101.635 43.5,100.5C 45.396,99.5344 47.396,99.2011 49.5,99.5C 50.3749,93.7502 52.8749,88.7502 57,84.5C 57.3333,89.1667 57.6667,93.8333 58,98.5C 58.2784,99.4158 58.7784,100.082 59.5,100.5C 59.9528,101.458 60.6195,102.292 61.5,103C 66.822,103.493 68.822,100.993 67.5,95.5C 68.3475,87.9943 69.0141,80.3276 69.5,72.5C 71.1238,72.6399 72.2904,71.9733 73,70.5C 73.3076,71.3081 73.8076,71.9747 74.5,72.5C 75.5237,71.1468 76.857,70.4802 78.5,70.5C 78.1201,72.698 78.7868,74.3646 80.5,75.5 Z"/></g>
<g><path style="opacity:1" fill="#3ea3e1" d="M 35.5,90.5 C 35.5,91.5 35.5,92.5 35.5,93.5C 34.8692,95.9028 33.8692,98.2361 32.5,100.5C 31.2322,99.5721 29.8989,99.4054 28.5,100C 27.8839,102.179 26.7172,104.012 25,105.5C 23.951,103.893 22.451,103.227 20.5,103.5C 17.1385,101.105 14.4719,98.1051 12.5,94.5C 13.404,93.791 13.7373,92.791 13.5,91.5C 15.5,91.5 17.5,91.5 19.5,91.5C 19.5,90.1667 19.5,88.8333 19.5,87.5C 20.8333,87.5 22.1667,87.5 23.5,87.5C 23.5,86.5 23.5,85.5 23.5,84.5C 25.5,83.8333 27.5,83.1667 29.5,82.5C 29.281,81.325 29.6143,80.325 30.5,79.5C 33.6796,82.5619 35.3463,86.2285 35.5,90.5 Z"/></g>
<g><path style="opacity:1" fill="#8ec8fb" d="M 83.5,81.5 C 83.8333,81.5 84.1667,81.5 84.5,81.5C 84.3367,83.8568 84.5034,86.1902 85,88.5C 86.194,90.5254 87.694,90.8587 89.5,89.5C 90.4742,87.2573 90.8076,84.924 90.5,82.5C 90.5,81.8333 90.8333,81.5 91.5,81.5C 91.5,84.1667 91.5,86.8333 91.5,89.5C 91.5,90.8333 91.5,92.1667 91.5,93.5C 89.5294,93.8638 87.5294,94.1972 85.5,94.5C 84.0815,93.9953 83.4148,92.9953 83.5,91.5C 83.5,88.1667 83.5,84.8333 83.5,81.5 Z"/></g>
<g><path style="opacity:1" fill="#9fc7ee" d="M 84.5,81.5 C 86.3792,82.3414 88.3792,82.6747 90.5,82.5C 90.8076,84.924 90.4742,87.2573 89.5,89.5C 87.694,90.8587 86.194,90.5254 85,88.5C 84.5034,86.1902 84.3367,83.8568 84.5,81.5 Z"/></g>
<g><path style="opacity:1" fill="#2179d8" d="M 99.5,90.5 C 101.012,92.1914 102.012,94.1914 102.5,96.5C 100.952,96.8212 100.285,97.8212 100.5,99.5C 96.8649,99.6556 96.5315,100.822 99.5,103C 94.2593,104.854 92.0927,108.354 93,113.5C 91.6883,111.342 90.0217,111.009 88,112.5C 87.2568,114.874 87.7568,116.874 89.5,118.5C 84.6363,118.679 79.9697,119.679 75.5,121.5C 74.3915,120.71 73.0581,120.21 71.5,120C 72.1905,118.933 72.6905,117.766 73,116.5C 75.1303,115.859 76.6303,114.526 77.5,112.5C 78.6888,111.571 80.0222,111.238 81.5,111.5C 82.3103,109.202 83.1436,106.868 84,104.5C 86.0693,103.736 88.236,103.236 90.5,103C 89.9056,102.536 89.2389,102.369 88.5,102.5C 89.209,101.596 90.209,101.263 91.5,101.5C 91.5,100.5 91.5,99.5 91.5,98.5C 92.3091,96.7078 92.8091,94.7078 93,92.5C 93.414,92.9574 93.914,93.2907 94.5,93.5C 95.9047,92.0063 97.5713,91.0063 99.5,90.5 Z"/></g>
<g><path style="opacity:0.996" fill="#196aae" d="M 4.5,75.5 C 6.0321,78.7649 7.36543,82.0982 8.5,85.5C 9.56123,88.6223 10.8946,91.6223 12.5,94.5C 14.4719,98.1051 17.1385,101.105 20.5,103.5C 23.2109,107.212 26.5442,110.212 30.5,112.5C 32.3492,113.593 34.0158,114.926 35.5,116.5C 35.5,116.833 35.5,117.167 35.5,117.5C 22.0383,110.869 12.5383,100.536 7,86.5C 5.4383,82.9855 4.60496,79.3189 4.5,75.5 Z"/></g>
<g><path style="opacity:1" fill="#257fda" d="M 88.5,102.5 C 89.2389,102.369 89.9056,102.536 90.5,103C 88.236,103.236 86.0693,103.736 84,104.5C 83.1436,106.868 82.3103,109.202 81.5,111.5C 80.0222,111.238 78.6888,111.571 77.5,112.5C 76.6303,114.526 75.1303,115.859 73,116.5C 72.6905,117.766 72.1905,118.933 71.5,120C 73.0581,120.21 74.3915,120.71 75.5,121.5C 72.7628,121.401 70.0961,121.735 67.5,122.5C 67.6495,121.448 67.4828,120.448 67,119.5C 62.4971,116.989 62.4971,115.322 67,114.5C 67.3333,112.5 67.6667,110.5 68,108.5C 70.2403,106.972 71.907,104.972 73,102.5C 73.3333,103.167 73.6667,103.833 74,104.5C 78.3434,100.129 80.6767,94.796 81,88.5C 82.4381,91.8211 82.6048,95.1544 81.5,98.5C 82.5217,101.987 84.855,103.32 88.5,102.5 Z"/></g>
<g><path style="opacity:1" fill="#2b84d9" d="M 83.5,91.5 C 83.4148,92.9953 84.0815,93.9953 85.5,94.5C 87.5294,94.1972 89.5294,93.8638 91.5,93.5C 91.5,95.1667 91.5,96.8333 91.5,98.5C 91.5,99.5 91.5,100.5 91.5,101.5C 90.209,101.263 89.209,101.596 88.5,102.5C 84.855,103.32 82.5217,101.987 81.5,98.5C 82.6048,95.1544 82.4381,91.8211 81,88.5C 80.6767,94.796 78.3434,100.129 74,104.5C 73.6667,103.833 73.3333,103.167 73,102.5C 71.907,104.972 70.2403,106.972 68,108.5C 67.6667,110.5 67.3333,112.5 67,114.5C 62.4971,115.322 62.4971,116.989 67,119.5C 67.4828,120.448 67.6495,121.448 67.5,122.5C 59.8228,123.02 52.4895,122.02 45.5,119.5C 47.4352,118.85 49.4352,118.517 51.5,118.5C 51.5,117.167 51.5,115.833 51.5,114.5C 52.8221,114.67 53.9887,114.337 55,113.5C 56.8524,111.77 56.6857,110.604 54.5,110C 56.9393,109.226 58.7727,107.726 60,105.5C 62.1385,106.769 64.3052,106.769 66.5,105.5C 68.809,101.882 69.9757,97.8818 70,93.5C 73.2219,96.0469 75.2219,95.0469 76,90.5C 77.0113,91.3366 78.1779,91.67 79.5,91.5C 79.67,90.1779 79.3366,89.0113 78.5,88C 79.7702,87.1004 80.7702,85.9337 81.5,84.5C 82.1681,86.9688 82.8347,89.3021 83.5,91.5 Z"/></g>
<g><path style="opacity:1" fill="#206fcf" d="M 114.5,96.5 C 108.635,106.702 100.301,114.036 89.5,118.5C 87.7568,116.874 87.2568,114.874 88,112.5C 90.0217,111.009 91.6883,111.342 93,113.5C 92.0927,108.354 94.2593,104.854 99.5,103C 96.5315,100.822 96.8649,99.6556 100.5,99.5C 100.285,97.8212 100.952,96.8212 102.5,96.5C 103.268,97.2625 103.768,98.2625 104,99.5C 104.483,98.552 104.649,97.552 104.5,96.5C 105.5,96.5 106.5,96.5 107.5,96.5C 107.5,94.8333 107.5,93.1667 107.5,91.5C 109.5,91.5 111.5,91.5 113.5,91.5C 113.366,93.2915 113.699,94.9582 114.5,96.5 Z"/></g>
<g><path style="opacity:0.85" fill="#1c60b2" d="M 35.5,116.5 C 38.8229,117.492 42.1563,118.492 45.5,119.5C 52.4895,122.02 59.8228,123.02 67.5,122.5C 70.0961,121.735 72.7628,121.401 75.5,121.5C 79.9697,119.679 84.6363,118.679 89.5,118.5C 81.5723,123.156 72.9056,125.156 63.5,124.5C 53.2907,125.197 43.9574,122.864 35.5,117.5C 35.5,117.167 35.5,116.833 35.5,116.5 Z"/></g>
</svg>
