<svg xmlns="http://www.w3.org/2000/svg" width="256" height="255" style="shape-rendering:geometricPrecision;text-rendering:geometricPrecision;image-rendering:optimizeQuality;fill-rule:evenodd;clip-rule:evenodd"><path fill="#2b2c2b" d="M251.5 43.5c-2.189-1.724-3.356-4.058-3.5-7-.811-1.46-1.645-1.793-2.5-1a55.72 55.72 0 0 1 4.5 14c.5 31.665.667 63.332.5 95-.821 3.141-1.321 6.475-1.5 10-.667-2.667-1.333-2.667-2 0-.442-2.179-1.442-2.845-3-2-1.487-.753-1.654-1.586-.5-2.5a7.293 7.293 0 0 0-3-2l1-1c-2.094 1.094-4.427 1.428-7 1l2-1-6-3 1-1a8.192 8.192 0 0 1-4-2.5c.011.941-.489 1.608-1.5 2l-4.5-1.5 2-1a29.517 29.517 0 0 1-4.5-2.5l-1 1c-1.734-2.534-3.9-4.034-6.5-4.5 1.147 1.281.813 1.614-1 1a6.978 6.978 0 0 1-2.5-3.5c-2.374 2.788-3.707 2.454-4-1a11.333 11.333 0 0 0-3.5-1.5l1-1c-1.561-.318-2.728-1.151-3.5-2.5l-1 1a7.293 7.293 0 0 0-2-3c-1.566-.561-2.899.106-4 2-.359-3.044-1.026-3.378-2-1l-2-4a4.934 4.934 0 0 0-.5 3 40.943 40.943 0 0 0-5-7 259.021 259.021 0 0 0 2-17c1.541-7.125 2.541-14.458 3-22 7.433-.635 14.766-1.302 22-2 3.52-.683 6.02-2.683 7.5-6a30.485 30.485 0 0 0 0-11c-1.451-1.964-3.284-3.297-5.5-4-.709-.904-1.709-1.237-3-1a625.626 625.626 0 0 0-50-1h-31c.796 8.443 4.796 14.776 12 19 3.16 2.5 6.827 3.833 11 4h14a104.653 104.653 0 0 0-1 9 3800.833 3800.833 0 0 1-3 16 34.357 34.357 0 0 0-11-2.5c-8.327-.5-16.66-.666-25-.5 3.812-.824 7.812-1.324 12-1.5-2.5-1.833-4.667-4-6.5-6.5a4.458 4.458 0 0 1-1.5 2c-2.97-1.137-5.136-3.137-6.5-6-1.827 1.162-3.494.828-5-1-1.162.687-2.328.853-3.5.5a18.593 18.593 0 0 1-3.5-6.5c-5.916.591-11.582-.742-17-4l-1 2c-1.115-2.408-2.782-4.408-5-6-3.39.62-5.057-1.047-5-5l-1 1c-1.171-1.393-2.671-2.227-4.5-2.5 1.154-.914.987-1.747-.5-2.5-.414.457-.914.79-1.5 1-3.008-.244-5.841-1.577-8.5-4l-1 1c-1.044-1.123-1.71-2.456-2-4-2.09 1-3.757.333-5-2l-1 2c-2.137-1.526-3.304-3.193-3.5-5-1.299.59-2.132 1.59-2.5 3l-2-4c-.718.95-1.55 1.117-2.5.5a51.272 51.272 0 0 0-4.5-5.5c-2.483.633-4.816-.034-7-2l-1 1a4.932 4.932 0 0 1-.5-3c-5.083.873-8.917-1.127-11.5-6-1.716 1.052-2.716.386-3-2-1.566-.56-2.899.106-4 2a7.291 7.291 0 0 0-2-3 598.817 598.817 0 0 1-5.5 8 9.818 9.818 0 0 1-3 4c1.096-5.451 3.263-10.451 6.5-15 11.467-14.57 26.467-22.903 45-25 41.753.543 83.753.543 126 0 14.709-1.09 28.876 1.077 42.5 6.5 14.304 7.127 23.638 18.294 28 33.5Z" style="opacity:1"/><path fill="#252524" d="M123.5 97.5c-23.101 2.152-44.1-3.348-63-16.5a436.248 436.248 0 0 0-19-16.5c.065-.438-.101-.772-.5-1-3.314 18.953-3.314 37.953 0 57 2.81 13.297 8.977 24.63 18.5 34a35.903 35.903 0 0 0 8 6c7.786 5.26 16.453 7.927 26 8 5.203 1.257 10.536 1.257 16 0 6.968-.46 13.634-1.793 20-4a446.684 446.684 0 0 1 17-2h4a196.9 196.9 0 0 1-3 24h-36c.482 5.149 2.482 9.482 6 13 1.733 4.065 4.733 6.732 9 8 .418.722 1.084 1.222 2 1.5 2.982.498 5.982.665 9 .5 18.508.33 36.841-.003 55-1 2.004-1.173 3.504-2.84 4.5-5 2.474-7.88-.026-13.38-7.5-16.5l-18-1a377.206 377.206 0 0 0 3-21.5c.473-1.406 1.473-2.073 3-2 4.559.211 9.059.878 13.5 2 1.07-.028 1.903-.361 2.5-1v-7a107.34 107.34 0 0 0-7-33 4.934 4.934 0 0 1 .5-3l2 4c.974-2.378 1.641-2.044 2 1 1.101-1.894 2.434-2.561 4-2a7.293 7.293 0 0 1 2 3l1-1c.772 1.349 1.939 2.182 3.5 2.5l-1 1c1.266.309 2.433.809 3.5 1.5.293 3.454 1.626 3.788 4 1a6.978 6.978 0 0 0 2.5 3.5c1.813.614 2.147.281 1-1 2.6.466 4.766 1.966 6.5 4.5l1-1a29.517 29.517 0 0 0 4.5 2.5l-2 1 4.5 1.5c1.011-.392 1.511-1.059 1.5-2a8.192 8.192 0 0 0 4 2.5l-1 1 6 3-2 1c2.573.428 4.906.094 7-1l-1 1a7.293 7.293 0 0 1 3 2c-1.154.914-.987 1.747.5 2.5 1.558-.845 2.558-.179 3 2 .667-2.667 1.333-2.667 2 0 .179-3.525.679-6.859 1.5-10 .167 19.669 0 39.336-.5 59-4.98 27.147-21.147 42.48-48.5 46-3.478.316-6.812-.184-10-1.5l1-3-3-1 1-1c-2.274.387-4.441.554-6.5.5-2.22-3.102-4.554-5.435-7-7-.914 3.685-1.581 3.352-2-1-.388.928-1.055 1.595-2 2-3.529-1.528-5.529-4.194-6-8l-1 2c-1.333-1.333-2.667-1.333-4 0-1.985-.916-3.985-2.583-6-5l-1 1-3-4c-1.183 1.231-2.349 1.231-3.5 0-.59-1.299-1.59-2.132-3-2.5l1-1c-2.59-2.289-4.423-1.789-5.5 1.5a34.35 34.35 0 0 1-7-7l-1 2c-.635-3.602-1.968-4.268-4-2-.741-1.141-1.575-1.141-2.5 0-3.414-3.921-8.08-6.755-14-8.5 2.563-.763 2.563-1.263 0-1.5-1.147.318-1.981.984-2.5 2-1.368-1.527-1.868-3.027-1.5-4.5-2.124-1.582-4.29-1.749-6.5-.5a14.583 14.583 0 0 0-4-6c-1.343.714-2.676.38-4-1-.837 1.507-2.004 2.007-3.5 1.5l1-1a129.1 129.1 0 0 1-3-2 3.942 3.942 0 0 1 1-2c-2.93-1.659-5.93-1.992-9-1-1.321-3.007-2.821-5.174-4.5-6.5-.57 3.861-1.402 3.861-2.5 0-1.216.502-2.383.835-3.5 1-.5-1.167-1.333-2-2.5-2.5l2-1-9-4.5c-1.764 2.677-2.93 2.344-3.5-1-1.61.65-3.11.15-4.5-1.5 3.69-.424 3.857-1.258.5-2.5a6.544 6.544 0 0 0-3 3l-1-3-1 1c-1.11-1.743-2.61-3.076-4.5-4 1.355-1.175 1.188-2.175-.5-3a67.714 67.714 0 0 1-2 4 16.199 16.199 0 0 1-3.5-1.5c2.378-.974 2.044-1.641-1-2a9.465 9.465 0 0 1-1.5-2.5c-1.398.551-2.732.884-4 1a14.743 14.743 0 0 0-4.5-3c1.355-1.175 1.188-2.175-.5-3-.974 2.378-1.641 2.044-2-1l-1 2-2-6a9.568 9.568 0 0 1-3 3c-3.098-1.428-5.098-3.762-6-7a8.908 8.908 0 0 0-3 4c-.317-1.801-.984-2.134-2-1-1.15-15.02-1.984-30.02-2.5-45-.167-18.336 0-36.67.5-55A60.225 60.225 0 0 1 7.5 41c-.07-.765-.403-1.265-1-1.5a598.817 598.817 0 0 0 5.5-8 7.291 7.291 0 0 1 2 3c1.101-1.894 2.434-2.56 4-2 .284 2.386 1.284 3.052 3 2 2.583 4.873 6.417 6.873 11.5 6a4.932 4.932 0 0 0 .5 3l1-1c2.184 1.966 4.517 2.633 7 2a51.272 51.272 0 0 1 4.5 5.5c.95.617 1.782.45 2.5-.5l2 4c.368-1.41 1.201-2.41 2.5-3 .196 1.807 1.363 3.474 3.5 5l1-2c1.243 2.333 2.91 3 5 2 .29 1.544.956 2.877 2 4l1-1c2.659 2.423 5.492 3.756 8.5 4a3.646 3.646 0 0 0 1.5-1c1.487.753 1.654 1.586.5 2.5 1.829.273 3.329 1.107 4.5 2.5l1-1c-.057 3.953 1.61 5.62 5 5 2.218 1.592 3.885 3.592 5 6l1-2c5.418 3.258 11.084 4.591 17 4a18.593 18.593 0 0 0 3.5 6.5c1.172.353 2.338.187 3.5-.5 1.506 1.828 3.173 2.162 5 1 1.364 2.863 3.53 4.863 6.5 6a4.458 4.458 0 0 0 1.5-2c1.833 2.5 4 4.667 6.5 6.5-4.188.176-8.188.676-12 1.5Z" style="opacity:1"/><path fill="#505050" d="M251.5 43.5a41.498 41.498 0 0 1 4 12v9a780.514 780.514 0 0 1-4-21Z" style="opacity:1"/><path fill="#535353" d="M3.5 43.5C.838 58.72.005 74.72 1 91.5c-.278.916-.778 1.582-1.5 2v-35a77.069 77.069 0 0 1 4-15Z" style="opacity:1"/><path fill="#424242" d="M255.5 65.5v75c-2.525-12.455-2.858-24.955-1-37.5a1825.571 1825.571 0 0 0-.5-36.5c.383-.556.883-.89 1.5-1Z" style="opacity:1"/><path fill="#535353" d="M-.5 104.5a19.618 19.618 0 0 1 2 3.5 828.508 828.508 0 0 0 0 45c-.336 1.03-1.003 1.53-2 1.5v-50Z" style="opacity:1"/><path fill="#474747" d="M255.5 141.5v52c-1.746-.749-2.746-2.083-3-4 .72-3.489 1.387-6.989 2-10.5a169.658 169.658 0 0 1-1-23c.534-4.996 1.2-9.83 2-14.5Z" style="opacity:1"/><path fill="#4e4e4e" d="M255.5 194.5v14c-1.97 8.637-5.136 16.971-9.5 25a28.65 28.65 0 0 1-7.5 8c-.111-.617-.444-1.117-1-1.5l5-4-1-1 3-2.5c6.983-11.452 10.15-23.785 9.5-37 .383-.556.883-.889 1.5-1Z" style="opacity:1"/><path fill="#434343" d="M-.5 155.5c1.15.291 1.816 1.124 2 2.5 1.614 6.265 1.28 12.265-1 18l2 1c-.74 1.765-.74 3.765 0 6l-2 2c1.333 5.333 1.333 10.667 0 16a237.49 237.49 0 0 0 7 27.5c-1.29-.558-2.123-1.558-2.5-3-2.55-6.908-4.384-13.575-5.5-20v-50Z" style="opacity:1"/><path fill="#060606" d="M251.5 43.5a780.514 780.514 0 0 0 4 21v1c-.617.11-1.117.444-1.5 1 .289 12.228.456 24.394.5 36.5-1.858 12.545-1.525 25.045 1 37.5v1c-.8 4.67-1.466 9.504-2 14.5-.19 7.626.143 15.293 1 23a348.684 348.684 0 0 1-2 10.5c.254 1.917 1.254 3.251 3 4v1c-.617.111-1.117.444-1.5 1 .65 13.215-2.517 25.548-9.5 37l-3 2.5 1 1-5 4c.556.383.889.883 1 1.5-5.139 1.471-9.139 4.471-12 9l-5 4h-184c-1.403-1.431-3.07-2.598-5-3.5a8.43 8.43 0 0 0-4-.5 19.83 19.83 0 0 1-3-5.5c-.95-.617-1.782-.451-2.5.5a14.729 14.729 0 0 0-1.5-5c-3.411-.59-6.411-1.923-9-4 .11-.617.444-1.117 1-1.5a53.847 53.847 0 0 1-6-6.5 237.49 237.49 0 0 1-7-27.5c1.333-5.333 1.333-10.667 0-16l2-2c-.74-2.235-.74-4.235 0-6l-2-1c2.28-5.735 2.614-11.735 1-18-.184-1.376-.85-2.209-2-2.5v-1c.997.03 1.664-.47 2-1.5a828.508 828.508 0 0 1 0-45 19.618 19.618 0 0 0-2-3.5v-11c.722-.418 1.222-1.084 1.5-2-.995-16.78-.162-32.78 2.5-48a9.818 9.818 0 0 0 3-4c.597.235.93.735 1 1.5A60.225 60.225 0 0 0 5 52.5c-.5 18.33-.667 36.664-.5 55a1741.24 1741.24 0 0 0 1.5 100c6.702 24.369 22.535 38.535 47.5 42.5 49.502.832 98.835.665 148-.5 27.353-3.52 43.52-18.853 48.5-46 .5-19.664.667-39.331.5-59 .167-31.668 0-63.335-.5-95a55.72 55.72 0 0 0-4.5-14c.855-.793 1.689-.46 2.5 1 .144 2.942 1.311 5.276 3.5 7Z" style="opacity:1"/><path fill="#aacb31" d="M146.5 162.5c5.14-.988 10.474-1.321 16-1a815.392 815.392 0 0 1-25 48 40.914 40.914 0 0 1-9-.5c-.916-.278-1.582-.778-2-1.5-.111-.617-.444-1.117-1-1.5a431.249 431.249 0 0 0 9-17.5c4.482-.667 8.816-1.334 13-2a196.9 196.9 0 0 0 3-24h-4Z" style="opacity:1"/><path fill="#8fbc38" d="M130.5 186.5h17c-4.184.666-8.518 1.333-13 2a431.249 431.249 0 0 1-9 17.5c.556.383.889.883 1 1.5-4.267-1.268-7.267-3.935-9-8 1.995-3.636 3.995-7.303 6-11a246.697 246.697 0 0 0 7-2Z" style="opacity:1"/><path fill="#77ad3e" d="M130.5 186.5a246.697 246.697 0 0 1-7 2 2561.437 2561.437 0 0 1-6 11c-3.518-3.518-5.518-7.851-6-13h19Z" style="opacity:1"/><path fill="#dce420" d="M174.5 164.5a377.206 377.206 0 0 1-3 21.5l18 1c7.474 3.12 9.974 8.62 7.5 16.5-.996 2.16-2.496 3.827-4.5 5-14.004.167-28.004 0-42-.5a850.526 850.526 0 0 0 22-42.5c.457-.798 1.124-1.131 2-1Z" style="opacity:1"/><path fill="#c5db27" d="M162.5 161.5h7c2.885-.306 5.552.027 8 1-1.527-.073-2.527.594-3 2-.876-.131-1.543.202-2 1a850.526 850.526 0 0 1-22 42.5c13.996.5 27.996.667 42 .5a756.853 756.853 0 0 1-55 1 815.392 815.392 0 0 0 25-48Z" style="opacity:1"/><path fill="#669e55" d="M178.5 130.5h1c6.765 7.529 11.431 16.196 14 26v7c-4.329-6.007-9.995-10.34-17-13a41.73 41.73 0 0 0 1-9 49.369 49.369 0 0 0 1-11Z" style="opacity:1"/><path fill="#e3e819" d="M166.5 148.5c3.469.047 6.802.713 10 2 7.005 2.66 12.671 6.993 17 13-.597.639-1.43.972-2.5 1a67.767 67.767 0 0 0-13.5-2c-2.448-.973-5.115-1.306-8-1-4.517-.666-9.183-1.333-14-2a67.254 67.254 0 0 0 4.5-10c2.041-.923 4.208-1.256 6.5-1Z" style="opacity:1"/><path fill="#c5dd3c" d="M153.5 146.5c1.599-.268 2.932.066 4 1a144.841 144.841 0 0 0-24 1c-1.759 5.082-4.092 10.249-7 15.5a4.934 4.934 0 0 0 3 .5c-6.366 2.207-13.032 3.54-20 4-.912-1.238-1.079-2.572-.5-4a173.597 173.597 0 0 0 7.5-16 277.629 277.629 0 0 1 37-2Z" style="opacity:1"/><path fill="#bbde48" d="M95.5 148.5h21a173.597 173.597 0 0 1-7.5 16c-.579 1.428-.412 2.762.5 4-5.464 1.257-10.797 1.257-16 0a112.088 112.088 0 0 0-5-2c2.83-6.274 5.164-12.274 7-18Z" style="opacity:1"/><path fill="#d5e52a" d="M157.5 147.5c3.213-.31 6.213.023 9 1-2.292-.256-4.459.077-6.5 1a67.254 67.254 0 0 1-4.5 10c4.817.667 9.483 1.334 14 2h-7c-5.526-.321-10.86.012-16 1a446.684 446.684 0 0 0-17 2 4.934 4.934 0 0 1-3-.5c2.908-5.251 5.241-10.418 7-15.5a144.841 144.841 0 0 1 24-1Z" style="opacity:1"/><path fill="#b1d756" d="M75.5 144.5a51.56 51.56 0 0 0 7 1 99.435 99.435 0 0 0 13 3c-1.836 5.726-4.17 11.726-7 18 1.791.67 3.458 1.337 5 2-9.547-.073-18.214-2.74-26-8a52.244 52.244 0 0 1 4.5-13c.422-1.926 1.59-2.926 3.5-3Z" style="opacity:1"/><path fill="#7fac50" d="M155.5 136.5v3c5.079-1.03 10.079-.864 15 .5l-3 1c1.718.346 3.385.846 5 1.5l1-2a6.846 6.846 0 0 0 4 1 41.73 41.73 0 0 1-1 9 27.555 27.555 0 0 0-10-2c-2.787-.977-5.787-1.31-9-1-1.068-.934-2.401-1.268-4-1a29.23 29.23 0 0 0 1-9c0-.667.333-1 1-1Z" style="opacity:1"/><path fill="#4c9968" d="M154.5 137.5a29.23 29.23 0 0 1-1 9 277.629 277.629 0 0 0-37 2h-21a99.435 99.435 0 0 1-13-3 284.047 284.047 0 0 1 24-1.5c-3.2-.101-6.2-.768-9-2 1.558-.21 2.891-.71 4-1.5 8.362.165 16.695-.168 25-1 9.448-1.216 18.781-1.883 28-2Z" style="opacity:1"/><path fill="#3f9e7d" d="M53.5 125.5c2.65 1.64 5.316 3.307 8 5 8.394 5.798 17.728 8.798 28 9 3.798.983 7.798 1.317 12 1-1.109.79-2.442 1.29-4 1.5 2.8 1.232 5.8 1.899 9 2-8.177.171-16.177.671-24 1.5a51.56 51.56 0 0 1-7-1l-10-5c-5.064-3.733-9.064-8.399-12-14Z" style="opacity:1"/><path fill="#a5d764" d="m65.5 139.5 10 5c-1.91.074-3.078 1.074-3.5 3a52.244 52.244 0 0 0-4.5 13 35.903 35.903 0 0 1-8-6c-1.135-2.245-1.635-4.578-1.5-7l1 1a17.017 17.017 0 0 1 3.5-8c.825-.886 1.825-1.219 3-1Z" style="opacity:1"/><path fill="#085b4b" d="M181.5 116.5a40.943 40.943 0 0 1 5 7 107.34 107.34 0 0 1 7 33c-2.569-9.804-7.235-18.471-14-26a21.435 21.435 0 0 1 1-7 21.435 21.435 0 0 1 1-7Z" style="opacity:1"/><path fill="#82a530" d="M159.5 109.5v5c3.533.005 6.7 1.005 9.5 3l1-1c.759 1.563 1.926 2.563 3.5 3a31.895 31.895 0 0 0 4.5 5 11.123 11.123 0 0 0 2.5-1 21.435 21.435 0 0 0-1 7h-1c-5.63-6.227-12.63-10.227-21-12 .358-3.189 1.025-6.189 2-9Z" style="opacity:1"/><path fill="#85c667" d="M157.5 118.5c8.37 1.773 15.37 5.773 21 12a49.369 49.369 0 0 1-1 11 6.846 6.846 0 0 1-4-1l-1 2a28.043 28.043 0 0 0-5-1.5l3-1c-4.921-1.364-9.921-1.53-15-.5v-3a168.298 168.298 0 0 1 2-18Z" style="opacity:1"/><path fill="#5bb37a" d="M152.5 117.5a20.69 20.69 0 0 0 5 1 168.298 168.298 0 0 0-2 18c-.667 0-1 .333-1 1-9.219.117-18.552.784-28 2 2.454-1.121 5.121-1.954 8-2.5l-8-1a526.023 526.023 0 0 0 26-18.5Z" style="opacity:1"/><path fill="#51b888" d="M123.5 114.5c9.81-.217 19.477.783 29 3a526.023 526.023 0 0 1-26 18.5l8 1c-2.879.546-5.546 1.379-8 2.5a209.171 209.171 0 0 1-25 1c-4.202.317-8.202-.017-12-1a77.614 77.614 0 0 0 12-2.5l-10-1a35.165 35.165 0 0 0 10-5 573.774 573.774 0 0 0 22-16.5Z" style="opacity:1"/><path fill="#43bd9d" d="M85.5 108.5a498.55 498.55 0 0 0 38 6 573.774 573.774 0 0 1-22 16.5 35.165 35.165 0 0 1-10 5l10 1a77.614 77.614 0 0 1-12 2.5c-10.272-.202-19.606-3.202-28-9 .817-1.808.15-3.308-2-4.5 1.625-.853 1.958-1.853 1-3 2.098.984 4.098.651 6-1 6.362-4.51 12.696-9.01 19-13.5Z" style="opacity:1"/><path fill="#035f55" d="M159.5 102.5v7c-.975 2.811-1.642 5.811-2 9a20.69 20.69 0 0 1-5-1 116.077 116.077 0 0 0-29-3 498.55 498.55 0 0 1-38-6c-1.171-.845-2.505-1.511-4-2-11.888-3.609-21.222-10.61-28-21-.065-.438.101-.772.5-1 12.335 10.907 26.835 17.407 43.5 19.5l-6 2a67.761 67.761 0 0 1 13-1 43.391 43.391 0 0 0-8 2c5.982 1.5 11.982 1.666 18 .5l3 .5-5 1a55.28 55.28 0 0 0 16-.5l4 .5-7 1a160.755 160.755 0 0 1 28 3.5c2.039-.777 2.705-1.943 2-3.5a924.071 924.071 0 0 0 4-7.5Z" style="opacity:1"/><path fill="#1e1e1e" d="M4.5 107.5c.516 14.98 1.35 29.98 2.5 45 1.016-1.134 1.683-.801 2 1a8.908 8.908 0 0 1 3-4c.902 3.238 2.902 5.572 6 7a9.568 9.568 0 0 0 3-3l2 6 1-2c.359 3.044 1.026 3.378 2 1 1.688.825 1.855 1.825.5 3a14.743 14.743 0 0 1 4.5 3c1.268-.116 2.602-.449 4-1 .374.916.874 1.75 1.5 2.5 3.044.359 3.378 1.026 1 2a16.199 16.199 0 0 0 3.5 1.5 67.714 67.714 0 0 0 2-4c1.688.825 1.855 1.825.5 3 1.89.924 3.39 2.257 4.5 4l1-1 1 3a6.544 6.544 0 0 1 3-3c3.357 1.242 3.19 2.076-.5 2.5 1.39 1.65 2.89 2.15 4.5 1.5.57 3.344 1.736 3.677 3.5 1l9 4.5-2 1c1.167.5 2 1.333 2.5 2.5 1.117-.165 2.284-.498 3.5-1 1.098 3.861 1.93 3.861 2.5 0 1.679 1.326 3.179 3.493 4.5 6.5 3.07-.992 6.07-.659 9 1a3.942 3.942 0 0 0-1 2 129.1 129.1 0 0 0 3 2l-1 1c1.496.507 2.663.007 3.5-1.5 1.324 1.38 2.657 1.714 4 1a14.583 14.583 0 0 1 4 6c2.21-1.249 4.376-1.082 6.5.5-.368 1.473.132 2.973 1.5 4.5.519-1.016 1.353-1.682 2.5-2 2.563.237 2.563.737 0 1.5 5.92 1.745 10.586 4.579 14 8.5.925-1.141 1.759-1.141 2.5 0 2.032-2.268 3.365-1.602 4 2l1-2a34.35 34.35 0 0 0 7 7c1.077-3.289 2.91-3.789 5.5-1.5l-1 1c1.41.368 2.41 1.201 3 2.5 1.151 1.231 2.317 1.231 3.5 0l3 4 1-1c2.015 2.417 4.015 4.084 6 5 1.333-1.333 2.667-1.333 4 0l1-2c.471 3.806 2.471 6.472 6 8 .945-.405 1.612-1.072 2-2 .419 4.352 1.086 4.685 2 1 2.446 1.565 4.78 3.898 7 7 2.059.054 4.226-.113 6.5-.5l-1 1 3 1-1 3c3.188 1.316 6.522 1.816 10 1.5a3654.495 3654.495 0 0 1-148 .5c-24.965-3.965-40.798-18.131-47.5-42.5a1741.24 1741.24 0 0 1-1.5-100Z" style="opacity:1"/><path fill="#016f65" d="M41.5 64.5a436.248 436.248 0 0 1 19 16.5c18.9 13.152 39.899 18.652 63 16.5 8.34-.166 16.673 0 25 .5a34.357 34.357 0 0 1 11 2.5v2a924.071 924.071 0 0 1-4 7.5c.705 1.557.039 2.723-2 3.5a160.755 160.755 0 0 0-28-3.5l7-1-4-.5a55.28 55.28 0 0 1-16 .5l5-1-3-.5c-6.018 1.166-12.018 1-18-.5a43.391 43.391 0 0 1 8-2 67.761 67.761 0 0 0-13 1l6-2c-16.665-2.093-31.165-8.593-43.5-19.5-.399.228-.565.562-.5 1a21.628 21.628 0 0 1-4-5c-2.682-4.702-5.349-9.369-8-14v-2Z" style="opacity:1"/><path fill="#9fc433" d="M183.5 99.5a259.021 259.021 0 0 1-2 17 21.435 21.435 0 0 0-1 7c-.765.423-1.598.757-2.5 1a31.895 31.895 0 0 1-4.5-5 11.596 11.596 0 0 1-.5-7l10-20c.497 2.31.663 4.643.5 7Z" style="opacity:1"/><path fill="#37c7b3" d="M49.5 80.5a21.628 21.628 0 0 0 4 5c6.778 10.39 16.112 17.391 28 21v3c-4.482 1.163-8.316 3.496-11.5 7l-1-1c-2.707 2.908-5.873 3.575-9.5 2-5.99-10.944-9.99-22.61-12-35 .247-1.213.914-1.88 2-2Z" style="opacity:1"/><path fill="#9bce6d" d="M41.5 64.5v2c-.343 20.617 3.657 40.284 12 59 2.936 5.601 6.936 10.267 12 14-1.175-.219-2.175.114-3 1a17.017 17.017 0 0 0-3.5 8l-1-1c-.135 2.422.365 4.755 1.5 7-9.523-9.37-15.69-20.703-18.5-34-3.314-19.047-3.314-38.047 0-57 .399.228.565.562.5 1Z" style="opacity:1"/><path fill="#60732b" d="M187.5 75.5h21c-7.234.698-14.567 1.365-22 2-.172-.992.162-1.658 1-2Z" style="opacity:1"/><path fill="#34baa9" d="M41.5 66.5c2.651 4.631 5.318 9.298 8 14-1.086.12-1.753.787-2 2 2.01 12.39 6.01 24.056 12 35 3.627 1.575 6.793.908 9.5-2l1 1c3.184-3.504 7.018-5.837 11.5-7v-3c1.495.489 2.829 1.155 4 2-6.304 4.49-12.638 8.99-19 13.5-1.902 1.651-3.902 1.984-6 1 .958 1.147.625 2.147-1 3 2.15 1.192 2.817 2.692 2 4.5-2.684-1.693-5.35-3.36-8-5-8.343-18.716-12.343-38.383-12-59Z" style="opacity:1"/><path fill="#b2d02e" d="M210.5 54.5c2.216.703 4.049 2.036 5.5 4a30.485 30.485 0 0 1 0 11c-1.48 3.317-3.98 5.317-7.5 6h-10c2.781-7.918 6.781-14.918 12-21Z" style="opacity:1"/><path fill="#9cc535" d="M197.5 53.5h10c1.291-.237 2.291.096 3 1-5.219 6.082-9.219 13.082-12 21h-11a163.01 163.01 0 0 1 10-22Z" style="opacity:1"/><path fill="#87b93c" d="M186.5 53.5h11a163.01 163.01 0 0 0-10 22c-.838.342-1.172 1.008-1 2-.459 7.542-1.459 14.875-3 22a24.935 24.935 0 0 0-.5-7l-10 20a11.596 11.596 0 0 0 .5 7c-1.574-.437-2.741-1.437-3.5-3l-1 1c-2.8-1.995-5.967-2.995-9.5-3v-9a952.934 952.934 0 0 0 27-52Z" style="opacity:1"/><path fill="#6eac43" d="M186.5 53.5a952.934 952.934 0 0 1-27 52v-5c.994-5.238 1.994-10.572 3-16a1297.516 1297.516 0 0 0 16-30.5 32.438 32.438 0 0 1 8-.5Z" style="opacity:1"/><path fill="#5b9f49" d="M157.5 53.5v-1c16.842-.33 33.508.004 50 1h-21a32.438 32.438 0 0 0-8 .5 1297.516 1297.516 0 0 1-16 30.5c.204-3.018.537-6.018 1-9h-7a178.936 178.936 0 0 1 11-21.5 50.442 50.442 0 0 0-10-.5Z" style="opacity:1"/><path fill="#469751" d="M157.5 53.5c3.35-.165 6.683.002 10 .5a178.936 178.936 0 0 0-11 21.5h-7a30.968 30.968 0 0 0-2-2 139.929 139.929 0 0 0 10-20Z" style="opacity:1"/><path fill="#338b56" d="M157.5 53.5a139.929 139.929 0 0 1-10 20 30.968 30.968 0 0 1 2 2c-4.173-.167-7.84-1.5-11-4a435.215 435.215 0 0 1 9-17.5 50.442 50.442 0 0 1 10-.5Z" style="opacity:1"/><path fill="#1f7c5c" d="M157.5 52.5v1a50.442 50.442 0 0 0-10 .5 435.215 435.215 0 0 0-9 17.5c-7.204-4.224-11.204-10.557-12-19h31Z" style="opacity:1"/><path fill="#707070" d="M7.5 228.5a53.847 53.847 0 0 0 6 6.5c-.556.383-.89.883-1 1.5-2.493-2.158-4.16-4.824-5-8Z" style="opacity:1"/><path fill="#393939" d="M12.5 236.5c2.589 2.077 5.589 3.41 9 4a14.729 14.729 0 0 1 1.5 5c.718-.951 1.55-1.117 2.5-.5a19.83 19.83 0 0 0 3 5.5c-6.89-2.89-12.224-7.557-16-14Z" style="opacity:1"/><path fill="#545454" d="M238.5 241.5c-2.918 4.457-6.918 7.457-12 9 2.861-4.529 6.861-7.529 12-9ZM28.5 250.5a8.43 8.43 0 0 1 4 .5c1.93.902 3.597 2.069 5 3.5h-4a22.755 22.755 0 0 1-5-4Z" style="opacity:1"/></svg>