<svg xmlns="http://www.w3.org/2000/svg" xmlns:xlink="http://www.w3.org/1999/xlink" width="53" height="49" version="1.0"><defs><linearGradient xlink:href="#a" id="A" x1="8.916" x2="9.886" y1="37.197" y2="52.091" gradientTransform="matrix(1.53747 0 0 .47726 4.996 7.023)" gradientUnits="userSpaceOnUse"/><linearGradient id="a"><stop offset="0" style="stop-color:#9aa29a;stop-opacity:1"/><stop offset="1" style="stop-color:#b5beb5;stop-opacity:1"/></linearGradient><linearGradient id="n"><stop offset="0" style="stop-color:#000;stop-opacity:1"/><stop offset="1" style="stop-color:#000;stop-opacity:0"/></linearGradient><linearGradient id="o"><stop offset="0" style="stop-color:#9497b3;stop-opacity:1"/><stop offset="1" style="stop-color:#4c4059;stop-opacity:1"/></linearGradient><linearGradient id="p"><stop offset="0" style="stop-color:#fffffd;stop-opacity:1"/><stop offset="1" style="stop-color:#cbcbc9;stop-opacity:1"/></linearGradient><linearGradient xlink:href="#b" id="E" x1="6.342" x2="22.218" y1="7.789" y2="25.884" gradientUnits="userSpaceOnUse"/><linearGradient id="b"><stop offset="0" style="stop-color:#a0a0a0;stop-opacity:1"/><stop offset="1" style="stop-color:#fff;stop-opacity:1"/></linearGradient><linearGradient xlink:href="#c" id="F" x1="13.037" x2="19.359" y1="8.312" y2="17.323" gradientUnits="userSpaceOnUse"/><linearGradient id="c"><stop offset="0" style="stop-color:#838383;stop-opacity:1"/><stop offset="1" style="stop-color:#000;stop-opacity:1"/></linearGradient><linearGradient xlink:href="#c" id="G" x1="13.037" x2="19.359" y1="-1.588" y2="7.423" gradientUnits="userSpaceOnUse"/><linearGradient xlink:href="#c" id="H" x1="17.987" x2="24.309" y1="3.362" y2="12.373" gradientUnits="userSpaceOnUse"/><linearGradient xlink:href="#c" id="I" x1="8.088" x2="14.409" y1="3.362" y2="12.373" gradientUnits="userSpaceOnUse"/><linearGradient id="q"><stop offset="0" style="stop-color:#f3f4ff;stop-opacity:1"/><stop offset="1" style="stop-color:#9193af;stop-opacity:1"/></linearGradient><linearGradient xlink:href="#d" id="s" x1="11.573" x2="18.475" y1="4.746" y2="26.023" gradientTransform="matrix(.84144 0 0 .87204 4.996 7.023)" gradientUnits="userSpaceOnUse"/><linearGradient id="d"><stop offset="0" style="stop-color:#fff;stop-opacity:1"/><stop offset="1" style="stop-color:#e2e2e2;stop-opacity:1"/></linearGradient><linearGradient xlink:href="#e" id="t" x1="2.062" x2="30.6" y1="15.257" y2="15.257" gradientTransform="matrix(.84144 0 0 .87204 4.996 7.023)" gradientUnits="userSpaceOnUse"/><linearGradient id="e"><stop offset="0" style="stop-color:#989690;stop-opacity:1"/><stop offset="1" style="stop-color:#656460;stop-opacity:1"/></linearGradient><linearGradient xlink:href="#f" id="u" x1="5.827" x2="13.467" y1="7.231" y2="17.877" gradientTransform="matrix(.9837 0 0 .74593 4.996 7.023)" gradientUnits="userSpaceOnUse"/><linearGradient id="f"><stop offset="0" style="stop-color:#ededed;stop-opacity:1"/><stop offset="1" style="stop-color:#c8c8c8;stop-opacity:1"/></linearGradient><linearGradient xlink:href="#h" id="v" x1="10.184" x2="15.311" y1="15.148" y2="29.569" gradientTransform="matrix(1.13944 0 0 .64398 4.996 7.023)" gradientUnits="userSpaceOnUse"/><linearGradient id="h"><stop offset="0" style="stop-color:#fff;stop-opacity:1"/><stop offset="1" style="stop-color:#dcdcdc;stop-opacity:1"/></linearGradient><linearGradient xlink:href="#a" id="w" x1="8.916" x2="9.886" y1="37.197" y2="52.091" gradientTransform="matrix(1.53747 0 0 .47726 4.996 7.023)" gradientUnits="userSpaceOnUse"/><linearGradient xlink:href="#a" id="x" x1="8.916" x2="9.886" y1="37.197" y2="52.091" gradientTransform="matrix(1.53747 0 0 .47726 4.996 7.023)" gradientUnits="userSpaceOnUse"/><linearGradient xlink:href="#i" id="y" x1="11.233" x2="21.112" y1="13.686" y2="24.133" gradientTransform="matrix(.84142 0 0 .87206 4.996 7.023)" gradientUnits="userSpaceOnUse"/><linearGradient id="i"><stop offset="0" style="stop-color:#fff;stop-opacity:1"/><stop offset="1" style="stop-color:#ededed;stop-opacity:1"/></linearGradient><linearGradient xlink:href="#m" id="z" x1="8.78" x2="9.762" y1="37.785" y2="32.203" gradientTransform="matrix(1.5 0 0 .4892 4.996 7.023)" gradientUnits="userSpaceOnUse"/><linearGradient id="m"><stop offset="0" style="stop-color:#000;stop-opacity:.12871288"/><stop offset="1" style="stop-color:#000;stop-opacity:0"/></linearGradient><radialGradient xlink:href="#n" id="B" cx="6.703" cy="73.616" r="7.228" fx="6.703" fy="73.616" gradientTransform="scale(1.90221 .5257)" gradientUnits="userSpaceOnUse"/><radialGradient xlink:href="#o" id="C" cx="8.747" cy="6.828" r="29.89" fx="8.747" fy="6.828" gradientUnits="userSpaceOnUse"/><radialGradient xlink:href="#p" id="D" cx="11.902" cy="10.045" r="29.293" fx="11.902" fy="10.045" gradientUnits="userSpaceOnUse"/><radialGradient xlink:href="#q" id="J" cx="11.329" cy="10.584" r="15.532" fx="11.329" fy="10.584" gradientUnits="userSpaceOnUse"/><radialGradient xlink:href="#n" id="r" cx="6.703" cy="73.616" r="7.228" fx="6.703" fy="73.616" gradientTransform="scale(1.90221 .5257)" gradientUnits="userSpaceOnUse"/></defs><path d="M26.5 38.7a13.75 3.8 0 0 1-13.75 3.8A13.75 3.8 0 0 1-1 38.7a13.75 3.8 0 0 1 13.75-3.8 13.75 3.8 0 0 1 13.75 3.8" style="opacity:.57541899;fill:url(#r)" transform="matrix(1.51133 0 0 1.65752 2.044 -28.453)"/><path d="M7.159 17.268v15.075h23.156l-.038-15.002c-.002-.847-7.42-9.028-8.79-9.028h-5.355c-1.44 0-8.973 8.157-8.973 8.955z" style="fill:url(#s);stroke:url(#t);stroke-width:.63919783;stroke-linejoin:round" transform="translate(-3.144 -6.789)scale(1.34012)"/><path d="M7.528 17.323c-.249-.27 7.445-8.577 8.609-8.577h5.245c1.095 0 8.792 8.222 8.41 8.697l-6.803 8.453-7.712-.2z" style="fill:url(#u)" transform="translate(-3.144 -6.789)scale(1.34012)"/><path d="m15.14 25.609-4.592-5.478 15.544-4.344 1.841 3.78-4.588 6.026" style="fill-opacity:.14619883" transform="translate(-3.144 -6.789)scale(1.34012)"/><path d="m14.649 25.495-4.687-5.517L25.4 15.66l1.988 3.928-4.534 5.892" style="fill-opacity:.14619883" transform="translate(-3.144 -6.789)scale(1.34012)"/><path d="m14.952 25.571-4.807-5.424 15.638-4.425 2 4.035-4.628 5.798" style="fill-opacity:.14619883" transform="translate(-3.144 -6.789)scale(1.34012)"/><path d="m14.838 25.874-4.593-5.478 15.478-4.317 1.854 3.887-4.535 5.892" style="fill:url(#v)" transform="translate(-3.144 -6.789)scale(1.34012)"/><path d="m16.025 25.012-8.39 6.872 8.71-6.015h5.649l7.778 5.938-7.43-6.795z" style="fill:url(#w)" transform="translate(-3.144 -6.789)scale(1.34012)"/><path d="m7.554 17.384 7.212 8.966.67-.535z" style="fill:url(#x)" transform="translate(-3.144 -6.789)scale(1.34012)"/><path d="m7.989 17.456.019 14.02h21.448l-.039-13.944c0-.452-6.884-8.334-8.214-8.334h-4.846c-1.383 0-8.369 7.787-8.368 8.258z" style="fill:none;stroke:url(#y);stroke-width:.63919765" transform="translate(-3.144 -6.789)scale(1.34012)"/><path d="m16.318 25.882-7.479 5.18 1.39.004 6.262-4.303 5.525-.89zm-5.968-5.501.83.883 14.274-4.311 1.731 3.446.404-.446-1.847-3.882z" style="fill:#fff" transform="translate(-3.144 -6.789)scale(1.34012)"/><path d="m11.527 21.612 3.775 4.042.75-.642 6.317.027.508.455 2.49-2.972c-.723-.883-13.84-.91-13.84-.91" style="fill:url(#z)" transform="translate(-3.144 -6.789)scale(1.34012)"/><path d="m29.838 17.358-7.068 8.216.62.612z" style="fill:url(#A)" transform="translate(-10.001 -5.505)scale(1.32299)"/><path d="m29.78 17.314-6.304 8.74.9.795z" style="fill:#fefefe" transform="translate(-10.001 -5.505)scale(1.32299)"/><path d="M26.5 38.7a13.75 3.8 0 0 1-13.75 3.8A13.75 3.8 0 0 1-1 38.7a13.75 3.8 0 0 1 13.75-3.8 13.75 3.8 0 0 1 13.75 3.8" style="opacity:.57541899;fill:url(#B)" transform="matrix(1.19069 0 0 1.32299 17.914 -8.15)"/><path d="M31.16 16.91a14.91 14.91 0 0 1-14.91 14.911 14.91 14.91 0 0 1-14.91-14.91A14.91 14.91 0 0 1 16.25 2a14.91 14.91 0 0 1 14.91 14.91" style="fill:url(#C);stroke:#605773;stroke-width:1.07281601;stroke-linecap:round;stroke-linejoin:round" transform="translate(17.742 15.468)scale(.93213)"/><path d="M31.16 16.91a14.91 14.91 0 0 1-14.91 14.911 14.91 14.91 0 0 1-14.91-14.91A14.91 14.91 0 0 1 16.25 2a14.91 14.91 0 0 1 14.91 14.91" style="fill:url(#D);stroke:url(#E);stroke-width:1.19972134;stroke-linecap:round;stroke-linejoin:round" transform="translate(21.613 19.5)scale(.69012)"/><path d="M16.406 17.281a1.22 1.22 0 0 1-1.218 1.219 1.22 1.22 0 0 1-1.22-1.219 1.22 1.22 0 0 1 1.22-1.218 1.22 1.22 0 0 1 1.218 1.218" style="fill:#f3f3f3;stroke:#000;stroke-width:.70105666;stroke-linecap:round;stroke-linejoin:round" transform="translate(14.8 10.67)scale(1.181)"/><path d="m31.823 26.548-2.071-4.63" style="fill:none;stroke:#000;stroke-width:.62581909;stroke-linecap:round" transform="translate(-10.001 -5.505)scale(1.32299)"/><path d="m29.604 31.54 1.922-2.771" style="fill:none;stroke:#000;stroke-width:.93872845;stroke-linecap:round" transform="translate(-10.001 -5.505)scale(1.32299)"/><path d="M17.324 7.693a.62.62 0 0 1-.619.619.62.62 0 0 1-.618-.619.62.62 0 0 1 .618-.619.62.62 0 0 1 .62.62" style="fill:url(#F)" transform="translate(6.476 11.21)scale(1.57326)"/><path d="M17.324 7.693a.62.62 0 0 1-.619.619.62.62 0 0 1-.618-.619.62.62 0 0 1 .618-.619.62.62 0 0 1 .62.62" style="fill:url(#G)" transform="translate(6.476 26.784)scale(1.57326)"/><path d="M17.324 7.693a.62.62 0 0 1-.619.619.62.62 0 0 1-.618-.619.62.62 0 0 1 .618-.619.62.62 0 0 1 .62.62" style="fill:url(#H)" transform="translate(-1.311 18.997)scale(1.57326)"/><path d="M17.324 7.693a.62.62 0 0 1-.619.619.62.62 0 0 1-.618-.619.62.62 0 0 1 .618-.619.62.62 0 0 1 .62.62" style="fill:url(#I)" transform="translate(14.263 18.997)scale(1.57326)"/><path d="M31.16 16.91a14.91 14.91 0 0 1-14.91 14.911 14.91 14.91 0 0 1-14.91-14.91A14.91 14.91 0 0 1 16.25 2a14.91 14.91 0 0 1 14.91 14.91" style="fill:none;stroke:url(#J);stroke-width:1.14583468;stroke-linecap:round;stroke-linejoin:round" transform="translate(18.707 16.473)scale(.87273)"/></svg>