<svg xmlns="http://www.w3.org/2000/svg" width="64" height="64"><defs><radialGradient id="a" cx="-122.394" cy="442.723" r="29.58" gradientTransform="matrix(1 0 0 -1 134.446 453.733)" gradientUnits="userSpaceOnUse"><stop offset="0" stop-color="#fff"/><stop offset="1" stop-color="#007808"/></radialGradient></defs><path d="M5.402 13.541.511 12.364V5.078l4.891 1.685zM9.13 41.393l-4.675.924V15.226l4.675.989z" style="fill:#0b4819" transform="translate(1.324 2.799)"/><path d="m60.662 55.981-26.65-2.064 13.585-13.179v-6.495L28.175 53.465 4.919 51.667 42.222 11.55l-6.139.332L9.13 41.393V16.215l2.553-3.014-6.281.34V6.763l21.919-1.697-12.015 13.78v5.864l17.82-20.093 28.225-2.185-41.517 43.274 5.527.291 30.155-30.843v29.151l-3.35 3.149 8.496.459z" style="fill:#105c80" transform="translate(1.324 2.799)"/><path d="m9.13 16.215-4.675-.989 2.704-3.255 4.524 1.23z" style="fill:#0b4819" transform="translate(1.324 2.799)"/><path d="M11.004 24.358v-6.319l4.302.807v5.864z" style="fill:#084010" transform="translate(1.324 2.799)"/><path d="m21.714 47.346-5.894-.34 4.014-1.3 5.527.291z" style="fill:#0c541e" transform="translate(1.324 2.799)"/><path d="M11.004 18.039 23.808 3.106l3.513 1.96-12.015 13.78z" style="fill:#1a5c34" transform="translate(1.324 2.799)"/><path d="m15.306 24.71-4.302-.352L30.022 2.58l3.104 2.037z" style="fill:#0b4819" transform="translate(1.324 2.799)"/><path d="m4.455 42.317 28.74-31.885 2.888 1.45L9.13 41.393z" style="fill:#1a5c34" transform="translate(1.324 2.799)"/><path d="M4.919 51.667 0 53.344l39.798-43.302 2.424 1.508z" style="fill:#0b4819" transform="translate(1.324 2.799)"/><path d="m24.721 55.437 20.876-20.76 2-.434-19.422 19.222z" style="fill:#1a5c34" transform="translate(1.324 2.799)"/><path d="m47.597 40.738-2 .999v-7.06l2-.434z" style="fill:#0b4819" transform="translate(1.324 2.799)"/><path d="m34.012 53.917-3.039 2.048 14.624-14.228 2-.999z" style="fill:#0b4819" transform="translate(1.324 2.799)"/><path d="m55.516 44.305-1.348 1.343-3.63 3.411 1.628-1.605z" style="fill:#13802d" transform="translate(1.324 2.799)"/><path d="m25.361 45.997-3.647 1.349L54.168 13.9l1.348 1.254z" style="fill:#0b4819" transform="translate(1.324 2.799)"/><path d="M54.168 45.648V13.9l1.348 1.254v29.151zm5.591 12.755v-8.799l.903-1.691v8.068z" style="fill:#084010" transform="translate(1.324 2.799)"/><path d="M15.82 47.006 60.507 0l.844 2.432-41.517 43.274z" style="fill:#1a5c34" transform="translate(1.324 2.799)"/><path d="m59.759 58.403-28.786-2.438 14.624-14.228v-7.06l-20.876 20.76L0 53.344l39.798-43.302-6.603.39-28.74 31.885V15.226l2.704-3.255-6.648.393V5.078l23.297-1.972-12.804 14.933v6.319L30.022 2.58 60.507 0 15.82 47.006l5.894.34L54.168 13.9v31.748l-3.63 3.411 9.221.545z" style="fill:url(#a)" transform="translate(1.324 2.799)"/></svg>