<svg xmlns="http://www.w3.org/2000/svg" width="64" height="64"><path d="M32 0c17.7 0 32 14.3 32 32S49.7 64 32 64 0 49.7 0 32 14.3 0 32 0z" fill="#80a"/><path d="M34.302 27.764C52.856 24.182 53.568 16.09 53.568 16.09s-1.46 25.077-15.02 26.404c-17.183 1.681-19.75 9.788-19.75 9.788s4.595-22.414 15.504-24.52z" fill="#f06"/><path d="M23.106 26.657C38.828 20 37.388 9.137 37.388 9.137s8.68 22.159-4.333 27.325C18.52 42.232 19.166 52.09 19.166 52.09s-5.293-21.522 3.94-25.433z" fill="#f60"/><path d="M13.845 32.548C22.678 20.9 20.69 12.73 20.69 12.73s11.317 14.19 3.616 22.98c-8.602 9.818-4.856 16.649-4.856 16.649S8.779 39.228 13.845 32.548z" fill="#fc0"/></svg>