<?xml version="1.0" encoding="UTF-8" standalone="no"?>
<svg
   width="32"
   height="32"
   version="1"
   id="svg4"
   xmlns="http://www.w3.org/2000/svg"
   xmlns:svg="http://www.w3.org/2000/svg">
  <defs
     id="defs4" />
  <rect
     fill="#5db43e"
     width="26.03652"
     height="26.03652"
     x="-29.018261"
     y="-29.018261"
     rx="13.000001"
     ry="13.000001"
     transform="matrix(0,-1,-1,0,0,0)"
     id="rect1"
     style="stroke-width:1" />
  <path
     fill="#ffffff"
     opacity="0.2"
     d="m 16.000201,30.018962 c 7.212114,0 13.018258,-5.806145 13.018258,-13.018258 0,-0.169238 -0.01913,-0.333469 -0.02544,-0.500702 -0.263669,6.976083 -5.949944,12.517555 -12.993223,12.517555 -7.042878,0 -12.728853,-5.541472 -12.993224,-12.517555 -0.006,0.167233 -0.02503,0.331464 -0.02503,0.500702 0,7.212113 5.806145,13.018258 13.01826,13.018258 z"
     id="path1"
     style="stroke-width:1" />
  <path
     opacity="0.2"
     d="m 28.99282,16.500002 c 0.0063,-0.167235 0.02544,-0.331466 0.02544,-0.500704 0,-7.212115 -5.806145,-13.018259 -13.018259,-13.018259 -7.212115,0 -13.01826,5.806144 -13.01826,13.018259 0,0.169238 0.01902,0.333469 0.02503,0.500704 0.26437,-6.9757851 5.950345,-12.5175581 12.993223,-12.5175581 7.042877,0 12.728853,5.541773 12.993224,12.5175581 z"
     id="path3"
     style="stroke-width:1" />
  <path
     d="m 16.060182,24.622658 c 1.544418,-0.0037 3.110562,-0.545593 4.33383,-1.617993 0.859996,-1.115069 -0.778665,-2.309258 -1.51669,-1.221942 -2.221651,1.513063 -5.354934,0.980358 -7.02647,-1.281852 -0.889361,-1.122638 -1.390424,-2.62063 -1.384609,-4.124487 h 1.468295 C 11.151235,15.054567 10.368285,13.732749 9.5851932,12.410928 L 7.2360445,16.376384 H 8.704273 c -0.046693,3.590801 2.247529,7.006148 5.327828,7.936178 0.660889,0.203855 1.341676,0.318058 2.027901,0.310037 z m 6.445427,-4.296622 c 0.782258,-1.321816 1.565416,-2.644668 2.348587,-3.966482 H 23.385975 C 23.427545,12.725866 21.07466,9.271912 17.940417,8.3910447 15.825507,7.726304 13.434108,8.2113584 11.695988,9.7322784 c -0.886894,1.1336686 0.774496,2.3163866 1.519388,1.2191736 2.152583,-1.470011 5.166875,-1.0037423 6.865974,1.095771 0.983972,1.141101 1.550222,2.721888 1.542793,4.312407 h -1.468269 l 2.349194,3.966099 z"
     style="opacity:0.1;stroke-width:0.999999"
     id="path2" />
  <path
     d="m 16.196389,23.988296 c 1.577904,-0.0037 3.177948,-0.528322 4.427707,-1.566774 0.87863,-1.079781 -0.795513,-2.236163 -1.549551,-1.18328 -2.269836,1.465175 -5.471004,0.949325 -7.178779,-1.24128 -0.908566,-1.08708 -1.420583,-2.537656 -1.414555,-3.993931 h 1.500056 C 11.180975,14.723053 10.381042,13.443074 9.5810203,12.163096 l -2.400066,3.839935 h 1.5000534 c -0.047709,3.47714 2.2962923,6.784385 5.4432803,7.684969 0.675189,0.197417 1.37081,0.307995 2.071832,0.300246 z m 6.58513,-4.16063 c 0.799212,-1.279977 1.599325,-2.560957 2.399436,-3.840935 h -1.500052 c 0.04252,-3.51864 -2.361365,-6.863283 -5.563525,-7.7162695 -2.160752,-0.6436988 -4.604017,-0.1739966 -6.379832,1.2987798 -0.906047,1.0977827 0.791342,2.2430607 1.552342,1.1805807 2.199181,-1.4234774 5.278849,-0.9719653 7.014794,1.061079 1.005315,1.104983 1.583843,2.635757 1.576194,4.175931 h -1.500054 l 2.400069,3.840535 z"
     style="fill:#3f3f3f;stroke-width:1"
     id="path4" />
</svg>
