<svg xmlns="http://www.w3.org/2000/svg" xmlns:xlink="http://www.w3.org/1999/xlink" width="64" height="64"><defs><linearGradient id="c"><stop offset="0" style="stop-color:#204a87;stop-opacity:1"/><stop offset="1" style="stop-color:#729fcf;stop-opacity:1"/></linearGradient><linearGradient id="b"><stop offset="0" style="stop-color:#a40000;stop-opacity:1"/><stop offset="1" style="stop-color:#ef2929;stop-opacity:1"/></linearGradient><linearGradient id="a"><stop offset="0" style="stop-color:#ff390f;stop-opacity:1"/><stop offset="1" style="stop-color:#ff1000;stop-opacity:1"/></linearGradient><linearGradient xlink:href="#b" id="g" x1="-206.699" x2="-211.402" y1="68.842" y2="7.711" gradientUnits="userSpaceOnUse"/><linearGradient xlink:href="#c" id="f" x1="-146.745" x2="-157.325" y1="58.262" y2="26.521" gradientTransform="matrix(1.00945 0 0 1.00945 -20.308 3.726)" gradientUnits="userSpaceOnUse"/><linearGradient id="d"><stop offset="0" style="stop-color:#204a87;stop-opacity:1"/><stop offset="1" style="stop-color:#729fcf;stop-opacity:1"/></linearGradient><linearGradient id="e"><stop offset="0" style="stop-color:#204a87;stop-opacity:1"/><stop offset="1" style="stop-color:#729fcf;stop-opacity:1"/></linearGradient></defs><path d="m-159.147 27.763-7.266 4.168-3.209-1.113-3.061-7.824-4.816.253-2.197 8.09-3.074 1.473-7.667-3.354-3.24 3.598 4.17 7.267-1.14 3.199-7.823 3.061.278 4.826 8.09 2.196 1.473 3.074-3.38 7.659 3.599 3.238 7.266-4.169 3.225 1.149 3.036 7.815 4.85-.27 2.172-8.1 3.074-1.472 7.684 3.39 3.239-3.6-4.17-7.266 1.124-3.234 7.814-3.036-.243-4.841-8.1-2.171-1.473-3.074 3.364-7.694-3.599-3.238zm-10.882 11.915 1.491.866 1.292 1.172 1.035 1.398.744 1.555.438 1.675.072 1.718-.248 1.717-.566 1.63-.9 1.508-1.137 1.276-1.398 1.035-1.555.744-1.676.438-1.727.098-1.717-.248-1.63-.566-1.508-.901-1.267-1.162-1.044-1.373-.744-1.555-.428-1.701-.098-1.727.248-1.717.566-1.63.891-1.483 1.146-1.301 1.398-1.035 1.555-.744 1.702-.428 1.717-.073 1.717.248 1.63.566z" style="fill:url(#f);fill-opacity:1;fill-rule:evenodd;stroke:#000137;stroke-width:2.35116911;stroke-linecap:round;stroke-linejoin:round;stroke-miterlimit:4;stroke-opacity:1;stroke-dasharray:none;stroke-dashoffset:0;marker:none;visibility:visible;display:inline;overflow:visible;enable-background:accumulate" transform="translate(187.827 -.56) scale(.85064)"/><path d="m-159.407 30.604-6.782 3.885-5.114-1.838-2.977-7.211-1.44.077-2.071 7.585-4.992 2.277-7.07-3.073-.946 1.083 3.904 6.858-1.956 5.01-7.136 2.846.082 1.532 7.528 2.063 2.333 4.992-3.114 7.06 1.045.91 6.707-3.829 5.393 1.89 2.652 7.164 1.441-.017 2.097-7.536 4.897-2.447 7.387 3.161.89-.951-3.905-6.688 1.678-5.25 7.335-2.916-.05-1.51-7.443-1.907-2.465-5.048 3.119-7.225z" style="fill:none;stroke:#729fcf;stroke-width:2.35116910999999984;stroke-linecap:round;stroke-linejoin:round;stroke-miterlimit:4;stroke-opacity:1;stroke-dasharray:none;stroke-dashoffset:0;marker:none;visibility:visible;display:inline;overflow:visible;enable-background:accumulate" transform="translate(187.827 -.56) scale(.85064)"/><path d="M49.851 40.103a8.694 8.694 0 1 1-17.388 0 8.694 8.694 0 0 1 17.388 0z" style="fill:none;stroke:#729fcf;stroke-width:1.81196654;stroke-linecap:round;stroke-linejoin:round;stroke-miterlimit:4;stroke-opacity:1;stroke-dasharray:none;stroke-dashoffset:6" transform="matrix(1.10377 0 0 1.10377 -5.442 -4.311)"/><path d="M-217.28 4.185v68.184h14.107V44.155h14.107V30.048h-14.107V18.292h23.512V4.185z" style="fill:url(#g);fill-opacity:1;fill-rule:evenodd;stroke:#280000;stroke-width:2.35116887;stroke-linecap:butt;stroke-linejoin:miter;stroke-miterlimit:4;stroke-opacity:1;stroke-dasharray:none;stroke-dashoffset:0;marker:none;visibility:visible;display:inline;overflow:visible;enable-background:accumulate" transform="translate(187.827 -.56) scale(.85064)"/><path d="M-214.929 6.536v63.481h9.405V41.803h14.107V32.4h-14.107V15.94h23.512V6.536z" style="fill:none;stroke:#ef2929;stroke-width:2.35116887;stroke-linecap:butt;stroke-linejoin:miter;stroke-miterlimit:4;stroke-opacity:1;stroke-dasharray:none;stroke-dashoffset:0;marker:none;visibility:visible;display:inline;overflow:visible;enable-background:accumulate" transform="translate(187.827 -.56) scale(.85064)"/></svg>