<svg xmlns="http://www.w3.org/2000/svg" xmlns:xlink="http://www.w3.org/1999/xlink" width="48" height="48"><defs><linearGradient id="b"><stop offset="0" style="stop-color:#eeeeec;stop-opacity:1"/><stop offset="1" style="stop-color:#eeeeec;stop-opacity:0"/></linearGradient><linearGradient id="g"><stop offset="0" style="stop-color:#d3d7cf;stop-opacity:1"/><stop offset="1" style="stop-color:#d3d7cf;stop-opacity:0"/></linearGradient><linearGradient id="a"><stop offset="0" style="stop-color:#204a87;stop-opacity:1"/><stop offset="1" style="stop-color:#204a87;stop-opacity:0"/></linearGradient><linearGradient id="e"><stop offset="0" style="stop-color:#babdb6;stop-opacity:1"/><stop offset="1" style="stop-color:#babdb6;stop-opacity:0"/></linearGradient><linearGradient id="c"><stop offset="0" style="stop-color:#555753;stop-opacity:1"/><stop offset="1" style="stop-color:#555753;stop-opacity:0"/></linearGradient><linearGradient xlink:href="#a" id="k" x1="24.613" x2="29.182" y1="20.16" y2="12.246" gradientTransform="translate(0 1)" gradientUnits="userSpaceOnUse"/><linearGradient xlink:href="#b" id="l" x1="18" x2="18" y1="39" y2="45.78" gradientTransform="matrix(1 0 0 .83333 0 7.5)" gradientUnits="userSpaceOnUse"/><radialGradient xlink:href="#c" id="h" cx="17.984" cy="40.604" r="21.031" fx="17.984" fy="40.604" gradientTransform="matrix(1.11382 0 0 .53935 -2.124 18.941)" gradientUnits="userSpaceOnUse"/><radialGradient xlink:href="#e" id="j" cx="24.5" cy="18.593" r="14.5" fx="24.5" fy="18.593" gradientTransform="matrix(2.94027 0 0 2.43333 -47.537 -23.367)" gradientUnits="userSpaceOnUse"/><radialGradient xlink:href="#g" id="i" cx="24.013" cy="31.644" r="14.987" fx="24.013" fy="31.644" gradientTransform="matrix(3.32355 0 0 2.77205 -55.796 -48.866)" gradientUnits="userSpaceOnUse"/></defs><path d="M39.693 41.416a21.03 10.184 0 1 1-42.061 0 21.03 10.184 0 1 1 42.06 0" style="opacity:.5;fill:url(#h);fill-opacity:1;fill-rule:evenodd;stroke:none" transform="matrix(1.1412 0 0 .83467 2.703 4.931)"/><path d="M32.823 18.895a6.33 2.177 0 1 1-12.66 0 6.33 2.177 0 1 1 12.66 0z" style="fill:#edd400;fill-opacity:1;fill-rule:evenodd;stroke:#786100;stroke-width:1.04999924;stroke-miterlimit:4;stroke-opacity:1;stroke-dasharray:none" transform="matrix(.7904 0 0 1.14756 20.586 17.32)"/><path d="M32.823 18.895a6.33 2.177 0 1 1-12.66 0 6.33 2.177 0 1 1 12.66 0" style="opacity:.6;fill:none;stroke:none" transform="matrix(.63251 0 0 .68753 24.766 26.013)"/><path d="M32.823 18.895a6.33 2.177 0 1 1-12.66 0 6.33 2.177 0 1 1 12.66 0z" style="fill:#edd400;fill-opacity:1;fill-rule:evenodd;stroke:#8c7200;stroke-width:1.04999924;stroke-miterlimit:4;stroke-opacity:1;stroke-dasharray:none" transform="matrix(.7904 0 0 1.14756 20.595 15.327)"/><path d="M32.823 18.895a6.33 2.177 0 1 1-12.66 0 6.33 2.177 0 1 1 12.66 0" style="opacity:.6;fill:none;stroke:none" transform="matrix(.63251 0 0 .68753 24.776 24.019)"/><rect width="35.041" height="34.996" x="6.473" y="2.502" rx="2" ry="2" style="fill:#eeeeec;fill-opacity:1;fill-rule:evenodd;stroke:#555753;stroke-width:1.00000036;stroke-miterlimit:4;stroke-opacity:1;stroke-dasharray:none"/><path d="M32.823 18.895a6.33 2.177 0 1 1-12.66 0 6.33 2.177 0 1 1 12.66 0z" style="fill:#edd400;fill-opacity:1;fill-rule:evenodd;stroke:#8c7200;stroke-width:1.04999924;stroke-miterlimit:4;stroke-opacity:1;stroke-dasharray:none" transform="matrix(.7904 0 0 1.14756 20.595 13.327)"/><rect width="29.974" height="25" x="9.026" y="6" rx="1.625" ry="1.625" style="fill:url(#i);fill-opacity:1;fill-rule:evenodd;stroke:none"/><path d="M32.823 18.895a6.33 2.177 0 1 1-12.66 0 6.33 2.177 0 1 1 12.66 0" style="opacity:.6;fill:none;stroke:none" transform="matrix(.63251 0 0 .68753 24.776 22.019)"/><path d="M14.031 6v4H10v1h4.031v4H10v1h4.031v4H10v1h4.031v4H10v1h4.031v4h1v-4h4v4h1v-4h4v4h1v-4h4v4h1v-4h4v4h1v-4H39v-1h-3.969v-4H39v-1h-3.969v-4H39v-1h-3.969v-4H39v-1h-3.969V6h-1v4h-4V6h-1v4h-4V6h-1v4h-4V6h-1v4h-4V6zm1 5h4v4h-4zm5 0h4v4h-4zm5 0h4v4h-4zm5 0h4v4h-4zm-15 5h4v4h-4zm5 0h4v4h-4zm5 0h4v4h-4zm5 0h4v4h-4zm-15 5h4v4h-4zm5 0h4v4h-4zm5 0h4v4h-4zm5 0h4v4h-4z" style="fill:url(#j);fill-opacity:1;fill-rule:evenodd;stroke:none"/><path d="M32.823 18.895a6.33 2.177 0 1 1-12.66 0 6.33 2.177 0 1 1 12.66 0z" style="fill:#edd400;fill-opacity:1;fill-rule:evenodd;stroke:#8c7200;stroke-width:1.04999924;stroke-miterlimit:4;stroke-opacity:1;stroke-dasharray:none" transform="matrix(.7904 0 0 1.14756 20.583 11.322)"/><path d="m28.531 13-4.883 8.817-8.61-4.797-6.007 9.48.875.5 5.412-8.727 8.702 4.781 5.386-9.554z" style="fill:url(#k);fill-opacity:1;fill-rule:evenodd;stroke:none"/><path d="M30-39h1v30h-1z" style="fill:#888a85;fill-opacity:1;fill-rule:evenodd;stroke:none" transform="rotate(90)"/><path d="M32.823 18.895a6.33 2.177 0 1 1-12.66 0 6.33 2.177 0 1 1 12.66 0" style="opacity:.6;fill:none;stroke:none" transform="matrix(.63251 0 0 .68753 24.776 20.013)"/><path d="M9.026 6h1v25h-1z" style="fill:#888a85;fill-opacity:1;fill-rule:evenodd;stroke:none"/><path d="M1.5 34.49h24v6.024h-24z" style="fill:#4e9a06;fill-opacity:1;fill-rule:evenodd;stroke:#2e5c02;stroke-width:.99999976;stroke-miterlimit:4;stroke-opacity:1"/><path d="M4.326 28.5h20.272l.902 6.01h-24z" style="fill:#59af05;fill-opacity:1;fill-rule:evenodd;stroke:#2e5c02;stroke-width:1;stroke-miterlimit:4;stroke-opacity:1"/><path d="M2 38.037h23v1H2zm0-2h23v1H2z" style="fill:#2e5c02;fill-opacity:1;fill-rule:evenodd;stroke:none"/><path d="M8.906 34.531 6.937 38.47h21.344l-.593-3.938z" style="opacity:.25;fill:none;stroke:#fff;stroke-width:1;stroke-miterlimit:4;stroke-opacity:1" transform="translate(-3.969 -4.98)"/><path d="M11.531 34.474h4.937v6.109h-4.937z" style="fill:#eeeeec;fill-opacity:1;fill-rule:evenodd;stroke:#555753;stroke-width:1.00000012;stroke-miterlimit:4;stroke-opacity:1;stroke-dasharray:none"/><path d="M19.622-.437a7.071 3.624 0 1 1-14.142 0 7.071 3.624 0 1 1 14.142 0" style="fill:#2e5c02;fill-opacity:1;fill-rule:evenodd;stroke:none" transform="matrix(.7071 0 0 .41392 5.125 31.68)"/><path d="m12.5 28.496-1 5.637v6.371h5V34.08l-1.094-5.583z" style="fill:#d3d7cf;fill-opacity:1;fill-rule:evenodd;stroke:#555753;stroke-width:1.00000012;stroke-miterlimit:4;stroke-opacity:1;stroke-dasharray:none"/><path d="M5.491 39.471H29.5v6.04H5.491z" style="fill:#4e9a06;fill-opacity:1;fill-rule:evenodd;stroke:#2e5c02;stroke-width:.99999958;stroke-miterlimit:4;stroke-opacity:1"/><path d="M7.45 33.505h20.21l1.84 5.994h-24z" style="fill:#57ae06;fill-opacity:1;fill-rule:evenodd;stroke:#2e5c02;stroke-width:.99999964;stroke-miterlimit:4;stroke-opacity:1"/><path d="M32.823 18.895a6.33 2.177 0 1 1-12.66 0 6.33 2.177 0 1 1 12.66 0z" style="fill:#ecd300;fill-opacity:1;fill-rule:evenodd;stroke:#786100;stroke-width:1.04999924;stroke-miterlimit:4;stroke-opacity:1;stroke-dasharray:none" transform="matrix(.7904 0 0 1.14756 15.576 20.314)"/><path d="M32.823 18.895a6.33 2.177 0 1 1-12.66 0 6.33 2.177 0 1 1 12.66 0z" style="fill:#edd400;fill-opacity:1;fill-rule:evenodd;stroke:#8c7200;stroke-width:1.04999924;stroke-miterlimit:4;stroke-opacity:1;stroke-dasharray:none" transform="matrix(.7904 0 0 1.14756 20.595 9.32)"/><path d="M6 43h23v1H6z" style="fill:#2e5c02;fill-opacity:1;fill-rule:evenodd;stroke:none"/><path d="M32.823 18.895a6.33 2.177 0 1 1-12.66 0 6.33 2.177 0 1 1 12.66 0" style="opacity:.6;fill:none;stroke:none" transform="matrix(.63251 0 0 .68753 19.756 29.006)"/><path d="M6 41h23v1H6z" style="fill:#2e5c02;fill-opacity:1;fill-rule:evenodd;stroke:none"/><path d="M32.823 18.895a6.33 2.177 0 1 1-12.66 0 6.33 2.177 0 1 1 12.66 0z" style="fill:#ecd300;fill-opacity:1;fill-rule:evenodd;stroke:#8c7200;stroke-width:1.04999924;stroke-miterlimit:4;stroke-opacity:1;stroke-dasharray:none" transform="matrix(.7904 0 0 1.14756 15.586 18.32)"/><path d="M32.823 18.895a6.33 2.177 0 1 1-12.66 0 6.33 2.177 0 1 1 12.66 0" style="opacity:.6;fill:none;stroke:none" transform="matrix(.63251 0 0 .68753 24.776 18.013)"/><path d="M32.823 18.895a6.33 2.177 0 1 1-12.66 0 6.33 2.177 0 1 1 12.66 0" style="opacity:.6;fill:none;stroke:none" transform="matrix(.63251 0 0 .68753 19.766 27.013)"/><path d="M32.823 18.895a6.33 2.177 0 1 1-12.66 0 6.33 2.177 0 1 1 12.66 0z" style="fill:#ecd300;fill-opacity:1;fill-rule:evenodd;stroke:#8c7200;stroke-width:1.04999924;stroke-miterlimit:4;stroke-opacity:1;stroke-dasharray:none" transform="matrix(.7904 0 0 1.14756 15.586 16.32)"/><path d="M32.823 18.895a6.33 2.177 0 1 1-12.66 0 6.33 2.177 0 1 1 12.66 0z" style="fill:#edd400;fill-opacity:1;fill-rule:evenodd;stroke:#8c7200;stroke-width:1.04999924;stroke-miterlimit:4;stroke-opacity:1;stroke-dasharray:none" transform="matrix(.7904 0 0 1.14756 20.595 7.325)"/><path d="M8.219 34.531 6.938 38.47h21.156l-1.219-3.938z" style="opacity:.25;fill:none;stroke:#fff;stroke-width:1;stroke-miterlimit:4;stroke-opacity:1"/><path d="M32.823 18.895a6.33 2.177 0 1 1-12.66 0 6.33 2.177 0 1 1 12.66 0" style="opacity:.6;fill:none;stroke:none" transform="matrix(.63251 0 0 .68753 19.766 25.013)"/><path d="M32.823 18.895a6.33 2.177 0 1 1-12.66 0 6.33 2.177 0 1 1 12.66 0z" style="fill:#ecd300;fill-opacity:1;fill-rule:evenodd;stroke:#8c7200;stroke-width:1.04999924;stroke-miterlimit:4;stroke-opacity:1;stroke-dasharray:none" transform="matrix(.7904 0 0 1.14756 15.573 14.316)"/><path d="M32.823 18.895a6.33 2.177 0 1 1-12.66 0 6.33 2.177 0 1 1 12.66 0" style="opacity:.6;fill:none;stroke:none" transform="matrix(.63251 0 0 .68753 19.766 23.006)"/><path d="M32.823 18.895a6.33 2.177 0 1 1-12.66 0 6.33 2.177 0 1 1 12.66 0z" style="fill:#edd400;fill-opacity:1;fill-rule:evenodd;stroke:#8c7200;stroke-width:1.04999924;stroke-miterlimit:4;stroke-opacity:1;stroke-dasharray:none" transform="matrix(.7904 0 0 1.14756 20.583 5.32)"/><path d="M32.823 18.895a6.33 2.177 0 1 1-12.66 0 6.33 2.177 0 1 1 12.66 0z" style="fill:#ecd300;fill-opacity:1;fill-rule:evenodd;stroke:#8c7200;stroke-width:1.04999924;stroke-miterlimit:4;stroke-opacity:1;stroke-dasharray:none" transform="matrix(.7904 0 0 1.14756 15.586 12.314)"/><path d="M32.823 18.895a6.33 2.177 0 1 1-12.66 0 6.33 2.177 0 1 1 12.66 0" style="opacity:.6;fill:none;stroke:none" transform="matrix(.63251 0 0 .68753 19.766 21.006)"/><path d="M19.622-.437a7.071 3.624 0 1 1-14.142 0 7.071 3.624 0 1 1 14.142 0" style="fill:#2e5c02;fill-opacity:1;fill-rule:evenodd;stroke:none" transform="matrix(.14142 0 0 .13797 8.194 33.545)"/><path d="M19.622-.437a7.071 3.624 0 1 1-14.142 0 7.071 3.624 0 1 1 14.142 0" style="fill:#2e5c02;fill-opacity:1;fill-rule:evenodd;stroke:none" transform="matrix(.14142 0 0 .13797 23.194 33.545)"/><path d="M19.622-.437a7.071 3.624 0 1 1-14.142 0 7.071 3.624 0 1 1 14.142 0" style="fill:#2e5c02;fill-opacity:1;fill-rule:evenodd;stroke:none" transform="matrix(.7071 0 0 .41392 9.125 36.68)"/><path d="M19.622-.437a7.071 3.624 0 1 1-14.142 0 7.071 3.624 0 1 1 14.142 0" style="fill:#2e5c02;fill-opacity:1;fill-rule:evenodd;stroke:none" transform="matrix(.21434 0 0 .13797 6.794 37.545)"/><path d="M19.622-.437a7.071 3.624 0 1 1-14.142 0 7.071 3.624 0 1 1 14.142 0" style="fill:#2e5c02;fill-opacity:1;fill-rule:evenodd;stroke:none" transform="matrix(.21213 0 0 .13797 22.837 37.56)"/><path d="m16.5 33.521-1 5.626v6.357h5v-6.411l-1.094-5.572z" style="fill:#d3d7cf;fill-opacity:1;fill-rule:evenodd;stroke:#555753;stroke-width:1.00000012;stroke-miterlimit:4;stroke-opacity:1;stroke-dasharray:none"/><path d="M16 40h4v5h-4z" style="fill:#888a85;fill-opacity:1;fill-rule:evenodd;stroke:none"/><path d="M16 40h4v5h-4z" style="fill:url(#l);fill-opacity:1;fill-rule:evenodd;stroke:none"/><path d="M19.622-.437a7.071 3.624 0 1 1-14.142 0 7.071 3.624 0 1 1 14.142 0" style="fill:#2e5c02;fill-opacity:1;fill-rule:evenodd;stroke:none" transform="matrix(.21213 0 0 .13797 21.837 35.56)"/><path d="M19.622-.437a7.071 3.624 0 1 1-14.142 0 7.071 3.624 0 1 1 14.142 0" style="fill:#2e5c02;fill-opacity:1;fill-rule:evenodd;stroke:none" transform="matrix(.21213 0 0 .13797 7.838 35.56)"/><path d="M9 6h30C26.84 9.91 27.662 24 9 24z" style="opacity:.2;fill:#fff;fill-opacity:1;fill-rule:evenodd;stroke:none"/><path d="M19.622-.437a7.071 3.624 0 1 1-14.142 0 7.071 3.624 0 1 1 14.142 0" style="fill:#2e5c02;fill-opacity:1;fill-rule:evenodd;stroke:none" transform="matrix(.21434 0 0 .13797 2.794 32.56)"/><path d="M19.622-.437a7.071 3.624 0 1 1-14.142 0 7.071 3.624 0 1 1 14.142 0" style="fill:#2e5c02;fill-opacity:1;fill-rule:evenodd;stroke:none" transform="matrix(.21213 0 0 .13797 19.837 32.56)"/><path d="M19.622-.437a7.071 3.624 0 1 1-14.142 0 7.071 3.624 0 1 1 14.142 0" style="fill:#2e5c02;fill-opacity:1;fill-rule:evenodd;stroke:none" transform="matrix(.21213 0 0 .13797 18.837 30.56)"/><path d="M19.622-.437a7.071 3.624 0 1 1-14.142 0 7.071 3.624 0 1 1 14.142 0" style="fill:#2e5c02;fill-opacity:1;fill-rule:evenodd;stroke:none" transform="matrix(.21213 0 0 .13797 3.838 30.56)"/><path d="M32.823 18.895a6.33 2.177 0 1 1-12.66 0 6.33 2.177 0 1 1 12.66 0z" style="fill:#edd400;fill-opacity:1;fill-rule:evenodd;stroke:#8c7200;stroke-width:1.04999924;stroke-miterlimit:4;stroke-opacity:1;stroke-dasharray:none" transform="matrix(.7904 0 0 1.14756 20.595 3.319)"/><path d="M32.823 18.895a6.33 2.177 0 1 1-12.66 0 6.33 2.177 0 1 1 12.66 0z" style="fill:#edd400;fill-opacity:1;fill-rule:evenodd;stroke:#8c7200;stroke-width:1.04999924;stroke-miterlimit:4;stroke-opacity:1;stroke-dasharray:none" transform="matrix(.7904 0 0 1.14756 20.595 1.319)"/><path d="M32.823 18.895a6.33 2.177 0 1 1-12.66 0 6.33 2.177 0 1 1 12.66 0z" style="fill:#fce94f;fill-opacity:1;fill-rule:evenodd;stroke:#8c7200;stroke-width:1.04999924;stroke-miterlimit:4;stroke-opacity:1;stroke-dasharray:none" transform="matrix(.7904 0 0 1.14756 20.576 -.684)"/><path d="M32.823 18.895a6.33 2.177 0 1 1-12.66 0 6.33 2.177 0 1 1 12.66 0z" style="fill:#fce94f;fill-opacity:1;fill-rule:evenodd;stroke:#8c7200;stroke-width:1.04999924;stroke-miterlimit:4;stroke-opacity:1;stroke-dasharray:none" transform="matrix(.7904 0 0 1.14756 15.566 10.314)"/><path d="M32.823 18.895a6.33 2.177 0 1 1-12.66 0 6.33 2.177 0 1 1 12.66 0z" style="opacity:.5;fill:none;stroke:#fff;stroke-width:1.51642048;stroke-miterlimit:4;stroke-opacity:1;stroke-dasharray:none" transform="matrix(.63251 0 0 .68753 19.747 19.006)"/><path d="M32.823 18.895a6.33 2.177 0 1 1-12.66 0 6.33 2.177 0 1 1 12.66 0z" style="opacity:.5;fill:none;stroke:#fff;stroke-width:1.51642048;stroke-miterlimit:4;stroke-opacity:1;stroke-dasharray:none" transform="matrix(.63251 0 0 .68753 24.749 8.006)"/></svg>