<svg xmlns="http://www.w3.org/2000/svg" xmlns:xlink="http://www.w3.org/1999/xlink" width="48" height="48" version="1.0"><defs><linearGradient id="p"><stop offset="0" style="stop-color:white;stop-opacity:1"/><stop offset=".25" style="stop-color:#babdb6;stop-opacity:1"/><stop offset=".375" style="stop-color:#eeeeec;stop-opacity:1"/><stop offset=".5" style="stop-color:#babdb6;stop-opacity:1"/><stop offset="1" style="stop-color:#eeeeec;stop-opacity:1"/></linearGradient><linearGradient id="z"><stop offset="0" style="stop-color:#fff;stop-opacity:0"/><stop offset="1" style="stop-color:#fff;stop-opacity:1"/></linearGradient><linearGradient id="G"><stop offset="0" style="stop-color:#000;stop-opacity:1"/><stop offset="1" style="stop-color:#000;stop-opacity:0"/></linearGradient><linearGradient id="y"><stop offset="0" style="stop-color:#d3d7cf;stop-opacity:1"/><stop offset=".5" style="stop-color:#babdb6;stop-opacity:1"/><stop offset="1" style="stop-color:#eeeeec;stop-opacity:0"/></linearGradient><linearGradient id="x"><stop offset="0" style="stop-color:white;stop-opacity:1"/><stop offset=".5" style="stop-color:white;stop-opacity:1"/><stop offset="1" style="stop-color:#888a85;stop-opacity:1"/></linearGradient><linearGradient id="E"><stop offset="0" style="stop-color:#fff;stop-opacity:1"/><stop offset="1" style="stop-color:#fff;stop-opacity:0"/></linearGradient><linearGradient id="D"><stop offset="0" style="stop-color:#ef2929;stop-opacity:1"/><stop offset="1" style="stop-color:#c00;stop-opacity:1"/></linearGradient><linearGradient id="C"><stop offset="0" style="stop-color:#fcaf3e;stop-opacity:1"/><stop offset="1" style="stop-color:#f57900;stop-opacity:1"/></linearGradient><linearGradient id="B"><stop offset="0" style="stop-color:#8ae234;stop-opacity:1"/><stop offset="1" style="stop-color:#73d216;stop-opacity:1"/></linearGradient><linearGradient id="F"><stop offset="0" style="stop-color:#fff;stop-opacity:1"/><stop offset="1" style="stop-color:#fff;stop-opacity:0"/></linearGradient><linearGradient id="w"><stop offset="0" style="stop-color:#fff;stop-opacity:1"/><stop offset="1" style="stop-color:#fff;stop-opacity:0"/></linearGradient><linearGradient id="o"><stop offset="0" style="stop-color:#2f302e;stop-opacity:1"/><stop offset="1" style="stop-color:#555753;stop-opacity:1"/></linearGradient><linearGradient id="u"><stop offset="0" style="stop-color:black;stop-opacity:1"/><stop offset="1" style="stop-color:black;stop-opacity:0"/></linearGradient><linearGradient id="k"><stop offset="0" style="stop-color:black;stop-opacity:0"/><stop offset=".5" style="stop-color:black;stop-opacity:1"/><stop offset="1" style="stop-color:black;stop-opacity:0"/></linearGradient><linearGradient id="g"><stop offset="0" style="stop-color:white;stop-opacity:0"/><stop offset=".5" style="stop-color:white;stop-opacity:1"/><stop offset="1" style="stop-color:white;stop-opacity:0"/></linearGradient><linearGradient id="c"><stop offset="0" style="stop-color:#fdfdfc;stop-opacity:1"/><stop offset="1" style="stop-color:white;stop-opacity:.37121212"/></linearGradient><linearGradient id="d"><stop offset="0" style="stop-color:#555753;stop-opacity:1"/><stop offset="1" style="stop-color:#2e3436;stop-opacity:1"/></linearGradient><linearGradient id="m"><stop offset="0" style="stop-color:white;stop-opacity:1"/><stop offset="1" style="stop-color:#555753;stop-opacity:1"/></linearGradient><linearGradient id="t"><stop offset="0" style="stop-color:#d0d0cb;stop-opacity:1"/><stop offset="1" style="stop-color:#babdb6;stop-opacity:1"/></linearGradient><linearGradient id="q"><stop offset="0" style="stop-color:#babdb6;stop-opacity:1"/><stop offset="1" style="stop-color:#2e3436;stop-opacity:1"/></linearGradient><linearGradient id="b"><stop offset="0" style="stop-color:black;stop-opacity:1"/><stop offset="1" style="stop-color:white;stop-opacity:1"/></linearGradient><linearGradient id="s"><stop offset="0" style="stop-color:white;stop-opacity:1"/><stop offset=".5" style="stop-color:white;stop-opacity:1"/><stop offset="1" style="stop-color:#cccfca;stop-opacity:1"/></linearGradient><linearGradient id="r"><stop offset="0" style="stop-color:#eeeeec;stop-opacity:1"/><stop offset="1" style="stop-color:#888a85;stop-opacity:1"/></linearGradient><linearGradient id="n"><stop offset="0" style="stop-color:#babdb6;stop-opacity:1"/><stop offset="1" style="stop-color:#555753;stop-opacity:1"/></linearGradient><linearGradient id="f"><stop offset="0" style="stop-color:white;stop-opacity:1"/><stop offset="1" style="stop-color:white;stop-opacity:0"/></linearGradient><linearGradient id="a"><stop offset="0" style="stop-color:black;stop-opacity:1"/><stop offset="1" style="stop-color:black;stop-opacity:0"/></linearGradient><linearGradient xlink:href="#a" id="aa" x1="21.938" x2="21.938" y1="39" y2="37.996" gradientUnits="userSpaceOnUse"/><linearGradient xlink:href="#b" id="ad" x1="40.617" x2="40.711" y1="30.555" y2="30.359" gradientTransform="rotate(-52.924 24.266 63.625)" gradientUnits="userSpaceOnUse"/><linearGradient xlink:href="#b" id="Z" x1="40.617" x2="40.711" y1="30.555" y2="30.359" gradientUnits="userSpaceOnUse"/><linearGradient xlink:href="#c" id="W" x1="24.749" x2="24.999" y1="35.355" y2="14.998" gradientTransform="matrix(1 0 0 .99556 0 -3.931)" gradientUnits="userSpaceOnUse"/><linearGradient xlink:href="#d" id="K" x1="53.813" x2="-2.814" y1="43.573" y2="35.5" gradientTransform="translate(0 50)" gradientUnits="userSpaceOnUse"/><linearGradient xlink:href="#f" id="L" x1="12.5" x2="12.5" y1="43.188" y2="34.046" gradientUnits="userSpaceOnUse"/><linearGradient xlink:href="#g" id="M" x1="15.335" x2="20.329" y1="33.062" y2="36.377" gradientTransform="matrix(1 0 0 1.42294 10.5 -14.957)" gradientUnits="userSpaceOnUse"/><linearGradient xlink:href="#g" id="N" x1="15.335" x2="20.329" y1="33.062" y2="36.377" gradientTransform="matrix(1 0 0 1.42294 -.875 -15.046)" gradientUnits="userSpaceOnUse"/><linearGradient xlink:href="#g" id="O" x1="15.335" x2="20.329" y1="33.062" y2="36.377" gradientTransform="matrix(.45983 0 -.39116 1.3701 40.625 -13.299)" gradientUnits="userSpaceOnUse"/><linearGradient xlink:href="#k" id="J" x1="9.899" x2="9.899" y1="20" y2="13.979" gradientTransform="matrix(2.04791 0 0 2.06752 1.348 6.674)" gradientUnits="userSpaceOnUse"/><linearGradient xlink:href="#m" id="ai" x1="35.723" x2="11.953" y1="33.222" y2="14.983" gradientTransform="translate(0 3.001)" gradientUnits="userSpaceOnUse"/><linearGradient xlink:href="#n" id="Q" x1="50.506" x2="2.4" y1="37.469" y2="8.448" gradientTransform="translate(0 3.001)" gradientUnits="userSpaceOnUse"/><linearGradient xlink:href="#o" id="R" x1="8.094" x2="20.502" y1="13.796" y2="29.456" gradientTransform="matrix(1.00294 0 0 1.06904 -.118 -1.915)" gradientUnits="userSpaceOnUse"/><linearGradient id="v"><stop offset="0" style="stop-color:#d0d0cb;stop-opacity:1"/><stop offset="1" style="stop-color:#babdb6;stop-opacity:1"/></linearGradient><linearGradient xlink:href="#p" id="S" x1="19.679" x2="23.185" y1="20.903" y2="32.097" gradientUnits="userSpaceOnUse"/><radialGradient xlink:href="#q" id="Y" cx="7.518" cy="30.574" r=".531" fx="7.518" fy="30.574" gradientTransform="matrix(1.66248 0 0 1.61358 -4.99 -18.656)" gradientUnits="userSpaceOnUse"/><radialGradient xlink:href="#r" id="X" cx="7.534" cy="30.308" r=".531" fx="7.534" fy="30.308" gradientTransform="matrix(1.56949 0 0 1.52333 -4.289 -15.921)" gradientUnits="userSpaceOnUse"/><radialGradient xlink:href="#q" id="ac" cx="7.518" cy="30.574" r=".531" fx="7.518" fy="30.574" gradientTransform="matrix(1.66248 0 0 1.61358 -4.99 -18.656)" gradientUnits="userSpaceOnUse"/><radialGradient xlink:href="#s" id="ab" cx="7.519" cy="30.304" r=".531" fx="7.519" fy="30.304" gradientTransform="matrix(1.38975 0 0 1.34887 -2.92 -10.638)" gradientUnits="userSpaceOnUse"/><radialGradient xlink:href="#t" id="P" cx="25.252" cy="16.48" r="21.98" fx="25.252" fy="16.48" gradientTransform="matrix(1.033 -.5964 .57512 .99614 -12.235 11.554)" gradientUnits="userSpaceOnUse"/><radialGradient xlink:href="#u" id="H" cx="0" cy="17" r="2" fx="0" fy="17" gradientTransform="matrix(4.09582 0 0 3.10128 -9.54 -94.543)" gradientUnits="userSpaceOnUse"/><radialGradient xlink:href="#u" id="I" cx="0" cy="17" r="2" fx="0" fy="17" gradientTransform="matrix(4.09582 0 0 3.10128 38.21 -10.9)" gradientUnits="userSpaceOnUse"/><radialGradient xlink:href="#v" id="V" cx="25.252" cy="16.48" r="21.98" fx="25.252" fy="16.48" gradientTransform="matrix(.29978 -.25515 .1669 .42617 -2.086 27.056)" gradientUnits="userSpaceOnUse"/><radialGradient xlink:href="#w" id="U" cx="7.625" cy="30.578" r=".531" fx="7.625" fy="30.578" gradientTransform="matrix(1.35117 0 0 1.57652 -2.678 -17.629)" gradientUnits="userSpaceOnUse"/><radialGradient xlink:href="#x" id="aj" cx="7.519" cy="30.304" r=".531" fx="7.519" fy="30.304" gradientTransform="matrix(1.38975 0 0 1.34887 -2.92 -10.638)" gradientUnits="userSpaceOnUse"/><radialGradient xlink:href="#y" id="ak" cx="7.625" cy="30.578" r=".531" fx="7.625" fy="30.578" gradientTransform="matrix(1 0 0 .97059 0 .9)" gradientUnits="userSpaceOnUse"/><radialGradient xlink:href="#z" id="al" cx="21.885" cy="21.092" r="10.683" fx="21.885" fy="21.092" gradientTransform="matrix(.68596 -.92125 1.44483 .71285 -25.656 33.737)" gradientUnits="userSpaceOnUse"/><radialGradient xlink:href="#B" id="ag" cx="23.571" cy="22.566" r="11.155" fx="23.571" fy="22.566" gradientTransform="matrix(1 0 0 .6121 0 8.753)" gradientUnits="userSpaceOnUse"/><radialGradient xlink:href="#C" id="ah" cx="25.526" cy="26.024" r="6.535" fx="25.526" fy="26.024" gradientTransform="matrix(.52342 -.91271 1.02528 .67463 -12.88 29.478)" gradientUnits="userSpaceOnUse"/><radialGradient xlink:href="#D" id="af" cx="21.366" cy="28.457" r="4.621" fx="21.366" fy="28.457" gradientTransform="matrix(1.15427 -1.60478 1.46327 1.2076 -43.596 25.552)" gradientUnits="userSpaceOnUse"/><radialGradient xlink:href="#E" id="ae" cx="22.519" cy="27.786" r="10.337" fx="22.519" fy="27.786" gradientTransform="matrix(1 0 0 .45223 0 15.22)" gradientUnits="userSpaceOnUse"/><radialGradient xlink:href="#F" id="am" cx="24.691" cy="23.189" r="10.683" fx="24.691" fy="23.189" gradientTransform="matrix(.68596 -.92125 1.44483 .71285 -25.656 33.737)" gradientUnits="userSpaceOnUse"/><radialGradient xlink:href="#G" id="T" cx="24" cy="30.266" r="14" fx="24" fy="30.266" gradientTransform="matrix(1 0 0 .30469 0 21.044)" gradientUnits="userSpaceOnUse"/></defs><g style="display:inline"><g style="opacity:.7;display:inline"><path d="M-9.54-48.024h8.192v12.405h-8.191z" style="fill:url(#H);fill-opacity:1;stroke:none" transform="matrix(-1.03083 0 0 -1.15115 -.39 -9.283)"/><path d="M38.21 35.619h8.192v12.405H38.21z" style="fill:url(#I);fill-opacity:1;stroke:none" transform="matrix(1.03083 0 0 1.15115 -.39 -9.283)"/><path d="M9.54 35.619h28.67v12.405H9.54z" style="fill:url(#J);fill-opacity:1;stroke:none" transform="matrix(1.03083 0 0 1.15115 -.39 -9.283)"/></g><g style="display:inline"><path d="M4.518 80.5h38.964c.564 0 1.018.454 1.018 1.018v2.964c0 1.315-.45 3.018-2.456 3.018H40.5v1h-33v-1H5.643c-1.271 0-2.143-.885-2.143-2.256v-3.726c0-.564.454-1.018 1.018-1.018z" style="color:#000;fill:url(#K);fill-opacity:1;fill-rule:nonzero;stroke:#2e3436;stroke-width:1;stroke-linecap:square;stroke-linejoin:round;stroke-miterlimit:4;stroke-opacity:1;stroke-dasharray:none;stroke-dashoffset:1.4;marker:none;marker-start:none;marker-mid:none;marker-end:none;visibility:visible;display:inline;overflow:visible" transform="translate(0 -45.996)"/><path d="M4.594 31.594v3.73c0 .6.375 1.104.886 1.104h36.946c.513 0 .98-.507.98-1.016v-3.818z" style="opacity:.1;color:#000;fill:none;stroke:url(#L);stroke-width:.99999988;stroke-linecap:square;stroke-linejoin:miter;stroke-miterlimit:4;stroke-opacity:1;stroke-dashoffset:1.4;marker:none;marker-start:none;marker-mid:none;marker-end:none;visibility:visible;display:inline;overflow:visible" transform="translate(0 4.004)"/><g style="opacity:.5"><path d="M26.145 32.089S24.642 37.623 22.919 38l6.23-.126c1.388-.317 3.36-5.785 3.36-5.785z" style="opacity:.10952382;fill:url(#M);fill-opacity:1;fill-rule:evenodd;stroke:none" transform="translate(0 4.004)"/><path d="M14.77 32s-1.503 5.534-3.226 5.911l6.23-.126c1.388-.317 3.36-5.785 3.36-5.785z" style="opacity:.10952382;fill:url(#N);fill-opacity:1;fill-rule:evenodd;stroke:none" transform="translate(0 4.004)"/><path d="M34.886 32s-2.212 5.328-3.108 5.692l2.9-.121c.725-.306 3.135-5.571 3.135-5.571z" style="opacity:.10952382;fill:url(#O);fill-opacity:1;fill-rule:evenodd;stroke:none" transform="translate(0 4.004)"/></g></g><path d="M11.693 10.499h24.573c1.684 0 2.396.117 3.04 2.385l5.074 17.88c.501 1.766-1.356 2.736-3.04 2.736H6.62c-1.869 0-3.49-1.181-3.04-2.735l5.25-18.154c.568-1.964 1.18-2.112 2.864-2.112z" style="fill:url(#P);fill-opacity:1;stroke:#888a85;stroke-width:1.00000024;stroke-linecap:round;stroke-linejoin:miter;stroke-miterlimit:4;stroke-opacity:1;stroke-dashoffset:0;display:inline" transform="translate(0 3.001)"/><path d="m14.313 15.531-3.844 2.563-3.625 12.593c1.447.7 3.789 1.478 3.593 3.844H12.5V30.5c2.737 2.435 7.088 4 12 4 7.778 0 14.19-3.945 14.938-9h.218L37.5 18.094l-5.156-2.563z" style="opacity:1;color:#000;fill:url(#Q);stroke:none;stroke-width:1.00000036000000003;stroke-linecap:round;stroke-linejoin:round;stroke-miterlimit:4;stroke-opacity:1;stroke-dasharray:none;stroke-dashoffset:0;marker:none;marker-start:none;marker-mid:none;marker-end:none;visibility:visible;display:inline;overflow:visible;fill-opacity:1"/><path d="m14.25 20-3.875 2.75L8 31.531c1.246.671 2.489 1.592 2.344 3.469l14.156-.5c6.703 0 12.39-2.923 14.313-6.969L37.5 22.75 32.313 20z" style="opacity:1;color:#000;fill:url(#R);stroke:none;stroke-width:.91991049000000003;marker:none;marker-start:none;marker-mid:none;marker-end:none;visibility:visible;display:inline;overflow:visible;fill-opacity:1"/><path d="M24 16c-7.728 0-14 3.584-14 8v8.813a2.6 2.6 0 0 1 .438 1.718L24.5 34.5c5.855 0 10.996-2.239 13.5-5.5v-5c0-4.416-6.272-8-14-8z" style="opacity:1;color:#000;fill:url(#S);fill-opacity:1;fill-rule:nonzero;stroke:#555753;stroke-width:.96564066000000004;marker:none;marker-start:none;marker-mid:none;marker-end:none;visibility:visible;display:inline;overflow:visible" transform="matrix(.96653 0 0 .97472 .803 .873)"/><path d="M10 25v7.813a2.6 2.6 0 0 1 .438 1.718L24.5 34.5c5.855 0 10.996-2.239 13.5-5.5v-4c0 4.416-6.272 8-14 8s-14-3.584-14-8" style="opacity:1;color:#000;fill:#555753;fill-opacity:1;fill-rule:nonzero;stroke:none;stroke-width:1.0000002400000001;marker:none;marker-start:none;marker-mid:none;marker-end:none;visibility:visible;display:inline;overflow:visible"/><path d="M10 26v6.813a2.6 2.6 0 0 1 .438 1.718L24.5 34.5c5.855 0 10.996-2.239 13.5-5.5v-3c0 4.416-6.272 8-14 8s-14-3.584-14-8" style="opacity:1;color:#000;fill:url(#T);fill-opacity:1;fill-rule:nonzero;stroke:none;stroke-width:1.0000002400000001;marker:none;marker-start:none;marker-mid:none;marker-end:none;visibility:visible;display:inline;overflow:visible"/><path d="M10.33 31.203h3.57v3.716h-3.57z" style="color:#000;fill:#babdb6;fill-opacity:1;fill-rule:nonzero;stroke:none;stroke-width:1.0000002400000001;marker:none;marker-start:none;marker-mid:none;marker-end:none;visibility:visible;display:inline;overflow:visible" transform="matrix(1.40049 0 0 1.07628 -5.467 -2.583)"/><path d="M32.856 27.786c0 2.58-4.631 4.675-10.337 4.675-5.707 0-10.338-2.094-10.338-4.675s4.631-4.675 10.338-4.675 10.337 2.094 10.337 4.675" style="color:#000;fill:#555753;fill-opacity:1;fill-rule:nonzero;stroke:none;stroke-width:1;marker:none;marker-start:none;marker-mid:none;marker-end:none;visibility:visible;display:inline;overflow:visible" transform="matrix(.33858 0 0 .42782 2.876 20.113)"/><path d="M8.156 30.578a.524.524 0 0 1-.531.516.524.524 0 0 1-.531-.516c0-.284.238-.515.531-.515s.531.23.531.515" style="color:#000;fill:#d3d7cf;fill-opacity:1;fill-rule:nonzero;stroke:none;stroke-width:1;marker:none;marker-start:none;marker-mid:none;marker-end:none;visibility:visible;display:inline;overflow:visible" transform="matrix(6.58824 0 0 -3.87879 -39.735 149.606)"/><path d="M8.156 30.578a.524.524 0 0 1-.531.516.524.524 0 0 1-.531-.516c0-.284.238-.515.531-.515s.531.23.531.515" style="color:#000;fill:url(#U);fill-opacity:1;fill-rule:nonzero;stroke:none;stroke-width:1;marker:none;marker-start:none;marker-mid:none;marker-end:none;visibility:visible;display:inline;overflow:visible" transform="matrix(4.70588 0 0 -2.9091 -25.382 119.455)"/><path d="M7.5 31c-1.468-1.317-1.68-.694-2.851 3.173C5.003 35.895 6.479 35.6 8 36c1.656 0 3.176.04 2.737-1.766C10.216 32.68 9.063 31.461 7.5 31" style="opacity:1;color:#000;fill:url(#V);fill-opacity:1;fill-rule:nonzero;stroke:none;stroke-width:2.53841114000000001;marker:none;marker-start:none;marker-mid:none;marker-end:none;visibility:visible;display:inline;overflow:visible"/><path d="M11.688 11.5c-.804 0-1.098.07-1.22.156-.12.085-.357.402-.687 1.306L4.531 31.1c-.133.367-.055.534.313.84.367.306 1.066.56 1.781.56h34.719c.64 0 1.393-.238 1.781-.529.388-.29.488-.383.313-.871l-5.063-17.858c-.377-1.047-.682-1.44-.844-1.555-.161-.117-.443-.187-1.25-.187z" style="fill:none;stroke:url(#W);stroke-width:1.00000036;stroke-linecap:round;stroke-linejoin:miter;stroke-miterlimit:4;stroke-opacity:1;stroke-dashoffset:0;display:inline" transform="translate(0 3.001)"/><g style="opacity:.3028571;display:inline"><path d="M19.251 35.5H31.75c.416 0 .751.333.751.747v.506a.75.75 0 0 1-.751.747h-12.5a.75.75 0 0 1-.751-.747v-.506c0-.414.335-.747.751-.747z" style="color:#000;fill:#fff;fill-opacity:1;fill-rule:nonzero;stroke:#eeeeec;stroke-width:1.00000024;stroke-linecap:square;stroke-linejoin:miter;stroke-miterlimit:4;stroke-dashoffset:1.4;stroke-opacity:1;marker:none;marker-start:none;marker-mid:none;marker-end:none;visibility:visible;display:inline;overflow:visible" transform="translate(7 2.001)"/><path d="M19 36h1v1h-1z" style="color:#000;fill:#000;fill-opacity:1;fill-rule:nonzero;stroke:none;stroke-width:1;marker:none;marker-start:none;marker-mid:none;marker-end:none;visibility:visible;display:inline;overflow:visible" transform="translate(7 2.001)"/><path d="M22 36h1v1h-1z" style="color:#000;fill:#000;fill-opacity:1;fill-rule:nonzero;stroke:none;stroke-width:1;marker:none;marker-start:none;marker-mid:none;marker-end:none;visibility:visible;display:inline;overflow:visible" transform="translate(7 2.001)"/><path d="M24 36h1v1h-1z" style="color:#000;fill:#000;fill-opacity:1;fill-rule:nonzero;stroke:none;stroke-width:1;marker:none;marker-start:none;marker-mid:none;marker-end:none;visibility:visible;display:inline;overflow:visible" transform="translate(7 2.001)"/><path d="M26 36h1v1h-1z" style="color:#000;fill:#000;fill-opacity:1;fill-rule:nonzero;stroke:none;stroke-width:1;marker:none;marker-start:none;marker-mid:none;marker-end:none;visibility:visible;display:inline;overflow:visible" transform="translate(7 2.001)"/><path d="M29 36h2v1h-2z" style="color:#000;fill:#000;fill-opacity:1;fill-rule:nonzero;stroke:none;stroke-width:1;marker:none;marker-start:none;marker-mid:none;marker-end:none;visibility:visible;display:inline;overflow:visible" transform="translate(7 2.001)"/></g><path d="M8.156 30.578a.524.524 0 0 1-.531.516.524.524 0 0 1-.531-.516c0-.284.238-.515.531-.515s.531.23.531.515" style="color:#000;fill:url(#X);fill-opacity:1;fill-rule:nonzero;stroke:none;stroke-width:.46259445;marker:none;marker-start:none;marker-mid:none;marker-end:none;visibility:visible;display:inline;overflow:visible" transform="matrix(-2.6286 0 0 1.77777 60.793 -20.776)"/><path d="M8.156 30.578a.524.524 0 0 1-.531.516.524.524 0 0 1-.531-.516c0-.284.238-.515.531-.515s.531.23.531.515" style="color:#000;fill:url(#Y);fill-opacity:1;fill-rule:nonzero;stroke:none;stroke-width:1;marker:none;marker-start:none;marker-mid:none;marker-end:none;visibility:visible;display:inline;overflow:visible" transform="matrix(1.41177 0 0 .9697 29.985 3.85)"/><path d="m40.328 30.261.875.43" style="opacity:.4;fill:none;stroke:url(#Z);stroke-width:.29999995;stroke-linecap:round;stroke-linejoin:miter;stroke-miterlimit:4;stroke-opacity:1;stroke-dasharray:none;display:inline" transform="translate(0 3.001)"/><path d="M8 38h32.031v1H8z" style="opacity:.12000002;color:#000;fill:url(#aa);fill-opacity:1;fill-rule:nonzero;stroke:none;stroke-width:.68183619;marker:none;marker-start:none;marker-mid:none;marker-end:none;visibility:visible;display:inline;overflow:visible" transform="translate(0 3.001)"/><path d="M8.156 30.578a.524.524 0 0 1-.531.516.524.524 0 0 1-.531-.516c0-.284.238-.515.531-.515s.531.23.531.515" style="color:#000;fill:url(#ab);fill-opacity:1;fill-rule:nonzero;stroke:none;stroke-width:1;marker:none;marker-start:none;marker-mid:none;marker-end:none;visibility:visible;display:inline;overflow:visible" transform="matrix(-2.6286 0 0 1.77777 27.793 -20.776)"/><path d="M8.156 30.578a.524.524 0 0 1-.531.516.524.524 0 0 1-.531-.516c0-.284.238-.515.531-.515s.531.23.531.515" style="color:#000;fill:url(#ac);fill-opacity:1;fill-rule:nonzero;stroke:none;stroke-width:1;marker:none;marker-start:none;marker-mid:none;marker-end:none;visibility:visible;display:inline;overflow:visible" transform="matrix(1.41177 0 0 .9697 -3.015 3.85)"/><path d="m7.33 30.696.871-.439" style="opacity:.4;fill:none;stroke:url(#ad);stroke-width:.29999995;stroke-linecap:round;stroke-linejoin:miter;stroke-miterlimit:4;stroke-opacity:1;stroke-dasharray:none;display:inline" transform="translate(0 3.001)"/><path d="M32.856 27.786c0 2.58-4.631 4.675-10.337 4.675-5.707 0-10.338-2.094-10.338-4.675s4.631-4.675 10.338-4.675 10.337 2.094 10.337 4.675" style="color:#000;fill:url(#ae);fill-opacity:1;fill-rule:nonzero;stroke:none;stroke-width:.68167292999999995;marker:none;marker-start:none;marker-mid:none;marker-end:none;visibility:visible;display:inline;overflow:visible" transform="matrix(-1.3543 0 0 1.71127 54.497 -23.55)"/><path d="M24.132 31.737q-5.414 0-9.242-2.344l9.242-5.656z" style="color:#000;fill:url(#af);fill-opacity:1;fill-rule:nonzero;stroke:none;stroke-width:1.0000002400000001;marker:none;marker-start:none;marker-mid:none;marker-end:none;visibility:visible;display:inline;overflow:visible;opacity:.88259109" transform="matrix(-1.07116 0 0 1 49.849 .263)"/><path d="M14.89 29.393c-5.102-3.122-5.102-8.19 0-11.313 5.101-3.123 13.382-3.123 18.484 0l-9.242 5.657z" style="color:#000;fill:url(#ag);fill-opacity:1;fill-rule:nonzero;stroke:none;stroke-width:1.0000002400000001;marker:none;marker-start:none;marker-mid:none;marker-end:none;visibility:visible;display:inline;overflow:visible;opacity:.76518219" transform="matrix(-1.07116 0 0 1 49.849 .263)"/><path d="M33.374 18.08q3.826 2.343 3.828 5.657h-13.07z" style="color:#000;fill:url(#ah);fill-opacity:1;fill-rule:nonzero;stroke:none;stroke-width:1.0000002400000001;marker:none;marker-start:none;marker-mid:none;marker-end:none;visibility:visible;display:inline;overflow:visible;opacity:.90688259" transform="matrix(-1.07116 0 0 1 49.849 .263)"/><path d="M39.547 25.5 37.5 18.094l-5.156-2.563H14.313l-3.844 2.563-3.625 12.593c1.447.7 3.789 1.478 3.593 3.844L24.5 34.5c7.778 0 14.3-3.945 15.047-9" style="opacity:1;color:#000;fill:none;stroke:url(#ai);stroke-width:1.00000036000000003;stroke-linecap:round;stroke-linejoin:round;stroke-miterlimit:4;stroke-opacity:1;stroke-dasharray:none;stroke-dashoffset:0;marker:none;marker-start:none;marker-mid:none;marker-end:none;visibility:visible;display:inline;overflow:visible"/><path d="M8.156 30.578a.524.524 0 0 1-.531.516.524.524 0 0 1-.531-.516c0-.284.238-.515.531-.515s.531.23.531.515" style="color:#000;fill:url(#aj);fill-opacity:1;fill-rule:nonzero;stroke:none;stroke-width:1;marker:none;marker-start:none;marker-mid:none;marker-end:none;visibility:visible;display:inline;overflow:visible" transform="matrix(-7.52941 0 0 -3.87879 81.412 142.606)"/><path d="M8.156 30.578a.524.524 0 0 1-.531.516.524.524 0 0 1-.531-.516c0-.284.238-.515.531-.515s.531.23.531.515" style="color:#000;fill:url(#ak);fill-opacity:1;fill-rule:nonzero;stroke:none;stroke-width:1;marker:none;marker-start:none;marker-mid:none;marker-end:none;visibility:visible;display:inline;overflow:visible" transform="matrix(-5.64706 0 0 2.9091 67.059 -64.455)"/><path d="M32.856 27.786c0 2.58-4.631 4.675-10.337 4.675-5.707 0-10.338-2.094-10.338-4.675s4.631-4.675 10.338-4.675 10.337 2.094 10.337 4.675z" style="color:#000;fill:none;stroke:url(#al);stroke-width:.77122480000000004;stroke-miterlimit:4;stroke-opacity:1;stroke-dasharray:none;marker:none;marker-start:none;marker-mid:none;marker-end:none;visibility:visible;display:inline;overflow:visible;opacity:.66801619000000001" transform="matrix(-1.2092 0 0 1.3904 51.23 -14.634)"/><path d="M32.856 27.786c0 2.58-4.631 4.675-10.337 4.675-5.707 0-10.338-2.094-10.338-4.675s4.631-4.675 10.338-4.675 10.337 2.094 10.337 4.675z" style="color:#000;fill:none;stroke:#000;stroke-width:.69086813999999996;stroke-miterlimit:4;stroke-opacity:1;stroke-dasharray:none;marker:none;marker-start:none;marker-mid:none;marker-end:none;visibility:visible;display:inline;overflow:visible;opacity:.26315789000000001" transform="matrix(-1.30593 0 0 1.60431 53.408 -20.577)"/><path d="M32.856 27.786c0 2.58-4.631 4.675-10.337 4.675-5.707 0-10.338-2.094-10.338-4.675s4.631-4.675 10.338-4.675 10.337 2.094 10.337 4.675z" style="opacity:1;color:#000;fill:none;stroke:url(#am);stroke-width:2.07260441999999978;stroke-miterlimit:4;stroke-opacity:1;stroke-dasharray:none;marker:none;marker-start:none;marker-mid:none;marker-end:none;visibility:visible;display:inline;overflow:visible" transform="matrix(-.43531 0 0 .53477 33.803 9.14)"/><path d="M32.856 27.786c0 2.58-4.631 4.675-10.337 4.675-5.707 0-10.338-2.094-10.338-4.675s4.631-4.675 10.338-4.675 10.337 2.094 10.337 4.675z" style="opacity:.20242914;color:#000;fill:none;stroke:#000;stroke-width:1.71139669;stroke-miterlimit:4;stroke-opacity:1;stroke-dasharray:none;marker:none;marker-start:none;marker-mid:none;marker-end:none;visibility:visible;display:inline;overflow:visible" transform="matrix(-.53205 0 0 .64173 35.98 5.669)"/></g></svg>