<svg xmlns="http://www.w3.org/2000/svg" width="6cm" height="6cm" viewBox="47 79 119 119"><rect width="118.071" height="118.071" x="47.729" y="79.875" rx="10" ry="10" style="fill:#fff"/><rect width="118.071" height="118.071" x="47.729" y="79.875" rx="10" ry="10" style="fill:none;fill-opacity:0;stroke-width:2.35099e-37;stroke-linejoin:round;stroke:#fff"/><circle cx="113" cy="90.875" r="7.021" style="fill:#000"/><circle cx="113" cy="90.875" r="7.021" style="fill:none;fill-opacity:0;stroke-width:2;stroke-linejoin:round;stroke:#000"/><path d="M61.529 182.479 73.5 125.854 96 151.875l17-61 23.5 81.5 15.158-15.176" style="fill:none;fill-opacity:0;stroke-width:4;stroke:#000"/><circle cx="73.5" cy="125.854" r="7.021" style="fill:#000"/><circle cx="73.5" cy="125.854" r="7.021" style="fill:none;fill-opacity:0;stroke-width:2;stroke:#000"/><circle cx="136.5" cy="172.375" r="7.021" style="fill:#000"/><circle cx="136.5" cy="172.375" r="7.021" style="fill:none;fill-opacity:0;stroke-width:2;stroke:#000"/><circle cx="60.7" cy="186.4" r="7.021" style="fill:#000"/><circle cx="60.7" cy="186.4" r="7.021" style="fill:none;fill-opacity:0;stroke-width:2;stroke:#000"/><circle cx="154.5" cy="154.354" r="7.021" style="fill:#000"/><circle cx="154.5" cy="154.354" r="7.021" style="fill:none;fill-opacity:0;stroke-width:2;stroke:#000"/><circle cx="96" cy="151.875" r="7.021" style="fill:#000"/><circle cx="96" cy="151.875" r="7.021" style="fill:none;fill-opacity:0;stroke-width:2;stroke:#000"/></svg>