<?xml version="1.0" standalone="no"?>
<!DOCTYPE svg PUBLIC "-//W3C//DTD SVG 20010904//EN"
 "http://www.w3.org/TR/2001/REC-SVG-20010904/DTD/svg10.dtd">
<svg version="1.0" xmlns="http://www.w3.org/2000/svg"
 width="1024.000000pt" height="1024.000000pt" viewBox="0 0 1024.000000 1024.000000"
 preserveAspectRatio="xMidYMid meet">

<g transform="translate(0.000000,1024.000000) scale(0.100000,-0.100000)"
fill="#000000" stroke="none">
<path d="M5015 9582 c-27 -10 -754 -328 -1614 -707 -1440 -635 -1569 -694
-1616 -737 -74 -67 -109 -148 -109 -248 0 -61 115 -605 613 -2920 337 -1564
621 -2864 631 -2888 11 -24 30 -56 42 -72 42 -53 1960 -1629 2018 -1658 47
-23 67 -27 140 -27 75 0 93 4 145 30 69 35 1947 1542 2036 1635 32 33 64 77
73 101 9 24 282 1333 607 2909 649 3149 606 2912 552 3032 -17 38 -44 75 -78
106 -48 43 -177 102 -1616 737 -860 379 -1586 697 -1614 707 -64 22 -146 22
-210 0z m193 -137 c33 -10 50 -20 46 -27 -5 -7 -2 -8 5 -4 14 9 73 -13 66 -24
-3 -4 1 -8 8 -7 34 1 48 -4 41 -15 -4 -6 -3 -8 4 -5 10 7 40 -4 142 -51 75
-34 390 -172 394 -172 2 0 48 -21 102 -46 54 -26 101 -47 104 -47 3 0 39 -16
80 -35 41 -19 122 -54 180 -79 58 -25 128 -55 155 -68 28 -12 104 -46 170 -75
66 -29 147 -64 180 -79 33 -15 95 -42 137 -61 42 -18 74 -38 71 -43 -3 -6 -1
-7 6 -3 6 4 63 -15 125 -43 63 -28 120 -51 126 -51 6 0 8 -5 4 -12 -4 -6 -3
-8 3 -5 6 4 46 -9 89 -29 44 -20 151 -68 239 -106 88 -38 188 -83 223 -99 35
-16 65 -29 67 -29 6 0 132 -57 173 -78 46 -23 99 -84 128 -146 36 -77 32 -144
-27 -427 -28 -134 -57 -275 -64 -314 -8 -38 -35 -169 -60 -290 -61 -292 -112
-538 -135 -655 -10 -52 -42 -205 -70 -340 -28 -135 -71 -342 -95 -460 -24
-118 -76 -370 -115 -560 -39 -190 -82 -397 -95 -460 -13 -63 -53 -259 -90
-435 -36 -176 -88 -428 -115 -560 -65 -319 -165 -802 -185 -895 -9 -41 -28
-97 -44 -125 -29 -52 20 -11 -1490 -1230 -204 -165 -395 -313 -424 -330 -48
-28 -60 -30 -147 -30 -83 0 -101 3 -140 26 -38 21 -328 256 -825 669 -136 113
-303 250 -485 400 -317 261 -515 427 -537 451 -36 40 -61 108 -93 260 -17 79
-42 194 -55 254 -13 61 -108 502 -211 980 -102 479 -203 951 -224 1050 -74
344 -179 832 -244 1140 -37 171 -71 328 -76 350 -5 22 -53 243 -106 490 -105
498 -136 638 -165 766 -27 123 -25 210 7 279 40 87 101 136 247 199 69 30 129
53 133 52 4 -2 10 1 13 6 3 4 51 28 106 52 55 24 133 59 173 77 40 19 75 34
77 34 3 0 40 16 82 36 43 20 121 54 173 76 52 22 120 51 150 65 30 14 107 48
170 75 63 28 143 64 178 79 34 16 64 29 67 29 2 0 38 16 79 35 42 19 82 36 89
38 6 1 14 4 17 7 16 17 181 81 191 74 7 -4 10 -3 6 3 -3 5 13 18 36 28 59 26
167 74 202 90 17 7 89 39 160 70 72 31 155 68 185 82 30 14 75 33 100 43 25
10 69 29 99 43 29 14 60 23 69 20 8 -4 13 -2 10 3 -7 10 179 97 252 118 63 19
117 19 178 1z"/>
<path d="M5077 8673 c-13 -21 -35 -58 -49 -83 -14 -25 -35 -61 -46 -80 -12
-19 -44 -75 -72 -125 -28 -49 -61 -108 -74 -130 -13 -22 -48 -83 -78 -135 -30
-52 -94 -162 -141 -244 -48 -82 -87 -151 -87 -153 0 -2 -18 -32 -40 -67 l-40
-63 25 -229 c13 -126 27 -249 29 -274 3 -25 21 -196 41 -380 33 -315 76 -712
110 -1020 8 -74 26 -243 40 -375 14 -132 41 -386 61 -565 19 -179 46 -428 59
-555 46 -437 106 -979 108 -980 1 -1 46 -37 100 -79 l97 -78 98 78 c53 42 98
78 99 79 1 0 45 433 98 961 88 887 110 1111 166 1674 11 113 31 315 44 450 14
135 43 425 65 645 22 220 44 443 50 495 5 52 10 109 10 125 0 28 -54 128 -254
470 -30 50 -65 110 -78 135 -37 65 -310 534 -313 538 -2 2 -14 -13 -28 -35z"/>
<path d="M3848 3111 c-60 -109 -108 -205 -108 -214 0 -8 34 -77 76 -154 42
-76 92 -166 111 -201 29 -53 37 -61 56 -57 12 3 211 37 441 75 251 41 424 74
431 82 7 7 49 68 95 134 l82 122 -87 127 c-48 69 -97 130 -109 134 -11 5 -144
29 -294 55 -150 26 -334 58 -410 71 -75 14 -146 25 -157 25 -16 0 -43 -43
-127 -199z"/>
<path d="M6210 3303 c-14 -3 -203 -36 -420 -73 -454 -79 -389 -50 -511 -229
l-71 -103 82 -122 c46 -66 88 -127 95 -134 9 -10 731 -138 868 -154 27 -3 33
5 139 197 60 110 110 205 111 211 0 6 -33 71 -73 145 -40 74 -89 164 -109 202
-38 71 -41 72 -111 60z"/>
<path d="M5065 2692 c-22 -20 -63 -57 -92 -82 l-52 -45 -51 -390 c-27 -214
-52 -403 -55 -420 -4 -28 1 -34 91 -95 52 -36 121 -84 153 -107 l59 -42 87 60
c212 146 220 152 217 179 -1 14 -25 201 -53 415 l-51 390 -91 87 c-51 48 -99
87 -107 87 -8 0 -33 -16 -55 -37z"/>
</g>
</svg>
