<svg xmlns="http://www.w3.org/2000/svg" viewBox="0 0 128 128"><defs><radialGradient id="b" cx="-237.642" cy="32.915" r="207.234" fx="-237.642" fy="32.915" gradientTransform="translate(144.283 41.655)scale(.3539)" gradientUnits="userSpaceOnUse"><stop offset=".673" stop-color="#fcfcfc" stop-opacity="0"/><stop offset="1" stop-color="#fcfcfc"/></radialGradient><radialGradient id="c" cx="-229.296" cy="60.213" r="172.389" fx="-229.296" fy="60.213" gradientTransform="translate(144.283 41.655)scale(.3539)" gradientUnits="userSpaceOnUse"><stop offset=".109" stop-color="#0f0f0d" stop-opacity="0"/><stop offset=".886" stop-color="#414141" stop-opacity="0"/><stop offset=".934" stop-color="#1e1e1d" stop-opacity=".684"/><stop offset=".987" stop-color="#0f0f0d"/></radialGradient><radialGradient id="d" cx="-223.551" cy="-43.152" r="334.836" fx="-223.551" fy="-43.152" gradientTransform="matrix(.3539 0 0 .2026 144.283 35.195)" gradientUnits="userSpaceOnUse"><stop offset="0" stop-color="#2e6b26"/><stop offset="1" stop-color="#6ab536"/></radialGradient><radialGradient id="e" cx="-212.614" cy="12.058" r="148.11" fx="-212.614" fy="12.058" gradientTransform="matrix(.3539 0 0 .4347 144.283 40.66)" gradientUnits="userSpaceOnUse"><stop offset="0"/><stop offset=".719" stop-color="#fff"/></radialGradient><radialGradient id="f" cx="-226.056" cy="-44.918" r="65.392" fx="-226.056" fy="-44.918" gradientTransform="translate(144.283 41.655)scale(.3539)" gradientUnits="userSpaceOnUse"><stop offset="0" stop-color="#6ab536"/><stop offset="1" stop-color="#2e6b26"/></radialGradient><radialGradient id="h" cx="-263.923" cy="-1.833" r="96.585" fx="-263.923" fy="-1.833" gradientTransform="matrix(.3356 0 0 .5572 152.49 40.142)" gradientUnits="userSpaceOnUse"><stop offset="0"/><stop offset=".784" stop-color="#4f4f4f" stop-opacity="0"/></radialGradient><radialGradient id="j" cx="-227.449" cy="-64.573" r="223.51" fx="-227.449" fy="-64.573" gradientTransform="translate(144.283 41.655)scale(.3539)" gradientUnits="userSpaceOnUse"><stop offset="0" stop-color="#f5f5f5"/><stop offset="1" stop-color="#e3e3e3"/></radialGradient><linearGradient id="a" x1="64" x2="64" y1="-3.314" y2="118.486" gradientUnits="userSpaceOnUse"><stop offset="0" stop-color="#414141"/><stop offset=".196" stop-color="#3e3e3e"/><stop offset="1" stop-color="#3a3a3a"/></linearGradient></defs><g style="isolation:isolate"><path d="M0 0h128v128H0z" style="fill:none"/><path d="M64 124.9C30.42 124.9 3.1 97.58 3.1 64S30.42 3.1 64 3.1s60.9 27.32 60.9 60.9-27.32 60.9-60.9 60.9M64 8.224C33.258 8.224 8.248 33.245 8.248 64S33.258 119.776 64 119.776 119.75 94.755 119.75 64 94.741 8.224 64 8.224" style="fill:url(#a)"/><path d="M64 3.124C30.433 3.124 3.124 30.433 3.124 64S30.433 124.876 64 124.876 124.876 97.567 124.876 64 97.567 3.124 64 3.124" style="fill:url(#b);mix-blend-mode:lighten;opacity:.32"/><path d="M64 124.9C30.42 124.9 3.1 97.58 3.1 64S30.42 3.1 64 3.1s60.9 27.32 60.9 60.9-27.32 60.9-60.9 60.9M64 8.224C33.258 8.224 8.248 33.245 8.248 64S33.258 119.776 64 119.776 119.75 94.755 119.75 64 94.741 8.224 64 8.224" style="fill:url(#c);opacity:.44"/><path d="M64 8.55c-30.978 0-56.181 25.203-56.181 56.181s25.202 56.181 56.18 56.181 56.182-25.203 56.182-56.18S94.978 8.55 64 8.55" style="fill:rgba(15,15,13,.35)"/><path d="M64 124.9C30.42 124.9 3.1 97.58 3.1 64S30.42 3.1 64 3.1s60.9 27.32 60.9 60.9-27.32 60.9-60.9 60.9M64 4.403c-33.58 0-60.9 26.957-60.9 60.09s27.32 60.09 60.9 60.09 60.9-26.956 60.9-60.09S97.58 4.403 64 4.403" style="fill:#0f0f0d;opacity:.35"/><path d="M64 8.224C33.245 8.224 8.224 33.245 8.224 64S33.244 119.776 64 119.776 119.776 94.755 119.776 64 94.755 8.224 64 8.224" style="fill:url(#d)"/><path d="M64 8.224C33.245 8.224 8.224 33.245 8.224 64S33.244 119.776 64 119.776 119.776 94.755 119.776 64 94.755 8.224 64 8.224" style="fill:url(#e);mix-blend-mode:multiply;opacity:.13"/><path d="M64 12.861c-9.161 0-16.614 7.453-16.614 16.614S54.84 46.088 64 46.088s16.613-7.453 16.613-16.613S73.161 12.86 64 12.86" style="fill:url(#f);mix-blend-mode:lighten;opacity:.7"/><path d="m34.687 16.365-.008.056c-.072.014-.074-.003.008-.057m42.118 35.8-.772 13.782 9.103 9.916-9.103 9.917 6.017 6.555-6.017 6.555.772 13.67h-25.61V52.164C41.013 46.955 34.07 35.693 34.07 22.75c0-2.165.303-4.167.609-6.33 1.105-.208 18.967-7.694 18.967-7.694-.148.809 20.855.809 20.707 0 0 0 17.258 7.425 18.99 7.79.437 2.126.587 4.1.587 6.234 0 12.942-7.097 24.203-17.125 29.414m16.507-35.8q.016.075.03.152c.19.04.196-.004-.03-.152" style="fill:url(#h);mix-blend-mode:multiply;opacity:.3"/><path d="M34.116 100.432c-9.898-8.608-16.164-21.297-16.164-35.497 0-16.523 8.641-31.774 22.873-40.29-.254 1.652-.508 3.178-.508 4.83a24.55 24.55 0 0 0 14.105 22.242v44.611l10.546 10.55 10.547-10.55-.635-9.278 4.956-4.957-4.956-4.956 7.497-7.5-7.497-7.498.635-10.422c8.26-3.94 14.105-12.456 14.105-22.242 0-1.652-.127-3.178-.508-4.83a47.2 47.2 0 0 1 13.142 11.797c-8.584-11.789-22.53-19.458-38.277-19.458-26.09 0-47.242 21.05-47.242 47.016 0 14.693 6.774 27.81 17.381 36.432m27.422-7.663H57.98V57.563h3.558zM56.455 18.8a48 48 0 0 1 8.514-.763c2.922-.127 5.718.254 8.513.763.127.635.255 1.27.255 1.906 0 4.83-3.94 8.77-8.768 8.77s-8.768-3.94-8.768-8.77c0-.635.127-1.27.254-1.906" style="fill:#0f0f0d;mix-blend-mode:multiply;opacity:.2"/><path d="M64 8.224C33.258 8.224 8.249 33.245 8.249 64s25.01 55.776 55.75 55.776S119.752 94.755 119.752 64 94.741 8.224 64 8.224m-8.514 9.588A48 48 0 0 1 64 17.05c2.922-.127 5.718.254 8.514.762.127.636.254 1.271.254 1.907 0 4.83-3.94 8.77-8.768 8.77s-8.768-3.94-8.768-8.77c0-.636.127-1.271.254-1.907m5.083 38.765v35.206H57.01V56.577zm3.43 54.398c-25.922 0-47.016-20.971-47.016-47.026 0-16.523 8.641-31.775 22.873-40.29-.254 1.652-.508 3.177-.508 4.83A24.55 24.55 0 0 0 53.453 50.73v44.61L64 105.892l10.547-10.55-.636-9.277 4.956-4.957-4.956-4.957 7.497-7.499-7.497-7.498.636-10.422c8.26-3.94 14.105-12.456 14.105-22.243 0-1.652-.128-3.177-.509-4.83 14.105 8.516 22.746 23.768 22.873 40.29 0 25.929-20.967 47.027-47.016 47.027" style="fill:url(#j)"/></g></svg>