<svg xmlns="http://www.w3.org/2000/svg" xmlns:xlink="http://www.w3.org/1999/xlink" width="512" height="512"><linearGradient id="a"><stop offset="0" stop-color="#ffac1b"/><stop offset="1" stop-color="#e10b90"/></linearGradient><linearGradient xlink:href="#a" id="b" x1="474.532" x2="-29.468" y1="541.243" y2="31.909" gradientUnits="userSpaceOnUse"/><linearGradient xlink:href="#a" id="c" x1="596.461" x2="92.461" y1="420.59" y2="-88.744" gradientUnits="userSpaceOnUse"/><linearGradient xlink:href="#a" id="d" x1="555.053" x2="51.053" y1="461.564" y2="-47.769" gradientUnits="userSpaceOnUse"/><linearGradient xlink:href="#a" id="e" x1="637.305" x2="133.305" y1="380.174" y2="-129.159" gradientUnits="userSpaceOnUse"/><linearGradient xlink:href="#a" id="f" x1="677.361" x2="173.361" y1="340.537" y2="-168.796" gradientUnits="userSpaceOnUse"/><path fill="url(#b)" d="M436.975 194.57c-3.362-6.24-11.147-8.572-17.386-5.21-6.24 3.363-8.573 11.147-5.21 17.387 4.989 8.623-.885 20.525-10.769 21.802l-147.229 23.612-1.058-.694 25.793-30.671c4.562-5.425 3.863-13.521-1.562-18.083-5.424-4.56-13.521-3.863-18.083 1.563l-23.698 28.18v-25.55c-.661-17.044-25.067-16.955-25.669 0-.002 3.944-.025 28.521 0 28.531v5.07c-.773 10.351-11.352 15.587-20.21 11.45-2.322-.964-4.827-3.949-6.432-6.409-6.739-9.374-99.843-139.016-110.823-154.289-5.671-7.462-1.566-19.29 7.549-21.54l94.51-26.544 29.519-8.291c4.37-1.208 8.953-.296 12.52 2.573 3.556 2.871 5.433 7.134 5.153 11.695-.435 7.076 4.947 13.163 12.023 13.599 9.9.39 14.886-8.176 13.559-17.271l13.441 5.12 16.735 6.375a12.787 12.787 0 0 0 8.878.085c11.07-3.822 11.385-19.908.259-24.073l-58.661-22.345a39.613 39.613 0 0 0-21.316-1.918 39.488 39.488 0 0 0-9.531 1.449L75.246 45.007c-20.492 5.289-33.47 28.343-27.49 48.542-2.507-1.201-35.129 101.744-36.83 105.163-7.524 21.409 9.133 44.861 31.807 44.817l-7.687 10.455c-.03.042-.054.086-.085.128-21.324-1.227-38.778 19.152-34.236 40.071l10.332 50.823c-11.25 12.378-10.901 32.932.821 44.942l68.044 72.241a33.43 33.43 0 0 0 14.674 9.065c3.17 16.225 18.198 28.81 34.753 29.112l114.82 3.559c6.385.206 12.713-1.311 18.243-4.233 11.169 2.269 22.926-.356 32.173-7.255l107.029-79.901a40.59 40.59 0 0 0 14.333-20.082c10.435-6.641 17.341-17.757 18.598-30.131.074-.322 7.248-145.352 7.293-145.813a12.98 12.98 0 0 0-.041-1.712 40.564 40.564 0 0 0-4.822-20.228zm-270.916 67.966a40.824 40.824 0 0 0 3.925 4.663c-.132 1.668-.134 3.355-.055 5.048l-38.306-5.191 20.456-23.982zM36.448 214.489c-.774-1.049-2.438-3.888-1.192-7.596l28.965-86.137 68.174 94.913-89.042 2.2c-3.891.104-6.132-2.332-6.905-3.38zm83.095 27.175-18.162 21.293-37.351-5.062 10.43-14.185c.226-.308.43-.627.626-.948zm-91.718 40.533c.634-.957 3.978-2.994 6.727-2.393l88.115 11.941-88.229 39.425-8.559-42.102c-.723-3.554 1.12-5.989 1.946-6.871zm70.707 162.312c-16.326-17.313-51.425-54.612-67.969-72.162-3.686-4.122-2.471-10.07 2.49-12.444l6.624-2.959 111.561-49.85-52.706 137.415zm31.614 30.2c-7.365-.02-12.792-8.141-9.959-14.978l58.947-153.686c9.663 29.166 43.781 141.418 54.828 171.882zm149.084-2.842c-7.8 6.2-20.433 2.128-23.145-7.46l-45.51-144.049a32.6 32.6 0 0 0 .949-2.561c19.56 8.951 146.404 68.642 168.84 78.57zm129.748-111.86c-.787 8.78-10.297 15.137-18.679 12.597-.823-.225-162.369-75.478-162.369-75.478-1.408-4.561-3.178-9.635-5.889-13.46 46.596-8.01 144.921-22.178 192.316-31.447z"/><path fill="url(#c)" d="M280.441 72.389c-6.815.308-12.249 5.914-12.249 12.805v10.422c-.021 16.762.015 52.736 0 69.718 0 7.088 5.746 12.834 12.835 12.834h46.314c7.088 0 12.835-5.746 12.835-12.835s-5.747-12.835-12.835-12.835h-33.48v-14.401h33.48c7.088 0 12.835-5.746 12.835-12.835s-5.747-12.835-12.835-12.835h-33.48V98.028h33.48c16.999-.626 17.008-25.04 0-25.669h-46.314c-.198 0-.391.021-.586.03z"/><path fill="url(#d)" d="M202.966 72.359c-6.977-.023-12.864 5.721-12.835 12.835v80.139c0 4.748 2.585 8.883 6.417 11.103 8.19 5 19.483-1.409 19.252-11.103V153.69l14.856 13.098 9.269 8.172c5.297 4.674 13.413 4.193 18.115-1.139 4.688-5.317 4.178-13.428-1.139-18.115-8.646-7.635-26.151-23.049-34.902-30.772.463-.436 28.633-27.062 30.286-28.623 11.917-12.031-4.811-29.911-17.631-18.656L215.8 95.474v-10.28c.001-7.089-5.745-12.835-12.834-12.835z"/><path fill="url(#e)" d="M365.763 178.168c7.089 0 12.835-5.746 12.835-12.835V153.69l24.125 21.27a12.787 12.787 0 0 0 8.483 3.207c11.61.119 17.376-14.729 8.493-22.462l-34.901-30.772 30.286-28.623c11.943-12.094-4.884-29.899-17.632-18.655l-18.854 17.819v-10.28c0-7.089-5.746-12.835-12.835-12.835-7.088 0-12.835 5.746-12.835 12.835v80.139c0 7.089 5.747 12.835 12.835 12.835z"/><path fill="url(#f)" d="M511.999 112.254c-2.189-52.917-77.602-52.918-79.79 0v53.079c0 7.089 5.747 12.835 12.835 12.835 7.089 0 12.835-5.746 12.835-12.835v-12.924h28.452v12.924c.626 17 25.04 17.008 25.669 0 .002 0-.003-53.078-.001-53.079zm-54.121 14.486v-14.486c0-7.844 6.382-14.225 14.226-14.225 7.843 0 14.224 6.381 14.225 14.224v14.488h-28.451z"/></svg>