<svg xmlns="http://www.w3.org/2000/svg" xml:space="preserve" width="560.565" height="600.61"><path d="M282.478 453.791c1.041.066 2.082.131 3.123.203 7.985.551 15.618 2.424 22.75 6.129 5.096 2.648 9.614 6.076 13.644 10.164 4.376 4.438 7.995 9.414 10.721 15.027 2 4.119 3.389 8.443 4.35 12.914 1.179 5.48 1.567 11.029 1.333 16.613-.376 8.957-2.358 17.521-6.582 25.492-2.947 5.561-6.788 10.439-11.357 14.754-7.327 6.92-15.915 11.434-25.78 13.523-3.653.773-7.336 1.258-11.067 1.375-.17.006-.337.055-.506.082h-4.391c-.953-.066-1.907-.134-2.86-.203-11.427-.826-21.855-4.359-30.892-11.549-7.132-5.674-12.718-12.6-16.529-20.91-1.937-4.225-3.23-8.652-4.095-13.213-.98-5.158-1.288-10.365-1.027-15.598.55-11.016 3.452-21.301 9.843-30.416 7.48-10.664 17.261-18.248 29.888-21.914 3.848-1.117 7.771-1.861 11.77-2.17 1.267-.098 2.538-.146 3.807-.225.207-.012.412-.053.618-.08h3.239zm-1.736 101.33c4.062-.035 7.993-.365 11.848-1.318 8.398-2.074 15.38-6.43 20.932-13.072 5.666-6.777 8.612-14.654 9.413-23.389.274-2.988.306-5.982.128-8.98-.192-3.254-.622-6.475-1.485-9.621-2.696-9.828-8.216-17.668-16.697-23.34-6.341-4.24-13.437-6.182-21.006-6.557-4.137-.203-8.249-.018-12.328.725-7.126 1.293-13.466 4.236-18.93 9.023-5.3 4.643-9.128 10.281-11.499 16.912-1.795 5.018-2.512 10.213-2.588 15.518-.059 4.123.227 8.215 1.126 12.242 1.624 7.266 4.89 13.682 9.993 19.148 4.501 4.82 9.856 8.291 16.094 10.416 4.897 1.67 9.958 2.238 14.999 2.293M489.103 567.455c-.431 1.039-.759 1.252-1.934 1.252-3.834 0-7.667.002-11.503 0-1.351 0-1.849-.5-1.849-1.859V457.055c0-1.408.497-1.898 1.925-1.9 3.834 0 7.668-.014 11.501.02.472.004.989.191 1.394.441.245.152.316.586.466.895z" style="clip-rule:evenodd;fill-rule:evenodd" transform="translate(-28.538 -69.457)"/><path d="M176.393 501.213c1.936 2.57 3.851 5.115 5.766 7.66l12.185 16.195 15.67 20.828c5.119 6.803 10.236 13.607 15.362 20.404.379.502.544 1.012.272 1.592-.276.588-.812.777-1.416.813-.277.016-.557.002-.836.002-4.723 0-9.445-.004-14.168.006-.808.002-1.4-.27-1.904-.943-8.909-11.904-17.835-23.797-26.759-35.691-5.068-6.754-10.14-13.506-15.209-20.258-.042-.057-.09-.105-.163-.191-.615.574-1.226 1.141-1.833 1.709-4.111 3.844-8.219 7.689-12.329 11.531-2.266 2.117-4.532 4.234-6.81 6.338-.294.271-.415.539-.414.939.01 11.502.008 23.005.008 34.506 0 .139.004.279 0 .418-.029 1.055-.565 1.627-1.619 1.631-4.027.016-8.052.014-12.077.002-1.022-.004-1.56-.578-1.58-1.604-.002-.121 0-.244 0-.365V457.05c0-1.387.501-1.893 1.877-1.893 3.677-.002 7.354-.002 11.032-.002.243 0 .488-.008.731.002 1.065.049 1.588.572 1.635 1.633.007.158.001.314.001.471V511.114c.913-.852 1.736-1.617 2.556-2.385 4.853-4.553 9.704-9.111 14.56-13.662 6.368-5.969 12.741-11.932 19.109-17.902 5.338-5.004 10.672-10.014 16.008-15.02 2.249-2.111 4.503-4.215 6.745-6.332a2.292 2.292 0 0 1 1.644-.658c5.629.002 11.258 0 16.887.002.959 0 1.501.348 1.703 1.064.167.592-.061 1.055-.476 1.451a1652.13 1652.13 0 0 1-4.892 4.639c-2.89 2.725-5.786 5.445-8.676 8.17-4.007 3.775-8.013 7.551-12.017 11.33-4.104 3.873-8.204 7.752-12.309 11.625-2.738 2.582-5.48 5.158-8.264 7.777M355.866 511.943v-54.688c0-.158-.002-.314.001-.471.021-1.033.54-1.572 1.565-1.629.07-.005.141-.002.21-.002 15.633.002 31.266-.037 46.898.021 7.19.027 14.071 1.643 20.634 4.578 5.71 2.555 10.728 6.113 15.086 10.592 7.098 7.293 11.814 15.895 14.132 25.816 1.335 5.713 1.887 11.498 1.765 17.352-.164 7.861-1.527 15.494-4.508 22.799-2.488 6.098-6.051 11.512-10.54 16.32-6.892 7.381-15.261 12.23-25.07 14.607-4.232 1.025-8.521 1.482-12.876 1.477-15.145-.023-30.289-.008-45.435-.01-.259 0-.521-.018-.776-.057-.56-.09-.906-.426-1.006-.982a4.986 4.986 0 0 1-.077-.879c-.003-18.281-.003-36.562-.003-54.844m15.295 42.147h.674c10.177 0 20.354.01 30.532-.01a72.062 72.062 0 0 0 5.478-.223c3.781-.297 7.386-1.299 10.833-2.877 4.508-2.064 8.293-5.07 11.554-8.783a41.764 41.764 0 0 0 7.209-11.557c1.884-4.52 2.896-9.236 3.272-14.111.344-4.449.204-8.878-.466-13.283-.794-5.209-2.487-10.121-5.106-14.697-2.91-5.088-6.666-9.443-11.486-12.811-5.772-4.029-12.253-5.904-19.252-5.938-10.892-.053-21.784-.018-32.676-.02h-.565v84.31z" style="clip-rule:evenodd;fill-rule:evenodd" transform="translate(-28.538 -69.457)"/><path d="M431.521 293.719c-.791 2.568-2.526 4.448-4.384 6.299-12.448 12.406-24.857 24.852-37.278 37.284-4.476 4.478-9.259 4.465-13.752-.032-12.82-12.83-25.641-25.659-38.456-38.491-4.366-4.372-4.364-9.144.013-13.526 12.888-12.906 25.778-25.809 38.671-38.708 4.195-4.198 9.124-4.2 13.318-.004 12.499 12.501 24.979 25.02 37.499 37.496 1.859 1.852 3.586 3.741 4.369 6.31zM307.953 413.914c-2.556-.812-4.408-2.582-6.251-4.436-12.395-12.458-24.828-24.877-37.247-37.312-4.444-4.45-4.449-9.198-.015-13.638 12.855-12.865 25.709-25.729 38.567-38.592 4.274-4.274 9.171-4.29 13.422-.037 12.856 12.864 25.711 25.729 38.563 38.597 4.415 4.421 4.428 9.264.031 13.664-12.527 12.541-25.075 25.066-37.573 37.633-1.789 1.798-3.629 3.415-6.123 4.12h-3.374zM262.841 261.207c0-14.303.129-28.608-.081-42.909-.061-4.14.928-7.374 4.089-10.104 2.543-2.198 4.797-4.733 7.179-7.118 9.423-9.433 18.845-18.867 28.271-28.296 4.433-4.432 9.213-4.429 13.643.002a199342.53 199342.53 0 0 1 38.459 38.482c4.403 4.407 4.4 9.254-.003 13.663-15.16 15.179-30.326 30.356-45.49 45.533-13.391 13.405-26.78 26.809-40.173 40.212-2.481 2.482-4.679 1.905-5.581-1.536-.278-1.066-.3-2.219-.301-3.332-.018-14.866-.012-29.732-.012-44.597M232.182 292.201c0 13.127.019 26.256-.026 39.383-.005 1.247-.203 2.567-.65 3.724-.876 2.279-2.52 2.561-4.241.844-6.037-6.027-12.057-12.071-18.083-18.107-6.965-6.977-13.932-13.953-20.894-20.934-2.882-2.889-2.895-6.898-.024-9.801 12.82-12.967 25.643-25.933 38.472-38.895.848-.857 1.648-2.02 3.089-1.475 1.378.52 1.922 1.763 2.118 3.141.122.854.218 1.722.22 2.583.013 13.179.009 26.359.009 39.537z" style="clip-rule:evenodd;fill:#31afe1;fill-rule:evenodd" transform="translate(-28.538 -69.457)"/><path d="M475.073 387.463h-2.771v7.08h-.9v-7.08h-2.771v-.863h6.443v.863zM483.942 386.6v7.943h-.9v-6.576l-2.94 3.78-2.987-3.78v6.576h-.9V386.6h1.044l2.844 3.768 2.796-3.768z"/></svg>