<svg xmlns="http://www.w3.org/2000/svg" width="64" height="64"><defs><linearGradient id="c" x1="406.501" x2="419.974" y1="527.014" y2="539.825" gradientTransform="matrix(1.2998 0 0 1.2998 -499.065 339.528)" gradientUnits="userSpaceOnUse"><stop stop-color="#292c2f"/><stop offset="1" stop-opacity="0"/></linearGradient><linearGradient id="b" x1="36.313" x2="17.848" y1="45.539" y2="11.687" gradientTransform="matrix(1.2998 0 0 1.2998 .8 989.17)" gradientUnits="userSpaceOnUse"><stop stop-color="#536161" style="stop-color:#bfc9c9;stop-opacity:1"/><stop offset="1" stop-color="#f4f5f5" style="stop-color:#fbfbfb;stop-opacity:1"/></linearGradient><linearGradient id="a" x1="428.816" x2="388.865" y1="547.634" y2="499.679" gradientTransform="matrix(1.2998 0 0 1.2998 -499.065 339.528)" gradientUnits="userSpaceOnUse"><stop stop-color="#2a2c2f"/><stop offset="1" stop-color="#536161"/></linearGradient></defs><g transform="translate(0 -988.362)"><rect width="51.992" height="51.992" x="6" y="994.37" rx=".992" ry=".992" style="fill:url(#a)"/><path d="m27.335 1007.368-1.838 1.838 11.16 11.16-11.16 11.16 1.838 1.838 12.998-12.998-1.838-1.838z" style="fill:url(#b);stroke:none;stroke-width:.25996101;stroke-miterlimit:4;stroke-dasharray:none;stroke-opacity:1"/><path d="m27.343 1033.364 12.46 12.46H58v-7.799l-17.66-17.659z" style="opacity:.4;fill:url(#c);fill-rule:evenodd"/><path d="M6.992 6.008A.99.99 0 0 0 6 7v1a.99.99 0 0 1 .992-.992H57a.99.99 0 0 1 .992.992V7A.99.99 0 0 0 57 6.008H6.992z" style="fill:#fff;color:#000;clip-rule:nonzero;display:inline;overflow:visible;visibility:visible;opacity:.3;isolation:auto;mix-blend-mode:normal;color-interpolation:sRGB;color-interpolation-filters:linearRGB;solid-color:#000;solid-opacity:1;fill-opacity:1;fill-rule:nonzero;stroke-width:1;stroke-linecap:butt;stroke-linejoin:miter;stroke-miterlimit:4;stroke-dasharray:none;stroke-dashoffset:0;stroke-opacity:1;filter-blend-mode:normal;filter-gaussianBlur-deviation:0;color-rendering:auto;image-rendering:auto;shape-rendering:auto;text-rendering:auto;enable-background:accumulate" transform="translate(0 988.362)"/><path d="M6.992 1046.362a.99.99 0 0 1-.992-.992v-1c0 .55.443.992.992.992H57a.99.99 0 0 0 .992-.992v1a.99.99 0 0 1-.992.992H6.992z" style="color:#000;clip-rule:nonzero;display:inline;overflow:visible;visibility:visible;opacity:.3;isolation:auto;mix-blend-mode:normal;color-interpolation:sRGB;color-interpolation-filters:linearRGB;solid-color:#000;solid-opacity:1;fill:#000;fill-opacity:1;fill-rule:nonzero;stroke-width:1;stroke-linecap:butt;stroke-linejoin:miter;stroke-miterlimit:4;stroke-dasharray:none;stroke-dashoffset:0;stroke-opacity:1;color-rendering:auto;image-rendering:auto;shape-rendering:auto;text-rendering:auto;enable-background:accumulate;filter-blend-mode:normal;filter-gaussianBlur-deviation:0"/></g></svg>