<?xml version="1.0" encoding="UTF-8" standalone="no"?>
<svg
   version="1.1"
   width="180"
   height="180.5"
   style="clip-rule:evenodd;fill-rule:evenodd;image-rendering:optimizeQuality;shape-rendering:geometricPrecision;text-rendering:geometricPrecision"
   id="svg49"
   xmlns:xlink="http://www.w3.org/1999/xlink"
   xmlns="http://www.w3.org/2000/svg"
   xmlns:svg="http://www.w3.org/2000/svg">
  <defs
     id="defs49">
    <linearGradient
       id="linearGradient51">
      <stop
         style="stop-color:#262626;stop-opacity:0.99862742;"
         offset="0"
         id="stop51" />
      <stop
         style="stop-color:#222222;stop-opacity:0;"
         offset="1"
         id="stop52" />
    </linearGradient>
    <linearGradient
       xlink:href="#linearGradient51"
       id="linearGradient52"
       x1="14.43075"
       y1="142.81931"
       x2="16.73967"
       y2="-68.401756"
       gradientUnits="userSpaceOnUse" />
  </defs>
  <rect
     style="clip-rule:evenodd;fill:url(#linearGradient52);fill-opacity:1;fill-rule:evenodd;stroke:none;stroke-linejoin:round;stroke-miterlimit:4.8;stroke-opacity:1;paint-order:markers stroke fill;image-rendering:optimizeQuality;shape-rendering:geometricPrecision;text-rendering:geometricPrecision"
     id="rect49"
     width="180"
     height="180"
     x="0"
     y="0.5"
     rx="0.65122825"
     ry="0.65122825" />
  <g
     id="g3"
     transform="translate(0,0.5)">
    <path
       style="opacity:1"
       fill="#ead9c1"
       d="m 96.5,-0.5 c 11,0 22,0 33,0 0.039,1.25618 -0.461,2.25618 -1.5,3 -0.167,14.678 -0.667,29.3447 -1.5,44 -2.458,-1.9548 -4.791,-4.1215 -7,-6.5 -3.099,-2.3887 -6.433,-2.8887 -10,-1.5 -2.489,2.3232 -4.822,4.8232 -7,7.5 -0.948,0.4828 -1.948,0.6495 -3,0.5 0,-15 0,-30 0,-45 -1,0 -2,0 -3,0 0,-0.666667 0,-1.333333 0,-2 z"
       id="path3" />
  </g>
  <g
     id="g4"
     transform="translate(0,0.5)">
    <path
       style="opacity:1"
       fill="#e0d0b8"
       d="m 129.5,-0.5 c 0.333,0 0.667,0 1,0 0,17.6667 0,35.3333 0,53 -3.292,0.3804 -5.625,-0.9529 -7,-4 -1.545,-0.9519 -3.212,-1.2852 -5,-1 -0.667,-1 -1.333,-2 -2,-3 -0.652,-1.2251 -1.819,-1.8917 -3.5,-2 -3.604,1.284 -6.938,3.284 -10,6 -1.009,1.5249 -1.509,3.1916 -1.5,5 -1.6667,0 -3.3333,0 -5,0 0,-17.3333 0,-34.6667 0,-52 1,0 2,0 3,0 0,15 0,30 0,45 1.052,0.1495 2.052,-0.0172 3,-0.5 2.178,-2.6768 4.511,-5.1768 7,-7.5 3.567,-1.3887 6.901,-0.8887 10,1.5 2.209,2.3785 4.542,4.5452 7,6.5 0.833,-14.6553 1.333,-29.322 1.5,-44 1.039,-0.74382 1.539,-1.74382 1.5,-3 z"
       id="path4" />
  </g>
  <g
     id="g7"
     transform="translate(0,0.5)">
    <path
       style="opacity:1"
       fill="#bfb2a0"
       d="m 130.5,-0.5 c 0.333,0 0.667,0 1,0 0,13 0,26 0,39 0,1 0,2 0,3 0,5.3333 0,10.6667 0,16 -0.342,0.8382 -1.008,1.1716 -2,1 -4.054,-3.3875 -7.721,-7.0542 -11,-11 1.788,-0.2852 3.455,0.0481 5,1 1.375,3.0471 3.708,4.3804 7,4 0,-17.6667 0,-35.3333 0,-53 z"
       id="path7" />
  </g>
  <g
     id="g8"
     transform="translate(0,0.5)">
    <path
       style="opacity:1"
       fill="#c0b3a1"
       d="m 95.5,-0.5 c 0.3333,0 0.6667,0 1,0 0,0.666667 0,1.333333 0,2 0,17.3333 0,34.6667 0,52 1.6667,0 3.3333,0 5,0 -0.009,-1.8084 0.491,-3.4751 1.5,-5 3.062,-2.716 6.396,-4.716 10,-6 1.681,0.1083 2.848,0.7749 3.5,2 -1.568,-0.9731 -3.235,-1.1397 -5,-0.5 -4.897,4.7287 -9.564,9.562 -14,14.5 -0.9916,0.1716 -1.6583,-0.1618 -2,-1 0,-5.3333 0,-10.6667 0,-16 0,-1 0,-2 0,-3 0,-13 0,-26 0,-39 z"
       id="path8" />
  </g>
  <g
     id="g9"
     transform="translate(0,0.5)">
    <path
       style="opacity:1"
       fill="#7f7f7f"
       d="m 94.5,38.5 c 0.3333,0 0.6667,0 1,0 0,1 0,2 0,3 -5.7055,0.3288 -11.3722,-0.0046 -17,-1 0.2093,-0.586 0.5426,-1.086 1,-1.5 4.9889,-0.4993 9.9889,-0.6659 15,-0.5 z"
       id="path9" />
  </g>
  <g
     id="g10"
     transform="translate(0,0.5)">
    <path
       style="opacity:1"
       fill="#838383"
       d="m 48.5,41.5 c -5.7055,0.3288 -11.3722,-0.0046 -17,-1 0.2093,-0.586 0.5426,-1.086 1,-1.5 5.3229,-0.4994 10.6563,-0.666 16,-0.5 0,1 0,2 0,3 z"
       id="path10" />
  </g>
  <g
     id="g11"
     transform="translate(0,0.5)">
    <path
       style="opacity:1"
       fill="#7c7c7c"
       d="m 72.5,41.5 c -5.6667,0 -11.3333,0 -17,0 0,-1 0,-2 0,-3 5.6667,0 11.3333,0 17,0 0,1 0,2 0,3 z"
       id="path11" />
  </g>
  <g
     id="g12"
     transform="translate(0,0.5)">
    <path
       style="opacity:1"
       fill="#7b7b7b"
       d="m 131.5,38.5 c 0.333,0 0.667,0 1,0 3.35,-0.165 6.683,0.0017 10,0.5 0.752,0.6708 1.086,1.5041 1,2.5 -4,0 -8,0 -12,0 0,-1 0,-2 0,-3 z"
       id="path12" />
  </g>
  <g
     id="g14"
     transform="translate(0,0.5)">
    <path
       style="opacity:1"
       fill="#272726"
       d="m 116.5,44.5 c 0.667,1 1.333,2 2,3 3.279,3.9458 6.946,7.6125 11,11 1.575,1.6137 2.241,3.6137 2,6 -1.373,0.1567 -2.707,-0.01 -4,-0.5 -2.692,-2.5572 -5.025,-5.3905 -7,-8.5 -2.08,-2.089 -4.413,-3.7556 -7,-5 -2.106,0.9295 -4.106,2.0962 -6,3.5 -1.962,3.8294 -4.629,7.1627 -8,10 -1.2932,0.49 -2.6266,0.6567 -4,0.5 -0.2413,-2.3863 0.4254,-4.3863 2,-6 4.436,-4.938 9.103,-9.7713 14,-14.5 1.765,-0.6397 3.432,-0.4731 5,0.5 z"
       id="path14" />
  </g>
  <g
     id="g17"
     transform="translate(0,0.5)">
    <path
       style="opacity:1"
       fill="#d7c9b4"
       d="m 45.5,48.5 c 0,2 0,4 0,6 -6.0112,0.607 -12.0112,1.2737 -18,2 0,-0.3333 0,-0.6667 0,-1 -0.1633,-2.3568 0.0034,-4.6902 0.5,-7 5.9558,-6.6474 11.7891,-6.6474 17.5,0 z"
       id="path17" />
  </g>
  <g
     id="g18"
     transform="translate(0,0.5)">
    <path
       style="opacity:1"
       fill="#b9ab96"
       d="m 45.5,48.5 c 0.9731,2.4479 1.3064,5.1146 1,8 -1.2794,1.6233 -2.6128,3.29 -4,5 -6.8302,3.699 -11.8302,2.0323 -15,-5 5.9888,-0.7263 11.9888,-1.393 18,-2 0,-2 0,-4 0,-6 z"
       id="path18" />
  </g>
  <g
     id="g19"
     transform="translate(0,0.5)">
    <path
       style="opacity:1"
       fill="#dddddd"
       d="m 32.5,71.5 c 0,-0.6667 0.3333,-1 1,-1 1.3333,0 2.6667,0 4,0 0.6564,23.3576 -0.0103,46.358 -2,69 0,-22.667 0,-45.3333 0,-68 -1,0 -2,0 -3,0 z"
       id="path19" />
  </g>
  <g
     id="g20"
     transform="translate(0,0.5)">
    <path
       style="opacity:1"
       fill="#cecece"
       d="m 37.5,70.5 c 1.9899,22.9761 2.6565,46.309 2,70 -2.5593,0.302 -4.8926,-0.032 -7,-1 1,0 2,0 3,0 1.9897,-22.642 2.6564,-45.6424 2,-69 z"
       id="path20" />
  </g>
  <g
     id="g21"
     transform="translate(0,0.5)">
    <path
       style="opacity:1"
       fill="#bcbcbc"
       d="m 33.5,70.5 c 2.5613,-1.2671 5.228,-1.2671 8,0 0,23 0,46 0,69 -0.6667,0 -1,0.333 -1,1 -0.3333,0 -0.6667,0 -1,0 0.6565,-23.691 -0.0101,-47.0239 -2,-70 -1.3333,0 -2.6667,0 -4,0 z"
       id="path21" />
  </g>
  <g
     id="g22"
     transform="translate(0,0.5)">
    <path
       style="opacity:1"
       fill="#efefef"
       d="m 32.5,71.5 c 1,0 2,0 3,0 0,22.6667 0,45.333 0,68 -1,0 -2,0 -3,0 -2.043,-1.079 -3.3763,-2.746 -4,-5 -0.1666,-20.003 0,-40.0028 0.5,-60 0.4224,-1.9257 1.5891,-2.9257 3.5,-3 z"
       id="path22" />
  </g>
  <g
     id="g23"
     transform="translate(0,0.5)">
    <path
       style="opacity:1"
       fill="#a6a6a6"
       d="m 41.5,70.5 c 1,0.6667 2,1.3333 3,2 0.1666,21.6692 0,43.336 -0.5,65 -0.7083,0.881 -1.5416,1.547 -2.5,2 0,-23 0,-46 0,-69 z"
       id="path23" />
  </g>
  <g
     id="g24"
     transform="translate(0,0.5)">
    <path
       style="opacity:1"
       fill="#848484"
       d="m 102.5,72.5 c 5.667,0 11.333,0 17,0 0,1 0,2 0,3 -5.667,0 -11.333,0 -17,0 0,-1 0,-2 0,-3 z"
       id="path24" />
  </g>
  <g
     id="g25"
     transform="translate(0,0.5)">
    <path
       style="opacity:1"
       fill="#838383"
       d="m 126.5,72.5 c 5.667,0 11.333,0 17,0 0,1 0,2 0,3 -5.667,0 -11.333,0 -17,0 0,-1 0,-2 0,-3 z"
       id="path25" />
  </g>
  <g
     id="g26"
     transform="translate(0,0.5)">
    <path
       style="opacity:1"
       fill="#878787"
       d="m 44.5,72.5 c 1.3333,0 2.6667,0 4,0 -0.9133,2.5547 -1.58,5.2214 -2,8 0.0068,1.8693 0.3401,3.536 1,5 0,0.6667 -0.3333,1 -1,1 -1.3802,3.9369 -1.2136,7.9369 0.5,12 5.1349,-4.4735 10.6349,-8.3068 16.5,-11.5 4.3511,-4.9135 9.0178,-9.4135 14,-13.5 6.2748,-0.918 12.6082,-1.2513 19,-1 0,1 0,2 0,3 -5.6667,0 -11.3333,0 -17,0 0,2.3333 0,4.6667 0,7 -8.8895,7.4712 -17.8895,14.9712 -27,22.5 0.5442,0.717 1.2109,1.217 2,1.5 0.3333,1 1,1.667 2,2 3.4433,3.229 7.11,6.229 11,9 4.257,2.751 8.0903,6.084 11.5,10 0.4974,2.646 0.6641,5.313 0.5,8 -0.9013,0.79 -1.5679,1.79 -2,3 -0.6667,0.333 -1.3333,0.667 -2,1 0.0086,-1.808 -0.4914,-3.475 -1.5,-5 -8.2305,-6.491 -16.0638,-13.324 -23.5,-20.5 -1.2659,-0.309 -2.4326,-0.809 -3.5,-1.5 -0.3333,0.333 -0.6667,0.667 -1,1 -0.8075,3.527 -0.6408,6.86 0.5,10 0.6667,0 1,0.333 1,1 -0.7296,3.531 -1.3963,7.197 -2,11 0.825,0.886 1.825,1.219 3,1 0,1.333 0,2.667 0,4 -2.6667,0 -5.3333,0 -8,0 0,-0.667 0.3333,-1 1,-1 0.9584,-0.453 1.7917,-1.119 2.5,-2 0.5,-21.664 0.6666,-43.3308 0.5,-65 z"
       id="path26" />
  </g>
  <g
     id="g27"
     transform="translate(0,0.5)">
    <path
       style="opacity:1"
       fill="#8d8d8d"
       d="m 63.5,72.5 c -1.0846,2.0869 -2.7512,3.4202 -5,4 -0.709,-0.904 -1.709,-1.2373 -3,-1 0,-1 0,-2 0,-3 2.6667,0 5.3333,0 8,0 z"
       id="path27" />
  </g>
  <g
     id="g28"
     transform="translate(0,0.5)">
    <path
       style="opacity:1"
       fill="#d3d3d3"
       d="m 67.5,70.5 c 1.3333,0 2.6667,0 4,0 -2.8325,3.6652 -6.1659,6.8318 -10,9.5 -4.7185,3.688 -9.7185,6.8546 -15,9.5 0,-1 0,-2 0,-3 0.6667,0 1,-0.3333 1,-1 3.89,-2.7714 7.5567,-5.7714 11,-9 2.2488,-0.5798 3.9154,-1.9131 5,-4 1.3333,-0.6667 2.6667,-1.3333 4,-2 z"
       id="path28" />
  </g>
  <g
     id="g31"
     transform="translate(0,0.5)">
    <path
       style="opacity:1"
       fill="#b9b9b9"
       d="m 71.5,70.5 c 1.025,0.3966 1.1917,1.0632 0.5,2 -7.3835,7.7958 -15.5501,14.7958 -24.5,21 -0.9287,-1.1888 -1.262,-2.5222 -1,-4 5.2815,-2.6454 10.2815,-5.812 15,-9.5 3.8341,-2.6682 7.1675,-5.8348 10,-9.5 z"
       id="path31" />
  </g>
  <g
     id="g32"
     transform="translate(0,0.5)">
    <path
       style="opacity:1"
       fill="#9f9f9f"
       d="m 67.5,70.5 c 2.5259,-1.1567 5.1926,-1.1567 8,0 0.6667,1 1.3333,2 2,3 -4.9822,4.0865 -9.6489,8.5865 -14,13.5 -5.8651,3.1932 -11.3651,7.0265 -16.5,11.5 -1.7136,-4.0631 -1.8802,-8.0631 -0.5,-12 0,1 0,2 0,3 -0.262,1.4778 0.0713,2.8112 1,4 8.9499,-6.2042 17.1165,-13.2042 24.5,-21 0.6917,-0.9368 0.525,-1.6034 -0.5,-2 -1.3333,0 -2.6667,0 -4,0 z"
       id="path32" />
  </g>
  <g
     id="g33"
     transform="translate(0,0.5)">
    <path
       style="opacity:1"
       fill="#777777"
       d="m 72.5,106.5 c -6.0982,0.617 -11.7649,-0.05 -17,-2 5.2499,-1.115 10.5833,-1.281 16,-0.5 0.7524,0.671 1.0858,1.504 1,2.5 z"
       id="path33" />
  </g>
  <g
     id="g34"
     transform="translate(0,0.5)">
    <path
       style="opacity:1"
       fill="#6f6f6f"
       d="m 79.5,103.5 c 5.3437,-0.166 10.6771,0.001 16,0.5 1.3333,1 1.3333,2 0,3 -5.3333,0.667 -10.6667,0.667 -16,0 -1.1843,-1.145 -1.1843,-2.312 0,-3.5 z"
       id="path34" />
  </g>
  <g
     id="g35"
     transform="translate(0,0.5)">
    <path
       style="opacity:1"
       fill="#707070"
       d="m 103.5,103.5 c 5.333,0 10.667,0 16,0 0,1.333 0,2.667 0,4 -5.667,0 -11.333,0 -17,0 -0.067,-1.459 0.266,-2.792 1,-4 z"
       id="path35" />
  </g>
  <g
     id="g36"
     transform="translate(0,0.5)">
    <path
       style="opacity:1"
       fill="#707070"
       d="m 126.5,103.5 c 5.344,-0.166 10.677,0.001 16,0.5 1.333,1 1.333,2 0,3 -5.323,0.499 -10.656,0.666 -16,0.5 0,-1.333 0,-2.667 0,-4 z"
       id="path36" />
  </g>
  <g
     id="g37"
     transform="translate(0,0.5)">
    <path
       style="opacity:1"
       fill="#525252"
       d="m 55.5,104.5 c 5.2351,1.95 10.9018,2.617 17,2 -5.3333,0.667 -10.6667,1.333 -16,2 -1,-0.333 -1.6667,-1 -2,-2 -0.1716,-0.992 0.1618,-1.658 1,-2 z"
       id="path37" />
  </g>
  <g
     id="g40"
     transform="translate(0,0.5)">
    <path
       style="opacity:1"
       fill="#a4a4a4"
       d="m 75.5,139.5 c -2.8915,0.903 -5.8915,1.236 -9,1 0,-0.333 0,-0.667 0,-1 1.3333,0 2.6667,0 4,0 2.1456,-0.196 2.3122,-1.196 0.5,-3 -3.9387,-3.694 -7.7721,-7.527 -11.5,-11.5 -3.9026,-3.415 -7.9026,-6.582 -12,-9.5 -0.8857,0.825 -1.219,1.825 -1,3 0,1.667 0,3.333 0,5 -1.1408,-3.14 -1.3075,-6.473 -0.5,-10 0.3333,-0.333 0.6667,-0.667 1,-1 1.0674,0.691 2.2341,1.191 3.5,1.5 7.4362,7.176 15.2695,14.009 23.5,20.5 1.0086,1.525 1.5086,3.192 1.5,5 z"
       id="path40" />
  </g>
  <g
     id="g41"
     transform="translate(0,0.5)">
    <path
       style="opacity:1"
       fill="#d0d0d0"
       d="m 46.5,118.5 c 7.9549,6.949 15.9549,13.949 24,21 -1.3333,0 -2.6667,0 -4,0 -1.7459,-1.752 -3.7459,-3.085 -6,-4 -4.1478,-3.904 -8.4811,-7.571 -13,-11 0,-0.667 -0.3333,-1 -1,-1 0,-1.667 0,-3.333 0,-5 z"
       id="path41" />
  </g>
  <g
     id="g43"
     transform="translate(0,0.5)">
    <path
       style="opacity:1"
       fill="#bcbcbc"
       d="m 70.5,139.5 c -8.0451,-7.051 -16.0451,-14.051 -24,-21 -0.219,-1.175 0.1143,-2.175 1,-3 4.0974,2.918 8.0974,6.085 12,9.5 3.7279,3.973 7.5613,7.806 11.5,11.5 1.8122,1.804 1.6456,2.804 -0.5,3 z"
       id="path43" />
  </g>
  <g
     id="g44"
     transform="translate(0,0.5)">
    <path
       style="opacity:1"
       fill="#545454"
       d="m 79.5,135.5 c 5.3333,0.667 10.6667,1.333 16,2 -5.7709,-0.613 -11.1042,0.054 -16,2 -0.6667,-0.333 -1.3333,-0.667 -2,-1 0.4321,-1.21 1.0987,-2.21 2,-3 z"
       id="path44" />
  </g>
  <g
     id="g45"
     transform="translate(0,0.5)">
    <path
       style="opacity:1"
       fill="#676767"
       d="m 60.5,135.5 c 2.2541,0.915 4.2541,2.248 6,4 0,0.333 0,0.667 0,1 -3.6667,0 -7.3333,0 -11,0 0,-1.333 0,-2.667 0,-4 1.9147,0.284 3.5813,-0.049 5,-1 z"
       id="path45" />
  </g>
  <g
     id="g46"
     transform="translate(0,0.5)">
    <path
       style="opacity:1"
       fill="#737373"
       d="m 95.5,137.5 c 0.3333,0 0.6667,0 1,0 0.0858,0.996 -0.2476,1.829 -1,2.5 -5.5164,0.817 -10.8497,0.651 -16,-0.5 4.8958,-1.946 10.2291,-2.613 16,-2 z"
       id="path46" />
  </g>
  <g
     id="g47"
     transform="translate(0,0.5)">
    <path
       style="opacity:1"
       fill="#6f6f6f"
       d="m 119.5,139.5 c -5.475,0.989 -11.142,1.322 -17,1 0,-1 0,-2 0,-3 5.575,-0.952 11.241,-1.286 17,-1 0,1 0,2 0,3 z"
       id="path47" />
  </g>
  <g
     id="g48"
     transform="translate(0,0.5)">
    <path
       style="opacity:1"
       fill="#6f6f6f"
       d="m 126.5,136.5 c 5.759,-0.286 11.425,0.048 17,1 0.086,0.996 -0.248,1.829 -1,2.5 -5.323,0.499 -10.656,0.666 -16,0.5 0,-1.333 0,-2.667 0,-4 z"
       id="path48" />
  </g>
</svg>
