<?xml version="1.0" encoding="UTF-8" standalone="no"?>
<svg
   id="svg215"
   version="1.2"
   viewBox="0 0 158.36 193.79798"
   height="258.39731"
   width="211.14667"
   xmlns="http://www.w3.org/2000/svg"
   xmlns:svg="http://www.w3.org/2000/svg">
  <metadata
     id="metadata219" />
  <defs
     id="defs94">
    <clipPath
       id="clip1">
      <path
         id="path40"
         d="m 152,49 h 28 v 118 h -28 z m 0,0" />
    </clipPath>
    <clipPath
       id="clip2">
      <path
         id="path43"
         d="m 155.67,49.27 c -12.39,0 -22.52,10.14 -22.52,22.53 v 148.74 c 0,12.39 10.14,22.52 22.52,22.52 h 104.32 c 12.39,0 22.52,-10.14 22.52,-22.52 V 71.8 c 0,-12.39 -10.14,-22.53 -22.52,-22.53 z m 0,0" />
    </clipPath>
    <clipPath
       id="clip3">
      <path
         id="path46"
         d="m 149,163 h 128 v 81 H 149 Z m 0,0" />
    </clipPath>
    <clipPath
       id="clip4">
      <path
         id="path49"
         d="m 155.67,49.27 c -12.39,0 -22.52,10.14 -22.52,22.53 v 148.74 c 0,12.39 10.14,22.52 22.52,22.52 h 104.32 c 12.39,0 22.52,-10.14 22.52,-22.52 V 71.8 c 0,-12.39 -10.14,-22.53 -22.52,-22.53 z m 0,0" />
    </clipPath>
    <clipPath
       id="clip5">
      <path
         id="path52"
         d="m 187,49 h 96 v 118 h -96 z m 0,0" />
    </clipPath>
    <clipPath
       id="clip6">
      <path
         id="path55"
         d="m 155.67,49.27 c -12.39,0 -22.52,10.14 -22.52,22.53 v 148.74 c 0,12.39 10.14,22.52 22.52,22.52 h 104.32 c 12.39,0 22.52,-10.14 22.52,-22.52 V 71.8 c 0,-12.39 -10.14,-22.53 -22.52,-22.53 z m 0,0" />
    </clipPath>
  </defs>
  <path
     d="M 135.84,193.79797 H 31.52 c -12.39,0 -22.5200005,-10.14 -22.5200005,-22.52 V 22.527966 C 8.9999995,10.137966 19.14,0.00796638 31.52,0.00796638 h 104.32 c 12.39,0 22.52,10.13999962 22.52,22.51999962 V 171.27797 c 0,12.39 -10.14,22.52 -22.52,22.52"
     id="path96"
     fill="#00a89c" />
  <path
     d="M 131.84,193.79797 H 27.52 c -12.39,0 -22.5200005,-10.14 -22.5200005,-22.52 V 22.527966 C 4.9999995,10.137966 15.14,0.00796638 27.52,0.00796638 h 104.32 c 12.39,0 22.52,10.13999962 22.52,22.51999962 V 171.27797 c 0,12.39 -10.14,22.52 -22.52,22.52"
     id="path98"
     fill="#ffffff" />
  <path
     d="M 126.84,193.79797 H 22.52 c -12.39,0 -22.52000045776367,-10.14 -22.52000045776367,-22.52 V 22.527966 C -4.5776367e-7,10.137966 10.14,0.00796638 22.52,0.00796638 h 104.32 c 12.39,0 22.52,10.13999962 22.52,22.51999962 V 171.27797 c 0,12.39 -10.14,22.52 -22.52,22.52"
     id="path100"
     fill="#00a89c" />
  <g
     transform="translate(-133.14856,-49.269999)"
     clip-path="url(#clip1)"
     id="g106">
    <g
       clip-path="url(#clip2)"
       id="g104">
      <path
         d="m 152.79,166.82 13.34,-11.14 13.34,11.14 V 34.32 h -26.69 z m 0,0"
         id="path102"
         fill="#ffffff" />
    </g>
  </g>
  <g
     transform="translate(-133.14856,-49.269999)"
     clip-path="url(#clip3)"
     id="g112">
    <g
       clip-path="url(#clip4)"
       id="g110">
      <path
         d="m 212.95,187.22 c -21.97,0 -39.85,17.88 -39.85,39.85 0,21.97 17.88,39.85 39.85,39.85 21.97,0 39.85,-17.87 39.85,-39.85 0,-21.97 -17.87,-39.85 -39.85,-39.85 m 0,103.7 c -35.21,0 -63.85,-28.64 -63.85,-63.85 0,-35.21 28.64,-63.85 63.85,-63.85 35.21,0 63.85,28.64 63.85,63.85 0,35.21 -28.64,63.85 -63.85,63.85"
         id="path108"
         fill="#ffffff" />
    </g>
  </g>
  <g
     transform="translate(-133.14856,-49.269999)"
     clip-path="url(#clip5)"
     id="g118">
    <g
       clip-path="url(#clip6)"
       id="g116">
      <path
         d="m 280.41,166.82 c -9.38,0.02 -19.17,-0.04 -22.35,0 -18.47,0.25 -18.89,-3.35 -24.83,-8.1 -9.08,-7.24 -29.79,-27.84 -39.95,-37.25 -3.46,-3.21 -5.42,-6.94 -5.42,-10.43 v -2.84 c 0,-4.64 1.75,-9.13 4.9,-12.54 l 56.73,-61.52 h 34.74 l -69.52,74.26 c 5.93,6.98 25.91,26.4 51.77,48.46 5.43,4.63 9.6,8.13 13.93,9.96"
         id="path114"
         fill="#ffffff" />
    </g>
  </g>
</svg>
