<?xml version="1.0" encoding="UTF-8" standalone="no"?>
<!-- Created with Inkscape (http://www.inkscape.org/) -->
<svg height="128" width="128" xmlns="http://www.w3.org/2000/svg" xmlns:xlink="http://www.w3.org/1999/xlink">
  <defs>
    <linearGradient id="linearGradient11004">
      <stop offset="0" stop-color="#fff"/>
      <stop offset="1" stop-color="#fff" stop-opacity="0"/>
    </linearGradient>
    <linearGradient id="linearGradient3964">
      <stop offset="0"/>
      <stop offset="1" stop-opacity="0"/>
    </linearGradient>
    <linearGradient id="linearGradient3770">
      <stop offset="0" stop-color="#eeeeec"/>
      <stop offset="1" stop-color="#9f9f94"/>
    </linearGradient>
    <linearGradient id="linearGradient2285">
      <stop offset="0" stop-color="#5e5e5e"/>
      <stop offset=".75901806" stop-color="#dedede"/>
      <stop offset=".93379617" stop-color="#8d8d8d"/>
      <stop offset="1" stop-color="#616161"/>
    </linearGradient>
    <linearGradient id="linearGradient2301">
      <stop offset="0" stop-color="#dcdcdc"/>
      <stop offset="1" stop-color="#dcdcdc" stop-opacity="0"/>
    </linearGradient>
    <radialGradient id="radialGradient10053" cx="21.288511" cy="62.975674" fx="20.364378" fy="54.510296" gradientTransform="matrix(1.230357 .490848 -.30559 .765992 6.44469 -26.19364)" gradientUnits="userSpaceOnUse" r="33.898083" xlink:href="#linearGradient11004"/>
    <radialGradient id="radialGradient10055" cx="45.072037" cy="48.438328" fx="49.431042" fy="63.654842" gradientUnits="userSpaceOnUse" r="20.470032" xlink:href="#linearGradient3770"/>
    <linearGradient id="linearGradient10057" gradientTransform="matrix(1.160976 .127867 -.112206 1.162701 -7.645123 -42.36726)" gradientUnits="userSpaceOnUse" x1="46.229446" x2="50.325378" xlink:href="#linearGradient11004" y1="34.836998" y2="67.717461"/>
    <linearGradient id="linearGradient10059" gradientUnits="userSpaceOnUse" x1="102.57959284799" x2="118.78333829896" xlink:href="#linearGradient3770" y1="65.59241421027" y2="65.59241421027"/>
    <linearGradient id="linearGradient10061" gradientUnits="userSpaceOnUse" x1="30.7655573125" x2="64.37977882749" xlink:href="#linearGradient3770" y1="35.11364410301" y2="35.11364410301"/>
    <radialGradient id="radialGradient10063" cx="58.680527" cy="7.230381" gradientTransform="matrix(1.038889 .691318 -.102656 .154268 1.697475 -11.26445)" gradientUnits="userSpaceOnUse" r="55.698994" xlink:href="#linearGradient11004"/>
    <radialGradient id="radialGradient10065" cx="116.125" cy="65.4375" fx="115.49471" fy="64.290573" gradientTransform="matrix(1 0 0 1.191489 0 -12.53059)" gradientUnits="userSpaceOnUse" r="2.9375" xlink:href="#linearGradient3964"/>
    <radialGradient id="radialGradient10067" cx="21.288511" cy="62.975674" fx="20.364378" fy="54.510296" gradientTransform="matrix(-.149257 .05954567 .03707168 .09292389 126.4361 56.59784)" gradientUnits="userSpaceOnUse" r="33.898083" xlink:href="#linearGradient11004"/>
    <linearGradient id="linearGradient10069" gradientTransform="matrix(-.112993 0 0 .112993 122.2074 55.53833)" gradientUnits="userSpaceOnUse" x1="-11.3125" x2="24.776604" xlink:href="#linearGradient3770" y1="75.197922" y2="75.197922"/>
    <radialGradient id="radialGradient10071" cx="58.680527" cy="7.230381" gradientTransform="matrix(-.12603 .08386505 .01245339 .01871453 127.012 58.40892)" gradientUnits="userSpaceOnUse" r="55.698994" xlink:href="#linearGradient11004"/>
    <radialGradient id="radialGradient10073" cx="71.881821" cy="71.608231" gradientTransform="matrix(1 0 0 1.013699 0 -.980936)" gradientUnits="userSpaceOnUse" r="1.613087" xlink:href="#linearGradient2285"/>
    <radialGradient id="radialGradient10081" cx="92.0625" cy="42.515625" fx="92.07354" fy="41.43642" gradientTransform="matrix(1.213029 -.00000386 .03916403 1.515872 -21.27707 -21.93227)" gradientUnits="userSpaceOnUse" r="1.96875" xlink:href="#linearGradient3770"/>
    <radialGradient id="radialGradient10083" cx="36.747746" cy="121.95814" fx="33.78273" fy="122.4772" gradientTransform="matrix(1 0 0 .316667 0 83.33806)" gradientUnits="userSpaceOnUse" r="4.965911" xlink:href="#linearGradient3964"/>
    <linearGradient id="linearGradient10087" gradientTransform="matrix(.540477 0 0 .09355344 48.63483 105.6998)" gradientUnits="userSpaceOnUse" x1="38.357395" x2="48.092775" xlink:href="#linearGradient2285" y1="86.916698" y2="86.916698"/>
    <linearGradient id="linearGradient10089" gradientTransform="matrix(1.514456 0 0 .837898 10.98058 49.94771)" gradientUnits="userSpaceOnUse" spreadMethod="reflect" x1="41.109016" x2="44.111984" xlink:href="#linearGradient2301" y1="79.413818" y2="79.413818"/>
    <linearGradient id="linearGradient10091" gradientUnits="userSpaceOnUse" x1="17.92652577741" x2="23.18827475368" xlink:href="#linearGradient2285" y1="129.80384618495" y2="129.80384618495"/>
    <linearGradient id="linearGradient10093" gradientTransform="matrix(1.514457 0 0 1.445422 -40.35187 34.23177)" gradientUnits="userSpaceOnUse" spreadMethod="reflect" x1="41.109016" x2="44.111984" xlink:href="#linearGradient2301" y1="79.413818" y2="79.413818"/>
    <linearGradient id="linearGradient10095" gradientUnits="userSpaceOnUse" x1="-106.52981022259" x2="-101.26806124633" xlink:href="#linearGradient2285" y1="57.51928618495" y2="57.51928618495"/>
    <linearGradient id="linearGradient10097" gradientTransform="matrix(1.514457 0 0 1.445422 -164.8738 -38.46197)" gradientUnits="userSpaceOnUse" spreadMethod="reflect" x1="41.109016" x2="44.111984" xlink:href="#linearGradient2301" y1="79.413818" y2="79.413818"/>
    <linearGradient id="linearGradient10099" gradientUnits="userSpaceOnUse" x1="73.14876623212" x2="72.26131775069" xlink:href="#linearGradient3964" y1="119.90403500613" y2="99.17278818507"/>
    <radialGradient id="radialGradient10101" cx="64.63961" cy="122.04091" gradientTransform="matrix(1 0 0 .844444 0 18.98414)" gradientUnits="userSpaceOnUse" r="3.724434" xlink:href="#linearGradient3964"/>
    <radialGradient id="radialGradient10103" cx="71.993324" cy="91.360512" gradientTransform="matrix(1.27094 .201737 -.414722 2.612754 18.29114 -164.7345)" gradientUnits="userSpaceOnUse" r="1.212078">
      <stop offset="0" stop-color="#656565"/>
      <stop offset="1" stop-color="#656565" stop-opacity="0"/>
    </radialGradient>
    <radialGradient id="radialGradient10105" cx="72.915199" cy="90.395607" gradientTransform="matrix(1.114143 .64395 -.838953 1.451529 67.68717 -91.71487)" gradientUnits="userSpaceOnUse" r="1.212078">
      <stop offset="0" stop-color="#a5a5a5"/>
      <stop offset="1" stop-color="#a5a5a5" stop-opacity="0"/>
    </radialGradient>
    <radialGradient id="radialGradient10107" cx="72.249008" cy="89.825218" gradientTransform="matrix(.874459 .23431 -.534303 1.994044 57.13836 -110.7997)" gradientUnits="userSpaceOnUse" r="1.212078" xlink:href="#linearGradient11004"/>
    <radialGradient id="radialGradient11015" cx="37.298531" cy="65.512085" gradientTransform="matrix(-.14309 .169755 -.805092 -.678625 139.9553 88.28146)" gradientUnits="userSpaceOnUse" r="17.969616" xlink:href="#linearGradient11004"/>
  </defs>
  <g>
    <path d="m50.892799 3.2812959v-2.79470843z" fill="#fff" fill-opacity=".756881"/>
    <g transform="matrix(.983225 .133307 -.133307 .983225 6.038054 -5.426873)">
      <path d="m37.811106 2.1872674c-10.306177-.4242433-22.081102 10.4632836-26.517888 24.1587466-4.127592 12.741036.887735 24.596441 10.654362 28.350533l90.32594 22.352086c.22985.063413.4731.088832.7221.116257 7.30848.069904 11.70881-9.281571 6.04053-14.231294l-73.753411-58.657677c-1.691948-1.1770248-4.210118-1.7294374-6.45578-1.9767687-.329362-.0362749-.683396-.0981983-1.015853-.1118829z"/>
      <path d="m37.90441 2.7178301c-10.064707.2658617-21.264364 10.8887699-25.5625 24.1562499-4.127592 12.741036.889623 24.589658 10.65625 28.34375l55.6875 13.78125v-38.46875l-32.34375-25.7187499c-1.691947-1.1770248-4.223088-1.7214187-6.46875-1.96875-.329361-.0362748-.667543-.1113154-1-.125-.322068-.0132576-.644082-.0085762-.96875 0z" fill="url(#radialGradient10053)" opacity=".87"/>
      <path d="m68.70079 47.24152a20.470032 20.470032 0 1 1 -40.940063 0 20.470032 20.470032 0 1 1 40.940063 0z" opacity=".15" transform="matrix(.842901 .09283444 -.366665 1.134676 12.01036 -27.68145)"/>
      <path d="m68.70079 47.24152a20.470032 20.470032 0 1 1 -40.940063 0 20.470032 20.470032 0 1 1 40.940063 0z" fill="url(#radialGradient10055)" transform="matrix(.874568 .09632247 -.380036 1.173095 10.30427 -29.96168)"/>
      <path d="m42.310316 6.0978151c-8.171788-.9000193-17.440622 5.7090009-22.836927 15.5146219-1.240134 5.076567-1.011108 8.873217 2.717733 11.352228 7.831308 5.206421 23.606046.648208 31.326994-11.164532.17084-.261378.316542-.528514.479736-.791737-.429716-8.128241-4.718913-14.1430747-11.687536-14.9105809z" fill="url(#linearGradient10057)"/>
      <path d="m44.742045 4.4561673 29.43234 24.2240807-16.415344 33.915712-38.476039-9.755249c.926082.325016 1.902535.540026 2.943444.654668 10.539629 1.160807 22.803901-9.359053 27.383813-23.496301 3.604076-11.125055 1.380707-21.1957652-4.868214-25.5429107z"/>
      <path d="m109.05784 54.911949c5.9382 6.708547 1.69767 17.310779-6.4782 19.819789l5.74284 1.435709c.25755.071058.52638.074321.80539.105052 8.18955.078331 13.10995-10.38644 6.75834-15.932869z" fill="url(#linearGradient10059)"/>
      <path d="m54.487744 11.701957 1.309814 1.076959c-.414691-.387357-.846829-.754876-1.309814-1.076959zm1.309814 1.076959c4.798569 4.482279 6.320765 13.165565 3.230874 22.703442-4.265836 13.167761-15.709964 22.969642-25.526818 21.888446-.334094-.036796-.640158-.115277-.96053-.174642l4.919079 1.2516c9.753624 1.028599 21.084709-8.284321 25.323069-20.811488 3.068271-9.068787 1.559565-17.331045-3.201767-21.597377l-1.309814-1.047851c.462984.308399.895442.676559 1.309814 1.047851zm-23.256474 44.417246-1.775526-.436605c.565336.19841 1.166189.323695 1.775526.436605z" fill="url(#linearGradient10061)"/>
      <path d="m45.6875 4.875c9.542644 6.243613 8.726336 21.892976 1.09375 34.9375-17.360583 29.606131-56.949298-1.794469-24.84375 14.875l90.34375 22.375c.22985.063416.46975.066325.71875.09375 7.30848.069908 11.69953-9.269027 6.03125-14.21875l-73.75-58.65625c-12.869917-1.3786528-13.658552-7.0781475.40625.59375z" fill="url(#radialGradient10063)"/>
      <path d="m119.0625 65.4375a2.9375 3.5 0 1 1 -5.875 0 2.9375 3.5 0 1 1 5.875 0z" fill="url(#radialGradient10065)" transform="matrix(.809672 .280887 .266851 1.15104 2.327355 -41.1892)"/>
      <g transform="matrix(.749609 .184501 -.149539 .753064 33.91717 -6.173438)">
        <path d="m122.62415 60.02886c-.04033.00166-.14581.01028-.18577.01468-.27242.03-.51523.09253-.72048.23532l-3.90625 3.09375c-.0219.0196-.04188.04135-.0625.0625-.3958.40601-.55388 1.09068-.375 1.875.28515 1.25025 1.33478 2.28125 2.34375 2.28125.10393 0 .18676-.04182.28125-.0625l4.5625-1.125c1.18481-.45541 1.78198-1.89186 1.28125-3.4375-.53823-1.66142-1.96849-2.98897-3.21875-2.9375z"/>
        <path d="m122.61963 60.10514c1.22097.03225 2.57962 1.32094 3.10103 2.93044.50073 1.54564-.10792 2.98302-1.29273 3.43843l-6.75555 1.67183v-4.66671l3.92368-3.11999c.20525-.14279.51231-.20883.78474-.23883.03995-.00441.08098-.01351.12131-.01517.03907-.00161.07813-.00104.11752 0z" fill="url(#radialGradient10067)" opacity=".87"/>
        <path d="m121.79014 60.31602-3.57049 2.93867 1.99138 4.11438 4.6676-1.18343c-.11235.03943-.2308.06551-.35708.07942-1.27858.14082-2.76638-1.13537-3.32198-2.85038-.43722-1.3496-.16749-2.5713.59057-3.09866z"/>
        <path d="m120.60787 61.19502-.15889.13065c.05031-.04699.10273-.09158.15889-.13065zm-.15889.13065c-.58212.54375-.76678 1.59714-.39194 2.7542.51749 1.5974 1.9058 2.78648 3.0967 2.65532.04053-.00446.07766-.01398.11652-.02118l-.59674.15183c-1.18323.12478-2.55782-1.00499-3.07199-2.52468-.37221-1.10015-.18919-2.10246.38842-2.62002l.15889-.12711c-.05616.03741-.10863.08207-.15889.12711zm2.82128 5.38834.2154-.05297c-.06859.02407-.14148.03927-.2154.05297z" fill="url(#linearGradient10069)"/>
        <path d="m121.8429 60.27886c1.31676-.22769 1.03582-.14208 0 0zm0 0c-.04389.00585-.0785.02627-.125.03125l-4 3.15625c-.3733.40952-.51797 1.07985-.34375 1.84375.28515 1.25025 1.33478 2.28125 2.34375 2.28125.10393 0 .18676-.04182.28125-.0625l4.5625-1.125c.27239-.14143.40255-.19234.59375-.28125-.99552.21719-2.62226.17879-3.625-1.53125-.92592-1.58245-1.00138-3.46132.15625-4.21875.06456-.03522.09683-.06306.15625-.09375zm3.3125 5.84375c.94914-.20708 1.24107-.57708 0 0z" fill="url(#radialGradient10071)"/>
      </g>
    </g>
    <path d="m148.68161 70.410906v-2.794709z" fill="#fff" fill-opacity=".756881"/>
    <path d="m181.29488-142.14159v-2.79471z" fill="#fff" fill-opacity=".756881"/>
    <g opacity=".401639" transform="matrix(-.782995 0 0 .650879 -2141.564 544.3761)"/>
    <g opacity=".401639" transform="matrix(-.782995 0 0 .650879 -2141.564 544.3761)"/>
    <g opacity=".401639" transform="matrix(1 0 0 .650879 1059.399 551.7039)"/>
    <g opacity=".401639" transform="matrix(1 0 0 .650879 1059.399 551.7039)"/>
    <path d="m46.024007 89.450216v-2.794709z" fill="#fff" fill-opacity=".756881"/>
    <g transform="matrix(.960176 0 0 .960176 1.880318 5.8102)">
      <path d="m73.494908 71.608231a1.6130873 1.6351844 0 1 1 -3.226175 0 1.6130873 1.6351844 0 1 1 3.226175 0z" fill="url(#radialGradient10073)" transform="matrix(1.606336 0 0 1.338798 -43.43367 -23.92013)"/>
      <g transform="matrix(1.163613 .2864 -.232128 1.168977 -41.02318 -65.74521)">
        <path d="m122.62415 60.02886c-.04033.00166-.14581.01028-.18577.01468-.27242.03-.51523.09253-.72048.23532l-3.90625 3.09375c-.0219.0196-.04188.04135-.0625.0625-.3958.40601-.55388 1.09068-.375 1.875.28515 1.25025 1.33478 2.28125 2.34375 2.28125.10393 0 .18676-.04182.28125-.0625l4.5625-1.125c1.18481-.45541 1.78198-1.89186 1.28125-3.4375-.53823-1.66142-1.96849-2.98897-3.21875-2.9375z"/>
        <path d="m122.61963 60.10514c1.22097.03225 2.57962 1.32094 3.10103 2.93044.50073 1.54564-.10792 2.98302-1.29273 3.43843l-6.75555 1.67183v-4.66671l3.92368-3.11999c.20525-.14279.51231-.20883.78474-.23883.03995-.00441.08098-.01351.12131-.01517.03907-.00161.07813-.00104.11752 0z" fill="url(#radialGradient10067)" opacity=".87"/>
        <path d="m121.79014 60.31602-3.57049 2.93867 1.99138 4.11438 4.6676-1.18343c-.11235.03943-.2308.06551-.35708.07942-1.27858.14082-2.76638-1.13537-3.32198-2.85038-.43722-1.3496-.16749-2.5713.59057-3.09866z"/>
        <path d="m120.60787 61.19502-.15889.13065c.05031-.04699.10273-.09158.15889-.13065zm-.15889.13065c-.58212.54375-.76678 1.59714-.39194 2.7542.51749 1.5974 1.9058 2.78648 3.0967 2.65532.04053-.00446.07766-.01398.11652-.02118l-.59674.15183c-1.18323.12478-2.55782-1.00499-3.07199-2.52468-.37221-1.10015-.18919-2.10246.38842-2.62002l.15889-.12711c-.05616.03741-.10863.08207-.15889.12711zm2.82128 5.38834.2154-.05297c-.06859.02407-.14148.03927-.2154.05297z" fill="url(#linearGradient10069)"/>
        <path d="m121.8429 60.27886c1.31676-.22769 1.03582-.14208 0 0zm0 0c-.04389.00585-.0785.02627-.125.03125l-4 3.15625c-.3733.40952-.51797 1.07985-.34375 1.84375.28515 1.25025 1.33478 2.28125 2.34375 2.28125.10393 0 .18676-.04182.28125-.0625l4.5625-1.125c.27239-.14143.40255-.19234.59375-.28125-.99552.21719-2.62226.17879-3.625-1.53125-.92592-1.58245-1.00138-3.46132.15625-4.21875.06456-.03522.09683-.06306.15625-.09375zm3.3125 5.84375c.94914-.20708 1.24107-.57708 0 0z" fill="url(#radialGradient10071)"/>
      </g>
      <path d="m85.40625 40.65625c.570242 2.342222.871859 4.859355.84375 7.46875-.137823 12.793827-8.061667 23.1875-17.6875 23.1875-.300578 0-.578027-.010974-.875-.03125-.256826-.183764-.527039-.391337-.78125-.59375-3.36539-2.679678-5.996634-6.625068-7.75-11.09375h-4.125c1.736735 3.827509 4.152776 7.195883 7.125 9.5625.689842.549278 1.3899.995919 2.09375 1.40625l.28125.1875c.806006.446936 1.624726.785552 2.4375 1.0625l.53125.15625.125.0625.5625.25c.766108.313063 1.538341.539771 2.34375.71875l.34375.0625c.777869.144523 1.596686.25 2.40625.25 9.625833.000003 17.549672-10.393671 17.6875-23.1875.036248-3.364963-.49842-6.587353-1.4375-9.46875-.509041-.621863-3.87725-.805877-4.125 0z"/>
      <path d="m94.03125 42.515625a1.96875 2.984375 0 1 1 -3.9375 0 1.96875 2.984375 0 1 1 3.9375 0z" style="stroke:#8a8a8a;stroke-width:.2;stroke-linecap:round;stroke-linejoin:round;stroke-dashoffset:4;fill:url(#radialGradient10081)" transform="matrix(.596032 0 .07227823 .552206 30.35284 19.51436)"/>
      <path d="m41.713657 121.95814a4.9659114 1.5725386 0 1 1 -9.931823 0 4.9659114 1.5725386 0 1 1 9.931823 0z" fill="url(#radialGradient10083)" opacity=".495902" transform="matrix(2.976524 -.546624 .285376 2.039351 -85.96056 -106.9435)"/>
      <path d="m41.713657 121.95814a4.9659114 1.5725386 0 1 1 -9.931823 0 4.9659114 1.5725386 0 1 1 9.931823 0z" fill="url(#radialGradient10083)" opacity=".495902" transform="matrix(-2.976524 -.546624 -.285376 2.039351 230.5908 -105.7626)"/>
      <path d="m69.791543 72.346581c1.138554-.456148 2.605676-.460515 4.410893 0 .266939.109375.425431.189742.425431.425431v44.240178c0 .23569-.189742.42543-.425431.42543h-4.410893c-.235689 0-.425431-.18974-.425431-.42543v-44.240178c0-.235689.232711-.347306.425431-.425431z" fill="url(#linearGradient10087)"/>
      <rect height="8.798352" rx="1.825048" width="8.017907" x="67.988029" y="110.91685"/>
      <rect fill="url(#linearGradient10089)" height="7.703384" opacity=".479508" rx="1.276611" ry="1.244351" width="6.896084" x="68.494843" y="111.52327"/>
      <rect fill="url(#linearGradient10091)" height="41.673038" transform="matrix(.866026 -.5 .5 .866026 0 0)" width="5.261747" x="17.926571" y="108.96725"/>
      <rect height="11.024617" rx="1.825051" ry="1.82505" transform="matrix(.866026 -.5 .5 .866026 0 0)" width="8.017902" x="16.655664" y="143.55989"/>
      <rect fill="url(#linearGradient10093)" height="9.447232" opacity=".479508" rx="1.276613" ry="1.244352" transform="matrix(.866026 -.5 .5 .866026 0 0)" width="6.89608" x="17.162485" y="144.29451"/>
      <rect fill="url(#linearGradient10095)" height="41.673038" transform="matrix(-.866026 -.5 -.5 .866026 0 0)" width="5.261747" x="-106.52976" y="36.682716"/>
      <rect height="11.024617" rx="1.825052" transform="matrix(-.866026 -.5 -.5 .866026 0 0)" width="8.017902" x="-107.86619" y="70.866051"/>
      <rect fill="url(#linearGradient10097)" height="9.447232" opacity=".479508" rx="1.276614" ry="1.244353" transform="matrix(-.866026 -.5 -.5 .866026 0 0)" width="6.89608" x="-107.35938" y="71.600655"/>
      <path d="m70.766374 99.181684c-.065409.016716-.138604.050728-.201071.080428-.642886.334813-1.125993 1.339608-1.125993 2.533488v9.85245c-.151481.06656-.321088.17412-.442356.2815-.018242.01694-.063038.06265-.080428.08042-.016951.01819-.06438.06146-.080429.08044-.023376.02901-.059208.08997-.080428.12063-.034125.05198-.093021.14503-.120641.20108-.036765.0795-.057806.1954-.080429.28149-.026341.11178-.040214.24216-.040214.36193v4.62463c0 .17301.026843.36782.080428.52277.022053.05894.051465.1458.080428.20107.096908.17432.246452.35744.402141.48257.099256.07595.245403.14988.361928.20107.188841.0776.424955.12064.643424.12064h.281499c.058262.04416.139256.08846.20107.12065.137424.06534.29216.12064.442356.12064h1.849847c.232122 0 .445335-.09116.643426-.24129h.321713c.150197 0 .30493-.00234.442354-.0402.160721-.04853.348623-.14857.482569-.24129.0607-.0442.147613-.10876.20107-.16086.052167-.05333.116958-.14081.160857-.20107.070727-.10221.156965-.24408.201071-.36193.053585-.15495.080428-.34976.080428-.52277v-4.62463c0-.11977-.013873-.25015-.040215-.36193-.080793-.3075-.284495-.6032-.522782-.80428-.019462-.01564-.060195-.06569-.080429-.08042-.092732-.06419-.215488-.11721-.321712-.16086v-9.85245c0-1.12499-.419856-2.06622-1.005352-2.45306-.169275-.103823-.371837-.160856-.562998-.160856h-1.849847c-.081927 0-.162794-.020049-.241285 0z" fill="url(#linearGradient10099)" opacity=".77459"/>
      <path d="m68.364044 122.04091a3.7244337 3.1450772 0 1 1 -7.448867 0 3.7244337 3.1450772 0 1 1 7.448867 0z" fill="url(#radialGradient10101)" opacity=".495902" transform="matrix(1.487028 0 0 1.286851 -23.77696 -37.14954)"/>
      <g fill-rule="evenodd">
        <path d="m70.984688 83.364371.924924 5.127297 2.194601-3.785491-.746894-1.221163-1.045566.583104z" fill="#c2c2c2"/>
        <path d="m70.984688 83.364371.924924 5.127297 2.194601-3.785491-.746894-1.221163-1.045566.583104z" fill="url(#radialGradient10103)"/>
        <path d="m70.984688 83.364371.924924 5.127297 2.194601-3.785491-.746894-1.221163-1.045566.583104z" fill="url(#radialGradient10105)"/>
        <path d="m70.984688 83.364371.924924 5.127297 2.194601-3.785491-.746894-1.221163-1.045566.583104z" fill="url(#radialGradient10107)" opacity=".82"/>
      </g>
      <path d="m85.03125 47.8125c.196614 1.09183.355089 2.197348.34375 3.25-.052611 4.883865-1.369642 9.321996-3.5 12.9375h4.71875c1.403806-3.284987 2.237023-7.082146 2.28125-11.1875.01801-1.671862.044659-3.378765-.0625-5z" fill="url(#radialGradient11015)" opacity=".86" transform="matrix(1.033373 0 0 1.033373 -1.449563 -4.240534)"/>
    </g>
  </g>
</svg>