<svg xmlns="http://www.w3.org/2000/svg" xmlns:xlink="http://www.w3.org/1999/xlink" width="128" height="128"><defs><linearGradient id="a"><stop offset="0" stop-color="#fff"/><stop offset="1" stop-color="#fff" stop-opacity="0"/></linearGradient><linearGradient id="f"><stop offset="0"/><stop offset="1" stop-opacity="0"/></linearGradient><linearGradient id="b"><stop offset="0" stop-color="#eeeeec"/><stop offset="1" stop-color="#9f9f94"/></linearGradient><linearGradient id="c"><stop offset="0" stop-color="#5e5e5e"/><stop offset=".759" stop-color="#dedede"/><stop offset=".934" stop-color="#8d8d8d"/><stop offset="1" stop-color="#616161"/></linearGradient><linearGradient id="d"><stop offset="0" stop-color="#dcdcdc"/><stop offset="1" stop-color="#dcdcdc" stop-opacity="0"/></linearGradient><linearGradient xlink:href="#a" id="i" x1="46.229" x2="50.325" y1="34.837" y2="67.717" gradientTransform="matrix(1.16098 .12787 -.1122 1.1627 -7.645 -42.367)" gradientUnits="userSpaceOnUse"/><linearGradient xlink:href="#b" id="j" x1="102.58" x2="118.783" y1="65.592" y2="65.592" gradientUnits="userSpaceOnUse"/><linearGradient xlink:href="#b" id="k" x1="30.766" x2="64.38" y1="35.114" y2="35.114" gradientUnits="userSpaceOnUse"/><linearGradient xlink:href="#b" id="o" x1="-11.313" x2="24.777" y1="75.198" y2="75.198" gradientTransform="matrix(-.113 0 0 .113 122.207 55.538)" gradientUnits="userSpaceOnUse"/><linearGradient xlink:href="#c" id="t" x1="38.357" x2="48.093" y1="86.917" y2="86.917" gradientTransform="matrix(.54048 0 0 .09355 48.635 105.7)" gradientUnits="userSpaceOnUse"/><linearGradient xlink:href="#d" id="u" x1="41.109" x2="44.112" y1="79.414" y2="79.414" gradientTransform="matrix(1.51446 0 0 .8379 10.98 49.948)" gradientUnits="userSpaceOnUse" spreadMethod="reflect"/><linearGradient xlink:href="#c" id="v" x1="17.927" x2="23.188" y1="129.804" y2="129.804" gradientUnits="userSpaceOnUse"/><linearGradient xlink:href="#d" id="w" x1="41.109" x2="44.112" y1="79.414" y2="79.414" gradientTransform="matrix(1.51446 0 0 1.44542 -40.352 34.232)" gradientUnits="userSpaceOnUse" spreadMethod="reflect"/><linearGradient xlink:href="#c" id="x" x1="-106.53" x2="-101.268" y1="57.519" y2="57.519" gradientUnits="userSpaceOnUse"/><linearGradient xlink:href="#d" id="y" x1="41.109" x2="44.112" y1="79.414" y2="79.414" gradientTransform="matrix(1.51446 0 0 1.44542 -164.874 -38.462)" gradientUnits="userSpaceOnUse" spreadMethod="reflect"/><linearGradient xlink:href="#f" id="z" x1="73.149" x2="72.261" y1="119.904" y2="99.173" gradientUnits="userSpaceOnUse"/><radialGradient xlink:href="#a" id="g" cx="21.289" cy="62.976" r="33.898" fx="20.364" fy="54.51" gradientTransform="matrix(1.23036 .49085 -.30559 .766 6.445 -26.194)" gradientUnits="userSpaceOnUse"/><radialGradient xlink:href="#b" id="h" cx="45.072" cy="48.438" r="20.47" fx="49.431" fy="63.655" gradientUnits="userSpaceOnUse"/><radialGradient xlink:href="#a" id="l" cx="58.681" cy="7.23" r="55.699" gradientTransform="matrix(1.03889 .69132 -.10266 .15427 1.697 -11.264)" gradientUnits="userSpaceOnUse"/><radialGradient xlink:href="#f" id="m" cx="116.125" cy="65.438" r="2.938" fx="115.495" fy="64.291" gradientTransform="matrix(1 0 0 1.19149 0 -12.53)" gradientUnits="userSpaceOnUse"/><radialGradient xlink:href="#a" id="n" cx="21.289" cy="62.976" r="33.898" fx="20.364" fy="54.51" gradientTransform="matrix(-.14926 .05955 .03707 .09292 126.436 56.598)" gradientUnits="userSpaceOnUse"/><radialGradient xlink:href="#a" id="p" cx="58.681" cy="7.23" r="55.699" gradientTransform="matrix(-.12603 .08387 .01245 .01871 127.012 58.409)" gradientUnits="userSpaceOnUse"/><radialGradient xlink:href="#c" id="q" cx="71.882" cy="71.608" r="1.613" gradientTransform="matrix(1 0 0 1.0137 0 -.98)" gradientUnits="userSpaceOnUse"/><radialGradient xlink:href="#b" id="r" cx="92.063" cy="42.516" r="1.969" fx="92.074" fy="41.436" gradientTransform="matrix(1.21303 0 .03916 1.51587 -21.277 -21.932)" gradientUnits="userSpaceOnUse"/><radialGradient xlink:href="#f" id="s" cx="36.748" cy="121.958" r="4.966" fx="33.783" fy="122.477" gradientTransform="matrix(1 0 0 .31667 0 83.338)" gradientUnits="userSpaceOnUse"/><radialGradient xlink:href="#f" id="A" cx="64.64" cy="122.041" r="3.724" gradientTransform="matrix(1 0 0 .84444 0 18.984)" gradientUnits="userSpaceOnUse"/><radialGradient id="B" cx="71.993" cy="91.361" r="1.212" gradientTransform="matrix(1.27094 .20174 -.41472 2.61275 18.291 -164.734)" gradientUnits="userSpaceOnUse"><stop offset="0" stop-color="#656565"/><stop offset="1" stop-color="#656565" stop-opacity="0"/></radialGradient><radialGradient id="C" cx="72.915" cy="90.396" r="1.212" gradientTransform="matrix(1.11414 .64395 -.83895 1.45153 67.687 -91.715)" gradientUnits="userSpaceOnUse"><stop offset="0" stop-color="#a5a5a5"/><stop offset="1" stop-color="#a5a5a5" stop-opacity="0"/></radialGradient><radialGradient xlink:href="#a" id="D" cx="72.249" cy="89.825" r="1.212" gradientTransform="matrix(.87446 .23431 -.5343 1.99404 57.138 -110.8)" gradientUnits="userSpaceOnUse"/><radialGradient xlink:href="#a" id="E" cx="37.299" cy="65.512" r="17.97" gradientTransform="matrix(-.14309 .16975 -.8051 -.67863 139.955 88.281)" gradientUnits="userSpaceOnUse"/></defs><path fill="#fff" fill-opacity=".757" d="M50.893 3.281V.487z"/><path d="M42.923 1.764C32.847-.026 19.818 9.108 13.63 21.983c-5.757 11.977-2.406 24.302 6.696 29.295l85.831 34.018c.218.093.453.15.695.21 7.176 1.044 12.75-7.564 7.836-13.187L49.99 4.814c-1.506-1.383-3.909-2.262-6.084-2.804-.319-.08-.659-.188-.984-.246"/><path fill="url(#g)" d="M37.904 2.718C27.84 2.984 16.64 13.607 12.342 26.874c-4.128 12.741.89 24.59 10.656 28.344l55.688 13.781V30.53L46.342 4.812c-1.692-1.177-4.223-1.722-6.469-1.97-.33-.035-.667-.11-1-.124a14 14 0 0 0-.969 0" opacity=".87" transform="rotate(7.721 43.229 42.025)scale(.99222)"/><path d="M53.446 33.343a24.682 16.554-54.147 1 1-33.422-8.337 24.682 16.554-54.147 1 1 33.422 8.337" opacity=".15"/><path fill="url(#h)" d="M68.7 47.242a20.47 20.47 0 1 1-40.94 0 20.47 20.47 0 1 1 40.94 0" transform="matrix(.84706 .2113 -.53004 1.10275 20.164 -33.512)"/><path fill="url(#i)" d="M42.31 6.098c-8.171-.9-17.44 5.709-22.837 15.514-1.24 5.077-1.01 8.874 2.718 11.353 7.831 5.206 23.606.648 31.327-11.165.171-.261.317-.528.48-.792-.43-8.128-4.72-14.143-11.688-14.91" transform="rotate(7.721 43.229 42.025)scale(.99222)"/><path d="M49.436 4.919 75.145 32.66 54.484 63.82l-36.53-14.721c.867.443 1.798.785 2.806 1.036 10.208 2.546 23.67-6.162 30.057-19.452C55.844 20.224 55 10.026 49.436 4.92"/><path fill="url(#j)" d="M109.058 54.912c5.938 6.708 1.698 17.31-6.478 19.82l5.742 1.435c.258.072.527.075.806.105 8.19.079 13.11-10.386 6.758-15.932z" transform="rotate(7.721 43.229 42.025)scale(.99222)"/><path fill="url(#k)" d="m54.488 11.702 1.31 1.077a12 12 0 0 0-1.31-1.077m1.31 1.077c4.798 4.482 6.32 13.165 3.23 22.703-4.265 13.168-15.71 22.97-25.526 21.889-.334-.037-.64-.115-.96-.175l4.918 1.252c9.754 1.028 21.085-8.285 25.323-20.812 3.069-9.069 1.56-17.33-3.202-21.597l-1.31-1.048c.464.308.896.677 1.31 1.048zM32.54 57.196l-1.775-.436c.565.198 1.166.323 1.775.436" transform="rotate(7.721 43.229 42.025)scale(.99222)"/><path fill="url(#l)" d="M45.688 4.875c9.542 6.244 8.726 21.893 1.093 34.938-17.36 29.606-56.949-1.795-24.843 14.874l90.343 22.376c.23.063.47.066.719.093 7.308.07 11.7-9.269 6.031-14.219L45.281 4.282c-12.87-1.378-13.658-7.078.407.594" transform="rotate(7.721 43.229 42.025)scale(.99222)"/><path fill="url(#m)" d="M119.063 65.438a2.938 3.5 0 1 1-5.876 0 2.938 3.5 0 1 1 5.876 0" transform="matrix(.75865 .38411 .10893 1.1673 13.817 -45.615)"/><path d="m112.72 70.774-.137-.042c-.201-.055-.39-.078-.571-.033l-3.549 1.13-.06.027c-.382.181-.664.63-.73 1.246-.107.98.386 2.019 1.105 2.303.074.029.143.022.215.034l3.53.473c.956.005 1.737-.862 1.763-2.116.027-1.349-.663-2.708-1.567-3.022"/><path fill="url(#n)" d="M122.62 60.105c1.22.032 2.58 1.321 3.1 2.93.501 1.546-.107 2.984-1.292 3.439l-6.756 1.672v-4.667l3.924-3.12c.205-.143.512-.209.785-.239.04-.004.08-.013.121-.015z" opacity=".87" transform="matrix(.71244 .28133 -.24742 .7205 40.21 -6.975)"/><path d="m112.054 70.746-3.27 1.113.4 3.524 3.618.46a1.2 1.2 0 0 1-.274-.042c-.946-.259-1.69-1.597-1.661-2.989.022-1.095.516-1.9 1.187-2.066"/><path fill="url(#o)" d="m120.608 61.195-.159.13q.075-.07.159-.13m-.159.13c-.582.544-.767 1.598-.392 2.755.518 1.597 1.906 2.786 3.097 2.655.04-.004.077-.014.116-.021l-.596.152c-1.184.125-2.558-1.005-3.072-2.525-.373-1.1-.19-2.102.388-2.62l.159-.127a1.4 1.4 0 0 0-.16.127zm2.821 5.389.216-.053q-.104.035-.216.053" transform="matrix(.71244 .28133 -.24742 .7205 40.21 -6.975)"/><path fill="url(#p)" d="M121.843 60.279c1.317-.228 1.036-.142 0 0m0 0c-.044.006-.079.026-.125.031l-4 3.156c-.373.41-.518 1.08-.344 1.844.285 1.25 1.335 2.281 2.344 2.281.104 0 .187-.041.281-.062l4.563-1.125c.272-.142.402-.192.593-.281-.995.217-2.622.178-3.625-1.532-.926-1.582-1.001-3.461.157-4.218.064-.036.096-.063.156-.094m3.312 5.844c.95-.207 1.241-.577 0 0" transform="matrix(.71244 .28133 -.24742 .7205 40.21 -6.975)"/><path fill="#fff" fill-opacity=".757" d="M148.682 70.41v-2.794zm32.613-212.552v-2.794zM46.024 89.45v-2.794z"/><g transform="translate(1.88 5.81)scale(.96018)"><path fill="url(#q)" d="M73.495 71.608a1.613 1.635 0 1 1-3.226 0 1.613 1.635 0 1 1 3.226 0" transform="matrix(1.60634 0 0 1.3388 -43.434 -23.92)"/><path d="M87.73 39.547a5 5 0 0 0-.22-.036c-.324-.043-.621-.04-.893.068l-5.264 2.498-.087.055c-.555.362-.897 1.117-.871 2.085.041 1.543 1.023 3.049 2.197 3.338.121.03.227.004.342.007l5.57-.008c1.485-.193 2.513-1.701 2.289-3.652-.24-2.096-1.597-4.057-3.064-4.355"/><path fill="url(#n)" d="M122.62 60.105c1.22.032 2.58 1.321 3.1 2.93.501 1.546-.107 2.984-1.292 3.439l-6.756 1.672v-4.667l3.924-3.12c.205-.143.512-.209.785-.239.04-.004.08-.013.121-.015z" opacity=".87" transform="matrix(1.16361 .2864 -.23213 1.16898 -41.023 -65.745)"/><path d="m86.692 39.644-4.836 2.412 1.362 5.38 5.706-.046q-.21.02-.434-.01c-1.52-.201-2.956-2.12-3.204-4.283-.196-1.703.402-3.054 1.406-3.453"/><path fill="url(#o)" d="m120.608 61.195-.159.13q.075-.07.159-.13m-.159.13c-.582.544-.767 1.598-.392 2.755.518 1.597 1.906 2.786 3.097 2.655.04-.004.077-.014.116-.021l-.596.152c-1.184.125-2.558-1.005-3.072-2.525-.373-1.1-.19-2.102.388-2.62l.159-.127a1.4 1.4 0 0 0-.16.127zm2.821 5.389.216-.053q-.104.035-.216.053" transform="matrix(1.16361 .2864 -.23213 1.16898 -41.023 -65.745)"/><path fill="url(#p)" d="M121.843 60.279c1.317-.228 1.036-.142 0 0m0 0c-.044.006-.079.026-.125.031l-4 3.156c-.373.41-.518 1.08-.344 1.844.285 1.25 1.335 2.281 2.344 2.281.104 0 .187-.041.281-.062l4.563-1.125c.272-.142.402-.192.593-.281-.995.217-2.622.178-3.625-1.532-.926-1.582-1.001-3.461.157-4.218.064-.036.096-.063.156-.094m3.312 5.844c.95-.207 1.241-.577 0 0" transform="matrix(1.16361 .2864 -.23213 1.16898 -41.023 -65.745)"/><path d="M85.406 40.656c.57 2.342.872 4.86.844 7.469-.138 12.794-8.062 23.188-17.687 23.188-.301 0-.579-.011-.876-.032a20 20 0 0 1-.78-.594c-3.366-2.68-5.997-6.625-7.75-11.093H55.03c1.737 3.827 4.153 7.196 7.125 9.562.69.55 1.39.996 2.094 1.406l.281.188a15 15 0 0 0 2.438 1.063l.531.156.125.062.563.25c.766.313 1.538.54 2.343.719l.344.063c.778.144 1.597.25 2.406.25 9.626 0 17.55-10.394 17.688-23.188a29.7 29.7 0 0 0-1.438-9.469c-.509-.622-3.877-.806-4.125 0"/><path d="M94.031 42.516a1.969 2.984 0 1 1-3.937 0 1.969 2.984 0 1 1 3.937 0" style="stroke:#8a8a8a;stroke-width:.2;stroke-linecap:round;stroke-linejoin:round;stroke-dashoffset:4;fill:url(#r)" transform="matrix(.59603 0 .07228 .5522 30.353 19.514)"/><path fill="url(#s)" d="M41.714 121.958a4.966 1.573 0 1 1-9.932 0 4.966 1.573 0 1 1 9.932 0" opacity=".496" transform="matrix(2.97652 -.54662 .28538 2.03935 -85.96 -106.944)"/><path fill="url(#s)" d="M41.714 121.958a4.966 1.573 0 1 1-9.932 0 4.966 1.573 0 1 1 9.932 0" opacity=".496" transform="matrix(-2.97652 -.54662 -.28538 2.03935 230.59 -105.763)"/><path fill="url(#t)" d="M69.792 72.347c1.138-.457 2.605-.46 4.41 0 .267.109.426.19.426.425v44.24c0 .236-.19.426-.426.426h-4.41a.424.424 0 0 1-.426-.426v-44.24c0-.236.233-.347.426-.425"/><rect width="8.018" height="8.798" x="67.988" y="110.917" rx="1.825"/><rect width="6.896" height="7.703" x="68.495" y="111.523" fill="url(#u)" opacity=".48" rx="1.277" ry="1.244"/><path fill="url(#v)" d="M17.927 108.967h5.262v41.673h-5.262z" transform="rotate(-30)"/><rect width="8.018" height="11.025" x="16.656" y="143.56" rx="1.825" ry="1.825" transform="rotate(-30)"/><rect width="6.896" height="9.447" x="17.162" y="144.295" fill="url(#w)" opacity=".48" rx="1.277" ry="1.244" transform="rotate(-30)"/><path fill="url(#x)" d="M-106.53 36.683h5.262v41.673h-5.262z" transform="scale(-1 1)rotate(-30)"/><rect width="8.018" height="11.025" x="-107.866" y="70.866" rx="1.825" transform="scale(-1 1)rotate(-30)"/><rect width="6.896" height="9.447" x="-107.359" y="71.601" fill="url(#y)" opacity=".48" rx="1.277" ry="1.244" transform="scale(-1 1)rotate(-30)"/><path fill="url(#z)" d="M70.766 99.182c-.065.016-.138.05-.2.08-.644.335-1.127 1.34-1.127 2.534v9.852a1.8 1.8 0 0 0-.442.282l-.08.08c-.017.018-.065.061-.08.08-.024.03-.06.09-.081.121a2 2 0 0 0-.121.201c-.037.08-.058.196-.08.282-.027.111-.04.242-.04.362v4.624c0 .173.026.368.08.523.022.059.051.146.08.201.097.174.247.357.402.483.1.076.246.15.362.2.19.078.425.121.644.121h.281c.058.044.14.089.201.12.138.066.292.122.443.122h1.85c.232 0 .445-.092.643-.242h.322a1.7 1.7 0 0 0 .442-.04 1.9 1.9 0 0 0 .684-.402 2 2 0 0 0 .362-.563c.053-.155.08-.35.08-.523v-4.624c0-.12-.014-.25-.04-.362a1.65 1.65 0 0 0-.523-.805c-.02-.015-.06-.065-.08-.08a2 2 0 0 0-.322-.161v-9.852c0-1.125-.42-2.067-1.005-2.453a1.1 1.1 0 0 0-.563-.161h-1.85c-.082 0-.163-.02-.242 0" opacity=".775"/><path fill="url(#A)" d="M68.364 122.04a3.724 3.145 0 1 1-7.449 0 3.724 3.145 0 1 1 7.449 0" opacity=".496" transform="matrix(1.48703 0 0 1.28685 -23.777 -37.15)"/><g fill-rule="evenodd"><path fill="#c2c2c2" d="m70.985 83.364.925 5.128 2.194-3.786-.747-1.221-1.045.583z"/><path fill="url(#B)" d="m70.985 83.364.925 5.128 2.194-3.786-.747-1.221-1.045.583z"/><path fill="url(#C)" d="m70.985 83.364.925 5.128 2.194-3.786-.747-1.221-1.045.583z"/><path fill="url(#D)" d="m70.985 83.364.925 5.128 2.194-3.786-.747-1.221-1.045.583z" opacity=".82"/></g><path fill="url(#E)" d="M85.031 47.813c.197 1.091.355 2.197.344 3.25-.053 4.883-1.37 9.321-3.5 12.937h4.719c1.404-3.285 2.237-7.082 2.281-11.187.018-1.672.045-3.38-.062-5z" opacity=".86" transform="translate(-1.45 -4.24)scale(1.03337)"/></g></svg>