<?xml version="1.0" encoding="UTF-8"?>
<!DOCTYPE svg PUBLIC "-//W3C//DTD SVG 1.1//EN" "http://www.w3.org/Graphics/SVG/1.1/DTD/svg11.dtd">
<svg xmlns="http://www.w3.org/2000/svg" version="1.1" width="100px" height="100px" style="shape-rendering:geometricPrecision; text-rendering:geometricPrecision; image-rendering:optimizeQuality; fill-rule:evenodd; clip-rule:evenodd" xmlns:xlink="http://www.w3.org/1999/xlink">
<g><path style="opacity:1" fill="#fefefd" d="M -0.5,-0.5 C 15.5,-0.5 31.5,-0.5 47.5,-0.5C 46.6993,1.04181 46.366,2.70848 46.5,4.5C 48.1992,4.33982 49.8659,4.50649 51.5,5C 49.2922,5.19088 47.2922,5.69088 45.5,6.5C 38.4425,8.07122 34.7759,12.5712 34.5,20C 34.5687,21.9855 35.2353,23.4855 36.5,24.5C 36.8333,25.1667 37.1667,25.8333 37.5,26.5C 37.5,27.1667 37.5,27.8333 37.5,28.5C 36.1562,30.1683 34.8229,31.8349 33.5,33.5C 33.685,34.5837 34.0183,35.5837 34.5,36.5C 36.3403,38.6689 38.6737,40.0023 41.5,40.5C 41.6655,44.5138 41.4988,48.5138 41,52.5C 40.0112,54.9698 38.8446,57.3032 37.5,59.5C 34.1736,63.828 30.8403,68.1613 27.5,72.5C 27.5,76.5 27.5,80.5 27.5,84.5C 27.492,88.8274 29.492,91.8274 33.5,93.5C 36.9929,96.2199 40.9929,97.5532 45.5,97.5C 48.8333,98.1667 52.1667,98.8333 55.5,99.5C 36.8333,99.5 18.1667,99.5 -0.5,99.5C -0.5,66.1667 -0.5,32.8333 -0.5,-0.5 Z"/></g>
<g><path style="opacity:1" fill="#fcfcfb" d="M 47.5,-0.5 C 64.8333,-0.5 82.1667,-0.5 99.5,-0.5C 99.5,32.8333 99.5,66.1667 99.5,99.5C 84.8333,99.5 70.1667,99.5 55.5,99.5C 52.1667,98.8333 48.8333,98.1667 45.5,97.5C 53.6917,98.5209 61.3583,97.1876 68.5,93.5C 69.9524,92.0603 70.9524,90.3936 71.5,88.5C 72.6118,86.4006 73.2785,84.0673 73.5,81.5C 73.5,80.8333 73.5,80.1667 73.5,79.5C 73.8016,76.9407 73.4682,74.6074 72.5,72.5C 71.5265,69.865 69.8598,67.865 67.5,66.5C 64.4923,63.8258 62.4923,60.4924 61.5,56.5C 60.6431,55.5748 59.6431,54.9081 58.5,54.5C 57.6586,49.8009 57.6586,45.1342 58.5,40.5C 60.9106,39.6389 62.9106,38.3056 64.5,36.5C 67.4763,34.1276 67.143,32.461 63.5,31.5C 63.4431,30.391 63.1098,29.391 62.5,28.5C 63.2341,27.2921 63.5674,25.9587 63.5,24.5C 64.4731,22.0521 64.8064,19.3854 64.5,16.5C 63.3497,10.3479 59.683,7.01457 53.5,6.5C 50.8333,6.5 48.1667,6.5 45.5,6.5C 47.2922,5.69088 49.2922,5.19088 51.5,5C 49.8659,4.50649 48.1992,4.33982 46.5,4.5C 46.366,2.70848 46.6993,1.04181 47.5,-0.5 Z"/></g>
<g><path style="opacity:1" fill="#b6a2aa" d="M 53.5,6.5 C 59.683,7.01457 63.3497,10.3479 64.5,16.5C 63.603,15.4019 62.7697,15.4019 62,16.5C 61.1376,14.913 60.4709,13.2464 60,11.5C 59.1841,10.1772 58.0174,9.51056 56.5,9.5C 55.8333,9.16667 55.1667,8.83333 54.5,8.5C 54.1667,7.83333 53.8333,7.16667 53.5,6.5 Z"/></g>
<g><path style="opacity:1" fill="#ce8328" d="M 45.5,6.5 C 48.1667,6.5 50.8333,6.5 53.5,6.5C 53.8333,7.16667 54.1667,7.83333 54.5,8.5C 54.4802,10.143 55.1468,11.4763 56.5,12.5C 55.5,13.3333 54.5,14.1667 53.5,15C 55.158,15.7253 55.658,16.892 55,18.5C 49.3263,20.981 43.493,23.6477 37.5,26.5C 37.1667,25.8333 36.8333,25.1667 36.5,24.5C 36.5,21.5 36.5,18.5 36.5,15.5C 40.0108,16.9705 43.5108,17.6372 47,17.5C 47.5885,15.1367 49.0885,14.1367 51.5,14.5C 51.719,13.325 51.3857,12.325 50.5,11.5C 48.4899,10.4981 46.4899,9.49811 44.5,8.5C 44.8627,7.81654 45.1961,7.14987 45.5,6.5 Z"/></g>
<g><path style="opacity:1" fill="#7e5143" d="M 56.5,9.5 C 58.0174,9.51056 59.1841,10.1772 60,11.5C 60.4709,13.2464 61.1376,14.913 62,16.5C 62.7697,15.4019 63.603,15.4019 64.5,16.5C 64.8064,19.3854 64.4731,22.0521 63.5,24.5C 63.6567,23.1266 63.49,21.7932 63,20.5C 61.3506,19.1155 60.1839,17.4488 59.5,15.5C 58.8772,13.2895 57.8772,11.2895 56.5,9.5 Z"/></g>
<g><path style="opacity:1" fill="#eaa546" d="M 45.5,6.5 C 45.1961,7.14987 44.8627,7.81654 44.5,8.5C 46.4899,9.49811 48.4899,10.4981 50.5,11.5C 51.3857,12.325 51.719,13.325 51.5,14.5C 49.0885,14.1367 47.5885,15.1367 47,17.5C 43.5108,17.6372 40.0108,16.9705 36.5,15.5C 36.5,18.5 36.5,21.5 36.5,24.5C 35.2353,23.4855 34.5687,21.9855 34.5,20C 34.7759,12.5712 38.4425,8.07122 45.5,6.5 Z"/></g>
<g><path style="opacity:1" fill="#f6dfa0" d="M 41.5,12.5 C 42.5,12.5 43.5,12.5 44.5,12.5C 44.5,13.5 44.5,14.5 44.5,15.5C 43.5,15.5 42.5,15.5 41.5,15.5C 41.5,14.5 41.5,13.5 41.5,12.5 Z"/></g>
<g><path style="opacity:1" fill="#8f4f19" d="M 59.5,15.5 C 60.1839,17.4488 61.3506,19.1155 63,20.5C 63.49,21.7932 63.6567,23.1266 63.5,24.5C 63.5674,25.9587 63.2341,27.2921 62.5,28.5C 61.1667,28.8333 59.8333,29.1667 58.5,29.5C 57.391,29.5569 56.391,29.8902 55.5,30.5C 55.5,28.5 55.5,26.5 55.5,24.5C 52.6545,24.8087 51.1545,26.4754 51,29.5C 47.9637,24.1159 49.4637,21.1159 55.5,20.5C 56.4519,18.9547 56.7852,17.288 56.5,15.5C 57.5,15.5 58.5,15.5 59.5,15.5 Z"/></g>
<g><path style="opacity:1" fill="#a35c17" d="M 54.5,8.5 C 55.1667,8.83333 55.8333,9.16667 56.5,9.5C 57.8772,11.2895 58.8772,13.2895 59.5,15.5C 58.5,15.5 57.5,15.5 56.5,15.5C 56.7852,17.288 56.4519,18.9547 55.5,20.5C 49.4637,21.1159 47.9637,24.1159 51,29.5C 51.1545,26.4754 52.6545,24.8087 55.5,24.5C 55.5,26.5 55.5,28.5 55.5,30.5C 50.8333,31.1667 46.1667,31.8333 41.5,32.5C 40.7321,31.7375 40.2321,30.7375 40,29.5C 39.3292,28.7476 38.4959,28.4142 37.5,28.5C 37.5,27.8333 37.5,27.1667 37.5,26.5C 43.493,23.6477 49.3263,20.981 55,18.5C 55.658,16.892 55.158,15.7253 53.5,15C 54.5,14.1667 55.5,13.3333 56.5,12.5C 55.1468,11.4763 54.4802,10.143 54.5,8.5 Z"/></g>
<g><path style="opacity:1" fill="#a2601e" d="M 70.5,12.5 C 74.7016,12.1832 78.7016,12.5166 82.5,13.5C 78.8936,13.2108 75.3936,13.5442 72,14.5C 71.5006,20.1569 71.3339,25.8236 71.5,31.5C 72.5,31.5 73.5,31.5 74.5,31.5C 74.2053,29.2646 74.5386,27.2646 75.5,25.5C 75.5,27.8333 75.5,30.1667 75.5,32.5C 73.8333,32.5 72.1667,32.5 70.5,32.5C 70.5,25.8333 70.5,19.1667 70.5,12.5 Z"/></g>
<g><path style="opacity:1" fill="#b66216" d="M 82.5,13.5 C 83.4959,13.4142 84.3292,13.7476 85,14.5C 85.6667,17.1667 85.6667,19.8333 85,22.5C 84.0754,23.0465 83.2421,23.7132 82.5,24.5C 84.8847,26.8838 86.8847,29.5505 88.5,32.5C 86.5,33.8333 84.5,33.8333 82.5,32.5C 81.1387,30.9716 79.972,29.3049 79,27.5C 78.1841,26.1772 77.0174,25.5106 75.5,25.5C 74.5386,27.2646 74.2053,29.2646 74.5,31.5C 73.5,31.5 72.5,31.5 71.5,31.5C 71.3339,25.8236 71.5006,20.1569 72,14.5C 75.3936,13.5442 78.8936,13.2108 82.5,13.5 Z"/></g>
<g><path style="opacity:1" fill="#fbf6e5" d="M 75.5,16.5 C 79.6759,15.8307 81.0093,17.3307 79.5,21C 78.2068,21.49 76.8734,21.6567 75.5,21.5C 75.5,19.8333 75.5,18.1667 75.5,16.5 Z"/></g>
<g><path style="opacity:1" fill="#dbad84" d="M 70.5,12.5 C 70.5,19.1667 70.5,25.8333 70.5,32.5C 72.1667,32.5 73.8333,32.5 75.5,32.5C 73.7354,33.4614 71.7354,33.7947 69.5,33.5C 69.1755,26.3134 69.5088,19.3134 70.5,12.5 Z"/></g>
<g><path style="opacity:1" fill="#6d5978" d="M 62.5,28.5 C 63.1098,29.391 63.4431,30.391 63.5,31.5C 61.2188,31.9227 59.5521,31.256 58.5,29.5C 59.8333,29.1667 61.1667,28.8333 62.5,28.5 Z"/></g>
<g><path style="opacity:1" fill="#703b21" d="M 58.5,29.5 C 59.5521,31.256 61.2188,31.9227 63.5,31.5C 63.366,33.2915 63.6993,34.9582 64.5,36.5C 62.9106,38.3056 60.9106,39.6389 58.5,40.5C 57.6586,45.1342 57.6586,49.8009 58.5,54.5C 58.5,55.5 58.5,56.5 58.5,57.5C 56.1551,52.2468 54.8217,46.5801 54.5,40.5C 56.2774,39.3995 58.2774,38.5662 60.5,38C 61.3567,37.3109 62.0233,36.4776 62.5,35.5C 56.5111,34.644 50.5111,33.9774 44.5,33.5C 43.391,33.4431 42.391,33.1098 41.5,32.5C 46.1667,31.8333 50.8333,31.1667 55.5,30.5C 56.391,29.8902 57.391,29.5569 58.5,29.5 Z"/></g>
<g><path style="opacity:1" fill="#f0ad41" d="M 37.5,28.5 C 38.4959,28.4142 39.3292,28.7476 40,29.5C 40.2321,30.7375 40.7321,31.7375 41.5,32.5C 42.391,33.1098 43.391,33.4431 44.5,33.5C 47.5575,35.1321 50.8909,36.2987 54.5,37C 54.1667,37.3333 53.8333,37.6667 53.5,38C 47.07,38.673 40.7366,38.173 34.5,36.5C 34.0183,35.5837 33.685,34.5837 33.5,33.5C 34.8229,31.8349 36.1562,30.1683 37.5,28.5 Z"/></g>
<g><path style="opacity:1" fill="#9ca5be" d="M 63.5,31.5 C 67.143,32.461 67.4763,34.1276 64.5,36.5C 63.6993,34.9582 63.366,33.2915 63.5,31.5 Z"/></g>
<g><path style="opacity:1" fill="#a65e1d" d="M 44.5,33.5 C 50.5111,33.9774 56.5111,34.644 62.5,35.5C 62.0233,36.4776 61.3567,37.3109 60.5,38C 58.2774,38.5662 56.2774,39.3995 54.5,40.5C 51.1667,40.5 47.8333,40.5 44.5,40.5C 44.5,42.1667 44.5,43.8333 44.5,45.5C 43.8333,45.5 43.1667,45.5 42.5,45.5C 42.7845,43.5853 42.4511,41.9187 41.5,40.5C 38.6737,40.0023 36.3403,38.6689 34.5,36.5C 40.7366,38.173 47.07,38.673 53.5,38C 53.8333,37.6667 54.1667,37.3333 54.5,37C 50.8909,36.2987 47.5575,35.1321 44.5,33.5 Z"/></g>
<g><path style="opacity:1" fill="#e09d27" d="M 42.5,45.5 C 43.1667,45.5 43.8333,45.5 44.5,45.5C 44.5,45.8333 44.5,46.1667 44.5,46.5C 44.5,47.5 44.5,48.5 44.5,49.5C 44.5567,51.8845 44.2234,54.2178 43.5,56.5C 44.9634,58.2888 45.9634,60.2888 46.5,62.5C 45.2794,61.9717 44.1127,61.305 43,60.5C 42.5007,55.5111 42.3341,50.5111 42.5,45.5 Z"/></g>
<g><path style="opacity:1" fill="#894b18" d="M 54.5,40.5 C 54.8217,46.5801 56.1551,52.2468 58.5,57.5C 59.1949,59.9781 60.6949,61.9781 63,63.5C 63.4828,64.448 63.6495,65.448 63.5,66.5C 63.0535,69.0101 63.7202,71.0101 65.5,72.5C 65.8333,73.1667 66.1667,73.8333 66.5,74.5C 65.7611,74.631 65.0944,74.4643 64.5,74C 62.5,71.6667 60.5,69.3333 58.5,67C 55.1727,66.3897 51.8394,65.8897 48.5,65.5C 44.5,65.1667 44.5,64.8333 48.5,64.5C 50.9029,64.552 53.2362,64.2186 55.5,63.5C 57.1033,63.6882 58.4366,63.1882 59.5,62C 57.3853,61.4427 55.3853,60.6094 53.5,59.5C 51.8333,55.5 50.1667,51.5 48.5,47.5C 47.2638,46.7542 45.9305,46.4208 44.5,46.5C 44.5,46.1667 44.5,45.8333 44.5,45.5C 44.5,43.8333 44.5,42.1667 44.5,40.5C 47.8333,40.5 51.1667,40.5 54.5,40.5 Z"/></g>
<g><path style="opacity:1" fill="#c47821" d="M 44.5,49.5 C 45.4959,49.4142 46.3292,49.7476 47,50.5C 47.1786,53.5535 47.6786,56.5535 48.5,59.5C 49.9185,60.0047 50.5852,61.0047 50.5,62.5C 49.1667,62.5 47.8333,62.5 46.5,62.5C 45.9634,60.2888 44.9634,58.2888 43.5,56.5C 44.2234,54.2178 44.5567,51.8845 44.5,49.5 Z"/></g>
<g><path style="opacity:1" fill="#9f5c18" d="M 44.5,46.5 C 45.9305,46.4208 47.2638,46.7542 48.5,47.5C 50.1667,51.5 51.8333,55.5 53.5,59.5C 55.3853,60.6094 57.3853,61.4427 59.5,62C 58.4366,63.1882 57.1033,63.6882 55.5,63.5C 54.0813,62.5489 52.4147,62.2155 50.5,62.5C 50.5852,61.0047 49.9185,60.0047 48.5,59.5C 47.6786,56.5535 47.1786,53.5535 47,50.5C 46.3292,49.7476 45.4959,49.4142 44.5,49.5C 44.5,48.5 44.5,47.5 44.5,46.5 Z"/></g>
<g><path style="opacity:1" fill="#f1b95d" d="M 41.5,40.5 C 42.4511,41.9187 42.7845,43.5853 42.5,45.5C 42.3341,50.5111 42.5007,55.5111 43,60.5C 44.1127,61.305 45.2794,61.9717 46.5,62.5C 47.8333,62.5 49.1667,62.5 50.5,62.5C 52.4147,62.2155 54.0813,62.5489 55.5,63.5C 53.2362,64.2186 50.9029,64.552 48.5,64.5C 45.6871,63.9182 43.0204,62.9182 40.5,61.5C 40.3678,58.9931 39.3678,58.3264 37.5,59.5C 38.8446,57.3032 40.0112,54.9698 41,52.5C 41.4988,48.5138 41.6655,44.5138 41.5,40.5 Z"/></g>
<g><path style="opacity:1" fill="#825f5d" d="M 58.5,54.5 C 59.6431,54.9081 60.6431,55.5748 61.5,56.5C 62.4923,60.4924 64.4923,63.8258 67.5,66.5C 67.631,67.2389 67.4643,67.9056 67,68.5C 66.1841,67.1772 65.0174,66.5106 63.5,66.5C 63.6495,65.448 63.4828,64.448 63,63.5C 60.6949,61.9781 59.1949,59.9781 58.5,57.5C 58.5,56.5 58.5,55.5 58.5,54.5 Z"/></g>
<g><path style="opacity:1" fill="#9c5c1c" d="M 48.5,65.5 C 51.8394,65.8897 55.1727,66.3897 58.5,67C 60.5,69.3333 62.5,71.6667 64.5,74C 65.0944,74.4643 65.7611,74.631 66.5,74.5C 67.1667,74.5 67.5,74.8333 67.5,75.5C 67.5106,77.0174 68.1772,78.1841 69.5,79C 68.8333,79.3333 68.1667,79.6667 67.5,80C 68.8009,81.6155 68.8009,83.1155 67.5,84.5C 66.3121,85.6843 65.1455,85.6843 64,84.5C 62.0162,86.6134 59.5162,87.7801 56.5,88C 51.8333,88.6667 47.1667,88.6667 42.5,88C 41.2625,87.7679 40.2625,87.2679 39.5,86.5C 46.4165,85.724 53.4165,84.5573 60.5,83C 62.779,82.5272 64.779,81.5272 66.5,80C 60.6008,75.0254 54.6008,70.1921 48.5,65.5 Z"/></g>
<g><path style="opacity:1" fill="#725e87" d="M 63.5,66.5 C 65.0174,66.5106 66.1841,67.1772 67,68.5C 67.4643,67.9056 67.631,67.2389 67.5,66.5C 69.8598,67.865 71.5265,69.865 72.5,72.5C 72.7373,73.791 72.404,74.791 71.5,75.5C 70.901,73.0655 69.401,71.3988 67,70.5C 65.9701,70.8361 65.4701,71.5028 65.5,72.5C 63.7202,71.0101 63.0535,69.0101 63.5,66.5 Z"/></g>
<g><path style="opacity:1" fill="#f2b850" d="M 37.5,59.5 C 37.5339,62.1985 36.8672,64.6985 35.5,67C 36.8672,69.3015 37.5339,71.8015 37.5,74.5C 35.5,74.5 33.5,74.5 31.5,74.5C 31.6602,76.1992 31.4935,77.8659 31,79.5C 30.6667,79.1667 30.3333,78.8333 30,78.5C 29.8195,76.5116 29.9862,74.5116 30.5,72.5C 29.5,72.5 28.5,72.5 27.5,72.5C 30.8403,68.1613 34.1736,63.828 37.5,59.5 Z"/></g>
<g><path style="opacity:1" fill="#9b96cc" d="M 71.5,75.5 C 71.6309,76.3764 71.2975,77.0431 70.5,77.5C 69.4822,76.8075 68.4822,76.1408 67.5,75.5C 67.5,74.8333 67.1667,74.5 66.5,74.5C 66.1667,73.8333 65.8333,73.1667 65.5,72.5C 65.4701,71.5028 65.9701,70.8361 67,70.5C 69.401,71.3988 70.901,73.0655 71.5,75.5 Z"/></g>
<g><path style="opacity:1" fill="#70473a" d="M 72.5,72.5 C 73.4682,74.6074 73.8016,76.9407 73.5,79.5C 71.9217,80.0656 70.5884,81.0656 69.5,82.5C 69.8333,82.8333 70.1667,83.1667 70.5,83.5C 71.5178,82.8075 72.5178,82.1408 73.5,81.5C 73.2785,84.0673 72.6118,86.4006 71.5,88.5C 71.5,88.1667 71.5,87.8333 71.5,87.5C 71.3444,83.8649 70.1777,83.5315 68,86.5C 67.5357,85.9056 67.369,85.2389 67.5,84.5C 68.8009,83.1155 68.8009,81.6155 67.5,80C 68.1667,79.6667 68.8333,79.3333 69.5,79C 68.1772,78.1841 67.5106,77.0174 67.5,75.5C 68.4822,76.1408 69.4822,76.8075 70.5,77.5C 71.2975,77.0431 71.6309,76.3764 71.5,75.5C 72.404,74.791 72.7373,73.791 72.5,72.5 Z"/></g>
<g><path style="opacity:1" fill="#e49e33" d="M 40.5,61.5 C 39.7611,61.369 39.0944,61.5357 38.5,62C 38.9406,64.9409 40.6073,66.7743 43.5,67.5C 44.7575,70.4238 46.4242,73.0905 48.5,75.5C 51.1332,76.3001 53.1332,77.8001 54.5,80C 52.254,82.8701 49.254,84.3701 45.5,84.5C 40.4344,83.2054 36.1011,83.2054 32.5,84.5C 32.5,84.8333 32.5,85.1667 32.5,85.5C 31.4937,85.9377 31.4937,86.6043 32.5,87.5C 31.6618,87.8417 31.3284,88.5084 31.5,89.5C 29.461,88.3282 28.1276,86.6616 27.5,84.5C 27.5,80.5 27.5,76.5 27.5,72.5C 28.5,72.5 29.5,72.5 30.5,72.5C 29.9862,74.5116 29.8195,76.5116 30,78.5C 30.3333,78.8333 30.6667,79.1667 31,79.5C 31.4935,77.8659 31.6602,76.1992 31.5,74.5C 33.5,74.5 35.5,74.5 37.5,74.5C 37.5339,71.8015 36.8672,69.3015 35.5,67C 36.8672,64.6985 37.5339,62.1985 37.5,59.5C 39.3678,58.3264 40.3678,58.9931 40.5,61.5 Z"/></g>
<g><path style="opacity:1" fill="#f4c25f" d="M 35.5,76.5 C 37.5,76.5 39.5,76.5 41.5,76.5C 41.8454,83.0141 39.1788,84.3474 33.5,80.5C 34.8532,79.4763 35.5198,78.143 35.5,76.5 Z"/></g>
<g><path style="opacity:1" fill="#7f618d" d="M 73.5,79.5 C 73.5,80.1667 73.5,80.8333 73.5,81.5C 72.5178,82.1408 71.5178,82.8075 70.5,83.5C 70.1667,83.1667 69.8333,82.8333 69.5,82.5C 70.5884,81.0656 71.9217,80.0656 73.5,79.5 Z"/></g>
<g><path style="opacity:1" fill="#bd7926" d="M 40.5,61.5 C 43.0204,62.9182 45.6871,63.9182 48.5,64.5C 44.5,64.8333 44.5,65.1667 48.5,65.5C 54.6008,70.1921 60.6008,75.0254 66.5,80C 64.779,81.5272 62.779,82.5272 60.5,83C 53.4165,84.5573 46.4165,85.724 39.5,86.5C 37.079,86.1218 34.7457,85.4552 32.5,84.5C 36.1011,83.2054 40.4344,83.2054 45.5,84.5C 49.254,84.3701 52.254,82.8701 54.5,80C 53.1332,77.8001 51.1332,76.3001 48.5,75.5C 46.4242,73.0905 44.7575,70.4238 43.5,67.5C 40.6073,66.7743 38.9406,64.9409 38.5,62C 39.0944,61.5357 39.7611,61.369 40.5,61.5 Z"/></g>
<g><path style="opacity:1" fill="#795c30" d="M 27.5,84.5 C 28.1276,86.6616 29.461,88.3282 31.5,89.5C 32.3065,90.7281 33.3065,91.7281 34.5,92.5C 33.8333,92.5 33.5,92.8333 33.5,93.5C 29.492,91.8274 27.492,88.8274 27.5,84.5 Z"/></g>
<g><path style="opacity:1" fill="#f7cb87" d="M 32.5,85.5 C 34.7128,86.7729 37.0462,87.7729 39.5,88.5C 39.2648,89.0967 38.7648,89.4301 38,89.5C 36.1997,88.6805 34.3664,88.0138 32.5,87.5C 31.4937,86.6043 31.4937,85.9377 32.5,85.5 Z"/></g>
<g><path style="opacity:1" fill="#743a0c" d="M 32.5,85.5 C 32.5,85.1667 32.5,84.8333 32.5,84.5C 34.7457,85.4552 37.079,86.1218 39.5,86.5C 40.2625,87.2679 41.2625,87.7679 42.5,88C 47.1667,88.6667 51.8333,88.6667 56.5,88C 59.5162,87.7801 62.0162,86.6134 64,84.5C 65.1455,85.6843 66.3121,85.6843 67.5,84.5C 67.369,85.2389 67.5357,85.9056 68,86.5C 70.1777,83.5315 71.3444,83.8649 71.5,87.5C 69.8595,88.147 68.5261,89.147 67.5,90.5C 66.8953,88.9743 65.7286,87.9743 64,87.5C 58.6621,89.1532 53.1621,89.8199 47.5,89.5C 44.7628,89.5987 42.0961,89.2653 39.5,88.5C 37.0462,87.7729 34.7128,86.7729 32.5,85.5 Z"/></g>
<g><path style="opacity:1" fill="#96531a" d="M 67.5,90.5 C 64.4533,93.1905 60.7867,94.5238 56.5,94.5C 55.2089,93.4583 55.2089,92.2917 56.5,91C 53.3054,90.8195 50.3054,90.3195 47.5,89.5C 53.1621,89.8199 58.6621,89.1532 64,87.5C 65.7286,87.9743 66.8953,88.9743 67.5,90.5 Z"/></g>
<g><path style="opacity:1" fill="#b16920" d="M 32.5,87.5 C 34.3664,88.0138 36.1997,88.6805 38,89.5C 38.7648,89.4301 39.2648,89.0967 39.5,88.5C 42.0961,89.2653 44.7628,89.5987 47.5,89.5C 50.3054,90.3195 53.3054,90.8195 56.5,91C 55.2089,92.2917 55.2089,93.4583 56.5,94.5C 49.0285,96.2393 41.6951,95.5726 34.5,92.5C 33.3065,91.7281 32.3065,90.7281 31.5,89.5C 31.3284,88.5084 31.6618,87.8417 32.5,87.5 Z"/></g>
<g><path style="opacity:1" fill="#211a16" d="M 71.5,87.5 C 71.5,87.8333 71.5,88.1667 71.5,88.5C 70.9524,90.3936 69.9524,92.0603 68.5,93.5C 61.3583,97.1876 53.6917,98.5209 45.5,97.5C 40.9929,97.5532 36.9929,96.2199 33.5,93.5C 33.5,92.8333 33.8333,92.5 34.5,92.5C 41.6951,95.5726 49.0285,96.2393 56.5,94.5C 60.7867,94.5238 64.4533,93.1905 67.5,90.5C 68.5261,89.147 69.8595,88.147 71.5,87.5 Z"/></g>
</svg>
