<svg xmlns="http://www.w3.org/2000/svg" width="100" height="100" style="shape-rendering:geometricPrecision;text-rendering:geometricPrecision;image-rendering:optimizeQuality;fill-rule:evenodd;clip-rule:evenodd"><path fill="#fefefd" d="M-.5-.5h48q-1.2 2.313-1 5 2.55-.24 5 .5-3.312.285-6 1.5-10.586 2.357-11 13.5.103 2.977 2 4.5l1 2v2a954 954 0 0 0-4 5 10 10 0 0 0 1 3q2.76 3.253 7 4a72.4 72.4 0 0 1-.5 12 46.5 46.5 0 0 1-3.5 7q-4.99 6.492-10 13v12q-.012 6.49 6 9 5.24 4.08 12 4l10 2h-56z" style="opacity:1"/><path fill="#fcfcfb" d="M47.5-.5h52v100h-44l-10-2q12.288 1.531 23-4 2.178-2.16 3-5 1.667-3.15 2-7v-2q.453-3.84-1-7-1.46-3.953-5-6-4.512-4.011-6-10a7.5 7.5 0 0 0-3-2q-1.261-7.05 0-14 3.615-1.291 6-4 4.464-3.558-1-5a5.73 5.73 0 0 0-1-3q1.1-1.812 1-4 1.46-3.672 1-8-1.725-9.228-11-10h-8q2.688-1.215 6-1.5-2.45-.74-5-.5-.2-2.687 1-5" style="opacity:1"/><path fill="#b6a2aa" d="M53.5 6.5q9.275.772 11 10-1.345-1.647-2.5 0a23 23 0 0 1-2-5q-1.224-1.985-3.5-2l-2-1z" style="opacity:1"/><path fill="#ce8328" d="M45.5 6.5h8l1 2q-.03 2.464 2 4l-3 2.5q2.487 1.088 1.5 3.5a602 602 0 0 0-17.5 8l-1-2v-9q5.265 2.205 10.5 2 .883-3.544 4.5-3 .329-1.763-1-3-3.015-1.503-6-3 .544-1.025 1-2" style="opacity:1"/><path fill="#7e5143" d="M56.5 9.5q2.276.015 3.5 2a23 23 0 0 0 2 5q1.155-1.647 2.5 0 .46 4.328-1 8a8.4 8.4 0 0 0-.5-4q-2.474-2.076-3.5-5a17.5 17.5 0 0 0-3-6" style="opacity:1"/><path fill="#eaa546" d="M45.5 6.5q-.456.975-1 2 2.985 1.497 6 3 1.329 1.237 1 3-3.617-.544-4.5 3-5.235.205-10.5-2v9q-1.897-1.523-2-4.5.414-11.143 11-13.5" style="opacity:1"/><path fill="#f6dfa0" d="M41.5 12.5h3v3h-3z" style="opacity:1"/><path fill="#8f4f19" d="M59.5 15.5q1.026 2.924 3.5 5a8.4 8.4 0 0 1 .5 4q.1 2.188-1 4l-4 1a5.73 5.73 0 0 0-3 1v-6q-4.269.463-4.5 5-4.554-8.076 4.5-9 1.428-2.318 1-5z" style="opacity:1"/><path fill="#a35c17" d="m54.5 8.5 2 1a17.5 17.5 0 0 1 3 6h-3q.428 2.682-1 5-9.054.924-4.5 9 .231-4.537 4.5-5v6l-14 2q-1.152-1.143-1.5-3-1.005-1.128-2.5-1v-2a602 602 0 0 1 17.5-8q.987-2.412-1.5-3.5l3-2.5q-2.03-1.536-2-4" style="opacity:1"/><path fill="#a2601e" d="M70.5 12.5q6.303-.475 12 1-5.409-.434-10.5 1-.75 8.486-.5 17h3q-.442-3.352 1-6v7h-5z" style="opacity:1"/><path fill="#b66216" d="M82.5 13.5q1.495-.129 2.5 1a16.25 16.25 0 0 1 0 8 11.4 11.4 0 0 0-2.5 2 35 35 0 0 1 6 8q-3 2-6 0a26 26 0 0 1-3.5-5q-1.224-1.985-3.5-2-1.442 2.648-1 6h-3q-.25-8.514.5-17 5.091-1.434 10.5-1" style="opacity:1"/><path fill="#fbf6e5" d="M75.5 16.5q6.265-1.005 4 4.5a8.4 8.4 0 0 1-4 .5z" style="opacity:1"/><path fill="#dbad84" d="M70.5 12.5v20h5q-2.648 1.442-6 1-.487-10.78 1-21" style="opacity:1"/><path fill="#6d5978" d="M62.5 28.5q.915 1.337 1 3-3.422.634-5-2z" style="opacity:1"/><path fill="#703b21" d="M58.5 29.5q1.578 2.634 5 2-.2 2.687 1 5-2.385 2.709-6 4-1.261 6.95 0 14v3q-3.517-7.88-4-17 2.666-1.65 6-2.5a7.25 7.25 0 0 0 2-2.5 289 289 0 0 0-18-2 5.73 5.73 0 0 1-3-1l14-2a5.73 5.73 0 0 1 3-1" style="opacity:1"/><path fill="#f0ad41" d="M37.5 28.5q1.495-.128 2.5 1 .348 1.857 1.5 3 1.337.915 3 1 4.585 2.448 10 3.5l-1 1a51.9 51.9 0 0 1-19-1.5 10 10 0 0 1-1-3 954 954 0 0 1 4-5" style="opacity:1"/><path fill="#9ca5be" d="M63.5 31.5q5.464 1.442 1 5-1.2-2.313-1-5" style="opacity:1"/><path fill="#a65e1d" d="M44.5 33.5a289 289 0 0 1 18 2 7.25 7.25 0 0 1-2 2.5q-3.334.85-6 2.5h-10v5h-2q.427-2.872-1-5-4.24-.747-7-4a51.9 51.9 0 0 0 19 1.5l1-1q-5.415-1.052-10-3.5" style="opacity:1"/><path fill="#e09d27" d="M42.5 45.5h2v4a21.3 21.3 0 0 1-1 7 14.9 14.9 0 0 1 3 6 18.5 18.5 0 0 1-3.5-2q-.75-7.483-.5-15" style="opacity:1"/><path fill="#894b18" d="M54.5 40.5q.483 9.12 4 17 1.043 3.717 4.5 6 .725 1.422.5 3-.67 3.765 2 6l1 2a2.43 2.43 0 0 1-2-.5l-6-7q-4.99-.915-10-1.5-6-.5 0-1a21.5 21.5 0 0 0 7-1q2.405.282 4-1.5a23.7 23.7 0 0 1-6-2.5l-5-12a6.85 6.85 0 0 0-4-1v-6z" style="opacity:1"/><path fill="#c47821" d="M44.5 49.5q1.495-.128 2.5 1a42.7 42.7 0 0 0 1.5 9q2.128.758 2 3h-4a14.9 14.9 0 0 0-3-6 21.3 21.3 0 0 0 1-7" style="opacity:1"/><path fill="#9f5c18" d="M44.5 46.5a6.85 6.85 0 0 1 4 1l5 12a23.7 23.7 0 0 0 6 2.5q-1.595 1.782-4 1.5-2.128-1.427-5-1 .128-2.242-2-3a42.7 42.7 0 0 1-1.5-9q-1.005-1.128-2.5-1z" style="opacity:1"/><path fill="#f1b95d" d="M41.5 40.5q1.427 2.128 1 5-.25 7.517.5 15a18.5 18.5 0 0 0 3.5 2h4q2.872-.427 5 1a21.5 21.5 0 0 1-7 1 27.6 27.6 0 0 1-8-3q-.198-3.76-3-2a46.5 46.5 0 0 0 3.5-7q.749-5.979.5-12" style="opacity:1"/><path fill="#825f5d" d="M58.5 54.5a7.5 7.5 0 0 1 3 2q1.488 5.989 6 10a2.43 2.43 0 0 1-.5 2q-1.224-1.985-3.5-2a4.93 4.93 0 0 0-.5-3q-3.457-2.283-4.5-6z" style="opacity:1"/><path fill="#9c5c1c" d="M48.5 65.5q5.01.585 10 1.5l6 7a2.43 2.43 0 0 0 2 .5q1 0 1 1 .015 2.276 2 3.5l-2 1q1.95 2.422 0 4.5-1.782 1.776-3.5 0-2.976 3.17-7.5 3.5a49.3 49.3 0 0 1-14 0q-1.856-.348-3-1.5a203 203 0 0 0 21-3.5 12.8 12.8 0 0 0 6-3q-8.85-7.462-18-14.5" style="opacity:1"/><path fill="#725e87" d="M63.5 66.5q2.276.015 3.5 2a2.43 2.43 0 0 0 .5-2q3.54 2.047 5 6 .356 1.936-1 3-.899-3.651-4.5-5-1.545.504-1.5 2-2.67-2.235-2-6" style="opacity:1"/><path fill="#f2b850" d="M37.5 59.5q.05 4.048-2 7.5 2.05 3.453 2 7.5h-6q.24 2.55-.5 5l-1-1a17.6 17.6 0 0 1 .5-6h-3q5.01-6.508 10-13" style="opacity:1"/><path fill="#9b96cc" d="M71.5 75.5q.195 1.314-1 2a186 186 0 0 0-3-2q0-1-1-1l-1-2q-.045-1.496 1.5-2 3.601 1.349 4.5 5" style="opacity:1"/><path fill="#70473a" d="M72.5 72.5q1.453 3.16 1 7-2.368.849-4 3l1 1a186 186 0 0 1 3-2q-.333 3.85-2 7v-1q-.234-5.453-3.5-1a2.43 2.43 0 0 1-.5-2q1.95-2.078 0-4.5l2-1q-1.985-1.224-2-3.5a186 186 0 0 1 3 2q1.195-.686 1-2 1.356-1.064 1-3" style="opacity:1"/><path fill="#e49e33" d="M40.5 61.5a2.43 2.43 0 0 0-2 .5q.66 4.41 5 5.5a30.9 30.9 0 0 0 5 8q3.95 1.2 6 4.5-3.369 4.305-9 4.5-7.599-1.942-13 0v1q-1.509.657 0 2-1.258.513-1 2-3.058-1.757-4-5v-12h3a17.6 17.6 0 0 0-.5 6l1 1q.74-2.45.5-5h6q.05-4.047-2-7.5 2.05-3.452 2-7.5 2.802-1.76 3 2" style="opacity:1"/><path fill="#f4c25f" d="M35.5 76.5h6q.518 9.77-8 4 2.03-1.536 2-4" style="opacity:1"/><path fill="#7f618d" d="M73.5 79.5v2a186 186 0 0 0-3 2l-1-1q1.632-2.151 4-3" style="opacity:1"/><path fill="#bd7926" d="M40.5 61.5a27.6 27.6 0 0 0 8 3q-6 .5 0 1 9.15 7.038 18 14.5a12.8 12.8 0 0 1-6 3 203 203 0 0 1-21 3.5 29.4 29.4 0 0 1-7-2q5.401-1.942 13 0 5.631-.195 9-4.5-2.05-3.3-6-4.5a30.9 30.9 0 0 1-5-8q-4.34-1.09-5-5.5a2.43 2.43 0 0 1 2-.5" style="opacity:1"/><path fill="#795c30" d="M27.5 84.5q.942 3.243 4 5a10.2 10.2 0 0 0 3 3q-1 0-1 1-6.012-2.51-6-9" style="opacity:1"/><path fill="#f7cb87" d="M32.5 85.5a32.5 32.5 0 0 0 7 3q-.352.895-1.5 1a37 37 0 0 0-5.5-2q-1.509-1.343 0-2" style="opacity:1"/><path fill="#743a0c" d="M32.5 85.5v-1a29.4 29.4 0 0 0 7 2q1.144 1.152 3 1.5 7 1 14 0 4.524-.33 7.5-3.5 1.718 1.776 3.5 0a2.43 2.43 0 0 0 .5 2q3.266-4.453 3.5 1-2.46.97-4 3-.907-2.289-3.5-3-8.007 2.48-16.5 2a25 25 0 0 1-8-1 32.5 32.5 0 0 1-7-3" style="opacity:1"/><path fill="#96531a" d="M67.5 90.5q-4.57 4.035-11 4-1.936-1.562 0-3.5-4.793-.27-9-1.5 8.493.48 16.5-2 2.593.711 3.5 3" style="opacity:1"/><path fill="#b16920" d="M32.5 87.5q2.8.77 5.5 2 1.148-.105 1.5-1a25 25 0 0 0 8 1q4.207 1.23 9 1.5-1.936 1.938 0 3.5-11.207 2.61-22-2a10.2 10.2 0 0 1-3-3q-.258-1.487 1-2" style="opacity:1"/><path fill="#211a16" d="M71.5 87.5v1q-.822 2.84-3 5-10.713 5.531-23 4-6.76.08-12-4 0-1 1-1 10.793 4.61 22 2 6.43.035 11-4 1.54-2.03 4-3" style="opacity:1"/></svg>