<svg xmlns="http://www.w3.org/2000/svg" width="1024" height="1024" style="shape-rendering:geometricPrecision;text-rendering:geometricPrecision;image-rendering:optimizeQuality;fill-rule:evenodd;clip-rule:evenodd"><path d="M499.5 45.5q189.327-2.162 331 121.5 152.387 142.59 155 352.5-2.623 190.23-128.5 331C748.602 960.203 617.102 1008.7 462.5 996Q232.515 968.723 108 775.5q-82.946-140.302-68-303Q66.208 238.03 264.5 113q109.093-63.395 235-67.5" style="opacity:1"/><path fill="#171717" d="M672.5 84.5a586 586 0 0 1 87 43 936 936 0 0 1 56 42.5 73.5 73.5 0 0 1 7 7.5 140 140 0 0 0-16-12Q694.02 72.815 547.5 61q-176.38-11.358-318 93a796 796 0 0 0-25 21.5q-.657-.098-1 .5l2 1a477 477 0 0 0-26.5 25.5l-1-3a51 51 0 0 1-8 9q-1-1.5 0-3 69.011-73.867 164.5-115 59.509-24.461 124-30.5 94.404-9.537 186 15a218 218 0 0 1 28 9.5" style="opacity:1"/><path fill="#1f251f" d="M687.5 105.5q68.642 29.054 124 78.5a1956 1956 0 0 1 37 37.5q49.206 57.771 79 128a103 103 0 0 1 3 11q45.993 130.914 14 266h-39a179 179 0 0 0 7-33q2.122-6.687 3-14a387 387 0 0 0 4-37q1.966-25.692 0-51-.927-25.455-6-50a382 382 0 0 0-10-43q-1.443-5.842-4-11-13.7-41.396-35.5-79a603 603 0 0 0-15.5-23 101.4 101.4 0 0 0-14-19q-90.511-116.094-235-149.5Q373.91 74.427 213 236.5a347 347 0 0 0-24.5 30 101.4 101.4 0 0 0-14 19q-24.6 35.184-41.5 75a260 260 0 0 0-9.5 27q-2.556 5.158-4 11a382 382 0 0 0-10 43q-5.073 24.545-6 50-1.966 25.308 0 51a387 387 0 0 0 4 37q.877 7.313 3 14a179 179 0 0 0 7 33h-39q-31.993-135.086 14-266 37.824-102.058 118-175.5a150 150 0 0 0 19-16.5 458.5 458.5 0 0 1 61-39.5q2.54-4.035 7-6a311 311 0 0 1 43-19.5q173.976-66.88 347 2" style="opacity:1"/><path fill="#1d1d1e" d="M806.5 165.5q.679 1.438 2 2.5-1 1-2 0a268 268 0 0 0-17-14q-1.423-.926-2.5.5a37.4 37.4 0 0 0-11.5-10.5q-1.423-.926-2.5.5-21.915-14.667-40-25-1.524 1.701-2-1h-3q-2.048-3.54-6-5-1.524 1.701-2-1-1.524 1.701-2-1-1.524 1.701-2-1-1.524 1.701-2-1-1.524 1.701-2-1l-1 1q-1.715-3.626-5-2-.476-2.701-2-1-.476-2.701-2-1l-1-2h-3q-.486-3.103-2.5-1a174 174 0 0 1-3.5-3q-1.524 1.701-2-1-.621.685-1.5 1l-6-4q-2.014 2.103-2.5-1a34.5 34.5 0 0 1-4.5 0 2.43 2.43 0 0 0-.5-2q-2.395.21-4.5 0-2.45-.702-3.5-3-2.092 1.972-3-1-2.395.21-4.5 0-1.045-2.827-3-1-1.045-2.827-3-1a4.46 4.46 0 0 1-1.5-2q-2.395.21-4.5 0-1.773-3.218-4.5 0l-4-4q-.621.685-1.5 1-3.35-.547-5.5-3-3.56 4.181-4-1l-3 2a66 66 0 0 0-6-3q-2.936 2.076-3-2-3.56 4.181-4-1-3.46 2.931-6 0-1.891.39-3 2-.926-1.424.5-2.5-3.301-1.238-5.5 1.5a4.93 4.93 0 0 1-.5-3q-2.466-.32-4.5 1l-1-3q-3.928 3.404-7.5 0-3.885 2.82-4.5-2a67 67 0 0 1-5.5 2 6.8 6.8 0 0 1-1.5-3q-5.32 3.543-10.5 0a21.5 21.5 0 0 0-4.5 1q-5.182-3.414-11-1a30.6 30.6 0 0 0-7-2 418 418 0 0 0-57.5 0q-6.33 3.118-13 1-4.511 3.145-9.5 1-3.989 3.135-8.5 1-3.142 3.276-7 1-2.954 3.003-6.5 1-2.595 3.248-6 1-2.073 3.122-5 1l-3 2q-2.197-1.245-4.5-.5 2.082 1.335-.5 1.5-2.86-2.405-4.5 1-3.646-.472-7 0-1.505 3.063-4 1l-2 2h-6q-1.505 3.063-4 1a4.46 4.46 0 0 0-1.5 2 3.94 3.94 0 0 0-2-1q-1.517.588-1.5 2l-2-1a92 92 0 0 0-4.5 3 3.94 3.94 0 0 0-2-1 450 450 0 0 0-5 3q-2.092-1.972-3 1-2.092-1.972-3 1-2.092-1.972-3 1-2.092-1.972-3 1-2.092-1.972-3 1-2.967-2.847-5 2-2.395-.21-4.5 0-2.45.702-3.5 3-3.284-1.626-5 2-3.284-1.626-5 2l-2-2-5 5-2-2-11 8q-1.964-3.587-3 0-19.483 9.296-40 22l-1-1q-2.82 3.68-7 6l-1-1q-.663 3.268-3 2l-5 5-1-1q-.663 3.268-3 2-.663 3.268-3 2l-7 7-1-1q-3.492 1.479-6 6l-1-1a22.8 22.8 0 0 1-4 5l-1-1-3 4q-3.007-.798-3.5 3-1.437.679-2.5 2l-1-1a11.5 11.5 0 0 1-4.5 3.5q1.73 1.37-.5 2.5l-1-1a25.5 25.5 0 0 1-4.5 4q-1.794-.519 0-1.5a4.93 4.93 0 0 0-3-.5 796 796 0 0 1 25-21.5q141.62-104.358 318-93 146.52 11.815 259 104.5" style="opacity:1"/><path fill="#1f1f1f" d="M678.5 100.5a84 84 0 0 1 9 5q-173.024-68.88-347-2 43.718-18.984 91-27.5a1740 1740 0 0 1 38-5.5 585 585 0 0 1 27-1q94.158-2.975 182 31" style="opacity:1"/><path fill="#2d2d2d" d="M675.5 94.5q-.83 1.984 1.5 4l1-1q.724 1.422.5 3-87.842-33.975-182-31-13.573-2.075-27 1a1740 1740 0 0 0-38 5.5q-47.282 8.516-91 27.5a311 311 0 0 0-43 19.5q-4.46 1.965-7 6a458.5 458.5 0 0 0-61 39.5 14.7 14.7 0 0 1-3.5-3 81 81 0 0 1-2.5 3q-1.487.257-2-1 .493-3.798 3.5-3l3-4 1 1a22.8 22.8 0 0 0 4-5l1 1q2.508-4.521 6-6l1 1 7-7q2.337 1.268 3-2 2.337 1.268 3-2l1 1 5-5q2.337 1.268 3-2l1 1q4.18-2.32 7-6l1 1q20.517-12.704 40-22 1.036-3.587 3 0l11-8 2 2 5-5 2 2q1.716-3.626 5-2 1.716-3.626 5-2 1.05-2.298 3.5-3 2.105-.21 4.5 0 2.033-4.847 5-2 .908-2.972 3-1 .908-2.972 3-1 .908-2.972 3-1 .908-2.972 3-1 .908-2.972 3-1a450 450 0 0 1 5-3 3.94 3.94 0 0 1 2 1 92 92 0 0 1 4.5-3l2 1q-.017-1.412 1.5-2a3.94 3.94 0 0 1 2 1 4.46 4.46 0 0 1 1.5-2q2.495 2.063 4-1h6l2-2q2.495 2.063 4-1 3.354-.472 7 0 1.64-3.405 4.5-1 2.582-.165.5-1.5 2.303-.745 4.5.5l3-2q2.927 2.122 5-1 3.405 2.248 6-1 3.546 2.003 6.5-1 3.858 2.276 7-1 4.511 2.135 8.5-1 4.989 2.145 9.5-1 6.67 2.118 13-1a418 418 0 0 1 57.5 0 30.6 30.6 0 0 1 7 2q5.818-2.414 11 1a21.5 21.5 0 0 1 4.5-1q5.18 3.543 10.5 0a6.8 6.8 0 0 0 1.5 3 67 67 0 0 0 5.5-2q.615 4.82 4.5 2 3.572 3.404 7.5 0l1 3q2.034-1.32 4.5-1a4.93 4.93 0 0 0 .5 3q2.199-2.738 5.5-1.5-1.426 1.076-.5 2.5 1.109-1.61 3-2 2.54 2.931 6 0 .44 5.181 4 1 .064 4.076 3 2a66 66 0 0 1 6 3l3-2q.44 5.181 4 1 2.15 2.453 5.5 3a3.65 3.65 0 0 0 1.5-1l4 4q2.727-3.218 4.5 0 2.105.21 4.5 0a4.46 4.46 0 0 0 1.5 2q1.955-1.827 3 1 1.955-1.827 3 1 2.105.21 4.5 0 .908 2.972 3 1 1.05 2.298 3.5 3 2.105.21 4.5 0 .696.891.5 2" style="opacity:1"/><path fill="#515151" d="M496.5 69.5q-13.514.189-27 1 13.427-3.075 27-1" style="opacity:1"/><path fill="#9bba50" d="M834.5 266.5h-94a2242 2242 0 0 1-140-14q-42.626-9.272-87-12-40.464 2.332-79 12a1371 1371 0 0 1-150 14h-96a347 347 0 0 1 24.5-30Q373.91 74.427 599.5 117q144.489 33.406 235 149.5" style="opacity:1"/><path fill="#1c1c1d" d="M759.5 127.5q58.134 35.34 103.5 87 47.787 54.539 77.5 121 26.8 60.683 34.5 127 7.95 69.405-2.5 138a576 576 0 0 1-11.5 47 1529 1529 0 0 1 9.5-46.5q-2.042-2.376-2-5.5h3q27.359-210.646-106.5-374a530 530 0 0 0-42.5-44 73.5 73.5 0 0 0-7-7.5 936 936 0 0 0-56-42.5" style="opacity:1"/><path fill="#303031" d="M931.5 334.5a4.93 4.93 0 0 1-3-.5q1.701-1.524-1-2v-3q-4.567-.539-1-2-4.567-.539-1-2l-3-1 1-1q-2.518-5.763-6-9 1.701-1.524-1-2 1.701-1.524-1-2v-3q-4-1 0-2a21.3 21.3 0 0 1-5-4v-3q-3.58-2.985-5-6l1-1q-3.268-.663-2-3-4.567-.539-1-2-4.045-2.55-6-7l1-1a149 149 0 0 1-12-14l1-1q-3.156-1.187-4-4.5a3.65 3.65 0 0 0-1.5 1v-4q-1.5-2-3 0-.738-1.574.5-3a23.6 23.6 0 0 0-3.5-1q-.738-1.574.5-3l-4-2q1.238-1.426.5-3-2.097-.826-4-1-.738-1.574.5-3-2.085-2.555-4.5-2 .467-2.152-.5-4-1.16-1.817-2.5 0-3.252-1.693-1.5-4.5-3.41-1.497-6.5-4.5a14.7 14.7 0 0 0-1.5-5q-1.683 1.695-4 2a1956 1956 0 0 0-37-37.5q-55.358-49.446-124-78.5a84 84 0 0 0-9-5q2.466.32 4.5-1 .476 2.701 2 1 5.538 1.828 11 6 1.524-1.701 2 1 1.524-1.701 2 1 1.207-3.601 2.5.5 7.006 3.365 12.5 6.5a829 829 0 0 1 11 5q1.524-1.701 2 1l1-1q.539 4.567 2 1l1 3 1-1a193 193 0 0 0 4 3l1-1q.097 3.575 2.5 2a174 174 0 0 1 3.5 3l1-1q.663 3.268 3 2 .539 4.567 2 1l5 5q1.524-1.701 2 1l1-2 2 4 1-1 5 5 1-2 2 4 1-2a23 23 0 0 1 2 5l1-3a19 19 0 0 0 3 5l1-2 2 4 1-2 3 5 1-2 3 5 1-2 3 5 1-2 4 6 1-2 4 6 1-2a22.8 22.8 0 0 1 4 5l1-2 6 8 1-2 13 15 1-1q16.886 15.815 29.5 31.5a194 194 0 0 0 16 17q-.688 2.914 3 4l-1 1a79 79 0 0 0 10 11l-1 1a19 19 0 0 0 5 3l-2 1 5 3q-1.268 2.337 2 3-1.268 2.337 2 3-1.268 2.337 2 3l-1 1q19.76 26.01 34 60.5" style="opacity:1"/><path fill="#252525" d="M672.5 84.5q140.301 50.073 225.5 172 25.917 36.826 42.5 79-29.713-66.461-77.5-121-45.366-51.66-103.5-87a586 586 0 0 0-87-43" style="opacity:1"/><path fill="#353535" d="M931.5 334.5q-1.045 2.357-1 4.5 4 1 0 2 4.711.947 3 5l5 5q-1.626 3.284 2 5-1.626 3.284 2 5-1.972 2.092 1 3-4.165 3.26.5 1.5.926 1.423-.5 2.5a193 193 0 0 0 3 4q-1.972 2.092 1 3-1.972 2.092 1 3-4.164 2.668 1 3-3.946 2.537 1 3.5a3.65 3.65 0 0 1-1 1.5 92 92 0 0 1 3 4.5 7.25 7.25 0 0 1-2 2.5q4.752.873 1 3 3.97.473 2 3.5 1.412-.017 2 1.5-4.335 2.838 1 2.5.21 2.436-2 3.5a4.93 4.93 0 0 0 3 .5q.21 2.436-2 3.5a4.93 4.93 0 0 0 3 .5q.21 2.436-2 3.5a4.93 4.93 0 0 0 3 .5q.255 1.983-1 3.5 1.524.779 2 2.5 1.488 9.23 5 17.5-1.32 2.034-1 4.5-3.096-.393-4-3.5l2-2a32 32 0 0 1-5-6l2-1q-1.857-5.87-4-12.5 1.457-2.193-1-4 1.173-2.744-2-4.5a3.65 3.65 0 0 0 1-1.5q-1.824-2.706-3-5 .874-3.072 0-5.5-4.605-3.704-3-8a48.6 48.6 0 0 0-4-7l1-1-3-5q.794-5.184-4-8.5a3.65 3.65 0 0 1 1-1.5q-3.198-1.377-2-4a16.7 16.7 0 0 0-4-4l2-1-4-4 2-1q-1.934-2.703-5-3.5-29.794-70.229-79-128 2.317-.305 4-2a14.7 14.7 0 0 1 1.5 5q3.09 3.003 6.5 4.5-1.752 2.807 1.5 4.5 1.34-1.817 2.5 0 .967 1.848.5 4 2.415-.555 4.5 2-1.238 1.426-.5 3 1.903.174 4 1 .738 1.574-.5 3l4 2q-1.238 1.426-.5 3 1.703.34 3.5 1-1.238 1.426-.5 3 1.5-2 3 0v4a3.65 3.65 0 0 1 1.5-1q.844 3.313 4 4.5l-1 1a149 149 0 0 0 12 14l-1 1q1.955 4.45 6 7-3.567 1.461 1 2-1.268 2.337 2 3l-1 1q1.42 3.015 5 6v3a21.3 21.3 0 0 0 5 4q-4 1 0 2v3q2.701.476 1 2 2.701.476 1 2 3.482 3.237 6 9l-1 1 3 1q-3.567 1.461 1 2-3.567 1.461 1 2v3q2.701.476 1 2a4.93 4.93 0 0 0 3 .5" style="opacity:1"/><path fill="#9bb550" d="M600.5 252.5h-166q38.536-9.668 79-12 44.374 2.728 87 12" style="opacity:1"/><path fill="#95b450" d="M434.5 252.5h166a2242 2242 0 0 0 140 14q10.502 3.898 22 7 10.55 3.768 18 12 34.245 1.994 68 0a603 603 0 0 1 15.5 23q21.8 37.604 35.5 79a2256 2256 0 0 1-95 1v-14h-12q.137-10.31-3-20a3.65 3.65 0 0 1-1.5-1 127 127 0 0 0-3-18q-1.806-2.038-4.5-3-3.486-12.229-12-21.5l-7-1q-8.943-10.431-22-15a161 161 0 0 0-31-7 29467 29467 0 0 0-58-3 11902 11902 0 0 0-124-17 211 211 0 0 0-44 2 1723 1723 0 0 1-94 15 5001 5001 0 0 1-68 3q-23.604 1.317-45 11a87.8 87.8 0 0 0-14 11l-7 1q-7.723 10.196-11 22.5h-5a137 137 0 0 0-3 21h-3a554 554 0 0 0-1 20h-13v14q-47.756.498-95-1a260 260 0 0 1 9.5-27q16.9-39.816 41.5-75 33.755 1.994 68 0a82 82 0 0 1 18-12 5436 5436 0 0 0 24-7 1371 1371 0 0 0 150-14" style="opacity:1"/><path fill="#212122" d="M334.5 90.5q-95.489 41.133-164.5 115-1 1.5 0 3a51 51 0 0 0 8-9l1 3a477 477 0 0 1 26.5-25.5l-2-1q.343-.598 1-.5a4.93 4.93 0 0 1 3 .5q-1.794.981 0 1.5a25.5 25.5 0 0 0 4.5-4l1 1q2.23-1.13.5-2.5a11.5 11.5 0 0 0 4.5-3.5l1 1q1.063-1.321 2.5-2 .513 1.257 2 1a4.93 4.93 0 0 1-.5 3l-3-1a15.4 15.4 0 0 0-3 6l-3-1q-2.823 4.684-7 8l-1-1a67.4 67.4 0 0 0-8.5 10.5q-2.332 2.469-5 1l-14 14 2 1-13 11 2 1-9 7 2 1-7 5 1 1a22.8 22.8 0 0 1-5 4l1 1a22.8 22.8 0 0 1-5 4l1 1-10 11q1.268 2.337-2 3l1 1-4 3 1 1-5 5 1 1q-3.268.663-2 3l-4 2 2 1-4 2q1.268 2.337-2 3l1 3-4 2 1 3-4 2q.984 3.495-3 5v3q-2.522 5.374-6 8 1.818 1.66-1 1.5-1.083-.626-1.5-2-23.614 44.45-37.5 92.5l2 1q-2 1.5 0 3-3.138 1.43-1 4-1.866.684-2.5-1.5-20.282 76.82-14 156 .297-2.822 1.5-5a59.7 59.7 0 0 1-1 13.5l.5 2.5 1-4a24.1 24.1 0 0 1-.5 11q.934 3.471 1-1 1.762-.329 3 1-2.474 4.272 1 7.5a7.9 7.9 0 0 0-1 3.5 130 130 0 0 0 3 10 10.3 10.3 0 0 0-1 3q1.19 3.842 3 8a9.1 9.1 0 0 0-1 5 9.1 9.1 0 0 1-1 5 874 874 0 0 0 9 34.5 11 11 0 0 1-1 2.5q-53.016-185.614 36.5-357a505.5 505.5 0 0 1 57.5-82.5q-3.367.293-5.5 3.5-63.943 76.865-93.5 173 35.933-131.676 137-222.5 60.488-53.155 136-82.5" style="opacity:1"/><path fill="#9bb450" d="M188.5 266.5h96a5436 5436 0 0 1-24 7 82 82 0 0 0-18 12q-34.245 1.994-68 0a101.4 101.4 0 0 1 14-19m552 0h94a101.4 101.4 0 0 1 14 19q-33.755 1.994-68 0-7.45-8.232-18-12-11.498-3.102-22-7" style="opacity:1"/><path fill="#95ae4b" d="M796.5 374.5v23q53.61-.49 107 1a382 382 0 0 1 10 43h-109v-21h-12v-18h-6v-19h-3q.25-11.011-.5-22-2.101-2.538-5.5-2a70.3 70.3 0 0 0-3-20l-4-2q-3.426-11.086-10.5-20-4.59-6.883-12.5-8 .442-3.353-1-6-18.735-3.669-38-7.5a1792 1792 0 0 1-84-9l-28-1a761 761 0 0 0-80-10.5q-2.317.016-4 1-3.181-.262-6 1-6.722-1.722-14-.5a1140 1140 0 0 0-54 9 523 523 0 0 0-64 6 7738 7738 0 0 0-62 5q-14.099 1.652-27 6.5h-8q-1.426 2.128-1 5-3.024 2.27-7 2.5-11.955 10.952-16.5 26.5l-4 2a58.9 58.9 0 0 0-3.5 20h-5a2789 2789 0 0 0-3 43h-6v18h-13v21h-109a382 382 0 0 1 10-43q53.39-1.49 107-1v-23h5q.32-10.011 1-20h3a137 137 0 0 1 3-21h5q3.277-12.304 11-22.5l7-1a87.8 87.8 0 0 1 14-11q21.396-9.683 45-11a5001 5001 0 0 0 68-3 1723 1723 0 0 0 94-15 211 211 0 0 1 44-2 11902 11902 0 0 1 124 17q29.003 1.471 58 3a161 161 0 0 1 31 7q13.057 4.569 22 15l7 1q8.514 9.271 12 21.5 2.694.962 4.5 3a127 127 0 0 1 3 18q.621.686 1.5 1 3.137 9.69 3 20z" style="opacity:1"/><path fill="#92b050" d="M512.5 276.5q1.683-.984 4-1a761 761 0 0 1 80 10.5l28 1q41.893 5.49 84 9 19.265 3.831 38 7.5a908 908 0 0 1-143-11.5 2962 2962 0 0 1-91-15.5" style="opacity:1"/><path fill="#90b04e" d="M506.5 277.5a1436 1436 0 0 1-132 22.5 1112 1112 0 0 1-89 3.5q12.901-4.848 27-6.5a7738 7738 0 0 1 62-5 523 523 0 0 1 64-6 1140 1140 0 0 1 54-9q7.278-1.222 14 .5" style="opacity:1"/><path fill="#f2f2f1" d="M512.5 276.5a2962 2962 0 0 0 91 15.5 908 908 0 0 0 143 11.5v95h-10q-2.31-25.692-19-45 .486-10.281-1-20-102.594-6.653-204-26a1725 1725 0 0 1-110 19.5 1109 1109 0 0 1-95 6.5q-1.487 10.22-1 21a38.5 38.5 0 0 0-5.5 5q-10.736 17.45-13.5 38a25.9 25.9 0 0 1-10 1v-95h8q44.567.033 89-3.5a1436 1436 0 0 0 132-22.5q2.819-1.262 6-1" style="opacity:1"/><path fill="#333334" d="M229.5 168.5a150 150 0 0 1-19 16.5q-80.176 73.442-118 175.5a115 115 0 0 0-5 11q-5.123 10.86-8 23 .064 1.374 1 2 0 1-1 1-.925.166-1.5 1l-4 16q-2.507 1.502-3.5 3.5l2 1-3 3q-1.539 5.106 0 11.5-2.146.873-4 2.5-1.42 4.857 0 9.5a4.46 4.46 0 0 1-2 1.5 35 35 0 0 1 1 4.5 92 92 0 0 1-3 4.5q3.792 1.974 0 3.5 2.063 2.495-1 4 1.185 3.548-1 7a18 18 0 0 0 2 3.5q-4.715 4.623-1 10-1.866.684-2.5-1.5-.864 2.816.5 5.5-.588 1.517-2 1.5 2.404 4.266 1.5 9l-1-4a1228 1228 0 0 0-2 21 975 975 0 0 1-.5 31.5 67 67 0 0 0 2 9q-1.59 8.91 0 18 2.785 3.803 1 8a27 27 0 0 0 2 4.5 109 109 0 0 0 0 9.5q2.86 2.68 1 6 .39 1.891 2 3l-2 1 3 5q2 5 0 10 2.27 2.159 1 4.5 2.655 1.98 1 4.5 2.07 1.986 1 4l2 3v5q2.84 1.619 1 4l2 2q11.452 47.33 38 95 16.376 31.134 40 61l-1 1a562 562 0 0 0 9 8.5q11.241 16.66 27 29.5l-1 1a329 329 0 0 1 22 21 4.93 4.93 0 0 0 3 .5q1.899.885 4 1.5a313 313 0 0 0 32 27 4.93 4.93 0 0 0 3 .5 4.93 4.93 0 0 0 .5 3l1-1q1.863 3.061 5.5 3.5l-1 1a35.2 35.2 0 0 1 10 5l-1 1 4 1q33.27 21.925 74 38.5a15 15 0 0 1 3.5 3q3.136-1.5 5 2 3.162-1.668 4.5 2-1.75 5.75-3.5 0-3.555.942-7 1-1.716-3.626-5-2-1.716-3.626-5-2-.939-3.736-2.5 0-.253-1.346-1-3-1.83-1.816-3.5 0l-3-3a4.46 4.46 0 0 1-1.5 2q-.253-1.346-1-3l-6-3q-2.014 2.103-2.5-1-1.524 1.701-2-1-1.524 1.701-2-1-1.524 1.701-2-1-1.524 1.701-2-1-1.524 1.701-2-1h-3q-3.096-2.95-8-6-1.524 1.701-2-1h-3l-11-8-1 1-4-4q-.634 2.184-2.5 1.5 1.17-1.61-.5-3.5l-1 1-10-8-1 1a148 148 0 0 1-10-9q-5.39-1.188-10-6-1.436 3.314-3.5-.5 1.817-1.34 0-2.5-1.426 1.238-3 .5.555-2.415-2-4.5-45.86-37.667-86.5-89a111 111 0 0 1-9.5-14.5l1-1a19 19 0 0 0-5-3l2-1-4-2q1.268-2.337-2-3l1-3q-3.268-.663-2-3-3.984-1.505-3-5-3.984-1.505-3-5l-4-2v-5l-4-2v-5q-2.701-.476-1-2l-2-1v-3q-1.423-.926-2.5.5-1.67-1.89-.5-3.5-2.7-.476-1-2-2.7-.476-1-2-2.7-.476-1-2-3.344-2.848-5-8.5a4.94 4.94 0 0 1 1-2.5l-3-3q1.552-2.26-.5-4.5-4.665 1.76-.5-1.5l-3-3q2-2.76-.5-1.5-.925-1.423.5-2.5-2.7-.476-1-2-3.157-2.003-2-5-3.103-.486-1-2.5a59 59 0 0 1-5-9q1.827-1.955-1-3-.21-2.105 0-4.5-3.103-.486-1-2.5a4.46 4.46 0 0 0-2-1.5v-5q-2.972-.908-1-3a92 92 0 0 1-3-4.5 26 26 0 0 0 0-5.5 92 92 0 0 1-3-4.5 43 43 0 0 1 0-6.5q-3.283-1.016-1-3.5l-2-2a43 43 0 0 1 0-6.5q-3.138-1.43-1-4-3.38-1.581-1-4.5-3.205-2.028-1-5-.705-1.444-2 0a9.1 9.1 0 0 1 1-5q-1.81-4.158-3-8a10.3 10.3 0 0 1 1-3 130 130 0 0 1-3-10 7.9 7.9 0 0 1 1-3.5q-3.474-3.228-1-7.5-1.238-1.329-3-1-.066 4.471-1 1a24.1 24.1 0 0 0 .5-11l-1 4-.5-2.5a59.7 59.7 0 0 0 1-13.5 82.6 82.6 0 0 1 2-15.5 92 92 0 0 0-1.5-6.5l-1 1-.5-11q-.15-10.781 2-19a92 92 0 0 0-1-11.5q2.386-1.409 2-6a40.5 40.5 0 0 1-.5-8.5q1.697 1.656 2.5-1a18.1 18.1 0 0 1-2-8h3l-2-8q6.471-.408 1.5-4a4.93 4.93 0 0 1-.5-3q2.77.417 4-2-6.133-3.239.5-5 .668-3.141-2.5-4.5 4.42-.168 4-4.5a4.93 4.93 0 0 1-3-.5q2.584-.784 4-3-.608-1.418-2-2 4.683-2.131 1-5 4.975-1.877 1-5 3.935-.865 2-4 2.752-1.392 1-3.5 2.456-1.807 1-4a115 115 0 0 1 3-6.5q-1.84-2.381 1-4a3.65 3.65 0 0 1-1-1.5l3-2.5-2-1 3-5q-1.972-2.092 1-3-1.752-2.108 1-3.5-1.752-2.108 1-3.5v-4q2.972-.908 1-3 4.446-1.26 1-3 4.446-1.26 1-3l5-5q-2-1 0-2l-2-1q3.547-1.518 4-4l-2-1 4-4-2-1q5.205-2.865 3-7a18.9 18.9 0 0 0 5-3q-3.587-1.964 0-3-6.11-2.31-1-4l-1-1 4-5q-3.587-1.964 0-3-1.7-1.524 1-2v-3q1.424-.926 2.5.5a157 157 0 0 1 5.5-10.5q-.834-.574-1-1.5 2.818.16 1-1.5 3.478-2.626 6-8v-3q3.984-1.505 3-5l4-2-1-3 4-2-1-3q3.268-.663 2-3l4-2-2-1 4-2q-1.268-2.337 2-3l-1-1 5-5-1-1 4-3-1-1q3.268-.663 2-3l10-11-1-1a22.8 22.8 0 0 0 5-4l-1-1a22.8 22.8 0 0 0 5-4l-1-1 7-5-2-1 9-7-2-1 13-11-2-1 14-14q2.668 1.469 5-1a67.4 67.4 0 0 1 8.5-10.5l1 1q4.177-3.316 7-8l3 1a15.4 15.4 0 0 1 3-6l3 1a4.93 4.93 0 0 0 .5-3 81 81 0 0 0 2.5-3 14.7 14.7 0 0 0 3.5 3" style="opacity:1"/><path fill="#839c45" d="M716.5 333.5v3q-8.48-1.43-17 .5a32 32 0 0 1-5 4.5 3.65 3.65 0 0 0 1 1.5q-2.495.398-4.5-1.5-.627 3.432 2 6l6.5 6.5q-6.396-1.584-12-5.5l-1 .5a7.3 7.3 0 0 0 3 2l-2 1q4.446 1.26 1 3a22.8 22.8 0 0 1 5 4 129 129 0 0 1-10.5-4.5 16.2 16.2 0 0 0-3.5 1.5q3.34 1.412 6 3.5h-14a1540 1540 0 0 0-37.5-5q-4.725-.21-8.5 2a1165 1165 0 0 1-114.5-17 981 981 0 0 1-98.5 17q-.166-.926-1-1.5-14.312-.317-28.5-.5l-3.5.5 2 1a150.5 150.5 0 0 1-38 2 34 34 0 0 1 6-3 9.5 9.5 0 0 1-2.5-1.5 245 245 0 0 1-8.5 2q-5.25-2.257 1-4.5-3.587-1.036 0-3l-1-.5q-5.325 3.178-11 4.5 3.521-4.517 7-9l-.5-1.5q-2.376 2.042-5.5 2 .675-5.586-5-6.5-7.97-2.417-16-.5v-3q47.63-1.208 95-6.5a1725 1725 0 0 0 110-19.5q101.406 19.347 204 26" style="opacity:1"/><path fill="#8eae4a" d="M276.5 308.5v9q-3.352 1.092-5.5 4a70.3 70.3 0 0 1-9.5 13 80.8 80.8 0 0 0-5.5 19q-1.517 1.255-3.5 1a963 963 0 0 0-5 52h-3v18h-3a2344 2344 0 0 1-2 33h-6a397 397 0 0 0-2 28h-13v15h-115v-9q.927-25.455 6-50h109v-21h13v-18h6a2789 2789 0 0 1 3-43h5a58.9 58.9 0 0 1 3.5-20l4-2q4.545-15.548 16.5-26.5 3.976-.23 7-2.5m471 1q7.91 1.117 12.5 8 7.074 8.914 10.5 20l4 2a70.3 70.3 0 0 1 3 20q3.399-.538 5.5 2 .75 10.989.5 22h3v19h6v18h12v21h109q5.073 24.545 6 50v9h-115v-15h-12v-16h-3v-12h-6a2795 2795 0 0 1-4-51h-4a797 797 0 0 0-5-52h-3q-2.466-22.678-20-37z" style="opacity:1"/><path fill="#8ea74a" d="M276.5 317.5v8a4345 4345 0 0 0-11 14 481 481 0 0 1-7.5 23 1300 1300 0 0 0-2.5 40h-3a2669 2669 0 0 0-1 39h-4v16h-3v20h-3v15h-4v19h-6v14h-13v17h-115q-1.966-25.692 0-51v9h115v-15h13a397 397 0 0 1 2-28h6a2344 2344 0 0 0 2-33h3v-18h3a963 963 0 0 1 5-52q1.983.255 3.5-1a80.8 80.8 0 0 1 5.5-19 70.3 70.3 0 0 0 9.5-13q2.148-2.908 5.5-4m471 0q17.534 14.322 20 37h3a797 797 0 0 1 5 52h4a2795 2795 0 0 0 4 51h6v12h3v16h12v15h115v-9q1.966 25.308 0 51h-115v-17h-12v-14h-6v-19h-5a618 618 0 0 1-2-35h-4v-16h-3a1339 1339 0 0 0-2-39h-3a723 723 0 0 0-2-43h-3a56.9 56.9 0 0 0-4.5-20 3597 3597 0 0 0-10.5-13z" style="opacity:1"/><path fill="#88a74a" d="M276.5 325.5v8q-2.9 1.712-4.5 5a130 130 0 0 1-7 17 85.6 85.6 0 0 1-4 22 624 624 0 0 0-2.5 47h-3a388 388 0 0 1-3 45h-3a1929 1929 0 0 1-4 45h-4q.86 7.722-2 14.5 1.45 6.601 1 13.5h-6a35.3 35.3 0 0 1-2 14 44.7 44.7 0 0 1 1 10h-13q-.343 6.772 2 13h-115a387 387 0 0 1-4-37h115v-17h13v-14h6v-19h4v-15h3v-20h3v-16h4q.357-19.505 1-39h3a1300 1300 0 0 1 2.5-40 481 481 0 0 0 7.5-23q5.513-7.046 11-14m471 1a3597 3597 0 0 1 10.5 13 56.9 56.9 0 0 1 4.5 20h3a723 723 0 0 1 2 43h3a1339 1339 0 0 1 2 39h3v16h4a618 618 0 0 0 2 35h5v19h6v14h12v17h115a387 387 0 0 1-4 37h-113v-13a85 85 0 0 1-13-.5 23.3 23.3 0 0 0 1-6.5 81.8 81.8 0 0 1-2-17h-5l-2-28h-4a1929 1929 0 0 1-4-45h-3a1367 1367 0 0 0-3-45h-3a514 514 0 0 0-3-50 3.65 3.65 0 0 1-1.5-1 241 241 0 0 0-1.5-16 83.7 83.7 0 0 0-10.5-24 25 25 0 0 1-.5-7" style="opacity:1"/><path fill="#88a24a" d="M276.5 333.5v11q-3.112 5.967-4 13-.37 1.82-2 2-2.317 1.095-2.5 4a578 578 0 0 0-.5 34h-4v31h-4v33h-4v27h-4v30h-6a181 181 0 0 1 1 24h-6q.45-6.899-1-13.5 2.86-6.778 2-14.5h4a1929 1929 0 0 0 4-45h3a388 388 0 0 0 3-45h3a624 624 0 0 1 2.5-47 85.6 85.6 0 0 0 4-22 130 130 0 0 0 7-17q1.6-3.288 4.5-5" style="opacity:1"/><path fill="#8ba450" d="M746.5 303.5q1.442 2.647 1 6v17q-.245 3.535.5 7a83.7 83.7 0 0 1 10.5 24 241 241 0 0 1 1.5 16q.621.686 1.5 1a514 514 0 0 1 3 50h3a1367 1367 0 0 1 3 45h3a1929 1929 0 0 0 4 45h4l2 28h-7q.999-11.974 1-24h-5v-30h-5v-27h-4v-33h-4v-31h-4a201 201 0 0 0 0-38h-3q-2.885-5.909-4.5-13a50.5 50.5 0 0 0-.5 10v129a343 343 0 0 1-1 37z" style="opacity:1"/><path fill="#19191a" d="M66.5 658.5a20.1 20.1 0 0 0 1.5 6q1.38.645 2.5 1l-1 2 2 1v5l2 1v5q.519 1.794 1.5 0a357 357 0 0 0 5.5 14 4.46 4.46 0 0 1-2 1.5q5.88 11.976 9.5 24.5a44.8 44.8 0 0 0-5.5-9.5A149.5 149.5 0 0 0 72 684.5a2335 2335 0 0 1-18.5-65q-16.493-88.7-2.5-178 3.657-23.561 10.5-46 29.557-96.135 93.5-173 2.133-3.207 5.5-3.5a505.5 505.5 0 0 0-57.5 82.5q-89.516 171.386-36.5 357" style="opacity:1"/><path fill="#7d9643" d="M716.5 336.5v92q-2.146-.572-2.5-3l-1-10a85 85 0 0 0-.5 13h-3q-.01-23.918-2 0a207 207 0 0 1-3.5-20l-1 20a311 311 0 0 0-3-20l-1 13a88 88 0 0 0-4-18q.279 5.976 0 12-1.145-9.181-5.5-17a381 381 0 0 0-1-39h-3q-2.66-2.088-6-3.5a16.2 16.2 0 0 1 3.5-1.5 129 129 0 0 0 10.5 4.5 22.8 22.8 0 0 0-5-4q3.446-1.74-1-3l2-1a7.3 7.3 0 0 1-3-2l1-.5q5.604 3.916 12 5.5l-6.5-6.5q-2.627-2.568-2-6 2.005 1.898 4.5 1.5a3.65 3.65 0 0 1-1-1.5 32 32 0 0 0 5-4.5q8.52-1.93 17-.5" style="opacity:1"/><path fill="#7f9746" d="M307.5 333.5v3q8.03-1.917 16 .5 5.675.914 5 6.5 3.124.042 5.5-2l.5 1.5a5042 5042 0 0 1-7 9q5.675-1.322 11-4.5l1 .5q-3.587 1.964 0 3-6.25 2.243-1 4.5a245 245 0 0 0 8.5-2 9.5 9.5 0 0 0 2.5 1.5 34 34 0 0 0-6 3q19.13 1.411 38-2l-2-1 3.5-.5q14.188.183 28.5.5.834.574 1 1.5a763 763 0 0 1-77 3 381 381 0 0 0-1 39q-3.744 6.964-5.5 15a73 73 0 0 1 0-11 133.5 133.5 0 0 0-5 26 57.9 57.9 0 0 1 .5-17.5l-.5-2.5a485 485 0 0 0-3.5 20 117.5 117.5 0 0 1-.5-22 499 499 0 0 1-3.5 22q-1.99-23.918-2 0h-4q-1.747 65.937-2.5 0-.75 28.495-.5 57v42q-1.485-9.217-1-19v-154q-.487-10.78 1-21" style="opacity:1"/><path fill="#f2f2f2" d="M625.5 356.5q22.672 3.1 46 3h17v86h-353v-86a763 763 0 0 0 77-3 981 981 0 0 0 98.5-17 1165 1165 0 0 0 114.5 17" style="opacity:1"/><path fill="#82a143" d="M276.5 344.5v10a617 617 0 0 1-4 22.5q2.431 6.786-1 13a76.3 76.3 0 0 1 1 16.5h-3a585 585 0 0 1-3 51h-3a2477 2477 0 0 0-2 43h-3l-2 42h-3a111.4 111.4 0 0 0 0 24h-3a40.3 40.3 0 0 1 0 15.5 95 95 0 0 0 2 9.5q-1.783 1.393-4 1a49.7 49.7 0 0 0 2 11.5q-.608 1.418-2 2a38.8 38.8 0 0 1 2 8.5 18.5 18.5 0 0 0-6 .5 70.3 70.3 0 0 0 4 11l-4 1a61 61 0 0 1 4 11.5h-14a36.4 36.4 0 0 0 4 11q-56.491 1.5-113 1a166 166 0 0 1-7-21q57.002.25 114-.5-4.195-6.52-4-14.5h13a38.8 38.8 0 0 0-3-12l7-2a112 112 0 0 1-3-13.5 8.4 8.4 0 0 1 4-.5 300 300 0 0 1-1-13h4l-2-14a23 23 0 0 1 2-5 45.8 45.8 0 0 1-1-12h3v-17h3a1037 1037 0 0 0 1-33h3v-15h3q.3-18.007 1-36h3q.357-19.505 1-39h3a86.8 86.8 0 0 0-1-18q2.89-12.198 2-25 1.63-.18 2-2 .888-7.033 4-13" style="opacity:1"/><path fill="#ebeced" d="M717.5 353.5q16.69 19.308 19 45h10v124a218 218 0 0 1-1 20l-3 24a731 731 0 0 1-6 24h-4a1524 1524 0 0 0 4-25h-4a845 845 0 0 1 0-55h-4v-33h-3a712 712 0 0 0-4.5-78q-1.517-1.255-3.5-1z" style="opacity:1"/><path fill="#829b43" d="M276.5 354.5v131h-4a188.6 188.6 0 0 1-3 35 30 30 0 0 0 1 7q-1.237 1.329-3 1a1197 1197 0 0 0-3 54 703 703 0 0 0 3 21q-3.414 5.166 0 10.5-1.142 5.916 2 11.5l-3 2q3.58 7.395 3.5 15a76 76 0 0 1 3.5 7.5l-4 1a18.2 18.2 0 0 1 2 5.5 8.4 8.4 0 0 0-4 .5 95 95 0 0 0 5 10l-5 1a270 270 0 0 1 6 12.5l-6 2 5 10a65 65 0 0 1-16 1 76.5 76.5 0 0 1 4 11q-55.755-.498-111 1-14.829-26.17-24-55 56.509.5 113-1a36.4 36.4 0 0 1-4-11h14a61 61 0 0 0-4-11.5l4-1a70.3 70.3 0 0 1-4-11 18.5 18.5 0 0 1 6-.5 38.8 38.8 0 0 0-2-8.5q1.392-.582 2-2a49.7 49.7 0 0 1-2-11.5q2.217.393 4-1a95 95 0 0 1-2-9.5 40.3 40.3 0 0 0 0-15.5h3a111.4 111.4 0 0 1 0-24h3l2-42h3q.813-21.51 2-43h3a585 585 0 0 0 3-51h3q.395-8.325-1-16.5 3.431-6.214 1-13a617 617 0 0 0 4-22.5" style="opacity:1"/><path fill="#ebeceb" d="M277.5 303.5v95q5.098.48 10-1 2.764-20.55 13.5-38a38.5 38.5 0 0 1 5.5-5v43q-2.42.666-3.5 3a502 502 0 0 0-5.5 77q-2.966 15.924-2 33h-4a212 212 0 0 0 1 24.5q-3.765 14.767 0 29.5l-5 2a236 236 0 0 0 4 23.5q-2.337.315-4 1.5a463 463 0 0 1-7-26 774 774 0 0 1-3-26 1350 1350 0 0 1-1-54v-177q-.426-2.872 1-5" style="opacity:1"/><path fill="#8ea156" d="M671.5 359.5q-23.328.1-46-3 3.775-2.21 8.5-2a1540 1540 0 0 1 37.5 5" style="opacity:1"/><path fill="#39393a" d="M927.5 349.5q3.066.797 5 3.5l-2 1 4 4-2 1a16.7 16.7 0 0 1 4 4q-1.198 2.623 2 4a3.65 3.65 0 0 0-1 1.5q4.794 3.316 4 8.5l3 5-1 1a48.6 48.6 0 0 1 4 7q-1.605 4.296 3 8 .874 2.428 0 5.5 1.176 2.294 3 5a3.65 3.65 0 0 1-1 1.5q3.173 1.756 2 4.5 2.457 1.807 1 4 2.143 6.63 4 12.5l-2 1a32 32 0 0 0 5 6l-2 2q.904 3.107 4 3.5a2.43 2.43 0 0 1 2 .5 6.3 6.3 0 0 0-1 3 170 170 0 0 0 3 10q1.034 6.549 0 13.5-3.803 4.572 0 9.5-2.168 5.926 1 11.5a2347 2347 0 0 0 0 32.5l.5 3.5 1-5 .5 6a239 239 0 0 1-3 18.5q.562 3.743 1 7.5-1.499 9.005-3 18 2.057 4.734-1 9 2.156 3.875-1 7 .73 1.419 1 3-1.509 4.99-3 10 2.047 3.376-1 6 2.204 2.972-1 5 2.204 2.972-1 5a186 186 0 0 1 2 3q2.465 3.312-1 5.5 2.228 2.634-1 3.5-2.895.406-4 3 .093-5.092 0-10.5l2-1q-1.761-3.773 1-7.5a57 57 0 0 0 0-6.5l2-1q-3.867-3.235 0-3.5-.165-2.397-1-5l2-1q-.905-2.928 1-6a56 56 0 0 0-1-6.5q2.97-5.329 2-11a9.3 9.3 0 0 0-2-2.5q1.143-.616 3-.5a231 231 0 0 1-1-10.5q2.631-8.565.5-17-1.527 1.81-1.5-1 2.511-2.774 3-6.5a29.4 29.4 0 0 1-3-10 23.95 23.95 0 0 0 2-10 182 182 0 0 0-3-12.5 21.5 21.5 0 0 1 1-4.5q-3.173-4.955-4-10.5-4.452-65.78-28-127a103 103 0 0 0-3-11" style="opacity:1"/><path fill="#829b43" d="M747.5 356.5a228 228 0 0 0 3 22q1.119 13.918 0 28h3a859 859 0 0 1 3 51h3a490.5 490.5 0 0 0 7 63q.768 10.302 0 21 1.783 1.393 4 1-.406 11.516-1 23l4 2a448 448 0 0 0-2 10.5l2 3a32.2 32.2 0 0 0-2 11.5q2.217-.393 4 1-1.41 5.812-3 11.5a4.46 4.46 0 0 1 2 1.5 35.2 35.2 0 0 0-2 8h6a79 79 0 0 1-3 12 4.93 4.93 0 0 1 3 .5l-4 11q6.982.749 14 .5l-2 12h111q-9.171 28.83-24 55-55.245-1.498-111-1a76.5 76.5 0 0 1 4-11h-16a13.1 13.1 0 0 1-7-1l5-10a4.46 4.46 0 0 0-2-1.5 70 70 0 0 0 5-10 10.3 10.3 0 0 1-4-1.5 84 84 0 0 0 3-6.5 2.43 2.43 0 0 0-2-.5 112 112 0 0 0 5-11l-3-2a92 92 0 0 1 4-10 11.5 11.5 0 0 1-1-2.5q1.354-4.315 3-8.5-3.198-6.557 1-13-1.594-4.908 1-9.5a4.93 4.93 0 0 0-3-.5l3-12q-1.276-6.837 1-13.5a4.46 4.46 0 0 1-2-1.5l2-11-3-2q2.666-8.5 0-16.5.12-2.84 1-5.5l-2-2a46.8 46.8 0 0 0 1-13h-3a547 547 0 0 0-3-43h-3z" style="opacity:1"/><path fill="#82a143" d="M752.5 359.5a277.6 277.6 0 0 1 1 43h3q3.506 45.045 8 90h3a92 92 0 0 0 2 23.5 227 227 0 0 0-1 9.5h4a92.7 92.7 0 0 0-1 17q2.217-.393 4 1a581 581 0 0 1-1 30q2.217-.393 4 1l-2 11q1.783 1.393 4 1a348 348 0 0 1-2 15 9.86 9.86 0 0 1 6 1 148 148 0 0 0-3 11.5q6.481.749 13 .5a58.8 58.8 0 0 1-2 15h112a166 166 0 0 1-7 21h-111l2-12a98.4 98.4 0 0 1-14-.5l4-11a4.93 4.93 0 0 0-3-.5 79 79 0 0 0 3-12h-6a35.2 35.2 0 0 1 2-8 4.46 4.46 0 0 0-2-1.5q1.59-5.688 3-11.5-1.783-1.393-4-1a32.2 32.2 0 0 1 2-11.5l-2-3a448 448 0 0 1 2-10.5l-4-2q.594-11.484 1-23-2.217.393-4-1 .768-10.698 0-21a490.5 490.5 0 0 1-7-63h-3a859 859 0 0 0-3-51h-3q1.119-14.082 0-28a228 228 0 0 1-3-22q-.247-5.025.5-10 1.615 7.091 4.5 13" style="opacity:1"/><path fill="#88a143" d="M270.5 359.5q.89 12.802-2 25a86.8 86.8 0 0 1 1 18h-3a2669 2669 0 0 0-1 39h-3q-.7 17.993-1 36h-3v15h-3a1037 1037 0 0 1-1 33h-3v17h-3a45.8 45.8 0 0 0 1 12 23 23 0 0 0-2 5l2 14h-4q.359 6.514 1 13a8.4 8.4 0 0 0-4 .5 112 112 0 0 0 3 13.5l-7 2a38.8 38.8 0 0 1 3 12h-13q-.195 7.98 4 14.5-56.998.75-114 .5a5.73 5.73 0 0 0-1-3 179 179 0 0 1-7-33 3720 3720 0 0 1 122-1l-3-22a43.1 43.1 0 0 1 13-1 3316 3316 0 0 1-2-27h6a181 181 0 0 0-1-24h6v-30h4v-27h4v-33h4v-31h4q-.25-17.008.5-34 .183-2.905 2.5-4m482 0h3a201 201 0 0 1 0 38h4v31h4v33h4v27h5v30h5a289 289 0 0 1-1 24h7a172 172 0 0 0-2 27h12a150 150 0 0 1-3 23q61.255-.498 122 1a179 179 0 0 1-7 33 5.73 5.73 0 0 0-1 3h-112a58.8 58.8 0 0 0 2-15 85 85 0 0 1-13-.5 148 148 0 0 1 3-11.5 9.86 9.86 0 0 0-6-1 348 348 0 0 0 2-15q-2.217.393-4-1l2-11q-1.783-1.393-4-1a581 581 0 0 0 1-30q-1.783-1.393-4-1a92.7 92.7 0 0 1 1-17h-4q.399-4.75 1-9.5a92 92 0 0 1-2-23.5h-3a4113 4113 0 0 1-8-90h-3q1.17-21.488-1-43" style="opacity:1"/><path fill="#555" d="M87.5 371.5a533 533 0 0 0-7 25q-.936-.626-1-2 2.877-12.14 8-23" style="opacity:1"/><path fill="#1f1f1f" d="M92.5 360.5q-45.993 130.914-14 266h39q.915 1.336 1 3a166 166 0 0 0 7 21q9.171 28.83 24 55a54.3 54.3 0 0 0 4 9q3.042 5.103 6 10a360.6 360.6 0 0 0 42 58 803 803 0 0 1 4 5q23.664 28.168 53 50a169 169 0 0 0 20 15q31.714 22.862 68 38 27.806 13.438 58 21 107.019 27.96 214 0a499 499 0 0 0 58-21q36.375-15.177 68-38a169 169 0 0 0 20-15q29.337-21.832 53-50a803 803 0 0 1 4-5 360.6 360.6 0 0 0 42-58q2.958-4.897 6-10a54.3 54.3 0 0 0 4-9q14.829-26.17 24-55a166 166 0 0 0 7-21 5.73 5.73 0 0 1 1-3h39q31.993-135.086-14-266 23.548 61.22 28 127 8.46 187.141-113 328-164.033 172.944-402 143.5-72.519-11.59-138-44.5-70.735-38.21-126-97-82.056-92.112-107-214 .257-1.487-1-2-18.617-102.894 8-204 1 0 1-1a533 533 0 0 1 7-25 115 115 0 0 1 5-11" style="opacity:1"/><path fill="#95ae50" d="M796.5 374.5h8v14q47.757.498 95-1 2.557 5.158 4 11a2891 2891 0 0 0-107-1zm-570 0v23q-53.61-.49-107 1 1.444-5.842 4-11 47.244 1.498 95 1v-14z" style="opacity:1"/><path fill="#e6e6e7" d="M306.5 397.5v111q-1.488 11.222-1 23h-3q-.151 8.785 1 17.5-3.51 11.207 0 22.5a7.3 7.3 0 0 1-2 3 194 194 0 0 0 4 17.5l-3 1a445 445 0 0 0 6 20 4.93 4.93 0 0 1-3 .5 108 108 0 0 0 5 17 4.93 4.93 0 0 0-3 .5 107 107 0 0 0 7 15.5q-1.783 1.393-4 1a310 310 0 0 1-11-21v-1q1.979-3.158-1-6a14.7 14.7 0 0 1 5-1.5 134 134 0 0 1-8-29.5q1.565-1.684 2-4a219 219 0 0 1-4-31q2.217.393 4-1a239 239 0 0 1-2-26 424 424 0 0 0 2-49 502 502 0 0 1 5.5-77q1.08-2.334 3.5-3" style="opacity:1"/><path fill="#7c953e" d="M334.5 398.5v19q-2.78 4.81-3.5 11a10.3 10.3 0 0 0-1.5-4q-3.915 8.014-3 17h-5v16h-4q.25 14.009-.5 28-2-56-4 0-1-32-2 0l-1-16q.183 8.64-2.5 16-.25-28.505.5-57 .753 65.937 2.5 0h4q.01-23.918 2 0a499 499 0 0 0 3.5-22 117.5 117.5 0 0 0 .5 22 485 485 0 0 1 3.5-20l.5 2.5a57.9 57.9 0 0 0-.5 17.5 133.5 133.5 0 0 1 5-26 73 73 0 0 0 0 11q1.756-8.036 5.5-15" style="opacity:1"/><path fill="#7c963d" d="M689.5 398.5q4.355 7.819 5.5 17 .279-6.024 0-12a88 88 0 0 1 4 18l1-13a311 311 0 0 1 3 20l1-20a207 207 0 0 0 3.5 20q1.99-23.918 2 0h3a85 85 0 0 1 .5-13l1 10q.354 2.428 2.5 3v57q-2.92-7.344-2-16h-3a129 129 0 0 1-.5 16 789 789 0 0 0-2-28q-1.744 23.979-2.5 0h-3v-16h-3q-1.717-17.886-2.5 0a365 365 0 0 1-1.5-17h-5q.105-5.887-2-11z" style="opacity:1"/><path fill="#e6e6e7" d="M717.5 398.5q1.983-.255 3.5 1a712 712 0 0 1 4.5 78v38h3a868 868 0 0 0-1 38h3a394 394 0 0 1-4 31 23 23 0 0 0 2 5 257 257 0 0 1-8 28.5 8.4 8.4 0 0 0 4 .5v8l-12 22a44 44 0 0 0-3-2 107 107 0 0 0 7-15.5 4.93 4.93 0 0 0-3-.5 108 108 0 0 0 5-17q-1.762.329-3-1a289 289 0 0 0 6-19.5l-3-1q2.385-8.925 4-18-1.392-.582-2-2 2.925-12.087 0-24 .997-8.223 1-16.5h-3a5589 5589 0 0 1-1-133" style="opacity:1"/><path fill="#282828" d="M104.5 308.5q.166.926 1 1.5a157 157 0 0 0-5.5 10.5q-1.076-1.426-2.5-.5v3q-2.7.476-1 2-3.587 1.036 0 3l-4 5 1 1q-5.11 1.69 1 4-3.587 1.036 0 3a18.9 18.9 0 0 1-5 3q2.205 4.135-3 7l2 1-4 4 2 1q-.453 2.482-4 4l2 1q-2 1 0 2l-5 5q3.446 1.74-1 3 3.446 1.74-1 3 1.972 2.092-1 3v4q-2.752 1.392-1 3.5-2.752 1.392-1 3.5-2.972.908-1 3l-3 5 2 1-3 2.5q.315.879 1 1.5-2.84 1.619-1 4a115 115 0 0 0-3 6.5q1.456 2.193-1 4 1.752 2.108-1 3.5 1.935 3.135-2 4 3.975 3.123-1 5 3.683 2.869-1 5 1.392.582 2 2-1.416 2.216-4 3a4.93 4.93 0 0 0 3 .5q.42 4.332-4 4.5 3.168 1.359 2.5 4.5-6.633 1.761-.5 5-1.23 2.417-4 2a4.93 4.93 0 0 0 .5 3q4.971 3.592-1.5 4l2 8h-3a18.1 18.1 0 0 0 2 8q-.803 2.656-2.5 1a40.5 40.5 0 0 0 .5 8.5q.386 4.591-2 6a92 92 0 0 1 1 11.5q-2.15 8.219-2 19l.5 11 1-1a92 92 0 0 1 1.5 6.5 82.6 82.6 0 0 0-2 15.5q-1.203 2.178-1.5 5-6.282-79.18 14-156 .634 2.184 2.5 1.5-2.138-2.57 1-4-2-1.5 0-3l-2-1q13.886-48.05 37.5-92.5.417 1.374 1.5 2" style="opacity:1"/><path fill="#778f3e" d="M689.5 413.5q2.105 5.113 2 11h5a365 365 0 0 0 1.5 17q.783-17.886 2.5 0h3v16h3q.756 23.979 2.5 0a789 789 0 0 1 2 28q.749-7.984.5-16h3q-.92 8.656 2 16a971 971 0 0 1-1 56 128 128 0 0 0-1 12 217 217 0 0 0-3 13q-1.875.116-2.5 2a20.6 20.6 0 0 1-2-6l-1 4q-2.185-4.299-1-9 .834 3.143 1.5.5a11.2 11.2 0 0 1-1-4.5h-5a65 65 0 0 1-.5-9l1 3a12.9 12.9 0 0 0 .5-5h-4l-2-28h-3a227 227 0 0 0-2-29q-1.5-35.986-1-72" style="opacity:1"/><path fill="#768f3e" d="M334.5 417.5v83q-1.239-7.224-1.5-15a488 488 0 0 0-1.5 29h-3a185.3 185.3 0 0 1-4 39q-2.927-.41-4.5 2l-1-2q-.114 6.478.5 13h-4q-.5 12-1 0h-3q-.684-8.341-3-16 .37-5.158-1-10v-55q2.683-7.36 2.5-16l1 16q1-32 2 0 2-56 4 0 .75-13.991.5-28h4v-16h5q-.915-8.986 3-17a10.3 10.3 0 0 1 1.5 4q.72-6.19 3.5-11" style="opacity:1"/><path fill="#505051" d="M79.5 397.5q-26.617 101.106-8 204-2-2.704-2.5-8-13.224-80.063.5-160-1.539-6.394 0-11.5l3-3-2-1q.993-1.998 3.5-3.5l4-16q.575-.834 1.5-1" style="opacity:1"/><path fill="#383839" d="M69.5 433.5q-13.724 79.937-.5 160 .5 5.296 2.5 8 1.257.513 1 2-.97 1.161-1 3l3 14q.073 4.899-5 4.5l4 3-3 1 4 3q-6 1 0 2-3.567 1.461 1 2-5.169 1.056 0 4l-2 1q2 1 0 2 4.488 1.66 2 5 4 1 0 2 3.547 1.518 4 4l-2 1a456 456 0 0 0 3 4q-3.446 1.74 1 3-3.446 1.74 1 3-3.446 1.74 1 3-3.446 1.74 1 3-3.587 1.037 0 3l-1 1a15.3 15.3 0 0 1 1.5 4.5q4.101 1.293.5 2.5l4 4-2 1a130 130 0 0 0 5 8q-.912 3.276 2 6l-1 1a41 41 0 0 1 4 6.5 3.65 3.65 0 0 1-1 1.5q10.334 15.705 17 33.5 3.226 3.408 4.5 8l1-1q6.124 14.724 17 29l1 4 1-1q.724 1.422.5 3h3a12.9 12.9 0 0 0 .5 5l1-1a23 23 0 0 0 2 5l1-1a23 23 0 0 0 2 5l1-2a20.6 20.6 0 0 0 2 6q3.442 4.455 7 9 1 2 2 0a14.6 14.6 0 0 0 4 6l1-1q1.131 4.949 5 8l1-1q2.943 7.059 10 13 11.049 8.054 18 20l1-1a29 29 0 0 0 9.5 8.5q-.834.575-1 1.5a4.93 4.93 0 0 1-3-.5 329 329 0 0 0-22-21l1-1q-15.759-12.84-27-29.5a562 562 0 0 1-9-8.5l1-1q-23.624-29.866-40-61-26.548-47.67-38-95l-2-2q1.84-2.381-1-4v-5l-2-3q1.07-2.014-1-4 1.655-2.52-1-4.5 1.27-2.341-1-4.5 2-5 0-10l-3-5 2-1q-1.61-1.109-2-3 1.86-3.32-1-6a109 109 0 0 1 0-9.5 27 27 0 0 1-2-4.5q1.785-4.197-1-8-1.59-9.09 0-18a67 67 0 0 1-2-9q.504-15.716.5-31.5.91-10.509 2-21l1 4q.904-4.734-1.5-9 1.412.017 2-1.5-1.364-2.684-.5-5.5.634 2.184 2.5 1.5-3.715-5.377 1-10a18 18 0 0 1-2-3.5q2.185-3.452 1-7 3.063-1.505 1-4 3.792-1.526 0-3.5a92 92 0 0 0 3-4.5 35 35 0 0 0-1-4.5 4.46 4.46 0 0 0 2-1.5q-1.42-4.643 0-9.5 1.854-1.627 4-2.5" style="opacity:1"/><path fill="#ecf3f2" d="M335.5 445.5h353v15h-353z" style="opacity:1"/><path fill="#ecedf2" d="M335.5 460.5h353v24h-353z" style="opacity:1"/><path fill="#313132" d="M968.5 470.5q1.63.18 2 2-2.228 5.334 1 10-2.168 6.791 1 13a93 93 0 0 0-1 10.5 127 127 0 0 1 2 18.5q-3.686 22.177 0 44.5l-.5 1.5q-2.564-3.869-3.5 1 2.479 4.62-1 8.5.65 5.676 0 11-.383 1.989-2 3 2.298 3.495-1 6a6.3 6.3 0 0 1 1 3 115 115 0 0 1-3 8q1.554 3.388 0 7-.276 2.064-2 2.5a186 186 0 0 0-2-3q3.204-2.028 1-5 3.204-2.028 1-5 3.047-2.624 1-6 1.491-5.01 3-10a10.3 10.3 0 0 0-1-3q3.156-3.125 1-7 3.057-4.266 1-9 1.501-8.995 3-18a231 231 0 0 0-1-7.5 239 239 0 0 0 3-18.5l-.5-6-1 5-.5-3.5a2347 2347 0 0 1 0-32.5q-3.168-5.574-1-11.5-3.803-4.928 0-9.5" style="opacity:1"/><path fill="#e6e6ec" d="M297.5 477.5a424 424 0 0 1-2 49q.292 13.094 2 26-1.783 1.393-4 1a219 219 0 0 0 4 31q-.435 2.316-2 4a134 134 0 0 0 8 29.5 14.7 14.7 0 0 0-5 1.5q2.979 2.842 1 6-7.815-16.203-12-34 1.663-1.185 4-1.5a236 236 0 0 1-4-23.5l5-2q-3.765-14.733 0-29.5a212 212 0 0 1-1-24.5h4q-.966-17.076 2-33m428 0h3v33h4a845 845 0 0 0 0 55h4a1524 1524 0 0 1-4 25h4q-4.257 17.284-12 33v-5a8.4 8.4 0 0 1-4-.5 257 257 0 0 0 8-28.5 23 23 0 0 1-2-5 394 394 0 0 0 4-31h-3a868 868 0 0 1 1-38h-3z" style="opacity:1"/><path fill="#ececec" d="M335.5 359.5v125h353v47q-.663 15.385-4 30h-345a98 98 0 0 1-3-18 317 317 0 0 1-2-43v-102a381 381 0 0 1 1-39" style="opacity:1"/><path fill="#7d9644" d="M276.5 485.5q-.04 27.012 1 54-1.356 1.063-1 3h-4a116 116 0 0 0 2 26.5 14.7 14.7 0 0 0-5 1.5 695 695 0 0 0 4 21q-2.318 1.428-5 1a125 125 0 0 0 6 24.5 8.4 8.4 0 0 1-4 .5 226 226 0 0 0 6 20 14.7 14.7 0 0 1-5 1.5l10 23q-3.465.745-7 .5-.738-3.478-3-6a18.2 18.2 0 0 0-2-5.5l4-1a76 76 0 0 0-3.5-7.5q.08-7.605-3.5-15l3-2q-3.142-5.584-2-11.5-3.414-5.334 0-10.5a703 703 0 0 1-3-21 1197 1197 0 0 1 3-54q1.763.329 3-1a30 30 0 0 1-1-7 188.6 188.6 0 0 0 3-35z" style="opacity:1"/><path fill="#74893e" d="M334.5 500.5a317 317 0 0 0 2 43q-.926-.166-1.5-1-.768 15.909-2.5 0-.265 12.327 2 25a20.8 20.8 0 0 0-2 5.5 130.6 130.6 0 0 0 4 18.5q-1.697 1.656-2.5-1-3.2 2.457-7.5 2.5a253 253 0 0 0 8 24q-1.423.926-2.5-.5a351 351 0 0 1-7.5-24l-1 1.5a422 422 0 0 0 7 22 11 11 0 0 1-1 2.5q-1.352-1.185-2-3-5.029-12.607-10-25a485 485 0 0 0-6-24h3q.5 12 1 0h4a117 117 0 0 1-.5-13l1 2q1.573-2.41 4.5-2a185.3 185.3 0 0 0 4-39h3q.318-14.518 1.5-29 .261 7.776 1.5 15" style="opacity:1"/><path fill="#7e904a" d="M688.5 359.5a381 381 0 0 1 1 39v15q-.5 36.014 1 72a227 227 0 0 1 2 29h3l2 28h4a12.9 12.9 0 0 1-.5 5l-1-3a65 65 0 0 0 .5 9h5q.028 2.34 1 4.5-.666 2.643-1.5-.5-1.185 4.701 1 9l1-4a20.6 20.6 0 0 0 2 6q.625-1.884 2.5-2a681 681 0 0 1-6 25 500 500 0 0 1-9 23q-1.145 2.802-3 5a1059 1059 0 0 1 8-31l-.5-2a21 21 0 0 0-2.5-1q2.22-5.842 1.5-12-1.227 7.941-1.5 0h-4a118 118 0 0 1 2-16q-2.17-.251-5-2 1.745-2.678 2-6a133.4 133.4 0 0 1-2.5-24l-1 17q-.265-5.784-1.5-11z" style="opacity:1"/><path fill="#7d9644" d="M747.5 485.5h3a547 547 0 0 1 3 43h3a46.8 46.8 0 0 1-1 13l2 2a20 20 0 0 0-1 5.5q2.666 8 0 16.5l3 2-2 11a4.46 4.46 0 0 0 2 1.5q-2.276 6.663-1 13.5l-3 12a4.93 4.93 0 0 1 3 .5q-2.594 4.592-1 9.5-4.198 6.443-1 13a128 128 0 0 0-3 8.5q.353 1.31 1 2.5a92 92 0 0 0-4 10l3 2a112 112 0 0 1-5 11h-6a333 333 0 0 1 9-23 14.7 14.7 0 0 0-5-1.5 356 356 0 0 0 7-20 8.4 8.4 0 0 0-4-.5 783 783 0 0 1 6-24q-2.318-1.428-5-1a361 361 0 0 0 3-23h-4a2212 2212 0 0 0 2-27h-6a218 218 0 0 0 1-20 343 343 0 0 0 1-37" style="opacity:1"/><path fill="#3e3f40" d="M958.5 487.5q.827 5.545 4 10.5a21.5 21.5 0 0 0-1 4.5 182 182 0 0 1 3 12.5 23.95 23.95 0 0 1-2 10 29.4 29.4 0 0 0 3 10q-.489 3.726-3 6.5-.027 2.81 1.5 1 2.131 8.435-.5 17 .383 5.29 1 10.5-1.857-.116-3 .5a9.3 9.3 0 0 1 2 2.5q.97 5.671-2 11a56 56 0 0 1 1 6.5q-1.905 3.072-1 6l-2 1q.835 2.603 1 5-3.867.265 0 3.5l-2 1a57 57 0 0 1 0 6.5q-2.761 3.727-1 7.5l-2 1q.093 5.408 0 10.5-1.842 3.534-3 7 .753 1.824 1 3.5-4.895 3.085-2 7-4.895 3.085-2 7-3.716 2.558-4 6 3.601 1.207-.5 2.5-2.097 3.47-.5 7-.519 1.794-1.5 0-.926 1.423.5 2.5-2.972.908-1 3-2.841 1.651-2 4a13.9 13.9 0 0 0-3 4v4l-2 1v4q-2.701.476-1 2a32.4 32.4 0 0 1-4 5.5 3.65 3.65 0 0 0 1 1.5l-9 17q4.497 4.212-2 4 1.701 1.524-1 2 1.701 1.524-1 2v3a4.46 4.46 0 0 0-2 1.5 190 190 0 0 1-4.5 10q-2.5-1.26-.5 1.5-2.567 2.153-3.5 5.5l-1-1q-4.401 6.797-8 16-2.5-1.26-.5 1.5-4.405 6.567-10 14l1 1a4.93 4.93 0 0 1-3 .5q-.091 3.138-3 4.5l1 1q-25.59 35.187-58 67-7.21 3.459-11 10.5-5.854 2.126-8.5 8-1.077-1.426-2.5-.5a47 47 0 0 1-3.5 5.5 3.65 3.65 0 0 0-1.5-1 32.4 32.4 0 0 0-3 4.5q-1.423.926-2.5-.5l-2 4q-1 2-2 0l-3 4-1-1a12.6 12.6 0 0 0-2.5 4q-2.41 5.138-6.5 7-.417-1.374-1.5-2-44.823 30.376-93 50.5-21.362 8.017-41 14.5a3.65 3.65 0 0 1-1.5-1q-5.932 7.026-14 4-8.86 2.113-18.5 7-2.496-1.085-5 1a3.65 3.65 0 0 1-1.5-1 157 157 0 0 1-8.5 3 11.3 11.3 0 0 0-3.5-1q-7.797 3.208-15.5 4-3.693-1.068-7.5 1a11.5 11.5 0 0 1-2.5-1 393 393 0 0 0-18.5 3l-2.5-.5 1-1q-6-1-12 0l7 1a346 346 0 0 1-13 1.5l-14.5-3q-7.29 1.194-14.5 3l-12-1.5 7-1a51.7 51.7 0 0 1-9.5-1.5q-5.896 4.726-13 1l-3 1q-7.317-2.202-14.5-3-3.713 1.78-7-1-3.548 1.184-7-1-2.928.905-6-1a3.65 3.65 0 0 0-1.5 1 157 157 0 0 0-8.5-3 57 57 0 0 0-6.5 0q-2.159-2.27-4.5-1l-6-4q-2.193 1.457-4-1a26 26 0 0 0-5.5 0l-2-2q-2.288-.582-5 0a63 63 0 0 1-5.5-3q-2.108 1.752-3.5-1l-1 1-5-3-1 1q-3.121-2.974-7.5-4-1.955 1.827-3-1a186 186 0 0 1-3 2q-2.294-1.176-5-3-1.338-3.668-4.5-2-1.864-3.5-5-2a15 15 0 0 0-3.5-3q-40.73-16.575-74-38.5l-4-1 1-1a35.2 35.2 0 0 0-10-5l1-1q-3.637-.439-5.5-3.5l-1 1a4.93 4.93 0 0 1-.5-3 4.93 4.93 0 0 1-3-.5 313 313 0 0 1-32-27 28 28 0 0 1-4-1.5q.166-.925 1-1.5a29 29 0 0 1-9.5-8.5l-1 1q-6.951-11.946-18-20-7.057-5.941-10-13l-1 1q-3.869-3.051-5-8l-1 1a14.6 14.6 0 0 1-4-6q-1 2-2 0-3.558-4.545-7-9a20.6 20.6 0 0 1-2-6l-1 2a23 23 0 0 1-2-5l-1 1a23 23 0 0 1-2-5l-1 1a12.9 12.9 0 0 1-.5-5h-3a4.93 4.93 0 0 0-.5-3l-1 1-1-4q-10.876-14.276-17-29l-1 1q-1.274-4.592-4.5-8-6.666-17.795-17-33.5.685-.621 1-1.5a41 41 0 0 0-4-6.5l1-1q-2.912-2.724-2-6a130 130 0 0 1-5-8l2-1-4-4q3.601-1.207-.5-2.5a15.3 15.3 0 0 0-1.5-4.5l1-1q-3.587-1.963 0-3-4.446-1.26-1-3-4.446-1.26-1-3-4.446-1.26-1-3-4.446-1.26-1-3a456 456 0 0 1-3-4l2-1q-.453-2.482-4-4 4-1 0-2 2.488-3.34-2-5 2-1 0-2l2-1q-5.169-2.944 0-4-4.567-.539-1-2-6-1 0-2l-4-3 3-1-4-3q5.073.399 5-4.5l-3-14q.03-1.839 1-3 24.944 121.888 107 214a19.3 19.3 0 0 1-6.5-3q-2.643.666.5 1.5l-3 1 6 3q-.841 2.349 2 4l-1 1a40 40 0 0 1 9 6l-3 3q7.75 9.75 17.5 17.5l1-2 3 3q1-2 2 0 1.137 4.593 3.5 8.5 1.866.684 2.5-1.5a9.5 9.5 0 0 0 2.5 1.5 71 71 0 0 0 5 8l4 1-1 1a6.55 6.55 0 0 1 3 3 108 108 0 0 1 13.5 10.5 7.3 7.3 0 0 0 2-3q1.986 2.07 4 1l1 3 1-1q2.508 4.521 6 6l1-2q.426 3.578 3 2 3.601 4.487 10 8l1-1a12.4 12.4 0 0 0 2.5 4q1.427-1.238 3-.5-2 1 0 2-5.265-1.23-2.5 3.5.634-2.184 2.5-1.5-1.701 1.524 1 2l-2 1q2.303.745 4.5-.5 1.517.588 1.5 2 .815-9.017 4-1-2.103 2.014 1 2.5l-1 1q1.888 1.473 4 1-2.483-2.166-2-5.5 4.291.019 3 3.5 2.972.908 1 3a9.5 9.5 0 0 1 1.5 2.5l1-1q.625 1.884 2.5 2 4.168 1.675 1 3.5 4.923 2.781 10 2.5l-3-2.5q3.267-.248 5.5 2.5.926 1.423-.5 2.5 27.753 13.793 52 22.5a1583 1583 0 0 0 8.5 4q1.72-1.437 3 1 1.72-1.437 3 1l1-1a6.8 6.8 0 0 0 1.5 3l1-2q3.108 1.176 6.5 4l1-2q1.705 1.296 4 3l3-1q.539 4.567 2 1 1 2 2 0l1 2q2.936-2.031 6 1 1.524-1.701 2 1l3-1q.539 4.567 2 1 1 4 2 0l3 3q2.668-4.164 3 1 1-4 2 0 1.74-3.446 3 1 1-4 2 0 2.127-3.752 3 1 1-6 2 0l2-2a193 193 0 0 0 4 3l2-2a193 193 0 0 0 4 3q2.696-3.894 4 1 1.5-4 3 0l2-2a54 54 0 0 0 6 3q2.741-3.46 5 1a4.46 4.46 0 0 1 1.5-2q2.678 3.633 5 0a15 15 0 0 1 3.5 3q3.414-3.846 6 1 .52-2.52 3-3a43 43 0 0 0 5.5 3q5.649-3.743 11 1a10.8 10.8 0 0 0 3-2.5 100.2 100.2 0 0 1 20 0q2.265 1.275 4.5 2.5 5.34-4.486 11-1a14.8 14.8 0 0 0 5.5-3q1.948.885 2.5 3 3.117-4.281 6.5-1a15 15 0 0 0 3.5-3q1.974 5.373 5 0a4.46 4.46 0 0 0 1.5 2l3-2a4.46 4.46 0 0 1 1.5 2q2.02-4.124 4-1 2.268-3.686 4 0 1.276-4.668 3.5-1 1.974-3.792 3.5 0 1.26-4.446 3-1 1.963-3.586 3 0 1.26-4.446 3-1 1.963-3.586 3 0 1-3 4-4l1 3a193 193 0 0 0 4-3q1 4 2 0 2.574 1.578 3-2 .539 4.567 2 1 1.903.174 4 1 2.378-1.314 3-4l1 3 3-4 1 3 3-4 1 3 3-4q1 6 2 0 1.371 5.528 2-1 1.651 2.841 4 2 1-6 2 0l1-4q1.112 1.711 2.5 0 2.075 3.863 2.5-1 2.092 1.972 3-1 1.371 5.528 2-1a7.3 7.3 0 0 1 2 3q-.053-5.618 3-2 .332-5.164 3-1 .917-5.658 3 0 .935-6.648 3-1l1-3q1-2 2 0l3-3 1 2 2.5-3a3.65 3.65 0 0 1 1.5 1 15 15 0 0 1 3.5-3 4.46 4.46 0 0 1 1.5 2q.955-2.704 3.5-4a4.46 4.46 0 0 1 1.5 2q2-3 5-5 .621.686 1.5 1a57 57 0 0 1 7.5-5q.621.686 1.5 1 25.855-12.408 49-25.5l-1-1 12-6-1-1 7-3-1-1 4-1-1-1 3-1q-1.26-2.5 1.5-.5l1-3q2.76 2 1.5-.5l3-1q-1.26-2.5 1.5-.5 1.158-2.023 3.5-2.5l-2-1a11.3 11.3 0 0 0 1.5-3.5q1.7 2.566 4.5 1.5 3.4-5.028 9-7.5-2.942-2.022-.5-4 1.5 4 3 0l1 1q3.396-4.4 8.5-6.5l1-3q18.446-13.43 33.5-31.5-.537-4.57 4.5-6.5a26.6 26.6 0 0 0-2-3.5q-10.675 6.288-1.5-2 1 2 2 0 1.514-2.288 1.5-5 121.46-140.859 113-328" style="opacity:1"/><path fill="#dfe5e5" d="M306.5 508.5q-.485 9.783 1 19v13q-1.314-.197-2 1a254 254 0 0 1 2 24 4.93 4.93 0 0 0-3 .5 1624 1624 0 0 0 4 22.5q-.476 1.721-2 2.5a178 178 0 0 0 7 23.5l-2 2q3.991 9.985 8 20l-2 2 9 18-3 2a111.6 111.6 0 0 0 11 19.5l-4 1a146.5 146.5 0 0 1 13 19q-.834.575-1 1.5a112 112 0 0 1-9-11 326 326 0 0 1-16-26 153 153 0 0 1-7-15q2.217.393 4-1a107 107 0 0 1-7-15.5 4.93 4.93 0 0 1 3-.5 108 108 0 0 1-5-17 4.93 4.93 0 0 0 3-.5 445 445 0 0 1-6-20l3-1a194 194 0 0 1-4-17.5 7.3 7.3 0 0 0 2-3q-3.51-11.293 0-22.5a118 118 0 0 1-1-17.5h3q-.488-11.778 1-23" style="opacity:1"/><path fill="#dde3e0" d="M716.5 333.5q1.486 9.719 1 20v45q-.291 66.509 1 133h3a137 137 0 0 1-1 16.5q2.925 11.913 0 24 .608 1.418 2 2a217 217 0 0 1-4 18l3 1a289 289 0 0 1-6 19.5q1.238 1.329 3 1a108 108 0 0 1-5 17 4.93 4.93 0 0 1 3 .5 107 107 0 0 1-7 15.5 44 44 0 0 1 3 2l-6 14q-8.979 13.945-18 28l-7 8a2.43 2.43 0 0 1-2-.5 146.5 146.5 0 0 0 13-19l-3-1a111.6 111.6 0 0 0 11-19.5l-3-2 9-18-2-2a529 529 0 0 0 8-20.5l-2-1a965 965 0 0 0 7-23.5q-1.566-1.684-2-4 1.943-10.82 4-21.5l-4-1q2.707-12.063 1.5-24.5-.575.834-1.5 1a971 971 0 0 0 1-56z" style="opacity:1"/><path fill="#7c953e" d="M277.5 539.5a774 774 0 0 0 3 26q-1.545 1.578-2 4 2.125 11.523 4 23h-3a49 49 0 0 0 3 12.5l-2 1a101 101 0 0 1 3 7.5l-3 2a208 208 0 0 0 3 9.5 3.94 3.94 0 0 1-1 2q3.678 5.707 3 12l5 11-3 1q5.05 9.534 8 19a6.8 6.8 0 0 0-3 1.5 236 236 0 0 0 11 21.5 6.8 6.8 0 0 0-3 1.5 29.7 29.7 0 0 0 6 9.5l-2 1 6 9-3 1 5 7-2 1a82 82 0 0 1 7 10l-3 1a91 91 0 0 0 8 10l-6 1a51 51 0 0 1 8 9l-2 1 7 9a8.4 8.4 0 0 1-4 .5 8.4 8.4 0 0 0-4 .5l6 7q-9.539.254-19 1.5a27.8 27.8 0 0 0 6 8q-56.491 1.5-113 1a360.6 360.6 0 0 1-42-58 2600 2600 0 0 1 125-2.5l-3.5-3.5a59.3 59.3 0 0 0-7.5-14q2.682.428 5-1a59 59 0 0 1-5-9 26.7 26.7 0 0 1 7-1.5 54.3 54.3 0 0 1-6-10.5l2-2a128 128 0 0 0-5-9.5l5-1a48.6 48.6 0 0 0-4-7 2.43 2.43 0 0 1 2-.5q3.535.245 7-.5l-10-23a14.7 14.7 0 0 0 5-1.5 226 226 0 0 1-6-20 8.4 8.4 0 0 0 4-.5 125 125 0 0 1-6-24.5q2.682.428 5-1a695 695 0 0 1-4-21 14.7 14.7 0 0 1 5-1.5 116 116 0 0 1-2-26.5h4q-.356-1.937 1-3" style="opacity:1"/><path fill="#e0e0e5" d="M307.5 540.5q1.37 4.842 1 10a238 238 0 0 0 5 36.5 4.46 4.46 0 0 0-2 1.5 223.5 223.5 0 0 0 8 28 7.3 7.3 0 0 1-2 3 223 223 0 0 0 11 27l-2 2q10.028 16.054 16.5 33a217 217 0 0 0 14.5 19.5q-2.184.634-1.5 2.5a649 649 0 0 0 19.5 23 8.4 8.4 0 0 0-4 .5 390 390 0 0 0 24 23q-2.905.183-4 2.5-18.5-16.5-35-35a182 182 0 0 1-14-18q.166-.925 1-1.5a146.5 146.5 0 0 0-13-19l4-1a111.6 111.6 0 0 1-11-19.5l3-2-9-18 2-2q-4.009-10.015-8-20l2-2a178 178 0 0 1-7-23.5q1.524-.779 2-2.5a1624 1624 0 0 1-4-22.5 4.93 4.93 0 0 1 3-.5 254 254 0 0 0-2-24q.686-1.197 2-1m374 158a308 308 0 0 1-14 19 442 442 0 0 1-25 25 28 28 0 0 0-4-1.5l14-14a8.4 8.4 0 0 0-4-.5 649 649 0 0 0 19.5-23q.684-1.866-1.5-2.5a332 332 0 0 0 18-25 4.46 4.46 0 0 1-2-1.5 206 206 0 0 0 15-26.5 4.46 4.46 0 0 1-2-1.5 179 179 0 0 0 11-28 4.93 4.93 0 0 1-3-.5 259 259 0 0 0 9-30 4.46 4.46 0 0 1-2-1.5q4.02-16.591 4-33 .219-6.029 1-12 .925-.166 1.5-1 1.207 12.437-1.5 24.5l4 1a1735 1735 0 0 0-4 21.5q.434 2.316 2 4a965 965 0 0 1-7 23.5l2 1a529 529 0 0 1-8 20.5l2 2-9 18 3 2a111.6 111.6 0 0 1-11 19.5l3 1a146.5 146.5 0 0 1-13 19 2.43 2.43 0 0 0 2 .5" style="opacity:1"/><path fill="#88a14a" d="M240.5 542.5a3316 3316 0 0 0 2 27 43.1 43.1 0 0 0-13 1l3 22q-61.255-.498-122 1-2.123-6.687-3-14h115q-2.343-6.228-2-13h13a44.7 44.7 0 0 0-1-10 35.3 35.3 0 0 0 2-14z" style="opacity:1"/><path fill="#708939" d="M336.5 543.5a98 98 0 0 0 3 18 49.3 49.3 0 0 0 2 11q-1.314-.197-2 1 .174 8.663 3 17.5-3.886 4.965 1 9-1.972 2.092 1 3l-2 2 4 9-5 1a57.8 57.8 0 0 0 5 11l-4 1q.913 3.765 4 6-1.198 2.623 2 4-1.684 1.566-4 2 3.38 6.014 7 10-2.625 1.978-6 1.5l-4-6-12-26q.635-1.147 1-2.5a422 422 0 0 1-7-22l1-1.5a351 351 0 0 0 7.5 24q1.077 1.426 2.5.5a253 253 0 0 1-8-24q4.3-.043 7.5-2.5.803 2.656 2.5 1a130.6 130.6 0 0 1-4-18.5 20.8 20.8 0 0 1 2-5.5q-2.265-12.673-2-25 1.732 15.909 2.5 0 .574.834 1.5 1" style="opacity:1"/><path fill="#70893a" d="m693.5 619.5-8 18a129 129 0 0 1-8 13q-2.217.393-4-1 3.606-5.673 4.5-12-.981 1.794-1.5 0a151 151 0 0 0 5-10.5l-4-1 5-11-5-1a595 595 0 0 0 6-16.5q-1.457-2.193 1-4-1.238-1.329-3-1 3.247-13.594 3-28v-3q3.337-14.615 4-30 1.235 5.216 1.5 11l1-17a133.4 133.4 0 0 0 2.5 24q-.255 3.322-2 6 2.83 1.749 5 2a118 118 0 0 0-2 16h4q.273 7.941 1.5 0 .72 6.158-1.5 12 1.12.355 2.5 1l.5 2a1059 1059 0 0 0-8 31" style="opacity:1"/><path fill="#7c953e" d="M745.5 542.5h6a2212 2212 0 0 1-2 27h4a361 361 0 0 1-3 23q2.682-.428 5 1a783 783 0 0 0-6 24 8.4 8.4 0 0 1 4 .5 356 356 0 0 1-7 20 14.7 14.7 0 0 1 5 1.5 333 333 0 0 0-9 23h6a2.43 2.43 0 0 1 2 .5 84 84 0 0 1-3 6.5 10.3 10.3 0 0 0 4 1.5 70 70 0 0 1-5 10 4.46 4.46 0 0 1 2 1.5l-5 10a13.1 13.1 0 0 0 7 1q-1.733 5.916-6 10.5a12.9 12.9 0 0 0 5 .5 2516 2516 0 0 0-9 18q62.02-.991 123 2a360.6 360.6 0 0 1-42 58q-56.509.5-113-1 4.923-3.387 6-9-9.513.25-19-.5l7-7a12.9 12.9 0 0 0-5-.5 8.4 8.4 0 0 1-4-.5 51 51 0 0 1 8-9l-3-1a51 51 0 0 0 8-9l-5-1a97 97 0 0 0 7-9.5 6.8 6.8 0 0 0-3-1.5 97 97 0 0 0 7-9.5 4.46 4.46 0 0 0-2-1.5 20.65 20.65 0 0 0 5-7l-3-1q4.694-4.38 5-10l6-10a6.8 6.8 0 0 1-3-1.5 2262 2262 0 0 0 11-21.5 6.8 6.8 0 0 1-3-1.5q2.434-8.958 7-18a9.3 9.3 0 0 1-2-2.5 168 168 0 0 1 4-9.5 3.65 3.65 0 0 0-1-1.5q3.287-6.051 3-12.5 4.258-6.412 1-13a31.7 31.7 0 0 1 2-6q.965-9.891 0-20a305 305 0 0 0 2-13q-.043-4.154-2-7z" style="opacity:1"/><path fill="#88a14a" d="M783.5 542.5h5a81.8 81.8 0 0 0 2 17 23.3 23.3 0 0 1-1 6.5q6.481.749 13 .5v13h113q-.878 7.313-3 14a3720 3720 0 0 0-122-1 150 150 0 0 0 3-23h-12a172 172 0 0 1 2-27" style="opacity:1"/><path fill="#dfe0df" d="M714.5 553.5q.02 16.409-4 33a4.46 4.46 0 0 0 2 1.5 259 259 0 0 1-9 30 4.93 4.93 0 0 0 3 .5 179 179 0 0 1-11 28 4.46 4.46 0 0 0 2 1.5 206 206 0 0 1-15 26.5 4.46 4.46 0 0 0 2 1.5 332 332 0 0 1-18 25q2.184.634 1.5 2.5a649 649 0 0 1-19.5 23 4.93 4.93 0 0 1-3-.5 85.4 85.4 0 0 1 10.5-11.5q-1.469-2.668 1-5l9.5-11.5a4.46 4.46 0 0 1-2-1.5 133 133 0 0 0 11-15.5l-1-1q4.548-7.53 9-15l-1-1a187 187 0 0 0 9-16l-2-1a179 179 0 0 0 8-16l-2-1a79.7 79.7 0 0 0 5.5-13.5 188 188 0 0 1 5.5-22 10 10 0 0 0-1-3 681 681 0 0 0 6-25 217 217 0 0 1 3-13" style="opacity:1"/><path fill="#e0e0df" d="M308.5 550.5q2.316 7.659 3 16a485 485 0 0 1 6 24 66.4 66.4 0 0 0 6 22.5l-2 1a241 241 0 0 0 7 16l-2 1a179 179 0 0 0 8 16l-2 1q6.519 11.253 10.5 22.5 3.435 4.62 6.5 9.5-1.426 1.077-.5 2.5a355 355 0 0 0 10.5 14.5l-2 1a175 175 0 0 0 11 14l-2 1a110 110 0 0 1 12 13 4.93 4.93 0 0 1-3 .5 649 649 0 0 1-19.5-23q-.684-1.866 1.5-2.5a217 217 0 0 1-14.5-19.5q-6.472-16.946-16.5-33l2-2a223 223 0 0 1-11-27 7.3 7.3 0 0 0 2-3 223.5 223.5 0 0 1-8-28 4.46 4.46 0 0 1 2-1.5 238 238 0 0 1-5-36.5" style="opacity:1"/><path fill="#e6ecec" d="M339.5 561.5h345v3a172.4 172.4 0 0 1-10 30 26576 26576 0 0 0-326-1 388 388 0 0 1-7-21 49.3 49.3 0 0 1-2-11" style="opacity:1"/><path fill="#708439" d="M684.5 564.5q.247 14.406-3 28 1.762-.329 3 1-2.457 1.807-1 4a595 595 0 0 1-6 16.5l5 1-5 11 4 1a151 151 0 0 1-5 10.5q.519 1.794 1.5 0-.894 6.327-4.5 12 1.783 1.393 4 1a189 189 0 0 1-17 27 44.4 44.4 0 0 1-6 7q-.939-1.543-2.5-3-1.72 1.437-3-1-1.077 1.426-2.5.5a75.4 75.4 0 0 0 8.5-11.5q.466-1.863-1.5-3 2.74-4.98 7-8.5a7.25 7.25 0 0 1-2-2.5 273 273 0 0 1 8-13.5l-5-1q3.463-4.68 7-11l-3-1a89.5 89.5 0 0 0 9-25.5h-3a50 50 0 0 0 3-9 172.4 172.4 0 0 0 10-30" style="opacity:1"/><path fill="#708339" d="M341.5 572.5a388 388 0 0 0 7 21l3 8q-.505 6.082 3 12-.519 1.794-1.5 0 1.183 8.155 5.5 15.5a4.46 4.46 0 0 0-2 1.5l5 10q-4.793 2.065-1.5 6l1-2a72.5 72.5 0 0 0 5.5 10l-2 3a140 140 0 0 0 6 9.5q-2.184.634-1.5 2.5l4 6 1-2 4.5 6.5a29 29 0 0 1-5 2.5 122 122 0 0 0 8 10.5 12.9 12.9 0 0 1-5 .5 138 138 0 0 1-13-15 306 306 0 0 1-18-28q3.375.478 6-1.5-3.62-3.986-7-10 2.316-.434 4-2-3.198-1.377-2-4-3.087-2.235-4-6l4-1a57.8 57.8 0 0 1-5-11l5-1-4-9 2-2q-2.972-.908-1-3-4.886-4.035-1-9-2.826-8.837-3-17.5.686-1.197 2-1" style="opacity:1"/><path fill="#768e3e" d="M280.5 565.5a463 463 0 0 0 7 26q4.185 17.797 12 34v1q-1.496-.045-2 1.5a45.7 45.7 0 0 0 4 10 8.4 8.4 0 0 1-4 .5 27.4 27.4 0 0 0 4 11l-1 2a384 384 0 0 1 13 29.5 4.46 4.46 0 0 0-2 1.5 54.3 54.3 0 0 0 6 10.5q-1.013 3.363 1.5 6.5a12.14 12.14 0 0 1 3.5 4.5l-3 1 7 9-2 1 5 7-2 1a91 91 0 0 0 8 10q-1.426 1.077-.5 2.5a99 99 0 0 0 7.5 9 4.93 4.93 0 0 0-3 .5l15 19-3 1 6 7-1 1a63.7 63.7 0 0 1 10 9 10.3 10.3 0 0 0-4 1.5 108 108 0 0 1 9 8.5 6.8 6.8 0 0 0-3 1.5 85 85 0 0 1 8 7.5l-2 1a112 112 0 0 0 11 9l-6 1a30 30 0 0 0 7 6l-10 1a71 71 0 0 1 11 9 267 267 0 0 0-23 1.5 29.1 29.1 0 0 0 10 7.5q-57.998.75-116 .5-29.336-21.832-53-50 65.002.25 130-.5l-12-12 10-1a110 110 0 0 0-8-9.5 8.4 8.4 0 0 0 4-.5l-7-9 2-1a51 51 0 0 0-8-9l6-1a91 91 0 0 1-8-10l3-1a82 82 0 0 0-7-10l2-1-5-7 3-1-6-9 2-1a29.7 29.7 0 0 1-6-9.5 6.8 6.8 0 0 1 3-1.5 236 236 0 0 1-11-21.5 6.8 6.8 0 0 1 3-1.5q-2.95-9.466-8-19l3-1-5-11q.678-6.293-3-12a3.94 3.94 0 0 0 1-2 208 208 0 0 1-3-9.5l3-2a101 101 0 0 0-3-7.5l2-1a49 49 0 0 1-3-12.5h3a1140 1140 0 0 0-4-23q.455-2.422 2-4" style="opacity:1"/><path fill="#768e3d" d="M742.5 566.5q1.957 2.846 2 7a305 305 0 0 1-2 13q.965 10.109 0 20a31.7 31.7 0 0 0-2 6q3.258 6.588-1 13 .287 6.449-3 12.5.686.621 1 1.5a168 168 0 0 0-4 9.5 9.3 9.3 0 0 0 2 2.5q-4.566 9.042-7 18a6.8 6.8 0 0 0 3 1.5 2262 2262 0 0 1-11 21.5 6.8 6.8 0 0 0 3 1.5l-6 10q-.306 5.62-5 10l3 1a20.65 20.65 0 0 1-5 7 4.46 4.46 0 0 1 2 1.5 97 97 0 0 1-7 9.5 6.8 6.8 0 0 1 3 1.5 97 97 0 0 1-7 9.5l5 1a51 51 0 0 1-8 9l3 1a51 51 0 0 0-8 9 8.4 8.4 0 0 0 4 .5q-3.12 5.38-8 9.5l10 1a179 179 0 0 0-11 11.5q64.493 1.5 129 1-23.663 28.168-53 50-58.002.25-116-.5a86.4 86.4 0 0 1 10-7.5 314 314 0 0 0-25-1.5l13-9-11-1 8-6-6-1 12-9-3-1a80.6 80.6 0 0 1 9-8l-4-1a63.7 63.7 0 0 0 10-9l-4-1q9.064-8.005 15-17a4.93 4.93 0 0 0-3-.5q-.658.098-1-.5l9-9-2-1a51 51 0 0 0 8-9l-2-1q8.428-9.284 13.5-19.5.792-1.974-1.5-2 3.502-8.96 10-17.5a4.46 4.46 0 0 1-2-1.5 140 140 0 0 1 6-9.5 3.65 3.65 0 0 1-1-1.5q2.7-5.444 6-10.5a4.46 4.46 0 0 1-2-1.5q4.664-8.796 8-17a3.65 3.65 0 0 0-1-1.5q5.092-6.932 5.5-15.5l3.5-7q-1.783-1.393-4-1a74.5 74.5 0 0 1 4-11q-.686-1.197-2-1v-3q7.743-15.716 12-33a731 731 0 0 0 6-24" style="opacity:1"/><path fill="#d9e0df" d="M317.5 590.5q4.971 12.393 10 25-1.314-.197-2 1a703 703 0 0 1 8 19.5 3.94 3.94 0 0 1-1 2 347 347 0 0 0 10 19l-1 1a301 301 0 0 0 12 20l-1 1 14 19-2 1q10.75 12.414 20 24.5a194 194 0 0 0 12 11.5l-2 1 20 17q-3.587 1.037 0 3a248 248 0 0 0 22 15l-3 1a324 324 0 0 0 30 16l-12 1a152.5 152.5 0 0 0 38 14q-15.822.561 0 3 25.191 3.545 50-2l-8-1a152.5 152.5 0 0 0 38-14l-12-1a227 227 0 0 0 31-16l-3-1a267 267 0 0 0 26-17l-3-1a242 242 0 0 0 20-17l-1-1 16-16-1-1 15.5-17.5q-1.469-2.668 1-5l12.5-16.5a3.65 3.65 0 0 1-1-1.5 368 368 0 0 0 12-19.5q3.054-10.15 9-20l-2-1a146 146 0 0 0 9-21q-.816-1.075-2-1.5a500 500 0 0 0 9-23q.723 1.374 1 3a188 188 0 0 0-5.5 22 79.7 79.7 0 0 1-5.5 13.5l2 1a179 179 0 0 1-8 16l2 1a187 187 0 0 1-9 16l1 1q-4.452 7.47-9 15l1 1a133 133 0 0 1-11 15.5 4.46 4.46 0 0 0 2 1.5l-9.5 11.5q-2.469 2.332-1 5a85.4 85.4 0 0 0-10.5 11.5 4.93 4.93 0 0 0 3 .5 8.4 8.4 0 0 1 4 .5l-14 14q2.101.615 4 1.5a85.7 85.7 0 0 1-11 11 482 482 0 0 1-20 16.5 1830 1830 0 0 1-48 29.5l-20 10a227 227 0 0 1-32 11 159.3 159.3 0 0 1-32-11 433 433 0 0 0-25-12 330.7 330.7 0 0 1-62-43l-1-2q1.095-2.317 4-2.5a390 390 0 0 1-24-23 8.4 8.4 0 0 1 4-.5 4.93 4.93 0 0 0 3-.5 110 110 0 0 0-12-13l2-1a175 175 0 0 1-11-14l2-1a355 355 0 0 1-10.5-14.5q-.926-1.423.5-2.5a147 147 0 0 0-6.5-9.5q-3.981-11.247-10.5-22.5l2-1a179 179 0 0 1-8-16l2-1a241 241 0 0 1-7-16l2-1a66.4 66.4 0 0 1-6-22.5" style="opacity:1"/><path fill="#e6e6ec" d="M348.5 593.5q163.252-.499 326 1a50 50 0 0 1-3 9 363 363 0 0 0-11 23 126 126 0 0 0-8 13h-281a173 173 0 0 1-9-15 497 497 0 0 1-11-23z" style="opacity:1"/><path fill="#6b8339" d="M351.5 601.5a497 497 0 0 0 11 23q.129 1.494-1 2.5a726 726 0 0 0 12 22.5 4.46 4.46 0 0 1-2 1.5q1.254 3.21 5 6l-1 1q3.268.663 2 3l2 1a6.8 6.8 0 0 0-3 1.5l3.5 5q4.292-.612.5 2.5a154 154 0 0 1 7 9.5 4.46 4.46 0 0 1-2 1.5 61 61 0 0 1 9.5 9.5q.684 1.866-1.5 2.5a420 420 0 0 1 16 18.5l-1.5 3q-1.077-1.426-2.5-.5a244 244 0 0 0 19 18q-5.164.332-1 3 6.885 2.924 12 8-3.728-.121-7 .5a313.6 313.6 0 0 1-52-51 12.9 12.9 0 0 0 5-.5 122 122 0 0 1-8-10.5 29 29 0 0 0 5-2.5l-4.5-6.5-1 2-4-6q-.684-1.866 1.5-2.5a140 140 0 0 1-6-9.5l2-3a72.5 72.5 0 0 1-5.5-10l-1 2q-3.293-3.935 1.5-6l-5-10a4.46 4.46 0 0 1 2-1.5q-4.317-7.345-5.5-15.5.981 1.794 1.5 0-3.505-5.918-3-12m320 2h3a89.5 89.5 0 0 1-9 25.5l3 1q-3.537 6.32-7 11l5 1a273 273 0 0 0-8 13.5 7.25 7.25 0 0 0 2 2.5q-4.26 3.52-7 8.5 1.966 1.137 1.5 3a75.4 75.4 0 0 1-8.5 11.5q1.423.926 2.5-.5 1.28 2.437 3 1 1.561 1.457 2.5 3a60.4 60.4 0 0 1-5.5 8 832 832 0 0 1-48.5 48.5 32 32 0 0 1-6 3.5q-2.317-1.62-4.5 0-1.886-.525-1-2l1 1a272 272 0 0 1 12.5-9.5l-4-1a14.5 14.5 0 0 0 5-4q2.668 1.469 5-1l5-5q-1.423-.926-2.5.5-1-1 0-2a109 109 0 0 0 7.5-6.5l-3-1a63.7 63.7 0 0 0 10-9q-1.926-1.026-3.5.5-1-1 0-2a39.8 39.8 0 0 0 7-8q4.292.612.5-2.5 2.437-1.28 1-3 5-3 8-8a4.46 4.46 0 0 1-2-1.5q6.833-8.3 11-17l-2-1q2.614-6.009 8-11.5l-4-1a194 194 0 0 0 13-23 2.43 2.43 0 0 0-2-.5 363 363 0 0 1 11-23" style="opacity:1"/><path fill="#d8d9e0" d="M696.5 614.5q1.184.425 2 1.5a146 146 0 0 1-9 21l2 1q-5.946 9.85-9 20a368 368 0 0 1-12 19.5 3.65 3.65 0 0 0 1 1.5L659 695.5q-2.469 2.332-1 5L642.5 718l1 1-16 16 1 1a242 242 0 0 1-20 17l3 1a267 267 0 0 1-26 17l3 1a227 227 0 0 1-31 16l12 1a152.5 152.5 0 0 1-38 14l8 1q-24.809 5.545-50 2-15.822-2.439 0-3a152.5 152.5 0 0 1-38-14l12-1a324 324 0 0 1-30-16l3-1a248 248 0 0 1-22-15q-3.587-1.963 0-3l-20-17 2-1a194 194 0 0 1-12-11.5q-9.25-12.086-20-24.5l2-1-14-19 1-1a301 301 0 0 1-12-20l1-1a347 347 0 0 1-10-19 3.94 3.94 0 0 0 1-2 703 703 0 0 0-8-19.5q.686-1.197 2-1 .648 1.815 2 3l12 26q.255 1.983-1 3.5a273 273 0 0 0 16 27l-1 1a272 272 0 0 0 19 25q-1.426 1.077-.5 2.5a342 342 0 0 0 21.5 22.5l-1 1a220.6 220.6 0 0 0 27 23q-2 1 0 2a405 405 0 0 0 32 21l-2 1q59.385 34.952 119 0l-2-1a315 315 0 0 0 35-22q-.841-2.349 2-4a171 171 0 0 0 24-20l-1-1a186.6 186.6 0 0 0 22-24l-1-1a272 272 0 0 0 19-25l-1-1a273 273 0 0 0 16-27 3.65 3.65 0 0 1-1-1.5q2.806-4.101 3-9l8-18q1.855-2.198 3-5" style="opacity:1"/><path fill="#262627" d="M806.5 165.5a140 140 0 0 1 16 12 530 530 0 0 1 42.5 44q133.859 163.354 106.5 374h-3q-.042 3.124 2 5.5a1529 1529 0 0 0-9.5 46.5 576 576 0 0 0 11.5-47q-8.215 62.887-35 120-29.814 62.678-76 114-1.494-.128-2.5 1 44.87-52.61 75-116 .745-2.303-.5-4.5a9782 9782 0 0 1 11.5-26.5 66 66 0 0 0 2.5-11q.128-1.494-1-2.5a92 92 0 0 0 3-4.5l-2-4 4-2a3.65 3.65 0 0 0-1-1.5 92 92 0 0 0 3-4.5l-1-2a103 103 0 0 0 3-5 26 26 0 0 0 0-5.5q3.138-1.43 1-4 3.283-1.016 1-3.5a137 137 0 0 1 3-6.5 11 11 0 0 0-1-2.5q3.228-.866 1-3.5 3.465-2.188 1-5.5 1.724-.436 2-2.5 1.554-3.612 0-7a115 115 0 0 0 3-8 6.3 6.3 0 0 0-1-3q3.298-2.505 1-6 1.617-1.011 2-3 .65-5.324 0-11 3.479-3.88 1-8.5.936-4.869 3.5-1l.5-1.5q-3.686-22.323 0-44.5a127 127 0 0 0-2-18.5 93 93 0 0 1 1-10.5q-3.168-6.209-1-13-3.228-4.666-1-10-.37-1.82-2-2 1.034-6.951 0-13.5a170 170 0 0 1-3-10 6.3 6.3 0 0 1 1-3 2.43 2.43 0 0 0-2-.5q-.32-2.466 1-4.5-3.512-8.27-5-17.5-.476-1.721-2-2.5 1.255-1.517 1-3.5a4.93 4.93 0 0 1-3-.5q2.21-1.064 2-3.5a4.93 4.93 0 0 1-3-.5q2.21-1.064 2-3.5a4.93 4.93 0 0 1-3-.5q2.21-1.064 2-3.5-5.335.338-1-2.5-.588-1.517-2-1.5 1.97-3.027-2-3.5 3.752-2.127-1-3a7.25 7.25 0 0 0 2-2.5 92 92 0 0 0-3-4.5 3.65 3.65 0 0 0 1-1.5q-4.946-.963-1-3.5-5.164-.332-1-3-2.972-.908-1-3-2.972-.908-1-3a193 193 0 0 1-3-4q1.426-1.077.5-2.5-4.665 1.76-.5-1.5-2.972-.908-1-3-3.626-1.716-2-5-3.626-1.716-2-5l-5-5q1.711-4.053-3-5 4-1 0-2-.045-2.143 1-4.5-14.24-34.49-34-60.5l1-1q-3.268-.663-2-3-3.268-.663-2-3-3.268-.663-2-3l-5-3 2-1a19 19 0 0 1-5-3l1-1a79 79 0 0 1-10-11l1-1q-3.688-1.086-3-4a194 194 0 0 1-16-17q-12.614-15.685-29.5-31.5l-1 1-13-15-1 2-6-8-1 2a22.8 22.8 0 0 0-4-5l-1 2-4-6-1 2-4-6-1 2-3-5-1 2-3-5-1 2-3-5-1 2-2-4-1 2a19 19 0 0 1-3-5l-1 3a23 23 0 0 0-2-5l-1 2-2-4-1 2-5-5-1 1-2-4-1 2q-.476-2.701-2-1l-5-5q-1.461 3.567-2-1-2.337 1.268-3-2l-1 1a174 174 0 0 0-3.5-3q-2.403 1.575-2.5-2l-1 1a193 193 0 0 1-4-3l-1 1-1-3q-1.461 3.567-2-1l-1 1q-.476-2.701-2-1a829 829 0 0 0-11-5q-5.494-3.135-12.5-6.5-1.293-4.101-2.5-.5-.476-2.701-2-1-.476-2.701-2-1-5.462-4.172-11-6-1.524 1.701-2-1-2.034 1.32-4.5 1a4.93 4.93 0 0 0-.5-3l-1 1q-2.33-2.016-1.5-4 2.073.147 4.5 0 .486 3.103 2.5 1l6 4a3.65 3.65 0 0 0 1.5-1q.476 2.701 2 1 1.595 1.407 3.5 3 2.014-2.103 2.5 1h3l1 2q1.524-1.701 2 1 1.524-1.701 2 1 3.285-1.626 5 2l1-1q.476 2.701 2 1 .476 2.701 2 1 .476 2.701 2 1 .476 2.701 2 1 .476 2.701 2 1 3.952 1.46 6 5h3q.476 2.701 2 1 18.085 10.333 40 25 1.077-1.426 2.5-.5a37.4 37.4 0 0 1 11.5 10.5q1.077-1.426 2.5-.5a268 268 0 0 1 17 14q1 1 2 0-1.321-1.062-2-2.5" style="opacity:1"/><path fill="#76893f" d="M299.5 626.5a310 310 0 0 0 11 21 153 153 0 0 0 7 15q-2.682-.428-5 1a205 205 0 0 0 9 17l-5 2a700 700 0 0 0 13 21.5l-5 1 13 17-7 1 17 21a12.9 12.9 0 0 1-5 .5 99 99 0 0 1-7.5-9q-.926-1.423.5-2.5a91 91 0 0 1-8-10l2-1-5-7 2-1-7-9 3-1a12.14 12.14 0 0 0-3.5-4.5q-2.513-3.137-1.5-6.5a54.3 54.3 0 0 1-6-10.5 4.46 4.46 0 0 1 2-1.5 384 384 0 0 0-13-29.5l1-2a27.4 27.4 0 0 1-4-11 8.4 8.4 0 0 0 4-.5 45.7 45.7 0 0 1-4-10q.504-1.545 2-1.5" style="opacity:1"/><path fill="#6a7d38" d="M362.5 624.5a173 173 0 0 0 9 15 316 316 0 0 0 29 38q-1.717 1.939 1 3.5-2.184.634-1.5 2.5a180 180 0 0 1 8.5 9.5q-1.526 1.574-.5 3.5l7.5 7.5-4 1 19 17q-5.164.332-1 3a602 602 0 0 0 27 19l-3 1a148.4 148.4 0 0 0 36 17l-16 1q21.906 10.15 46 8-12.715.018-25-3 19.19 1.94 38-2.5l2 .5a109 109 0 0 1-14 4q14.232-.45 27-7l-16-1q19.837-5.9 37-17l-3-1a185.4 185.4 0 0 0 30-21l-2-1 19-17-4-1a164 164 0 0 0 20-22q-8.889 1.365-3-5-.342-.598-1-.5a376 376 0 0 0 28-37q3.645-6.805 8-13a2.43 2.43 0 0 1 2 .5 194 194 0 0 1-13 23l4 1q-5.386 5.491-8 11.5l2 1q-4.167 8.7-11 17a4.46 4.46 0 0 0 2 1.5q-3 5-8 8 1.437 1.72-1 3 3.792 3.112-.5 2.5a39.8 39.8 0 0 1-7 8q-1 1 0 2 1.574-1.526 3.5-.5a63.7 63.7 0 0 1-10 9l3 1a109 109 0 0 1-7.5 6.5q-1 1 0 2 1.077-1.426 2.5-.5l-5 5q-2.332 2.469-5 1a14.5 14.5 0 0 1-5 4l4 1a272 272 0 0 0-12.5 9.5l-1-1q-.886 1.475 1 2 2.183-1.62 4.5 0-34.607 24.814-74 42a71 71 0 0 0-9 3 10 10 0 0 1-3-1q-43.676-15.827-80-44 3.272-.621 7-.5-5.115-5.076-12-8-4.164-2.668 1-3a244 244 0 0 1-19-18q1.423-.926 2.5.5l1.5-3a420 420 0 0 0-16-18.5q2.184-.634 1.5-2.5a61 61 0 0 0-9.5-9.5 4.46 4.46 0 0 0 2-1.5 154 154 0 0 0-7-9.5q3.792-3.112-.5-2.5l-3.5-5a6.8 6.8 0 0 1 3-1.5l-2-1q1.268-2.337-2-3l1-1q-3.746-2.79-5-6a4.46 4.46 0 0 0 2-1.5 726 726 0 0 1-12-22.5q1.129-1.006 1-2.5" style="opacity:1"/><path fill="#76893f" d="M724.5 626.5q1.314-.197 2 1a74.5 74.5 0 0 0-4 11q2.217-.393 4 1l-3.5 7q-.408 8.568-5.5 15.5.686.621 1 1.5-3.336 8.204-8 17a4.46 4.46 0 0 0 2 1.5q-3.3 5.056-6 10.5a3.65 3.65 0 0 0 1 1.5 140 140 0 0 0-6 9.5 4.46 4.46 0 0 0 2 1.5q-6.498 8.54-10 17.5a25 25 0 0 1-7-.5 151 151 0 0 0 12-17l-5-1a376 376 0 0 0 14-22l-6-1a236 236 0 0 0 10-18 12.9 12.9 0 0 0-5-.5l6-14z" style="opacity:1"/><path fill="#e1e6e6" d="M371.5 639.5h281a376 376 0 0 1-28 37l-10 9a10607 10607 0 0 0-206-1l-8-7a316 316 0 0 1-29-38" style="opacity:1"/><path fill="#d3d9d8" d="M685.5 637.5q-.194 4.899-3 9a3.65 3.65 0 0 0 1 1.5 273 273 0 0 1-16 27l1 1a272 272 0 0 1-19 25l1 1a186.6 186.6 0 0 1-22 24l1 1a171 171 0 0 1-24 20q-2.841 1.651-2 4a315 315 0 0 1-35 22l2 1q-59.615 34.952-119 0l2-1a405 405 0 0 1-32-21q-2-1 0-2a220.6 220.6 0 0 1-27-23l1-1a342 342 0 0 1-21.5-22.5q-.926-1.423.5-2.5a272 272 0 0 1-19-25l1-1a273 273 0 0 1-16-27q1.255-1.517 1-3.5l4 6a306 306 0 0 0 18 28q-1.538.595-.5 2l13.5 17.5-1 1a241 241 0 0 0 18 19l-1 1q10.562 10.034 19 20l16 12q2.841 1.651 2 4 19.586 13.338 39 24 21.534 8.674 40 9.5 1.374.723 3 1a71 71 0 0 1 9-3q25.527-1.344 47-16a508 508 0 0 0 26-15.5q-.841-2.349 2-4a218 218 0 0 0 20-15l-1-1a192 192 0 0 0 17-16l-1-1q11.517-9.505 18.5-22.5 6.57-7.066 12-15 1.11-1.874-.5-3a189 189 0 0 0 17-27 129 129 0 0 0 8-13" style="opacity:1"/><path fill="#7c9b43" d="M271.5 656.5q2.262 2.522 3 6a2.43 2.43 0 0 0-2 .5 48.6 48.6 0 0 1 4 7l-5 1a128 128 0 0 1 5 9.5l-2 2a54.3 54.3 0 0 0 6 10.5q-3.6.279-7 1.5a59 59 0 0 0 5 9q-2.318 1.428-5 1h-11q.754 5.012 4 9-56.491 1.5-113 1a54.3 54.3 0 0 1-4-9q55.245-1.498 111-1a76.5 76.5 0 0 0-4-11 65 65 0 0 0 16-1l-5-10 6-2a270 270 0 0 0-6-12.5l5-1a95 95 0 0 1-5-10 8.4 8.4 0 0 1 4-.5" style="opacity:1"/><path fill="#708838" d="M317.5 662.5a326 326 0 0 0 16 26q-.305 2.835 2 4.5l-4 1a82 82 0 0 0 7 10l-2 1a76 76 0 0 1 6 8.5 10.3 10.3 0 0 1-4 1.5q5.17 4.686 6.5 10.5a788 788 0 0 0 15.5 18 6.8 6.8 0 0 1-3 1.5l16 19-3 1q7.5 9.5 17 17l-4 1q11.45 8.504 20 18l-3 1 12 9-3 1a41 41 0 0 0 7 5l1 3a129 129 0 0 1 13 8l-4 1 14 8-6 1 18 9-2 1a153 153 0 0 0 18 8l-9 1a282 282 0 0 0 21 8l-9 1a112 112 0 0 0 20 6l-22 1q41.963 14.997 84 0l-22-1a268 268 0 0 0 22-6l-11-1a131 131 0 0 0 20-8l-8-1q9.045-4.025 18-8l-2-1 17-9-6-1 14-8-4-1 14-9q-2-1 0-2a31.3 31.3 0 0 0 8-5l-4-1 13-9-4-1a102 102 0 0 1 11-8l-1-1 11-9-4-1q9.5-7.5 17-17l-3-1q9.229-8.854 16-19l-3-1a174 174 0 0 0 18-21l-2-1a30 30 0 0 0 6-7 10.3 10.3 0 0 1-4-1.5 55.5 55.5 0 0 0 5.5-7q.684-1.866-1.5-2.5a82 82 0 0 0 7-10 6.8 6.8 0 0 1-3-1.5q1.575-1.393 0-2 9.021-14.055 18-28a12.9 12.9 0 0 1 5 .5 236 236 0 0 1-10 18l6 1a376 376 0 0 1-14 22l5 1a151 151 0 0 1-12 17q3.465.745 7 .5 2.292.026 1.5 2-5.072 10.216-13.5 19.5l2 1a51 51 0 0 1-8 9l2 1-9 9q.342.598 1 .5a696 696 0 0 1-22 22.5l3 1a80.6 80.6 0 0 1-9 8l4 1-14 12 4 1a102 102 0 0 1-11 8l6 1-15 11 9 1a97 97 0 0 1-14 9l13 1a137 137 0 0 1-16 10q68.753.25 137 1.5-31.625 22.823-68 38-64.008.5-128-1a201 201 0 0 0 24-7.5 3719 3719 0 0 0-122 0 333 333 0 0 1 24 7.5q-63.992 1.5-128 1-36.286-15.138-68-38a9072 9072 0 0 1 135-1.5 137 137 0 0 1-16-10l14-1-14-9 10-1a132 132 0 0 1-16-11l6-1-10-8 4-1-14-12 4-1a51 51 0 0 0-9-8l3-1-12-12 3-1-9-9 3-1a490 490 0 0 1-18-19.5 12.9 12.9 0 0 0 5-.5l-17-21 7-1-13-17 5-1a700 700 0 0 1-13-21.5l5-2a205 205 0 0 1-9-17q2.318-1.428 5-1" style="opacity:1"/><path fill="#657d32" d="M624.5 676.5q.658-.098 1 .5-5.889 6.365 3 5a164 164 0 0 1-20 22l4 1-19 17 2 1a185.4 185.4 0 0 1-30 21l3 1q-17.163 11.1-37 17l16 1q-12.768 6.55-27 7a109 109 0 0 0 14-4l-2-.5q-18.81 4.44-38 2.5a103.8 103.8 0 0 0 25 3q-24.094 2.15-46-8l16-1a148.4 148.4 0 0 1-36-17l3-1a602 602 0 0 1-27-19q-4.164-2.668 1-3l-19-17 4-1-7.5-7.5q-1.026-1.926.5-3.5a180 180 0 0 0-8.5-9.5q-.684-1.866 1.5-2.5-2.717-1.561-1-3.5l8 7 11 12q6.082 10.34 16 17.5l-1 1q17.56 17.39 41 29l-3 1q25.492 12.755 49 9a107.2 107.2 0 0 0 27-9l-2-1q23.369-11.92 43-29l-2-1 11-9-1-1q6.85-4.596 11-11.5l6-7z" style="opacity:1"/><path fill="#d0d2d5" d="M660.5 677.5q1.61 1.126.5 3a129 129 0 0 1-12 15q-6.983 12.995-18.5 22.5l1 1a192 192 0 0 1-17 16l1 1a218 218 0 0 1-20 15q-2.841 1.651-2 4a508 508 0 0 1-26 15.5q-21.473 14.656-47 16 39.393-17.186 74-42a32 32 0 0 0 6-3.5 832 832 0 0 0 48.5-48.5 60.4 60.4 0 0 0 5.5-8 44.4 44.4 0 0 0 6-7" style="opacity:1"/><path fill="#e0e0e6" d="M408.5 684.5q103.253-.499 206 1l-6 7a187 187 0 0 1-39 29h-116a248 248 0 0 1-34-25z" style="opacity:1"/><path fill="#d0d2d6" d="M363.5 678.5a138 138 0 0 0 13 15 313.6 313.6 0 0 0 52 51q36.324 28.173 80 44-18.466-.826-40-9.5-19.414-10.662-39-24 .841-2.349-2-4l-16-12q-8.438-9.966-19-20l1-1a241 241 0 0 1-18-19l1-1-13.5-17.5q-1.038-1.405.5-2" style="opacity:1"/><path fill="#708338" d="M333.5 688.5a112 112 0 0 0 9 11 182 182 0 0 0 14 18q-2.782-.342-2.5 2 8.236 10.802 18.5 21.5l-6 1a51 51 0 0 0 8 9l-2 1 12 12-3 1a63.7 63.7 0 0 0 10 9l-4 1a94.3 94.3 0 0 0 14 12l-4 1 10 8-2 1 16 12-3 1a57.7 57.7 0 0 0 12 8l-4 1 19 11-3 1a113.4 113.4 0 0 0 18 9l-6 1a189 189 0 0 0 24 10l-6 1a126.4 126.4 0 0 0 34 8l-18 1q23 5 46 0l-18-1q17.8-.7 34-8l-6-1a165.6 165.6 0 0 0 23-10l-5-1a206 206 0 0 0 17-9l-3-1 19-11-4-1 12-8-3-1a239 239 0 0 0 17-12l-3-1a102 102 0 0 1 11-8l-4-1a94.3 94.3 0 0 0 14-12l-3-1a63.7 63.7 0 0 1 10-9l-4-1a85.4 85.4 0 0 0 11.5-10.5q.684-1.866-1.5-2.5l9-9a20.2 20.2 0 0 1-6-1.5 607 607 0 0 0 19-22.5 4.93 4.93 0 0 0-3-.5 308 308 0 0 0 14-19l7-8q1.575.607 0 2a6.8 6.8 0 0 0 3 1.5 82 82 0 0 1-7 10q2.184.634 1.5 2.5a55.5 55.5 0 0 1-5.5 7 10.3 10.3 0 0 0 4 1.5 30 30 0 0 1-6 7l2 1a174 174 0 0 1-18 21l3 1q-6.771 10.146-16 19l3 1q-7.5 9.5-17 17l4 1-11 9 1 1a102 102 0 0 0-11 8l4 1-13 9 4 1a31.3 31.3 0 0 1-8 5q-2 1 0 2l-14 9 4 1-14 8 6 1-17 9 2 1q-8.955 3.975-18 8l8 1a131 131 0 0 1-20 8l11 1a268 268 0 0 1-22 6l22 1q-42.037 14.997-84 0l22-1a112 112 0 0 1-20-6l9-1a282 282 0 0 1-21-8l9-1a153 153 0 0 1-18-8l2-1-18-9 6-1-14-8 4-1a129 129 0 0 0-13-8l-1-3a41 41 0 0 1-7-5l3-1-12-9 3-1q-8.55-9.496-20-18l4-1q-9.5-7.5-17-17l3-1-16-19a6.8 6.8 0 0 0 3-1.5 788 788 0 0 1-15.5-18q-1.33-5.814-6.5-10.5a10.3 10.3 0 0 0 4-1.5 76 76 0 0 0-6-8.5l2-1a82 82 0 0 1-7-10l4-1q-2.305-1.665-2-4.5" style="opacity:1"/><path fill="#7c9b43" d="M750.5 693.5h16a76.5 76.5 0 0 0-4 11q55.755-.498 111 1a54.3 54.3 0 0 1-4 9q-56.509.5-113-1 3.247-3.988 4-9h-11a12.9 12.9 0 0 1-5-.5q4.267-4.584 6-10.5" style="opacity:1"/><path fill="#657734" d="M608.5 692.5q-4.15 6.904-11 11.5l1 1-11 9 2 1q-19.631 17.08-43 29l2 1a107.2 107.2 0 0 1-27 9q-23.508 3.755-49-9l3-1q-23.44-11.61-41-29l1-1q-9.918-7.16-16-17.5a248 248 0 0 0 34 25 59.4 59.4 0 0 0 7 5.5 375 375 0 0 1 23 12 144 144 0 0 0 27 9.5q31.262-9.885 59-27a187 187 0 0 0 39-29" style="opacity:1"/><path fill="#7c9543" d="M273.5 704.5a59.3 59.3 0 0 1 7.5 14l3.5 3.5a2600 2600 0 0 0-125 2.5 2018 2018 0 0 1-6-10q56.509.5 113-1-3.246-3.988-4-9zm476 0h11q-.753 5.012-4 9 56.491 1.5 113 1a2018 2018 0 0 1-6 10q-60.98-2.991-123-2a2516 2516 0 0 1 9-18" style="opacity:1"/><path fill="#6a8338" d="M356.5 717.5q16.5 18.5 35 35l1 2a25 25 0 0 0-7 .5l10 9-4 1a39.8 39.8 0 0 1 8 7l-5 1a284 284 0 0 0 22 18l1 3a52.2 52.2 0 0 1 10 7l-4 1 14 9q-2 1 0 2a59 59 0 0 1 9 5l-4 1a206 206 0 0 0 17 9l-1 1a74.3 74.3 0 0 0 15 6.5q.626 1.083 2 1.5l-4 1a110.2 110.2 0 0 0 33 9l-10 1a104.4 104.4 0 0 0 35 0l-11-1a110.2 110.2 0 0 0 33-9l-5-1q1.855-.348 3-1.5 7.514-3.258 15-6.5l-2-1a206 206 0 0 0 17-9l-4-1q9.68-7.965 22-15l1-1-4-1a65 65 0 0 0 9-6q2.841-1.651 2-4a149.7 149.7 0 0 0 23-18l-5-1a39.8 39.8 0 0 0 8-7l-4-1 10-9q-3.312-.287-6-1.5a85.7 85.7 0 0 0 11-11 442 442 0 0 0 25-25 4.93 4.93 0 0 1 3 .5 607 607 0 0 1-19 22.5 20.2 20.2 0 0 0 6 1.5l-9 9q2.184.634 1.5 2.5a85.4 85.4 0 0 1-11.5 10.5l4 1a63.7 63.7 0 0 0-10 9l3 1a94.3 94.3 0 0 1-14 12l4 1a102 102 0 0 0-11 8l3 1a239 239 0 0 1-17 12l3 1-12 8 4 1-19 11 3 1a206 206 0 0 1-17 9l5 1a165.6 165.6 0 0 1-23 10l6 1q-16.2 7.3-34 8l18 1q-23 5-46 0l18-1a126.4 126.4 0 0 1-34-8l6-1a189 189 0 0 1-24-10l6-1a113.4 113.4 0 0 1-18-9l3-1-19-11 4-1a57.7 57.7 0 0 1-12-8l3-1-16-12 2-1-10-8 4-1a94.3 94.3 0 0 1-14-12l4-1a63.7 63.7 0 0 1-10-9l3-1-12-12 2-1a51 51 0 0 1-8-9l6-1q-10.264-10.698-18.5-21.5-.282-2.342 2.5-2" style="opacity:1"/><path fill="#333434" d="M959.5 629.5q.635 1.147 1 2.5a137 137 0 0 0-3 6.5q2.283 2.484-1 3.5 2.138 2.57-1 4a26 26 0 0 1 0 5.5 103 103 0 0 1-3 5l1 2a92 92 0 0 1-3 4.5q.686.621 1 1.5l-4 2 2 4a92 92 0 0 1-3 4.5q1.128 1.006 1 2.5-3.222-.166-1 2-19.216 53.168-52 102.5a64 64 0 0 1-7 8l1 1a25.1 25.1 0 0 1-8 5q1.526 1.574.5 3.5-1.946-1.926-3.5.5 1.87 2.241 0 4.5-3.507-2.266-2 1a126 126 0 0 1-20.5 25q-2.972 4.688-7.5 8.5l2 2q-17.323 18.34-36 34-8.93 9.857-20 15 1.84 2.381-1 4-3.912 2.779-7-.5-2.166 2.222-2-1a12.6 12.6 0 0 1 2.5-4l1 1 3-4q1 2 2 0l2-4q1.077 1.426 2.5.5a32.4 32.4 0 0 1 3-4.5 3.65 3.65 0 0 1 1.5 1 47 47 0 0 0 3.5-5.5q1.423-.926 2.5.5 2.646-5.874 8.5-8 3.79-7.041 11-10.5 32.41-31.813 58-67l-1-1q2.909-1.362 3-4.5a4.93 4.93 0 0 0 3-.5l-1-1q5.595-7.433 10-14-2-2.76.5-1.5 3.599-9.203 8-16l1 1q.933-3.347 3.5-5.5-2-2.76.5-1.5a190 190 0 0 0 4.5-10 4.46 4.46 0 0 1 2-1.5v-3q2.701-.476 1-2 2.701-.476 1-2 6.497.212 2-4l9-17a3.65 3.65 0 0 1-1-1.5 32.4 32.4 0 0 0 4-5.5q-1.701-1.524 1-2v-4l2-1v-4a13.9 13.9 0 0 1 3-4q-.841-2.349 2-4-1.972-2.092 1-3-1.426-1.077-.5-2.5.981 1.794 1.5 0-1.597-3.53.5-7 4.101-1.293.5-2.5.284-3.442 4-6-2.895-3.915 2-7-2.895-3.915 2-7-.247-1.676-1-3.5 1.158-3.466 3-7 1.105-2.594 4-3" style="opacity:1"/><path fill="#313231" d="M937.5 720.5q-59.831 134.328-187 208a617 617 0 0 0 64-46.5q25.84-21.59 47-47.5 46.186-51.322 76-114" style="opacity:1"/><path fill="#d8dfe5" d="M453.5 721.5h116q-27.738 17.115-59 27a144 144 0 0 1-27-9.5 375 375 0 0 0-23-12 59.4 59.4 0 0 1-7-5.5" style="opacity:1"/><path fill="#6a7d38" d="M392.5 754.5a330.7 330.7 0 0 0 62 43q-3.895.332 0 1.5l-25 1a239 239 0 0 0 31 18l-9 1a276 276 0 0 0 35 16 85 85 0 0 1-13 .5 74.3 74.3 0 0 1-15-6.5l1-1a206 206 0 0 1-17-9l4-1a59 59 0 0 0-9-5q-2-1 0-2l-14-9 4-1a52.2 52.2 0 0 0-10-7l-1-3a284 284 0 0 1-22-18l5-1a39.8 39.8 0 0 0-8-7l4-1-10-9a25 25 0 0 1 7-.5m239-1q2.688 1.213 6 1.5l-10 9 4 1a39.8 39.8 0 0 1-8 7l5 1a149.7 149.7 0 0 1-23 18q.841 2.349-2 4a65 65 0 0 1-9 6l4 1-1 1q-12.32 7.035-22 15l4 1a206 206 0 0 1-17 9l2 1q-7.486 3.242-15 6.5a85 85 0 0 1-13-.5 394 394 0 0 0 34-16l-8-1a959 959 0 0 1 31-18q-14.991-.75-30-.5a1830 1830 0 0 0 48-29.5 482 482 0 0 0 20-16.5" style="opacity:1"/><path fill="#7c8e3d" d="M325.5 764.5a110 110 0 0 1 8 9.5l-10 1 12 12q-64.998.75-130 .5a803 803 0 0 0-4-5q56.509.5 113-1a27.8 27.8 0 0 1-6-8 183 183 0 0 1 19-1.5l-6-7a8.4 8.4 0 0 1 4-.5m372 0a12.9 12.9 0 0 1 5 .5l-7 7q9.487.75 19 .5-1.077 5.613-6 9 56.491 1.5 113 1a803 803 0 0 0-4 5q-64.507.5-129-1a179 179 0 0 1 11-11.5l-10-1q4.88-4.12 8-9.5" style="opacity:1"/><path fill="#6a7d33" d="M454.5 797.5a433 433 0 0 1 25 12 163 163 0 0 0-18 .5l16 8-10 1a339 339 0 0 0 27 11l-9 1q26.02 8.999 52 0l-9-1a339 339 0 0 0 27-11l-10-1a161 161 0 0 0 15-8 145 145 0 0 0-17-.5l20-10q15.009-.25 30 .5a959 959 0 0 0-31 18l8 1a394 394 0 0 1-34 16q6.481.749 13 .5-1.145 1.152-3 1.5l5 1a110.2 110.2 0 0 1-33 9l11 1a104.4 104.4 0 0 1-35 0l10-1a110.2 110.2 0 0 1-33-9l4-1q-1.374-.417-2-1.5a85 85 0 0 0 13-.5 276 276 0 0 1-35-16l9-1a239 239 0 0 1-31-18l25-1q-3.895-1.168 0-1.5" style="opacity:1"/><path fill="#758838" d="M342.5 744.5a490 490 0 0 0 18 19.5l-3 1 9 9-3 1 12 12-3 1a51 51 0 0 1 9 8l-4 1 14 12-4 1 10 8-6 1a132 132 0 0 0 16 11l-10 1 14 9-14 1a137 137 0 0 0 16 10q-67.754.25-135 1.5a169 169 0 0 1-20-15q58.002.25 116-.5a29.1 29.1 0 0 1-10-7.5 267 267 0 0 1 23-1.5 71 71 0 0 0-11-9l10-1a30 30 0 0 1-7-6l6-1a112 112 0 0 1-11-9l2-1a85 85 0 0 0-8-7.5 6.8 6.8 0 0 1 3-1.5 108 108 0 0 0-9-8.5 10.3 10.3 0 0 1 4-1.5 63.7 63.7 0 0 0-10-9l1-1-6-7 3-1-15-19a4.93 4.93 0 0 1 3-.5m327 20a4.93 4.93 0 0 1 3 .5q-5.936 8.995-15 17l4 1a63.7 63.7 0 0 1-10 9l4 1a80.6 80.6 0 0 0-9 8l3 1-12 9 6 1-8 6 11 1-13 9a314 314 0 0 1 25 1.5 86.4 86.4 0 0 0-10 7.5q57.998.75 116 .5a169 169 0 0 1-20 15 9344 9344 0 0 0-137-1.5 137 137 0 0 0 16-10l-13-1a97 97 0 0 0 14-9l-9-1 15-11-6-1a102 102 0 0 0 11-8l-4-1 14-12-4-1a80.6 80.6 0 0 0 9-8l-3-1a696 696 0 0 0 22-22.5" style="opacity:1"/><path fill="#647d33" d="M479.5 809.5a159.3 159.3 0 0 0 32 11 227 227 0 0 0 32-11q8.514-.249 17 .5a161 161 0 0 1-15 8l10 1a339 339 0 0 1-27 11l9 1q-25.98 8.999-52 0l9-1a339 339 0 0 1-27-11l10-1-16-8a163 163 0 0 1 18-.5" style="opacity:1"/><path fill="#404145" d="M179.5 817.5q55.265 58.79 126 97a2.43 2.43 0 0 1-.5 2q-4.04-1.6-5.5 3-.751-5.376-6-9-1.5.5-2 2a19.2 19.2 0 0 1 3 5q-1.875-.116-2.5-2l-1 1a9.5 9.5 0 0 0-1.5-2.5q1.972-2.092-1-3 1.291-3.481-3-3.5-.483 3.334 2 5.5-2.112.473-4-1l1-1q-3.103-.486-1-2.5-3.185-8.017-4 1 .017-1.412-1.5-2-2.197 1.245-4.5.5l2-1q-2.701-.476-1-2-1.866-.684-2.5 1.5-2.765-4.73 2.5-3.5-2-1 0-2-1.573-.738-3 .5a12.4 12.4 0 0 1-2.5-4l-1 1q-6.399-3.513-10-8-2.574 1.578-3-2l-1 2q-3.492-1.479-6-6l-1 1-1-3q-2.014 1.07-4-1a7.3 7.3 0 0 1-2 3 108 108 0 0 0-13.5-10.5 6.55 6.55 0 0 0-3-3l1-1-4-1a71 71 0 0 1-5-8 9.5 9.5 0 0 1-2.5-1.5q-.634 2.184-2.5 1.5-2.363-3.907-3.5-8.5-1-2-2 0l-3-3-1 2q-9.75-7.75-17.5-17.5l3-3a40 40 0 0 0-9-6l1-1q-2.841-1.651-2-4l-6-3 3-1q-3.143-.834-.5-1.5a19.3 19.3 0 0 0 6.5 3" style="opacity:1"/><path fill="#282829" d="M353.5 953.5q2.706 1.824 5 3-2.794.519-2.5 3 2.092-1.972 3 1 3.972-2.715 7 0 1.998-3.654 3.5 0-1.966 1.137-1.5 3 2.092-1.972 3 1 2.395-.21 4.5 0 1.817 1.16 0 2.5a523 523 0 0 0 93 19 8.4 8.4 0 0 1-4 .5q-62.185-5.608-120.5-28-2.643.666.5 1.5 51.135 19.656 105 27.5-213.874-28.488-332.5-207-47.574-74.165-63.5-161a2335 2335 0 0 0 18.5 65A149.5 149.5 0 0 1 82.5 710a44.8 44.8 0 0 1 5.5 9.5q-3.62-12.524-9.5-24.5a4.46 4.46 0 0 0 2-1.5 357 357 0 0 1-5.5-14q-.981 1.794-1.5 0v-5l-2-1v-5l-2-1 1-2a21 21 0 0 1-2.5-1 20.1 20.1 0 0 1-1.5-6q.635-1.147 1-2.5a874 874 0 0 1-9-34.5 9.1 9.1 0 0 0 1-5q1.295-1.444 2 0-2.205 2.972 1 5-2.38 2.919 1 4.5-2.138 2.57 1 4a43 43 0 0 0 0 6.5l2 2q-2.283 2.484 1 3.5a43 43 0 0 0 0 6.5 92 92 0 0 0 3 4.5 26 26 0 0 1 0 5.5 92 92 0 0 0 3 4.5q-1.972 2.092 1 3v5a4.46 4.46 0 0 1 2 1.5q-2.103 2.014 1 2.5-.21 2.395 0 4.5 2.827 1.045 1 3a59 59 0 0 0 5 9q-2.103 2.014 1 2.5-1.157 2.997 2 5-1.7 1.524 1 2-1.425 1.077-.5 2.5 2.5-1.26.5 1.5l3 3q-4.165 3.26.5 1.5 2.052 2.24.5 4.5l3 3a4.94 4.94 0 0 0-1 2.5q1.656 5.652 5 8.5-1.7 1.524 1 2-1.7 1.524 1 2-1.7 1.524 1 2-1.17 1.61.5 3.5 1.077-1.426 2.5-.5v3l2 1q-1.701 1.524 1 2v5l4 2v5l4 2q-.984 3.495 3 5-.984 3.495 3 5-1.268 2.337 2 3l-1 3q3.268.663 2 3l4 2-2 1a19 19 0 0 1 5 3l-1 1q4.19 7.635 9.5 14.5 40.64 51.333 86.5 89 2.555 2.085 2 4.5 1.574.738 3-.5 1.817 1.16 0 2.5 2.064 3.814 3.5.5 4.61 4.812 10 6a148 148 0 0 0 10 9l1-1 10 8 1-1q1.67 1.89.5 3.5 1.866.684 2.5-1.5l4 4 1-1 11 8h3q.476 2.701 2 1 4.904 3.05 8 6h3q.476 2.701 2 1 .476 2.701 2 1 .476 2.701 2 1 .476 2.701 2 1 .476 2.701 2 1 .486 3.103 2.5 1l6 3q.747 1.654 1 3a4.46 4.46 0 0 0 1.5-2l3 3q1.67-1.816 3.5 0 .747 1.654 1 3 1.561-3.736 2.5 0 3.284-1.626 5 2 3.284-1.626 5 2 3.445-.058 7-1 1.75 5.75 3.5 0" style="opacity:1"/><path fill="#1c1c1d" d="M88.5 720.5q63.961 132.714 191 207.5a866 866 0 0 0 35 18q-1.5 1-3 0Q173.679 880.175 100 746.5a453 453 0 0 0-11.5-26" style="opacity:1"/><path fill="#29292a" d="M947.5 677.5a66 66 0 0 1-2.5 11 9782 9782 0 0 0-11.5 26.5q1.245 2.197.5 4.5-30.13 63.39-75 116 1.006-1.128 2.5-1-21.16 25.91-47 47.5a617 617 0 0 1-64 46.5q-48.148 29.56-103 44 59.035-19.35 112-52 2.09-1.526 1-3-42.936 27.217-91 44a8.4 8.4 0 0 1-4-.5 175 175 0 0 0 14-5q-2.184-.634-1.5-2.5.621.686 1.5 1 3.558-.447 6.5-4 1.524 1.701 2-1 4.327 1.102 7-3 .621.686 1.5 1 14.493-6.484 30-14.5 1.863-5.035 2.5.5a64.8 64.8 0 0 1 11.5-6.5l-2-1q3.137-2.512 6.5-1.5 4.101-1.293.5-2.5 2.24-2.052 4.5-.5a826 826 0 0 0 25.5-16.5q-3.736-.939 0-2.5-1.553-2.442 0-5 1.083.626 1.5 2 4.09-1.862 6.5-7-.166 3.222 2 1 3.088 3.279 7 .5 2.84-1.619 1-4 11.07-5.143 20-15 18.677-15.66 36-34l-2-2q4.528-3.812 7.5-8.5a126 126 0 0 0 20.5-25q-1.507-3.266 2-1 1.87-2.259 0-4.5 1.554-2.426 3.5-.5 1.026-1.926-.5-3.5a25.1 25.1 0 0 0 8-5l-1-1a64 64 0 0 0 7-8q32.784-49.332 52-102.5-2.222-2.166 1-2" style="opacity:1"/><path fill="#6f8237" d="M676.5 890.5a499 499 0 0 1-58 21 5726 5726 0 0 0-214 0q-30.194-7.562-58-21 64.008.5 128-1a333 333 0 0 0-24-7.5 3719 3719 0 0 1 122 0 201 201 0 0 1-24 7.5q63.992 1.5 128 1" style="opacity:1"/><path fill="#414444" d="M845.5 815.5q.014 2.712-1.5 5-1 2-2 0-9.175 8.289 1.5 2a26.6 26.6 0 0 1 2 3.5q-5.037 1.93-4.5 6.5-15.054 18.07-33.5 31.5l-1 3q-5.104 2.1-8.5 6.5l-1-1q-1.5 4-3 0-2.442 1.978.5 4-5.6 2.472-9 7.5-2.8 1.066-4.5-1.5a11.3 11.3 0 0 1-1.5 3.5l2 1q-2.342.477-3.5 2.5-2.76-2-1.5.5l-3 1q1.26 2.5-1.5.5l-1 3q-2.76-2-1.5.5l-3 1 1 1-4 1 1 1-7 3 1 1-12 6 1 1q-23.145 13.092-49 25.5a3.65 3.65 0 0 1-1.5-1 57 57 0 0 0-7.5 5 3.65 3.65 0 0 1-1.5-1q-3 2-5 5a4.46 4.46 0 0 0-1.5-2q-2.545 1.296-3.5 4a4.46 4.46 0 0 0-1.5-2 15 15 0 0 0-3.5 3 3.65 3.65 0 0 0-1.5-1l-2.5 3-1-2-3 3q-1-2-2 0l-1 3q-2.065-5.648-3 1-2.083-5.658-3 0-2.668-4.164-3 1-3.053-3.618-3 2a7.3 7.3 0 0 0-2-3q-.629 6.528-2 1-.908 2.972-3 1-.425 4.863-2.5 1-1.388 1.711-2.5 0l-1 4q-1-6-2 0-2.349.841-4-2-.629 6.528-2 1-1 6-2 0l-3 4-1-3-3 4-1-3-3 4-1-3q-.622 2.686-3 4-2.097-.826-4-1-1.461 3.567-2-1-.426 3.578-3 2-1 4-2 0a193 193 0 0 1-4 3l-1-3q-3 1-4 4-1.037-3.586-3 0-1.74-3.446-3 1-1.037-3.586-3 0-1.74-3.446-3 1-1.526-3.792-3.5 0-2.224-3.668-3.5 1-1.732-3.686-4 0-1.98-3.124-4 1a4.46 4.46 0 0 0-1.5-2l-3 2a4.46 4.46 0 0 1-1.5-2q-3.026 5.373-5 0a15 15 0 0 1-3.5 3q-3.383-3.281-6.5 1-.552-2.115-2.5-3a14.8 14.8 0 0 1-5.5 3q-5.66-3.486-11 1-2.235-1.225-4.5-2.5a100.2 100.2 0 0 0-20 0 10.8 10.8 0 0 1-3 2.5q-5.351-4.743-11-1a43 43 0 0 1-5.5-3q-2.48.48-3 3-2.586-4.846-6-1a15 15 0 0 0-3.5-3q-2.322 3.633-5 0a4.46 4.46 0 0 0-1.5 2q-2.259-4.46-5-1a54 54 0 0 1-6-3l-2 2q-1.5-4-3 0-1.304-4.894-4-1a193 193 0 0 1-4-3l-2 2a193 193 0 0 1-4-3l-2 2q-1-6-2 0-.873-4.752-3-1-1-4-2 0-1.26-4.446-3-1-1-4-2 0-.332-5.164-3-1l-3-3q-1 4-2 0-1.461 3.567-2-1l-3 1q-.476-2.701-2-1-3.064-3.031-6-1l-1-2q-1 2-2 0-1.461 3.567-2-1l-3 1a456 456 0 0 1-4-3l-1 2q-3.392-2.824-6.5-4l-1 2a6.8 6.8 0 0 1-1.5-3l-1 1q-1.28-2.437-3-1-1.28-2.437-3-1a1583 1583 0 0 1-8.5-4q-24.247-8.707-52-22.5 1.426-1.077.5-2.5-2.233-2.748-5.5-2.5l3 2.5q-5.077.281-10-2.5 3.168-1.825-1-3.5a19.2 19.2 0 0 0-3-5q.5-1.5 2-2 5.249 3.624 6 9 1.46-4.6 5.5-3a2.43 2.43 0 0 0 .5-2q65.481 32.91 138 44.5 237.967 29.444 402-143.5" style="opacity:1"/><path fill="#688137" d="M404.5 911.5a5726 5726 0 0 1 214 0q-106.981 27.96-214 0" style="opacity:1"/><path fill="#303032" d="M775.5 897.5q-1.553 2.558 0 5-3.736 1.561 0 2.5a826 826 0 0 1-25.5 16.5q-2.26-1.552-4.5.5 3.601 1.207-.5 2.5-3.363-1.012-6.5 1.5l2 1a64.8 64.8 0 0 0-11.5 6.5q-.637-5.535-2.5-.5-15.507 8.016-30 14.5a3.65 3.65 0 0 1-1.5-1q-2.673 4.102-7 3-.476 2.701-2 1-2.942 3.553-6.5 4a3.65 3.65 0 0 1-1.5-1q-.684 1.866 1.5 2.5a175 175 0 0 1-14 5 8.4 8.4 0 0 0 4 .5 319 319 0 0 1-33 11l-4-1q-83.316 21.567-168 15a8.4 8.4 0 0 0 4-.5 523 523 0 0 1-93-19q1.817-1.34 0-2.5-2.105-.21-4.5 0-.908-2.972-3-1-.466-1.863 1.5-3-1.502-3.654-3.5 0-3.028-2.715-7 0-.908-2.972-3-1-.294-2.481 2.5-3 1.473-.961 3-2 1.045 2.827 3 1 4.379 1.026 7.5 4l1-1 5 3 1-1q1.392 2.752 3.5 1a63 63 0 0 0 5.5 3q2.712-.582 5 0l2 2a26 26 0 0 1 5.5 0q1.807 2.457 4 1l6 4q2.341-1.27 4.5 1a57 57 0 0 1 6.5 0q4.206 1.347 8.5 3a3.65 3.65 0 0 1 1.5-1q3.072 1.905 6 1 3.452 2.184 7 1 3.287 2.78 7 1 7.183.798 14.5 3l3-1q7.104 3.726 13-1a51.7 51.7 0 0 0 9.5 1.5l-7 1 12 1.5a178 178 0 0 1 14.5-3l14.5 3q6.514-.627 13-1.5l-7-1q6-1 12 0l-1 1 2.5.5a393 393 0 0 1 18.5-3q1.19.647 2.5 1 3.807-2.068 7.5-1 7.703-.792 15.5-4a11.3 11.3 0 0 1 3.5 1 157 157 0 0 0 8.5-3q.621.686 1.5 1 2.504-2.085 5-1 9.64-4.887 18.5-7 8.068 3.026 14-4 .621.686 1.5 1 19.638-6.483 41-14.5 48.177-20.125 93-50.5" style="opacity:1"/><path fill="#1f2121" d="M647.5 972.5q-46.29 14.205-95 17.5-51.858 3.824-103-2.5-53.865-7.844-105-27.5-3.143-.834-.5-1.5 58.315 22.392 120.5 28 84.684 6.567 168-15l4 1a319 319 0 0 0 33-11q48.064-16.783 91-44 1.09 1.474-1 3-52.965 32.65-112 52" style="opacity:1"/></svg>