<svg xmlns="http://www.w3.org/2000/svg" xmlns:xlink="http://www.w3.org/1999/xlink" width="256" height="256"><defs><linearGradient id="a"><stop offset="0" style="stop-color:#794d3b;stop-opacity:1"/><stop offset="1" style="stop-color:#5e3c2e;stop-opacity:1"/></linearGradient><linearGradient id="b"><stop offset="0" style="stop-color:#e5dfdd;stop-opacity:1"/><stop offset="1" style="stop-color:#fff;stop-opacity:1"/></linearGradient><linearGradient id="c"><stop offset="0" style="stop-color:#ffba00;stop-opacity:1"/><stop offset="1" style="stop-color:#ff7f02;stop-opacity:1"/></linearGradient><linearGradient xlink:href="#a" id="h" x1="332.25" x2="332.25" y1="369.857" y2="522.875" gradientUnits="userSpaceOnUse"/><linearGradient xlink:href="#b" id="g" x1="369.239" x2="369.239" y1="-117.549" y2="-183.117" gradientTransform="translate(0 564.666)" gradientUnits="userSpaceOnUse"/><linearGradient xlink:href="#a" id="e" x1="332.25" x2="332.25" y1="369.857" y2="522.875" gradientUnits="userSpaceOnUse"/><linearGradient xlink:href="#a" id="f" x1="332.25" x2="332.25" y1="369.857" y2="522.875" gradientUnits="userSpaceOnUse"/><radialGradient xlink:href="#c" id="d" cx="365.896" cy="-121.309" r="77.057" fx="365.896" fy="-121.309" gradientTransform="matrix(1.26778 .01427 -.01588 1.4103 -99.319 606.83)" gradientUnits="userSpaceOnUse"/></defs><g transform="matrix(1.17176 0 0 1.18375 -301.062 -386.64)"><path d="m421.126 370.596-.222 7.936-59.07 4.648-44.513 28.9-10.548 48.314s7.17 31.226 13.289 37.556 18.771 24.483 34.384 27.648 28.905 6.741 41.564 3.577c12.659-3.165 21.108-6.958 21.108-6.958l5.274-2.532s-1.298 1.136-3.381 2.597c25.191-16.15 41.877-44.403 41.877-76.548 0-31.237-15.757-58.786-39.762-75.138" style="fill:url(#d);fill-opacity:1;stroke:none"/><path d="M407.736 341.565s2.226-5.492 4.304-5.64 3.265 1.187 4.6 2.672c1.337 1.484 4.008 3.71 4.008 3.71s12.17-4.156 25.825 3.265 15.584 9.648 18.256 14.842c2.671 5.195 1.484 18.256 1.484 18.256l1.595 7.792-3.376 4.378-23.747-4.007-28.348-20.927z" style="fill:url(#e);fill-opacity:1;stroke:none"/><path d="m421.14 370.599-4.718 6.437-54.563 6.125-44.531 28.907-10.531 48.312s7.162 31.233 13.281 37.563c6.119 6.329 18.762 24.491 34.375 27.656s28.904 6.727 41.563 3.562c12.659-3.164 21.125-6.937 21.125-6.937l5.28-2.531s-1.322 1.132-3.405 2.593a91 91 0 0 0 8.218-5.968c-14.618 9.148-32.447 13.748-42.562 13.75-37.586 0-68.063-30.446-68.063-68.032 0-13.268 3.204-26.229 9.719-36.781 4.588 1.97 9.419 5.32 12.469 10.219.49.707.828 1.518 1.375 2.187 2.692 3.295 5.6 4.147 8.531 4.282 6.264.182 9.221-4.494 9.5-10.782.008-.493.045-.246.01-.678-.197-4.19-6.372-19.672-16.635-21.447a58 58 0 0 1 5.625-3.843c6.61-3.952 20.654-8.436 40.125-5.5 9.875 1.488 17.965 3.616 30.437 7.593 14.476 4.616 22.52 11.063 33.657 12.344 1.874.216 3.766.13 5.593-.219-6.072-20.1-18.903-37.252-35.875-48.812" style="fill:#000;fill-opacity:.15686275;stroke:none"/><path d="M364.27 330.976c-56.866 0-102.967 46.1-102.967 102.967s46.312 104.536 102.968 104.542c36.962 1.098 71.25-16.113 82.552-44.152-4.17 1.924-8.758 6.56-12.216 9.593-6.521 5.72-13.596 6.88-22.59 11.565-17.433 9.08-36.288 7.874-53.877 4.01-14.297-3.141-29.979-10.133-38.394-21.316s-13.354-37.742-13.354-37.742l10.6-48.552 44.734-29.045 59.361-4.67.223-7.976a91.8 91.8 0 0 1 23.063 22.59h14.299c-15.883-36.38-52.168-61.814-94.401-61.814" style="fill:url(#f);fill-opacity:1;stroke:none"/><path d="M402.892 361.817c-19.941.102-31.554 2.413-52.246 11.248-26.25 12.211-52.607 35.077-52.755 72.449-.173 43.553 35.315 78.856 78.869 78.856 22.506 0 46.741-8.222 61.108-23.342-15.462 12.947-40.943 17.048-52.974 17.05-37.585 0-68.31-27.96-68.31-65.546 0-23.747 11.64-41.242 30.606-52.58 6.61-3.95 20.645-8.444 40.117-5.509 9.875 1.489 17.963 3.619 30.435 7.596 14.475 4.615 22.538 11.063 33.675 12.344 12.684 1.46 26.084-10.493 16.189-29.084 0 0-1.794 1.79-3.293 2.69s-3.593-.289-9.59-2.388-6.9-4.509-15.296-10.206-8.392-11.987-32.98-13.486a50 50 0 0 0-3.555-.092" style="fill:url(#g);fill-opacity:1;stroke:none"/><circle cx="542.143" cy="384.505" r="17.857" style="fill:#3f3f3f;fill-opacity:1;stroke:none" transform="translate(200.991 207.89)scale(.43552)"/><circle cx="542.143" cy="384.505" r="17.857" style="fill:#3f3f3f;fill-opacity:1;stroke:none" transform="matrix(.22577 0 0 .28084 343.477 272.831)"/><path d="M334.292 381.213c-5.067 1.234-17.416 4.233-24.752 14.19-7.046 9.563-6.475 20.712-6.632 23.681 2.04-3.284 7.627-2.818 11.478-2.223 9.081 1.405 18.393 3.823 24.215 13.175.49.707.839 1.524 1.386 2.193 2.692 3.295 5.602 4.14 8.533 4.274 6.263.183 9.221-4.493 9.5-10.78.008-.493.002-.257-.033-.689-.207-4.378-6.927-21.079-18.012-21.593-.124-.004-.249-.003-.371-.01-6.15-.376-10.928-5.614-10.75-11.865.618-4.05 2.509-7.253 6.22-9.853z" style="fill:url(#h);fill-opacity:1;stroke:none"/><path d="M463.83 388.188s-1.01 1.745-3.187 2.79c-.895.43-2.465-.647-3.938.85-3.13 6.28 4.514 11.525 8.077 11.376 3.562-.148 6.372-3.737 6.223-6.854-.148-4.824-7.175-8.162-7.175-8.162" style="fill:#3f3f3f;fill-opacity:1;stroke:none"/><path d="M364.27 330.976c-56.866 0-102.967 46.1-102.967 102.967 0 .889.017 1.766.04 2.65 1.43-55.62 46.963-100.265 102.928-100.265 15.678 0 30.543 3.504 43.842 9.773.707-1.526 2.354-4.714 3.936-4.827 2.077-.149 3.255 1.192 4.591 2.676s4.014 3.712 4.014 3.712 12.163-4.154 25.818 3.267c13.654 7.42 15.59 9.642 18.26 14.837 1.112 2.162 1.555 5.686 1.693 9.065.145-4.272.06-11.01-1.692-14.417-2.672-5.195-4.607-7.417-18.261-14.838s-25.818-3.266-25.818-3.266-2.678-2.228-4.014-3.713-2.514-2.824-4.591-2.676c-1.582.113-3.23 3.301-3.936 4.828-13.299-6.269-28.164-9.773-43.842-9.773z" style="fill:#fff;fill-opacity:.15686275;stroke:none"/></g></svg>