<svg xmlns="http://www.w3.org/2000/svg" width="358" height="358" style="shape-rendering:geometricPrecision;text-rendering:geometricPrecision;image-rendering:optimizeQuality;fill-rule:evenodd;clip-rule:evenodd"><path fill="#796271" d="M184.5 1.5q4.848 2.242 7.5 7 2.952-5.584 5 0 .663-3.268 3-2 .926 1.424-.5 2.5-4.3 1.914-8.5.5.454 2.613 2.5 5 2.755-5.57 4.5 0a12.4 12.4 0 0 1 2.5-4q2.322 3.762 3-1 1.083.627 1.5 2 .663-3.268 3-2 .74-2.45.5-5 2.146.57 2.5 3 1.065-2.21 3.5-2l4 1a39.5 39.5 0 0 1 5 2.5q-2.858 1.24-1 3.5 4.227-3.451 4 3a13.1 13.1 0 0 1 7 1q-4.308 1.923-8.5 0-1.212 3.119.5 6l2-2q3.06 6.714-4.5 7a3.94 3.94 0 0 1-2-1q-1.495 4.95-1 10a34 34 0 0 1 3-6q1.5 4 3 0 2.668 4.164 3-1 2.191 2.075 2.5-1 1.083.626 1.5 2 1.461-3.567 2 1l1-2a43.4 43.4 0 0 1 2 8q.575.834 1.5 1 .465 1.857 1.5 0-1.136 6.212 5 9l3-3 1.5 3a19.3 19.3 0 0 1-3 5l-4 1q-1.314.195-2-1a26.6 26.6 0 0 1 3.5-2q.599-3.665-2.5-2 1.509 1.343 0 2-2.724-1.852-5 0a19.2 19.2 0 0 0-6.5 3q.696 2.54 2.5 5a5.73 5.73 0 0 0 3-1q.687 4.215 4 2a19.2 19.2 0 0 0 6-1v1q.305 2.317 2 4-3.504 2.36 0 4 3.38-2.925 1-7 1.337-1.635 3 0 1.689-1.963 0-4 1.494-.128 2.5 1 .299-2.855 2.5-4.5-.342-.598-1-.5 1.08-3.543-2-6.5 4-1.5 0-3 .834-.575 1-1.5 0-2 2-2 1.314-.195 2 1a103 103 0 0 0 5 11q4.445-3.96 1-9.5a3.65 3.65 0 0 0 1-1.5 26 26 0 0 1-3-5q-8.232-2.98-13.5-10-1.062 1.32-2.5 2 1.076-2.455.5-5a12.14 12.14 0 0 1-4.5-3.5q3.496.236 7 1.5-2.301-7.932 4.5 0-.457 2.915 0 6 1 2 2 0 1.679 1.578 1.5 3.5a23 23 0 0 0 5 2l-1 1q5.986 2.233 7 8.5.143 3.429 2 6a36 36 0 0 1 2 4.5q3.487.738 4-3-3.57-15.417-17-23.5.686-1.195 2-1h1q1.18 2.406 4 2-.276 4.232 4 5 .747-1.654 1-3a6.85 6.85 0 0 0 4 1q1.5.5 2 2v2q3.621 2.76 5 7v2q-.895.352-1 1.5l2 5q-1.937 3.075-1.5 6.5 1.434-2.09 4-2a24.5 24.5 0 0 1 6.5 4v5h3q.975 2.903 1 6v1q-1.589 2.355 1.5 4a8.4 8.4 0 0 1 .5 4q.406 2.82-2 4-1.314-.195-2 1 2.273 3.07 2.5 7l14.5 8.5a401 401 0 0 1 16-.5q2.521 2.261 6 3 .71 2.11 3 2 .5 1.5 2 2 .915 1.337 1 3v1q.915 2.901 3 5a45 45 0 0 1-1 10q-3.382 6.398-3 14v1q-2.758.715-5.5 1-.304 2.836 1.5 5-.356 1.936 1 3v1q-1.946 3.29 0 7 1.881-3.057 5-5 2.47 1.918 3.5 5a18.5 18.5 0 0 0 3.5 2q.148 4.709 4 7 0 1 1 1 .755 5.31 3 10v4q-1.401 1.602-1 4v2q-2.618 2.3-3 6-1.815.648-3 2-2.322.481-2 3a4.93 4.93 0 0 0-3 .5 145 145 0 0 0-5 4.5 5.73 5.73 0 0 1-1 3q-4.278-1.137-8 0-2.406 1.18-2 4-4.158.388-7 3-1.272 1.688-3 0-2.11.71-2 3-2.643 1.144-3 4l-3 4q-3.312 2.127-2.5 6 3.94-3.732 8.5-.5a42.4 42.4 0 0 1 1.5 8.5q.574.834 1.5 1-.201 2.688 1 5 1.757 1.267 4 2l-1 6h3q3.281 3.009 2 7-.814.09-1 1 2.38 2.51 2 6-1.522 1.44 0 3.5-1.721 4.599-5 8 .686.621 1 1.5a44 44 0 0 0-3 2q-1.933 2.622-4.5 1a2.43 2.43 0 0 0-.5 2q-.5 1.5-2 2a44 44 0 0 0-3-2 68.6 68.6 0 0 0 8.5-6q.792-1.974-1.5-2 1.188-2.2 0-4-2.532 1.532-4 4a7.5 7.5 0 0 1-3-2q.572-3.361.5-7a11.5 11.5 0 0 0 3.5-5q5.196-2.562-2-2a4.93 4.93 0 0 1-.5 3q-5.494 1.989-2.5 7h-3q.255 1.983-1 3.5 2.157.328 4 1.5-2.344 3.793-7 3 .305-2.317 2-4l-3-4q3.603-4.889 4-10-2.672 2.96-6.5 4l-1-2q-.477 2.342-2.5 3.5 4.98 1.892 1 5 3.558 2.206 0 3.5-4.444-3.214-10-3a20.7 20.7 0 0 1 1 5 29.8 29.8 0 0 1-8.5-3 41 41 0 0 0-5.5 2.5 74 74 0 0 0 5 6.5q1.902 1.392 4 .5 3.597-6.645 10-3-2.686.623-4 3a26 26 0 0 1 5 3.5 64.5 64.5 0 0 1 8-3.5q2-1 4 0-2.09 1.756-2.5 4.5-1.561-2.717-3.5-1h-2q-3.297.563-6 2a16.3 16.3 0 0 0-5 2q-2.549-.04-4-2-3.052 1.636-4 5a10.5 10.5 0 0 0-3 2.5q1.614 2.589.5 5.5-3.165 4.488-4 10-4.567 3.328-3.5 9-1.5.5-2 2t-2 2a19.8 19.8 0 0 1-5.5 3 20.1 20.1 0 0 0-1.5 6q-.5 1.5-2 2a35.4 35.4 0 0 0-4 6h-1q-2.95 1.698-5.5-1a12.9 12.9 0 0 0-.5 5 25 25 0 0 1-7-.5l4-3-3-1q1.729-2.824 5-2.5a30.5 30.5 0 0 1 1.5-9q5.04-2.327-.5-1.5-1.5 2.5-4 4 3.725 4.194-2 6.5a4.46 4.46 0 0 1-2-1.5q3.18-2.284 1-5.5a27.9 27.9 0 0 0 7-5.5 39.5 39.5 0 0 0-9 1.5v6q-8.643 1.175-3.5-5l1-5q3.208 1.904 6.5 0a16.2 16.2 0 0 1-4.5-5l-5 4q-.684 1.866 1.5 2.5a18.5 18.5 0 0 1-6 .5q-.29-5.923-1.5 0-1.978-2.625-1.5-6 14.783-2.938 1-7-5.172-.194-6 5a34 34 0 0 0-6 3.5q6.045 2.53 8 9-2.461 2.469 1 3-3.464 1.134-6-1.5a9.1 9.1 0 0 1-5 1 14.8 14.8 0 0 1 2-6.5q-1.916-2.678-5-3.5-3.158 2.643-5 6.5a196 196 0 0 1-19 4.5 274 274 0 0 1 13 4q4.344-3.852 10-5 4.037.268 7 3a31 31 0 0 0-2 2q-1.602 1.401-4 1-2 0-2 2-3.618.29-3 4-2.712-.014-5 1.5-1.286 3.029-4 4.5-1.815.648-3 2-1.5.5-2 2-3.884-.058-6 3h-2a5.73 5.73 0 0 1-3-1q-2.458 2.12-4-1-1.197.686-1 2a4.93 4.93 0 0 1-3-.5q3.022-2.333 1-5.5-1.393 1.783-1 4-1.983-.255-3.5 1 1.82-3.351 1.5-7.5-2.107-1.904-5-1.5l9-2a77 77 0 0 1 10-1q5.463-.87 11-1.5-5.445-2.495-11-.5-19.981.29-39-5 .329 1.763-1 3-1.858.663-3 2-5.49-.512-10 2h-1q.045-1.496-1.5-2a13 13 0 0 1-5.5 1q-1.144-1.152-3-1.5 3.179-.147 5-2.5-1.834-1.671-4-.5-5.03 7.649-4-1.5-13.866-.56 0-3 1.635-1.663 0-3l-6 2q-.91-.186-1-1 2.147-1.92 2-5-6.236 1.029-4-4.5a25.3 25.3 0 0 1-3-6q3.266-1.779 3-5.5h-3q-.629-4.237 3-6.5 2.349-.45 4 1.5 1.078-3.582 5-4.5a65 65 0 0 0-8-5.5q2.739-.63 6 0a6.85 6.85 0 0 0-1-4q3.397-1.72 7-.5a168 168 0 0 0 19 6q4.551 1.787 5 6.5-11.795-1.073-2 3.5 2 1 4 0-2.24-1.735.5-2.5a20 20 0 0 1 4.5 3q2.21-7.671 5 0a10.8 10.8 0 0 0 3-2.5q7.701 1.238 3-5.5 2.052-1.64 3.5 1a12.9 12.9 0 0 1 .5 5q6.46.184 8 6 2.987.258 5-2 .783 3.152 3 7 12.79-.155 23.5-8-.455-3.479-2-7a9.5 9.5 0 0 1-1.5 2.5q2.79 5.919-3 4.5 1.294-3.593 0-7-.297 4.928-5 5-.483-3.333 2-5.5-11.02 2.033-3-5-5.627-.873-5-6.5 7.857-.838 10 6.5 1.5 1 3 0-2.256-2.236-2.5-5.5a21.5 21.5 0 0 1-6-5l-2.5 2.5q-5.047.471-9.5.5-1.275-2.265-2.5-4.5.17-1.92 2-2.5 1.393 1.783 1 4h3q.41-2.927-2-4.5 1.438-2.196 4-2.5a54.5 54.5 0 0 1 10.5 6 29.1 29.1 0 0 1 12.5-.5q.686.621 1 1.5a19 19 0 0 0-3 5 26 26 0 0 1 3.5 5 19 19 0 0 1 3.5-6.5q-.48-2.48-3-3l2-1a8.9 8.9 0 0 1-4-3 45 45 0 0 0 5-5 3.65 3.65 0 0 1-1-1.5q-8.598-1.219-16-5-2.246-1.208-5-2a9.1 9.1 0 0 1-5 1q-3.734.303-7-1.5 2.418-1.08 4.5.5a9.5 9.5 0 0 1 1.5-2.5q-4.894-.096-9-2.5a445 445 0 0 0-2.5 11q-3.202 2.667-7.5 2a45 45 0 0 1-1-10v-6q8.17.556 16 1.5a4.46 4.46 0 0 0 2-1.5q-5.05-1.11-10-2v-1h3v-3a62.8 62.8 0 0 0-15 0q-3.896-.332 0-1.5l-1.5-.5q-1.616 1.394-3.5 2-4.469-1.94-8.5 1 .644-2.44.5-4.5a8.4 8.4 0 0 0-4-.5v3h-4q.489-3.241 3-5.5l-1.5-.5q-1.951 2.483-4.5 4-1.275-3.127-1-6-4.453 1.752-1 4a11.4 11.4 0 0 1-2.5 2q-1.062-1.321-2.5-2v-3q3.238-2.76 8-3.5 1.255-1.517 1-3.5-7.611.5-11 7 0 1-1 1-3.637-2.505-.5-6 2.034-1.32 4.5-1 .393-2.217-1-4a12 12 0 0 1-6 1q-.329-1.763 1-3a82 82 0 0 0 7-2q2.116-2.276-.5-4-1.256 2.26-3.5 1.5-2.483-2.166-2-5.5-4.844.503-4.5-4 3.432-.356 7.5 0-.478 3.375 1.5 6 2.188-3.465 5.5-1a8.4 8.4 0 0 0-.5-4q-4.725 2.491-4.5-3h-3q-.42-4.332 4-4.5-3.42-.35-6-2.5 14.107.012 2-5.5-1.794-.981 0-1.5a243 243 0 0 0 10.5 3q1.753.763 2.5 2.5l12 1a7.3 7.3 0 0 0 3 2l-3 1a74 74 0 0 0 17 2l-4-3a216.5 216.5 0 0 1-35-12q-7.363-1.05-14-4a40.2 40.2 0 0 1 12.5 1.5q4.731.013.5-2l1-1a769 769 0 0 1 35 12.5l-2 1q10.375 2.784 19 9-2.288 1.513-5 1.5-.324 3.271 2.5 5a22.8 22.8 0 0 0 4-5l1 1a574 574 0 0 1 9.5-5 392 392 0 0 0-21-9.5q4.985.707 10 2.5l2-.5q-3-1-4-4a30 30 0 0 0-9-2 49.2 49.2 0 0 1 14 0l1.5 1.5 5-5q.571-5.665-2 0-1.026-1.926.5-3.5 3.96-1.259 7 1.5 2.551-7.758 9-3 5.608-7.754 8 0 1.893-2.821 5-4 4.558 6.463 7-1-3.618.254-6.5-2-4.93 4.448-8.5-1-4.578 5.219-10 1a20 20 0 0 0-4 3.5q-4.005.815-7.5-1.5a11.1 11.1 0 0 0-3.5 2 15.7 15.7 0 0 0-4-2.5l4-1q-.834-.575-1-1.5 1.987-2.179 2.5 1 1.492-.85 2.5-2 3.71.449 6.5 3 2.717-1.386-.5-2.5a39.5 39.5 0 0 0 6-4.5q.672 3.051 3.5 6 .926-1.423-.5-2.5 3.096-.98 5-3.5 2.206 1.321 2.5 4 1.112-1.712 2.5 0 1.29-3.646 5-4-.075 3.135 3 4 2-2 0-4l-4-3q-4.216 4.018-7.5-1-1.593 2.099-4 3l-5-3q-2.843 2.523-6.5 1.5-.825-2.767-3-4.5-15.53 8.298-15-9h-7q.226-5.139-3.5-1-.892 2.098.5 4-4.293 2.996-6 6.5a14.7 14.7 0 0 1 5 1.5q-1.509 1.344 0 2 5.277-3.235 0 2.5 3.95-.38 8 0-8.721 7.902 2.5 12.5 3.699-1.915 7.5 0-3.587 4.108-9 2.5-10.596-7.298-17.5 3.5a715 715 0 0 1-16.5-6.5 36 36 0 0 0-9-11q-6.97-.007-14 .5v3h-4a19.6 19.6 0 0 0-3.5-2q-1.076.816-1.5 2h-3a31 31 0 0 1 2-2q-.186-.91-1-1a146 146 0 0 0-14-8.5q2.656-.055 5.5.5 3.218.156 5.5-2-2.974-2.286-7-3 3.531-2.619 3-7-2.687-.201-5 1 .453-3.839-1-7h-5a12.9 12.9 0 0 0-.5-5q-4.593 2.445-5-3-1.517 1.255-3.5 1-.234-5.452-3.5-1a9.5 9.5 0 0 0-1.5-2.5 30 30 0 0 1 6.5-2.5 7.3 7.3 0 0 0 2 3q.634-2.184 2.5-1.5 2.09 1.756 2.5 4.5l2-2q6.762 12.432 2.5-1-4.562-3.16-10-4v-3q-1.762.329-3-1 5.009-2.062 9.5 1a3.94 3.94 0 0 0 2-1q3.885 7.62 3.5-2h-4v-3q-2.405.282-4-1.5 1.424-.926 2.5.5 14.582-12.074-3.5-6-7.244-3.375-.5-7 1.137-3.404-.5-6.5 3.745-3.39-2-4a21 21 0 0 1-1-2.5q-3.261 2.045-6.5 1-5.727 6.843 2.5 10.5-1.574.738-3-.5-1.916 3.801 0 7.5-2.704.955-4 3.5a82 82 0 0 0 2 7q1.5-2 3 0 1.64-3.504 4 0-4.824 4.344-11 6v-4a41 41 0 0 1-9-.5l-5.5-5.5a515 515 0 0 0 2-14q-5.679-2.926-7.5-9 3.81-3.809 2.5-9-1.665-2.306-4.5-2l1-10h-4q-.1-2.85 1-5.5-2.983-2.415-1-5.5a31 31 0 0 1-2-2q4.222-.424 1.5-3-1.965.945-2.5 3-2.945 1.776-6 2.5 7.167-10.073 19-10.5 3.282-3.555 7.5-2a8.4 8.4 0 0 1 .5 4q3.351-.18 6.5 1 1.891-.39 3-2a55 55 0 0 1 2.5-10q7.954-3.27 6.5-12 1.737-.747 2.5-2.5-1.662-2.516 0-4.5h3q-.401 2.398 1 4-3.763 6.08 0 12.5-.645 2.15-2.5 3.5a52.3 52.3 0 0 0 .5 14q3.46.729 6.5 0l1 3a20.2 20.2 0 0 0 4-6l1 9q2.453 2.023 4.5-.5a59.4 59.4 0 0 1-4.5-11.5q-5.805-1.134-8.5-7.5l4-6-5-7q3.32-3.125 1-7 3.84-3.239 0-6.5 2.745-1.174 4.5 2 .345-5.975 4-2a4.46 4.46 0 0 1 1.5-2 65.5 65.5 0 0 1 14 6 117 117 0 0 0 3 4.5 284 284 0 0 0-2 9.5q-3.495 3.113-3.5 8-5.096 5.993-6.5 14-.175 4.962 2 1 1.809 2.976 0 6a7.5 7.5 0 0 0 3 2q.679 1.438 2 2.5-3.536 1.83 1 2.5-2.404 1.645-4.5 4-1.203 7.378.5 14.5a4.93 4.93 0 0 1-3 .5q-.013 2.712 1.5 5a167 167 0 0 0 5.5 8q-1.447 1.831.5 4 1.517 1.255 3.5 1 1 0 1 1 3.647 5.718 3 0 21.055 1.866 31.5-21 2.377-2.042 5.5-2a18.5 18.5 0 0 1-.5 6 175 175 0 0 1-10.5 26q2.435-.21 3.5 2l1-4q5.15 7.527 5.5 16.5a130.4 130.4 0 0 1 24.5 7.5q2.583-.166.5-1.5-4.108-1.539-7-4.5a71.5 71.5 0 0 0 16-2.5q1.794-.981 0-1.5-3.402 1.566-7 .5l5-1a41 41 0 0 0-9-.5q-3.672-1.46-8-1 1.144-1.152 3-1.5a4.93 4.93 0 0 0-3-.5q3.149-1.668 7-2a52 52 0 0 0 7-1v-3q-2.666.43-5 2l-2-1a11.1 11.1 0 0 0 2-3.5q-1.364-4.235-.5-8.5-1.077-1.426-2.5-.5l-4.5 4.5q-1.855-1.349-2.5-3.5a46 46 0 0 1 5-6.5q-2.316-1.683-4 1a4.46 4.46 0 0 1-1.5-2q-1.114 3.217-2.5.5 1.098-2.648 4-3.5-1.772-2.547 0-5a3.65 3.65 0 0 1 1.5 1 10.3 10.3 0 0 1 1.5-4q2.133 1.915 3-1 1.083.627 1.5 2 1.517-1.255 3.5-1a8.4 8.4 0 0 0-.5-4q-1.224 1.984-3.5 2 1.076-2.455.5-5a29 29 0 0 1-3.5 5 39.6 39.6 0 0 0 2.5-11 55 55 0 0 0-3 7q-1.34 1.816-2.5 0 1.71-2.367 1.5-5-2.188 2.898-3.5 6-.074-9.495-3 0a8.4 8.4 0 0 0 .5 4q1.66-1.818 1.5 1-4.626 1.134-5 6l-2 3q-.16-8.523 4-16-2.613-3.71-5.5 0a26 26 0 0 1-5.5-5v-4q.968-1.968 3-3a19.65 19.65 0 0 1 4.5 7q1.877-4.975 5-1 2.131-4.683 5-1 2.5-4 5 0 3.108-3.98 5 1 1.665-2.306 4.5-2a12.9 12.9 0 0 0-.5-5q-1.05 2.298-3.5 3a7.5 7.5 0 0 1-.5-5q-2.08 2.702-4.5 2a28.5 28.5 0 0 1 5.5-7l2 4q1.362-2.908 4.5-3-.393 2.217 1 4a14.73 14.73 0 0 1 5-5.5q-2.32-.5-4 1.5l-2-3q-.91.186-1 1-4.269-.463-4.5-5a4.93 4.93 0 0 0-.5 3 66.5 66.5 0 0 1-10-4.5q-1.255-1.517-1-3.5a8.44 8.44 0 0 1-4-.5 84 84 0 0 1-11.5-8.5q-2.664 1.554-5.5 0v-3h-8v-3h-6v-3q-5.438-.18-7-5.5.983-2.23 3-3.5a147 147 0 0 0 5.5 7q.621-.685 1.5-1a38 38 0 0 1 8 5q3.487-3.48 6 1.5 5.99.483 10 5l-2 1a14.6 14.6 0 0 1 7 .5q1.81 3.908 6 5a29 29 0 0 1 1.5 4 4.46 4.46 0 0 1 1.5-2 62.6 62.6 0 0 0 9.5 7q2.658-2.235.5-5-5.827-2.425-10-7 1.992-2.114-1-3.5l3-1.5q2.413 1.905 5.5 3 1.965 2.448 1.5 5 1.527-1.04 3-2 2.351 1.77 2.5 5 .297-2.823 1.5-5 5.837 1.041 12 3 1.846-1.725 0-3.5 2.32-.5 4 1.5 1.393-1.783 1-4a5.6 5.6 0 0 1 3 1q1.48-5.812 3.5 0a7.3 7.3 0 0 0 2-3l1 3q1.139-2.345 3.5-3a98 98 0 0 0-4.5-3q-3.496-7.865-1.5 1-.934 3.47-1-1-2.398-.401-4 1a10.1 10.1 0 0 0-4 1.5q1.817 1.34 0 2.5-2.907-3.868-5.5 0-4.453-.03-9.5-.5l-7-3a96 96 0 0 1-9-11.5q1.824-.894 4-.5l-2-2q-12.565-1.395-25-3-2.98-3.21-4-7.5 2.508-5.805 1.5-12-4.5-.5-5-5-4.064 4.748-3 11 .177-3.11 3-4 2.599.351 2.5 3-2.887 5.9-4 11.5 5.886 6.465 12.5 10.5 1.304-4.894 4-1a7.25 7.25 0 0 1 2.5-2q-.886 3.79 2 7-.657-.098-1 .5 1.321 1.063 2 2.5-6.685-1.93-11.5-7a4.46 4.46 0 0 1-1.5 2q-5.142-2.588-11-3.5a69 69 0 0 1-6.5-4.5q-1.37-4.278 2.5-6.5a3.65 3.65 0 0 1-1-1.5q1.655-.746 3-1-2.226-4.675-3-10-4.976-3.585-6-8.5 5.619-3.426 5.5 3.5 1.746-6.64 7-3a4.93 4.93 0 0 0 .5-3q1.983-.255 3.5 1 3.156-3.357 7-3a9.5 9.5 0 0 1 1.5-2.5q7.075-.536 13-4.5a23.8 23.8 0 0 0 9 1" style="opacity:1"/><path fill="#d9d7cd" d="M184.5 1.5q6.318-.633 12 2 9.792-4.58 18 2-2.435-.21-3.5 2-.354-2.43-2.5-3h-1q-.467-1.467-2-2-.373 1.623-.5 4-2.273-3.608-3.5 1l2 2q-.678 4.762-3 1a12.4 12.4 0 0 0-2.5 4q-1.745-5.57-4.5 0-2.046-2.387-2.5-5 4.2 1.414 8.5-.5 1.426-1.076.5-2.5-2.337-1.268-3 2-2.048-5.584-5 0-2.652-4.758-7.5-7" style="opacity:.872"/><path fill="#897580" d="M207.5 4.5q.129 1.495-1 2.5-2.451.74-5 .5 1.227-4.608 3.5-1 .127-2.377.5-4 1.533.533 2 2" style="opacity:1"/><path fill="#d8d5cc" d="M258.5 22.5q2.48.24 4 2-1.314-.195-2 1 13.43 8.083 17 23.5-.513 3.738-4 3a36 36 0 0 0-2-4.5q1.458-3.63-2-6-1.014-6.267-7-8.5l1-1a23 23 0 0 1-5-2q.179-1.922-1.5-3.5-1 2-2 0-.457-3.085 0-6-6.801-7.932-4.5 0-3.504-1.264-7-1.5a12.14 12.14 0 0 0 4.5 3.5q.576 2.545-.5 5-.925.165-1.5 1-1.966-5.234-7.5-6.5a44 44 0 0 1-6.5-.5 10.8 10.8 0 0 0-2.5 3q2.764.383 6 .5 2.889.634 3 3.5 1.445 1.295 0 2-2.937-4.104-7-2-.309 3.075-2.5 1-.332 5.164-3 1-1.5 4-3 0a34 34 0 0 0-3 6q-.495-5.05 1-10a3.94 3.94 0 0 0 2 1q7.56-.286 4.5-7l-2 2q-1.712-2.881-.5-6 4.192 1.923 8.5 0a13.1 13.1 0 0 0-7-1q.227-6.451-4-3-1.858-2.26 1-3.5a39.5 39.5 0 0 0-5-2.5q6.401-.9 13 .5 5.016 3.002 10 6a79 79 0 0 1 10 2 73 73 0 0 1 7 7.5" style="opacity:.955"/><path fill="#d9d6cd" d="M163.5 6.5q7.558-.073.5 2a2.43 2.43 0 0 1-.5-2" style="opacity:1"/><path fill="#b9b0af" d="M207.5 4.5h1a12.9 12.9 0 0 1-.5 5q-2.337-1.268-3 2-.417-1.373-1.5-2l-2-2q2.549.24 5-.5 1.129-1.005 1-2.5" style="opacity:1"/><path fill="#dad8ce" d="M170.5-.5h13l1 2a23.8 23.8 0 0 1-9-1q-5.925 3.964-13 4.5a9.5 9.5 0 0 0-1.5 2.5q-3.844-.357-7 3-1.517-1.255-3.5-1a4.93 4.93 0 0 1-.5 3q-5.254-3.64-7 3 .119-6.926-5.5-3.5 1.024 4.915 6 8.5.774 5.325 3 10-1.345.254-3 1a3.65 3.65 0 0 0 1 1.5q-3.87 2.222-2.5 6.5a69 69 0 0 0 6.5 4.5q5.858.912 11 3.5a4.46 4.46 0 0 0 1.5-2q4.815 5.07 11.5 7 2.013 1.94 5 2.5 1.304 3.981 5 5.5 4.173 4.575 10 7 2.158 2.765-.5 5a62.6 62.6 0 0 1-9.5-7 4.46 4.46 0 0 0-1.5 2 29 29 0 0 0-1.5-4q-4.19-1.092-6-5a14.6 14.6 0 0 0-7-.5l2-1q-4.01-4.517-10-5-2.513-4.98-6-1.5a38 38 0 0 0-8-5 3.65 3.65 0 0 0-1.5 1 147 147 0 0 1-5.5-7q-2.017 1.27-3 3.5 1.562 5.32 7 5.5v3h6v3a26.9 26.9 0 0 1 8 3q2.836 1.554 5.5 0a84 84 0 0 0 11.5 8.5 8.44 8.44 0 0 0 4 .5q-.255 1.983 1 3.5a66.5 66.5 0 0 0 10 4.5 4.93 4.93 0 0 1 .5-3q.231 4.537 4.5 5 1.257.513 1 2-3.138.092-4.5 3l-2-4a28.5 28.5 0 0 0-5.5 7q2.42.702 4.5-2a7.5 7.5 0 0 0 .5 5q2.45-.702 3.5-3 .74 2.45.5 5-2.835-.306-4.5 2-1.892-4.98-5-1-2.5-4-5 0-2.869-3.683-5 1-3.123-3.975-5 1a19.65 19.65 0 0 0-4.5-7q-2.032 1.032-3 3l-2-2q-.59-5.172-5.5-7-1.892.39-3 2-1.602-6.344-6-11-3.053 3.618-3-2-1.864-3.5-5-2a20.6 20.6 0 0 0-2-6q-1.006 1.128-2.5 1 .393-2.217-1-4a3.65 3.65 0 0 0-1.5 1 82 82 0 0 0-2.5-3q2.162-1.98 2-5 1.453-3.16 1-7-6.726.077-2 5.5-.342.598-1 .5.012 2.325-1 5-3.444.456-1 3-.975.456-2 1l-1-2a105 105 0 0 0-6 11q2.74 2.98 3 7 1.936.356 3-1h2q.258 2.988-2 5 .186.91 1 1 2.148 3.448-2 5a7.3 7.3 0 0 0 2 3q2-2 4 0 1.27-2.341-1-4.5a12.7 12.7 0 0 1 4-2.5q-.401 2.398 1 4 3.182.542 6.5-2 .97 6.283-5.5 6.5l-7 7 1.5.5a613 613 0 0 1 3.5-3l1 1q-2.348 3.484-3.5 7 2.26 1.552 4.5-.5-1.972-2.093 1-3 2.5-1 5 0-5.136 3.888-9.5 10.5-3.657-1.976-7.5-2.5 2.217 3.085 6 4l-4 1q8.74 3.718 18 2-9.5 4.12-19-.5-1.19 1.283 1 2.5a10.1 10.1 0 0 0 6 1.5q1.25 1.872 4 2 2.317-.016 4-1 2.455 1.076 5 .5a97 97 0 0 1 7.5-6.5q2.627-2.568 2-6a47 47 0 0 0-6.5 5q-1.624-1.297-.5-3 7.555-2.555 11.5-9.5-1.722-2.59-3.5.5-1.077-1.425-2.5-.5a18.8 18.8 0 0 0-4.5 5.5 3.65 3.65 0 0 0-1.5-1 55.5 55.5 0 0 1-7 5.5q-2.36 1.048-4-1 3.576-2.853 8-3.5v-3q9.602-1.84 13.5-11 .781 4.623 4.5 3h2a26 26 0 0 0 5.5 5q2.887-3.71 5.5 0-4.16 7.477-4 16h-1q-1.24-1.408-2 1-1.152-1.144-1.5-3-3.747 3.733-1.5 8.5a9.3 9.3 0 0 1-2 2.5q3.37.848 6-2 2.322-.481 2-3 2.765-2.668 2-7 .374-4.866 5-6 1.512-6.172 6-2a29 29 0 0 0 3.5-5q.576 2.545-.5 5-1 0-1 1-.867 2.915-3 1a10.3 10.3 0 0 0-1.5 4 3.65 3.65 0 0 0-1.5-1q-1.772 2.453 0 5-2.902.852-4 3.5 1.386 2.717 2.5-.5a4.46 4.46 0 0 0 1.5 2q1.684-2.683 4-1a46 46 0 0 0-5 6.5q.645 2.151 2.5 3.5l4.5-4.5q1.423-.926 2.5.5-.864 4.265.5 8.5a11.1 11.1 0 0 1-2 3.5l2 1q2.334-1.57 5-2v3a52 52 0 0 1-7 1 65 65 0 0 0-7-2l-1 2q-2.397-1.477-5-.5a13.5 13.5 0 0 0 6 2.5 4.93 4.93 0 0 1 3 .5q-1.856.348-3 1.5-4.502-3.026-9-.5 2.547-.745 5 .5l1 1-2 2 1.5 1q2.594-1.724 5 0a2.43 2.43 0 0 0 .5-2h2q-.257 1.487 1 2-1.144 1.152-3 1.5.343.598 1 .5 2.892 2.961 7 4.5 2.083 1.334-.5 1.5a130.4 130.4 0 0 0-24.5-7.5q-.35-8.973-5.5-16.5l-1 4q-1.065-2.21-3.5-2a175 175 0 0 0 10.5-26q.743-2.96.5-6-3.123-.042-5.5 2-10.445 22.866-31.5 21h-3q0-1-1-1-.967-3.49-4-5a167 167 0 0 1-5.5-8q-1.513-2.288-1.5-5a4.93 4.93 0 0 0 3-.5q-1.703-7.122-.5-14.5 2.096-2.355 4.5-4 1.1-1.812 1-4 1.356-1.064 1-3-2.872-.426-5 1v1a7.5 7.5 0 0 1-3-2q1.809-3.024 0-6-2.175 3.962-2-1 1.404-8.007 6.5-14 .005-4.887 3.5-8a284 284 0 0 1 2-9.5 117 117 0 0 1-3-4.5q.925.166 1.5 1 .296-3.541 3.5-5a34.3 34.3 0 0 0 1.5-8 11.5 11.5 0 0 1 4.5-3.5 3.65 3.65 0 0 1-1-1.5l11-7.5a55 55 0 0 0 20-4 1424 1424 0 0 1 13-6.5" style="opacity:.992"/><path fill="#796171" d="M231.5 9.5q2.885.442 5 2.5-4.143 1.616-5-2.5" style="opacity:1"/><path fill="#cdc9c2" d="M171.5 9.5a4.93 4.93 0 0 1 3 .5q-3.078 1.395-4.5 4.5l-1-1q-1.256 2.26-3.5 1.5a33 33 0 0 0 6-5.5" style="opacity:1"/><path fill="#d4d1c9" d="M217.5 54.5q-.35 2.343-2 4 .393 2.217-1 4-1.68-2-4-1.5 1.846 1.775 0 3.5-6.163-1.959-12-3-2-2-4 0-1.473.96-3 2 .465-2.552-1.5-5-3.087-1.095-5.5-3 .166-.925 1-1.5-5.618.052-2-3a114 114 0 0 0-4.5-6.5l-1 1q-2.883-3.885-6.5-1.5 5.593 1.076 5.5 6.5a7.3 7.3 0 0 1-2-3q-1.065 2.21-3.5 2-2.886-3.21-2-7a7.25 7.25 0 0 0-2.5 2q-2.696-3.894-4 1-6.614-4.035-12.5-10.5 1.113-5.6 4-11.5.099-2.649-2.5-3-2.823.89-3 4-1.064-6.252 3-11 .5 4.5 5 5 1.008 6.195-1.5 12 1.02 4.29 4 7.5 12.435 1.605 25 3l2 2q-2.176-.394-4 .5a96 96 0 0 0 9 11.5l7 3q5.047.47 9.5.5 2.593-3.868 5.5 0 1.817-1.16 0-2.5a10.1 10.1 0 0 1 4-1.5" style="opacity:1"/><path fill="#826d7a" d="M134.5 14.5a300 300 0 0 1 7 15l-.5 4q-3.657 2.049-1.5-1.5a218 218 0 0 0-8-14q1.298-2.038 3-3.5" style="opacity:1"/><path fill="#b7aead" d="M163.5 15.5q1.856 1.864-1 3l-1-1a31 31 0 0 0 2-2" style="opacity:1"/><path fill="#d8d6cd" d="M203.5 15.5q1.782 1.776 3.5 0 .183 2.503-1 5-1.74-3.446-3 1l-1-1-2 4a12.2 12.2 0 0 0-4.5-3.5 75 75 0 0 0 8-5.5" style="opacity:1"/><path fill="#d6d4cb" d="M180.5 16.5q.814.09 1 1-3.067 2.326-4.5 6-4.015 2.35-4-2 3.255-3.485 7.5-5" style="opacity:1"/><path fill="#d1cdc5" d="M250.5 20.5h3q-1.119 5.715-3 0" style="opacity:1"/><path fill="#dcdad0" d="m164.5 28.5-2 6a49.9 49.9 0 0 1 1-14 16.9 16.9 0 0 1 1 8" style="opacity:1"/><path fill="#7b6473" d="M247.5 27.5a31.3 31.3 0 0 0 2 5 3.65 3.65 0 0 0 1.5-1 14.7 14.7 0 0 0 1.5 5q1.025-.544 2-1v3q-3.757.72-7 3-2.731-1.841-3-5h-3q-.207-5.679-2 0-.814-.09-1-1a54 54 0 0 0 2-5.5q-.504-1.545-2-1.5-.111-2.866-3-3.5a60 60 0 0 1-6-.5 10.8 10.8 0 0 1 2.5-3q3.063.477 6.5.5 5.534 1.266 7.5 6.5.575-.835 1.5-1" style="opacity:1"/><path fill="#7f6977" d="M258.5 22.5q1.302 3.588-2 .5a2.43 2.43 0 0 1 2-.5" style="opacity:1"/><path fill="#dcdbd0" d="M263.5 24.5q7.077 1.377 13 5a6.85 6.85 0 0 1-4-1q-.253 1.346-1 3-4.276-.768-4-5-2.82.406-4-2" style="opacity:.893"/><path fill="#d9d7cd" d="M257.5 39.5a22.8 22.8 0 0 1-3-4q-.975.456-2 1a14.7 14.7 0 0 1-1.5-5q-.621.685-1.5 1a31.3 31.3 0 0 1-2-5q1.438-.68 2.5-2 5.268 7.02 13.5 10a26 26 0 0 0 3 5 3.65 3.65 0 0 1-1 1.5q3.445 5.54-1 9.5a103 103 0 0 1-5-11q-.686-1.195-2-1" style="opacity:1"/><path fill="#836e7b" d="M130.5 31.5q-2.628.124-3-2.5-.466-3.751 1.5-7.5.316 4.101 2.5 7.5-1.129 1.006-1 2.5" style="opacity:1"/><path fill="#a99da0" d="M164.5 28.5a13.1 13.1 0 0 1-1 7q-.91-.186-1-1z" style="opacity:1"/><path fill="#c7c1bc" d="M213.5 27.5q1.914 1.329 0 3-.88-1.1 0-3" style="opacity:1"/><path fill="#b2a8a8" d="M202.5 31.5q1.122-3.353 2.5 1l1-3q1.22 3.603-.5 7-2.153-2.17-3-5" style="opacity:1"/><path fill="#816c79" d="M130.5 31.5q1.812 1.1 4 1v4h-4z" style="opacity:1"/><path fill="#cec9c2" d="M202.5 31.5v3q-5.695-.883 0-3" style="opacity:1"/><path fill="#b1a6a7" d="M216.5 28.5q1.496-.045 2 1.5a67 67 0 0 0-1.5 5.5 4.46 4.46 0 0 1-1.5-2 9.1 9.1 0 0 0 1-5" style="opacity:1"/><path fill="#d2cec6" d="M102.5 31.5q3.729 1.443 0 2.5 3.792 1.974 0 3.5l3 2a18.3 18.3 0 0 1-4 6 22.7 22.7 0 0 0-3-7 75 75 0 0 0 4-7" style="opacity:1"/><path fill="#a6999c" d="M231.5 28.5q4.063-2.104 7 2 1.445-.705 0-2 1.496-.045 2 1.5a54 54 0 0 1-2 5.5q.186.91 1 1v2q-.925-.166-1.5-1a43.4 43.4 0 0 0-2-8l-1 2q-.539-4.567-2-1-.417-1.374-1.5-2" style="opacity:1"/><path fill="#cbc5bf" d="M278.5 31.5q5.399 3.323 5 9-1.379-4.24-5-7z" style="opacity:1"/><path fill="#d9d7cd" d="M254.5 38.5q-.356 1.936 1 3-.166.925-1 1.5 4 1.5 0 3 3.08 2.957 2 6.5a13.8 13.8 0 0 0-4 4q1.689 2.037 0 4-1.663-1.635-3 0 2.38 4.075-1 7-3.504-1.64 0-4-1.695-1.683-2-4 5.819-1.728 5-7-1.201-2.313-1-5l-1.5-3-3 3q-6.136-2.788-5-9-1.035 1.857-1.5 0v-2q1.793-5.679 2 0h3q.269 3.159 3 5 3.243-2.28 7-3" style="opacity:1"/><path fill="#c2bbb7" d="M278.5 33.5q.257 4.945-2 1 .686-1.195 2-1" style="opacity:1"/><path fill="#aca1a2" d="M254.5 35.5a22.8 22.8 0 0 0 3 4q-2 0-2 2-1.356-1.064-1-3z" style="opacity:1"/><path fill="#c0b8b5" d="M148.5 34.5q-.609 3.669 1.5 7-5.76-2.68-1.5-7" style="opacity:1"/><path fill="#765f6e" d="M133.5 38.5q3.752.016.5 2a2.43 2.43 0 0 1-.5-2" style="opacity:1"/><path fill="#d8d6cd" d="M113.5 39.5q1.694 1.455 3 3.5l-1 1.5q-2.175-2.025-2-5" style="opacity:1"/><path fill="#a29398" d="M269.5 41.5q3.458 2.37 2 6-1.857-2.571-2-6" style="opacity:1"/><path fill="#dddcd2" d="M109.5 56.5q-.793-3.426-3-6a52 52 0 0 1 2-8q5.337 2.435 3.5 8-1.359 3.951-2.5 6" style="opacity:1"/><path fill="#7b6473" d="M126.5 50.5q-1.487.258-2-1 .658.098 1-.5-4.726-5.423 2-5.5.453 3.84-1 7" style="opacity:1"/><path fill="#826d7a" d="m184.5 55.5-3 1.5q2.992 1.386 1 3.5-3.696-1.519-5-5.5-2.987-.56-5-2.5-.679-1.437-2-2.5.343-.598 1-.5 2.435.21 3.5-2a7.3 7.3 0 0 0 2 3q.093-5.424-5.5-6.5 3.617-2.385 6.5 1.5l1-1a114 114 0 0 1 4.5 6.5q-3.618 3.052 2 3-.834.575-1 1.5" style="opacity:1"/><path fill="#d0ccc5" d="M224.5 40.5q1.884-.059 3 1.5-2.256 2.235-2.5 5.5a7.3 7.3 0 0 0-2-3 17.8 17.8 0 0 0-5.5 4.5q-1.888 1.473-4 1a155 155 0 0 0 11-9.5" style="opacity:1"/><path fill="#aca0a2" d="M101.5 47.5q1.762-.329 3 1-2.328 1.947-3-1" style="opacity:1"/><path fill="#aca1a2" d="M250.5 47.5q-.201 2.687 1 5a5.73 5.73 0 0 1-3 1q0-1-1-1a19.3 19.3 0 0 0 3-5" style="opacity:1"/><path fill="#7b6473" d="M177.5 81.5q-1.374.723-3 1-5.54-1.401-8.5-6-1.574 1.526-3.5.5a56 56 0 0 0-6-5.5 94 94 0 0 1-9 2.5q-2.085-4.491 3-6l-1-1q-4.64-1.42-9 1-2.27-3.68 2-5-3.655-2.062-8-1.5-.255-1.983 1-3.5-3.368-3.024-6-7a10.3 10.3 0 0 1 4-1.5q2.412 2.642 6 3.5a9.5 9.5 0 0 1 1.5 2.5q4.298-.81 6 4 5.825-2.257 8 4 5.176-2.505 7.5 3l-4 2a22.5 22.5 0 0 1 4 3q1.393-1.783 1-4 4.167-.717 6 3-1.237 1.329-3 1 .269 3.159 3 5 1.428-2.318 1-5 1.983-.255 3.5 1 .644 3.254-1.5 6a4.46 4.46 0 0 0 1.5 2q.397-3.227 3-5 2.819 2.27 6.5 2-1.101 3.726-4.5 6-1.545-.504-1.5-2" style="opacity:1"/><path fill="#afa3a5" d="M124.5 49.5q.513 1.258 2 1 .162 3.02-2 5-1 0-1-1 1.012-2.675 1-5" style="opacity:1"/><path fill="#d6d4cb" d="M237.5 50.5q3.222-.165 1 2a4.45 4.45 0 0 0 2 1.5q-1.9.465-3.5 1.5-1.37-1.73-2.5.5 1.374.417 2 1.5a5.73 5.73 0 0 1-3 1q-1.804-2.46-2.5-5a19.2 19.2 0 0 1 6.5-3" style="opacity:1"/><path fill="#c7c1bc" d="M283.5 42.5q1.383 5.28 5 9 3.621 2.115 5 6a24.5 24.5 0 0 0-6.5-4q-2.566-.09-4 2-.437-3.425 1.5-6.5l-2-5q.105-1.148 1-1.5" style="opacity:1"/><path fill="#87727e" d="M288.5 51.5q-1.495 1.819-3-.5 1.615-.705 3 .5" style="opacity:1"/><path fill="#deded2" d="M247.5 52.5q1 0 1 1a13.2 13.2 0 0 0-2 5 19.2 19.2 0 0 1-6 1 407 407 0 0 1 3-6z" style="opacity:1"/><path fill="#b5abab" d="M106.5 50.5q2.207 2.574 3 6-3.62-1.77-3-6" style="opacity:1"/><path fill="#d8d6cd" d="M261.5 53.5a2.43 2.43 0 0 1 2 .5 120 120 0 0 1-6 8.5q-1.834 1.67-4 .5a6.98 6.98 0 0 0 3.5-2.5q1.518-4.053 4.5-7" style="opacity:1"/><path fill="#ab9fa1" d="M147.5 54.5h8v3a26.9 26.9 0 0 0-8-3" style="opacity:1"/><path fill="#aa9da0" d="M256.5 52.5q.658-.098 1 .5-2.201 1.645-2.5 4.5-1.006-1.128-2.5-1a13.8 13.8 0 0 1 4-4" style="opacity:1"/><path fill="#7c6674" d="M123.5 54.5q0 1 1 1 1.222 1.395 2.5 3 .621-.685 1.5-1 1.393 1.783 1 4a19.2 19.2 0 0 1-6 1v-2q1.314.195 2-1a44 44 0 0 1-3-2q-2.444-2.544 1-3" style="opacity:1"/><path fill="#9a8990" d="M243.5 53.5a407 407 0 0 0-3 6q-3.313 2.215-4-2-.626-1.083-2-1.5 1.13-2.23 2.5-.5a11.4 11.4 0 0 1 3.5-1.5 4.45 4.45 0 0 1-2-1.5q2.222-2.165-1-2 2.276-1.852 5 0 1.509-.657 0-2 3.099-1.665 2.5 2a26.6 26.6 0 0 0-3.5 2q.686 1.195 2 1" style="opacity:1"/><path fill="#bdb4b2" d="M228.5 56.5q-2.361.655-3.5 3l-1-3a7.3 7.3 0 0 1-2 3q-2.02-5.812-3.5 0a5.6 5.6 0 0 0-3-1q1.65-1.657 2-4 1.602-1.401 4-1 .066 4.47 1 1-1.996-8.865 1.5-1a98 98 0 0 1 4.5 3" style="opacity:1"/><path fill="#938189" d="M251.5 52.5q.819 5.272-5 7v-1q.497-2.734 2-5a5.73 5.73 0 0 0 3-1" style="opacity:1"/><path fill="#d5d1c9" d="M293.5 57.5a29.6 29.6 0 0 0 3 5h-3z" style="opacity:.501"/><path fill="#b6acac" d="M228.5 56.5q1.407 3.634-1.5 7 .236-3.496 1.5-7" style="opacity:1"/><path fill="#dddcd1" d="M123.5 60.5v2l2 2q-1.687 1.272 0 3-1.083.627-1.5 2-1.006-1.128-2.5-1 .257-4.945-2-1a6.54 6.54 0 0 1-3-3 26 26 0 0 1 4.5-4q1.696-1.252 2.5 0" style="opacity:1"/><path fill="#7a6372" d="M156.5 86.5q1.163 3.168 0 6-3.719 1.623-4.5-3-3.898 9.16-13.5 11v3q-4.424.647-8 3.5 1.64 2.048 4 1a55.5 55.5 0 0 0 7-5.5 3.65 3.65 0 0 1 1.5 1 18.8 18.8 0 0 1 4.5-5.5q1.423-.925 2.5.5 1.778-3.09 3.5-.5-3.945 6.945-11.5 9.5-1.124 1.703.5 3a47 47 0 0 1 6.5-5q.627 3.432-2 6a97 97 0 0 0-7.5 6.5q-2.545.576-5-.5-4.169.332-8-1a10.1 10.1 0 0 1-6-1.5q-2.19-1.217-1-2.5 9.5 4.62 19 .5-9.26 1.718-18-2l4-1q-3.783-.915-6-4 3.843.524 7.5 2.5 4.364-6.612 9.5-10.5-2.5-1-5 0-2.972.907-1 3-2.24 2.052-4.5.5 1.152-3.516 3.5-7l-1-1a613 613 0 0 0-3.5 3l-1.5-.5 7-7q6.47-.217 5.5-6.5-3.318 2.542-6.5 2a18.5 18.5 0 0 1 .5-6 12.14 12.14 0 0 0 4.5-3.5q-2.771-2.554-5.5.5-2.973-3.498 1.5-5.5-2.905-.183-4-2.5-1.687-1.728 0-3 2.596-.789 4-3 1.494.128 2.5-1a20.6 20.6 0 0 1 2 6q3.136-1.5 5 2-.053 5.618 3 2 4.398 4.656 6 11 1.108-1.61 3-2 4.91 1.828 5.5 7" style="opacity:1"/><path fill="#bbb2b0" d="M233.5 58.5q-.192 2.385-2 4-2.162-3.5 2-4" style="opacity:1"/><path fill="#a79a9e" d="M289.5 57.5q2.947.672 1 3a67 67 0 0 0-5.5 2l-1.5-1.5q4.146-.008 6-3.5" style="opacity:1"/><path fill="#aea2a4" d="M194.5 61.5q2-2 4 0-1.203 2.177-1.5 5-.149-3.23-2.5-5" style="opacity:1"/><path fill="#dcdbd0" d="M234.5 61.5q2.755.21 1 2-1.197-.686-1-2" style="opacity:1"/><path fill="#aa9da0" d="M129.5 61.5q-1.404 2.211-4 3l-2-2a19.2 19.2 0 0 0 6-1" style="opacity:1"/><path fill="#d2cec6" d="M239.5 63.5q2.782-.342 2.5 2-6.154 2.505-2.5-2" style="opacity:1"/><path fill="#c1b9b6" d="M274.5 62.5q3.713.37 0 2-1.445-.705 0-2" style="opacity:1"/><path fill="#ddddd2" d="M296.5 62.5q2.17.95 2 3.5-.042 1.605-1 2.5a19.2 19.2 0 0 0-1-6" style="opacity:.402"/><path fill="#8e7b85" d="M122.5 57.5a44 44 0 0 0 3 2q-.686 1.195-2 1-.804-1.252-2.5 0a26 26 0 0 0-4.5 4 6.54 6.54 0 0 0 3 3q2.257-3.945 2 1-2.682-.428-5 1 2.682 1.174 3 4-1.064 1.356-3 1-.26-4.02-3-7a105 105 0 0 1 6-11l1 2q1.025-.544 2-1" style="opacity:1"/><path fill="#c7c0bc" d="M209.5 66.5a55 55 0 0 1 12 2.5q-4.095 1.092-8-.5l-9 2q-1.817-1.16 0-2.5 2.822-.297 5-1.5" style="opacity:1"/><path fill="#d4d0c8" d="M293.5 65.5q1.314-.195 2 1-2.19 2.884-5 2 1.905-1.182 3-3" style="opacity:1"/><path fill="#dbd9cf" d="M116.5 34.5a65.5 65.5 0 0 0-14-6 4.46 4.46 0 0 0-1.5 2q-3.655-3.975-4 2-1.755-3.174-4.5-2 3.84 3.261 0 6.5 2.32 3.875-1 7l5 7-4 6q2.695 6.366 8.5 7.5a59.4 59.4 0 0 0 4.5 11.5q-2.047 2.523-4.5.5l-1-9a20.2 20.2 0 0 1-4 6l-1-3q-3.04.729-6.5 0a52.3 52.3 0 0 1-.5-14q1.855-1.35 2.5-3.5-3.763-6.42 0-12.5v-5q1.185-.425 2-1.5a20.5 20.5 0 0 0-3.5-2.5 2.43 2.43 0 0 0-.5 2q-.423 1.917-2 3-1.662 1.984 0 4.5-.763 1.753-2.5 2.5 1.454 8.73-6.5 12a55 55 0 0 0-2.5 10q-1.109 1.61-3 2a15.9 15.9 0 0 0-6.5-1 8.4 8.4 0 0 0-.5-4q-4.218-1.555-7.5 2-11.833.427-19 10.5 3.055-.724 6-2.5h1q.885.977 2 2-1.983 3.085 1 5.5a13 13 0 0 0-1 5.5h4l-1 10q2.835-.306 4.5 2 1.31 5.191-2.5 9 1.821 6.074 7.5 9a515 515 0 0 1-2 14l5.5 5.5q4.473.747 9 .5v4q6.176-1.656 11-6-2.36-3.504-4 0-1.5-2-3 0a82 82 0 0 1-2-7q1.296-2.545 4-3.5-1.916-3.699 0-7.5 1.426 1.238 3 .5-8.227-3.657-2.5-10.5 3.239 1.045 6.5-1 .355 1.12 1 2.5 5.745.61 2 4 1.637 3.096.5 6.5-6.744 3.625.5 7 18.082-6.074 3.5 6-1.076-1.426-2.5-.5 1.595 1.782 4 1.5v3h4q.385 9.62-3.5 2a3.94 3.94 0 0 1-2 1q-4.491-3.062-9.5-1 1.238 1.329 3 1v3q5.438.84 10 4 4.262 13.432-2.5 1l-2 2q-.41-2.744-2.5-4.5-1.866-.684-2.5 1.5a7.3 7.3 0 0 1-2-3 30 30 0 0 0-6.5 2.5 9.5 9.5 0 0 1 1.5 2.5q3.266-4.452 3.5 1 1.983.255 3.5-1 .407 5.445 5 3 .74 2.451.5 5h5q.712 3.873-2 6-.639-1.542 0-4h-4q.175-5.115-5-4 .362-5.248-2.5-1-3.435-3.32-3.5 2.5 2.645 6.297 8 11 4.503-1.466 8.5 3.5l1.5-1.5-4-3q2.905-.183 4-2.5 2.313-1.201 5-1 .531 4.381-3 7 4.026.714 7 3-2.282 2.156-5.5 2-2.844-.555-5.5-.5a146 146 0 0 1 14 8.5q-3.096 1.207-6 1a31.3 31.3 0 0 0 5 2h3q3.585 2.28 8 3a10.2 10.2 0 0 1-3-3h4v-3q7.03-.507 14-.5a36 36 0 0 1 9 11 715 715 0 0 0 16.5 6.5q6.904-10.798 17.5-3.5 5.413 1.608 9-2.5-3.801-1.915-7.5 0-11.221-4.598-2.5-12.5a42.3 42.3 0 0 0-8 0q5.277-5.735 0-2.5-1.509-.656 0-2a14.7 14.7 0 0 0-5-1.5q1.707-3.504 6-6.5-1.392-1.902-.5-4 3.726-4.139 3.5 1h7q-.53 17.298 15 9 2.175 1.733 3 4.5 3.657 1.023 6.5-1.5l5 3q2.407-.901 4-3 3.284 5.018 7.5 1l4 3q2 2 0 4-3.075-.865-3-4-3.71.354-5 4-1.388-1.712-2.5 0-.294-2.679-2.5-4-1.904 2.52-5 3.5 1.426 1.077.5 2.5-2.828-2.949-3.5-6a39.5 39.5 0 0 1-6 4.5q3.217 1.114.5 2.5-2.79-2.551-6.5-3-1 0-1-1 1.257-.513 1-2-2 0-2 2a8.4 8.4 0 0 0-4 .5q.834.575 1 1.5t1 1.5l-4 1q2.2.953 4 2.5a11.1 11.1 0 0 1 3.5-2q3.495 2.315 7.5 1.5a20 20 0 0 1 4-3.5q5.422 4.219 10-1 3.57 5.448 8.5 1 2.882 2.254 6.5 2-2.442 7.463-7 1-3.107 1.179-5 4-2.392-7.754-8 0-6.449-4.758-9 3-3.04-2.759-7-1.5-1.526 1.574-.5 3.5 2.571-5.665 2 0l-5 5-1.5-1.5a49.2 49.2 0 0 0-14 0q4.684.31 9 2 1 3 4 4l-2 .5q-5.015-1.793-10-2.5a392 392 0 0 1 21 9.5 574 574 0 0 0-9.5 5l-1-1a22.8 22.8 0 0 1-4 5q-2.824-1.729-2.5-5 2.712.013 5-1.5-8.625-6.216-19-9l2-1a769 769 0 0 0-35-12.5l-1 1q4.231 2.013-.5 2a40.2 40.2 0 0 0-12.5-1.5q6.637 2.95 14 4a216.5 216.5 0 0 0 35 12l4 3a74 74 0 0 1-17-2l3-1a7.3 7.3 0 0 1-3-2l-12-1q-.747-1.737-2.5-2.5a243 243 0 0 1-10.5-3q-1.794.519 0 1.5 12.107 5.512-2 5.5 2.58 2.15 6 2.5-4.42.168-4 4.5h3q-.225 5.491 4.5 3a8.4 8.4 0 0 1 .5 4q-3.312-2.465-5.5 1-1.978-2.625-1.5-6-4.068-.356-7.5 0-.344 4.503 4.5 4-.483 3.334 2 5.5 2.244.76 3.5-1.5 2.616 1.724.5 4a82 82 0 0 1-7 2q-1.329 1.237-1 3a12 12 0 0 0 6-1q1.393 1.783 1 4-2.466-.32-4.5 1-3.137 3.495.5 6 .481 2.322 3 2 1.438.679 2.5 2a11.4 11.4 0 0 0 2.5-2q-3.453-2.248 1-4-.275 2.873 1 6 2.549-1.517 4.5-4l1.5.5q-2.511 2.259-3 5.5h4v-3a8.4 8.4 0 0 1 4 .5q.144 2.06-.5 4.5 4.031-2.94 8.5-1 2.5 2 5 0a62.8 62.8 0 0 1 15 0v3h-3q-4.016-1.671-8 0a16.9 16.9 0 0 0 8 1q4.95.89 10 2a4.46 4.46 0 0 1-2 1.5 310 310 0 0 0-16-1.5q-1.295-1.445-2 0a42 42 0 0 0 2 6 45 45 0 0 0 1 10q4.298.667 7.5-2a445 445 0 0 1 2.5-11q4.106 2.404 9 2.5a9.5 9.5 0 0 0-1.5 2.5q-2.082-1.58-4.5-.5 3.266 1.803 7 1.5 4.687 1.469 10 1 7.402 3.781 16 5a3.65 3.65 0 0 0 1 1.5 45 45 0 0 1-5 5 8.9 8.9 0 0 0 4 3l-2 1q2.52.52 3 3a19 19 0 0 0-3.5 6.5 26 26 0 0 0-3.5-5 19 19 0 0 1 3-5 3.65 3.65 0 0 0-1-1.5 29.1 29.1 0 0 0-12.5.5 54.5 54.5 0 0 0-10.5-6q-2.562.304-4 2.5 2.41 1.573 2 4.5h-3q.393-2.217-1-4-1.83.58-2 2.5 1.225 2.235 2.5 4.5 4.453-.029 9.5-.5l2.5-2.5a21.5 21.5 0 0 0 6 5q.244 3.264 2.5 5.5-1.5 1-3 0-2.143-7.338-10-6.5-.627 5.627 5 6.5-8.02 7.033 3 5-2.483 2.167-2 5.5 4.703-.072 5-5 1.294 3.407 0 7 5.79 1.419 3-4.5a9.5 9.5 0 0 0 1.5-2.5q1.545 3.521 2 7-10.71 7.845-23.5 8-2.217-3.848-3-7-2.013 2.258-5 2-1.54-5.816-8-6a12.9 12.9 0 0 0-.5-5q-1.448-2.64-3.5-1 4.701 6.738-3 5.5a10.8 10.8 0 0 1-3 2.5q-2.79-7.671-5 0a20 20 0 0 0-4.5-3q-2.74.765-.5 2.5-2 1-4 0-9.795-4.573 2-3.5-.449-4.713-5-6.5a168 168 0 0 1-19-6q-3.603-1.22-7 .5a6.85 6.85 0 0 1 1 4q-3.261-.63-6 0a65 65 0 0 1 8 5.5q-3.922.918-5 4.5-1.651-1.95-4-1.5-3.629 2.263-3 6.5h3q.266 3.721-3 5.5a25.3 25.3 0 0 0 3 6q-2.236 5.529 4 4.5.147 3.08-2 5 .09.814 1 1l6-2q1.635 1.337 0 3-13.866 2.44 0 3-1.03 9.149 4 1.5 2.166-1.171 4 .5-1.821 2.353-5 2.5 1.856.348 3 1.5.513 1.258 2 1-5.403 1.062-11-1.5-5.45-2.792-10-6.5-3.857-5.23-5.5-12-1.062-1.321-2.5-2 1.122-3.126 0-6a24.9 24.9 0 0 1-6.5-5q-6.435-11.683-17.5-19-5.184-3.26-10.5-4a11.3 11.3 0 0 1-3.5 1.5 1176 1176 0 0 1 35 30q-4.618.297-8.5-2.5a4.93 4.93 0 0 0-.5 3q1.762-.329 3 1l-1 1q-2.086-1.717-4 0 5.586.888 11 1-4.599.785-9 3a56.5 56.5 0 0 0-12-3.5Q55.803 306.921 55 286.5a4.45 4.45 0 0 0 1.5-2 74 74 0 0 1-6.5-8q-.348 1.856-1.5 3-2.735 1.091-5.5 1a11.4 11.4 0 0 0-1.5-3.5q-35.747-12.42-17-45.5 7.954-3.27 6.5-12a13.9 13.9 0 0 0 4-3 46 46 0 0 0 3.5-11.5q-3.54-4.034-9-5a32.5 32.5 0 0 1-6-9 8.4 8.4 0 0 0-4-.5q1.063-1.356 3-1 .255-1.983-1-3.5 6.186-1.584 11 2.5 1.509-.656 0-2a55 55 0 0 1 4.5-2q-2.106-3.498-2.5-8a6.85 6.85 0 0 1 4 1 10.3 10.3 0 0 0 1.5-4q5.925 3.263-.5 7.5l1.5.5q4.5-2.127 9.5-2.5l-5-3q1.644-2.513 4.5-3.5l1-3q2.958 1.208 4.5 4l-4 6a26 26 0 0 0 4 4.5 14.8 14.8 0 0 1-3 5.5q4.5 2 9 0-1.509-1.344 0-2 1.948.885 2.5 3 .336-3.915-1.5-7.5 3.277-2.894 5 1.5a27.5 27.5 0 0 0 5-11 45 45 0 0 0 10-1q.329-1.763-1-3a191 191 0 0 1-9.5-4 25.25 25.25 0 0 0-8.5 6q-5.474-1.558-3.5-7 6.192-4.972 3-12A93.9 93.9 0 0 0 46.5 124q-1.866-.684-2.5 1.5-1.755-3.174-4.5-2a56.2 56.2 0 0 1 5.5 13q6.762 6.501 10.5 15l-1 2q-6.882-2.634-7.5-10-1.5-3.5-5-5 .225-5.81-3.5-10-1.297-1.624-3-.5 1.6 3.147 1.5 6.5-7.22-4.744-3.5 2h-2q-3.65.428 0 2 .513 1.257 2 1-2.177 1.203-5 1.5l2 1a54 54 0 0 0 0 6.5 11.64 11.64 0 0 0-5 2q1.237 1.329 3 1v5h3q.814.09 1 1a44 44 0 0 0-3 2q-1.937-.356-3 1-.975.456-2 1a71 71 0 0 0-2-4q-.814-.09-1-1a60 60 0 0 0 1.5-13q-4.776 1.359-2.5 5.5a4.46 4.46 0 0 1-2 1.5q-.118-2.442-1-5 2.797-3.784 7.5-5A56.4 56.4 0 0 1 36.5 125q-1.17-1.61.5-3.5 2.55-1.359 5.5-1-1.387-3.735-3-7.5a9.8 9.8 0 0 1 1-4q-5.43-3.483-8-9.5 1.74-3.226-1-6a4.94 4.94 0 0 1 1-2.5q-1.83-2.288-2-5.5a43.6 43.6 0 0 1 7-15q11.682-7.224 25-10 3.636-.528 4.5 3a59 59 0 0 0 7.5-5.5q-4.27-4.647 1.5-7.5 2.324-16.51 18-24 4.5 2 9 0 7.597 2.67 13.5 8" style="opacity:.989"/><path fill="#765f6e" d="M90.5 66.5q1.61 1.125.5 3-2.592-1.278-.5-3" style="opacity:1"/><path fill="#98878f" d="M71.5 62.5q1.314-.195 2 1-5.624 4.205-2-1" style="opacity:1"/><path fill="#7b6473" d="M74.5 53.5q1.914 1.329 0 3-1.593-1.387 0-3" style="opacity:1"/><path fill="#836d7a" d="M79.5 45.5q4.04 4.516-2 7-.87-1.611 1.5-3a8.4 8.4 0 0 0 .5-4" style="opacity:1"/><path fill="#a79a9e" d="m88.5 33.5 2 2v5q-1.401-1.602-1-4h-3q1.577-1.083 2-3" style="opacity:1"/><path fill="#765f6e" d="m90.5 35.5-2-2a2.43 2.43 0 0 1 .5-2 20.5 20.5 0 0 1 3.5 2.5q-.816 1.075-2 1.5" style="opacity:1"/><path fill="#dbdad0" d="M194.5 69.5q1.831-1.447 4 .5a9.5 9.5 0 0 0-1.5 2.5 82 82 0 0 0-2.5-3" style="opacity:1"/><path fill="#ab9fa1" d="M45.5 72.5h-1q.535-2.055 2.5-3 2.722 2.576-1.5 3" style="opacity:1"/><path fill="#dbd9cf" d="M62.5 69.5a4.93 4.93 0 0 1 3 .5q-2 1.5 0 3a23.6 23.6 0 0 0-3 3.5q-1.135-3.193 0-7" style="opacity:1"/><path fill="#dfded3" d="M233.5 71.5q-4.833.588-9-1.5a25.25 25.25 0 0 1 10 0q-.834.575-1 1.5" style="opacity:1"/><path fill="#d7d4cb" d="M286.5 69.5q3.219.294.5 3a4.93 4.93 0 0 1-.5-3" style="opacity:1"/><path fill="#b8aead" d="M200.5 71.5q2.755.21 1 2-1.197-.686-1-2" style="opacity:1"/><path fill="#dcdbd0" d="M297.5 69.5a10.5 10.5 0 0 0 2.5 3q1.17 2.83-.5 5a8.4 8.4 0 0 0-.5-4q-3.089-1.645-1.5-4" style="opacity:.452"/><path fill="#7e6876" d="M127.5 80.5a12.7 12.7 0 0 0-4 2.5q2.27 2.159 1 4.5-2-2-4 0a7.3 7.3 0 0 1-2-3q4.148-1.552 2-5 1.144-1.152 3-1.5-1.712-1.112 0-2.5-.533-1.533-2-2a8.4 8.4 0 0 1 .5-4q.621.685 1.5 1a131 131 0 0 0 4 10" style="opacity:1"/><path fill="#d0ccc5" d="M233.5 71.5a303 303 0 0 1 24 4.5 14.7 14.7 0 0 0-3 4.5l-2-4a25.5 25.5 0 0 0-4.5 4 8.4 8.4 0 0 1-.5-4q-3.346 1.686-7 1.5.699-1.949 0-4.5-3.604-.16-5.5 3-1.904-2.107-1.5-5m34-5a2.43 2.43 0 0 1 2 .5q-3.108 1.91-4 5.5-2.61 2.566-6 2.5 4-2.093 6-6l-1-1q1.856-.348 3-1.5" style="opacity:1"/><path fill="#7d6674" d="M43.5 74.5q.882 3.61 3 7-1.477 2.397-.5 5 4.251 3.195 1.5 8a33.3 33.3 0 0 1 4 5.5q-2.319 2.21-3 5.5.984 4.25 4 7.5-1.326 1.647-3 1.5a47 47 0 0 1 4 7.5q-2.42.133-3.5-2.5l-4.5-9q-1.238-1.329-3-1-2.396-6.255 1-12-1.905-4.265 0-8.5-2.985-7.46 0-14.5" style="opacity:1"/><path fill="#d8d6cc" d="m56.5 82.5-1 2q-2.442-6.38-3.5-15 4.893-2.012 1.5 1 3.792 1.526 0 3.5a20 20 0 0 0 4 3.5 9.1 9.1 0 0 0-1 5" style="opacity:1"/><path fill="#aca0a2" d="M121.5 73.5q1.467.467 2 2-1.712 1.388 0 2.5-1.856.348-3 1.5-.814-.09-1-1 2.258-2.012 2-5" style="opacity:1"/><path fill="#cac5bf" d="M125.5 67.5q1.095 2.317 4 2.5-4.473 2.002-1.5 5.5 2.729-3.054 5.5-.5a12.14 12.14 0 0 1-4.5 3.5 18.5 18.5 0 0 0-.5 6q-1.401-1.602-1-4a131 131 0 0 1-4-10 3.65 3.65 0 0 1-1.5-1 8.4 8.4 0 0 0-.5 4h-2q-.318-2.826-3-4 2.318-1.428 5-1 1.494-.128 2.5 1 .417-1.373 1.5-2" style="opacity:1"/><path fill="#d4d2c9" d="M66.5 75.5q1.314-.195 2 1-5.983 8.01-2-1" style="opacity:1"/><path fill="#b2a7a8" d="M84.5 72.5a2.43 2.43 0 0 1 2 .5 37 37 0 0 0-2 4.5q-2.255.828-5 0 .329 1.762-1 3-1.393-1.783-1-4a52 52 0 0 0 7-1z" style="opacity:1"/><path fill="#765f6e" d="M112.5 78.5q2.128-1.426 5-1 .356 1.936-1 3-2.343-.35-4-2" style="opacity:1"/><path fill="#d1cec6" d="M215.5 77.5a8.44 8.44 0 0 1 4 .5q1.761 4.243-3 3-1.255-1.517-1-3.5" style="opacity:1"/><path fill="#dbd9cf" d="M71.5 78.5q5.979 3.94 0 8-1.425-3.94 0-8" style="opacity:1"/><path fill="#ccc7c1" d="M208.5 77.5h3v3h-3z" style="opacity:1"/><path fill="#dfded3" d="M225.5 78.5q4.631-.455 5 4a9.86 9.86 0 0 1-6-1 5.6 5.6 0 0 0 1-3" style="opacity:1"/><path fill="#c4bdb9" d="M177.5 81.5q-.329-1.762 1-3 1.748 2.04-1 3" style="opacity:1"/><path fill="#b3a8a9" d="M192.5 76.5q.09-.814 1-1l2 3q1.68-2 4-1.5a14.73 14.73 0 0 0-5 5.5q-1.393-1.783-1-4 .257-1.487-1-2" style="opacity:1"/><path fill="#dad9ce" d="M234.5 80.5q4.52-.192 7.5 3 1.418-.608 2-2a668 668 0 0 0 5 3q8.725-2.04 2.5 4-1.783 1.393-4 1v-3l-8 3v-4q-4.335-.333-8 2l-1-1a17.9 17.9 0 0 0 4-6" style="opacity:1"/><path fill="#836d7a" d="M37.5 78.5q3.388.413 1 3l2 2q-1.202 2.78-1 5a14.64 14.64 0 0 0-4-6q2.03-1.536 2-4" style="opacity:1"/><path fill="#dddcd1" d="M82.5 82.5q2.217-.393 4 1 1.266 3.945 1 7.5-1.743 1.24-3.5 2.5-2.57-.956-.5-3-1.238-1.329-3-1a21.2 21.2 0 0 1 2-7" style="opacity:1"/><path fill="#b2a7a7" d="M112.5 78.5q1.657 1.65 4 2 .1 2.188-1 4-4.536-.67-1-2.5-1.321-1.062-2-2.5z" style="opacity:1"/><path fill="#afa4a5" d="M259.5 83.5h-1a61 61 0 0 1 5.5-2 9.5 9.5 0 0 0 2.5 1.5q-3.515 2.123-7 .5" style="opacity:1"/><path fill="#dbdacf" d="M61.5 93.5q-1.083.627-1.5 2-2.728-4.002-.5-8.5-.504-1.545-2-1.5 1.025-2.515 4-2z" style="opacity:1"/><path fill="#ab9fa1" d="M56.5 82.5h6q.473 5.807-1 11v-10q-2.975-.515-4 2l-2-1z" style="opacity:1"/><path fill="#dfdfd3" d="M258.5 83.5h1a30 30 0 0 1-3.5 6q-.908-4.055 2.5-6" style="opacity:1"/><path fill="#765f6e" d="M34.5 87.5q2.588.514 1.5 3-1.559-1.116-1.5-3" style="opacity:1"/><path fill="#d4d1c8" d="M194.5 87.5q1.914 1.329 0 3-1.593-1.387 0-3" style="opacity:1"/><path fill="#a79a9d" d="m156.5 86.5 2 2v4h-2q1.163-2.832 0-6" style="opacity:1"/><path fill="#b1a6a7" d="M215.5 91.5q-2 2.5 0 5-.424 1.185-1.5 2-1-4.5 0-9 1.076.816 1.5 2" style="opacity:1"/><path fill="#b4aaaa" d="M189.5 90.5q2.766 1.056 1.5 4-1.782-1.595-1.5-4" style="opacity:1"/><path fill="#d8d6cc" d="M222.5 89.5q1.494-.128 2.5 1a42.7 42.7 0 0 1 3.5 8q-3.16 3.58-8 4 .43-7.051 2-13" style="opacity:1"/><path fill="#d9d7ce" d="M236.5 89.5q2.343 2.808 3 7 2.206-1.32 2.5-4a18 18 0 0 1 3.5-2 22.1 22.1 0 0 0 3 6q.822-5.668 5-2.5 1.58 2.082.5 4.5-2.61 3.681-6.5 4.5 1.656-1.697-1-2.5l-6 5q-7.771-6.36-10 4-3.135.075-4-3 3.326-3.852 3.5-9a9.5 9.5 0 0 1 2.5-1.5l-1-1q.773-4.516 5-5.5" style="opacity:1"/><path fill="#d0cbc4" d="M297.5 81.5a29 29 0 0 0 3 8 102 102 0 0 1 14.5 8 9.2 9.2 0 0 1 4.5-2q4.761.735 9 2-8.067.092-16 .5L298 89.5q-.227-3.93-2.5-7 .686-1.195 2-1" style="opacity:.676"/><path fill="#d8d6cc" d="M67.5 109.5q0 1-1 1a16.5 16.5 0 0 1-2-5 52.4 52.4 0 0 0 1-13h6a39.6 39.6 0 0 0 1 11.5 12.8 12.8 0 0 1-2 4.5q-2.133-1.915-3 1" style="opacity:1"/><path fill="#d8d6cd" d="M215.5 91.5q2 2.5 0 5-2-2.5 0-5" style="opacity:1"/><path fill="#dddcd1" d="M256.5 92.5q5.766 2.687.5 7a25 25 0 0 1-.5-7" style="opacity:1"/><path fill="#d0ccc4" d="M260.5 93.5q2.088-1.533 4 1l-1 1a188 188 0 0 0-3-2" style="opacity:1"/><path fill="#7a6372" d="M36.5 94.5q3.163.829 2.5 4-2.222-1.456-2.5-4" style="opacity:1"/><path fill="#b2a7a8" d="M183.5 92.5q3.219.294.5 3a4.93 4.93 0 0 1-.5-3" style="opacity:1"/><path fill="#b1a6a7" d="M194.5 94.5q2.587.514 1.5 3-1.558-1.116-1.5-3" style="opacity:1"/><path fill="#b5abab" d="M132.5 94.5q3.712.37 0 2-1.445-.704 0-2" style="opacity:1"/><path fill="#d5d2ca" d="M173.5 99.5q-1.083.627-1.5 2-.417-1.373-1.5-2 2.926-9.495 3 0" style="opacity:1"/><path fill="#b4a9a9" d="M178.5 102.5q-4.488-4.172-6 2 .16-2.818-1.5-1a8.4 8.4 0 0 1-.5-4q1.083.627 1.5 2 .417-1.373 1.5-2 1.312-3.102 3.5-6 .21 2.633-1.5 5 1.16 1.816 2.5 0a55 55 0 0 1 3-7 39.6 39.6 0 0 1-2.5 11" style="opacity:1"/><path fill="#d9d7cd" d="M328.5 97.5q2.552.699 4.5 0l1.5 3q-3.479-.739-6-3" style="opacity:.584"/><path fill="#d9d6cd" d="M200.5 98.5q1.914 1.329 0 3-1.593-1.387 0-3" style="opacity:1"/><path fill="#d4d1c8" d="M334.5 100.5q2.518-.322 3 2-2.29.11-3-2" style="opacity:.584"/><path fill="#dddcd1" d="M93.5 102.5q1.314-.197 2 1-3.462 2.06-2-1" style="opacity:1"/><path fill="#b0a5a6" d="M180.5 103.5q0-1 1-1 2.276-.016 3.5-2a8.4 8.4 0 0 1 .5 4q-1.983-.255-3.5 1-.417-1.373-1.5-2" style="opacity:1"/><path fill="#dbd9cf" d="M337.5 102.5q2 0 2 2-1.5-.5-2-2" style="opacity:.751"/><path fill="#beb6b3" d="M190.5 98.5q1.155 4.325-2.5 8 .644-4.007 2.5-8" style="opacity:1"/><path fill="#dcdbd0" d="M205.5 104.5q.09-.814 1-1 1.624 1.297.5 3-.417-1.373-1.5-2" style="opacity:1"/><path fill="#d9d7cd" d="M216.5 104.5q4.205 3.171-.5 6 .203-2.887.5-6" style="opacity:1"/><path fill="#beb6b3" d="M259.5 104.5q3.985 1.469 2 5-2.175-2.024-2-5" style="opacity:1"/><path fill="#dddcd1" d="M339.5 104.5q4.822.73 1 3a5.73 5.73 0 0 0-1-3" style="opacity:.626"/><path fill="#dbdacf" d="M254.5 110.5v2q-.442 2.885-2.5 5-.635-3.949-3.5-6.5 2.142-2.874 3-6.5a17.9 17.9 0 0 1 3 6" style="opacity:1"/><path fill="#d7d5cc" d="m257.5 113.5-2-3a18.5 18.5 0 0 1 .5-6q3.988 3.927 1.5 9" style="opacity:1"/><path fill="#ada1a3" d="M247.5 109.5q-1.345 1.647-2.5 0-.012 4.267-3.5 6 1.91-3.739 2-8 2.82-.406 4 2" style="opacity:1"/><path fill="#dfdfd3" d="M340.5 108.5q3.302.537 4 4-.186.91-1 1-2.085-2.099-3-5" style="opacity:.526"/><path fill="#dbd9cf" d="M247.5 109.5q2.417 6.741 2 14-4.487-.255-6 4 .548 2.103 2.5 3 3.4-1.156 5.5-4 1.351 5.657-5 5a14.8 14.8 0 0 0 2 6.5 11.3 11.3 0 0 0-1.5 3.5 3.65 3.65 0 0 0-1.5-1q-4.676 4.051-11 4-2.619-1.077-2-3-2.812 1.364-4 4-3.324-1.054-5.5-4 1.88 6.257-3 2-.476 2.701-2 1l-.5 2q2.538 2.558 4 6-2.052 1.64-3.5-1l-1 4q-3.202-3.153-4.5-7.5 2.811-2.79 3-7-3.197-8.639 2.5-15.5a50 50 0 0 1 3.5-13 6.85 6.85 0 0 0 4 1 390 390 0 0 1 1.5 16q2.86 2.862 2.5 6 1.088 3.105 2 5 2.417-1.23 2-4 .657.098 1-.5-3.474-2.202-1-5.5.027-2.81-1.5-1-1.227-4.09.5-8l2 5q1.003-3.639 1-7-.883-4.164-4-7 3.162-2.165 7-2a8.4 8.4 0 0 1-.5 4q-.803-2.656-2.5-1a29 29 0 0 1 1.5 4 4.46 4.46 0 0 1 1.5-2q1.524 7.95 3 0 3.488-1.733 3.5-6 1.155 1.647 2.5 0" style="opacity:1"/><path fill="#ab9ea1" d="M167.5 110.5q.765 4.332-2 7l-1-4h1z" style="opacity:1"/><path fill="#bdb5b3" d="M186.5 112.5q-2.243.128-3-2 1.16-1.816 2.5 0a7.3 7.3 0 0 1 2-3q.92 2.993-1.5 5" style="opacity:1"/><path fill="#a5979b" d="M254.5 110.5h1l2 3q.058 1.884-1.5 3-.315-2.337-1.5-4z" style="opacity:1"/><path fill="#b6acab" d="M67.5 109.5q2.483 2.145 6 2.5-4.532 5.103-7-1.5 1 0 1-1" style="opacity:1"/><path fill="#a4969b" d="M162.5 114.5q-.442 3.352 1 6-2.63 2.848-6 2a9.3 9.3 0 0 0 2-2.5q-2.247-4.767 1.5-8.5.348 1.856 1.5 3" style="opacity:1"/><path fill="#7b6372" d="m164.5 113.5 1 4q.322 2.519-2 3-1.442-2.648-1-6 .76-2.408 2-1" style="opacity:1"/><path fill="#9c8c93" d="M115.5 116.5q3.033 1.51 4 5-1.983.255-3.5-1-1.947-2.169-.5-4" style="opacity:1"/><path fill="#b0a4a5" d="M126.5 116.5q3.831 1.332 8 1-1.683.984-4 1-2.75-.128-4-2" style="opacity:1"/><path fill="#d7d5cc" d="M186.5 112.5h3q.16 3.604-3 5.5a20 20 0 0 0 4 3.5q-5.976 4.324-5-3.5a19.8 19.8 0 0 1 1-5.5" style="opacity:1"/><path fill="#aca0a2" d="M258.5 120.5q6.132-.423 1.5 2-1.545-.504-1.5-2" style="opacity:1"/><path fill="#806a77" d="M223.5 121.5q1.158 8.718 5 17-1.783 1.393-4 1 .03-2.464-2-4 1.143-.616 3-.5-4.567-3.875-4.5-9.5a7.3 7.3 0 0 1 2 3q.745-3.465.5-7" style="opacity:1"/><path fill="#a6999d" d="M120.5 122.5h3q.647 5.718-3 0" style="opacity:1"/><path fill="#796271" d="M19.5 190.5h-1q2.445-4.593-3-5h-1q-1.647-1.345 0-2.5 7.455-.468 14-4 1.062-4.152 4.5-2.5 2.23-.983 3.5-3a34.3 34.3 0 0 0-8-1.5 6.98 6.98 0 0 0 2.5-3.5q.561 1.375 1.5 2.5 3.9 1.153 7.5-.5 1.048-2.36-1-4-6.675.978-13.5 3l-2 1q2.942 8.009-5 6-1.329 1.237-1 3a31.1 31.1 0 0 1-11-1 36.2 36.2 0 0 1 8-2.5 31 31 0 0 1 3-4.5q2.458-4.318 4-9.5-.208-1.951-2-2.5.389 4.47-4 5.5 1.36 2.549 1 5.5h-4q.393 2.217-1 4-3.216-.105-6-1.5a135 135 0 0 0 9-9q-1.36-2.549-1-5.5-2.188-.1-4 1a5.6 5.6 0 0 0-1-3q1.96-2.118 2.5-5 1.665-2.305 4.5-2-.1-2.188 1-4h1q.882 2.558 1 5a4.46 4.46 0 0 0 2-1.5q-2.276-4.141 2.5-5.5a60 60 0 0 1-1.5 13q.186.91 1 1-.552 5.316 3 9 2.379-1.37 4.5 0a10.8 10.8 0 0 0 2.5-3q-2.873.275-6-1v-2q1.063-1.356 3-1 2.188-.1 4 1a28 28 0 0 1 1.5 4q2.874-2.142 6.5-3a6.85 6.85 0 0 0 1-4q-2.55.04-4 2h-5q-.255-1.983 1-3.5-1.893-2.89-3 .5h-3v-5q-1.763.329-3-1a11.64 11.64 0 0 1 5-2 54 54 0 0 1 0-6.5l-2-1q2.823-.297 5-1.5 3.086-.685 0-3-3.72-6.744 3.5-2 .1-3.353-1.5-6.5 1.703-1.124 3 .5 3.725 4.19 3.5 10 3.5 1.5 5 5 .618 7.366 7.5 10l1-2q-3.738-8.499-10.5-15a56.2 56.2 0 0 0-5.5-13q2.745-1.174 4.5 2 .634-2.184 2.5-1.5A93.9 93.9 0 0 1 63 152.5q3.192 7.028-3 12-1.974 5.442 3.5 7a25.25 25.25 0 0 1 8.5-6 191 191 0 0 0 9.5 4q1.329 1.237 1 3a45 45 0 0 1-10 1 27.5 27.5 0 0 1-5 11q-1.723-4.394-5-1.5 1.836 3.585 1.5 7.5-.552-2.115-2.5-3-1.509.656 0 2-4.5 2-9 0a14.8 14.8 0 0 0 3-5.5 26 26 0 0 1-4-4.5l4-6q-1.542-2.792-4.5-4l-1 3q-2.856.987-4.5 3.5l5 3a26.7 26.7 0 0 0-9.5 2.5l-1.5-.5q6.425-4.237.5-7.5a10.3 10.3 0 0 1-1.5 4 6.85 6.85 0 0 0-4-1q.394 4.502 2.5 8a55 55 0 0 0-4.5 2q1.509 1.344 0 2-4.814-4.084-11-2.5 1.255 1.517 1 3.5-1.937-.356-3 1" style="opacity:1"/><path fill="#d5d3ca" d="M133.5 126.5q-2.872.426-5-1 .764-1.261-2-1.5a4.46 4.46 0 0 1 2-1.5 12 12 0 0 0 6 1q.356 1.936-1 3" style="opacity:1"/><path fill="#c9c3be" d="M113.5 123.5q2.405-.282 4 1.5a46 46 0 0 0-7.5 4.5l-1.5-1a30 30 0 0 0 5-5" style="opacity:1"/><path fill="#c9c3be" d="M102.5 116.5q.811 4.095 0 8 1.294 3.558 3.5 0 3.524 3.366-1.5 3.5l1 1a36 36 0 0 0-3.5 4.5q-1.416-1.144-1.5-3a77 77 0 0 0 0-8.5 13 13 0 0 1 2-5.5" style="opacity:1"/><path fill="#aa9da0" d="M128.5 125.5q2.128 1.426 5 1-3.29 1.945-7 0 .686-1.197 2-1" style="opacity:1"/><path fill="#beb5b3" d="M256.5 126.5q2.748.96 1 3-1.329-1.238-1-3" style="opacity:1"/><path fill="#7e6876" d="M84.5 128.5q2.947.672 1 3-1.329-1.237-1-3" style="opacity:1"/><path fill="#d1cdc6" d="M342.5 123.5q-.325 7.42-3 14-.382-7.602 3-14" style="opacity:.47"/><path fill="#c9c3bd" d="M124.5 132.5q.67-3.71 3-.5a4.93 4.93 0 0 1-3 .5" style="opacity:1"/><path fill="#c0b8b5" d="M198.5 129.5q3.71.67.5 3a4.93 4.93 0 0 1-.5-3" style="opacity:1"/><path fill="#c1bab7" d="M105.5 132.5q1.82 1.496-.5 3-.705-1.615.5-3" style="opacity:1"/><path fill="#b2a7a7" d="M124.5 132.5q-.294 3.219-3 .5a4.93 4.93 0 0 1 3-.5" style="opacity:1"/><path fill="#c6c0bb" d="M110.5 132.5q2.016 2.528-.5 5-.576-2.545.5-5" style="opacity:1"/><path fill="#dad9cf" d="M332.5 133.5q3.129 6.238-4 6a25 25 0 0 1-.5 7q-5.57 3.956-6-3a147 147 0 0 1 10.5-10" style="opacity:1"/><path fill="#765f6e" d="M31.5 136.5q.627 1.083 2 1.5a2.43 2.43 0 0 1-2 .5q-3.65-1.572 0-2" style="opacity:1"/><path fill="#aea2a4" d="M31.5 136.5h2q3.086 2.315 0 3-1.487.257-2-1a2.43 2.43 0 0 0 2-.5q-1.373-.417-2-1.5" style="opacity:1"/><path fill="#94828a" d="M181.5 137.5q-3.851.332-7 2a13.5 13.5 0 0 1-6-2.5q2.603-.977 5 .5l1-2a65 65 0 0 1 7 2" style="opacity:1"/><path fill="#d6d3ca" d="M102.5 137.5q2.24 1.218 2 4l-1 3q-2.268-2.236-3-5.5 1.373-.417 2-1.5" style="opacity:1"/><path fill="#c4bdb9" d="M115.5 136.5q1.314-.197 2 1-3.595 7.652-2-1" style="opacity:1"/><path fill="#ada1a3" d="M229.5 135.5q1.807 2.457 4 1 .417 2.77-2 4-.912-1.895-2-5" style="opacity:1"/><path fill="#d5d2c9" d="M339.5 138.5q-2.812 2.423-4 6-1.804-2.164-1.5-5a37 37 0 0 0 5.5-1" style="opacity:.722"/><path fill="#88737f" d="M174.5 141.5q.5 1.5 2 2a2.43 2.43 0 0 1-.5 2q-2.406-1.724-5 0l-1.5-1 2-2-1-1q-2.453-1.245-5-.5 4.498-2.526 9 .5" style="opacity:1"/><path fill="#b2a7a8" d="M174.5 141.5q4.328-.46 8 1-2.398-.401-4 1h-2q-1.5-.5-2-2" style="opacity:1"/><path fill="#d9d8ce" d="M108.5 142.5q1.875.116 2.5 2 1 3 0 6-3.304-3.253-2.5-8" style="opacity:1"/><path fill="#85707c" d="M64.5 142.5q1.495-.129 2.5 1 2.043 6.107 7 10 1 1 0 2-7.635-4.227-9.5-13" style="opacity:1"/><path fill="#7b6473" d="M182.5 142.5q-.626 1.083-2 1.5 9.546 1.471-1 1.5-1.257-.513-1-2 1.602-1.401 4-1" style="opacity:1"/><path fill="#c6c0bb" d="M300.5 145.5q2.128-1.426 5-1 .435 6.081-2 1.5a4.93 4.93 0 0 0-3-.5" style="opacity:1"/><path fill="#d7d4cb" d="M335.5 144.5q2.972.907 1 3-1.356-1.064-1-3" style="opacity:.584"/><path fill="#9f9096" d="M25.5 144.5q2.748.96 1 3-1.329-1.237-1-3" style="opacity:1"/><path fill="#b6acac" d="M182.5 142.5a41 41 0 0 1 9 .5l-5 1q3.598 1.066 7-.5 1.794.519 0 1.5a71.5 71.5 0 0 1-16 2.5q-.657.098-1-.5 1.856-.348 3-1.5 10.546-.029 1-1.5 1.374-.417 2-1.5" style="opacity:1"/><path fill="#aca0a2" d="M234.5 144.5q-.657-.098-1 .5a23 23 0 0 0 5 2q1.794.981 0 1.5-14.93-6.045-1 1.5-5.673.163-9-4.5 1.188-2.636 4-4-.619 1.923 2 3" style="opacity:1"/><path fill="#b8aead" d="M310.5 153.5q-1.494.129-2.5-1-1.22-3.603.5-7a4.46 4.46 0 0 1 2 1.5q-3.857 3.383 0 6.5" style="opacity:1"/><path fill="#bcb4b1" d="M220.5 148.5q1.495-1.82 3 .5-1.615.705-3-.5" style="opacity:1"/><path fill="#d2cec6" d="M30.5 148.5q2.466.32 4.5-1 .725 1.422.5 3 3.138-.091 4.5-3 .725 1.422.5 3h4q-.102-3.877-1.5-7 7.698 5.286 1.5 12-2.355-3.89-7-3a4.93 4.93 0 0 1-.5 3 20.5 20.5 0 0 1-2.5-4.5q-2.412-.987-3.5 1.5a8.44 8.44 0 0 1-.5-4" style="opacity:1"/><path fill="#dad8ce" d="M102.5 148.5q3.813 4.132 1.5 9-2.897-4.345-1.5-9" style="opacity:1"/><path fill="#d0ccc5" d="M336.5 148.5a4.93 4.93 0 0 0 .5 3q1.486-2.159 4-3 1.112 1.712 2.5 0 1.395 5.305 5 9a18.5 18.5 0 0 1-3.5-2q-1.03-3.082-3.5-5-3.119 1.943-5 5-1.946-3.71 0-7" style="opacity:.653"/><path fill="#7c6574" d="M95.5 160.5q1.064 1.356 3 1-1.095 2.317-4 2.5l4 3-1.5 1.5q-3.997-4.966-8.5-3.5-5.355-4.703-8-11 .065-5.82 3.5-2.5 2.862-4.248 2.5 1 5.175-1.115 5 4h4q-.639 2.458 0 4" style="opacity:1"/><path fill="#d1cdc5" d="M117.5 150.5q6.2.759 2.5 6-3.534-2.504-2.5-6" style="opacity:1"/><path fill="#d9d7cd" d="M16.5 145.5q-1.1 1.812-1 4-2.835-.305-4.5 2-.54 2.882-2.5 5 .94 1.375 1 3 1.812-1.1 4-1-.36 2.951 1 5.5a135 135 0 0 1-9 9q2.784 1.395 6 1.5 1.393-1.783 1-4h4q1 0 1 1a31 31 0 0 0-3 4.5 36.2 36.2 0 0 0-8 2.5 31.1 31.1 0 0 0 11 1q-.329-1.763 1-3 7.942 2.009 5-6l2-1q6.825-2.022 13.5-3 2.048 1.64 1 4-3.6 1.653-7.5.5a9.5 9.5 0 0 1-1.5-2.5 6.98 6.98 0 0 1-2.5 3.5 34.3 34.3 0 0 1 8 1.5q-1.27 2.017-3.5 3-3.438-1.652-4.5 2.5-6.545 3.532-14 4-1.647 1.155 0 2.5-6.495-1.389-10.5-7-1.529-5.058-4.5-9v-4q1.185-.424 2-1.5-1.526-1.574-.5-3.5a31.7 31.7 0 0 1 5-8q4.214-1.896 6.5-6 1.783-1.393 4-1" style="opacity:.942"/><path fill="#dbdad0" d="M315.5 151.5q-1.725-2.025-2 .5 2.034 2.35 2 5.5-4.266.236-5-4 2.985-.74 0-3.5 3.683-4.687 5 1.5" style="opacity:1"/><path fill="#d9d7cd" d="M300.5 145.5a14.7 14.7 0 0 0 3 3.5 8.4 8.4 0 0 1-4 .5q-.214 6.926 5 2 4.422 2.665 6 7.5-2.176-.394-4 .5 2.012 5.26 7 3a3.65 3.65 0 0 0-1-1.5q3.598-1.066 7 .5 2.514-4.509 5-9 2.498 2.634 3 6.5l-1 1.5-2-3a168 168 0 0 0-2 6.5q-2.315-.73-5-1.5.042 3.123-2 5.5a29 29 0 0 1-7-1 44.4 44.4 0 0 0-3 5.5h-5a2.43 2.43 0 0 0-.5-2 151 151 0 0 0-8.5 3q-.699 2.551 0 4.5-1.971 1.478-3 3.5-3.703-1.226-8-1.5 2.24-1.735-.5-2.5-10.3-1.531-18-10-.926-1.423.5-2.5l-4-2q2.33-5.672 7-3 1.701 1.524-1 2a2.43 2.43 0 0 0 2 .5q1.416 3.282 5 4l4 5q4.765.379 10-1v-3a8.4 8.4 0 0 0 4-.5q.929-2.636 3.5-3.5a42.3 42.3 0 0 0 6.5 4q6.141-.774 6-7-.147-3.656-3-6a25.6 25.6 0 0 1-4 9q-3.621-2.117-5-6a22 22 0 0 1 0-4q-2.548-1.972-5 0-1.938 2.632-3 6a254 254 0 0 1-6-3 9.1 9.1 0 0 1 5 1l1-1a16.3 16.3 0 0 0-4-2q-1.345-1.647-2.5 0-1-2 0-4 5.413-.519 9.5-4 3.65 4.113 9 2.5-2.575-2.338-6-2.5.528-3.921 4.5-5l1.5.5q-2.656.803-1 2.5a6.85 6.85 0 0 0 4 1" style="opacity:1"/><path fill="#cdc9c2" d="M315.5 151.5q3.752.489 3.5 4-3.107-.904-3.5-4" style="opacity:1"/><path fill="#9e8e94" d="M293.5 157.5q-3.853-.357-5-4 2.452-1.972 5 0a22 22 0 0 0 0 4" style="opacity:1"/><path fill="#c9c3be" d="M19.5 159.5q-3.34-1.351-3-5-1.763.329-3-1 6.108-.903 6 6" style="opacity:1"/><path fill="#806a77" d="M25.5 154.5q2.964 1.39 1 4-3.213-1.405-1-4" style="opacity:1"/><path fill="#a19297" d="M149.5 159.5q-.24-2.48-2-4 2.608-3.663 7-3.5a9.5 9.5 0 0 0-1.5 2.5q-3.657-2.049-1.5 1.5-.462 2.189-2 3.5" style="opacity:1"/><path fill="#d2cfc7" d="M240.5 154.5a2.43 2.43 0 0 1 2 .5 10.1 10.1 0 0 1-4 1.5q0-2 2-2" style="opacity:1"/><path fill="#b9b0af" d="M38.5 159.5q-2.128 1.426-5 1-1.812-1.1-4-1a44 44 0 0 1 3-2q-.186-.91-1-1 1.107-3.39 3-.5-1.255 1.517-1 3.5z" style="opacity:1"/><path fill="#aa9da0" d="M97.5 154.5q1.453 3.161 1 7-1.936.356-3-1 2.712-2.127 2-6" style="opacity:1"/><path fill="#d9d7ce" d="M109.5 154.5q2.875 3.263 4 8-.312 4.027-3.5 2a50.5 50.5 0 0 1-.5-10" style="opacity:1"/><path fill="#dad8ce" d="M147.5 155.5q1.76 1.52 2 4h-4q-.406-2.82 2-4" style="opacity:1"/><path fill="#a39499" d="M240.5 154.5q-2 0-2 2a569 569 0 0 0-5 2l-3-.5a27.2 27.2 0 0 0 8.5-4.5q1.147.105 1.5 1" style="opacity:1"/><path fill="#9f9096" d="M281.5 154.5a16.3 16.3 0 0 1 4 2l-1 1a9.1 9.1 0 0 0-5-1z" style="opacity:1"/><path fill="#d9d7cd" d="M33.5 160.5q2.872.426 5-1 1.45-1.96 4-2a6.85 6.85 0 0 1-1 4q-3.626.858-6.5 3a28 28 0 0 0-1.5-4" style="opacity:1"/><path fill="#dad8ce" d="M50.5 157.5q6.853-.625 4.5 6-5.157 1.38-9 5-3.947-6.596 4-7a8.44 8.44 0 0 0 .5-4" style="opacity:1"/><path fill="#dbd9cf" d="M131.5 157.5q3.888 2.304 3 7-6.072-1.144-3-7" style="opacity:1"/><path fill="#b9b0af" d="M273.5 154.5a31 31 0 0 0 9 5.5q-6.858 1.073-9-5.5" style="opacity:1"/><path fill="#d7d5cb" d="M204.5 157.5a43 43 0 0 1 5 1.5 36.8 36.8 0 0 0 8 6 11.3 11.3 0 0 0-3.5 1.5 34.3 34.3 0 0 1-1.5 8q-2.353-1.821-2.5-5-1.705 1.296-4 3a28 28 0 0 0-1.5-5q-1.298-1.624-3-.5 1.76 4.665-1.5.5.135-5.785 4.5-10" style="opacity:1"/><path fill="#816c79" d="M9.5 159.5q1.035 1.911 2.5 0l.5 2.5a44.6 44.6 0 0 0-4 6.5q-1.954-1.827-3 1-1.518-4.793 4-5.5-2.418-1.08-4.5.5.73-2.316 1.5-5z" style="opacity:1"/><path fill="#d9d8ce" d="M180.5 159.5q1.884-.058 3 1.5-6.315 3.564-3-1.5" style="opacity:1"/><path fill="#d4d1c8" d="M214.5 159.5q6.287-.947 5.5 5-3.397-2.026-5.5-5" style="opacity:1"/><path fill="#c2bab7" d="M348.5 157.5q1.467 3.048 4.5 5 1.038 1.405-.5 2-3.852-2.291-4-7" style="opacity:.9"/><path fill="#9e8e94" d="M22.5 157.5a71 71 0 0 1 2 4q1.025-.544 2-1v2l-1 4q-3.552-3.684-3-9" style="opacity:1"/><path fill="#dbd9cf" d="M329.5 164.5v-3q5.696.883 0 3" style="opacity:1"/><path fill="#d8d6cc" d="M26.5 162.5q3.127 1.275 6 1a10.8 10.8 0 0 1-2.5 3q-2.121-1.37-4.5 0z" style="opacity:1"/><path fill="#9f9095" d="M77.5 163.5q1.495-1.82 3 .5-1.83 2.692-3-.5" style="opacity:1"/><path fill="#cac5bf" d="M189.5 162.5q2.919 1.131 2.5 4-2.222-1.456-2.5-4" style="opacity:1"/><path fill="#c5beba" d="M19.5 159.5q1.792.549 2 2.5-1.542 5.182-4 9.5 0-1-1-1 .36-2.951-1-5.5 4.389-1.03 4-5.5" style="opacity:1"/><path fill="#aa9ea0" d="M271.5 166.5q-3.584-.718-5-4 3.074-.309 1-2.5 1.5-1 3 0-.247 1.676-1 3.5 1.668 1.147 2 3" style="opacity:1"/><path fill="#d7d5cc" d="M329.5 164.5q-.945 9.16-4 2 1.23-2.417 4-2" style="opacity:1"/><path fill="#dad8ce" d="M119.5 165.5q10.959 19.536-9 10a20.5 20.5 0 0 1 5.5-3q.5-2.32-1.5-4a31.6 31.6 0 0 1 5-3" style="opacity:1"/><path fill="#d9d7cd" d="M159.5 180.5q-1.812 1.1-4 1l-2-1q-2.154-1.393-4-3.5 1.837-5.019-2-9 5.257-5.838 12-1l-3 1q2.216 3.222 6 4-1.817 1.67 0 3.5a29 29 0 0 0-1.5 4q-1.63-3.648-1.5 1" style="opacity:1"/><path fill="#dddcd1" d="M353.5 165.5a50 50 0 0 1 4 6v4h-1q-2.245-4.69-3-10" style="opacity:.715"/><path fill="#d1cec6" d="M225.5 166.5q7.381.52-.5 3-.705-1.615.5-3" style="opacity:1"/><path fill="#d0ccc4" d="M216.5 168.5q3.585.277 3 4-.294 2.679-2.5 4l-1.5-1.5q1.384-3.062 1-6.5" style="opacity:1"/><path fill="#d6d4cb" d="M221.5 169.5q3.712 1.78 3 6h-3z" style="opacity:1"/><path fill="#a19398" d="M275.5 171.5q-1.008 1.15-2.5 2-.282-2.342 2.5-2" style="opacity:1"/><path fill="#deddd2" d="M330.5 171.5q3.234.558 0 3-1.593-1.388 0-3" style="opacity:1"/><path fill="#7a6372" d="M113.5 263.5q2.32-1.902 3-5 3.066-.797 5-3.5a39 39 0 0 0 7-1.5q5.652 5.413 13 4 2.818 1.262 6 1 5.025-.247 10 .5-5.798 2.724-12 .5-5.219 3.127-1.5 8 5.211-2.142 1.5 1.5 1.908 1.87 1 3.5-4.603-6.109-11-10a39.5 39.5 0 0 1-6 4.5 111 111 0 0 0-13 .5 13.3 13.3 0 0 1 3 4.5q-4.086.405-8 1.5-3.994-2.024-7 1.5l4 2q1.794.981 0 1.5a44 44 0 0 1-5.5-3q-3.424 1.828-7 0-2.35 2.034-5.5 2v-3q-5.763-.391-11 2-1.794-.519 0-1.5-4.5-1-9 0-1.92 3.197 0 6.5-2.052 1.64-3.5-1 .115 1.857-.5 3a52 52 0 0 0-8-5.5q-3.114-2.826-1-6.5 3.257.34 6.5 1 3.203-2.667 7.5-2 .19-4.642 5-5.5 8.235-9.078-.5-17.5a23.7 23.7 0 0 0 .5 10 76 76 0 0 0-3.5 7q-7.37 6.784-17.5 5.5 8.428-2.924 14.5-9.5 2.11-7.286-3.5-12-4.21-3.816 2-3 7.008-.542-.5-4-2.925.31-3.5 3-7.268 1.263-.5 3 .315 2.337 1.5 4 2.947.716 4 3.5-3.36 5.505-7 10.5a52.5 52.5 0 0 0-12 2q-2.03 1.536-2 4h-5q-.525 5.007-5 3l1-2q-7.595-2.279 1-3.5 1.255-1.517 1-3.5-5.266 2.377-11 1.5 6.422-4.416 8-12a16.2 16.2 0 0 0-1.5-3.5q-1.79 3.185-2 7a20.5 20.5 0 0 0-3.5 2.5q.685.621 1 1.5-3.162 2.166-7 2a72 72 0 0 0 5-8l-1-1q-1.605 2.115-4 3-1.937-1.562 0-3.5a4.93 4.93 0 0 0-3-.5q-1.281-1.698 0-4 2.436-.21 3.5 2 .42-3.258-2.5-5 .369-5.476 0-10.5a4.93 4.93 0 0 1 3-.5q-.57 3.663 2 2 3.792 1.526 0 3.5l1.5 1.5a41.3 41.3 0 0 1 4.5-6q-.206-2.411-2-4l-4 4a13.1 13.1 0 0 1-1-7q5.04.174 10 1a73.3 73.3 0 0 1-1.5-12l4.5 7q1.428-1.55 0-3.5.763-1.753 2.5-2.5 3.568 6.012 5.5 12.5a6.98 6.98 0 0 0-3.5 2.5q.087 13.234-4 1-5.694 7.942 2.5 13.5a219 219 0 0 1-.5 12.5q12.222 7.01 19.5-5h-4v3a61 61 0 0 0-7.5 2l-3.5-1a104 104 0 0 0 9-4.5l2-4q-2.342-.282-2 2.5h-4q.329 1.763-1 3-1.852-1.26-3-3a71 71 0 0 1 4-2q-1.238-1.329-3-1a4.93 4.93 0 0 1 .5-3q1.955-.918 3.5-1l-5-2q.186-.91 1-1 2.807 1.942 5-.5-1.374-.417-2-1.5a71 71 0 0 0-4-2 26.7 26.7 0 0 1 7-1.5q-10.065-4.644 1-6.5-.042 3.124 2 5.5 1.475.886 2-1-.874-6.328-7-7-6.248-4.002 1.5-4.5a19.5 19.5 0 0 0 7.5 1 8.44 8.44 0 0 0 .5 4q7.283 2.28 11 9 .637-5.535 2.5-.5 3.678.434 7 2a343 343 0 0 1 6 15.5q-1.663 2.197 1.5 3 1.517-1.255 3.5-1a91 91 0 0 0 .5-19 1338 1338 0 0 1-33.5-28 7.3 7.3 0 0 1 3-2q6.612 4.847 10-2.5a18.9 18.9 0 0 0 5-3q-3.82.509-7.5 2.5l-1.5-1q2.79-1.237 5-3 4.44-.798 1-2-1.845-.712-3-4 1.238-1.329 3-1-.483-3.334 2-5.5-.825-2.097-1-4l2-1q-1.758-2.803.5-5.5 2.394-.822 3.5 2a18.7 18.7 0 0 0 3-5q-1.87-2.995-2.5-6l9.5 9.5 8 2a19.4 19.4 0 0 0 5.5 7.5q-.324 16.457-8.5 30.5 2.021 2.36 2 5.5-1.009 3.499-.5 7a41.4 41.4 0 0 0 9.5 4.5 39 39 0 0 1 5 5.5q-6.013 3.532-3 10-1.182 6.68-8 7a29 29 0 0 1 1.5 4l1-1a37 37 0 0 0 4.5 2q1.163-2.703 3-2" style="opacity:1"/><path fill="#b3a9a9" d="M300.5 172.5h5q-1.707 4.15-5.5 2-1.038-1.405.5-2" style="opacity:1"/><path fill="#d9d7cd" d="M320.5 167.5h3q.54 8.433-7 7.5-2.927 2.601-3 6.5a19.4 19.4 0 0 0-8 1q-1.323 11.568-13 10.5-4.421 1.922-7 6-2.5 1-5 0 1.11-5.47 5-9.5 3.905 1.593 8 .5 2.452-2.622 6-3.5a3.65 3.65 0 0 1 1-1.5l-4-3q3.714-1.737 6.5-4.5 3.782 1.76 7.5 0-1.966-1.137-1.5-3a661 661 0 0 1 5-3q2.684 1.364 5.5.5-3.54-2.811 1-4.5" style="opacity:1"/><path fill="#cec9c3" d="M325.5 174.5h3q-.006 3.513-2.5 6-2.533-2.73-.5-6" style="opacity:1"/><path fill="#765f6e" d="M78.5 177.5q1.329-1.914 3 0-1.387 1.593-3 0" style="opacity:1"/><path fill="#87737f" d="M74.5 175.5q2.748.96 1 3-1.329-1.237-1-3" style="opacity:1"/><path fill="#bcb4b1" d="M226.5 171.5q1.034-1.911 2.5 0 1.227 4.09-.5 8 .02-4.054-2-8" style="opacity:1"/><path fill="#d2cfc7" d="M319.5 178.5h3q1.196 8.57-7.5 10-3.993-.418-2.5-3.5 8.097 1.381 7-6.5" style="opacity:1"/><path fill="#9a8a91" d="M101.5 178.5q2.755.209 1 2-1.197-.686-1-2" style="opacity:1"/><path fill="#a29398" d="M192.5 180.5q1.813-1.923 4 0-1.8 1.188-4 0" style="opacity:1"/><path fill="#796271" d="M178.5 180.5q4.536.67 1 2.5 2.305 1.665 2 4.5h-3z" style="opacity:1"/><path fill="#7c6574" d="M192.5 180.5q.257 1.487-1 2h-1q0-2 2-2" style="opacity:1"/><path fill="#d7d5cc" d="M231.5 180.5q3.768 1.074 0 3-1.593-1.388 0-3" style="opacity:1"/><path fill="#d2cec7" d="M356.5 179.5q0 1 1 1v3h-2q-.401-2.398 1-4" style="opacity:.564"/><path fill="#d9d7cd" d="M87.5 182.5q1.064-1.356 3-1 .528 3.86-1.5 7-.285-3.312-1.5-6" style="opacity:1"/><path fill="#a39599" d="M110.5 180.5q.814.09 1 1a31 31 0 0 0-2 2 31.3 31.3 0 0 1-5-2q2.904.207 6-1" style="opacity:1"/><path fill="#b4aaaa" d="M288.5 181.5q.009 4.572-3 1.5 1.116-1.558 3-1.5" style="opacity:1"/><path fill="#d4d1c8" d="M117.5 183.5h-5q.424-1.184 1.5-2a19.6 19.6 0 0 1 3.5 2" style="opacity:1"/><path fill="#d1cec6" d="M167.5 180.5q2.15 3.621 1.5 8-10.946 2.757-2-3a12.9 12.9 0 0 0 .5-5" style="opacity:1"/><path fill="#b0a5a6" d="M190.5 182.5h1q0 1 1 1-1.008 1.15-2.5 2-.513-3.179-2.5-1-.166-.925-1-1.5a8.4 8.4 0 0 1 4-.5" style="opacity:1"/><path fill="#b8afae" d="M83.5 182.5q1.79.705 2 3l-.5 3q-1-8-2 0-1.016-3.147.5-6" style="opacity:1"/><path fill="#d9d6cd" d="M95.5 182.5q.925.166 1.5 1 .775 10.942-7.5 18l-1-1.5a126 126 0 0 1 6.5-12.5q.74-2.451.5-5" style="opacity:1"/><path fill="#95838c" d="M112.5 183.5h5a10.2 10.2 0 0 0 3 3q-4.415-.72-8-3" style="opacity:1"/><path fill="#c5bfba" d="m153.5 180.5 2 1 1.5 3q1-2 2 0a8.4 8.4 0 0 0 .5-4q1.884-.058 3 1.5-2 1.5 0 3-8.08 5.737-9-4.5" style="opacity:1"/><path fill="#765f6e" d="M159.5 180.5a8.4 8.4 0 0 1-.5 4q-1-2-2 0l-1.5-3q2.188.1 4-1" style="opacity:1"/><path fill="#dbdad0" d="M15.5 185.5q5.445.407 3 5-5.445-.407-3-5" style="opacity:.804"/><path fill="#dbd9cf" d="M228.5 187.5q.424-1.184 1.5-2 .792 1.974-1.5 2" style="opacity:1"/><path fill="#846f7c" d="M120.5 186.5q5.338-.138 10 2.5-5.67 1.02-10-2.5" style="opacity:1"/><path fill="#ccc7c1" d="M355.5 185.5q-.382 3.7-3 6 .382-3.7 3-6" style="opacity:.5"/><path fill="#7b6473" d="M29.5 188.5q3.93 2.978 9 3 2.627 9.91-7 7.5-2-1.5 0-3-4.683-2.131-1-5-1.128-1.006-1-2.5" style="opacity:1"/><path fill="#cfcac3" d="M231.5 189.5q4.572-.009 1.5 3-1.558-1.116-1.5-3" style="opacity:1"/><path fill="#cec9c3" d="M315.5 189.5q2.377.753 1.5 3-2.565 2.167-5.5 2.5 2.908-2.148 4-5.5" style="opacity:1"/><path fill="#7d6675" d="M40.5 200.5a20.7 20.7 0 0 1-1-5q6.325.428 6.5-6l1 5q.803-2.656 2.5-1-1.239 1.426-.5 3 5.332-1.475 8.5 3.5-.337 2.432-2.5 3.5-3.305-2.066-4.5-6l-1 .5a42.3 42.3 0 0 0-1.5 8.5q-2.493-4.615-7.5-6" style="opacity:1"/><path fill="#bfb7b4" d="M239.5 191.5q1.782 2.994-2 2.5 1.321-1.062 2-2.5" style="opacity:1"/><path fill="#d0cbc4" d="M352.5 191.5q-.482 2.322-3 2 1.185-1.352 3-2" style="opacity:1"/><path fill="#dad8ce" d="M216.5 196.5q-2.468 1.468-4 4-4.95-2.554-4 2a9.86 9.86 0 0 0-6 1q.186.91 1 1 21.926 3.269 0 3.5.834.575 1 1.5-3.161 1.452-7 1-3.182.262-6-1a813 813 0 0 1 11-2q-.186-.91-1-1a17.9 17.9 0 0 0-5-5l.5-1q3.608-.696 7.5-.5-.555-2.415 2-4.5 5.115 4.63 6-2 3.178-.048 4 3" style="opacity:1"/><path fill="#d7d5cc" d="M226.5 196.5q2.116-5.695 3 0z" style="opacity:1"/><path fill="#dcdbd0" d="M234.5 195.5q2.755.209 1 2-1.197-.686-1-2" style="opacity:1"/><path fill="#d2cec6" d="M216.5 196.5q11.718-6.767 2.5 3a10.5 10.5 0 0 1-2.5-3" style="opacity:1"/><path fill="#cbc6c0" d="M349.5 193.5q-2.638 7.703-10 8a145 145 0 0 1 5-4.5 4.93 4.93 0 0 1 3-.5q-.322-2.519 2-3" style="opacity:.563"/><path fill="#7a6272" d="M118.5 198.5a55 55 0 0 1 5.5 4q1.08 2.418-.5 4.5-1 1-2 0a14.5 14.5 0 0 0-4.5-4.5q-.45-2.349 1.5-4" style="opacity:1"/><path fill="#cac4be" d="M226.5 196.5q.058 1.884-1.5 3-.877-2.247 1.5-3" style="opacity:1"/><path fill="#ccc7c1" d="M229.5 198.5q2.755.209 1 2-1.197-.686-1-2" style="opacity:1"/><path fill="#98878f" d="M40.5 200.5q-.515 2.587-3 1.5 1.116-1.558 3-1.5" style="opacity:1"/><path fill="#d9d6cd" d="M234.5 200.5q1.314-.197 2 1-3.462 2.06-2-1" style="opacity:1"/><path fill="#8e7b85" d="M167.5 201.5q2.645-1.251 5 1.5-2.993.92-5-1.5" style="opacity:1"/><path fill="#796271" d="m76.5 201.5-1 2a4.93 4.93 0 0 1-3-.5 10.1 10.1 0 0 1 4-1.5" style="opacity:1"/><path fill="#b1a6a7" d="M76.5 201.5q3.44 1.202-1 2z" style="opacity:1"/><path fill="#a29499" d="M108.5 202.5q3.705 1.29.5 4a8.4 8.4 0 0 1-.5-4" style="opacity:1"/><path fill="#afa4a5" d="M208.5 202.5q-1.541 1.193-5 2-.814-.09-1-1a9.86 9.86 0 0 1 6-1" style="opacity:1"/><path fill="#7c6674" d="M51.5 208.5q-2.343-9.223 3.5-1 3.078 3.03-.5 5a172 172 0 0 0-3-4" style="opacity:1"/><path fill="#d8d6cc" d="M234.5 203.5a12.9 12.9 0 0 1 5 .5q-3.127 3.208-5-.5" style="opacity:1"/><path fill="#dad8ce" d="M272.5 202.5q5.115-.174 4 5-3.896.215-7 2.5-17.728 3.834-2-3a29 29 0 0 1 5-4.5" style="opacity:1"/><path fill="#765f6e" d="M41.5 204.5q1.15 1.008 2 2.5-2.342.282-2-2.5" style="opacity:1"/><path fill="#dad9cf" d="M87.5 204.5q1.137 3.722 0 8a9.86 9.86 0 0 1-6-1q3.789-2.877 6-7" style="opacity:1"/><path fill="#e1e2d5" d="M338.5 204.5q2 1 0 0" style="opacity:1"/><path fill="#ada2a3" d="M217.5 203.5q9.496 2.926 0 3z" style="opacity:1"/><path fill="#bbb2b0" d="M236.5 206.5q2.217-.393 4 1l-2 1q-1.82-.37-2-2" style="opacity:1"/><path fill="#bfb7b4" d="M330.5 204.5q.406 2.82-2 4-.406-2.82 2-4" style="opacity:1"/><path fill="#ab9ea1" d="M201.5 206.5q.814.09 1 1a813 813 0 0 0-11 2q-1.184-.424-2-1.5 6.282-.264 12-1.5" style="opacity:1"/><path fill="#d9d7cd" d="M205.5 211.5q0-1 1-1a82 82 0 0 0 21.5-3q2.951.063 5.5 1.5a27.36 27.36 0 0 1-11.5 3.5 94 94 0 0 0-16.5-1" style="opacity:1"/><path fill="#7f6977" d="M51.5 208.5q.356 1.937-1 3 .128-1.494-1-2.5a2.43 2.43 0 0 1 2-.5" style="opacity:1"/><path fill="#dbd9cf" d="M328.5 208.5q-2.842 2.612-7 3 2.842-2.612 7-3" style="opacity:.501"/><path fill="#796271" d="M119.5 210.5q2.722 1.694 6 2 .32 2.466-1 4.5-2.315-.73-5-1.5z" style="opacity:1"/><path fill="#aea3a4" d="M204.5 209.5q1.487-.257 2 1-1 0-1 1-4.328.46-8-1 3.839.452 7-1" style="opacity:1"/><path fill="#a09196" d="M112.5 211.5q2.947.672 1 3-3.029-.95-1-3" style="opacity:1"/><path fill="#d1cec6" d="M318.5 211.5q.11 2.29-2 3-.11-2.29 2-3" style="opacity:.749"/><path fill="#98878f" d="M50.5 211.5q1.749 2.5 0 5-3.726-2.804 0-5" style="opacity:1"/><path fill="#d8d6cd" d="m210.5 213.5 2 2q-3.86.528-7-1.5a12.9 12.9 0 0 1 5-.5" style="opacity:1"/><path fill="#a5979b" d="M210.5 213.5q3.839-.452 7 1 .687 1.908-2 3-10.546-.029-1-1.5a2.43 2.43 0 0 0-2-.5z" style="opacity:1"/><path fill="#98878f" d="M38.5 213.5q1.914 1.329 0 3-1.593-1.388 0-3" style="opacity:1"/><path fill="#d5d2ca" d="M151.5 215.5q11.579-2.923 10 9-3.646-6.154-10-9" style="opacity:1"/><path fill="#d9d7cd" d="M217.5 214.5q16.01 2.525 32 1 1.937-.356 3 1-7.01 3.236-16 4a33.7 33.7 0 0 1-10-2.5 61 61 0 0 0-11-.5q2.687-1.092 2-3" style="opacity:1"/><path fill="#aa9da0" d="M252.5 216.5q-1.063-1.356-3-1 4.7-1.865 10-1.5a86 86 0 0 0-7 2.5" style="opacity:1"/><path fill="#d5d2ca" d="M297.5 214.5q1.736 5.036-4 4.5a25 25 0 0 0 4-4.5" style="opacity:1"/><path fill="#dbd9cf" d="M316.5 214.5q-.357 2.856-3 4 .357-2.856 3-4" style="opacity:.502"/><path fill="#846f7b" d="M35.5 218.5q2.023-1.945 4 .5-1.98.292-4-.5" style="opacity:1"/><path fill="#d3d0c8" d="M280.5 215.5q2.217-.393 4 1-12.484 1.728-24 5.5 2.974-2.833 7-4a117 117 0 0 0 13-2.5" style="opacity:1"/><path fill="#dcdad0" d="M150.5 220.5q2.153-.894 5 0l-1 8q-1.763.329-3-1 4.252-4.23-1-7" style="opacity:1"/><path fill="#bcb4b1" d="M289.5 220.5q2.755.209 1 2-1.197-.686-1-2" style="opacity:1"/><path fill="#826d7a" d="M117.5 220.5q2.766 1.056 1.5 4-1.782-1.595-1.5-4" style="opacity:1"/><path fill="#a7999d" d="M232.5 222.5q-3.864-.048-7 2 2.608-4.372 7-2" style="opacity:1"/><path fill="#cecac3" d="M136.5 224.5q4.108.803 5.5-3a8.4 8.4 0 0 1 .5 4h4q-.687-6.793 3-1.5a38.7 38.7 0 0 1-5 5.5 20 20 0 0 0-3.5-4 13.9 13.9 0 0 0-4 3 8.4 8.4 0 0 1-.5-4" style="opacity:1"/><path fill="#dcdbd0" d="M252.5 248.5q-1.83 2.325 0 5a71 71 0 0 0-2 4q-4.797-2.678-9-4l2-2q-2.846-1.728-5 1a23 23 0 0 1-4-3q.5-1.5 2-2a19.5 19.5 0 0 0 3-7q4.649-.612 7 3.5a4.93 4.93 0 0 0 3 .5q.537-4.965 1-10 2.397 1.477 5 .5 1.817-1.34 0-2.5-5.5-2-11 0l-3-2q-2.934 2.776-3 7l-2-5q0-3-3-3-2.496 1.865-3.5 5-.623-2.686-3-4-1.305.912-1.5 2.5a54 54 0 0 0 6 8l-3 1q2.27 5.144-2 9a2.43 2.43 0 0 0 2 .5v1q-6.087 7.471 3 3v3q-2.682-.428-5 1l2 2q-9.055 5.673-8.5-5a47.6 47.6 0 0 1-4.5-7 4.46 4.46 0 0 0-1.5 2 10.3 10.3 0 0 0-1.5-4 26 26 0 0 0-3 5l-1-2a82 82 0 0 1 5-11q4.602-2.991 2-8l3.5-7q1.206-1.956 3.5-2a59 59 0 0 0 3 2q3.136-2.048 7-2 4.463.32 8 3a4.46 4.46 0 0 0 1.5-2q4 2 8 0 2.001 5.406 7.5 3.5-2.844-1.597-.5-2.5a66 66 0 0 1 5.5 5.5q-2.704.955-4 3.5 4.259 2.594 9 2.5a3.65 3.65 0 0 1-1-1.5 22 22 0 0 1 4-9q-2.116-2.276.5-4 2.738.905 5.5 2a26.6 26.6 0 0 1-3.5 2q-.17 3.711-3 6-.518 3.265 1.5 6a4.93 4.93 0 0 1-1 2.5q-7.245 1.403-14 1.5.426 5.036-4 7" style="opacity:1"/><path fill="#d2cec6" d="M310.5 222.5q.129 1.494-1 2.5 7.297-1.044 10 5.5-.507 3.233 0 7-.926-.166-1.5-1a42.4 42.4 0 0 0-1.5-8.5q-4.56-3.232-8.5.5-.812-3.873 2.5-6" style="opacity:.916"/><path fill="#d3d0c8" d="M170.5 224.5a2.43 2.43 0 0 1 2 .5q-1.208 2.958-4 4.5a11.4 11.4 0 0 1-2-2.5 51 51 0 0 1 4-2.5" style="opacity:1"/><path fill="#7e6775" d="M228.5 224.5q3.34 1.351 3 5h-3z" style="opacity:1"/><path fill="#7d6674" d="M122.5 226.5q3.876.822 3 5-1.983-.255-3.5 1-3.08-3.32.5-6" style="opacity:1"/><path fill="#dcdbd0" d="M295.5 227.5q2.755.209 1 2-1.197-.686-1-2" style="opacity:1"/><path fill="#d3d0c8" d="M278.5 227.5a2.43 2.43 0 0 1 2 .5l-3 2.5q4 3 0 6a6.55 6.55 0 0 1-3-3q1.817-1.83 0-3.5 2.35-.913 4-2.5" style="opacity:1"/><path fill="#d6d4cb" d="M158.5 229.5q2.587.514 1.5 3a13.9 13.9 0 0 1-4 3q-.366-3.645 2.5-6" style="opacity:1"/><path fill="#7b6473" d="M233.5 229.5q3 0 3 3v7a39 39 0 0 0-2.5 5 2.43 2.43 0 0 1-.5-2q1.913-4.656 0-9z" style="opacity:1"/><path fill="#d6d3ca" d="M138.5 230.5h3a4.93 4.93 0 0 1-.5 3 20.5 20.5 0 0 0-5.5 3q-2.417-1.23-2-4 3.422.634 5-2" style="opacity:1"/><path fill="#7a6372" d="M236.5 247.5q-1.5.5-2 2-1.251-2.645 1.5-5a12.9 12.9 0 0 0 .5-5q2 0 2-2 .066-4.224 3-7l3 2q5.5-2 11 0 1.817 1.16 0 2.5-2.603.977-5-.5a630 630 0 0 1-1 10 4.93 4.93 0 0 1-3-.5q-2.351-4.112-7-3.5a19.5 19.5 0 0 1-3 7" style="opacity:1"/><path fill="#d4d1c9" d="M283.5 230.5q1.356 1.063 1 3-5.257-.291-1-3" style="opacity:1"/><path fill="#d6d3ca" d="M147.5 231.5h3a4.93 4.93 0 0 1-.5 3 87 87 0 0 1-6.5 4q-1.532-.753-.5-2 3.623-1.367 4.5-5" style="opacity:1"/><path fill="#b1a6a7" d="m236.5 232.5 2 5q0 2-2 2z" style="opacity:1"/><path fill="#c7c1bc" d="M288.5 230.5q1.945 2.023-.5 4-.868-2.143.5-4" style="opacity:1"/><path fill="#b0a5a6" d="M292.5 230.5q2.947.672 1 3-1.329-1.237-1-3" style="opacity:1"/><path fill="#bfb7b4" d="M233.5 233.5q1.913 4.344 0 9-2-4.5 0-9" style="opacity:1"/><path fill="#d7d5cc" d="M283.5 235.5q1.763-.329 3 1-1.834 1.671-4 .5.834-.575 1-1.5" style="opacity:1"/><path fill="#d0cbc4" d="M292.5 237.5q-3.71-.67-.5-3 .724 1.422.5 3" style="opacity:1"/><path fill="#826d7a" d="M124.5 236.5q2.434 5.862-2 2-5.718.647 0-3 1.025.544 2 1" style="opacity:1"/><path fill="#d7d4cb" d="M151.5 236.5q2.755.209 1 2-1.197-.686-1-2" style="opacity:1"/><path fill="#765f6e" d="M251.5 238.5q1.495-1.82 3 .5-1.615.705-3-.5" style="opacity:1"/><path fill="#d6d4cb" d="M130.5 245.5h-2q3.389-6.5 11-7 .255 1.983-1 3.5-4.762.74-8 3.5" style="opacity:1"/><path fill="#c6c0bb" d="M292.5 237.5h3q-2.829 9.396-3 0" style="opacity:1"/><path fill="#d7d5cb" d="M142.5 243.5q1.856-4.45 6-3-1.818 3.635-6 3" style="opacity:1"/><path fill="#cbc5c0" d="M154.5 239.5h3q-2.172 9.703-3 0" style="opacity:1"/><path fill="#d7d4cb" d="M286.5 239.5q1.763-.329 3 1a39 39 0 0 1-5 5.5q-2.112.473-4-1 4.028-1.741 6-5.5" style="opacity:1"/><path fill="#e0e0d4" d="M68.5 245.5q-1.602-1.401-4-1 .575-2.69 3.5-3 7.508 3.458.5 4" style="opacity:1"/><path fill="#9f9095" d="M233.5 229.5v4q-2 4.5 0 9a2.43 2.43 0 0 0 .5 2 39 39 0 0 1 2.5-5 12.9 12.9 0 0 1-.5 5q-2.751 2.355-1.5 5a23 23 0 0 0 4 3q-3.976 6.227-5.5-1l-1 1q1.469-2.668-1-5-.913 2.35-2.5 4a2.43 2.43 0 0 1-2-.5q4.27-3.856 2-9l3-1a54 54 0 0 1-6-8q.195-1.588 1.5-2.5 2.377 1.314 3 4 1.004-3.135 3.5-5" style="opacity:1"/><path fill="#d7d5cc" d="M320.5 242.5q2.975-.514 4 2-2.243-.733-4-2" style="opacity:.583"/><path fill="#7b6473" d="M46.5 243.5q1.914 1.329 0 3-1.593-1.388 0-3" style="opacity:1"/><path fill="#d7d4cb" d="M142.5 243.5q-1.107 3.39-3 .5a4.93 4.93 0 0 1 3-.5" style="opacity:1"/><path fill="#d6d4cb" d="M276.5 237.5q5.215.168 4.5 5a32.6 32.6 0 0 1-10.5 2q.305 2.835-2 4.5a112 112 0 0 0-9 5.5q-.373-1.623-.5-4-4.528-2.41.5-5 4.978 4.785 6.5-2 .621.686 1.5 1-.586-1.827 2-2.5l6-1q1.255-1.517 1-3.5" style="opacity:1"/><path fill="#b5abaa" d="M52.5 243.5q.626 1.083 2 1.5-2.193 2.442-5 .5 1.185-1.352 3-2" style="opacity:1"/><path fill="#9d8e94" d="M64.5 244.5q2.398-.401 4 1-6.21-.816-2 3-1.356 1.063-1 3-1.185-1.663-1.5-4-6.768-1.737.5-3" style="opacity:1"/><path fill="#d0cbc4" d="M291.5 245.5q-2.755-.209-1-2 1.197.686 1 2" style="opacity:1"/><path fill="#c0b9b6" d="M147.5 244.5q4.76.678 1 3-1.329-1.237-1-3" style="opacity:1"/><path fill="#765f6e" d="M240.5 245.5q5.193 2.54 0 3z" style="opacity:1"/><path fill="#ada1a3" d="M128.5 245.5h2v3q-2.519.322-3-2 1 0 1-1" style="opacity:1"/><path fill="#d9d7cd" d="M275.5 246.5q2.682-.428 5 1a61.6 61.6 0 0 0-8 7 6.85 6.85 0 0 0-1 4 17.7 17.7 0 0 1-6 .5q-4.478-7.075 2.5-2.5 1.676-2.174 2-5 3.492-1.745 5.5-5" style="opacity:1"/><path fill="#beb6b3" d="M31.5 244.5q2.355 2.062 2.5 5a7.25 7.25 0 0 0-2.5-2 14.7 14.7 0 0 0-1.5 5l-2.5-2.5a55 55 0 0 0 4-5.5" style="opacity:1"/><path fill="#7e6876" d="M236.5 247.5q2.947.672 1 3-1.329-1.237-1-3" style="opacity:1"/><path fill="#d1cdc5" d="M283.5 247.5q2.217-.393 4 1a21.6 21.6 0 0 1-5 4l2 2q-2.733 1.393-4-2 2.178-2.16 3-5" style="opacity:1"/><path fill="#b0a4a5" d="M291.5 245.5q2.748.96 1 3-1.329-1.237-1-3" style="opacity:1"/><path fill="#9f9095" d="M119.5 249.5q2.023-1.945 4 .5-2.142.868-4-.5" style="opacity:1"/><path fill="#c4bdb9" d="M324.5 244.5q3.411 2.468 0 4.5 1.374.417 2 1.5h-3z" style="opacity:1"/><path fill="#ada1a3" d="M23.5 247.5q2.92 1.742 2.5 5-1.064-2.21-3.5-2-2.078-2.17 1-3" style="opacity:1"/><path fill="#765f6e" d="M46.5 249.5q3.705 1.29.5 4a8.44 8.44 0 0 1-.5-4" style="opacity:1"/><path fill="#a09297" d="M252.5 248.5q1.83 2.675 0 5-1.83-2.675 0-5" style="opacity:1"/><path fill="#7b6473" d="M137.5 250.5q.456.975 1 2-2 2-4 0 .757-2.128 3-2" style="opacity:1"/><path fill="#beb6b4" d="M62.5 257.5q-.029-2.34-1-4.5.195-1.588 1.5-2.5 1.195 3.808-.5 7" style="opacity:1"/><path fill="#a99c9f" d="M161.5 253.5q-2.5 2-5 0 1.884-.606 3.5-2l1.5.5q-3.896 1.168 0 1.5" style="opacity:1"/><path fill="#b2a7a7" d="M22.5 254.5a4.93 4.93 0 0 1 3 .5q-1.937 1.938 0 3.5-.31 3.074-2.5 1 .79-2.59-.5-5" style="opacity:1"/><path fill="#a3959a" d="M228.5 252.5q2.818-.16 1 1.5 2.764.238 2 1.5-9.087 4.471-3-3" style="opacity:1"/><path fill="#dddcd1" d="M277.5 253.5q1.447 1.831-.5 4-.868-2.143.5-4" style="opacity:1"/><path fill="#765f6e" d="M48.5 255.5q.257 4.946-2 1 .686-1.197 2-1m68 1q-1.343 1.509-2 0 .657 1.509 2 0" style="opacity:1"/><path fill="#ab9ea1" d="M173.5 256.5v1a16.9 16.9 0 0 1-8-1q3.984-1.671 8 0" style="opacity:1"/><path fill="#ada1a3" d="M141.5 257.5a32 32 0 0 1 4-1q1.533.533 2 2-3.182.262-6-1" style="opacity:1"/><path fill="#dbdacf" d="M288.5 269.5q-1.812-1.1-4-1v-3q-7.116.693-3-4.5a10.1 10.1 0 0 1 6-1.5q.209-7.335 4.5-1a12.5 12.5 0 0 1 0 7q-2.44 1.548-3.5 4" style="opacity:1"/><path fill="#9c8c93" d="M114.5 256.5q.657 1.509 2 0v2q-.68 3.098-3 5-.882-2.558-1-5 .533-1.533 2-2" style="opacity:1"/><path fill="#c0b9b5" d="M328.5 257.5q3.067 3.294 1 7 .38-3.49-2-6 .186-.91 1-1" style="opacity:1"/><path fill="#ab9ea1" d="M165.5 259.5v6a42 42 0 0 1-2-6q.705-1.445 2 0" style="opacity:1"/><path fill="#b4aaaa" d="M263.5 265.5q4.206-1.707 9-.5-2.853.299-4.5 2.5a9.2 9.2 0 0 0-4.5-2" style="opacity:1"/><path fill="#d4d1c8" d="M317.5 264.5q2.16 2.88-1 5-1.051-2.538 1-5" style="opacity:1"/><path fill="#d6d3ca" d="M81.5 265.5h4v3h-4z" style="opacity:1"/><path fill="#beb6b3" d="M321.5 266.5q2.755.209 1 2-1.197-.686-1-2" style="opacity:1"/><path fill="#a89b9e" d="M196.5 269.5q-5.313.469-10-1a9.1 9.1 0 0 0 5-1q2.754.792 5 2" style="opacity:1"/><path fill="#7c6674" d="M159.5 295.5q-3.675.303-7-1-3.018-1.262-4-4.5a28 28 0 0 1-4-1.5v-3q7.36-7.377-3-7.5a13.9 13.9 0 0 0 3 4q-1.255 1.517-1 3.5-2.317.305-4 2-.91-.186-1-1v-1q2.528-1.026 3-4-.533-1.533-2-2-1.008-1.15-2.5-2-3.291 3.505-7.5 1-.197-1.314 1-2 3.688 1.88 8-.5a75.5 75.5 0 0 0-14-5q-3.472-2.052 0-2.5 17.62 3.11 31.5 14 1.418-.608 2-2l1 1a10.3 10.3 0 0 1 1.5-4q.747 1.654 1 3 1.5-.5 2-2-2.195-3.344-2.5-7 9.69 7.68-1.5 11.5 6.183 4.637 2 10.5-6.03-3.549-12-7l-1 1a106 106 0 0 0 11 8" style="opacity:1"/><path fill="#7b6473" d="M31.5 269.5q3.724.345 1.5 2-1.545-.504-1.5-2" style="opacity:1"/><path fill="#d8d6cc" d="M89.5 268.5q3.39 1.266 3 5h-3zm215 8q4.656.793 7-3a10.3 10.3 0 0 0-4-1.5q1.255-1.517 1-3.5h3q-2.994-5.011 2.5-7a4.93 4.93 0 0 0 .5-3q7.196-.562 2 2a11.5 11.5 0 0 1-3.5 5 37.3 37.3 0 0 1-.5 7 7.5 7.5 0 0 0 3 2v3q3.71.618 4-3 2.292.026 1.5 2a68.6 68.6 0 0 1-8.5 6 44 44 0 0 1 3 2q-3.15-.034-5.5 2a439 439 0 0 1-9.5-.5q.834-.574 1-1.5 1.939-1.717 3.5 1 .41-2.744 2.5-4.5-2-1-4 0a64.5 64.5 0 0 0-8 3.5 26 26 0 0 0-5-3.5q1.314-2.377 4-3-6.403-3.645-10 3-2.098.892-4-.5a74 74 0 0 1-5-6.5 41 41 0 0 1 5.5-2.5 29.8 29.8 0 0 0 8.5 3 20.7 20.7 0 0 0-1-5q5.556-.214 10 3 3.558-1.294 0-3.5 3.98-3.108-1-5 2.023-1.158 2.5-3.5l1 2q3.828-1.04 6.5-4-.397 5.111-4 10l3 4q-1.695 1.683-2 4" style="opacity:1"/><path fill="#c8c3bd" d="M319.5 274.5h-4q1.468-2.468 4-4 1.188 1.8 0 4" style="opacity:1"/><path fill="#b0a5a6" d="M65.5 272.5h3q-1.119 5.715-3 0" style="opacity:1"/><path fill="#bfb8b5" d="M72.5 270.5h4v3q-3.71.618-4-3" style="opacity:1"/><path fill="#7c6574" d="M48.5 279.5q-2.205-2.574-3-6 2.55-.24 5 .5-2.483 2.167-2 5.5" style="opacity:1"/><path fill="#7f6876" d="M126.5 274.5q2.384-1.681 5 .5-2.545.577-5-.5" style="opacity:1"/><path fill="#7a6272" d="M304.5 276.5q-1.521 1.897-4.5 2-6.315.872-2.5-3 4.011-2.274 7 1" style="opacity:1"/><path fill="#765f6e" d="M315.5 274.5h4q-.29 3.618-4 3z" style="opacity:1"/><path fill="#d1cdc6" d="M329.5 264.5a11 11 0 0 1 1 3.5 232 232 0 0 1-4 11.5h-4a44 44 0 0 1 3-2 3.65 3.65 0 0 0-1-1.5q3.279-3.401 5-8-1.522-2.06 0-3.5" style="opacity:.667"/><path fill="#806a77" d="M72.5 278.5q4.222-.855 8 2.5-4.502.416-8-2.5" style="opacity:1"/><path fill="#765f6e" d="M310.5 277.5q2.782-.342 2.5 2-6.154 2.506-2.5-2" style="opacity:1"/><path fill="#d6d3ca" d="M144.5 285.5h-1q-.255-1.983 1-3.5a13.9 13.9 0 0 1-3-4q10.36.123 3 7.5" style="opacity:1"/><path fill="#7f6977" d="M87.5 295.5q-.257-1.488 1-2a39 39 0 0 0 2 4.5q1.476.886 2-1-1.125-3.857-4-6.5-1.685-1.886-2 1a19.6 19.6 0 0 1-2-3.5l1-1q-6.226-1.707-4-7.5 4.524.511 8 3.5.498 11.781 11.5 15.5 1.387 3.951-2.5 3.5 2.082-1.334-.5-1.5a19.3 19.3 0 0 1-6.5 3q-4.028-.312-2-3.5a9.2 9.2 0 0 1-2-4.5" style="opacity:1"/><path fill="#b7aead" d="M139.5 279.5q-3.074.309-1 2.5-1.596 2.266-4 .5-3.845-.347-5-4 4.209 2.505 7.5-1 1.492.85 2.5 2" style="opacity:1"/><path fill="#dcdbd0" d="M139.5 279.5q1.467.467 2 2-.472 2.974-3 4 1.262-2.819 1-6" style="opacity:1"/><path fill="#d9d7cd" d="M225.5 279.5q2.139 1.953 4 4.5-3.276.663-6-1.5a186 186 0 0 0 2-3" style="opacity:1"/><path fill="#dcdbd0" d="M322.5 279.5q-1.155 4.316-5 3a2.43 2.43 0 0 1 .5-2q2.567 1.622 4.5-1" style="opacity:.65"/><path fill="#96858d" d="M93.5 282.5q2.66 1.221 1.5 4a10.1 10.1 0 0 1-1.5-4" style="opacity:1"/><path fill="#765f6e" d="M162.5 282.5q6.782-.26 1 2-1.197-.686-1-2" style="opacity:1"/><path fill="#7f6977" d="M307.5 282.5q2.217-.393 4 1l-2 1q-1.82-.37-2-2" style="opacity:1"/><path fill="#8c7983" d="M139.5 279.5q.262 3.181-1 6-2.856-.357-4-3 2.404 1.766 4-.5-2.074-2.191 1-2.5" style="opacity:1"/><path fill="#deded3" d="M299.5 284.5q-2.127 2.712-6 2 2.703-1.437 6-2" style="opacity:.608"/><path fill="#7c6674" d="M94.5 320.5q-1.487-.258-2 1h-1a81 81 0 0 1-11-1q1.914-1.717 4 0l1-1q-1.238-1.329-3-1a4.93 4.93 0 0 1 .5-3q3.882 2.797 8.5 2.5a1176 1176 0 0 0-35-30 11.3 11.3 0 0 0 3.5-1.5q5.316.74 10.5 4 11.065 7.317 17.5 19a24.9 24.9 0 0 0 6.5 5q1.122 2.874 0 6" style="opacity:1"/><path fill="#b5abab" d="M143.5 285.5h1v3h-1q-1.487-.258-2 1a22 22 0 0 0-4 0q-2.388-2.588 1-3 .09.814 1 1 1.683-1.695 4-2" style="opacity:1"/><path fill="#97858d" d="M99.5 288.5q.09-.814 1-1 1.624 1.298.5 3-.417-1.374-1.5-2" style="opacity:1"/><path fill="#7f6977" d="M168.5 286.5q1.79.705 2 3l-1 3q.275-2.873-1-6" style="opacity:1"/><path fill="#796171" d="M175.5 285.5q2.491 3.2 3 7.5-2.652 6.973-4-1 1.417-3.471 1-6.5" style="opacity:1"/><path fill="#7c6574" d="M143.5 288.5q-.316 2.886-2 1 .513-1.258 2-1" style="opacity:1"/><path fill="#c4bdb9" d="M284.5 286.5q1.451 1.96 4 2-3.826 4.095-4-2" style="opacity:1"/><path fill="#a6999c" d="M88.5 290.5q-1.687 1.272 0 3-1.257.512-1 2-1.401-1.602-1-4 .315-2.886 2-1" style="opacity:1"/><path fill="#dbdad0" d="M220.5 289.5q3.618.29 3 4h-5q.04-2.549 2-4" style="opacity:1"/><path fill="#d6d3cb" d="M88.5 290.5q2.875 2.643 4 6.5-.524 1.886-2 1a39 39 0 0 1-2-4.5q-1.687-1.728 0-3" style="opacity:1"/><path fill="#dddcd1" d="M202.5 291.5q2.587.514 1.5 3-1.558-1.116-1.5-3" style="opacity:1"/><path fill="#7e6775" d="M180.5 292.5q3.096.28 6 1.5 1.97 5.538-4 5a31.7 31.7 0 0 1-2-6.5" style="opacity:1"/><path fill="#b0a5a6" d="M152.5 294.5q3.325 1.303 7 1l-2 2q-3.661-1.884-7 0-1.314.197-2-1a71 71 0 0 0 4-2" style="opacity:1"/><path fill="#ccc7c1" d="M212.5 295.5q6.782-.26 1 2-1.197-.686-1-2" style="opacity:1"/><path fill="#806a77" d="M150.5 297.5q3.339-1.884 7 0-2.371 1.889-7 0" style="opacity:1"/><path fill="#b7adac" d="M195.5 296.5q2.755.209 1 2-1.197-.686-1-2" style="opacity:1"/><path fill="#b0a4a6" d="M69.5 297.5q2.355-1.589 4 1.5-2.349.45-4-1.5" style="opacity:1"/><path fill="#7a6372" d="M179.5 302.5q.329 1.763-1 3-2.652-3.303-3.5-7a25 25 0 0 0 4.5 4" style="opacity:1"/><path fill="#cecac3" d="M280.5 291.5a84 84 0 0 1-2 11q-2.621 8.979-8 16-1.067-5.672 3.5-9 .835-5.512 4-10 1.114-2.911-.5-5.5a10.5 10.5 0 0 1 3-2.5" style="opacity:.657"/><path fill="#7e6775" d="M179.5 302.5q4.058-4.224 6 2-.5 1.5-2 2-1.364-2.812-4-4" style="opacity:1"/><path fill="#dcdbd0" d="M212.5 300.5q2.377.753 1.5 3-1.558-1.116-1.5-3" style="opacity:1"/><path fill="#7b6473" d="M186.5 301.5q2.682-.428 5 1 2.104 4.651-3 3.5-2.305-1.665-2-4.5" style="opacity:1"/><path fill="#aca0a2" d="M205.5 300.5q3.39 1.107.5 3a4.93 4.93 0 0 1-.5-3" style="opacity:1"/><path fill="#cfcbc4" d="M112.5 322.5q-1 0-1 1a2.43 2.43 0 0 1-2-.5q4.228-4.304-2-4.5v-3h4v-3h-3a12.9 12.9 0 0 1 .5-5q2.184 3.735 6.5 5 4.313-2.446 2-7-3.869 1.702-7-1 4.168-2.175 9-3 7.686 2.019-1 2.5 2.576 2.338 6 2.5-.356 6.285-2.5 12a12.9 12.9 0 0 1-.5-5q-2.926-.41-4.5 2l-3-2q-.299 2.853-2.5 4.5l2 2q-1.128 1.006-1 2.5" style="opacity:1"/><path fill="#dbdacf" d="M131.5 306.5q2.17-1.67 5-.5a60 60 0 0 1 9 3.5q.674 3.715-2 6-5.883-2.925-12-2.5 3.678-3.576 0-6.5" style="opacity:1"/><path fill="#7c6574" d="M198.5 307.5q-.456.975-1 2a22.1 22.1 0 0 0-6 3q-2.5-2-5 0-1.98-2.655-4.5-1a4.93 4.93 0 0 1-.5-3q7.544 1.536 14.5-2 1.353.365 2.5 1" style="opacity:1"/><path fill="#c8c2bd" d="M214.5 305.5q1.251 2.645-1.5 5a9.5 9.5 0 0 0-1.5-2.5q2.163-.565 3-2.5" style="opacity:1"/><path fill="#d5d2c9" d="M204.5 312.5q3.78-3.594 4.5-9l1.5 1.5a30 30 0 0 1-3 7 4.93 4.93 0 0 1-3 .5" style="opacity:1"/><path fill="#998990" d="M99.5 310.5q1.724.436 2 2.5l-.5 2.5q-1.905-2.107-1.5-5" style="opacity:1"/><path fill="#d8d6cd" d="M252.5 339.5q-1.87 2.517-5 4a60.7 60.7 0 0 1-19 .5q-3.976-.23-7-2.5-1.056-2.766-4-1.5.816 1.075 2 1.5-2.384 1.681-5-.5-2-2.5 0-5a2.43 2.43 0 0 0-2-.5 31 31 0 0 1 2-2q-2.963-2.732-7-3-5.656 1.148-10 5a274 274 0 0 0-13-4 196 196 0 0 0 19-4.5q1.842-3.857 5-6.5 3.084.822 5 3.5a14.8 14.8 0 0 0-2 6.5 9.1 9.1 0 0 0 5-1q2.536 2.634 6 1.5-3.461-.531-1-3-1.955-6.47-8-9a34 34 0 0 1 6-3.5q.828-5.194 6-5 13.783 4.062-1 7-.478 3.375 1.5 6 1.21-5.923 1.5 0a18.5 18.5 0 0 0 6-.5q-2.184-.634-1.5-2.5l5-4a16.2 16.2 0 0 0 4.5 5q-3.292 1.904-6.5 0l-1 5q-5.143 6.175 3.5 5v-6a39.5 39.5 0 0 1 9-1.5 27.9 27.9 0 0 1-7 5.5q2.18 3.216-1 5.5a4.46 4.46 0 0 0 2 1.5q5.725-2.306 2-6.5 2.5-1.5 4-4 5.54-.827.5 1.5a30.5 30.5 0 0 0-1.5 9q-3.271-.324-5 2.5l3 1-4 3q3.465.745 7 .5a12.9 12.9 0 0 1 .5-5q2.55 2.698 5.5 1" style="opacity:.975"/><path fill="#907e87" d="M67.5 306.5q2.625 1.863 5 4.5l-4 3q2.64 1.448 1 3.5a22.8 22.8 0 0 0-4-5q1.007-3.045 2-6" style="opacity:1"/><path fill="#d7d5cc" d="M210.5 311.5q1.815 2.514-1.5 4-.45-2.349 1.5-4" style="opacity:1"/><path fill="#796271" d="M73.5 313.5q1.466.467 2 2-4.476 7.513-2-2" style="opacity:1"/><path fill="#d4d0c8" d="M244.5 314.5q2.682-1.683 6-.5a34 34 0 0 0-1.5 7.5q-2.895-3.162-4.5-7" style="opacity:1"/><path fill="#d0ccc5" d="M204.5 312.5v3q-3.49-.38-6 2 1.783 1.393 4 1-2.371 2.379-6 3l-1-1 2-2q-3.423-2.1-4.5 2-2.796-2.196-6.5-3 1.355-3.18 4-1 7.436-.765 14-4" style="opacity:1"/><path fill="#d8d6cc" d="M127.5 316.5q3.324-.338 5 2.5a12.5 12.5 0 0 1-7 0q1.321-1.062 2-2.5" style="opacity:1"/><path fill="#bbb2b0" d="M202.5 318.5q1.948-2.399 5-1.5-2.107 1.904-5 1.5" style="opacity:1"/><path fill="#d4d0c8" d="M252.5 317.5q3.705 1.29.5 4a8.4 8.4 0 0 1-.5-4" style="opacity:1"/><path fill="#d1cec6" d="M145.5 317.5q2.303 4.245-3 4v-3q1.936.356 3-1" style="opacity:1"/><path fill="#d4d1c9" d="M270.5 318.5q0 2-2 2 .5-1.5 2-2" style="opacity:.625"/><path fill="#dddbd1" d="M176.5 319.5q6.624 3.494 1 9.5a25.2 25.2 0 0 1-10 0q2.782-6.529 9-9.5" style="opacity:1"/><path fill="#dbd9cf" d="M94.5 320.5q-.76 2.408-2 1 .513-1.258 2-1" style="opacity:.251"/><path fill="#cbc6c0" d="M135.5 320.5q2.69.576 3 3.5a38.3 38.3 0 0 1-2.5 6.5 16.2 16.2 0 0 1-1.5-3.5 15.9 15.9 0 0 0 1-6.5" style="opacity:1"/><path fill="#d5d2c9" d="M213.5 322.5q2.652-1.511 4 2l-1 1q-1.182-1.905-3-3" style="opacity:1"/><path fill="#c5beba" d="M125.5 321.5q2.451 1.06 4 3.5-3.511.252-4-3.5" style="opacity:1"/><path fill="#b3a8a9" d="M111.5 323.5q0-1 1-1 5.53-2.535 2 1.5 5.652 1.766-.5 3.5-.183-2.905-2.5-4" style="opacity:1"/><path fill="#c0b9b6" d="M123.5 324.5q1.67 2.17.5 5-2.279-2.459-.5-5" style="opacity:1"/><path fill="#d5d2c9" d="M119.5 325.5q1.447 1.831-.5 4-.868-2.143.5-4" style="opacity:1"/><path fill="#7e6876" d="M223.5 326.5q2.893-.404 5 1.5a3.65 3.65 0 0 0-1 1.5q2.84 3.678 4 8a28.5 28.5 0 0 0-9.5 1 16.2 16.2 0 0 1-3.5-1.5q5.601.132 9-4l-4-3q-.449-1.61 0-3.5" style="opacity:1"/><path fill="#cfcbc4" d="M266.5 322.5q.129 1.494-1 2.5a11.3 11.3 0 0 0-3.5 1.5q-.56 2.987-2.5 5a20.1 20.1 0 0 1 1.5-6 19.8 19.8 0 0 0 5.5-3" style="opacity:1"/><path fill="#b2a7a8" d="M108.5 330.5q-2.976.175-5-2 1.55-1.428 3.5 0 1.545.504 1.5 2" style="opacity:1"/><path fill="#d0ccc5" d="M129.5 328.5q1.13 4.767-3.5 8l-1.5-1.5a25.5 25.5 0 0 0 5-6.5" style="opacity:1"/><path fill="#d4d1c9" d="M120.5 330.5q4.058-.18 2 3-2.3 1.854-5 1.5 2.462-1.694 3-4.5" style="opacity:1"/><path fill="#cac5bf" d="M248.5 327.5a2.43 2.43 0 0 1 2 .5q.14 4.209 0 8.5-2.443-4.149-2-9" style="opacity:1"/><path fill="#d1cdc6" d="M257.5 333.5q.796 5.082-4 6a35.4 35.4 0 0 1 4-6" style="opacity:.46"/><path fill="#806a77" d="M232.5 334.5q11.857 1.698 2.5 9l-1.5-1a32.4 32.4 0 0 0 3-4.5q-2.728-1.11-4-3.5" style="opacity:1"/><path fill="#c9c4be" d="M127.5 336.5q7.512-.216.5 3l-1.5-.5q1.128-1.006 1-2.5" style="opacity:1"/><path fill="#dbd9cf" d="M182.5 340.5v2q-5.04.174-10 1a25.9 25.9 0 0 0-10 1q.186.91 1 1 2.893-.404 5 1.5.32 4.149-1.5 7.5 1.517-1.255 3.5-1-.393-2.217 1-4 2.022 3.167-1 5.5a4.93 4.93 0 0 0 3 .5q3.34 2.52 5-1 1.337.915 3 1l-2 2h-6q-1-2-2 0h-2a407 407 0 0 1-11-6q-1.657-3.704-5.5-5l-1-4a20.65 20.65 0 0 1-7-5q-1.76 3.256-5.5 3 1.142-1.337 3-2 1.329-1.237 1-3 19.019 5.29 39 5" style="opacity:.941"/><path fill="#dbd9cf" d="M208.5 336.5q-.5 1.5-2 2 0-2 2-2" style="opacity:.251"/><path fill="#b1a6a7" d="M182.5 342.5v-2q5.555-1.995 11 .5-5.537.63-11 1.5" style="opacity:1"/><path fill="#d5d2ca" d="M206.5 338.5q-.789 2.596-3 4-.618-3.71 3-4" style="opacity:.502"/><path fill="#9c8c93" d="M221.5 341.5h-2q-1.184-.425-2-1.5 2.944-1.266 4 1.5" style="opacity:1"/><path fill="#88747f" d="M225.5 339.5a12.15 12.15 0 0 0 7 .5 21 21 0 0 1-6 2.5q-1.329-1.237-1-3" style="opacity:1"/><path fill="#afa4a5" d="M128.5 342.5h-5q-1.487.258-2-1a13 13 0 0 0 5.5-1q1.545.504 1.5 2" style="opacity:1"/><path fill="#dbdacf" d="M139.5 340.5q-4.69 1.621-10 2 4.51-2.512 10-2" style="opacity:.502"/><path fill="#a89b9e" d="m172.5 343.5-9 2q-.814-.09-1-1a25.9 25.9 0 0 1 10-1" style="opacity:1"/><path fill="#d7d5cb" d="M203.5 342.5q-3.644 1.887-6 5.5a4.93 4.93 0 0 1-3 .5q2.714-1.471 4-4.5 2.288-1.514 5-1.5" style="opacity:.601"/><path fill="#cbc5bf" d="M178.5 347.5q3.786-1.95 8 0-2.103 2.013 1 2.5-3.254.643-6-1.5.28 1.975-2 4 .14-2.414-1-5" style="opacity:1"/><path fill="#d0cbc4" d="M194.5 348.5q-.481 2.322-3 2 1.185-1.352 3-2" style="opacity:.625"/><path fill="#d8d6cd" d="M191.5 350.5q0 2-2 2 .5-1.5 2-2" style="opacity:.751"/><path fill="#cec9c2" d="M189.5 352.5q-2.522 2.262-6 3 2.116-3.058 6-3" style="opacity:.875"/><path fill="#b4aaaa" d="M178.5 354.5q-1.66 3.52-5 1-.197-1.314 1-2 1.542 3.12 4 1" style="opacity:1"/></svg>