<svg xmlns="http://www.w3.org/2000/svg" xmlns:xlink="http://www.w3.org/1999/xlink" width="240" height="240" viewBox="-120 -120 240 240"><defs><g id="a"><circle r="14" fill="#f15a29"/><circle r="19.5" fill="none" stroke="#f7941e" stroke-width="4"/><circle r="30" fill="none" stroke="#fff" stroke-width="10"/><path fill="none" stroke="#fff" stroke-width="10" d="M67-72A100 100 0 0 0-94 33h38a65 65 0 0 0 111 4M-100 0h70"/><circle cx="58" cy="29" r="6" fill="#f7941e"/><circle cx="58" cy="29" r="10" fill="none" stroke="#fff" stroke-width="3.2"/><circle cx="73" cy="-65" r="6" fill="#f7941e"/><circle cx="73" cy="-65" r="10" fill="none" stroke="#fff" stroke-width="3.2"/><path fill="none" stroke="#fff" stroke-width="10" d="M-67 72A100 100 0 0 0 94-33H56a65 65 0 0 0-111-4M100 0H30"/><circle cx="-58" cy="-29" r="6" fill="#f7941e"/><circle cx="-58" cy="-29" r="10" fill="none" stroke="#fff" stroke-width="3.2"/><circle cx="-73" cy="65" r="6" fill="#f7941e"/><circle cx="-73" cy="65" r="10" fill="none" stroke="#fff" stroke-width="3.2"/></g></defs><use xlink:href="#a"/></svg>