<?xml version="1.0" encoding="UTF-8"?>
<!DOCTYPE svg PUBLIC "-//W3C//DTD SVG 1.1//EN" "http://www.w3.org/Graphics/SVG/1.1/DTD/svg11.dtd">
<svg xmlns="http://www.w3.org/2000/svg" version="1.1" width="225px" height="225px" style="shape-rendering:geometricPrecision; text-rendering:geometricPrecision; image-rendering:optimizeQuality; fill-rule:evenodd; clip-rule:evenodd" xmlns:xlink="http://www.w3.org/1999/xlink">
<g><path style="opacity:1" fill="#fcfcfc" d="M -0.5,-0.5 C 74.5,-0.5 149.5,-0.5 224.5,-0.5C 224.5,74.5 224.5,149.5 224.5,224.5C 149.5,224.5 74.5,224.5 -0.5,224.5C -0.5,149.5 -0.5,74.5 -0.5,-0.5 Z"/></g>
<g><path style="opacity:1" fill="#131313" d="M 193.5,24.5 C 194.625,23.3478 194.625,22.3478 193.5,21.5C 190.253,17.3409 187.253,13.0076 184.5,8.5C 184.167,7.83333 183.833,7.16667 183.5,6.5C 186.698,5.21319 190.031,4.54652 193.5,4.5C 195.334,9.50818 196.667,14.6748 197.5,20C 198.068,23.2634 196.734,24.7634 193.5,24.5 Z"/></g>
<g><path style="opacity:1" fill="#454545" d="M 183.5,6.5 C 183.833,7.16667 184.167,7.83333 184.5,8.5C 174.669,10.2316 165.335,12.8982 156.5,16.5C 155.778,15.4489 154.778,14.7822 153.5,14.5C 163.31,11.5457 173.31,8.87899 183.5,6.5 Z"/></g>
<g><path style="opacity:1" fill="#efefef" d="M 184.5,8.5 C 187.253,13.0076 190.253,17.3409 193.5,21.5C 191.142,23.1286 188.476,24.2952 185.5,25C 179.039,26.058 172.706,27.558 166.5,29.5C 163.167,25.1667 159.833,20.8333 156.5,16.5C 165.335,12.8982 174.669,10.2316 184.5,8.5 Z"/></g>
<g><path style="opacity:1" fill="#0a0a0a" d="M 153.5,14.5 C 154.778,14.7822 155.778,15.4489 156.5,16.5C 159.833,20.8333 163.167,25.1667 166.5,29.5C 166.833,30.1667 167.167,30.8333 167.5,31.5C 160.827,33.1695 154.16,34.8362 147.5,36.5C 146.222,36.2178 145.222,35.5511 144.5,34.5C 144.672,33.5084 144.338,32.8417 143.5,32.5C 141.167,29.1667 138.833,25.8333 136.5,22.5C 136.5,21.8333 136.167,21.5 135.5,21.5C 134.833,20.8333 134.167,20.1667 133.5,19.5C 136.761,18.6222 140.094,17.9555 143.5,17.5C 143.253,18.8763 141.919,19.7097 139.5,20C 144.861,20.3794 149.861,19.2128 154.5,16.5C 154.167,16.1667 153.833,15.8333 153.5,15.5C 151.684,16.7349 150.017,16.7349 148.5,15.5C 150.216,15.3713 151.883,15.038 153.5,14.5 Z"/></g>
<g><path style="opacity:1" fill="#454545" d="M 148.5,15.5 C 150.017,16.7349 151.684,16.7349 153.5,15.5C 153.833,15.8333 154.167,16.1667 154.5,16.5C 149.861,19.2128 144.861,20.3794 139.5,20C 141.919,19.7097 143.253,18.8763 143.5,17.5C 144.93,16.4625 146.597,15.7959 148.5,15.5 Z"/></g>
<g><path style="opacity:1" fill="#f7f7f7" d="M 136.5,22.5 C 138.833,25.8333 141.167,29.1667 143.5,32.5C 143.53,33.4972 143.03,34.1639 142,34.5C 137.819,35.2404 133.652,36.0737 129.5,37C 128.944,37.3826 128.611,37.8826 128.5,38.5C 125.074,40.2739 121.407,41.2739 117.5,41.5C 114.025,37.8962 111.025,33.8962 108.5,29.5C 110.371,28.2028 112.371,27.2028 114.5,26.5C 122.047,25.812 129.38,24.4786 136.5,22.5 Z"/></g>
<g><path style="opacity:1" fill="#c6c6c6" d="M 135.5,21.5 C 136.167,21.5 136.5,21.8333 136.5,22.5C 129.38,24.4786 122.047,25.812 114.5,26.5C 121.133,23.7597 128.133,22.093 135.5,21.5 Z"/></g>
<g><path style="opacity:1" fill="#3a3a3a" d="M 133.5,19.5 C 134.167,20.1667 134.833,20.8333 135.5,21.5C 128.133,22.093 121.133,23.7597 114.5,26.5C 113.127,26.6567 111.793,26.49 110.5,26C 111.737,25.7679 112.737,25.2679 113.5,24.5C 120.068,22.5246 126.735,20.8579 133.5,19.5 Z"/></g>
<g><path style="opacity:1" fill="#3e3e3e" d="M 193.5,21.5 C 194.625,22.3478 194.625,23.3478 193.5,24.5C 185.037,27.2037 176.37,29.537 167.5,31.5C 167.167,30.8333 166.833,30.1667 166.5,29.5C 172.706,27.558 179.039,26.058 185.5,25C 188.476,24.2952 191.142,23.1286 193.5,21.5 Z"/></g>
<g><path style="opacity:1" fill="#626262" d="M 113.5,24.5 C 112.737,25.2679 111.737,25.7679 110.5,26C 111.793,26.49 113.127,26.6567 114.5,26.5C 112.371,27.2028 110.371,28.2028 108.5,29.5C 104.243,30.8167 99.9095,31.3167 95.5,31C 100.207,29.8799 104.874,28.5466 109.5,27C 108.552,26.5172 107.552,26.3505 106.5,26.5C 108.515,25.0762 110.848,24.4095 113.5,24.5 Z"/></g>
<g><path style="opacity:1" fill="#0d0d0d" d="M 106.5,26.5 C 107.552,26.3505 108.552,26.5172 109.5,27C 104.874,28.5466 100.207,29.8799 95.5,31C 99.9095,31.3167 104.243,30.8167 108.5,29.5C 111.025,33.8962 114.025,37.8962 117.5,41.5C 117.443,42.609 117.11,43.609 116.5,44.5C 109.947,46.1189 103.28,47.7856 96.5,49.5C 96.5,49.1667 96.5,48.8333 96.5,48.5C 96.3404,46.847 95.6737,45.5137 94.5,44.5C 92.1667,41.1667 89.8333,37.8333 87.5,34.5C 87.5,33.8333 87.1667,33.5 86.5,33.5C 86.5,32.8333 86.5,32.1667 86.5,31.5C 93.0898,29.5814 99.7565,27.9147 106.5,26.5 Z"/></g>
<g><path style="opacity:1" fill="#c6c6c6" d="M 143.5,32.5 C 144.338,32.8417 144.672,33.5084 144.5,34.5C 139.503,36.7493 134.17,38.0826 128.5,38.5C 128.611,37.8826 128.944,37.3826 129.5,37C 133.652,36.0737 137.819,35.2404 142,34.5C 143.03,34.1639 143.53,33.4972 143.5,32.5 Z"/></g>
<g><path style="opacity:1" fill="#f8f8f8" d="M 87.5,34.5 C 89.8333,37.8333 92.1667,41.1667 94.5,44.5C 94.5858,45.4959 94.2524,46.3292 93.5,47C 87.2099,48.8226 80.8765,50.4892 74.5,52C 73.944,52.3826 73.6107,52.8826 73.5,53.5C 71.7839,53.6287 70.1172,53.962 68.5,54.5C 66.1342,51.1434 63.8008,47.8101 61.5,44.5C 61.5394,43.4168 61.8728,42.4168 62.5,41.5C 68.2153,39.6505 74.0486,38.3171 80,37.5C 80.772,37.6448 81.4387,37.9781 82,38.5C 83.4119,36.548 85.2453,35.2147 87.5,34.5 Z"/></g>
<g><path style="opacity:1" fill="#cccccc" d="M 86.5,33.5 C 87.1667,33.5 87.5,33.8333 87.5,34.5C 85.2453,35.2147 83.4119,36.548 82,38.5C 81.4387,37.9781 80.772,37.6448 80,37.5C 74.0486,38.3171 68.2153,39.6505 62.5,41.5C 61.8728,42.4168 61.5394,43.4168 61.5,44.5C 60.5987,43.7095 59.9321,42.7095 59.5,41.5C 59.62,40.4138 60.2867,39.7472 61.5,39.5C 69.8991,37.603 78.2325,35.603 86.5,33.5 Z"/></g>
<g><path style="opacity:1" fill="#414141" d="M 86.5,31.5 C 86.5,32.1667 86.5,32.8333 86.5,33.5C 78.2325,35.603 69.8991,37.603 61.5,39.5C 60.2867,39.7472 59.62,40.4138 59.5,41.5C 58.8333,40.8333 58.1667,40.1667 57.5,39.5C 66.8557,36.0881 76.5224,33.4214 86.5,31.5 Z"/></g>
<g><path style="opacity:1" fill="#3c3c3c" d="M 56.5,39.5 C 56.8333,42.5 55.5,43.8333 52.5,43.5C 51.9032,42.8614 51.0698,42.528 50,42.5C 45.2245,43.3137 40.7245,44.647 36.5,46.5C 34.7839,46.6287 33.1172,46.962 31.5,47.5C 26.1393,48.5233 20.806,49.5233 15.5,50.5C 15.6107,49.8826 15.944,49.3826 16.5,49C 29.8574,45.9365 43.1907,42.7698 56.5,39.5 Z"/></g>
<g><path style="opacity:1" fill="#393939" d="M 144.5,34.5 C 145.222,35.5511 146.222,36.2178 147.5,36.5C 137.336,39.4053 127.003,42.0719 116.5,44.5C 117.11,43.609 117.443,42.609 117.5,41.5C 121.407,41.2739 125.074,40.2739 128.5,38.5C 134.17,38.0826 139.503,36.7493 144.5,34.5 Z"/></g>
<g><path style="opacity:1" fill="#0e0e0e" d="M 56.5,39.5 C 56.8333,39.5 57.1667,39.5 57.5,39.5C 58.1667,40.1667 58.8333,40.8333 59.5,41.5C 59.9321,42.7095 60.5987,43.7095 61.5,44.5C 63.8008,47.8101 66.1342,51.1434 68.5,54.5C 69.5,55.1667 70.5,55.8333 71.5,56.5C 63.7705,58.3488 56.1039,60.3488 48.5,62.5C 49.8435,64.5286 51.1769,66.5286 52.5,68.5C 52.5654,68.9382 52.3988,69.2716 52,69.5C 51,68.5 50,67.5 49,66.5C 46.6955,62.6963 44.1955,59.0296 41.5,55.5C 34.6786,54.8333 28.0119,54.1666 21.5,53.5C 28.1458,52.9073 34.8124,52.2407 41.5,51.5C 41.3764,50.8933 41.0431,50.56 40.5,50.5C 40.4431,49.391 40.1098,48.391 39.5,47.5C 43.7427,46.1756 48.0761,44.8423 52.5,43.5C 55.5,43.8333 56.8333,42.5 56.5,39.5 Z"/></g>
<g><path style="opacity:1" fill="#6a6a6a" d="M 52.5,43.5 C 48.0761,44.8423 43.7427,46.1756 39.5,47.5C 38.609,46.8902 37.609,46.5569 36.5,46.5C 40.7245,44.647 45.2245,43.3137 50,42.5C 51.0698,42.528 51.9032,42.8614 52.5,43.5 Z"/></g>
<g><path style="opacity:1" fill="#ededed" d="M 36.5,46.5 C 37.609,46.5569 38.609,46.8902 39.5,47.5C 40.1098,48.391 40.4431,49.391 40.5,50.5C 35.0154,51.6517 29.3487,51.8184 23.5,51C 26.4011,50.1249 29.0677,48.9582 31.5,47.5C 33.1172,46.962 34.7839,46.6287 36.5,46.5 Z"/></g>
<g><path style="opacity:1" fill="#a8a8a8" d="M 94.5,44.5 C 95.6737,45.5137 96.3404,46.847 96.5,48.5C 88.792,49.9578 81.1253,51.6245 73.5,53.5C 73.6107,52.8826 73.944,52.3826 74.5,52C 80.8765,50.4892 87.2099,48.8226 93.5,47C 94.2524,46.3292 94.5858,45.4959 94.5,44.5 Z"/></g>
<g><path style="opacity:1" fill="#181818" d="M 15.5,50.5 C 13.9724,51.3092 12.3057,51.9759 10.5,52.5C 9.95691,52.56 9.62358,52.8933 9.5,53.5C 13.3125,54.1671 16.9792,54.8337 20.5,55.5C 17.1667,55.5 13.8333,55.5 10.5,55.5C 9.41383,55.62 8.74716,56.2867 8.5,57.5C 9.66306,60.3269 9.66306,62.9935 8.5,65.5C 7.49723,60.8273 6.49723,56.1606 5.5,51.5C 8.80673,50.9492 12.1401,50.6159 15.5,50.5 Z"/></g>
<g><path style="opacity:1" fill="#afafaf" d="M 31.5,47.5 C 29.0677,48.9582 26.4011,50.1249 23.5,51C 29.3487,51.8184 35.0154,51.6517 40.5,50.5C 41.0431,50.56 41.3764,50.8933 41.5,51.5C 34.8124,52.2407 28.1458,52.9073 21.5,53.5C 17.6286,53.815 13.9619,53.4816 10.5,52.5C 12.3057,51.9759 13.9724,51.3092 15.5,50.5C 20.806,49.5233 26.1393,48.5233 31.5,47.5 Z"/></g>
<g><path style="opacity:1" fill="#414141" d="M 96.5,48.5 C 96.5,48.8333 96.5,49.1667 96.5,49.5C 88.3193,51.9994 79.986,54.3328 71.5,56.5C 70.5,55.8333 69.5,55.1667 68.5,54.5C 70.1172,53.962 71.7839,53.6287 73.5,53.5C 81.1253,51.6245 88.792,49.9578 96.5,48.5 Z"/></g>
<g><path style="opacity:1" fill="#676767" d="M 202.5,55.5 C 201.222,55.7822 200.222,56.4489 199.5,57.5C 191.525,58.4487 183.525,59.1153 175.5,59.5C 177.969,58.6829 180.635,58.1829 183.5,58C 181.866,57.5065 180.199,57.3398 178.5,57.5C 184.976,56.1869 191.643,55.1869 198.5,54.5C 200.045,54.5108 201.378,54.8442 202.5,55.5 Z"/></g>
<g><path style="opacity:1" fill="#0a0a0a" d="M 202.5,55.5 C 203.473,57.9479 203.806,60.6146 203.5,63.5C 203.156,69.0984 203.822,74.4317 205.5,79.5C 206.986,96.5099 208.652,113.51 210.5,130.5C 210.388,136.726 211.054,142.726 212.5,148.5C 213.791,160.327 215.124,172.161 216.5,184C 217.024,190.094 214.691,194.761 209.5,198C 186.46,200.255 163.46,202.755 140.5,205.5C 134.596,205.321 128.929,205.988 123.5,207.5C 123.167,207.5 122.833,207.5 122.5,207.5C 115.963,207.586 109.63,208.253 103.5,209.5C 95.5,210.167 87.5,210.833 79.5,211.5C 73.916,211.255 68.5826,211.922 63.5,213.5C 62.5,213.5 61.5,213.5 60.5,213.5C 53.2882,213.63 46.1215,214.297 39,215.5C 37.1216,215.304 35.2883,214.971 33.5,214.5C 30.1783,213.342 28.0117,211.008 27,207.5C 25.7101,203.27 25.2101,198.936 25.5,194.5C 24.8065,183.618 23.4731,172.952 21.5,162.5C 21.3473,156.155 21.014,149.822 20.5,143.5C 20.6768,136.866 21.1768,136.866 22,143.5C 22.1667,141.333 22.3333,139.167 22.5,137C 21.1138,125.524 19.9472,114.024 19,102.5C 17.9887,101.663 16.8221,101.33 15.5,101.5C 13.886,98.6071 12.5527,95.6071 11.5,92.5C 11.6123,86.2737 10.9457,80.2737 9.5,74.5C 9.5,73.5 9.5,72.5 9.5,71.5C 9.55732,66.3183 10.224,66.3183 11.5,71.5C 11.8333,70.6667 12.1667,69.8333 12.5,69C 11.7135,65.5418 11.3802,62.0418 11.5,58.5C 13.7354,58.2053 15.7354,58.5386 17.5,59.5C 16.8333,59.5 16.5,59.8333 16.5,60.5C 15.3773,62.688 15.3773,65.0213 16.5,67.5C 19.4246,69.9603 22.4246,69.7937 25.5,67C 28.1339,64.7067 28.1339,62.54 25.5,60.5C 25.1583,59.6618 24.4916,59.3284 23.5,59.5C 23.5,58.8333 23.1667,58.5 22.5,58.5C 22.5,58.1667 22.5,57.8333 22.5,57.5C 25.1667,57.5 27.8333,57.5 30.5,57.5C 34.1817,57.3347 37.8484,57.5014 41.5,58C 44.3062,63.2874 47.6396,68.1207 51.5,72.5C 57.6144,73.2493 63.6144,73.5826 69.5,73.5C 67.8944,76.9861 66.8944,80.6528 66.5,84.5C 65.5489,85.9187 65.2155,87.5853 65.5,89.5C 67.099,89.7678 68.4324,89.4345 69.5,88.5C 77.8545,88.0806 86.1878,87.414 94.5,86.5C 94.5,85.5 94.5,84.5 94.5,83.5C 95.9636,79.9806 96.9636,76.3139 97.5,72.5C 98.2485,71.469 98.9152,70.3024 99.5,69C 106.164,68.3891 112.83,67.8891 119.5,67.5C 118.293,71.7869 117.293,76.1203 116.5,80.5C 115.596,81.209 115.263,82.209 115.5,83.5C 122.396,83.7055 129.063,83.0389 135.5,81.5C 138.448,81.7771 141.281,81.4438 144,80.5C 145.804,75.2329 147.304,69.8996 148.5,64.5C 154.266,63.7083 160.1,63.0417 166,62.5C 167.385,62.5143 168.551,62.8476 169.5,63.5C 168.525,66.3112 167.858,69.3112 167.5,72.5C 166.694,73.9972 166.028,75.6639 165.5,77.5C 170.027,78.5623 174.36,78.229 178.5,76.5C 183.833,76.1667 189.167,75.8333 194.5,75.5C 194.959,72.1226 195.626,68.7893 196.5,65.5C 197.993,63.0977 198.993,60.431 199.5,57.5C 200.222,56.4489 201.222,55.7822 202.5,55.5 Z"/></g>
<g><path style="opacity:1" fill="#878787" d="M 10.5,55.5 C 13.8333,55.5 17.1667,55.5 20.5,55.5C 27.175,55.3337 33.8417,55.5004 40.5,56C 36.9748,56.1787 33.6414,56.6787 30.5,57.5C 27.8333,57.5 25.1667,57.5 22.5,57.5C 18.1539,57.6657 13.8206,57.499 9.5,57C 10.056,56.6174 10.3893,56.1174 10.5,55.5 Z"/></g>
<g><path style="opacity:1" fill="#353535" d="M 178.5,57.5 C 180.199,57.3398 181.866,57.5065 183.5,58C 180.635,58.1829 177.969,58.6829 175.5,59.5C 175.167,59.5 174.833,59.5 174.5,59.5C 166.993,60.0158 159.493,60.6825 152,61.5C 150.293,61.4915 148.793,61.1582 147.5,60.5C 157.826,59.4058 168.159,58.4058 178.5,57.5 Z"/></g>
<g><path style="opacity:1" fill="#d7d7d7" d="M 199.5,57.5 C 198.993,60.431 197.993,63.0977 196.5,65.5C 196.833,63.5 197.167,61.5 197.5,59.5C 191.16,59.849 184.827,60.349 178.5,61C 176.273,61.121 174.44,61.9544 173,63.5C 172.329,62.7476 171.496,62.4142 170.5,62.5C 171.448,61.0221 172.781,60.0221 174.5,59.5C 174.833,59.5 175.167,59.5 175.5,59.5C 183.525,59.1153 191.525,58.4487 199.5,57.5 Z"/></g>
<g><path style="opacity:1" fill="#414141" d="M 10.5,52.5 C 13.9619,53.4816 17.6286,53.815 21.5,53.5C 28.0119,54.1666 34.6786,54.8333 41.5,55.5C 44.1955,59.0296 46.6955,62.6963 49,66.5C 50,67.5 51,68.5 52,69.5C 52.3988,69.2716 52.5654,68.9382 52.5,68.5C 53.1667,68.5 53.5,68.8333 53.5,69.5C 56.3054,70.3195 59.3054,70.8195 62.5,71C 58.9085,71.7886 55.4085,71.6219 52,70.5C 51.5357,71.0944 51.369,71.7611 51.5,72.5C 47.6396,68.1207 44.3062,63.2874 41.5,58C 37.8484,57.5014 34.1817,57.3347 30.5,57.5C 33.6414,56.6787 36.9748,56.1787 40.5,56C 33.8417,55.5004 27.175,55.3337 20.5,55.5C 16.9792,54.8337 13.3125,54.1671 9.5,53.5C 9.62358,52.8933 9.95691,52.56 10.5,52.5 Z"/></g>
<g><path style="opacity:1" fill="#f9f9f9" d="M 196.5,65.5 C 195.626,68.7893 194.959,72.1226 194.5,75.5C 189.167,75.8333 183.833,76.1667 178.5,76.5C 174.785,76.577 171.119,76.2436 167.5,75.5C 167.5,74.5 167.5,73.5 167.5,72.5C 167.858,69.3112 168.525,66.3112 169.5,63.5C 170.167,63.5 170.5,63.1667 170.5,62.5C 171.496,62.4142 172.329,62.7476 173,63.5C 174.44,61.9544 176.273,61.121 178.5,61C 184.827,60.349 191.16,59.849 197.5,59.5C 197.167,61.5 196.833,63.5 196.5,65.5 Z"/></g>
<g><path style="opacity:1" fill="#eaeaea" d="M 22.5,58.5 C 23.1667,58.5 23.5,58.8333 23.5,59.5C 22.7901,63.3606 20.4567,65.0272 16.5,64.5C 16.5,63.1667 16.5,61.8333 16.5,60.5C 16.5,59.8333 16.8333,59.5 17.5,59.5C 19.0418,58.6993 20.7085,58.366 22.5,58.5 Z"/></g>
<g><path style="opacity:1" fill="#363636" d="M 10.5,55.5 C 10.3893,56.1174 10.056,56.6174 9.5,57C 13.8206,57.499 18.1539,57.6657 22.5,57.5C 22.5,57.8333 22.5,58.1667 22.5,58.5C 20.7085,58.366 19.0418,58.6993 17.5,59.5C 15.7354,58.5386 13.7354,58.2053 11.5,58.5C 11.3802,62.0418 11.7135,65.5418 12.5,69C 12.1667,69.8333 11.8333,70.6667 11.5,71.5C 10.224,66.3183 9.55732,66.3183 9.5,71.5C 8.53862,69.7354 8.20528,67.7354 8.5,65.5C 9.66306,62.9935 9.66306,60.3269 8.5,57.5C 8.74716,56.2867 9.41383,55.62 10.5,55.5 Z"/></g>
<g><path style="opacity:1" fill="#a9a9a9" d="M 23.5,59.5 C 24.4916,59.3284 25.1583,59.6618 25.5,60.5C 24.3124,65.0082 21.3124,67.3416 16.5,67.5C 15.3773,65.0213 15.3773,62.688 16.5,60.5C 16.5,61.8333 16.5,63.1667 16.5,64.5C 20.4567,65.0272 22.7901,63.3606 23.5,59.5 Z"/></g>
<g><path style="opacity:1" fill="#424242" d="M 135.5,61.5 C 136.5,61.5 137.5,61.5 138.5,61.5C 140.857,61.3367 143.19,61.5034 145.5,62C 143.618,62.1981 141.952,62.6981 140.5,63.5C 138.833,63.5 137.167,63.5 135.5,63.5C 133.473,63.6621 131.473,63.4955 129.5,63C 131.708,62.8091 133.708,62.3091 135.5,61.5 Z"/></g>
<g><path style="opacity:1" fill="#777777" d="M 174.5,59.5 C 172.781,60.0221 171.448,61.0221 170.5,62.5C 170.5,63.1667 170.167,63.5 169.5,63.5C 168.551,62.8476 167.385,62.5143 166,62.5C 160.1,63.0417 154.266,63.7083 148.5,64.5C 146.052,63.5269 143.385,63.1936 140.5,63.5C 141.952,62.6981 143.618,62.1981 145.5,62C 143.19,61.5034 140.857,61.3367 138.5,61.5C 141.287,60.5233 144.287,60.19 147.5,60.5C 148.793,61.1582 150.293,61.4915 152,61.5C 159.493,60.6825 166.993,60.0158 174.5,59.5 Z"/></g>
<g><path style="opacity:1" fill="#838383" d="M 135.5,61.5 C 133.708,62.3091 131.708,62.8091 129.5,63C 131.473,63.4955 133.473,63.6621 135.5,63.5C 130.75,65.0308 125.75,65.6975 120.5,65.5C 122.631,64.6862 124.964,64.1862 127.5,64C 124.854,63.5026 122.187,63.3359 119.5,63.5C 124.616,62.1937 129.949,61.527 135.5,61.5 Z"/></g>
<g><path style="opacity:1" fill="#3d3d3d" d="M 119.5,63.5 C 122.187,63.3359 124.854,63.5026 127.5,64C 124.964,64.1862 122.631,64.6862 120.5,65.5C 118.833,65.5 117.167,65.5 115.5,65.5C 112.941,65.8016 110.607,65.4682 108.5,64.5C 112.135,63.8857 115.802,63.5524 119.5,63.5 Z"/></g>
<g><path style="opacity:1" fill="#f5f5f5" d="M 135.5,63.5 C 137.167,63.5 138.833,63.5 140.5,63.5C 143.385,63.1936 146.052,63.5269 148.5,64.5C 147.304,69.8996 145.804,75.2329 144,80.5C 141.281,81.4438 138.448,81.7771 135.5,81.5C 130.134,81.3231 124.8,81.6564 119.5,82.5C 117.97,82.3601 116.97,81.6935 116.5,80.5C 117.293,76.1203 118.293,71.7869 119.5,67.5C 118.167,66.8333 116.833,66.1667 115.5,65.5C 117.167,65.5 118.833,65.5 120.5,65.5C 125.75,65.6975 130.75,65.0308 135.5,63.5 Z"/></g>
<g><path style="opacity:1" fill="#3f3f3f" d="M 25.5,60.5 C 28.1339,62.54 28.1339,64.7067 25.5,67C 22.4246,69.7937 19.4246,69.9603 16.5,67.5C 21.3124,67.3416 24.3124,65.0082 25.5,60.5 Z"/></g>
<g><path style="opacity:1" fill="#383838" d="M 106.5,65.5 C 101.245,67.524 95.9115,67.8573 90.5,66.5C 95.8049,65.8058 101.138,65.4724 106.5,65.5 Z"/></g>
<g><path style="opacity:1" fill="#787878" d="M 108.5,64.5 C 110.607,65.4682 112.941,65.8016 115.5,65.5C 116.833,66.1667 118.167,66.8333 119.5,67.5C 112.83,67.8891 106.164,68.3891 99.5,69C 98.9152,70.3024 98.2485,71.469 97.5,72.5C 97.5,71.1667 97.5,69.8333 97.5,68.5C 89.8583,69.1918 82.1916,69.6918 74.5,70C 72.635,70.9643 70.9683,72.1309 69.5,73.5C 63.6144,73.5826 57.6144,73.2493 51.5,72.5C 51.369,71.7611 51.5357,71.0944 52,70.5C 55.4085,71.6219 58.9085,71.7886 62.5,71C 59.3054,70.8195 56.3054,70.3195 53.5,69.5C 65.8163,68.4459 78.1496,67.4459 90.5,66.5C 95.9115,67.8573 101.245,67.524 106.5,65.5C 106.842,64.6618 107.508,64.3284 108.5,64.5 Z"/></g>
<g><path style="opacity:1" fill="#f5f5f5" d="M 97.5,72.5 C 96.9636,76.3139 95.9636,79.9806 94.5,83.5C 92.8609,85.6393 90.8609,85.9726 88.5,84.5C 81.2415,85.9785 73.9082,86.9785 66.5,87.5C 66.5,86.5 66.5,85.5 66.5,84.5C 66.8944,80.6528 67.8944,76.9861 69.5,73.5C 70.9683,72.1309 72.635,70.9643 74.5,70C 82.1916,69.6918 89.8583,69.1918 97.5,68.5C 97.5,69.8333 97.5,71.1667 97.5,72.5 Z"/></g>
<g><path style="opacity:1" fill="#797979" d="M 203.5,63.5 C 204.806,68.6161 205.473,73.9494 205.5,79.5C 203.822,74.4317 203.156,69.0984 203.5,63.5 Z"/></g>
<g><path style="opacity:1" fill="#c2c2c2" d="M 167.5,72.5 C 167.5,73.5 167.5,74.5 167.5,75.5C 171.119,76.2436 174.785,76.577 178.5,76.5C 174.36,78.229 170.027,78.5623 165.5,77.5C 166.028,75.6639 166.694,73.9972 167.5,72.5 Z"/></g>
<g><path style="opacity:1" fill="#e6e6e6" d="M 46.5,76.5 C 47.1667,77.5 47.8333,78.5 48.5,79.5C 46.1125,82.0762 43.1125,83.0762 39.5,82.5C 39.5,81.5 39.5,80.5 39.5,79.5C 41.0304,76.9791 43.3637,75.9791 46.5,76.5 Z"/></g>
<g><path style="opacity:1" fill="#dedede" d="M 26.5,79.5 C 26.4539,84.8616 23.7872,86.8616 18.5,85.5C 18.5,84.1667 18.5,82.8333 18.5,81.5C 20.6055,78.6403 23.2722,77.9736 26.5,79.5 Z"/></g>
<g><path style="opacity:1" fill="#878787" d="M 9.5,74.5 C 10.9457,80.2737 11.6123,86.2737 11.5,92.5C 10.1901,86.7118 9.52345,80.7118 9.5,74.5 Z"/></g>
<g><path style="opacity:1" fill="#9d9d9d" d="M 39.5,79.5 C 39.5,80.5 39.5,81.5 39.5,82.5C 43.1125,83.0762 46.1125,82.0762 48.5,79.5C 48.4606,80.5832 48.1272,81.5832 47.5,82.5C 45.0611,83.4073 42.7278,84.4073 40.5,85.5C 38.5389,83.68 38.2056,81.68 39.5,79.5 Z"/></g>
<g><path style="opacity:1" fill="#969696" d="M 116.5,80.5 C 116.97,81.6935 117.97,82.3601 119.5,82.5C 124.8,81.6564 130.134,81.3231 135.5,81.5C 129.063,83.0389 122.396,83.7055 115.5,83.5C 115.263,82.209 115.596,81.209 116.5,80.5 Z"/></g>
<g><path style="opacity:1" fill="#5c5c5c" d="M 46.5,76.5 C 47.4959,76.4142 48.3292,76.7476 49,77.5C 49.4966,79.8098 49.6633,82.1432 49.5,84.5C 46.9333,84.8545 44.4333,85.5212 42,86.5C 41.2352,86.4301 40.7352,86.0967 40.5,85.5C 42.7278,84.4073 45.0611,83.4073 47.5,82.5C 48.1272,81.5832 48.4606,80.5832 48.5,79.5C 47.8333,78.5 47.1667,77.5 46.5,76.5 Z"/></g>
<g><path style="opacity:1" fill="#777777" d="M 26.5,79.5 C 28.4411,81.0106 28.9411,83.0106 28,85.5C 25.0375,87.2437 21.8708,87.7437 18.5,87C 17.193,85.0565 17.193,83.2232 18.5,81.5C 18.5,82.8333 18.5,84.1667 18.5,85.5C 23.7872,86.8616 26.4539,84.8616 26.5,79.5 Z"/></g>
<g><path style="opacity:1" fill="#f8f9f8" d="M 197.5,92.5 C 197.156,98.0984 197.822,103.432 199.5,108.5C 201.049,119.088 202.049,129.755 202.5,140.5C 202.5,144.167 202.5,147.833 202.5,151.5C 198.833,151.5 195.167,151.5 191.5,151.5C 191.813,154.247 191.48,156.914 190.5,159.5C 189.738,158.372 189.071,157.205 188.5,156C 188.338,149.734 188.671,143.4 189.5,137C 187.283,126.969 186.116,116.803 186,106.5C 185.215,104.714 184.049,103.214 182.5,102C 182.833,101.667 183.167,101.333 183.5,101C 182.5,100.667 181.5,100.333 180.5,100C 181.336,98.7567 181.003,97.5901 179.5,96.5C 177.568,95.4798 175.568,95.3131 173.5,96C 174.634,97.016 174.301,97.6827 172.5,98C 174.108,98.658 175.275,98.158 176,96.5C 177.431,98.3635 178.597,100.364 179.5,102.5C 177.473,102.338 175.473,102.505 173.5,103C 172.177,103.816 171.511,104.983 171.5,106.5C 169.413,107.585 168.08,109.251 167.5,111.5C 163.509,114.644 159.343,117.644 155,120.5C 154.333,125.167 154.333,129.833 155,134.5C 156.49,135.728 157.99,135.728 159.5,134.5C 159.5,135.5 159.5,136.5 159.5,137.5C 158.448,137.351 157.448,137.517 156.5,138C 157.833,138.667 157.833,139.333 156.5,140C 157.167,140.167 157.833,140.333 158.5,140.5C 160.211,139.419 161.711,138.085 163,136.5C 163.5,136.667 164,136.833 164.5,137C 165.423,139.041 165.756,141.208 165.5,143.5C 166.5,143.5 167.5,143.5 168.5,143.5C 168.334,148.844 168.501,154.177 169,159.5C 169.889,158.112 170.389,158.278 170.5,160C 168.914,164.33 168.081,168.83 168,173.5C 167.29,174.973 166.124,175.64 164.5,175.5C 165.399,164.892 165.232,154.225 164,143.5C 163.829,148.864 163.329,154.198 162.5,159.5C 160.374,164.623 159.04,169.956 158.5,175.5C 157.152,154.217 155.819,154.217 154.5,175.5C 152.833,175.5 151.167,175.5 149.5,175.5C 149.665,172.482 149.498,169.482 149,166.5C 148.809,168.708 148.309,170.708 147.5,172.5C 147.784,170.585 147.451,168.919 146.5,167.5C 146.5,166.167 146.5,164.833 146.5,163.5C 141.105,163.267 135.772,163.6 130.5,164.5C 128.265,164.795 126.265,164.461 124.5,163.5C 128.903,160.027 131.237,155.361 131.5,149.5C 134.375,147.751 135.708,145.085 135.5,141.5C 137.008,136.963 138.008,132.297 138.5,127.5C 138.579,124.342 137.579,121.675 135.5,119.5C 134.457,116.944 132.79,114.777 130.5,113C 120.63,108.024 110.963,108.357 101.5,114C 99.5359,115.451 98.2026,117.284 97.5,119.5C 93.1963,123.466 93.8629,126.633 99.5,129C 101.65,130.411 103.984,131.245 106.5,131.5C 107.836,129.693 109.503,128.193 111.5,127C 114.929,125.602 118.262,125.102 121.5,125.5C 122.581,131.775 121.581,137.775 118.5,143.5C 116.659,145.849 115.326,148.515 114.5,151.5C 112.75,152.659 111.75,154.326 111.5,156.5C 109.992,158.181 108.992,160.181 108.5,162.5C 108.167,162.5 107.833,162.5 107.5,162.5C 105.999,160.261 104.666,160.261 103.5,162.5C 102.289,161.726 102.289,160.893 103.5,160C 101.741,159.202 100.074,159.369 98.5,160.5C 94.9487,165.134 94.6154,169.968 97.5,175C 96.2068,175.49 94.8734,175.657 93.5,175.5C 93.8151,168.695 93.1485,162.029 91.5,155.5C 90.1667,155.5 88.8333,155.5 87.5,155.5C 87.5,156.833 87.5,158.167 87.5,159.5C 86.675,157.19 85.3417,155.19 83.5,153.5C 82.6044,150.931 80.9377,148.931 78.5,147.5C 81.9189,140.127 82.2522,132.794 79.5,125.5C 79.2283,122.268 77.5616,120.268 74.5,119.5C 73.0254,117.59 71.0254,116.424 68.5,116C 61.6154,114.902 54.9487,115.569 48.5,118C 46.3825,119.049 44.7158,120.549 43.5,122.5C 41.7868,123.635 41.1201,125.302 41.5,127.5C 40.6236,127.369 39.9569,127.702 39.5,128.5C 38.9529,131.452 37.7862,134.119 36,136.5C 35.6667,136.167 35.3333,135.833 35,135.5C 34.6667,136.833 34.3333,138.167 34,139.5C 33.5425,130.342 32.3759,121.175 30.5,112C 30.6527,109.784 30.9861,107.617 31.5,105.5C 33.5418,103.17 36.2084,102.004 39.5,102C 89.1666,97.1744 138.833,91.841 188.5,86C 186.371,84.8967 184.037,84.3967 181.5,84.5C 168.847,86.165 156.181,87.665 143.5,89C 137.984,89.8174 132.65,89.6507 127.5,88.5C 142.159,86.8111 156.826,84.9778 171.5,83C 178.167,82.3333 184.833,82.3333 191.5,83C 195.156,85.1491 197.156,88.3158 197.5,92.5 Z"/></g>
<g><path style="opacity:1" fill="#bdbdbd" d="M 94.5,83.5 C 94.5,84.5 94.5,85.5 94.5,86.5C 86.1878,87.414 77.8545,88.0806 69.5,88.5C 68.209,88.7373 67.209,88.404 66.5,87.5C 73.9082,86.9785 81.2415,85.9785 88.5,84.5C 90.8609,85.9726 92.8609,85.6393 94.5,83.5 Z"/></g>
<g><path style="opacity:1" fill="#616161" d="M 66.5,84.5 C 66.5,85.5 66.5,86.5 66.5,87.5C 67.209,88.404 68.209,88.7373 69.5,88.5C 68.4324,89.4345 67.099,89.7678 65.5,89.5C 65.2155,87.5853 65.5489,85.9187 66.5,84.5 Z"/></g>
<g><path style="opacity:1" fill="#ebebeb" d="M 65.5,95.5 C 76.2578,93.3213 87.2578,91.9879 98.5,91.5C 103.03,91.597 107.53,91.2637 112,90.5C 113.167,90.8333 114.333,91.1667 115.5,91.5C 101.629,93.2385 87.7958,94.9052 74,96.5C 71.135,96.3157 68.3016,95.9823 65.5,95.5 Z"/></g>
<g><path style="opacity:1" fill="#cccccc" d="M 31.5,105.5 C 30.6365,106.463 29.9698,106.463 29.5,105.5C 30.0318,103.259 31.3651,101.759 33.5,101C 42.1922,99.8121 50.8589,98.4788 59.5,97C 56.5184,96.502 53.5184,96.3354 50.5,96.5C 55.3054,95.5128 60.3054,95.1795 65.5,95.5C 68.3016,95.9823 71.135,96.3157 74,96.5C 87.7958,94.9052 101.629,93.2385 115.5,91.5C 114.333,91.1667 113.167,90.8333 112,90.5C 107.53,91.2637 103.03,91.597 98.5,91.5C 107.955,89.8458 117.622,88.8458 127.5,88.5C 132.65,89.6507 137.984,89.8174 143.5,89C 156.181,87.665 168.847,86.165 181.5,84.5C 184.037,84.3967 186.371,84.8967 188.5,86C 138.833,91.841 89.1666,97.1744 39.5,102C 36.2084,102.004 33.5418,103.17 31.5,105.5 Z"/></g>
<g><path style="opacity:1" fill="#ababab" d="M 50.5,96.5 C 45.0399,97.7373 39.3732,98.404 33.5,98.5C 38.916,96.8827 44.5827,96.216 50.5,96.5 Z"/></g>
<g><path style="opacity:1" fill="#a3a3a3" d="M 197.5,92.5 C 198.806,97.6161 199.473,102.949 199.5,108.5C 197.822,103.432 197.156,98.0984 197.5,92.5 Z"/></g>
<g><path style="opacity:1" fill="#2d2d2d" d="M 15.5,101.5 C 16.8221,101.33 17.9887,101.663 19,102.5C 19.9472,114.024 21.1138,125.524 22.5,137C 22.3333,139.167 22.1667,141.333 22,143.5C 21.1768,136.866 20.6768,136.866 20.5,143.5C 18.846,129.623 17.1794,115.623 15.5,101.5 Z"/></g>
<g><path style="opacity:1" fill="#545454" d="M 210.5,130.5 C 211.946,136.274 212.612,142.274 212.5,148.5C 211.054,142.726 210.388,136.726 210.5,130.5 Z"/></g>
<g><path style="opacity:1" fill="#f5f5f5" d="M 202.5,140.5 C 204.547,151.945 205.88,163.612 206.5,175.5C 206.97,182.346 203.97,186.68 197.5,188.5C 195.901,188.232 194.568,188.566 193.5,189.5C 176.675,191.023 160.008,192.69 143.5,194.5C 128.197,196.46 112.863,198.126 97.5,199.5C 91.2737,199.388 85.2737,200.054 79.5,201.5C 69.4834,202.368 59.4834,203.368 49.5,204.5C 46.8127,204.664 44.146,204.497 41.5,204C 39.5029,202.807 37.8362,201.307 36.5,199.5C 35.7659,198.292 35.4326,196.959 35.5,195.5C 35.3691,194.624 35.7025,193.957 36.5,193.5C 37.2508,194.376 37.7508,195.376 38,196.5C 39.0771,194.884 39.5771,193.051 39.5,191C 37.522,175.159 35.522,159.325 33.5,143.5C 32.3324,150.159 32.3324,156.826 33.5,163.5C 33.3333,164.833 33.1667,166.167 33,167.5C 32.8019,165.618 32.3019,163.952 31.5,162.5C 30.2814,144.917 28.2814,127.417 25.5,110C 25.6517,104.358 28.3184,100.525 33.5,98.5C 39.3732,98.404 45.0399,97.7373 50.5,96.5C 53.5184,96.3354 56.5184,96.502 59.5,97C 50.8589,98.4788 42.1922,99.8121 33.5,101C 31.3651,101.759 30.0318,103.259 29.5,105.5C 29.9698,106.463 30.6365,106.463 31.5,105.5C 30.9861,107.617 30.6527,109.784 30.5,112C 32.3759,121.175 33.5425,130.342 34,139.5C 34.3333,138.167 34.6667,136.833 35,135.5C 35.3333,135.833 35.6667,136.167 36,136.5C 37.7862,134.119 38.9529,131.452 39.5,128.5C 39.9569,127.702 40.6236,127.369 41.5,127.5C 42.5,128.167 43.5,128.833 44.5,129.5C 45.1667,130.833 46.1667,131.833 47.5,132.5C 47.4701,133.497 47.9701,134.164 49,134.5C 51.1124,133.392 52.9458,131.892 54.5,130C 62.606,127.29 66.606,130.123 66.5,138.5C 63.5954,141.78 59.9288,143.113 55.5,142.5C 55.6245,147.049 56.2911,151.382 57.5,155.5C 61.4805,157.107 65.4805,158.941 69.5,161C 70.4231,163.041 70.7564,165.208 70.5,167.5C 70.4894,169.017 69.8228,170.184 68.5,171C 66.4194,171.869 64.2527,172.369 62,172.5C 57.7984,171.872 53.9651,170.706 50.5,169C 48.8288,170.843 47.8288,173.009 47.5,175.5C 44.6908,178.474 45.0242,181.141 48.5,183.5C 50.5579,186.53 53.5579,188.03 57.5,188C 62.8798,188.596 68.2131,188.262 73.5,187C 75.3766,184.894 77.71,183.561 80.5,183C 82.0105,180.991 83.6771,179.158 85.5,177.5C 86.7946,174.988 87.4613,172.321 87.5,169.5C 87.5,166.167 87.5,162.833 87.5,159.5C 87.5,158.167 87.5,156.833 87.5,155.5C 88.8333,155.5 90.1667,155.5 91.5,155.5C 93.1485,162.029 93.8151,168.695 93.5,175.5C 94.8734,175.657 96.2068,175.49 97.5,175C 94.6154,169.968 94.9487,165.134 98.5,160.5C 100.074,159.369 101.741,159.202 103.5,160C 102.289,160.893 102.289,161.726 103.5,162.5C 104.666,160.261 105.999,160.261 107.5,162.5C 107.5,163.167 107.5,163.833 107.5,164.5C 104.742,167.678 102.742,171.345 101.5,175.5C 98.8333,177.5 98.8333,179.5 101.5,181.5C 101.97,182.693 102.97,183.36 104.5,183.5C 118.814,181.684 133.147,180.35 147.5,179.5C 147.5,177.167 147.5,174.833 147.5,172.5C 148.309,170.708 148.809,168.708 149,166.5C 149.498,169.482 149.665,172.482 149.5,175.5C 151.167,175.5 152.833,175.5 154.5,175.5C 155.819,154.217 157.152,154.217 158.5,175.5C 159.04,169.956 160.374,164.623 162.5,159.5C 163.329,154.198 163.829,148.864 164,143.5C 165.232,154.225 165.399,164.892 164.5,175.5C 166.124,175.64 167.29,174.973 168,173.5C 168.081,168.83 168.914,164.33 170.5,160C 170.389,158.278 169.889,158.112 169,159.5C 168.501,154.177 168.334,148.844 168.5,143.5C 167.5,143.5 166.5,143.5 165.5,143.5C 165.756,141.208 165.423,139.041 164.5,137C 164,136.833 163.5,136.667 163,136.5C 161.711,138.085 160.211,139.419 158.5,140.5C 157.833,140.333 157.167,140.167 156.5,140C 157.833,139.333 157.833,138.667 156.5,138C 157.448,137.517 158.448,137.351 159.5,137.5C 159.5,136.5 159.5,135.5 159.5,134.5C 159.5,133.833 159.833,133.5 160.5,133.5C 163.022,132.989 165.355,131.989 167.5,130.5C 168.257,134.881 169.257,139.214 170.5,143.5C 170.719,151.847 171.219,160.18 172,168.5C 172.21,170.058 172.71,171.391 173.5,172.5C 173.281,173.675 173.614,174.675 174.5,175.5C 178.582,173.654 182.915,172.987 187.5,173.5C 187.5,172.5 187.5,171.5 187.5,170.5C 186.484,155.951 184.817,141.617 182.5,127.5C 182.536,120.132 182.036,112.799 181,105.5C 180.722,104.584 180.222,103.918 179.5,103.5C 179.5,103.167 179.5,102.833 179.5,102.5C 178.597,100.364 177.431,98.3635 176,96.5C 175.275,98.158 174.108,98.658 172.5,98C 174.301,97.6827 174.634,97.016 173.5,96C 175.568,95.3131 177.568,95.4798 179.5,96.5C 181.003,97.5901 181.336,98.7567 180.5,100C 181.5,100.333 182.5,100.667 183.5,101C 183.167,101.333 182.833,101.667 182.5,102C 184.049,103.214 185.215,104.714 186,106.5C 186.116,116.803 187.283,126.969 189.5,137C 188.671,143.4 188.338,149.734 188.5,156C 189.071,157.205 189.738,158.372 190.5,159.5C 191.48,156.914 191.813,154.247 191.5,151.5C 195.167,151.5 198.833,151.5 202.5,151.5C 202.5,147.833 202.5,144.167 202.5,140.5 Z"/></g>
<g><path style="opacity:1" fill="#3b89e9" d="M 144.5,175.5 C 144.167,175.5 143.833,175.5 143.5,175.5C 136.159,175.666 128.826,175.5 121.5,175C 119.973,173.368 118.307,173.201 116.5,174.5C 116.709,175.086 117.043,175.586 117.5,176C 112.844,176.665 108.177,177.165 103.5,177.5C 103.5,176.5 103.5,175.5 103.5,174.5C 103.5,174.167 103.5,173.833 103.5,173.5C 105.379,173.393 105.712,173.893 104.5,175C 106.134,175.494 107.801,175.66 109.5,175.5C 109.338,173.473 109.505,171.473 110,169.5C 110.333,170.167 110.667,170.833 111,171.5C 111.333,169.167 111.667,166.833 112,164.5C 114.755,162.234 116.088,159.234 116,155.5C 117.5,157.167 119,158.833 120.5,160.5C 117.807,167.453 120.14,170.453 127.5,169.5C 127.5,170.833 127.5,172.167 127.5,173.5C 132.833,173.5 138.167,173.5 143.5,173.5C 143.343,172.127 143.51,170.793 144,169.5C 144.495,171.473 144.662,173.473 144.5,175.5 Z"/></g>
<g><path style="opacity:1" fill="#192039" d="M 111.5,156.5 C 111.539,159.089 110.539,161.089 108.5,162.5C 108.992,160.181 109.992,158.181 111.5,156.5 Z"/></g>
<g><path style="opacity:1" fill="#c3bdb9" d="M 57.5,155.5 C 60.5,155.5 63.5,155.5 66.5,155.5C 67.7927,157.296 69.2927,158.963 71,160.5C 71.7958,163.039 71.6291,165.372 70.5,167.5C 70.7564,165.208 70.4231,163.041 69.5,161C 65.4805,158.941 61.4805,157.107 57.5,155.5 Z"/></g>
<g><path style="opacity:1" fill="#b0b9c1" d="M 130.5,149.5 C 130.833,149.5 131.167,149.5 131.5,149.5C 131.237,155.361 128.903,160.027 124.5,163.5C 124.833,162.167 125.167,160.833 125.5,159.5C 128.014,156.636 129.68,153.302 130.5,149.5 Z"/></g>
<g><path style="opacity:1" fill="#152b47" d="M 130.5,149.5 C 129.68,153.302 128.014,156.636 125.5,159.5C 125.629,157.784 125.962,156.117 126.5,154.5C 127.833,152.833 129.167,151.167 130.5,149.5 Z"/></g>
<g><path style="opacity:1" fill="#4a251a" d="M 66.5,138.5 C 66.2671,140.062 65.6005,141.395 64.5,142.5C 63.609,143.11 62.609,143.443 61.5,143.5C 60.1667,143.5 58.8333,143.5 57.5,143.5C 57.5,147.167 57.5,150.833 57.5,154.5C 60.7131,154.19 63.7131,154.523 66.5,155.5C 63.5,155.5 60.5,155.5 57.5,155.5C 56.2911,151.382 55.6245,147.049 55.5,142.5C 59.9288,143.113 63.5954,141.78 66.5,138.5 Z"/></g>
<g><path style="opacity:1" fill="#488ddd" d="M 126.5,154.5 C 125.962,156.117 125.629,157.784 125.5,159.5C 123.694,161.089 122.361,163.089 121.5,165.5C 129.065,166.355 136.565,166.022 144,164.5C 145.7,168.229 145.867,171.895 144.5,175.5C 144.662,173.473 144.495,171.473 144,169.5C 143.51,170.793 143.343,172.127 143.5,173.5C 138.167,173.5 132.833,173.5 127.5,173.5C 127.5,172.167 127.5,170.833 127.5,169.5C 120.14,170.453 117.807,167.453 120.5,160.5C 119,158.833 117.5,157.167 116,155.5C 116.088,159.234 114.755,162.234 112,164.5C 111.667,166.833 111.333,169.167 111,171.5C 110.667,170.833 110.333,170.167 110,169.5C 109.505,171.473 109.338,173.473 109.5,175.5C 107.801,175.66 106.134,175.494 104.5,175C 105.712,173.893 105.379,173.393 103.5,173.5C 105.601,170.873 106.934,167.873 107.5,164.5C 107.5,163.833 107.5,163.167 107.5,162.5C 107.833,162.5 108.167,162.5 108.5,162.5C 110.539,161.089 111.539,159.089 111.5,156.5C 111.75,154.326 112.75,152.659 114.5,151.5C 116.873,149.421 118.206,146.754 118.5,143.5C 123.12,138.051 124.62,131.717 123,124.5C 119.531,121.616 115.698,120.95 111.5,122.5C 113.223,121.2 115.39,120.533 118,120.5C 120.424,120.53 122.757,120.863 125,121.5C 125.957,128.148 125.457,134.648 123.5,141C 123.945,142.447 124.612,143.78 125.5,145C 124.704,146.092 124.037,147.259 123.5,148.5C 124.519,150.511 125.519,152.511 126.5,154.5 Z"/></g>
<g><path style="opacity:1" fill="#a5afba" d="M 134.5,141.5 C 134.833,141.5 135.167,141.5 135.5,141.5C 135.708,145.085 134.375,147.751 131.5,149.5C 132.5,146.833 133.5,144.167 134.5,141.5 Z"/></g>
<g><path style="opacity:1" fill="#0c2741" d="M 118.5,143.5 C 118.206,146.754 116.873,149.421 114.5,151.5C 115.326,148.515 116.659,145.849 118.5,143.5 Z"/></g>
<g><path style="opacity:1" fill="#17a305" d="M 177.5,106.5 C 178.167,106.5 178.833,106.5 179.5,106.5C 179.916,113.719 180.916,120.719 182.5,127.5C 182.295,133.878 182.628,140.211 183.5,146.5C 183.403,154.191 183.737,161.858 184.5,169.5C 181.518,169.037 178.518,168.704 175.5,168.5C 175.443,164.971 174.443,161.971 172.5,159.5C 172.5,157.833 172.5,156.167 172.5,154.5C 172.717,146.092 172.051,137.759 170.5,129.5C 170.919,128.328 171.585,127.328 172.5,126.5C 171.363,123.53 169.363,121.364 166.5,120C 166.998,118.842 167.831,118.009 169,117.5C 170.893,118.196 172.726,119.03 174.5,120C 173.027,120.71 172.36,121.876 172.5,123.5C 173.5,123.5 174.5,123.5 175.5,123.5C 175.663,121.143 175.497,118.81 175,116.5C 174.502,114.456 173.335,113.122 171.5,112.5C 172.622,109.562 174.622,107.562 177.5,106.5 Z"/></g>
<g><path style="opacity:1" fill="#fbb48c" d="M 61.5,143.5 C 62.609,143.443 63.609,143.11 64.5,142.5C 68.1873,140.81 68.854,141.31 66.5,144C 64.2462,145.15 61.9129,145.484 59.5,145C 60.4158,144.722 61.0825,144.222 61.5,143.5 Z"/></g>
<g><path style="opacity:1" fill="#194a16" d="M 182.5,127.5 C 184.817,141.617 186.484,155.951 187.5,170.5C 183.134,172.371 178.467,173.038 173.5,172.5C 172.71,171.391 172.21,170.058 172,168.5C 171.219,160.18 170.719,151.847 170.5,143.5C 171.167,147.167 171.833,150.833 172.5,154.5C 172.5,156.167 172.5,157.833 172.5,159.5C 172.423,163.215 172.756,166.881 173.5,170.5C 177.5,170.5 181.5,170.5 185.5,170.5C 185.384,162.307 184.717,154.307 183.5,146.5C 182.628,140.211 182.295,133.878 182.5,127.5 Z"/></g>
<g><path style="opacity:1" fill="#279218" d="M 183.5,146.5 C 184.717,154.307 185.384,162.307 185.5,170.5C 181.5,170.5 177.5,170.5 173.5,170.5C 172.756,166.881 172.423,163.215 172.5,159.5C 174.443,161.971 175.443,164.971 175.5,168.5C 178.518,168.704 181.518,169.037 184.5,169.5C 183.737,161.858 183.403,154.191 183.5,146.5 Z"/></g>
<g><path style="opacity:1" fill="#142844" d="M 135.5,119.5 C 137.579,121.675 138.579,124.342 138.5,127.5C 138.008,132.297 137.008,136.963 135.5,141.5C 135.167,141.5 134.833,141.5 134.5,141.5C 135.982,136.985 136.648,132.319 136.5,127.5C 136.425,124.794 136.092,122.127 135.5,119.5 Z"/></g>
<g><path style="opacity:1" fill="#644035" d="M 79.5,125.5 C 82.2522,132.794 81.9189,140.127 78.5,147.5C 80.9377,148.931 82.6044,150.931 83.5,153.5C 80.5726,151.216 77.9059,148.716 75.5,146C 76.4965,144.404 77.6632,142.904 79,141.5C 79.4993,136.511 79.6659,131.511 79.5,126.5C 79.5,126.167 79.5,125.833 79.5,125.5 Z"/></g>
<g><path style="opacity:1" fill="#db5410" d="M 70.5,118.5 C 71.7079,119.234 73.0413,119.567 74.5,119.5C 75.7859,122.117 77.4525,124.45 79.5,126.5C 79.6659,131.511 79.4993,136.511 79,141.5C 77.6632,142.904 76.4965,144.404 75.5,146C 77.9059,148.716 80.5726,151.216 83.5,153.5C 85.4642,159.324 85.9642,165.324 85,171.5C 84.0646,174.595 82.2313,176.929 79.5,178.5C 81.8114,173.044 82.1448,167.377 80.5,161.5C 78.5,161.5 76.5,161.5 74.5,161.5C 74.5,162.833 74.5,164.167 74.5,165.5C 76.1667,165.5 77.8333,165.5 79.5,165.5C 79.5,166.5 79.5,167.5 79.5,168.5C 77.7376,168.357 76.0709,168.691 74.5,169.5C 70.7994,175.641 65.7994,176.974 59.5,173.5C 70.238,174.599 74.4047,169.932 72,159.5C 70.549,157.536 68.7157,156.203 66.5,155.5C 63.7131,154.523 60.7131,154.19 57.5,154.5C 57.5,150.833 57.5,147.167 57.5,143.5C 58.8333,143.5 60.1667,143.5 61.5,143.5C 61.0825,144.222 60.4158,144.722 59.5,145C 61.9129,145.484 64.2462,145.15 66.5,144C 68.854,141.31 68.1873,140.81 64.5,142.5C 65.6005,141.395 66.2671,140.062 66.5,138.5C 68.132,130.128 64.4653,126.461 55.5,127.5C 52.7607,127.707 50.4274,128.707 48.5,130.5C 47.1508,130.154 45.8175,129.821 44.5,129.5C 44.4431,128.391 44.1098,127.391 43.5,126.5C 46.4886,123.378 50.1552,121.211 54.5,120C 60.0158,119.827 65.3491,119.327 70.5,118.5 Z"/></g>
<g><path style="opacity:1" fill="#a64820" d="M 55.5,127.5 C 53.3424,129.993 50.6757,131.66 47.5,132.5C 46.1667,131.833 45.1667,130.833 44.5,129.5C 45.8175,129.821 47.1508,130.154 48.5,130.5C 50.4274,128.707 52.7607,127.707 55.5,127.5 Z"/></g>
<g><path style="opacity:1" fill="#4d251a" d="M 55.5,127.5 C 64.4653,126.461 68.132,130.128 66.5,138.5C 66.606,130.123 62.606,127.29 54.5,130C 52.9458,131.892 51.1124,133.392 49,134.5C 47.9701,134.164 47.4701,133.497 47.5,132.5C 50.6757,131.66 53.3424,129.993 55.5,127.5 Z"/></g>
<g><path style="opacity:1" fill="#192f52" d="M 97.5,119.5 C 96.9862,121.512 96.8195,123.512 97,125.5C 99.0859,127.249 101.419,128.583 104,129.5C 106.045,126.958 108.545,124.958 111.5,123.5C 109.015,125.652 107.349,128.319 106.5,131.5C 103.984,131.245 101.65,130.411 99.5,129C 93.8629,126.633 93.1963,123.466 97.5,119.5 Z"/></g>
<g><path style="opacity:1" fill="#eb4d0c" d="M 71.5,121.5 C 74.2974,121.967 75.6308,123.633 75.5,126.5C 74.5,126.5 73.5,126.5 72.5,126.5C 71.3956,130.11 70.3956,133.776 69.5,137.5C 68.3059,134.68 68.3059,131.847 69.5,129C 66.6105,127.108 66.9438,126.275 70.5,126.5C 70.67,125.178 70.3366,124.011 69.5,123C 70.4158,122.722 71.0825,122.222 71.5,121.5 Z"/></g>
<g><path style="opacity:1" fill="#568fd4" d="M 122.5,112.5 C 124.199,112.34 125.866,112.506 127.5,113C 130.331,115.001 132.997,117.167 135.5,119.5C 136.092,122.127 136.425,124.794 136.5,127.5C 134.803,125.695 133.97,123.361 134,120.5C 127.339,115.579 119.839,113.579 111.5,114.5C 115.167,113.833 118.833,113.167 122.5,112.5 Z"/></g>
<g><path style="opacity:1" fill="#3c87e3" d="M 111.5,114.5 C 119.839,113.579 127.339,115.579 134,120.5C 133.97,123.361 134.803,125.695 136.5,127.5C 136.648,132.319 135.982,136.985 134.5,141.5C 133.5,144.167 132.5,146.833 131.5,149.5C 131.167,149.5 130.833,149.5 130.5,149.5C 129.167,151.167 127.833,152.833 126.5,154.5C 125.519,152.511 124.519,150.511 123.5,148.5C 124.037,147.259 124.704,146.092 125.5,145C 124.612,143.78 123.945,142.447 123.5,141C 125.457,134.648 125.957,128.148 125,121.5C 122.757,120.863 120.424,120.53 118,120.5C 115.39,120.533 113.223,121.2 111.5,122.5C 111.5,122.833 111.5,123.167 111.5,123.5C 108.545,124.958 106.045,126.958 104,129.5C 101.419,128.583 99.0859,127.249 97,125.5C 96.8195,123.512 96.9862,121.512 97.5,119.5C 99.2459,117.748 101.246,116.415 103.5,115.5C 102.207,117.296 100.707,118.963 99,120.5C 98.3123,121.332 98.479,121.998 99.5,122.5C 100.998,120.171 102.998,118.337 105.5,117C 107.488,116.82 109.488,116.986 111.5,117.5C 111.5,116.5 111.5,115.5 111.5,114.5 Z"/></g>
<g><path style="opacity:1" fill="#b5b8ba" d="M 111.5,123.5 C 114.187,123.336 116.854,123.503 119.5,124C 120.416,124.278 121.082,124.778 121.5,125.5C 118.262,125.102 114.929,125.602 111.5,127C 109.503,128.193 107.836,129.693 106.5,131.5C 107.349,128.319 109.015,125.652 111.5,123.5 Z"/></g>
<g><path style="opacity:1" fill="#4f1a0e" d="M 43.5,122.5 C 42.6457,124.035 42.6457,125.368 43.5,126.5C 44.1098,127.391 44.4431,128.391 44.5,129.5C 43.5,128.833 42.5,128.167 41.5,127.5C 41.1201,125.302 41.7868,123.635 43.5,122.5 Z"/></g>
<g><path style="opacity:1" fill="#152f53" d="M 118.5,143.5 C 121.581,137.775 122.581,131.775 121.5,125.5C 121.082,124.778 120.416,124.278 119.5,124C 116.854,123.503 114.187,123.336 111.5,123.5C 111.5,123.167 111.5,122.833 111.5,122.5C 115.698,120.95 119.531,121.616 123,124.5C 124.62,131.717 123.12,138.051 118.5,143.5 Z"/></g>
<g><path style="opacity:1" fill="#76321b" d="M 74.5,119.5 C 77.5616,120.268 79.2283,122.268 79.5,125.5C 79.5,125.833 79.5,126.167 79.5,126.5C 77.4525,124.45 75.7859,122.117 74.5,119.5 Z"/></g>
<g><path style="opacity:1" fill="#7fd574" d="M 177.5,106.5 C 174.622,107.562 172.622,109.562 171.5,112.5C 167.756,116.575 163.422,119.908 158.5,122.5C 157.893,122.376 157.56,122.043 157.5,121.5C 160.31,118.864 163.31,116.364 166.5,114C 167.252,113.329 167.586,112.496 167.5,111.5C 168.167,111.5 168.833,111.5 169.5,111.5C 171.6,109.502 173.6,107.335 175.5,105C 176.816,104.472 177.483,104.972 177.5,106.5 Z"/></g>
<g><path style="opacity:1" fill="#20461d" d="M 167.5,111.5 C 167.586,112.496 167.252,113.329 166.5,114C 163.31,116.364 160.31,118.864 157.5,121.5C 156.883,121.611 156.383,121.944 156,122.5C 155.333,125.167 155.333,127.833 156,130.5C 156.388,131.428 157.055,132.095 158,132.5C 161.29,130.713 164.457,128.713 167.5,126.5C 168.086,126.709 168.586,127.043 169,127.5C 169.83,132.808 170.33,138.141 170.5,143.5C 169.257,139.214 168.257,134.881 167.5,130.5C 167.631,129.624 167.298,128.957 166.5,128.5C 164.429,130.185 162.429,131.852 160.5,133.5C 159.833,133.5 159.5,133.833 159.5,134.5C 157.99,135.728 156.49,135.728 155,134.5C 154.333,129.833 154.333,125.167 155,120.5C 159.343,117.644 163.509,114.644 167.5,111.5 Z"/></g>
<g><path style="opacity:1" fill="#a6b1a8" d="M 167.5,130.5 C 165.355,131.989 163.022,132.989 160.5,133.5C 162.429,131.852 164.429,130.185 166.5,128.5C 167.298,128.957 167.631,129.624 167.5,130.5 Z"/></g>
<g><path style="opacity:1" fill="#e9a17a" d="M 70.5,118.5 C 65.3491,119.327 60.0158,119.827 54.5,120C 50.1552,121.211 46.4886,123.378 43.5,126.5C 42.6457,125.368 42.6457,124.035 43.5,122.5C 47.3691,120.399 51.3691,118.566 55.5,117C 60.7746,116.099 65.7746,116.599 70.5,118.5 Z"/></g>
<g><path style="opacity:1" fill="#4e2419" d="M 74.5,119.5 C 73.0413,119.567 71.7079,119.234 70.5,118.5C 65.7746,116.599 60.7746,116.099 55.5,117C 51.3691,118.566 47.3691,120.399 43.5,122.5C 44.7158,120.549 46.3825,119.049 48.5,118C 54.9487,115.569 61.6154,114.902 68.5,116C 71.0254,116.424 73.0254,117.59 74.5,119.5 Z"/></g>
<g><path style="opacity:1" fill="#90c1f0" d="M 122.5,112.5 C 118.833,113.167 115.167,113.833 111.5,114.5C 111.5,115.5 111.5,116.5 111.5,117.5C 109.488,116.986 107.488,116.82 105.5,117C 102.998,118.337 100.998,120.171 99.5,122.5C 98.479,121.998 98.3123,121.332 99,120.5C 100.707,118.963 102.207,117.296 103.5,115.5C 105.1,114.356 106.767,113.189 108.5,112C 113.352,111.185 118.019,111.352 122.5,112.5 Z"/></g>
<g><path style="opacity:1" fill="#209d11" d="M 171.5,112.5 C 173.335,113.122 174.502,114.456 175,116.5C 175.497,118.81 175.663,121.143 175.5,123.5C 174.5,123.5 173.5,123.5 172.5,123.5C 172.36,121.876 173.027,120.71 174.5,120C 172.726,119.03 170.893,118.196 169,117.5C 167.831,118.009 166.998,118.842 166.5,120C 169.363,121.364 171.363,123.53 172.5,126.5C 171.585,127.328 170.919,128.328 170.5,129.5C 172.051,137.759 172.717,146.092 172.5,154.5C 171.833,150.833 171.167,147.167 170.5,143.5C 170.33,138.141 169.83,132.808 169,127.5C 168.586,127.043 168.086,126.709 167.5,126.5C 164.457,128.713 161.29,130.713 158,132.5C 157.055,132.095 156.388,131.428 156,130.5C 155.333,127.833 155.333,125.167 156,122.5C 156.383,121.944 156.883,121.611 157.5,121.5C 157.56,122.043 157.893,122.376 158.5,122.5C 163.422,119.908 167.756,116.575 171.5,112.5 Z"/></g>
<g><path style="opacity:1" fill="#303e55" d="M 135.5,119.5 C 132.997,117.167 130.331,115.001 127.5,113C 125.866,112.506 124.199,112.34 122.5,112.5C 118.019,111.352 113.352,111.185 108.5,112C 106.767,113.189 105.1,114.356 103.5,115.5C 101.246,116.415 99.2459,117.748 97.5,119.5C 98.2026,117.284 99.5359,115.451 101.5,114C 110.963,108.357 120.63,108.024 130.5,113C 132.79,114.777 134.457,116.944 135.5,119.5 Z"/></g>
<g><path style="opacity:1" fill="#1e401b" d="M 179.5,103.5 C 180.222,103.918 180.722,104.584 181,105.5C 182.036,112.799 182.536,120.132 182.5,127.5C 180.916,120.719 179.916,113.719 179.5,106.5C 179.5,105.5 179.5,104.5 179.5,103.5 Z"/></g>
<g><path style="opacity:1" fill="#1c431b" d="M 171.5,106.5 C 170.833,108.167 170.167,109.833 169.5,111.5C 168.833,111.5 168.167,111.5 167.5,111.5C 168.08,109.251 169.413,107.585 171.5,106.5 Z"/></g>
<g><path style="opacity:1" fill="#356630" d="M 179.5,102.5 C 179.5,102.833 179.5,103.167 179.5,103.5C 179.5,104.5 179.5,105.5 179.5,106.5C 178.833,106.5 178.167,106.5 177.5,106.5C 177.483,104.972 176.816,104.472 175.5,105C 173.6,107.335 171.6,109.502 169.5,111.5C 170.167,109.833 170.833,108.167 171.5,106.5C 171.511,104.983 172.177,103.816 173.5,103C 175.473,102.505 177.473,102.338 179.5,102.5 Z"/></g>
<g><path style="opacity:1" fill="#b5b5b5" d="M 21.5,162.5 C 23.4731,172.952 24.8065,183.618 25.5,194.5C 23.1987,184.09 21.8654,173.423 21.5,162.5 Z"/></g>
<g><path style="opacity:1" fill="#21365c" d="M 107.5,164.5 C 106.934,167.873 105.601,170.873 103.5,173.5C 103.5,173.833 103.5,174.167 103.5,174.5C 102.833,174.833 102.167,175.167 101.5,175.5C 102.742,171.345 104.742,167.678 107.5,164.5 Z"/></g>
<g><path style="opacity:1" fill="#552b19" d="M 66.5,155.5 C 68.7157,156.203 70.549,157.536 72,159.5C 74.4047,169.932 70.238,174.599 59.5,173.5C 56.7201,173.193 54.2201,172.193 52,170.5C 50.2437,171.932 48.7437,173.599 47.5,175.5C 47.8288,173.009 48.8288,170.843 50.5,169C 53.9651,170.706 57.7984,171.872 62,172.5C 64.2527,172.369 66.4194,171.869 68.5,171C 69.8228,170.184 70.4894,169.017 70.5,167.5C 71.6291,165.372 71.7958,163.039 71,160.5C 69.2927,158.963 67.7927,157.296 66.5,155.5 Z"/></g>
<g><path style="opacity:1" fill="#4083ce" d="M 143.5,175.5 C 141.5,176.167 139.5,176.833 137.5,177.5C 125.452,177.509 113.452,178.176 101.5,179.5C 101.5,178.167 101.5,176.833 101.5,175.5C 102.167,175.167 102.833,174.833 103.5,174.5C 103.5,175.5 103.5,176.5 103.5,177.5C 108.177,177.165 112.844,176.665 117.5,176C 117.043,175.586 116.709,175.086 116.5,174.5C 118.307,173.201 119.973,173.368 121.5,175C 128.826,175.5 136.159,175.666 143.5,175.5 Z"/></g>
<g><path style="opacity:1" fill="#a8c1a5" d="M 187.5,170.5 C 187.5,171.5 187.5,172.5 187.5,173.5C 182.915,172.987 178.582,173.654 174.5,175.5C 173.614,174.675 173.281,173.675 173.5,172.5C 178.467,173.038 183.134,172.371 187.5,170.5 Z"/></g>
<g><path style="opacity:1" fill="#e4530b" d="M 79.5,178.5 C 77.0898,180.125 74.4232,181.458 71.5,182.5C 67.6506,182.597 63.8173,182.931 60,183.5C 56.1385,182.933 52.3052,182.267 48.5,181.5C 47.5386,179.735 47.2053,177.735 47.5,175.5C 48.7437,173.599 50.2437,171.932 52,170.5C 54.2201,172.193 56.7201,173.193 59.5,173.5C 65.7994,176.974 70.7994,175.641 74.5,169.5C 76.0709,168.691 77.7376,168.357 79.5,168.5C 79.5,167.5 79.5,166.5 79.5,165.5C 77.8333,165.5 76.1667,165.5 74.5,165.5C 74.5,164.167 74.5,162.833 74.5,161.5C 76.5,161.5 78.5,161.5 80.5,161.5C 82.1448,167.377 81.8114,173.044 79.5,178.5 Z"/></g>
<g><path style="opacity:1" fill="#293349" d="M 125.5,159.5 C 125.167,160.833 124.833,162.167 124.5,163.5C 123.957,163.56 123.624,163.893 123.5,164.5C 125.973,165.797 128.307,165.797 130.5,164.5C 135.772,163.6 141.105,163.267 146.5,163.5C 146.5,164.833 146.5,166.167 146.5,167.5C 146.5,170.833 146.5,174.167 146.5,177.5C 143.5,177.5 140.5,177.5 137.5,177.5C 139.5,176.833 141.5,176.167 143.5,175.5C 143.833,175.5 144.167,175.5 144.5,175.5C 145.867,171.895 145.7,168.229 144,164.5C 136.565,166.022 129.065,166.355 121.5,165.5C 122.361,163.089 123.694,161.089 125.5,159.5 Z"/></g>
<g><path style="opacity:1" fill="#7e848e" d="M 124.5,163.5 C 126.265,164.461 128.265,164.795 130.5,164.5C 128.307,165.797 125.973,165.797 123.5,164.5C 123.624,163.893 123.957,163.56 124.5,163.5 Z"/></g>
<g><path style="opacity:1" fill="#a09e9e" d="M 146.5,167.5 C 147.451,168.919 147.784,170.585 147.5,172.5C 147.5,174.833 147.5,177.167 147.5,179.5C 133.147,180.35 118.814,181.684 104.5,183.5C 102.97,183.36 101.97,182.693 101.5,181.5C 113.738,181.025 125.738,179.692 137.5,177.5C 140.5,177.5 143.5,177.5 146.5,177.5C 146.5,174.167 146.5,170.833 146.5,167.5 Z"/></g>
<g><path style="opacity:1" fill="#dbdbdb" d="M 35.5,195.5 C 33.6095,184.706 32.2762,173.706 31.5,162.5C 32.3019,163.952 32.8019,165.618 33,167.5C 33.1667,166.167 33.3333,164.833 33.5,163.5C 32.3324,156.826 32.3324,150.159 33.5,143.5C 35.522,159.325 37.522,175.159 39.5,191C 39.5771,193.051 39.0771,194.884 38,196.5C 37.7508,195.376 37.2508,194.376 36.5,193.5C 35.7025,193.957 35.3691,194.624 35.5,195.5 Z"/></g>
<g><path style="opacity:1" fill="#223759" d="M 101.5,175.5 C 101.5,176.833 101.5,178.167 101.5,179.5C 113.452,178.176 125.452,177.509 137.5,177.5C 125.738,179.692 113.738,181.025 101.5,181.5C 98.8333,179.5 98.8333,177.5 101.5,175.5 Z"/></g>
<g><path style="opacity:1" fill="#454545" d="M 206.5,175.5 C 208.376,178.737 208.71,182.07 207.5,185.5C 207.631,184.761 207.464,184.094 207,183.5C 204.726,187.551 201.56,189.218 197.5,188.5C 203.97,186.68 206.97,182.346 206.5,175.5 Z"/></g>
<g><path style="opacity:1" fill="#572815" d="M 83.5,153.5 C 85.3417,155.19 86.675,157.19 87.5,159.5C 87.5,162.833 87.5,166.167 87.5,169.5C 85.5564,175.289 81.8897,179.789 76.5,183C 67.1398,187.244 57.8064,187.41 48.5,183.5C 45.0242,181.141 44.6908,178.474 47.5,175.5C 47.2053,177.735 47.5386,179.735 48.5,181.5C 52.1924,183.933 56.3591,184.933 61,184.5C 64.8048,184.696 68.3048,184.03 71.5,182.5C 74.4232,181.458 77.0898,180.125 79.5,178.5C 82.2313,176.929 84.0646,174.595 85,171.5C 85.9642,165.324 85.4642,159.324 83.5,153.5 Z"/></g>
<g><path style="opacity:1" fill="#c9551b" d="M 48.5,181.5 C 52.3052,182.267 56.1385,182.933 60,183.5C 63.8173,182.931 67.6506,182.597 71.5,182.5C 68.3048,184.03 64.8048,184.696 61,184.5C 56.3591,184.933 52.1924,183.933 48.5,181.5 Z"/></g>
<g><path style="opacity:1" fill="#aab1ad" d="M 87.5,169.5 C 87.4613,172.321 86.7946,174.988 85.5,177.5C 83.6771,179.158 82.0105,180.991 80.5,183C 77.71,183.561 75.3766,184.894 73.5,187C 68.2131,188.262 62.8798,188.596 57.5,188C 53.5579,188.03 50.5579,186.53 48.5,183.5C 57.8064,187.41 67.1398,187.244 76.5,183C 81.8897,179.789 85.5564,175.289 87.5,169.5 Z"/></g>
<g><path style="opacity:1" fill="#747474" d="M 207.5,185.5 C 202.213,191.376 195.546,193.709 187.5,192.5C 186.127,192.657 184.793,192.49 183.5,192C 187.872,191.579 192.205,190.912 196.5,190C 195.552,189.517 194.552,189.351 193.5,189.5C 194.568,188.566 195.901,188.232 197.5,188.5C 201.56,189.218 204.726,187.551 207,183.5C 207.464,184.094 207.631,184.761 207.5,185.5 Z"/></g>
<g><path style="opacity:1" fill="#404040" d="M 193.5,189.5 C 194.552,189.351 195.552,189.517 196.5,190C 192.205,190.912 187.872,191.579 183.5,192C 184.793,192.49 186.127,192.657 187.5,192.5C 174.081,194.984 160.414,196.151 146.5,196C 148.167,195.667 149.833,195.333 151.5,195C 148.854,194.503 146.187,194.336 143.5,194.5C 160.008,192.69 176.675,191.023 193.5,189.5 Z"/></g>
<g><path style="opacity:1" fill="#4f4f4f" d="M 97.5,199.5 C 91.7263,200.946 85.7263,201.612 79.5,201.5C 85.2737,200.054 91.2737,199.388 97.5,199.5 Z"/></g>
<g><path style="opacity:1" fill="#4a4a4a" d="M 36.5,199.5 C 37.8362,201.307 39.5029,202.807 41.5,204C 44.146,204.497 46.8127,204.664 49.5,204.5C 50.2625,205.268 51.2625,205.768 52.5,206C 47.9236,207.884 43.2569,207.884 38.5,206C 37.6433,205.311 36.9767,204.478 36.5,203.5C 37.3629,202.274 37.3629,200.94 36.5,199.5 Z"/></g>
<g><path style="opacity:1" fill="#9e9e9e" d="M 140.5,205.5 C 135.056,206.884 129.389,207.55 123.5,207.5C 128.929,205.988 134.596,205.321 140.5,205.5 Z"/></g>
<g><path style="opacity:1" fill="#aeaeae" d="M 122.5,207.5 C 116.395,208.996 110.062,209.663 103.5,209.5C 109.63,208.253 115.963,207.586 122.5,207.5 Z"/></g>
<g><path style="opacity:1" fill="#909090" d="M 79.5,211.5 C 74.3839,212.806 69.0506,213.473 63.5,213.5C 68.5826,211.922 73.916,211.255 79.5,211.5 Z"/></g>
<g><path style="opacity:1" fill="#a3a3a3" d="M 60.5,213.5 C 59.0813,214.451 57.4147,214.784 55.5,214.5C 54.1266,214.343 52.7932,214.51 51.5,215C 52.4158,215.278 53.0825,215.778 53.5,216.5C 47.1667,216.5 40.8333,216.5 34.5,216.5C 34.1667,215.833 33.8333,215.167 33.5,214.5C 35.2883,214.971 37.1216,215.304 39,215.5C 46.1215,214.297 53.2882,213.63 60.5,213.5 Z"/></g>
<g><path style="opacity:1" fill="#d8d8d8" d="M 55.5,214.5 C 81.5,215.167 107.5,215.833 133.5,216.5C 130.167,216.5 126.833,216.5 123.5,216.5C 100.167,216.5 76.8333,216.5 53.5,216.5C 53.0825,215.778 52.4158,215.278 51.5,215C 52.7932,214.51 54.1266,214.343 55.5,214.5 Z"/></g>
<g><path style="opacity:1" fill="#e3e3e3" d="M 26.5,216.5 C 25.6016,217.158 24.6016,217.824 23.5,218.5C 25.396,219.466 27.396,219.799 29.5,219.5C 30.1667,219.5 30.8333,219.5 31.5,219.5C 64.6768,220.779 98.0102,220.779 131.5,219.5C 140.857,219.832 150.19,219.498 159.5,218.5C 155.687,217.833 152.021,217.166 148.5,216.5C 153.833,216.5 159.167,216.5 164.5,216.5C 164.64,218.124 163.973,219.29 162.5,220C 115.15,221.792 67.8164,221.792 20.5,220C 19.1667,219 19.1667,218 20.5,217C 22.4727,216.505 24.4727,216.338 26.5,216.5 Z"/></g>
<g><path style="opacity:1" fill="#adadad" d="M 123.5,216.5 C 126.833,216.5 130.167,216.5 133.5,216.5C 138.5,216.5 143.5,216.5 148.5,216.5C 152.021,217.166 155.687,217.833 159.5,218.5C 150.19,219.498 140.857,219.832 131.5,219.5C 135.312,218.676 139.312,218.176 143.5,218C 136.654,217.828 129.987,217.328 123.5,216.5 Z"/></g>
<g><path style="opacity:1" fill="#757575" d="M 31.5,217.5 C 31.5,217.167 31.5,216.833 31.5,216.5C 32.5,216.5 33.5,216.5 34.5,216.5C 40.8333,216.5 47.1667,216.5 53.5,216.5C 76.8333,216.5 100.167,216.5 123.5,216.5C 129.987,217.328 136.654,217.828 143.5,218C 139.312,218.176 135.312,218.676 131.5,219.5C 98.0102,220.779 64.6768,220.779 31.5,219.5C 40.1667,219.5 48.8333,219.5 57.5,219.5C 78.18,219.579 98.8467,219.079 119.5,218C 108.839,217.5 98.1719,217.333 87.5,217.5C 68.8333,217.5 50.1667,217.5 31.5,217.5 Z"/></g>
<g><path style="opacity:1" fill="#3c3c3c" d="M 87.5,217.5 C 98.1719,217.333 108.839,217.5 119.5,218C 98.8467,219.079 78.18,219.579 57.5,219.5C 67.5,218.833 77.5,218.167 87.5,217.5 Z"/></g>
<g><path style="opacity:1" fill="#0f0f0f" d="M 31.5,217.5 C 50.1667,217.5 68.8333,217.5 87.5,217.5C 77.5,218.167 67.5,218.833 57.5,219.5C 48.8333,219.5 40.1667,219.5 31.5,219.5C 30.8333,219.5 30.1667,219.5 29.5,219.5C 28.3398,217.797 29.0065,217.131 31.5,217.5 Z"/></g>
<g><path style="opacity:1" fill="#848484" d="M 26.5,216.5 C 28.1667,216.5 29.8333,216.5 31.5,216.5C 31.5,216.833 31.5,217.167 31.5,217.5C 29.0065,217.131 28.3398,217.797 29.5,219.5C 27.396,219.799 25.396,219.466 23.5,218.5C 24.6016,217.824 25.6016,217.158 26.5,216.5 Z"/></g>
</svg>
