<svg xmlns="http://www.w3.org/2000/svg" width="225" height="225" style="shape-rendering:geometricPrecision;text-rendering:geometricPrecision;image-rendering:optimizeQuality;fill-rule:evenodd;clip-rule:evenodd"><path fill="#fcfcfc" d="M-.5-.5h225v225H-.5z" style="opacity:1"/><path fill="#131313" d="M193.5 24.5q1.688-1.728 0-3a138 138 0 0 1-9-13l-1-2a27.6 27.6 0 0 1 10-2 81.7 81.7 0 0 1 4 15.5q.852 4.894-4 4.5" style="opacity:1"/><path fill="#454545" d="m183.5 6.5 1 2q-14.747 2.598-28 8-1.083-1.577-3-2a492 492 0 0 1 30-8" style="opacity:1"/><path fill="#efefef" d="M184.5 8.5a138 138 0 0 0 9 13q-3.537 2.443-8 3.5a138.5 138.5 0 0 0-19 4.5l-10-13q13.253-5.402 28-8" style="opacity:1"/><path fill="#0a0a0a" d="M153.5 14.5q1.917.423 3 2l10 13 1 2q-10.01 2.505-20 5-1.917-.423-3-2 .257-1.487-1-2l-7-10q0-1-1-1l-2-2a78 78 0 0 1 10-2q-.371 2.065-4 2.5 8.041.57 15-3.5l-1-1q-2.724 1.852-5 0a20.7 20.7 0 0 0 5-1" style="opacity:1"/><path fill="#454545" d="M148.5 15.5q2.276 1.852 5 0l1 1q-6.959 4.07-15 3.5 3.629-.435 4-2.5 2.145-1.557 5-2" style="opacity:1"/><path fill="#f7f7f7" d="m136.5 22.5 7 10q.045 1.496-1.5 2a288 288 0 0 0-12.5 2.5q-.834.575-1 1.5-5.14 2.661-11 3a61 61 0 0 1-9-12 23.3 23.3 0 0 1 6-3q11.32-1.032 22-4" style="opacity:1"/><path fill="#c6c6c6" d="M135.5 21.5q1 0 1 1-10.68 2.968-22 4 9.95-4.11 21-5" style="opacity:1"/><path fill="#3a3a3a" d="m133.5 19.5 2 2q-11.05.89-21 5a8.44 8.44 0 0 1-4-.5q1.856-.348 3-1.5a219 219 0 0 1 20-5" style="opacity:1"/><path fill="#3e3e3e" d="M193.5 21.5q1.688 1.272 0 3a295 295 0 0 1-26 7l-1-2a138.5 138.5 0 0 1 19-4.5q4.463-1.057 8-3.5" style="opacity:1"/><path fill="#626262" d="M113.5 24.5q-1.144 1.152-3 1.5a8.44 8.44 0 0 0 4 .5 23.3 23.3 0 0 0-6 3 35.1 35.1 0 0 1-13 1.5 164 164 0 0 0 14-4 4.93 4.93 0 0 0-3-.5q3.022-2.135 7-2" style="opacity:1"/><path fill="#0d0d0d" d="M106.5 26.5a4.93 4.93 0 0 1 3 .5 164 164 0 0 1-14 4q6.615.475 13-1.5a61 61 0 0 0 9 12 5.73 5.73 0 0 1-1 3 3768 3768 0 0 0-20 5v-1q-.24-2.48-2-4l-7-10q0-1-1-1v-2a269 269 0 0 1 20-5" style="opacity:1"/><path fill="#c6c6c6" d="M143.5 32.5q1.257.513 1 2-7.495 3.375-16 4 .166-.925 1-1.5a288 288 0 0 1 12.5-2.5q1.545-.504 1.5-2" style="opacity:1"/><path fill="#f8f8f8" d="m87.5 34.5 7 10q.128 1.495-1 2.5a398 398 0 0 1-19 5q-.835.575-1 1.5a20.7 20.7 0 0 0-5 1q-3.55-5.035-7-10a5.6 5.6 0 0 1 1-3 101.6 101.6 0 0 1 17.5-4 3.94 3.94 0 0 1 2 1q2.118-2.928 5.5-4" style="opacity:1"/><path fill="#ccc" d="M86.5 33.5q1 0 1 1-3.382 1.072-5.5 4a3.94 3.94 0 0 0-2-1 101.6 101.6 0 0 0-17.5 4 5.6 5.6 0 0 0-1 3q-1.352-1.185-2-3 .18-1.63 2-2a954 954 0 0 0 25-6" style="opacity:1"/><path fill="#414141" d="M86.5 31.5v2a954 954 0 0 1-25 6q-1.82.37-2 2l-2-2a188.6 188.6 0 0 1 29-8" style="opacity:1"/><path fill="#3c3c3c" d="M56.5 39.5q.5 4.5-4 4-.895-.958-2.5-1-7.164 1.22-13.5 4a20.7 20.7 0 0 0-5 1 2473 2473 0 0 1-16 3q.165-.925 1-1.5a2660 2660 0 0 0 40-9.5" style="opacity:1"/><path fill="#393939" d="M144.5 34.5q1.083 1.577 3 2a625 625 0 0 1-31 8 5.73 5.73 0 0 0 1-3q5.86-.339 11-3 8.505-.625 16-4" style="opacity:1"/><path fill="#0e0e0e" d="M56.5 39.5h1l2 2q.648 1.815 2 3 3.45 4.965 7 10l3 2a581 581 0 0 0-23 6 1175 1175 0 0 0 4 6q.098.658-.5 1l-3-3a124 124 0 0 0-7.5-11 4386 4386 0 0 1-20-2 941 941 0 0 0 20-2q-.186-.91-1-1a5.73 5.73 0 0 0-1-3q6.364-1.986 13-4 4.5.5 4-4" style="opacity:1"/><path fill="#6a6a6a" d="M52.5 43.5a1704 1704 0 0 0-13 4 5.73 5.73 0 0 0-3-1q6.336-2.78 13.5-4 1.605.042 2.5 1" style="opacity:1"/><path fill="#ededed" d="M36.5 46.5a5.73 5.73 0 0 1 3 1q.915 1.337 1 3-8.227 1.728-17 .5 4.352-1.313 8-3.5a20.7 20.7 0 0 1 5-1" style="opacity:1"/><path fill="#a8a8a8" d="M94.5 44.5q1.76 1.52 2 4a434 434 0 0 0-23 5q.165-.925 1-1.5a398 398 0 0 0 19-5q1.128-1.005 1-2.5" style="opacity:1"/><path fill="#181818" d="M15.5 50.5a26.3 26.3 0 0 1-5 2q-.814.09-1 1 5.72 1 11 2h-10q-1.63.18-2 2 1.745 4.24 0 8-1.505-7.01-3-14 4.96-.825 10-1" style="opacity:1"/><path fill="#afafaf" d="M31.5 47.5q-3.648 2.187-8 3.5 8.773 1.228 17-.5.814.09 1 1a941 941 0 0 1-20 2q-5.807.473-11-1a26.3 26.3 0 0 0 5-2q7.96-1.465 16-3" style="opacity:1"/><path fill="#414141" d="M96.5 48.5v1a559 559 0 0 1-25 7l-3-2a20.7 20.7 0 0 1 5-1 434 434 0 0 1 23-5" style="opacity:1"/><path fill="#676767" d="M202.5 55.5q-1.917.423-3 2a342 342 0 0 1-24 2q3.703-1.225 8-1.5a12.9 12.9 0 0 0-5-.5 202 202 0 0 1 20-3q2.317.016 4 1" style="opacity:1"/><path fill="#0a0a0a" d="M202.5 55.5q1.46 3.672 1 8-.516 8.397 2 16 2.228 25.515 5 51-.168 9.339 2 18a5118 5118 0 0 0 4 35.5q.786 9.141-7 14a3239 3239 0 0 0-69 7.5q-8.856-.268-17 2h-1q-9.805.13-19 2l-24 2q-8.376-.367-16 2h-3a144.5 144.5 0 0 0-21.5 2 36.4 36.4 0 0 1-5.5-1q-4.982-1.737-6.5-7a36.1 36.1 0 0 1-1.5-13 262 262 0 0 0-4-32 333 333 0 0 0-1-19q.265-9.951 1.5 0l.5-6.5a908 908 0 0 1-3.5-34.5q-1.517-1.255-3.5-1a54 54 0 0 1-4-9q.168-9.339-2-18v-3q.086-7.773 2 0l1-2.5a41 41 0 0 1-1-10.5q3.352-.442 6 1-1 0-1 1-1.684 3.282 0 7 4.388 3.69 9-.5 3.951-3.44 0-6.5-.512-1.258-2-1 0-1-1-1v-1h8a61 61 0 0 1 11 .5q4.21 7.93 10 14.5 9.171 1.125 18 1a34.5 34.5 0 0 0-3 11q-1.426 2.128-1 5 2.398.401 4-1a423 423 0 0 0 25-2v-3a44.8 44.8 0 0 0 3-11 19.6 19.6 0 0 0 2-3.5q9.996-.915 20-1.5a140 140 0 0 0-3 13q-1.356 1.064-1 3 10.344.309 20-2 4.422.416 8.5-1a148 148 0 0 0 4.5-16q8.65-1.187 17.5-2 2.077.021 3.5 1-1.463 4.217-2 9-1.209 2.246-2 5 6.79 1.593 13-1l16-1a82 82 0 0 1 2-10q2.24-3.603 3-8 1.083-1.577 3-2" style="opacity:1"/><path fill="#878787" d="M10.5 55.5h10q10.013-.25 20 .5-5.288.269-10 1.5h-8a85 85 0 0 1-13-.5q.835-.575 1-1.5" style="opacity:1"/><path fill="#353535" d="M178.5 57.5q2.549-.24 5 .5-4.297.275-8 1.5h-1a564 564 0 0 0-22.5 2q-2.56-.013-4.5-1a1711 1711 0 0 1 31-3" style="opacity:1"/><path fill="#d7d7d7" d="M199.5 57.5q-.76 4.397-3 8l1-6a401 401 0 0 0-19 1.5q-3.34.181-5.5 2.5-1.006-1.128-2.5-1 1.422-2.217 4-3h1a342 342 0 0 0 24-2" style="opacity:1"/><path fill="#414141" d="M10.5 52.5q5.193 1.473 11 1 9.768 1 20 2a124 124 0 0 1 7.5 11l3 3q.598-.342.5-1 1 0 1 1 4.207 1.23 9 1.5-5.388 1.183-10.5-.5a2.43 2.43 0 0 0-.5 2q-5.79-6.57-10-14.5a61 61 0 0 0-11-.5q4.712-1.231 10-1.5-9.987-.75-20-.5a810 810 0 0 0-11-2q.186-.91 1-1" style="opacity:1"/><path fill="#f9f9f9" d="M196.5 65.5a82 82 0 0 0-2 10l-16 1a49.4 49.4 0 0 1-11-1v-3q.537-4.783 2-9 1 0 1-1 1.494-.128 2.5 1 2.16-2.319 5.5-2.5a401 401 0 0 1 19-1.5z" style="opacity:1"/><path fill="#eaeaea" d="M22.5 58.5q1 0 1 1-1.065 5.79-7 5v-4q0-1 1-1 2.313-1.2 5-1" style="opacity:1"/><path fill="#363636" d="M10.5 55.5q-.165.925-1 1.5 6.48.749 13 .5v1q-2.687-.2-5 1-2.648-1.442-6-1a41 41 0 0 0 1 10.5l-1 2.5q-1.914-7.773-2 0-1.442-2.648-1-6 1.745-3.76 0-8 .37-1.82 2-2" style="opacity:1"/><path fill="#a9a9a9" d="M23.5 59.5q1.488-.258 2 1-1.782 6.763-9 7-1.684-3.718 0-7v4q5.935.79 7-5" style="opacity:1"/><path fill="#424242" d="M135.5 61.5h3q3.535-.245 7 .5-2.822.297-5 1.5h-5a18.4 18.4 0 0 1-6-.5q3.312-.285 6-1.5" style="opacity:1"/><path fill="#777" d="M174.5 59.5q-2.578.783-4 3 0 1-1 1-1.423-.979-3.5-1-8.85.813-17.5 2-3.672-1.46-8-1 2.178-1.203 5-1.5a25 25 0 0 0-7-.5q4.18-1.465 9-1 1.94.987 4.5 1a564 564 0 0 1 22.5-2" style="opacity:1"/><path fill="#838383" d="M135.5 61.5q-2.688 1.215-6 1.5 2.96.743 6 .5-7.125 2.296-15 2 3.196-1.221 7-1.5a32.4 32.4 0 0 0-8-.5q7.674-1.96 16-2" style="opacity:1"/><path fill="#3d3d3d" d="M119.5 63.5a32.4 32.4 0 0 1 8 .5q-3.804.279-7 1.5h-5q-3.839.453-7-1a72 72 0 0 1 11-1" style="opacity:1"/><path fill="#f5f5f5" d="M135.5 63.5h5q4.328-.46 8 1a148 148 0 0 1-4.5 16q-4.078 1.416-8.5 1a84 84 0 0 0-16 1q-2.295-.21-3-2a140 140 0 0 1 3-13l-4-2h5q7.875.296 15-2" style="opacity:1"/><path fill="#3f3f3f" d="M25.5 60.5q3.951 3.06 0 6.5-4.612 4.19-9 .5 7.218-.237 9-7" style="opacity:1"/><path fill="#383838" d="M106.5 65.5q-7.882 3.036-16 1a118.5 118.5 0 0 1 16-1" style="opacity:1"/><path fill="#787878" d="M108.5 64.5q3.161 1.453 7 1l4 2q-10.004.585-20 1.5a19.6 19.6 0 0 1-2 3.5v-4a459 459 0 0 1-23 1.5 22.3 22.3 0 0 0-5 3.5q-8.829.125-18-1a2.43 2.43 0 0 1 .5-2q5.112 1.683 10.5.5-4.793-.27-9-1.5a4153 4153 0 0 1 37-3q8.118 2.036 16-1 .513-1.257 2-1" style="opacity:1"/><path fill="#f5f5f5" d="M97.5 72.5a44.8 44.8 0 0 1-3 11q-2.46 3.21-6 1a170 170 0 0 1-22 3v-3a34.5 34.5 0 0 1 3-11 22.3 22.3 0 0 1 5-3.5 459 459 0 0 0 23-1.5z" style="opacity:1"/><path fill="#797979" d="M203.5 63.5q1.96 7.675 2 16-2.516-7.603-2-16" style="opacity:1"/><path fill="#c2c2c2" d="M167.5 72.5v3a49.4 49.4 0 0 0 11 1q-6.21 2.593-13 1 .791-2.754 2-5" style="opacity:1"/><path fill="#e6e6e6" d="m46.5 76.5 2 3q-3.582 3.864-9 3v-3q2.295-3.78 7-3" style="opacity:1"/><path fill="#dedede" d="M26.5 79.5q-.07 8.043-8 6v-4q3.158-4.29 8-2" style="opacity:1"/><path fill="#878787" d="M9.5 74.5q2.169 8.661 2 18-1.965-8.682-2-18" style="opacity:1"/><path fill="#9d9d9d" d="M39.5 79.5v3q5.418.864 9-3a5.6 5.6 0 0 1-1 3 76 76 0 0 0-7 3q-2.941-2.73-1-6" style="opacity:1"/><path fill="#969696" d="M116.5 80.5q.705 1.79 3 2a84 84 0 0 1 16-1q-9.656 2.309-20 2-.356-1.936 1-3" style="opacity:1"/><path fill="#5c5c5c" d="M46.5 76.5q1.495-.128 2.5 1 .745 3.465.5 7a31.6 31.6 0 0 0-7.5 2q-1.148-.105-1.5-1a76 76 0 0 1 7-3 5.6 5.6 0 0 0 1-3z" style="opacity:1"/><path fill="#777" d="M26.5 79.5q2.911 2.265 1.5 6-4.444 2.616-9.5 1.5-1.96-2.916 0-5.5v4q7.93 2.043 8-6" style="opacity:1"/><path fill="#f8f9f8" d="M197.5 92.5q-.516 8.397 2 16a311 311 0 0 1 3 32v11h-11a16.9 16.9 0 0 1-1 8 26.6 26.6 0 0 1-2-3.5q-.243-9.4 1-19a148.7 148.7 0 0 1-3.5-30.5 11.5 11.5 0 0 0-3.5-4.5l1-1-3-1q1.254-1.865-1-3.5-2.898-1.53-6-.5 1.701 1.524-1 2 2.412.987 3.5-1.5a27.2 27.2 0 0 1 3.5 6 18.5 18.5 0 0 0-6 .5q-1.984 1.224-2 3.5-3.13 1.627-4 5a180 180 0 0 1-12.5 9 49.2 49.2 0 0 0 0 14q2.235 1.842 4.5 0v3a4.93 4.93 0 0 0-3 .5q2 1 0 2l2 .5a18.5 18.5 0 0 0 4.5-4l1.5.5q1.384 3.062 1 6.5h3q-.249 8.016.5 16 1.334-2.083 1.5.5a41 41 0 0 0-2.5 13.5q-1.065 2.21-3.5 2 1.348-15.912-.5-32a130 130 0 0 1-1.5 16 55.6 55.6 0 0 0-4 16q-2.022-31.925-4 0h-5a41 41 0 0 0-.5-9q-.286 3.312-1.5 6 .426-2.872-1-5v-4a75.5 75.5 0 0 0-16 1q-3.353.442-6-1 6.605-5.209 7-14 4.312-2.623 4-8a65.4 65.4 0 0 0 3-14q.119-4.737-3-8-1.565-3.834-5-6.5-14.805-7.464-29 1-2.946 2.176-4 5.5-6.456 5.95 2 9.5 3.226 2.117 7 2.5 2.004-2.71 5-4.5 5.143-2.097 10-1.5 1.621 9.413-3 18-2.761 3.523-4 8-2.625 1.739-3 5-2.262 2.522-3 6h-1q-2.251-3.358-4 0-1.816-1.16 0-2.5-2.639-1.197-5 .5-5.327 6.952-1 14.5a8.4 8.4 0 0 1-4 .5 68.3 68.3 0 0 0-2-20h-4v4q-1.237-3.465-4-6-1.343-3.853-5-6 5.128-11.06 1-22-.408-4.848-5-6-2.212-2.864-6-3.5-10.327-1.647-20 2-3.176 1.574-5 4.5-2.57 1.703-2 5-1.314-.197-2 1a18.9 18.9 0 0 1-3.5 8l-1-1-1 4a182.6 182.6 0 0 0-3.5-27.5 39 39 0 0 1 1-6.5q3.063-3.495 8-3.5a7415 7415 0 0 0 149-16q-3.194-1.654-7-1.5a1475 1475 0 0 1-38 4.5q-8.274 1.225-16-.5a2301 2301 0 0 0 44-5.5 100.3 100.3 0 0 1 20 0q5.484 3.225 6 9.5" style="opacity:1"/><path fill="#bdbdbd" d="M94.5 83.5v3a423 423 0 0 1-25 2q-1.936.356-3-1a170 170 0 0 0 22-3q3.54 2.21 6-1" style="opacity:1"/><path fill="#616161" d="M66.5 84.5v3q1.064 1.356 3 1-1.602 1.401-4 1-.426-2.872 1-5" style="opacity:1"/><path fill="#ebebeb" d="M65.5 95.5q16.137-3.268 33-4a71 71 0 0 0 13.5-1l3.5 1a4357 4357 0 0 1-41.5 5 81 81 0 0 1-8.5-1" style="opacity:1"/><path fill="#ccc" d="M31.5 105.5q-1.295 1.445-2 0 .798-3.362 4-4.5a781 781 0 0 0 26-4 41 41 0 0 0-9-.5q7.207-1.48 15-1 4.203.724 8.5 1a4357 4357 0 0 0 41.5-5l-3.5-1a71 71 0 0 1-13.5 1q14.183-2.481 29-3 7.726 1.725 16 .5a1475 1475 0 0 0 38-4.5q3.806-.154 7 1.5a7415 7415 0 0 1-149 16q-4.937.005-8 3.5" style="opacity:1"/><path fill="#ababab" d="M50.5 96.5q-8.19 1.856-17 2 8.124-2.426 17-2" style="opacity:1"/><path fill="#a3a3a3" d="M197.5 92.5q1.96 7.674 2 16-2.516-7.603-2-16" style="opacity:1"/><path fill="#2d2d2d" d="M15.5 101.5q1.983-.255 3.5 1a908 908 0 0 0 3.5 34.5l-.5 6.5q-1.235-9.951-1.5 0-2.48-20.815-5-42" style="opacity:1"/><path fill="#545454" d="M210.5 130.5q2.168 8.661 2 18-2.168-8.661-2-18" style="opacity:1"/><path fill="#f5f5f5" d="M202.5 140.5q3.07 17.168 4 35 .705 10.27-9 13-2.398-.401-4 1a2654 2654 0 0 0-50 5 1212 1212 0 0 1-46 5q-9.339-.168-18 2a1139 1139 0 0 0-30 3 32.5 32.5 0 0 1-8-.5q-2.996-1.79-5-4.5-1.1-1.812-1-4-.195-1.314 1-2a6.8 6.8 0 0 1 1.5 3q1.615-2.424 1.5-5.5a16735 16735 0 0 0-6-47.5 57.5 57.5 0 0 0 0 20l-.5 4q-.297-2.822-1.5-5a593 593 0 0 0-6-52.5q.228-8.463 8-11.5 8.81-.144 17-2a41 41 0 0 1 9 .5 781 781 0 0 1-26 4q-3.202 1.138-4 4.5.705 1.445 2 0a39 39 0 0 0-1 6.5 182.6 182.6 0 0 1 3.5 27.5l1-4 1 1a18.9 18.9 0 0 0 3.5-8q.686-1.197 2-1l3 2a6.54 6.54 0 0 0 3 3q-.045 1.496 1.5 2 3.169-1.662 5.5-4.5 12.159-4.065 12 8.5-4.357 4.92-11 4 .186 6.823 2 13 5.97 2.411 12 5.5 1.384 3.062 1 6.5-.015 2.276-2 3.5a19.7 19.7 0 0 1-6.5 1.5q-6.303-.942-11.5-3.5-2.507 2.764-3 6.5-4.215 4.461 1 8 3.087 4.545 9 4.5 8.07.894 16-1 2.815-3.159 7-4a39.5 39.5 0 0 1 5-5.5 17.8 17.8 0 0 0 2-8v-14h4a68.3 68.3 0 0 1 2 20 8.4 8.4 0 0 0 4-.5q-4.327-7.548 1-14.5 2.361-1.697 5-.5-1.816 1.34 0 2.5 1.749-3.358 4 0v2q-4.137 4.767-6 11-4 3 0 6 .705 1.79 3 2a644 644 0 0 1 43-4v-7q1.214-2.688 1.5-6 .747 4.473.5 9h5q1.978-31.925 4 0a55.6 55.6 0 0 1 4-16 130 130 0 0 0 1.5-16q1.848 16.088.5 32 2.435.21 3.5-2 .121-7.005 2.5-13.5-.166-2.583-1.5-.5a129 129 0 0 1-.5-16h-3q.384-3.438-1-6.5l-1.5-.5a18.5 18.5 0 0 1-4.5 4l-2-.5q2-1 0-2a4.93 4.93 0 0 1 3-.5v-3q0-1 1-1a18.7 18.7 0 0 0 7-3 120 120 0 0 0 3 13q.328 12.52 1.5 25 .315 2.337 1.5 4-.329 1.763 1 3 6.123-2.77 13-2v-3a466 466 0 0 0-5-43 151 151 0 0 0-1.5-22q-.417-1.373-1.5-2v-1a27.2 27.2 0 0 0-3.5-6q-1.088 2.487-3.5 1.5 2.701-.476 1-2 3.102-1.03 6 .5 2.254 1.635 1 3.5l3 1-1 1a11.5 11.5 0 0 1 3.5 4.5 148.7 148.7 0 0 0 3.5 30.5 123 123 0 0 0-1 19 26.6 26.6 0 0 0 2 3.5 16.9 16.9 0 0 0 1-8h11z" style="opacity:1"/><path fill="#3b89e9" d="M144.5 175.5h-1q-11.011.25-22-.5-2.29-2.448-5-.5a3.65 3.65 0 0 0 1 1.5 200 200 0 0 1-14 1.5v-4q2.818-.16 1 1.5a12.9 12.9 0 0 0 5 .5 18.5 18.5 0 0 1 .5-6l1 2 1-7q4.132-3.399 4-9l4.5 5q-4.04 10.43 7 9v4h16a8.4 8.4 0 0 1 .5-4q.743 2.96.5 6" style="opacity:1"/><path fill="#192039" d="M111.5 156.5q.059 3.883-3 6 .738-3.478 3-6" style="opacity:1"/><path fill="#c3bdb9" d="M57.5 155.5h9a31.4 31.4 0 0 0 4.5 5q1.195 3.808-.5 7 .384-3.438-1-6.5a147 147 0 0 0-12-5.5" style="opacity:1"/><path fill="#b0b9c1" d="M130.5 149.5h1q-.395 8.791-7 14l1-4q3.77-4.297 5-10" style="opacity:1"/><path fill="#152b47" d="M130.5 149.5q-1.23 5.703-5 10a20.7 20.7 0 0 1 1-5z" style="opacity:1"/><path fill="#4a251a" d="M66.5 138.5q-.35 2.343-2 4a5.73 5.73 0 0 1-3 1h-4v11q4.82-.465 9 1h-9q-1.814-6.177-2-13 6.643.92 11-4" style="opacity:1"/><path fill="#488ddd" d="M126.5 154.5a20.7 20.7 0 0 0-1 5q-2.709 2.383-4 6a71.5 71.5 0 0 0 22.5-1q2.55 5.593.5 11a18.5 18.5 0 0 0-.5-6 8.4 8.4 0 0 0-.5 4h-16v-4q-11.04 1.43-7-9l-4.5-5q.132 5.601-4 9l-1 7-1-2a18.5 18.5 0 0 0-.5 6 12.9 12.9 0 0 1-5-.5q1.818-1.66-1-1.5 3.151-3.94 4-9v-2h1q3.059-2.117 3-6 .375-3.261 3-5 3.56-3.119 4-8 6.93-8.174 4.5-19-5.203-4.325-11.5-2 2.585-1.95 6.5-2 3.636.045 7 1 1.435 9.972-1.5 19.5a13.5 13.5 0 0 0 2 4 18.2 18.2 0 0 0-2 3.5 621 621 0 0 1 3 6" style="opacity:1"/><path fill="#a5afba" d="M134.5 141.5h1q.312 5.377-4 8z" style="opacity:1"/><path fill="#0c2741" d="M118.5 143.5q-.44 4.881-4 8 1.239-4.477 4-8" style="opacity:1"/><path fill="#17a305" d="M177.5 106.5h2q.624 10.828 3 21a112 112 0 0 0 1 19 205 205 0 0 0 1 23 105 105 0 0 0-9-1q-.085-5.293-3-9v-5a118.5 118.5 0 0 0-2-25 7.3 7.3 0 0 1 2-3q-1.706-4.454-6-6.5.747-1.737 2.5-2.5a41 41 0 0 1 5.5 2.5q-2.21 1.065-2 3.5h3a25 25 0 0 0-.5-7q-.747-3.067-3.5-4 1.683-4.407 6-6" style="opacity:1"/><path fill="#fbb48c" d="M61.5 143.5a5.73 5.73 0 0 0 3-1q5.53-2.535 2 1.5-3.38 1.726-7 1 1.374-.417 2-1.5" style="opacity:1"/><path fill="#194a16" d="M182.5 127.5a466 466 0 0 1 5 43q-6.55 2.807-14 2-1.185-1.663-1.5-4a372 372 0 0 1-1.5-25l2 11v5a49.4 49.4 0 0 0 1 11h12q-.174-12.29-2-24a112 112 0 0 1-1-19" style="opacity:1"/><path fill="#279218" d="M183.5 146.5q1.826 11.71 2 24h-12a49.4 49.4 0 0 1-1-11q2.915 3.707 3 9 4.527.306 9 1a205 205 0 0 1-1-23" style="opacity:1"/><path fill="#142844" d="M135.5 119.5q3.119 3.263 3 8a65.4 65.4 0 0 1-3 14h-1q2.222-6.772 2-14a41.5 41.5 0 0 0-1-8" style="opacity:1"/><path fill="#644035" d="M79.5 125.5q4.128 10.94-1 22 3.657 2.147 5 6a60 60 0 0 1-8-7.5 28 28 0 0 1 3.5-4.5q.75-7.483.5-15z" style="opacity:1"/><path fill="#db5410" d="M70.5 118.5q1.812 1.1 4 1a26.2 26.2 0 0 0 5 7q.25 7.517-.5 15a28 28 0 0 0-3.5 4.5 60 60 0 0 0 8 7.5q2.946 8.736 1.5 18-1.403 4.643-5.5 7 3.467-8.184 1-17h-6v4h5v3a9.1 9.1 0 0 0-5 1q-5.55 9.211-15 4 16.107 1.648 12.5-14-2.176-2.946-5.5-4-4.18-1.465-9-1v-11h4q-.626 1.083-2 1.5 3.62.726 7-1 3.53-4.035-2-1.5 1.65-1.657 2-4 2.448-12.558-11-11-4.11.31-7 3a342 342 0 0 0-4-1 5.73 5.73 0 0 0-1-3q4.483-4.683 11-6.5 8.274-.26 16-1.5" style="opacity:1"/><path fill="#a64820" d="M55.5 127.5q-3.236 3.74-8 5a6.54 6.54 0 0 1-3-3q1.976.481 4 1 2.89-2.69 7-3" style="opacity:1"/><path fill="#4d251a" d="M55.5 127.5q13.448-1.558 11 11 .159-12.565-12-8.5-2.331 2.838-5.5 4.5-1.545-.504-1.5-2 4.764-1.26 8-5" style="opacity:1"/><path fill="#192f52" d="M97.5 119.5a17.6 17.6 0 0 0-.5 6 22.6 22.6 0 0 0 7 4 22 22 0 0 1 7.5-6q-3.727 3.228-5 8-3.774-.383-7-2.5-8.456-3.55-2-9.5" style="opacity:1"/><path fill="#eb4d0c" d="M71.5 121.5q4.195.7 4 5h-3a187 187 0 0 0-3 11q-1.791-4.23 0-8.5-4.335-2.838 1-2.5.255-1.983-1-3.5 1.373-.417 2-1.5" style="opacity:1"/><path fill="#568fd4" d="M122.5 112.5a12.9 12.9 0 0 1 5 .5 76 76 0 0 1 8 6.5 41.5 41.5 0 0 1 1 8q-2.545-2.708-2.5-7-9.992-7.382-22.5-6z" style="opacity:1"/><path fill="#3c87e3" d="M111.5 114.5q12.508-1.382 22.5 6-.045 4.292 2.5 7 .222 7.228-2 14l-3 8h-1l-4 5a621 621 0 0 0-3-6 18.2 18.2 0 0 1 2-3.5 13.5 13.5 0 0 1-2-4q2.935-9.528 1.5-19.5a26.7 26.7 0 0 0-7-1q-3.915.05-6.5 2v1a22 22 0 0 0-7.5 6 22.6 22.6 0 0 1-7-4 17.6 17.6 0 0 1 .5-6 17.9 17.9 0 0 1 6-4 31.5 31.5 0 0 1-4.5 5q-1.032 1.248.5 2 2.247-3.494 6-5.5a17.7 17.7 0 0 1 6 .5z" style="opacity:1"/><path fill="#b5b8ba" d="M111.5 123.5a32.5 32.5 0 0 1 8 .5q1.373.417 2 1.5-4.857-.597-10 1.5-2.996 1.79-5 4.5 1.273-4.772 5-8" style="opacity:1"/><path fill="#4f1a0e" d="M43.5 122.5q-1.281 2.302 0 4 .915 1.337 1 3l-3-2q-.57-3.297 2-5" style="opacity:1"/><path fill="#152f53" d="M118.5 143.5q4.621-8.587 3-18-.627-1.083-2-1.5a32.5 32.5 0 0 0-8-.5v-1q6.297-2.325 11.5 2 2.43 10.826-4.5 19" style="opacity:1"/><path fill="#76321b" d="M74.5 119.5q4.592 1.152 5 6v1a26.2 26.2 0 0 1-5-7" style="opacity:1"/><path fill="#7fd574" d="M177.5 106.5q-4.317 1.593-6 6a47.7 47.7 0 0 1-13 10q-.91-.186-1-1 4.215-3.954 9-7.5 1.129-1.006 1-2.5h2a70 70 0 0 0 6-6.5q1.974-.792 2 1.5" style="opacity:1"/><path fill="#20461d" d="M167.5 111.5q.129 1.494-1 2.5a101 101 0 0 0-9 7.5q-.925.166-1.5 1a16.24 16.24 0 0 0 0 8q.582 1.392 2 2a86 86 0 0 0 9.5-6 3.65 3.65 0 0 1 1.5 1q1.245 7.962 1.5 16a120 120 0 0 1-3-13q.197-1.314-1-2a325 325 0 0 0-6 5q-1 0-1 1-2.265 1.842-4.5 0a49.2 49.2 0 0 1 0-14 180 180 0 0 0 12.5-9" style="opacity:1"/><path fill="#a6b1a8" d="M167.5 130.5a18.7 18.7 0 0 1-7 3 325 325 0 0 1 6-5q1.197.686 1 2" style="opacity:1"/><path fill="#e9a17a" d="M70.5 118.5q-7.726 1.24-16 1.5-6.517 1.817-11 6.5-1.281-1.698 0-4a98 98 0 0 1 12-5.5q7.913-1.351 15 1.5" style="opacity:1"/><path fill="#4e2419" d="M74.5 119.5q-2.188.1-4-1-7.087-2.851-15-1.5a98 98 0 0 0-12 5.5q1.824-2.926 5-4.5 9.673-3.647 20-2 3.788.636 6 3.5" style="opacity:1"/><path fill="#90c1f0" d="m122.5 112.5-11 2v3a17.7 17.7 0 0 0-6-.5q-3.753 2.006-6 5.5-1.532-.752-.5-2a31.5 31.5 0 0 0 4.5-5q2.4-1.716 5-3.5 7.278-1.222 14 .5" style="opacity:1"/><path fill="#209d11" d="M171.5 112.5q2.753.933 3.5 4 .745 3.465.5 7h-3q-.21-2.435 2-3.5a41 41 0 0 0-5.5-2.5q-1.753.763-2.5 2.5 4.294 2.046 6 6.5a7.3 7.3 0 0 0-2 3 118.5 118.5 0 0 1 2 25l-2-11q-.255-8.038-1.5-16a3.65 3.65 0 0 0-1.5-1 86 86 0 0 1-9.5 6q-1.418-.608-2-2a16.24 16.24 0 0 1 0-8q.575-.834 1.5-1 .09.814 1 1a47.7 47.7 0 0 0 13-10" style="opacity:1"/><path fill="#303e55" d="M135.5 119.5a76 76 0 0 0-8-6.5 12.9 12.9 0 0 0-5-.5q-6.722-1.722-14-.5a315 315 0 0 0-5 3.5 17.9 17.9 0 0 0-6 4q1.054-3.324 4-5.5 14.195-8.464 29-1 3.435 2.666 5 6.5" style="opacity:1"/><path fill="#1e401b" d="M179.5 103.5q1.083.627 1.5 2a151 151 0 0 1 1.5 22q-2.376-10.172-3-21z" style="opacity:1"/><path fill="#1c431b" d="m171.5 106.5-2 5h-2q.87-3.373 4-5" style="opacity:1"/><path fill="#356630" d="M179.5 102.5v4h-2q-.026-2.292-2-1.5a70 70 0 0 1-6 6.5l2-5q.016-2.276 2-3.5a18.5 18.5 0 0 1 6-.5" style="opacity:1"/><path fill="#b5b5b5" d="M21.5 162.5a262 262 0 0 1 4 32q-3.452-15.615-4-32" style="opacity:1"/><path fill="#21365c" d="M107.5 164.5q-.849 5.06-4 9v1l-2 1q1.863-6.233 6-11" style="opacity:1"/><path fill="#552b19" d="M66.5 155.5q3.324 1.054 5.5 4 3.607 15.648-12.5 14a14.83 14.83 0 0 1-7.5-3 21.8 21.8 0 0 0-4.5 5q.493-3.736 3-6.5 5.197 2.558 11.5 3.5a19.7 19.7 0 0 0 6.5-1.5q1.985-1.224 2-3.5 1.695-3.192.5-7a31.4 31.4 0 0 1-4.5-5" style="opacity:1"/><path fill="#4083ce" d="m143.5 175.5-6 2a329 329 0 0 0-36 2v-4l2-1v3q7.016-.502 14-1.5a3.65 3.65 0 0 1-1-1.5q2.71-1.948 5 .5 10.989.75 22 .5" style="opacity:1"/><path fill="#a8c1a5" d="M187.5 170.5v3q-6.877-.77-13 2-1.329-1.237-1-3 7.45.807 14-2" style="opacity:1"/><path fill="#e4530b" d="M79.5 178.5q-3.615 2.437-8 4-5.775.146-11.5 1a220 220 0 0 1-11.5-2q-1.442-2.647-1-6a21.8 21.8 0 0 1 4.5-5 14.83 14.83 0 0 0 7.5 3q9.45 5.211 15-4a9.1 9.1 0 0 1 5-1v-3h-5v-4h6q2.467 8.816-1 17" style="opacity:1"/><path fill="#293349" d="m125.5 159.5-1 4q-.814.09-1 1 3.71 1.945 7 0a75.5 75.5 0 0 1 16-1v14h-9l6-2h1q2.05-5.407-.5-11a71.5 71.5 0 0 1-22.5 1q1.291-3.617 4-6" style="opacity:1"/><path fill="#7e848e" d="M124.5 163.5q2.647 1.442 6 1-3.29 1.945-7 0 .186-.91 1-1" style="opacity:1"/><path fill="#a09e9e" d="M146.5 167.5q1.426 2.128 1 5v7a644 644 0 0 0-43 4q-2.295-.21-3-2 18.357-.712 36-4h9z" style="opacity:1"/><path fill="#dbdbdb" d="M35.5 195.5a319 319 0 0 1-4-33q1.203 2.178 1.5 5l.5-4a57.5 57.5 0 0 1 0-20q3.033 23.738 6 47.5.115 3.076-1.5 5.5a6.8 6.8 0 0 0-1.5-3q-1.195.686-1 2" style="opacity:1"/><path fill="#223759" d="M101.5 175.5v4a329 329 0 0 1 36-2q-17.643 3.288-36 4-4-3 0-6" style="opacity:1"/><path fill="#454545" d="M206.5 175.5q2.815 4.855 1 10a2.43 2.43 0 0 0-.5-2q-3.41 6.077-9.5 5 9.705-2.73 9-13" style="opacity:1"/><path fill="#572815" d="M83.5 153.5q2.763 2.535 4 6v10q-2.915 8.683-11 13.5-14.04 6.365-28 .5-5.215-3.539-1-8-.442 3.353 1 6 5.539 3.65 12.5 3 5.708.294 10.5-2 4.385-1.563 8-4 4.097-2.357 5.5-7 1.446-9.264-1.5-18" style="opacity:1"/><path fill="#c9551b" d="M48.5 181.5q5.708 1.15 11.5 2a94 94 0 0 1 11.5-1q-4.792 2.294-10.5 2-6.961.65-12.5-3" style="opacity:1"/><path fill="#aab1ad" d="M87.5 169.5a17.8 17.8 0 0 1-2 8 39.5 39.5 0 0 0-5 5.5q-4.185.841-7 4a46.4 46.4 0 0 1-16 1q-5.913.045-9-4.5 13.96 5.865 28-.5 8.085-4.817 11-13.5" style="opacity:1"/><path fill="#747474" d="M207.5 185.5q-7.93 8.814-20 7a8.4 8.4 0 0 1-4-.5 116 116 0 0 0 13-2 4.93 4.93 0 0 0-3-.5q1.602-1.401 4-1 6.09 1.077 9.5-5 .696.891.5 2" style="opacity:1"/><path fill="#404040" d="M193.5 189.5a4.93 4.93 0 0 1 3 .5 116 116 0 0 1-13 2 8.4 8.4 0 0 0 4 .5q-20.129 3.726-41 3.5l5-1a32.5 32.5 0 0 0-8-.5 2654 2654 0 0 1 50-5" style="opacity:1"/><path fill="#4f4f4f" d="M97.5 199.5q-8.661 2.168-18 2 8.661-2.168 18-2" style="opacity:1"/><path fill="#4a4a4a" d="M36.5 199.5q2.004 2.71 5 4.5 3.97.746 8 .5 1.144 1.152 3 1.5-6.864 2.826-14 0a7.25 7.25 0 0 1-2-2.5q1.294-1.84 0-4" style="opacity:1"/><path fill="#9e9e9e" d="M140.5 205.5q-8.166 2.076-17 2 8.144-2.268 17-2" style="opacity:1"/><path fill="#aeaeae" d="M122.5 207.5q-9.157 2.244-19 2 9.195-1.87 19-2" style="opacity:1"/><path fill="#909090" d="M79.5 211.5q-7.675 1.96-16 2 7.624-2.367 16-2" style="opacity:1"/><path fill="#a3a3a3" d="M60.5 213.5q-2.128 1.426-5 1a8.4 8.4 0 0 0-4 .5q1.374.417 2 1.5h-19l-1-2q2.682.706 5.5 1a144.5 144.5 0 0 1 21.5-2" style="opacity:1"/><path fill="#d8d8d8" d="m55.5 214.5 78 2h-80q-.626-1.083-2-1.5a8.4 8.4 0 0 1 4-.5" style="opacity:1"/><path fill="#e3e3e3" d="M26.5 216.5a44 44 0 0 1-3 2 9.86 9.86 0 0 0 6 1h2a1304 1304 0 0 0 100 0q14.035.497 28-1a813 813 0 0 1-11-2h16q.21 2.435-2 3.5a1876 1876 0 0 1-142 0q-2-1.5 0-3a18.5 18.5 0 0 1 6-.5" style="opacity:1"/><path fill="#adadad" d="M123.5 216.5h25q5.281 1 11 2a197 197 0 0 1-28 1q5.718-1.236 12-1.5a197 197 0 0 1-20-1.5" style="opacity:1"/><path fill="#757575" d="M31.5 217.5v-1h92a197 197 0 0 0 20 1.5q-6.282.264-12 1.5a1304 1304 0 0 1-100 0h26q31.02.119 62-1.5a512 512 0 0 0-32-.5z" style="opacity:1"/><path fill="#3c3c3c" d="M87.5 217.5q16.008-.25 32 .5a1107 1107 0 0 1-62 1.5z" style="opacity:1"/><path fill="#0f0f0f" d="M31.5 217.5h56l-30 2h-28q-1.74-2.554 2-2" style="opacity:1"/><path fill="#848484" d="M26.5 216.5h5v1q-3.74-.554-2 2a9.86 9.86 0 0 1-6-1 44 44 0 0 0 3-2" style="opacity:1"/></svg>