<svg xmlns="http://www.w3.org/2000/svg" width="1024" height="1024"><linearGradient id="a" x1="93.215%" x2="22.664%" y1="62.465%" y2="38.215%"><stop offset="0" stop-color="#fff"/><stop offset="1" stop-color="#fff" stop-opacity="0"/></linearGradient><g fill="none" fill-rule="evenodd"><path fill="#192e45" d="M512 960c247.424 0 448-200.576 448-448S759.424 64 512 64 64 264.576 64 512s200.576 448 448 448"/><path fill="#294d73" d="M140 512c0 205.449 166.55 372 372.001 372C717.451 884 884 717.451 884 512S717.45 140 512.001 140C306.55 140 140 306.549 140 512z"/><path fill="#d0933a" d="m187.069 483.305 27.6-38.477c.076.19-1.742 55.396-1.742 55.396l7.767-41.715c23.042 46.499 79.285 110.841 130.848 145.082 5.566 3.701 9.932 7.63 13.296 11.757 6.495 2.502 13.22 3.973 19.906 5.086 3.519.616 7.117.89 10.631 1.2 3.517.227 7.072.347 10.59.268 3.514-.082 6.997-.235 10.475-.578 3.517-.307 6.958-.85 10.393-1.43 3.444-.616 6.845-1.271 10.208-2.154 3.358-.89 6.727-1.816 10.01-2.972 3.286-1 6.571-2.236 9.775-3.51a160.298 160.298 0 0 0 9.554-4.2c3.131-1.582 6.263-3.047 9.315-4.739 3.134-1.542 6.107-3.353 9.2-5.054 3.132-1.581 5.99-3.62 9.085-5.321 3.052-1.735 5.95-3.774 9.043-5.508 2.976-1.929 5.948-3.855 9.046-5.707a169.177 169.177 0 0 1 9.239-5.667l2.86-1.696 1.505 1.003 20.8 13.722-20.995-5.434a132.931 132.931 0 0 1-6.222 6.897c-2.631 2.663-5.416 5.206-8.194 7.677a220.442 220.442 0 0 1-8.859 7.017c-3.083 2.154-6.179 4.357-9.426 6.283-6.417 4.009-13.221 7.437-20.295 10.294a175.466 175.466 0 0 1-10.708 3.93c-3.632 1.199-7.266 2.317-11.016 3.2-3.67.928-7.466 1.58-11.209 2.2-3.788.578-7.576.964-11.364 1.307-7.615.39-15.27.194-22.768-.77-3.788-.502-7.5-1.23-11.172-2.082-3.635-.883-7.266-1.93-10.785-3.24-6.184-2.194-12.178-5.046-17.59-8.707-.038.072-19.944 2.77-11.903 17.692 8.04 14.845 20.182 13.533 14.455 31.035-4.019 9.33-9.736 18.55-16.079 27.185-13.108 17.89-33.863 33.504-31.818 42.91 94.179 115.606 306.12 99.526 386.625-3.59-1.234-14.92-24.702-22.05-41.163-58.447 4.52 1.39 11.398 3.474 11.398 3.2 0-.266-19.636-31.846-20.295-35.007l12.565.851s-16.815-20.67-17.126-22.595l16.888-2.155s-21.26-24.404-21.607-26.333l21.607 3.428-23.653-28.447h11.133l-13.296-19.278a564.33 564.33 0 0 0-6.766-2.12c-2.898-.927-5.799-1.812-8.663-2.7-32.35-9.986-62.615-19.354-91.993-37.668-41.129-25.676-78.006-56.826-105.678-81.27l-55.59-26.91c-53.227-3.971-103.361-2.661-133.78 3.353l19.559-33.427-29.919 35.888c-2.126-.458-2.628-1.809-2.628-1.809l2.049-44.181-9.417 39.94c-2.98-1.31-6.263-2.077-9.702-2.077-13.263 0-24.002 10.713-24.002 23.898 0 12.033 8.969 22.018 20.64 23.637z"/><path fill="#ffcc86" d="M220.67 396.162c-2.954-1.283-6.196-2.031-9.597-2.031-13.263 0-24.002 10.713-24.002 23.898 0 11.604 8.341 21.303 19.403 23.433.175-.038.341-.082.493-.132 7.216-2.399 21.647-21.59 19.242-33.585a25.954 25.954 0 0 0-5.54-11.583z"/><path fill="#fdd321" d="M430.318 365.293c-4.29-11.76-3.244-27.104 2.937-41.291 8.584-19.705 24.899-32.924 40.547-32.924 3.173 0 6.184.579 9.046 1.653 9.046-8.091 19.293-14.722 30.734-19.275 63.505-25.173 156.39 19.82 180.279 82.085 11.485 30.03 7.968 63.227-1.852 93.15-8.161 24.747-37.418 60.407-26.595 87.319-4.45-1.046-95.167-29.416-120.566-45.223-40.468-25.292-77.001-56.25-104.33-80.384l-.812-.77-92.305-43.76c-1.078-.544-2.16-1.036-3.247-1.58 13.262-.003 63.668 5.853 86.164 1"/><path d="M436.68 364.75c2.59 6.554 6.92 11.295 12.48 13.687 2.558 1.156 5.456 1.734 8.508 1.734 13.955 0 29.147-12.573 36.95-30.577 4.793-10.91 6.38-22.435 4.482-32.424-1.852-10.02-6.953-17.268-14.34-20.468a21.701 21.701 0 0 0-8.543-1.74c-13.912 0-29.108 12.569-36.992 30.575-5.907 13.614-6.874 28.262-2.545 39.214z"/><path fill="#fff" fill-rule="nonzero" d="M457.668 376.575c-2.586 0-4.948-.475-7.016-1.413-4.736-2.037-8.385-6.084-10.617-11.73-3.975-10.062-3.042-23.693 2.504-36.463 7.322-16.72 21.173-28.406 33.68-28.406 2.478 0 4.873.487 7.122 1.45 6.25 2.708 10.59 9.036 12.212 17.811 1.77 9.316.262 20.08-4.24 30.328-7.255 16.742-21.087 28.423-33.645 28.423z"/><path fill="#1d2a3a" fill-rule="nonzero" d="M476.22 302.162c1.986 0 3.903.39 5.666 1.144 5.128 2.221 8.722 7.61 10.126 15.207 1.633 8.59.21 18.604-4.017 28.229-6.59 15.202-19.345 26.235-30.327 26.235-2.037 0-3.95-.377-5.525-1.092l-.062-.029-.063-.026c-3.769-1.62-6.754-4.98-8.625-9.716-3.634-9.195-2.715-21.8 2.449-33.693 6.662-15.215 19.436-26.26 30.378-26.26zm0-7.197c-13.912 0-29.108 12.568-36.993 30.575-5.91 13.611-6.876 28.26-2.55 39.213 2.591 6.554 6.92 11.297 12.481 13.686 2.557 1.156 5.455 1.734 8.508 1.734 13.955 0 29.146-12.573 36.949-30.577 4.793-10.91 6.38-22.435 4.483-32.424-1.852-10.02-6.954-17.268-14.34-20.468a21.66 21.66 0 0 0-8.538-1.74z"/><path fill="url(#a)" fill-rule="nonzero" d="M500.467 293.537s20.564 36.172-.465 67.358c-21.067 31.19-47.39 31.23-47.39 31.23L4.726 247.624s-17.897-77.376 15.964-141.49C54.507 41.974 128.533 9.4 128.533 9.4z" opacity=".3"/></g></svg>