<svg xmlns="http://www.w3.org/2000/svg" width="127" height="144"><script/><path fill="#eb743b" d="M125.164 36.342 66.36 2.594v138.85l58.805-33.748z"/><path fill="#771b85" d="M61.538 141.445V2.594L2.733 36.342v71.354z"/><path fill="#591463" d="m38.845 43.555-17.323 8.389-9.4 50.536 16.553-4.253 13.93 9.874 9.4-50.536zm-3.432 17.848a5.37 5.37 0 1 1 6.257-4.3 5.37 5.37 0 0 1-6.257 4.3"/><path fill="#591463" d="m61.577 40.595-.598-.135c-5.562-1.302-15.848-3.693-23.3 8.485a7.27 7.27 0 0 0-8.455 5.892 7.298 7.3 0 1 0 11.944-4.176c5.987-9.42 13.748-7.617 18.944-6.402l1.465.328zM39.78 56.765a3.442 3.442 0 0 1-6.748-1.263 3.43 3.43 0 0 1 3.374-2.816 3.538 3.539 0 0 1 .636.058 3.45 3.45 0 0 1 2.738 4.021"/><path fill="#b66bc2" d="m38.845 41.24-17.352 8.351-9.37 50.565 16.552-4.195 13.93 9.874 9.4-50.536zm-3.432 17.84a5.37 5.37 0 1 1 6.257-4.301 5.37 5.37 0 0 1-6.257 4.3"/><path fill="#fffedb" d="m61.577 38.27-.598-.134c-5.562-1.302-15.848-3.693-23.3 8.485a7.27 7.27 0 0 0-8.445 5.844 7.298 7.3 0 1 0 11.944-4.176c5.987-9.42 13.747-7.617 18.943-6.402l1.466.328zM39.78 54.433a3.442 3.442 0 0 1-6.748-1.264 3.43 3.43 0 0 1 3.374-2.815 3.528 3.53 0 0 1 .636.058 3.45 3.45 0 0 1 2.738 4.02"/><g opacity=".07"><path d="M83.046 91.053a2.034 2.035 0 1 1-.222 1.543 2.02 2.02 0 0 1 .222-1.543m12.147 21.561a2 2 0 0 1-1.321.492 2.034 2.035 0 0 1-1.33-3.587 2 2 0 0 1 1.32-.492 2.044 2.044 0 0 1 2.034 2.198 2.02 2.02 0 0 1-.703 1.389M75.044 46.573h.203zm10.961 9.305a2 2 0 0 1 .646-.636 2.034 2.035 0 1 1 1.07 3.77 2 2 0 0 1-1.08-.318 2.053 2.053 0 0 1-.636-2.816m6.15-19.468a2.063 2.063 0 0 1-2.804.627l-.097-.058a2.034 2.035 0 1 1 3.172-2.093 2 2 0 0 1-.27 1.524m16.167 11.185a2.037 2.037 0 1 1 3.441 2.18 2.063 2.063 0 0 1-2.805.626l-.087-.058a2.024 2.024 0 0 1-.55-2.748m0 22.621a2.037 2.037 0 1 1 3.441 2.18 2.063 2.063 0 0 1-2.805.626l-.087-.058a2.024 2.024 0 0 1-.55-2.7zm0 25.36a2.037 2.037 0 1 1 3.441 2.179 2.063 2.063 0 0 1-2.805.627l-.087-.058a2.034 2.035 0 0 1-.55-2.739z"/><path d="M98.345 104.91a5.9 5.9 0 0 0-10.334 4.57 19.146 19.15 0 0 1-5.139 1.283 3.856 3.857 0 0 1-2.14-.965 10.325 10.327 0 0 0-4-1.783 36.286 36.294 0 0 0 8.28-12.352 5.9 5.901 0 1 0-5.282-8.91 5.9 5.9 0 0 0 1.561 7.772c-3.904 8.89-8.888 12.612-12.118 14.155a2 2 0 0 0-.347.164 10.855 10.857 0 0 1-2.467.78v3.858a12.137 12.14 0 0 0 4.097-1.148c5.157-1.311 6.594-.337 8.107.685a7.6 7.6 0 0 0 4.107 1.6h.299a22.76 22.766 0 0 0 6.748-1.658 5.9 5.9 0 0 0 4.155 1.659 5.9 5.9 0 0 0 4.473-9.74zm-15.3-16.18a2.034 2.035 0 1 1-.22 1.542 2.02 2.02 0 0 1 .22-1.542m12.148 21.56a2 2 0 0 1-1.321.492 2.034 2.035 0 0 1-1.33-3.587 2 2 0 0 1 1.32-.492 2.044 2.044 0 0 1 2.034 2.199 2.02 2.02 0 0 1-.703 1.388M75.044 44.23h.203zm21.151-12.535a5.9 5.901 0 1 0-10.604 4.647 12.87 12.873 0 0 1-9.583 4.137 28.101 28.108 0 0 0-9.64-2.237v3.857a23.908 23.913 0 0 1 8.426 2.13 20.813 20.818 0 0 1 8.3 6.75 6.093 6.094 0 0 0-.366.521 5.9 5.901 0 1 0 8.146-1.841 5.996 5.998 0 0 0-4.502-.724 25.065 25.07 0 0 0-5.148-5.37 15.762 15.765 0 0 0 7.5-4.918 6 6 0 0 0 1.706.26 5.91 5.91 0 0 0 5.784-7.183zm-10.19 21.86a2 2 0 0 1 .646-.637 2.034 2.035 0 1 1 1.07 3.77 2 2 0 0 1-1.08-.318 2.053 2.053 0 0 1-.636-2.816m6.15-19.469a2.063 2.063 0 0 1-2.804.627l-.097-.058a2.034 2.035 0 1 1 3.172-2.092 2 2 0 0 1-.27 1.533z"/><path d="M104.582 71.229a5.784 5.785 0 0 0 2.034 2.555l.27.183a5.9 5.901 0 1 0 3.153-10.886h-.357a24.804 24.81 0 0 1 0-10.858h.328a5.9 5.901 0 1 0-4.001-1.571l.067.058a27.62 27.626 0 0 0 0 13.904c-.135.125-.28.241-.414.386a6.016 6.017 0 0 0-.607.79 5.938 5.94 0 0 0-.685 1.524 14.653 14.656 0 0 0-6.536 2.68c-1.928 1.273-3.856 2.479-9.293 2.575a31.466 31.473 0 0 0-5.167-.116c-1.379.048-2.806.106-4.676 0-1.282-.067-2.024-.848-3.335-2.333-1.736-1.977-4.069-4.484-9.033-4.821v3.857c3.171.289 4.627 1.822 6.13 3.538s3.057 3.49 6.036 3.645c2.043.106 3.624.048 5.022 0a23.349 23.354 0 0 1 7.568.675c2.516.617 11.665 9.324 14.238 13.808-.106.135-.212.27-.298.415a5.88 5.882 0 0 0 1.561 7.955l.27.183a5.9 5.901 0 1 0 3.153-10.886 6 6 0 0 0-1.485.192c-2.468-4.04-8.339-10.086-12.715-13.296a17.526 17.53 0 0 0 4.058-2.112 10.903 10.906 0 0 1 4.714-2.044m3.74-25.958a2.037 2.037 0 1 1 3.442 2.18 2.063 2.063 0 0 1-2.805.626l-.087-.058a2.024 2.024 0 0 1-.55-2.738zm0 22.621a2.037 2.037 0 1 1 3.442 2.18 2.063 2.063 0 0 1-2.805.626l-.087-.058a2.024 2.024 0 0 1-.55-2.738zm0 25.36a2.037 2.037 0 1 1 3.442 2.18 2.063 2.063 0 0 1-2.805.626l-.087-.058a2.034 2.035 0 0 1-.55-2.738z"/></g><path fill="#d3562c" d="M98.345 107.802a5.9 5.9 0 0 0-10.334 4.57 19.146 19.15 0 0 1-5.139 1.283 3.856 3.857 0 0 1-2.14-.964 10.325 10.327 0 0 0-4-1.784 36.286 36.294 0 0 0 8.27-12.371 5.9 5.901 0 1 0-5.282-8.91 5.9 5.9 0 0 0 1.562 7.772c-3.905 8.89-8.889 12.613-12.118 14.155a2 2 0 0 0-.347.164 10.855 10.857 0 0 1-2.468.781v3.857a12.137 12.14 0 0 0 4.097-1.147c5.158-1.312 6.594-.338 8.107.684a7.6 7.6 0 0 0 4.117 1.62h.299a22.76 22.766 0 0 0 6.748-1.658 5.9 5.9 0 0 0 4.155 1.658 5.9 5.9 0 0 0 4.473-9.739zm-15.3-16.18a2.034 2.035 0 1 1-.22 1.543 2.02 2.02 0 0 1 .22-1.543m12.148 21.56a2 2 0 0 1-1.321.493 2.034 2.035 0 0 1-1.33-3.587 2 2 0 0 1 1.32-.492 2.044 2.044 0 0 1 2.034 2.198 2.02 2.02 0 0 1-.703 1.389"/><path d="M75.044 46.573h.203z"/><path fill="#d3562c" d="M96.195 34.587a5.9 5.901 0 1 0-10.604 4.648 12.87 12.873 0 0 1-9.583 4.137 28.101 28.108 0 0 0-9.64-2.237v3.857a23.918 23.923 0 0 1 8.426 2.13 20.813 20.818 0 0 1 8.3 6.75 6.093 6.094 0 0 0-.366.521 5.9 5.901 0 1 0 8.146-1.842 5.996 5.998 0 0 0-4.502-.723 25.065 25.07 0 0 0-5.148-5.37 15.762 15.765 0 0 0 7.5-4.918 6 6 0 0 0 1.706.26 5.91 5.91 0 0 0 5.784-7.184zm-10.19 21.87a2 2 0 0 1 .646-.637 2.034 2.035 0 1 1 1.07 3.77 2 2 0 0 1-1.08-.318 2.053 2.053 0 0 1-.636-2.816m6.15-19.469a2.063 2.063 0 0 1-2.804.627l-.097-.058a2.034 2.035 0 1 1 3.172-2.092 2 2 0 0 1-.27 1.523"/><path fill="#d3562c" d="M104.582 74.121a5.784 5.785 0 0 0 2.034 2.556l.27.183a5.9 5.901 0 1 0 3.153-10.886h-.357a24.804 24.81 0 0 1 0-10.858h.328a5.9 5.901 0 1 0-4.001-1.572l.067.058a27.62 27.626 0 0 0 0 13.905c-.135.125-.28.24-.414.385a6.016 6.017 0 0 0-.607.791 5.938 5.94 0 0 0-.685 1.524 14.653 14.656 0 0 0-6.536 2.68c-1.928 1.273-3.856 2.478-9.293 2.575a31.466 31.473 0 0 0-5.167-.116c-1.379.048-2.806.106-4.676 0-1.282-.068-2.024-.849-3.335-2.333-1.736-1.977-4.069-4.484-9.033-4.822v3.857c3.171.29 4.627 1.823 6.13 3.54s3.057 3.49 6.036 3.644c2.043.106 3.624.048 5.022 0a23.349 23.354 0 0 1 7.568.675c2.516.617 11.665 9.324 14.238 13.808a4 4 0 0 0-.298.414 5.88 5.882 0 0 0 1.561 7.955l.27.184a5.9 5.901 0 1 0 3.153-10.887 6 6 0 0 0-1.485.193c-2.468-4.04-8.339-10.086-12.715-13.297a17.526 17.53 0 0 0 4.058-2.111 10.903 10.906 0 0 1 4.714-2.045m3.74-25.957a2.037 2.037 0 1 1 3.442 2.18 2.063 2.063 0 0 1-2.805.626l-.087-.058a2.024 2.024 0 0 1-.55-2.738zm0 22.621a2.037 2.037 0 1 1 3.442 2.18 2.063 2.063 0 0 1-2.805.626l-.087-.058a2.024 2.024 0 0 1-.55-2.738zm0 25.36a2.037 2.037 0 1 1 3.442 2.179 2.063 2.063 0 0 1-2.805.627l-.087-.058a2.034 2.035 0 0 1-.55-2.739z"/><path fill="#fffedb" d="M98.345 104.91a5.9 5.9 0 0 0-10.334 4.57 19.146 19.15 0 0 1-5.139 1.283 3.856 3.857 0 0 1-2.14-.965 10.325 10.327 0 0 0-4-1.783 36.286 36.294 0 0 0 8.28-12.352 5.9 5.901 0 1 0-5.282-8.91 5.9 5.9 0 0 0 1.561 7.772c-3.904 8.89-8.888 12.612-12.118 14.155a2 2 0 0 0-.347.164 10.855 10.857 0 0 1-2.467.78v3.858a12.137 12.14 0 0 0 4.097-1.148c5.157-1.311 6.594-.337 8.107.685a7.6 7.6 0 0 0 4.107 1.6h.299a22.76 22.766 0 0 0 6.748-1.658 5.9 5.9 0 0 0 4.155 1.659 5.9 5.9 0 0 0 4.473-9.74zm-15.3-16.18a2.034 2.035 0 1 1-.22 1.542 2.02 2.02 0 0 1 .22-1.542m12.148 21.56a2 2 0 0 1-1.321.492 2.034 2.035 0 0 1-1.33-3.587 2 2 0 0 1 1.32-.492 2.044 2.044 0 0 1 2.034 2.199 2.02 2.02 0 0 1-.703 1.388M75.044 44.23h.203zm21.151-12.535a5.9 5.901 0 1 0-10.604 4.647 12.87 12.873 0 0 1-9.583 4.137 28.101 28.108 0 0 0-9.64-2.237v3.857a23.908 23.913 0 0 1 8.426 2.13 20.813 20.818 0 0 1 8.3 6.75 6.093 6.094 0 0 0-.366.521 5.9 5.901 0 1 0 8.146-1.841 5.996 5.998 0 0 0-4.502-.724 25.065 25.07 0 0 0-5.148-5.37 15.762 15.765 0 0 0 7.5-4.918 6 6 0 0 0 1.706.26 5.91 5.91 0 0 0 5.784-7.183zm-10.19 21.86a2 2 0 0 1 .646-.637 2.034 2.035 0 1 1 1.07 3.77 2 2 0 0 1-1.08-.318 2.053 2.053 0 0 1-.636-2.816m6.15-19.469a2.063 2.063 0 0 1-2.804.627l-.097-.058a2.034 2.035 0 1 1 3.172-2.092 2 2 0 0 1-.27 1.533z"/><path fill="#fffedb" d="M104.582 71.229a5.784 5.785 0 0 0 2.034 2.555l.27.183a5.9 5.901 0 1 0 3.153-10.886h-.357a24.804 24.81 0 0 1 0-10.858h.328a5.9 5.901 0 1 0-4.001-1.571l.067.058a27.62 27.626 0 0 0 0 13.904c-.135.125-.28.241-.414.386a6.016 6.017 0 0 0-.607.79 5.938 5.94 0 0 0-.685 1.524 14.653 14.656 0 0 0-6.536 2.68c-1.928 1.273-3.856 2.479-9.293 2.575a31.466 31.473 0 0 0-5.167-.116c-1.379.048-2.806.106-4.676 0-1.282-.067-2.024-.848-3.335-2.333-1.736-1.977-4.069-4.484-9.033-4.821v3.857c3.171.289 4.627 1.822 6.13 3.538s3.057 3.49 6.036 3.645c2.043.106 3.624.048 5.022 0a23.349 23.354 0 0 1 7.568.675c2.516.617 11.665 9.324 14.238 13.808-.106.135-.212.27-.298.415a5.88 5.882 0 0 0 1.561 7.955l.27.183a5.9 5.901 0 1 0 3.153-10.886 6 6 0 0 0-1.485.192c-2.468-4.04-8.339-10.086-12.715-13.296a17.526 17.53 0 0 0 4.058-2.112 10.903 10.906 0 0 1 4.714-2.044m3.74-25.958a2.037 2.037 0 1 1 3.442 2.18 2.063 2.063 0 0 1-2.805.626l-.087-.058a2.024 2.024 0 0 1-.55-2.738zm0 22.621a2.037 2.037 0 1 1 3.442 2.18 2.063 2.063 0 0 1-2.805.626l-.087-.058a2.024 2.024 0 0 1-.55-2.738zm0 25.36a2.037 2.037 0 1 1 3.442 2.18 2.063 2.063 0 0 1-2.805.626l-.087-.058a2.034 2.035 0 0 1-.55-2.738z"/></svg>