<svg height="56pt" viewBox="0 0 56 56" width="56pt" xmlns="http://www.w3.org/2000/svg" xmlns:xlink="http://www.w3.org/1999/xlink"><linearGradient id="a" gradientTransform="matrix(53.3 0 0 44.107 1.35 5.946)" gradientUnits="userSpaceOnUse" x1="0" x2="1" y1=".5" y2=".5"><stop offset="0" stop-color="#ffe53b"/><stop offset=".98695652174" stop-color="#ff005b"/></linearGradient><path d="m42.998 30.144c.182 1.091 1.131 1.924 2.273 1.924 1.268 0 2.477.507 3.376 1.406.887.887 1.394 2.108 1.394 3.375v3.814c0 1.268-.507 2.477-1.394 3.376-.899.899-2.108 1.406-3.376 1.406-1.272 0-2.304 1.032-2.304 2.304 0 1.272 1.032 2.305 2.304 2.305 2.489 0 4.874-.991 6.637-2.754 1.751-1.763 2.742-4.148 2.742-6.637v-3.814c0-2.488-.991-4.873-2.742-6.636-1.208-1.208-2.707-2.053-4.332-2.466v-4.516c0-.092-.012-.196-.023-.288-.173-1.418-.461-2.812-.853-4.183-.323-1.163-.761-2.293-1.302-3.376-.484-.968-1.06-1.889-1.705-2.742-.634-.818-1.337-1.567-2.109-2.247-.772-.679-1.624-1.279-2.512-1.797-.956-.542-1.958-1.002-3.007-1.371-1.186-.415-2.408-.714-3.641-.91-1.486-.231-2.984-.358-4.482-.369-1.336-.012-2.673.046-4.009.173-1.106.103-2.201.276-3.284.53-1.06.23-2.085.553-3.099.956-.876.346-1.729.772-2.535 1.279-.876.542-1.694 1.187-2.431 1.913-.715.702-1.348 1.486-1.89 2.339-.564.898-1.037 1.855-1.382 2.857-.392 1.118-.68 2.27-.853 3.445-.012.115-.023.219-.023.334v2.304c0 1.272 1.032 2.305 2.304 2.305 1.272 0 2.305-1.033 2.305-2.305v-2.131c.126-.83.334-1.636.61-2.42.242-.679.553-1.313.934-1.912.345-.565.76-1.072 1.232-1.533.496-.484 1.037-.921 1.637-1.29.564-.357 1.163-.657 1.785-.899.795-.311 1.602-.564 2.432-.749.887-.207 1.785-.345 2.696-.438 1.175-.115 2.35-.161 3.537-.149 1.267.011 2.546.115 3.802.311.968.15 1.913.391 2.846.714.772.277 1.509.611 2.224 1.014.633.369 1.221.784 1.774 1.267.542.473 1.025 1.003 1.463 1.567.484.634.899 1.302 1.256 2.005.415.83.749 1.694 1.003 2.593.311 1.094.541 2.212.691 3.352v4.459 1.925.38zm-32.258 15.301c1.272 0 2.305 1.032 2.305 2.304 0 1.272-1.033 2.305-2.305 2.305-2.488 0-4.885-.991-6.636-2.754-1.763-1.763-2.754-4.148-2.754-6.637v-3.814c0-2.488.991-4.873 2.754-6.636 1.751-1.763 4.148-2.754 6.636-2.754 1.272 0 2.305 1.033 2.305 2.305 0 1.271-1.033 2.304-2.305 2.304-1.267 0-2.488.507-3.387 1.406-.887.887-1.394 2.108-1.394 3.375v3.814c0 1.268.507 2.477 1.394 3.376.899.899 2.12 1.406 3.387 1.406zm8.192.276c0 1.272-1.549 2.305-3.456 2.305-.636 0-1.152-.517-1.152-1.153v-1.152-13.93-1.152c0-.636.516-1.152 1.152-1.152 1.907 0 3.456 1.033 3.456 2.304zm22.744 0v1.152c0 .636-.516 1.153-1.152 1.153-1.907 0-3.456-1.033-3.456-2.305v-13.93c0-1.271 1.549-2.304 3.456-2.304.636 0 1.152.516 1.152 1.152v1.152zm-20.218-4.344c-.177.434-.672.645-1.105.47-.432-.176-.643-.671-.47-1.106l1.982-4.915c.874-2.168 2.323-2.18 3.233-.027l1.341 3.172c.632-2.052 2.229-2.424 3.567-.83l1.297-3.085c.906-2.154 2.24-2.103 2.977.116l1.867 5.62c.145.444-.096.924-.538 1.072-.442.147-.922-.094-1.071-.538l-.979-2.95c-.442-1.331-1.242-1.363-1.785-.07l-1.18 2.805c-.362.862-.929.856-1.266-.014-.505-1.304-1.392-1.329-1.98-.056l-.266.576c-.392.849-1.007.84-1.371-.021l-1.237-2.92c-.547-1.291-1.415-1.283-1.938.019z" fill="url(#a)" fill-rule="evenodd"/></svg>