<svg xmlns="http://www.w3.org/2000/svg" xmlns:xlink="http://www.w3.org/1999/xlink" width="48" height="48"><defs><linearGradient xlink:href="#a" id="k" x1="35" x2="35" y1="44" y2="7" gradientTransform="translate(23.655 -157.199)scale(2.08484)" gradientUnits="userSpaceOnUse"/><linearGradient id="a"><stop offset="0" style="stop-color:#197cf1;stop-opacity:1"/><stop offset="1" style="stop-color:#20bcfa;stop-opacity:1"/></linearGradient><linearGradient id="c"><stop offset="0" style="stop-color:#000;stop-opacity:1"/><stop offset="1" style="stop-color:#000;stop-opacity:.384"/></linearGradient><linearGradient id="e" x2="0" y1="40" y2="6" gradientTransform="matrix(.69598 0 0 .68424 -7.34 -10.191)" gradientUnits="userSpaceOnUse"><stop stop-color="#b1b1b1"/><stop offset="1" stop-color="#ddd"/></linearGradient><linearGradient xlink:href="#b" id="f" x1="23" x2="40" y1="21" y2="39" gradientTransform="matrix(.72441 .14848 -.15069 .73517 -5.854 -13.196)" gradientUnits="userSpaceOnUse"/><linearGradient id="b" x1="17" x2="44" y1="11" y2="41" gradientTransform="translate(0 1004.36)" gradientUnits="userSpaceOnUse"><stop/><stop offset="1" stop-opacity="0"/></linearGradient><linearGradient id="i" x2="0" y1="1040.95" y2="1012.95" gradientTransform="matrix(.72441 .14848 -.15069 .73517 145.491 -751.576)" gradientUnits="userSpaceOnUse"><stop stop-color="#f2f2f2"/><stop offset="1" stop-color="#fff"/></linearGradient><linearGradient xlink:href="#c" id="j" x1="13" x2="13" y1="44.006" y2="3.172" gradientTransform="matrix(.73947 0 0 .75046 -8.384 -11.752)" gradientUnits="userSpaceOnUse"/><linearGradient xlink:href="#a" id="l" x1="35" x2="35" y1="44" y2="7" gradientTransform="matrix(.89014 0 0 1.02044 -2.58 -8.899)" gradientUnits="userSpaceOnUse"/><linearGradient xlink:href="#d" id="m" x1="8" x2="22" y1="4" y2="18" gradientTransform="translate(2.903 12.763)" gradientUnits="userSpaceOnUse"/><linearGradient id="d"><stop offset="0" style="stop-color:#292c2f;stop-opacity:1"/><stop offset="1" style="stop-color:#000;stop-opacity:0"/></linearGradient><linearGradient xlink:href="#d" id="n" x1="8" x2="22" y1="4" y2="18" gradientTransform="translate(19.257 6.936)" gradientUnits="userSpaceOnUse"/></defs><g transform="matrix(1.32477 -.26756 .27154 1.30538 11.338 15.66)"><rect width="23.663" height="30.018" x="-2.469" y="-8.75" rx=".739" ry=".75" style="fill:url(#e);fill-rule:evenodd;stroke-width:.744945" transform="rotate(11.583)"/><path d="m16.098 19.647-21.037-.481.998 1.708 20.43 4.216 5.425-26.466-1.147-1.768Z" style="opacity:.2;fill:url(#f);fill-rule:evenodd;stroke-width:.744945"/><path d="m.486-7.3-5.425 26.466 20.284 4.157L20.77-3.143Z" style="fill:url(#i);fill-rule:evenodd;stroke-width:.744945"/><path d="M-.99 19.016h20.705v.762H-.99z" style="opacity:.437;fill:#1b1b1b;fill-opacity:1;fill-rule:evenodd;stroke-width:.744945" transform="rotate(11.583)"/><path d="M.489-7.25h.739v26.266H.489z" style="color:#000;clip-rule:nonzero;display:inline;overflow:visible;visibility:visible;opacity:.082;isolation:auto;mix-blend-mode:normal;color-interpolation:sRGB;color-interpolation-filters:linearRGB;solid-color:#000;solid-opacity:1;fill:url(#j);fill-opacity:1;fill-rule:nonzero;stroke:none;stroke-width:.744945px;stroke-linecap:butt;stroke-linejoin:miter;stroke-miterlimit:4;stroke-dasharray:none;stroke-dashoffset:0;stroke-opacity:1;marker:none;color-rendering:auto;image-rendering:auto;shape-rendering:auto;text-rendering:auto" transform="rotate(11.583)"/><path d="m15.699-4.182 4.016 6.185 1.055-5.146z" style="fill:#fdfdfd;fill-opacity:1;fill-rule:evenodd;stroke-width:.744945"/><path d="M-.99-7.25H.489v26.266H-.99z" style="color:#000;clip-rule:nonzero;display:inline;overflow:visible;visibility:visible;opacity:.373;isolation:auto;mix-blend-mode:normal;color-interpolation:sRGB;color-interpolation-filters:linearRGB;solid-color:#000;solid-opacity:1;fill:#fff;fill-opacity:1;fill-rule:nonzero;stroke:none;stroke-width:.744945px;stroke-linecap:butt;stroke-linejoin:miter;stroke-miterlimit:4;stroke-dasharray:none;stroke-dashoffset:0;stroke-opacity:1;marker:none;color-rendering:auto;image-rendering:auto;shape-rendering:auto;text-rendering:auto" transform="rotate(11.583)"/></g><path d="M88.8-135.254s-10.904 16.84-13.868 28.84c-2.064 8.354-2.11 17.519.174 25.816 1.186 4.31 3.531 8.505 6.786 11.57 3.207 3.018 7.513 4.888 11.778 5.985 4.308 1.107 8.921.971 13.338.44 10.112-1.216 18.016-3.652 25.183-8.942 2.598-1.918 5.788-7.77 5.788-7.77l-.029-12.653s-6.157 11.541-10.902 15.856c-4.461 4.056-9.929 7.456-15.809 8.787-4.266.966-9.028.793-13.097-.813-3.07-1.212-5.75-3.596-7.637-6.304-2.063-2.961-2.883-6.678-3.575-10.22-.704-3.6-.812-7.332-.547-10.99.33-4.562 1.29-9.095 2.649-13.462 2.823-9.071 11.339-26.15 11.339-26.15z" style="font-style:normal;font-variant:normal;font-weight:400;font-stretch:normal;font-size:medium;line-height:125%;font-family:&quot;Impregnable Personal Use Only&quot;;-inkscape-font-specification:&quot;Impregnable Personal Use Only&quot;;letter-spacing:0;word-spacing:0;fill:url(#k);fill-opacity:1;stroke:none;stroke-width:2.08484px;stroke-linecap:butt;stroke-linejoin:miter;stroke-opacity:1"/><ellipse cx="84.61" cy="-117.966" rx="23.593" ry="16.949" style="opacity:.722013;fill:#54a3d8;fill-opacity:1;paint-order:markers stroke fill"/><path d="m26.424 6.003-.134.205a43 43 0 0 0-2.969 5.418 37 37 0 0 0-2.528 7.727q-.907 4.012-.777 7.356.195 3.27 1.231 5.499t2.851 3.195 4.279.37c1.599-.396 3.22-1.259 4.86-2.599.301-.245 2.002-1.912 3.171-3.203.927-1.023 1.366-1.716 1.592-1.938l-.047-4.48c-.144.13-.488.756-1.332 1.66-1.04 1.115-2.615 2.545-2.799 2.686q-1.945 1.41-3.76 1.634-1.88.222-3.175-.743-1.296-.966-2.01-2.898-.648-1.932-.648-4.606 0-2.75.777-5.945a29.6 29.6 0 0 1 2.204-6.093 34 34 0 0 1 1.717-3.159L28.982 6Z" style="font-style:normal;font-variant:normal;font-weight:400;font-stretch:normal;font-size:medium;line-height:125%;font-family:&quot;Impregnable Personal Use Only&quot;;-inkscape-font-specification:&quot;Impregnable Personal Use Only&quot;;letter-spacing:0;word-spacing:0;fill:url(#l);fill-opacity:1;stroke:none;stroke-width:.953063px;stroke-linecap:butt;stroke-linejoin:miter;stroke-opacity:1"/><path d="m37.978-38.654 113.52-30.297M42.472-17.329s18.062-19.299 29.526-25.387c13.932-7.399 29.912-11.503 45.658-12.451 13.548-.816 40.285 5.92 40.285 5.92" style="fill:none;stroke:#000;stroke-width:4.9;stroke-linecap:round;stroke-miterlimit:4;stroke-dasharray:none;stroke-opacity:1" transform="rotate(-4.384 562.13 47.85)scale(.27755)"/><path d="M147.763-59.889c0 1.939-6.878 8.292-15.118 11.207-7.422 2.626-18.676 1.64-21.724 1.64-6.432 0-8.827-9.037-8.827-12.722s9.068-10.195 17.405-13.427c1.555-.603 17.468-1.359 18.832-1.288 12.703.656 9.432 11.86 9.432 14.59" style="opacity:.512;fill:#3daee9;fill-opacity:1;stroke:none;stroke-width:2;stroke-linecap:round;stroke-miterlimit:4;stroke-dasharray:none;stroke-opacity:1;paint-order:markers stroke fill" transform="rotate(-4.384 562.13 47.85)scale(.27755)"/><path d="M102.278-60.228c-.607 3.83.77 8.66 3.89 10.962 6.787 5.01 22.55 2.216 25.285 1.056s13.727-4.893 15.997-10.94c1.784-4.756.041-13.718-3.813-14.754-4.465-1.2-13.08-1.581-19.428-.297-6.032 1.22-12.057 3.637-16.9 7.433-2.165 1.697-4.6 3.824-5.03 6.54z" style="fill:none;stroke:#000;stroke-width:2;stroke-linecap:butt;stroke-linejoin:miter;stroke-miterlimit:4;stroke-dasharray:none;stroke-opacity:1" transform="rotate(-4.384 562.13 47.85)scale(.27755)"/><path d="M86.862-44.44c0 1.94-7.623 9.287-15.864 12.202-7.422 2.626-16.604 2.594-19.652 2.594-6.431 0-10.567-9.038-10.567-12.723s10.932-11.728 19.27-14.96c1.555-.603 15.147-1.359 16.51-1.288 12.704.656 10.303 11.446 10.303 14.176" style="opacity:.512;fill:#3daee9;fill-opacity:1;stroke:none;stroke-width:2;stroke-linecap:round;stroke-miterlimit:4;stroke-dasharray:none;stroke-opacity:1;paint-order:markers stroke fill" transform="rotate(-4.384 562.13 47.85)scale(.27755)"/><path d="M84.118-56.13c2.546 2.923 3.94 7.749 2.517 11.355-3.096 7.847-17.94 13.84-20.874 14.308s-14.232 3.134-19.364-.79c-4.036-3.084-7.312-11.606-4.594-14.528 3.148-3.387 10.25-8.279 16.312-10.558 5.76-2.166 12.15-3.312 18.27-2.663 2.735.29 5.927.801 7.733 2.875z" style="fill:none;stroke:#000;stroke-width:2;stroke-linecap:butt;stroke-linejoin:miter;stroke-miterlimit:4;stroke-dasharray:none;stroke-opacity:1" transform="rotate(-4.384 562.13 47.85)scale(.27755)"/><path d="M84.375-55.172s2.215-4.445 8.348-6.212c6.202-1.786 9.887 1.404 9.887 1.404" style="fill:none;stroke:#000;stroke-width:2;stroke-linecap:butt;stroke-linejoin:miter;stroke-miterlimit:4;stroke-dasharray:none;stroke-opacity:1" transform="rotate(-4.384 562.13 47.85)scale(.27755)"/><path d="m21.018 27.909-2.457 3.69-1.653 1.093-2.436.959-3.569.112 8.613 8.102 15.057-.007z" style="opacity:.2;fill:url(#m);fill-opacity:1;fill-rule:evenodd;stroke:none;stroke-width:1px;stroke-linecap:butt;stroke-linejoin:miter;stroke-opacity:1"/><path d="m37.373 22.081-.144 2.177-2.313 1.513-1.654 1.093-2.38.508-3.625.564L39.843 40.89l.08-15.987z" style="opacity:.2;fill:url(#n);fill-opacity:1;fill-rule:evenodd;stroke:none;stroke-width:1px;stroke-linecap:butt;stroke-linejoin:miter;stroke-opacity:1"/></svg>