<?xml version="1.0" encoding="UTF-8" standalone="yes"?>
<svg baseProfile="tiny-ps" version="1.2" viewBox="0 0 1117.1 1117.1" xmlns="http://www.w3.org/2000/svg">
  <title>bimi-svg-tiny-12-ps</title>
  <path d="M1117.1,1117.1H0V0h1117.1v1117.1ZM252.5,1116.1c-8.8-15.4-11.4-31.5-12.5-47.8-1.1-16.9.6-33.7,3.6-50.4,4.9-27.8,13.9-54.1,28-78.6,6.7-11.7,6-28.1-7-38.8-6-5-10.7-11-13.9-18-3.7-7.9-7.3-15.9-9.8-24.2-8.1-27-11-54.6-9.1-82.8,1.2-18.4,3.8-36.4,9.1-54.1,4.9-16.7,11.7-32.3,23.6-45.5,9.7-10.8,11.9-29.1-1.9-43.3-23.5-24.2-34.3-53.9-36.7-86.9-2.2-31.3,4.7-61,18.7-89,15.8-31.4,38.5-56.2,70.2-72.2,21.2-10.7,43.5-15.9,67.4-12.8,3.4.5,6.8,1.2,10.2,1.5,14.4,1.5,26.7-5.1,31.5-18,5.5-14.7,14.7-26.7,25.4-37.6,19.1-19.4,41.8-33,67.6-41.5,20.7-6.9,41.9-8.8,63.4-5.2,29,4.8,54.5,17.3,77.1,35.8,16.3,13.4,29.7,29.1,37.7,49.1,4.5,11.2,13.7,17.2,26,17.4,4,0,7.9-.8,11.9-1.1,6.7-.6,13.4-1.8,20-1.5,27,1.5,51.2,11,72.9,27.2,41.2,30.6,71.1,88.6,66.9,147.8-2.4,33.3-13.4,63-37,87.3-12.4,12.8-11.8,31.7-.7,43.8,6.8,7.5,11.8,16,15.8,25.3,10,22.9,14.3,47.2,16,71.9,1.2,17.2.6,34.5-1.9,51.6-2.7,18.4-6.9,36.4-15.1,53.2-3.9,8.1-8.7,15.6-15.7,21.4-11.6,9.6-14.9,25-7.2,39.3,6,11.2,11.4,22.7,16,34.5,7.8,20,12.4,40.9,14.5,62.4,1.7,17.1,1.7,34-1.3,51-1.8,9.8-4.8,19.3-9.9,28.6h63.3c.7-2.4,1.5-4.8,2-7.2,6.3-25.9,6.6-52.2,4.1-78.5-2.4-25.8-8.2-50.8-17.2-75.2-3.2-8.8-7-17.5-10.6-26.4,8-10.6,14.3-22.2,19.3-34.5,12.3-30,17.2-61.4,18.3-93.5.5-15.4-.2-30.8-1.8-46.2-2-19-5.7-37.7-11.6-55.9-4.8-14.7-11-28.8-19.1-42.1,1-1.5,1.9-2.8,2.8-4.2,8.2-11.6,15-24,20.4-37.2,15.7-38.6,18.9-78.5,11.8-119.2-9.8-56.3-36.7-103.1-80.6-139.9-2.8-2.3-5.6-4.5-8.5-6.8.5-2.6.9-4.9,1.3-7.2,4.3-22.5,6.4-45.2,6.8-68.1.2-9.1-.5-18.1-.6-27.2-.3-19.5-2.9-38.7-6.8-57.8-4.6-22.3-11.4-43.9-22.7-63.9-6.7-11.8-14.8-22.4-25.5-30.9-23.2-18.5-52-19.5-76.2-2.6-13.5,9.5-23.4,22.2-31.4,36.4-16.6,29.4-24.7,61.5-29.5,94.6-1,7.1-1.8,14.2-2.7,21.8-2.1-1.2-3.6-2.1-5.2-2.9-11-5.5-21.8-11.6-33.2-16.3-34.9-14.4-71.2-18.2-108.4-11.6-26,4.6-50.1,14.4-72.8,27.8-1.6.9-3.2,1.9-5.2,3-.4-2.8-.7-4.8-1-6.7-2.3-14.3-4-28.8-6.9-42.9-4.8-23.4-12.4-45.9-24.3-66.8-7.2-12.7-15.9-24.3-27.5-33.5-11.4-9-24.2-14.6-39-14.9-18.3-.4-33.5,6.9-46.6,19.2-12,11.3-20.4,25-27,39.9-14.8,33.3-20.8,68.6-22.7,104.7-1,18.3-1.2,36.7.7,55,1.4,13.7,3.3,27.4,5.1,41,.4,3.4,1.1,6.7,1.7,9.9-1.4,1.1-2.3,1.9-3.3,2.7-15.4,11.7-29,25.3-40.7,40.7-30.5,40.1-46.6,85.4-48.4,135.7-.4,11.4.5,22.9,1.7,34.2,3.6,32.8,14.9,62.7,33.8,89.7.9,1.3,1.8,2.7,2.5,3.8-3.8,7.7-7.8,14.8-11.1,22.3-12.6,28.6-18.6,58.8-20.5,89.8-1.6,26.1-.8,52.2,4,78.1,5.3,28.7,14,56,31.3,80,1.4,2,1.6,3.6.6,5.9-3.1,6.8-6.1,13.6-8.6,20.6-16.8,45.8-23.3,92.8-16.8,141.3,1,7.5,2.4,14.9,5.1,22.1h63.3ZM559.5,763.5v.5c7.8,0,15.6,0,23.4,0,11.1.2,22.1-1,33-3.4,28-6.1,52.8-18.2,72.9-38.8,23.9-24.5,33.9-54.1,30.4-88-2-19-9.2-36.1-20-51.8-17-24.6-40-41.8-67.3-53.4-27.4-11.7-56-15.4-85.7-13.7-23.3,1.4-45.5,6.8-66.5,16.9-27.1,13-49.4,31.7-64.9,57.8-14.6,24.6-19.3,51.1-13.6,79.1,5.2,25.8,19.2,46.4,39.5,62.8,23.7,19.2,51.2,29.4,81.4,31.8,12.4,1,25,.2,37.5.2ZM761.9,521.6c-21.7,0-37,11.4-41,28.5-2.3,9.9-.5,19.5,4.1,28.5,9.5,18.8,25.8,30.5,49,23,11.9-3.9,20-11.7,23.7-23.6,4.7-15.1.3-28.7-8.7-40.9-7.6-10.2-18.2-15.3-27.1-15.5h0ZM358.3,603.8c6.8,0,10.7-.9,16.6-4.3,12.3-7,19.1-18.1,22.7-31.3,6.2-23.4-11.3-46.2-35.5-46.5-17-.2-29,7.9-36.9,22.5-5,9.1-7.4,19-5.4,29.4,3.5,18.4,18.8,30.2,38.5,30.3h0Z" fill="#fff"/>
  <path d="M252.5,1116.1h-63.3c-2.7-7.2-4.1-14.6-5.1-22.1-6.6-48.5,0-95.5,16.8-141.3,2.6-7,5.6-13.8,8.6-20.6,1-2.3.8-3.9-.6-5.9-17.2-24-25.9-51.3-31.3-80-4.8-25.9-5.6-52-4-78.1,1.9-31,7.9-61.2,20.5-89.8,3.3-7.5,7.2-14.6,11.1-22.3-.7-1.1-1.6-2.5-2.5-3.8-18.9-27-30.3-57-33.8-89.7-1.2-11.3-2.1-22.8-1.7-34.2,1.8-50.3,17.9-95.6,48.4-135.7,11.7-15.4,25.3-29,40.7-40.7,1-.8,2-1.6,3.3-2.7-.5-3.2-1.2-6.5-1.7-9.9-1.8-13.7-3.7-27.3-5.1-41-1.9-18.3-1.7-36.6-.7-54.9,1.9-36.1,7.9-71.4,22.7-104.7,6.6-14.9,15-28.6,27-39.9,13.1-12.3,28.3-19.6,46.6-19.2,14.7.3,27.5,5.9,39,14.9,11.6,9.2,20.3,20.7,27.5,33.5,11.9,20.9,19.5,43.4,24.3,66.8,2.9,14.2,4.6,28.6,6.9,42.9.3,2,.6,3.9,1,6.7,2-1.1,3.6-2.1,5.2-3,22.7-13.4,46.8-23.2,72.8-27.8,37.2-6.6,73.5-2.8,108.4,11.6,11.4,4.7,22.2,10.8,33.2,16.3,1.6.8,3.1,1.7,5.2,2.9.9-7.6,1.7-14.8,2.7-21.8,4.8-33.1,12.9-65.2,29.5-94.6,8-14.2,17.9-26.9,31.4-36.4,24.3-17,53.1-16,76.2,2.6,10.7,8.5,18.8,19.2,25.5,31,11.3,20,18.1,41.6,22.7,63.9,3.9,19.1,6.5,38.3,6.8,57.8.1,9.1.8,18.1.6,27.2-.4,22.9-2.5,45.6-6.8,68.1-.4,2.3-.8,4.6-1.3,7.2,2.9,2.3,5.7,4.5,8.5,6.8,44,36.8,70.8,83.6,80.6,139.9,7.1,40.7,3.9,80.6-11.8,119.2-5.4,13.2-12.2,25.5-20.4,37.2-.9,1.3-1.8,2.7-2.8,4.2,8.1,13.3,14.3,27.4,19.1,42.1,5.9,18.2,9.5,36.9,11.6,55.9,1.7,15.4,2.3,30.8,1.8,46.2-1.1,32.1-6,63.5-18.3,93.5-5,12.3-11.4,23.9-19.3,34.5,3.6,8.9,7.3,17.6,10.6,26.4,8.9,24.3,14.8,49.4,17.2,75.1,2.5,26.3,2.2,52.6-4.1,78.5-.6,2.4-1.4,4.8-2,7.2h-63.3c5.1-9.3,8.1-18.7,9.9-28.6,3-16.9,3-33.9,1.3-51-2.2-21.4-6.7-42.3-14.5-62.4-4.6-11.8-10-23.4-16-34.5-7.7-14.3-4.4-29.7,7.2-39.3,7-5.8,11.7-13.3,15.7-21.4,8.2-16.8,12.4-34.8,15.1-53.2,2.5-17.1,3.1-34.4,1.9-51.6-1.7-24.8-6-49-16-71.9-4-9.2-9-17.8-15.8-25.3-11.1-12.1-11.8-31.1.7-43.8,23.6-24.3,34.7-54,37-87.3,4.2-59.2-25.7-117.2-66.9-147.8-21.7-16.1-45.8-25.7-72.9-27.2-6.6-.4-13.4.9-20,1.5-4,.3-7.9,1.2-11.9,1.1-12.3-.2-21.5-6.2-26-17.4-8-20-21.3-35.7-37.7-49.1-22.6-18.5-48.2-31-77.1-35.8-21.5-3.6-42.7-1.7-63.4,5.2-25.8,8.6-48.5,22.1-67.6,41.5-10.7,10.9-19.9,23-25.4,37.6-4.8,12.9-17.1,19.5-31.5,18-3.4-.4-6.8-1.1-10.2-1.5-23.9-3.1-46.2,2.1-67.4,12.8-31.6,16-54.4,40.8-70.2,72.2-14.1,27.9-20.9,57.6-18.7,89,2.3,33,13.2,62.8,36.7,86.9,13.8,14.2,11.6,32.5,1.9,43.3-11.9,13.2-18.6,28.9-23.6,45.5-5.2,17.7-7.8,35.7-9.1,54.1-1.9,28.2,1.1,55.8,9.1,82.8,2.5,8.3,6.1,16.3,9.8,24.2,3.2,7,8,13,13.9,18,12.9,10.8,13.6,27.2,7,38.8-14,24.5-23.1,50.8-28,78.6-3,16.7-4.7,33.5-3.6,50.4,1.1,16.3,3.7,32.4,12.5,47.8h0ZM378.9,312.6c3.2-4.7,6.5-9.5,9.6-14.4.6-1,.7-2.4.7-3.6,0-9.2.5-18.5,0-27.7-.7-12.7-1.7-25.3-3.4-37.9-2.8-20.7-7.9-41-16.3-60.2-3.5-8-7.5-15.8-13.2-22.5-2.1-2.5-4.6-4.6-7.1-6.7-1.6-1.4-3.4-1.3-4.9,0-2.1,2-4.3,3.9-6.1,6.1-6.7,8.5-11,18.4-14.5,28.5-9.5,27-12.7,55.1-13.9,83.4-.6,15.2.5,30.5,2.1,45.6.6,5.7,1.5,11.4,2.4,17.6,21.4-6.7,42.7-9.6,64.7-8.4h0ZM804.1,320.9c.5-1.6,1-2.9,1.2-4.3,1.1-11.5,2.6-23.1,3.2-34.6,1.6-29.3-.7-58.4-7.4-87-3.5-15.1-8.2-29.8-16.4-43.1-2.5-4.1-5.8-7.9-9.2-11.4-2.8-2.9-4.2-2.9-7-.2-3.9,3.8-7.6,7.8-10.6,12.3-5.9,8.6-9.8,18.2-13.3,28-6.6,18.7-10.6,38.1-13,57.8-2.2,18.4-3.4,36.8-2.3,55.4,0,1.4,0,3,.8,4.2,3.2,5,6.6,9.9,9.8,14.6,22-1.1,43.2,1.6,64.2,8.3h0Z"/>
  <path d="M559.5,763.5c-12.5,0-25.1.8-37.5-.2-30.2-2.4-57.7-12.6-81.4-31.8-20.2-16.4-34.2-37.1-39.5-62.8-5.7-28-1-54.5,13.6-79.1,15.5-26.1,37.8-44.8,64.9-57.8,21-10.1,43.2-15.5,66.5-16.9,29.7-1.8,58.3,2,85.7,13.7,27.3,11.6,50.3,28.8,67.3,53.4,10.8,15.6,18,32.8,20,51.8,3.5,34-6.5,63.5-30.4,88-20.1,20.7-45,32.8-72.9,38.8-10.8,2.4-21.8,3.6-33,3.4-7.8-.1-15.6,0-23.4,0v-.5h0ZM680.3,646.6c-.8-17.7-6.9-33-17.5-46.5-11.1-14.2-25.1-24.6-41.2-32.3-27.6-13-56.6-16.5-86.6-11.8-22.8,3.6-43.6,12.2-61.8,26.7-14.3,11.5-25.3,25.4-31.1,43.1-2.4,7.3-4.1,14.8-3.6,22.4,1.4,22.1,11.5,39.8,29,53.3,22.1,17,47.7,23,75.1,23.1,10,0,20-.8,29.9-.2,15.1.8,29.7-1,44.1-5.3,19.2-5.7,36-15.3,48.7-31.2,9.7-12.2,14.6-26.2,15.1-41.3h0Z"/>
  <path d="M761.9,521.6c8.9.3,19.5,5.3,27.1,15.5,9.1,12.2,13.4,25.8,8.7,40.9-3.7,11.9-11.8,19.7-23.7,23.6-23.2,7.5-39.5-4.2-49-23-4.5-9-6.4-18.6-4.1-28.5,4-17,19.3-28.5,41-28.5h0Z"/>
  <path d="M358.3,603.8c-19.7,0-34.9-11.9-38.5-30.3-2-10.4.4-20.3,5.4-29.4,7.9-14.5,20-22.7,36.9-22.5,24.1.3,41.7,23.1,35.5,46.5-3.5,13.2-10.4,24.3-22.7,31.3-5.9,3.4-9.8,4.3-16.6,4.3h0Z"/>
  <path d="M378.9,312.6c-22-1.2-43.2,1.7-64.7,8.4-.9-6.3-1.8-12-2.4-17.6-1.6-15.2-2.7-30.4-2.1-45.6,1.2-28.4,4.5-56.4,13.9-83.4,3.6-10.1,7.8-20,14.5-28.5,1.8-2.3,4-4.2,6.1-6.1,1.5-1.4,3.4-1.5,4.9,0,2.5,2.1,5,4.2,7.1,6.7,5.7,6.7,9.7,14.5,13.2,22.5,8.4,19.3,13.4,39.5,16.3,60.2,1.7,12.6,2.7,25.2,3.4,37.9.5,9.2.1,18.5,0,27.7,0,1.2-.1,2.7-.7,3.6-3.1,4.9-6.4,9.6-9.6,14.4h0Z" fill="#fff"/>
  <path d="M804.1,320.9c-21.1-6.7-42.2-9.5-64.2-8.3-3.2-4.7-6.6-9.6-9.8-14.6-.7-1.1-.7-2.8-.8-4.2-1.1-18.5,0-37,2.3-55.4,2.4-19.7,6.3-39,13-57.8,3.5-9.8,7.4-19.4,13.3-28,3-4.4,6.8-8.5,10.6-12.3,2.8-2.8,4.2-2.7,7,.2,3.4,3.5,6.7,7.2,9.2,11.4,8.2,13.3,12.8,28,16.4,43.1,6.7,28.6,9,57.7,7.4,87-.6,11.6-2.1,23.1-3.2,34.6-.1,1.4-.7,2.7-1.2,4.3h0Z" fill="#fff"/>
  <path d="M680.3,646.6c-.5,15.1-5.3,29.1-15.1,41.3-12.7,15.9-29.5,25.6-48.7,31.2-14.3,4.2-29,6.1-44.1,5.3-9.9-.5-19.9.3-29.9.2-27.3,0-53-6.1-75.1-23.1-17.5-13.4-27.6-31.1-29-53.3-.5-7.6,1.3-15.1,3.6-22.4,5.8-17.7,16.8-31.6,31.1-43.1,18.1-14.5,39-23.1,61.8-26.7,30-4.8,59-1.3,86.6,11.8,16.2,7.6,30.2,18.1,41.2,32.3,10.6,13.5,16.7,28.8,17.5,46.5h0ZM558.6,615.4c-4.2-2.2-8.1-4.7-12.3-6.4-8.2-3.4-16.9-.9-21.3,5.8-4.5,6.8-3.5,14.8,3.1,21.2,2.9,2.9,6.3,5.7,10,7.5,4.7,2.3,5.6,5.7,4.7,10.2-.2,1.2-.6,2.5-.8,3.7-.6,3.9-1.5,7.9-1.5,11.8,0,7.8,5.8,13.7,13.6,14.1,2.9.1,5.8.2,8.7,0,7.8-.4,13.7-6.4,13.4-14.2-.2-5.2-1.4-10.4-2.2-15.6-.9-5.4,0-6.6,4.4-9.8,4.4-3.1,8.8-6.4,12.4-10.4,4.3-4.9,4.6-11,1.8-16.8-2.8-5.9-7.8-9.1-14.5-8.7-3.5.2-7.1,1.1-10.4,2.4-3.2,1.2-6,3.3-9.2,5.1h0Z" fill="#fff"/>
  <path d="M558.6,615.3c3.2-1.8,6-3.9,9.2-5.1,3.3-1.3,6.9-2.2,10.4-2.4,6.7-.5,11.7,2.8,14.5,8.7,2.8,5.8,2.5,12-1.8,16.8-3.6,4-8,7.3-12.4,10.4-4.5,3.2-5.3,4.4-4.4,9.8.8,5.2,2,10.3,2.2,15.6.3,7.8-5.7,13.8-13.4,14.2-2.9.2-5.8.2-8.7,0-7.8-.4-13.7-6.3-13.6-14.1,0-4,.9-7.9,1.5-11.8.2-1.2.5-2.5.8-3.7.9-4.5,0-7.8-4.7-10.2-3.7-1.8-7-4.6-10-7.5-6.6-6.5-7.6-14.4-3.1-21.2,4.4-6.7,13.1-9.2,21.3-5.8,4.2,1.7,8,4.2,12.3,6.4h0Z"/>
</svg>