<svg xmlns="http://www.w3.org/2000/svg" width="64" height="64" viewBox="0 0 48 48"><linearGradient id="a" x1="27.485" x2="6.886" y1="18.788" y2="37.422" gradientUnits="userSpaceOnUse"><stop offset="0" stop-color="#d300dc"/><stop offset="1" stop-color="#8700ff"/></linearGradient><path fill="url(#a)" fill-rule="evenodd" d="m33.484 40.48-.674.35A18.9 18.9 0 0 1 24 43c-2.96 0-5.88-.69-8.52-2.02a2.004 2.004 0 0 0-1.8 3.58A23 23 0 0 0 24 47c3.48 0 6.908-.788 10.029-2.301a1.993 1.993 0 0 0 1.581 2.261 2 2 0 0 0 2.35-1.57l.908-4.539c.216-1.082-.41-2.361-1.398-2.854l-3.58-1.787a2 2 0 0 0-2.675.895 2.004 2.004 0 0 0 .895 2.685zM11.73 4.545l.12-.075a23.01 23.01 0 0 1 23.28-.6 2.002 2.002 0 0 1-1.94 3.5A18.9 18.9 0 0 0 24 5c-3.535 0-6.991.982-9.993 2.847l.733.293a2.006 2.006 0 0 1 1.115 2.605 2 2 0 0 1-2.595 1.115L8.567 9.983c-1.025-.41-1.681-1.622-1.464-2.704L8.04 2.61a2 2 0 0 1 3.92.78zM7.29 33.05a1.997 1.997 0 1 1-3.51 1.91A22.9 22.9 0 0 1 1 24c0-2.92.55-5.81 1.63-8.51a2.002 2.002 0 0 1 3.72 1.48C5.45 19.2 5 21.59 5 24c0 3.16.79 6.27 2.29 9.05m34.52-15.69a2 2 0 0 1 1.175-2.57 2 2 0 0 1 2.575 1.18C46.51 18.54 47 21.26 47 24c0 3.62-.85 7.2-2.5 10.43a2 2 0 0 1-3.56-1.82C42.3 29.94 43 26.99 43 24c0-2.27-.4-4.51-1.19-6.64M7.29 39.11a2 2 0 1 1 4.001.001 2 2 0 0 1-4.001-.001m30.28-28.77a2 2 0 1 1 4.001.001 2 2 0 0 1-4.001-.001M16 24c0-2.12.84-4.16 2.34-5.66S21.88 16 24 16s4.16.84 5.66 2.34S32 21.88 32 24s-.84 4.16-2.34 5.66S26.12 32 24 32s-4.16-.84-5.66-2.34S16 26.12 16 24m-4 0c0-3.18 1.27-6.24 3.51-8.49C17.76 13.27 20.82 12 24 12s6.24 1.27 8.49 3.51C34.73 17.76 36 20.82 36 24s-1.27 6.24-3.51 8.49C30.24 34.73 27.18 36 24 36s-6.24-1.27-8.49-3.51A12.05 12.05 0 0 1 12 24m9.5 0a2.5 2.5 0 0 1 5 0 2.5 2.5 0 0 1-5 0"/></svg>