<svg xmlns="http://www.w3.org/2000/svg" xml:space="preserve" style="fill-rule:evenodd;clip-rule:evenodd;stroke-linejoin:round;stroke-miterlimit:2" viewBox="0 0 1024 1024"><path d="M1024 256v512c0 141.29-114.71 256-256 256H256C114.71 1024 0 909.29 0 768V256C0 114.71 114.71 0 256 0h512c141.29 0 256 114.71 256 256"/><g transform="matrix(.84881 0 0 .99485 137.981 -117.165)"><ellipse cx="440.637" cy="632.425" rx="385.833" ry="329.197" style="fill:#008623"/><clipPath id="a"><ellipse cx="440.637" cy="632.425" rx="385.833" ry="329.197"/></clipPath><g clip-path="url(#a)"><path d="m440.637 477.209 157.549 77.608v155.218l-157.549 77.609-157.548-77.61V554.818z"/><path d="m426.884 484.965 257.653-126.92 11.78 17.41-257.652 126.92zM180.797 891.787l257.653-126.92 11.781 17.41-257.653 126.92zm389.086 69.615 4.321-337.55 23.561.22-4.321 337.55zm263.868-270.914-259.599-124 11.51-17.541 259.6 124zM54.805 592.564l317.531 131.098-10.263 18.097L44.542 610.66zm242.229-275.591 10.181 264.897-23.563.308-10.181-264.897z"/></g></g></svg>