<svg xmlns="http://www.w3.org/2000/svg" width="148" height="148" style="shape-rendering:geometricPrecision;text-rendering:geometricPrecision;image-rendering:optimizeQuality;fill-rule:evenodd;clip-rule:evenodd"><path fill="#fcfcfc" d="M-.5-.5h148v148H-.5V-.5Z" style="opacity:1"/><path fill="#252d25" d="M121.5 77.5v-2a51.56 51.56 0 0 1 1-7 20.691 20.691 0 0 0 1-5c.321-5.526-.012-10.86-1-16 .362-3.581-.638-6.581-3-9 .321-3.077-.679-5.41-3-7-.669-3.349-2.336-6.016-5-8a39.32 39.32 0 0 0-11-10c-1.21-.432-2.21-1.099-3-2-5.257-3.818-11.257-5.485-18-5v-1c-2.141-.663-4.475-.997-7-1-4.261-.09-8.261.578-12 2-4.778 1.225-9.111 3.225-13 6-1.527-.073-2.527.594-3 2a34.481 34.481 0 0 0-8 6c0-.667-.333-1-1-1C48.577 5.865 64.576.698 83.5 4c36.108 12.383 48.775 36.883 38 73.5Z" style="opacity:1"/><path fill="#558d06" d="M79.5 5.5c-5.354.069-10.687.402-16 1h-3c3.739-1.422 7.739-2.09 12-2 2.525.003 4.859.337 7 1Z" style="opacity:1"/><path fill="#59f504" d="M79.5 6.5c6.743-.485 12.743 1.182 18 5-1.322-.17-2.489.163-3.5 1-4.066-3.398-8.4-3.731-13-1-.912 5.056-1.579 10.39-2 16-2.152 1.777-1.985 3.277.5 4.5-2.391.691-2.391 1.691 0 3a7.291 7.291 0 0 1-3 2c2.777.061 4.777 1.228 6 3.5a40.588 40.588 0 0 0-14-2c0-.667.333-1 1-1a64.953 64.953 0 0 1 5-2.5l-2-2c1.333-6 1.333-12 0-18a22.686 22.686 0 0 0 2-8.5h5Z" style="opacity:1"/><path fill="#1bfe0f" d="M97.5 11.5c.79.901 1.79 1.568 3 2-.71 3.36.624 5.193 4 5.5-1.661 4.34-4.494 7.84-8.5 10.5a14.73 14.73 0 0 1-1.5 5 62.482 62.482 0 0 0-7.5 8c-1.049-1.607-2.549-2.273-4.5-2-1.223-2.272-3.223-3.439-6-3.5a7.291 7.291 0 0 0 3-2c-2.391-1.309-2.391-2.309 0-3-2.485-1.223-2.652-2.723-.5-4.5.421-5.61 1.088-10.944 2-16 4.6-2.731 8.934-2.398 13 1 1.011-.837 2.178-1.17 3.5-1Z" style="opacity:1"/><path fill="#d1fa03" d="M60.5 6.5h3c-.843 6.59.49 12.923 4 19a313.98 313.98 0 0 0 2 12c-.667 0-1 .333-1 1a26.326 26.326 0 0 1-5 2c-2.627-5.23-4.293-10.896-5-17h-3c.373-3.482-.627-6.482-3-9-1.342-1.505-3.008-2.171-5-2 3.889-2.775 8.222-4.775 13-6Z" style="opacity:1"/><path fill="#f9ce03" d="M44.5 14.5a14.692 14.692 0 0 1-3 3.5c4.355 1.187 6.689 4.02 7 8.5a172.56 172.56 0 0 1 9.5 13c.816 1.323 1.983 1.99 3.5 2a6.541 6.541 0 0 1-3 3c-1.649-2.252-3.815-3.919-6.5-5-3.319-6.068-8.152-10.401-14.5-13a20.677 20.677 0 0 0-1-5v-1a34.481 34.481 0 0 1 8-6Z" style="opacity:1"/><path fill="#f9f701" d="M47.5 12.5c1.992-.171 3.658.495 5 2 2.373 2.518 3.373 5.518 3 9h3c.707 6.104 2.373 11.77 5 17l-2 1c-1.517-.01-2.684-.677-3.5-2a172.56 172.56 0 0 0-9.5-13c-.311-4.48-2.645-7.313-7-8.5a14.692 14.692 0 0 0 3-3.5c.473-1.406 1.473-2.073 3-2Z" style="opacity:1"/><path fill="#93fd03" d="M79.5 5.5v1h-5a22.686 22.686 0 0 1-2 8.5c1.333 6 1.333 12 0 18l2 2a64.953 64.953 0 0 0-5 2.5 313.98 313.98 0 0 1-2-12c-3.51-6.077-4.843-12.41-4-19a161.586 161.586 0 0 1 16-1Z" style="opacity:1"/><path fill="#352122" d="M35.5 19.5c.667 0 1 .333 1 1v1c-2.864 1.523-4.531 3.857-5 7-1.406.473-2.073 1.473-2 3-3.757 4.595-5.757 9.928-6 16-1.31 6.901-1.31 13.901 0 21 .39 4.04 1.724 7.707 4 11 .826 2.985 2.159 5.651 4 8 .58 2.249 1.913 3.915 4 5 .548 2.032 1.881 3.032 4 3-.412 2.473.588 3.806 3 4 1.552 2.612 3.886 3.945 7 4 1.135 1.713 2.802 2.38 5 2-1.419.951-3.085 1.284-5 1-14.487-8.34-23.987-20.674-28.5-37-3.895-19.455.938-36.121 14.5-50Z" style="opacity:1"/><path fill="#04fc47" d="M100.5 13.5a39.32 39.32 0 0 1 11 10c1.13 1.815 1.796 3.815 2 6a8.435 8.435 0 0 0-4 .5 26.762 26.762 0 0 1-10 6.5c-.886.825-1.219 1.825-1 3a29.77 29.77 0 0 1-7 2v3c-1.291-.237-2.291.096-3 1h-1c-1.36-2.027-3.027-3.694-5-5 1.951-.273 3.451.393 4.5 2a62.482 62.482 0 0 1 7.5-8 14.73 14.73 0 0 0 1.5-5c4.006-2.66 6.839-6.16 8.5-10.5-3.376-.307-4.71-2.14-4-5.5Z" style="opacity:1"/><path fill="#fc8601" d="M31.5 28.5a178.606 178.606 0 0 1 6 6 157.507 157.507 0 0 1 14 8.5 43.978 43.978 0 0 1 4 4.5 167.064 167.064 0 0 1-14-5 59.044 59.044 0 0 0-6-5c-1.189-.929-2.522-1.262-4-1l-2-5c-.073-1.527.594-2.527 2-3Z" style="opacity:1"/><path fill="#faa203" d="M36.5 21.5a20.677 20.677 0 0 1 1 5c6.348 2.599 11.181 6.932 14.5 13 2.685 1.081 4.851 2.748 6.5 5a6.541 6.541 0 0 1-3 3 43.978 43.978 0 0 0-4-4.5 157.507 157.507 0 0 0-14-8.5 178.606 178.606 0 0 0-6-6c.469-3.143 2.136-5.477 5-7Z" style="opacity:1"/><path fill="#03fb78" d="M111.5 23.5c2.664 1.984 4.331 4.651 5 8v5a106.639 106.639 0 0 0-13 3v3a270.376 270.376 0 0 0-12.5 4 11.104 11.104 0 0 1-2.5-1c.709-.904 1.709-1.237 3-1v-3a29.77 29.77 0 0 0 7-2c-.219-1.175.114-2.175 1-3a26.762 26.762 0 0 0 10-6.5 8.435 8.435 0 0 1 4-.5c-.204-2.185-.87-4.185-2-6Z" style="opacity:1"/><path fill="#f96003" d="m29.5 31.5 2 5c1.478-.262 2.811.071 4 1a59.044 59.044 0 0 1 6 5 167.064 167.064 0 0 0 14 5v2l-2 1c-8.202-3.786-16.869-6.286-26-7.5a9.468 9.468 0 0 1-1.5-2.5 49.78 49.78 0 0 1-2.5 7c.243-6.072 2.243-11.405 6-16Z" style="opacity:1"/><path fill="#04fba2" d="M116.5 31.5c2.321 1.59 3.321 3.923 3 7v5c-7.584.362-14.251 2.862-20 7.5a8.434 8.434 0 0 1-4 .5c-1.333 1.333-2.667 1.333-4 0-.738-2.44-2.071-4.44-4-6h1c.765.423 1.598.757 2.5 1a270.376 270.376 0 0 1 12.5-4v-3a106.639 106.639 0 0 1 13-3v-5Z" style="opacity:1"/><path fill="#04fac3" d="M119.5 38.5c2.362 2.419 3.362 5.419 3 9a145.179 145.179 0 0 1-24.5 5c-1.07-.028-1.903-.361-2.5-1a8.434 8.434 0 0 0 4-.5c5.749-4.638 12.416-7.138 20-7.5v-5Z" style="opacity:1"/><path fill="#02fee7" d="M122.5 47.5a32.462 32.462 0 0 1-.5 8 736.682 736.682 0 0 0-29.5 0c.172-.992-.162-1.658-1-2v-2c1.333 1.333 2.667 1.333 4 0 .597.639 1.43.972 2.5 1a145.179 145.179 0 0 0 24.5-5Z" style="opacity:1"/><path fill="#fd1d05" d="M53.5 50.5v9a649.437 649.437 0 0 1-30 4v-16a49.78 49.78 0 0 0 2.5-7c.374.916.874 1.75 1.5 2.5 9.131 1.214 17.798 3.714 26 7.5Z" style="opacity:1"/><path fill="#03f3fa" d="M122.5 47.5c.988 5.14 1.321 10.474 1 16-1.29-.558-2.123-1.558-2.5-3-.807 3.949-1.307 3.949-1.5 0-9.015 0-18.015-.334-27-1v-4a736.682 736.682 0 0 1 29.5 0c.497-2.646.664-5.313.5-8Z" style="opacity:1"/><path fill="#05cdf7" d="M91.5 53.5c.838.342 1.172 1.008 1 2v4c8.985.666 17.985 1 27 1 .193 3.949.693 3.949 1.5 0 .377 1.442 1.21 2.442 2.5 3a20.691 20.691 0 0 1-1 5c-.65.304-1.317.637-2 1a148.143 148.143 0 0 0-20-5.5 40.936 40.936 0 0 0-9-.5v-10Z" style="opacity:1"/><path fill="#f50226" d="M23.5 47.5v16a649.437 649.437 0 0 0 30-4v4c-5.721-.752-10.721.748-15 4.5-5.047 1.278-10.047 1.445-15 .5-1.31-7.099-1.31-14.099 0-21Z" style="opacity:1"/><path fill="#f5034e" d="M55.5 49.5c-1.333 5.333-1.333 10.667 0 16-6.284 2.1-12.618 4.266-19 6.5-1.537 1.11-2.203 2.61-2 4.5h-6c.237 1.291-.096 2.291-1 3-2.276-3.293-3.61-6.96-4-11 4.953.945 9.953.778 15-.5 4.279-3.752 9.279-5.252 15-4.5v-13l2-1Z" style="opacity:1"/><path fill="#07aafa" d="M91.5 63.5a40.936 40.936 0 0 1 9 .5 148.143 148.143 0 0 1 20 5.5c.683-.363 1.35-.696 2-1a51.56 51.56 0 0 0-1 7l-2 2c-5.475-3.215-11.475-5.382-18-6.5a31.007 31.007 0 0 0-9-5.5c-.797.457-1.13 1.124-1 2-.667 0-1-.333-1-1-.237-1.291.096-2.291 1-3Z" style="opacity:1"/><path fill="#038cf9" d="M119.5 77.5c.098 2.053-.569 3.72-2 5-.974-1.135-2.141-2.135-3.5-3l-1 1a4.934 4.934 0 0 1-.5-3c-6.646-1.824-12.646-4.99-18-9.5a4.932 4.932 0 0 0-3-.5c-.13-.876.203-1.543 1-2a31.007 31.007 0 0 1 9 5.5c6.525 1.118 12.525 3.285 18 6.5Z" style="opacity:1"/><path fill="#0475f6" d="M90.5 66.5c0 .667.333 1 1 1a4.932 4.932 0 0 1 3 .5c5.354 4.51 11.354 7.676 18 9.5a4.934 4.934 0 0 0 .5 3l1-1c1.359.865 2.526 1.865 3.5 3-.61 1.934-1.61 3.6-3 5 .009-1.808-.491-3.475-1.5-5-2.29.775-4.124-.058-5.5-2.5a8.435 8.435 0 0 0-4-.5v-4c-5.056-1.071-9.39-3.405-13-7a186.2 186.2 0 0 1-3 2c.238-1.904 1.238-3.238 3-4Z" style="opacity:1"/><path fill="#045bfb" d="M114.5 87.5c-.945 2.945-2.945 4.945-6 6-.321-1.548-1.321-2.215-3-2-.254-2.514-1.087-4.848-2.5-7a54.472 54.472 0 0 1-9.5-8.5 4.932 4.932 0 0 0-3-.5v-4h-3v-1a186.2 186.2 0 0 0 3-2c3.61 3.595 7.944 5.929 13 7v4a8.435 8.435 0 0 1 4 .5c1.376 2.442 3.21 3.275 5.5 2.5 1.009 1.525 1.509 3.192 1.5 5Z" style="opacity:1"/><path fill="#fc007f" d="M55.5 65.5c.61.891.943 1.891 1 3a810.323 810.323 0 0 0-7 7.5c-3.714.513-7.047 1.68-10 3.5.219 1.175-.114 2.175-1 3-2.654 1.468-4.987 3.135-7 5-1.841-2.349-3.174-5.015-4-8 .904-.709 1.237-1.709 1-3h6c-.203-1.89.463-3.39 2-4.5 6.382-2.234 12.716-4.4 19-6.5Z" style="opacity:1"/><path fill="#0f0788" d="M81.5 77.5c1.767 2.292 2.767 4.958 3 8-1.767-2.292-2.767-4.958-3-8Z" style="opacity:1"/><path fill="#fb01a3" d="m56.5 68.5 5 5c-1.915-.284-3.581.049-5 1-3.333-.667-5.333.667-6 4-.825.886-1.825 1.219-3 1 .17 1.322-.163 2.489-1 3.5A26.6 26.6 0 0 1 36 89.5a4.932 4.932 0 0 0-.5 3c-2.087-1.085-3.42-2.751-4-5 2.013-1.865 4.346-3.532 7-5 .886-.825 1.219-1.825 1-3 2.953-1.82 6.286-2.987 10-3.5a810.323 810.323 0 0 1 7-7.5Z" style="opacity:1"/><path fill="#f702ba" d="M56.5 74.5a328.397 328.397 0 0 1-13.5 18 11.362 11.362 0 0 1-1.5 3.5c.837 1.011 1.17 2.178 1 3.5-2.412-.194-3.412-1.527-3-4-2.119.032-3.452-.968-4-3a4.932 4.932 0 0 1 .5-3A26.6 26.6 0 0 0 46.5 83c.837-1.011 1.17-2.178 1-3.5 1.175.219 2.175-.114 3-1 .667-3.333 2.667-4.667 6-4Z" style="opacity:1"/><path fill="#ee03f2" d="M63.5 75.5c1.098 1.1 1.265 2.434.5 4a331.293 331.293 0 0 0-9.5 26c-2.198.38-3.865-.287-5-2-.683-1.676-2.017-2.343-4-2-.177-2.48.823-4.314 3-5.5-.837-1.011-1.17-2.178-1-3.5a4.932 4.932 0 0 0 3-.5 48.053 48.053 0 0 1 4-7.5c1.024-1.353 2.357-2.02 4-2a51.639 51.639 0 0 0 1-7h4Z" style="opacity:1"/><path fill="#12193a" d="M121.5 75.5v2a61.458 61.458 0 0 1-8.5 16c-1.11 1.537-2.61 2.204-4.5 2v-2c3.055-1.055 5.055-3.055 6-6 1.39-1.4 2.39-3.066 3-5 1.431-1.28 2.098-2.947 2-5l2-2Z" style="opacity:1"/><path fill="#0334f7" d="M87.5 71.5h3v4a4.932 4.932 0 0 1 3 .5 54.472 54.472 0 0 0 9.5 8.5c1.413 2.152 2.246 4.486 2.5 7 1.679-.215 2.679.452 3 2v2l-2 1a44.093 44.093 0 0 0-3-2c.826-.951.992-1.951.5-3a95.103 95.103 0 0 0-11-9c-.607-3.774-2.774-6.108-6.5-7 1.394-1.187 1.227-1.853-.5-2-1.975.966-3.475 2.299-4.5 4-.904-.709-1.237-1.709-1-3a49.96 49.96 0 0 0 7-3Z" style="opacity:1"/><path fill="#f701d9" d="m61.5 73.5 2 2h-4a51.639 51.639 0 0 1-1 7c-1.643-.02-2.976.647-4 2a48.053 48.053 0 0 0-4 7.5 4.932 4.932 0 0 1-3 .5c-.17 1.322.163 2.489 1 3.5-2.177 1.186-3.177 3.02-3 5.5 1.983-.343 3.317.324 4 2-3.114-.055-5.448-1.388-7-4 .17-1.322-.163-2.489-1-3.5a11.362 11.362 0 0 0 1.5-3.5 328.397 328.397 0 0 0 13.5-18c1.419-.951 3.085-1.284 5-1Z" style="opacity:1"/><path fill="#0a0cf7" d="M106.5 96.5c-3.128 3.47-6.795 6.136-11 8-1.459.067-2.792-.266-4-1-2.692-5.722-5.025-11.722-7-18-.233-3.042-1.233-5.708-3-8 1.025-1.701 2.525-3.034 4.5-4 1.727.147 1.894.813.5 2 3.726.892 5.893 3.226 6.5 7a95.103 95.103 0 0 1 11 9c.492 1.049.326 2.049-.5 3a44.093 44.093 0 0 1 3 2Z" style="opacity:1"/><path fill="#120f31" d="M108.5 95.5c-.703 2.216-2.036 4.049-4 5.5a24.6 24.6 0 0 1-10 5.5l1-2c4.205-1.864 7.872-4.53 11-8l2-1Z" style="opacity:1"/><path fill="#212021" d="M68.5 38.5c4.8-.15 9.467.516 14 2 1.973 1.306 3.64 2.973 5 5 1.929 1.56 3.262 3.56 4 6v12c-.904.709-1.237 1.709-1 3-1.762.762-2.762 2.096-3 4v1a49.96 49.96 0 0 1-7 3c-.237 1.291.096 2.291 1 3 .233 3.042 1.233 5.708 3 8 1.975 6.278 4.308 12.278 7 18v3h3c-2.07 1.287-2.404 2.953-1 5l-2 2a11.077 11.077 0 0 1 2 3.5v10c-2.667 2-2.667 4 0 6a3.942 3.942 0 0 1-1 2 108.484 108.484 0 0 0-9 2c-3.588 6.129-8.921 8.129-16 6-3.034-1.191-4.7-3.358-5-6.5a30.463 30.463 0 0 1-9-1.5 3.942 3.942 0 0 1-1-2c2.373-5.375 2.373-10.709 0-16a28.501 28.501 0 0 0 1-9.5c-1.599.268-2.932-.066-4-1 1.915.284 3.581-.049 5-1a331.293 331.293 0 0 1 9.5-26c.765-1.566.598-2.9-.5-4l-2-2-5-5a5.728 5.728 0 0 0-1-3c-1.333-5.333-1.333-10.667 0-16v-2a6.541 6.541 0 0 0 3-3 6.541 6.541 0 0 0 3-3l2-1a26.326 26.326 0 0 0 5-2Z" style="opacity:1"/><path fill="#6e6f6e" d="M58.5 99.5a4.932 4.932 0 0 0 .5 3c8.598-1.328 17.098-1.328 25.5 0-9.04-.248-18.04.085-27 1-.268-1.599.066-2.932 1-4Z" style="opacity:1"/><path fill="#f6f6f6" d="M84.5 102.5c-8.402-1.328-16.902-1.328-25.5 0a4.932 4.932 0 0 1-.5-3c2.75-8.74 5.75-17.406 9-26-1.808.009-3.475-.491-5-1.5-9.775-10.69-9.109-20.69 2-30 9.345-3.206 17.178-1.04 23.5 6.5 4.26 11.623 1.094 20.456-9.5 26.5A677.743 677.743 0 0 1 87 97.5c.493 1.634.66 3.301.5 5h-3Z" style="opacity:1"/><path fill="#0f058e" d="M91.5 103.5c1.208.734 2.541 1.067 4 1l-1 2h-3v-3Z" style="opacity:1"/></svg>