<svg xmlns="http://www.w3.org/2000/svg" width="266.667" height="266.667" version="1.0" viewBox="0 0 200 200"><path d="M.1 100.1 0 200h200V0l-99.9.1L.1.2zm101.4-57c7.8 2.4 13.4 6.9 16.7 13.7 3.4 6.9 3.2 19.7-.4 26.7-3.3 6.3-6.9 9.8-13.3 12.7-4.4 2-7 2.3-22.7 2.6l-17.8.4v35.9l-8.2-.3-8.3-.3-.3-45.5c-.1-25 0-46.1.3-46.8.3-.9 6-1.2 23.9-1.2 20.8 0 24.1.2 30.1 2.1M143 77.5V85h10.1l-.3 3.7c-.3 3.8-.3 3.8-5.1 4.1l-4.7.3.2 16.2.3 16.2 4.8.3 4.8.3-.3 4.2-.3 4.2h-7.6c-12.6 0-13.9-2.5-13.9-26.3V93h-8v-8h8V70h12z"/><path d="M64 69.9V85h14.8c12 0 15.3-.3 18.2-1.8 9.4-4.7 10-19.9 1.1-25.4-3.2-2.1-5.1-2.3-18.8-2.6L64 54.8z"/></svg>