<svg xmlns="http://www.w3.org/2000/svg" width="128" height="128" style="shape-rendering:geometricPrecision;text-rendering:geometricPrecision;image-rendering:optimizeQuality;fill-rule:evenodd;clip-rule:evenodd"><circle cx="64" cy="64" r="56.75" style="shape-rendering:geometricPrecision;text-rendering:geometricPrecision;image-rendering:optimizeQuality;fill-rule:evenodd;clip-rule:evenodd;fill:#fff;fill-opacity:1;stroke:#000;stroke-width:.999998;stroke-opacity:1"/><path fill="#888" d="M36.5 11.5q-1.185 1.352-3 2-.166-.925-1-1.5a8.4 8.4 0 0 1 4-.5" style="opacity:.008"/><path fill="#cecece" d="M29.5 14.5q-.482 2.322-3 2 .71-2.11 3-2" style="opacity:.004"/><path fill="#fbfbfb" d="M98.5 14.5q2 1 0 0" style="opacity:.004"/><path fill="#010201" d="M107.5 23.5q2 1 0 0" style="opacity:.004"/><path fill="#777" d="M109.5 28.5h3v3q-3 0-3-3" style="opacity:.012"/><path fill="#b6b6b6" d="M120.5 49.5q1.509 1.343 0 2-2-1 0-2" style="opacity:.004"/><path fill="#dbdbdb" d="M114.5 93.5q-3.752-.016-.5-2 .696.891.5 2" style="opacity:.004"/><path fill="#83f3a2" d="M67.5 103.5q-4.328.46-8-1v-17q3.966-.51 7 2a65 65 0 0 1 1 16" style="opacity:1"/><path fill="#90eba5" d="M69.5 79.5v2q.945 11.614-2 22a65 65 0 0 0-1-16q-3.034-2.51-7-2v17q-1.152-1.144-1.5-3-.75-9.987-.5-20 .984 1.166 2.5 2 2.13-2.883 5.5-4 2.05 1.088 4 2" style="opacity:1"/><path fill="#acc362" d="m67.5 75.5 2 2v2a89 89 0 0 1-4-2q-3.37 1.117-5.5 4-1.516-.834-2.5-2v-2h2q3.755-1.71 8-2" style="opacity:1"/><path fill="#8ad39f" d="M84.5 55.5h-2a228 228 0 0 0-12.5-13 98.4 98.4 0 0 0-.5 14q-3.847 6.453 0 13v8l-2-2q-.537-6.015-1.5-12-1.986 4.116-6.5 4v10h-2v-13q8.75 1.745 8-7 2.92-7.344 2-16 6.58-1.096 8.5 5 4.557 4.305 8.5 9" style="opacity:1"/><path fill="#82f2a0" d="M67.5 75.5q-4.245.29-8 2v-10q4.514.116 6.5-4 .963 5.985 1.5 12" style="opacity:1"/><path fill="#86eba3" d="M101.5 57.5q2.837 3.503 1.5 8-1.665 2.306-4.5 2a61 61 0 0 1 .5-11q1.005 1.128 2.5 1" style="opacity:1"/><path fill="#94e2aa" d="M29.5 53.5v2q-1.475 5.697-1 12-5.344-.096-5-5.5.89-5.655 6-8.5" style="opacity:1"/><path fill="#7fc796" d="M31.5 58.5h5v4h-5z" style="opacity:1"/><path fill="#9adaab" d="M89.5 45.5a102 102 0 0 1 12 12q-1.495.128-2.5-1a61 61 0 0 0-.5 11h-1v-11q0-1-1-1z" style="opacity:1"/><path fill="#a4e5b6" d="M73.5 29.5q-4.088-1.82-7-5.5-3-1-6 0a429 429 0 0 1-31 29.5 1290 1290 0 0 1 30-30.5 29 29 0 0 0 4-1.5q6.33 2.33 10 8" style="opacity:1"/><path fill="#a9e7b7" d="M73.5 29.5q4.5 3.5 8 8-5.5-2.5-8-8" style="opacity:1"/><path fill="#83f4a0" d="M73.5 29.5q2.5 5.5 8 8 4.5 3.5 8 8l7 10h-4q-1.936-.356-3 1v2q-.925.165-1.5 1a14.7 14.7 0 0 0-3.5-3v-1a107 107 0 0 0-8.5-9q-1.92-6.096-8.5-5 .92 8.656-2 16a5.73 5.73 0 0 1-3-1q-1.602-1.401-4-1a72.4 72.4 0 0 0-.5-12q-6.957-3.378-8 4a15.8 15.8 0 0 1-5.5 3.5q-1.083 2.625-3 4.5-1.917.423-3 2l-2-1q-3.16-1.453-7-1v-2a429 429 0 0 0 31-29.5q3-1 6 0 2.912 3.68 7 5.5" style="opacity:1"/><path fill="#a2ebbb" d="M58.5 55.5h-1a50.4 50.4 0 0 0-.5-10q-2.26-1.552-4.5.5a74 74 0 0 0-8 9.5h-3q1.917-1.875 3-4.5a15.8 15.8 0 0 0 5.5-3.5q1.043-7.378 8-4 .749 5.979.5 12" style="opacity:1"/><path fill="#dcdbdc" d="M69.5 4.5h1q.195 1.314-1 2-1.444-.705 0-2" style="opacity:.004"/><path fill="#fdfdfd" d="M86.5 117.5q-.76 2.408-2 1 .513-1.257 2-1" style="opacity:.004"/><text xml:space="preserve" x="25.5" y="72.658" style="font-size:19.4522px;fill:#000;stroke:none;stroke-width:36.6614;stroke-linejoin:round;stroke-miterlimit:4.8;stroke-opacity:1;paint-order:markers stroke fill" transform="scale(1.0554 .9475)"><tspan x="25.5" y="72.658" style="font-weight:700;stroke-width:36.6614">PUPGUI</tspan></text></svg>