<svg xmlns="http://www.w3.org/2000/svg" width="256" height="256"><defs><linearGradient id="a" x1="200.788" x2="197.17" y1="249.007" y2="11.232" gradientUnits="userSpaceOnUse"><stop offset="0" stop-color="#589632"/><stop offset="1" stop-color="#93B023"/></linearGradient><linearGradient id="b" x1="129.939" x2="126.351" y1="252.718" y2="16.928" gradientUnits="userSpaceOnUse"><stop offset="0" stop-color="#589632"/><stop offset="1" stop-color="#93B023"/></linearGradient></defs><path fill="#EE7913" d="M137.607 136.899h34.437l-29.146-28.816H107.19v34.309l30.417 30.316z"/><path fill="url(#a)" d="m248.061 212.048-61.443-60.742H152.01v35.761l58.881 58.682h37.17z"/><path fill="#F0E64A" d="M152.01 151.306h34.608l-14.574-14.407h-34.437v35.809l14.403 14.359z"/><path fill="url(#b)" d="M144.826 199.3a72.214 72.214 0 0 1-16.238 1.854c-40.027 0-74.072-32.914-74.072-75.59 0-42.677 33.666-74.869 74.072-74.869 40.401 0 72.57 32.187 72.57 74.869a81.35 81.35 0 0 1-2.461 19.945l37.047 37.042c9.552-16.736 14.896-36.197 14.896-57.274 0-65.778-52.493-115.026-122.801-115.026-69.99 0-122.479 48.927-122.479 115.026 0 66.421 52.489 116.321 122.479 116.321 18.066 0 34.952-3.323 50.077-9.371l-33.09-32.927z"/><path fill="#FFF" fill-opacity=".172" d="m107.19 108.083 140.871 137.666v-33.701l-61.443-60.742-14.574-14.408-29.146-28.815z"/></svg>