<svg xmlns="http://www.w3.org/2000/svg" xml:space="preserve" width="800" height="800" viewBox="0 0 318.188 318.188"><path d="M283.149 52.723 232.624 2.197A7.495 7.495 0 0 0 227.321 0H40.342a7.5 7.5 0 0 0-7.5 7.5v303.188a7.5 7.5 0 0 0 7.5 7.5h237.504a7.5 7.5 0 0 0 7.5-7.5V58.025c0-1.989-.79-3.896-2.197-5.302zm-48.328-27.117 24.918 24.919h-24.918V25.606zM47.842 15h171.98v10.263H47.842V15zm222.504 288.188H47.842V40.263h171.98v17.763a7.5 7.5 0 0 0 7.5 7.5h43.024v237.662z"/><path d="M221.57 257.513c-1.268 5.995-2.046 10.206-2.33 12.635-.24-1.882-.722-4.726-1.443-8.532-.722-3.807-1.434-7.166-2.133-10.075l-4.102-18.148H199.55l-4.233 18.148c-.635 2.517-1.318 5.688-2.051 9.517-.733 3.829-1.242 6.859-1.526 9.091-.438-3.15-1.247-7.384-2.428-12.7l-5.219-24.056H171.59l11.88 47.979h15.325c2.801-12.58 4.393-19.756 4.775-21.528.383-1.772.771-3.714 1.165-5.825s.678-3.877.854-5.3c.218 1.751.563 3.927 1.033 6.53s.815 4.344 1.034 5.219l4.595 20.904h15.325l11.814-47.979h-12.503l-5.317 24.12zM159.093 61.169c-38.729 0-70.237 31.509-70.237 70.237 0 38.728 31.508 70.237 70.237 70.237s70.237-31.509 70.237-70.237c0-38.728-31.508-70.237-70.237-70.237zm13.575 16.692c13.651 3.463 25.281 12.025 32.759 23.528h-46.343l13.584-23.528zm3.765 53.545-8.67 15.017h-17.34l-8.67-15.017 8.67-15.017h17.34l8.67 15.017zm-20.15-55.166-23.19 40.166-13.563-23.492c9.431-9.69 22.371-15.949 36.753-16.674zm-50.335 70.183a55.03 55.03 0 0 1-2.092-15.017c0-9.046 2.2-17.582 6.07-25.126l23.177 40.143h-27.155zm39.571 38.528c-13.651-3.463-25.281-12.025-32.759-23.528h46.343l-13.584 23.528zm16.384 1.621 23.19-40.166 13.563 23.492c-9.43 9.691-22.371 15.95-36.753 16.674zm52.428-55.166c0 9.046-2.2 17.582-6.07 25.126l-23.177-40.143h27.155a55.074 55.074 0 0 1 2.092 15.017zM137.426 233.195l-15.386 47.351-13.428-20.079c5.426-3.041 8.139-7.34 8.139-12.898 0-9.451-6.52-14.177-19.559-14.177h-15.72v47.979h12.963v-17.459h3.282l10.174 17.459h28.124l2.429-8.992h15.588l2.362 8.992h14.178l-15.851-48.176h-17.295zm-40.562 20.971h-2.429v-10.962h2.56c4.441 0 6.662 1.652 6.662 4.956 0 4.004-2.264 6.006-6.793 6.006zm44.271 7.58c1.991-7.525 3.276-12.568 3.856-15.129.579-2.559.968-4.397 1.165-5.514.219 1.204.673 3.195 1.362 5.973.69 2.779 1.274 5.043 1.756 6.794l2.067 7.876h-10.206z"/></svg>