<?xml version="1.0" encoding="UTF-8" standalone="no"?>
<svg
   width="1047.1578"
   height="1122.9199"
   viewBox="0 0 1047.1578 1122.9199"
   fill="none"
   version="1.1"
   id="svg37"
   xmlns="http://www.w3.org/2000/svg"
   xmlns:svg="http://www.w3.org/2000/svg">
  <g
     filter="url(#filter1_d_290_49)"
     id="g25"
     transform="matrix(1.6558472,0,0,1.6800118,-323.38696,-339.86639)"
     style="stroke-width:0.599561">
    <path
       d="M 511.603,215 C 435.282,215 233.207,257.638 233.207,437.09 233.207,601.433 420.804,808 511.603,808 602.403,808 790,601.226 790,437.09 790.207,257.431 587.925,215 511.603,215 Z"
       fill="#617070"
       id="path4"
       style="stroke-width:0.599561" />
    <path
       d="m 511.603,215 c -30.404,0 -80.664,6.83 -130.304,26.287 -22.752,8.9 -45.09,20.491 -65.566,35.186 4.137,22.147 10.342,43.259 18.615,63.543 18.201,-7.865 37.23,-14.281 56.672,-19.042 26.475,-6.416 54.19,-9.935 82.733,-9.935 94.109,0 179.531,37.05 242.614,97.281 1.655,1.656 3.31,3.312 4.964,4.968 0.828,0.828 1.655,1.655 2.482,2.483 1.035,1.035 1.862,1.863 2.896,2.898 0.827,0.828 1.655,1.863 2.482,2.691 0.827,1.035 1.862,1.863 2.689,2.898 0.827,0.828 1.655,1.862 2.482,2.69 0.827,1.035 1.861,2.07 2.689,3.105 0.827,0.828 1.654,1.656 2.275,2.691 1.448,1.863 3.102,3.518 4.55,5.381 0.827,1.035 1.448,1.863 2.275,2.898 0.828,1.035 1.655,2.07 2.482,3.105 0.828,1.035 1.655,2.07 2.482,3.104 0.828,1.035 1.448,2.07 2.275,3.105 0.828,1.035 1.655,2.07 2.276,3.105 0.827,1.035 1.447,2.07 2.275,3.105 0.827,1.034 1.448,2.069 2.275,3.104 1.034,1.449 2.068,2.898 3.102,4.347 1.035,1.449 2.069,3.105 3.103,4.553 0.62,1.035 1.241,2.07 2.068,3.105 0.828,1.242 1.448,2.277 2.275,3.519 0.621,1.035 1.241,1.863 1.862,2.898 0.827,1.241 1.448,2.276 2.275,3.518 0.62,1.035 1.241,1.863 1.655,2.898 0.827,1.242 1.448,2.484 2.275,3.726 0.414,0.828 1.034,1.655 1.448,2.483 0.827,1.449 1.654,3.105 2.482,4.554 1.654,-6.83 2.895,-13.868 4.136,-20.698 C 788.966,461.721 790,449.095 790,436.676 790.207,257.431 587.925,215 511.603,215 Z"
       fill="#2194cd"
       id="path5"
       style="stroke-width:0.460259" />
    <path
       d="m 385.436,385.552 c 8.273,-5.174 16.96,-9.728 25.647,-14.075 -8.274,-15.937 -15.099,-32.909 -20.063,-50.503 -19.649,4.761 -38.471,11.177 -56.672,19.042 4.55,10.97 9.721,21.733 15.306,32.289 12.409,3.519 24.406,7.866 35.782,13.247 z"
       fill="#774b29"
       id="path6"
       style="stroke-width:0.460259" />
    <path
       d="m 534.975,343.328 c 68.876,0 132.166,24.424 181.599,65.199 -63.084,-60.231 -148.505,-97.281 -242.614,-97.281 -28.543,0 -56.259,3.519 -82.733,9.935 4.964,17.594 11.789,34.566 20.063,50.503 37.436,-18.214 79.423,-28.356 123.685,-28.356 z"
       fill="#765533"
       id="path7"
       style="stroke-width:0.599561" />
    <path
       d="m 411.29,371.477 c -8.894,4.347 -17.374,8.901 -25.648,14.075 27.302,12.626 52.122,29.805 73.219,50.71 C 439.832,417.427 423.7,395.487 411.29,371.477 Z"
       fill="#b1665c"
       id="path8"
       style="stroke-width:0.460259" />
    <path
       d="m 780.486,490.905 c -0.414,-0.828 -0.828,-1.655 -1.448,-2.483 -0.621,-1.242 -1.448,-2.484 -2.275,-3.726 -0.621,-1.035 -1.035,-1.863 -1.655,-2.898 -0.621,-1.242 -1.448,-2.484 -2.275,-3.518 -0.621,-1.035 -1.241,-1.863 -1.862,-2.898 -0.827,-1.242 -1.448,-2.277 -2.275,-3.519 -0.62,-1.035 -1.241,-2.07 -2.068,-3.105 -1.034,-1.448 -2.069,-3.104 -3.103,-4.553 -1.034,-1.449 -2.068,-2.898 -3.102,-4.347 -0.828,-1.035 -1.448,-2.07 -2.275,-3.104 -0.828,-1.035 -1.448,-2.07 -2.276,-3.105 -0.827,-1.035 -1.654,-2.07 -2.275,-3.105 -0.827,-1.035 -1.448,-2.07 -2.275,-3.105 -0.827,-1.034 -1.655,-2.069 -2.482,-3.104 -0.827,-1.035 -1.655,-2.07 -2.482,-3.105 -0.827,-1.035 -1.448,-1.863 -2.275,-2.898 -1.448,-1.863 -3.102,-3.518 -4.55,-5.381 -0.828,-0.828 -1.448,-1.863 -2.275,-2.691 -0.828,-1.035 -1.862,-2.07 -2.689,-3.105 -0.828,-0.828 -1.655,-1.863 -2.482,-2.69 -0.828,-1.035 -1.862,-1.863 -2.689,-2.898 -0.827,-0.828 -1.655,-1.863 -2.482,-2.691 -1.034,-1.035 -1.862,-2.07 -2.896,-2.898 -0.827,-0.828 -1.654,-1.656 -2.482,-2.483 -1.654,-1.656 -3.309,-3.312 -4.964,-4.968 -49.433,-40.775 -112.723,-65.199 -181.599,-65.199 -44.262,0 -86.249,10.142 -123.685,28.149 12.616,24.01 28.542,45.95 47.571,64.785 0.414,0.414 1.034,1.035 1.448,1.449 22.751,22.768 41.16,49.883 54.19,79.688 13.651,31.461 21.097,66.027 21.097,102.248 0,48.848 -13.444,94.384 -37.023,133.296 -5.998,16.352 -13.444,31.875 -22.338,46.571 12.824,5.381 25.027,8.279 35.782,8.279 79.01,0 230.618,-155.65 269.296,-304.262 0.62,-2.69 1.448,-5.381 2.068,-8.279 -1.241,-1.242 -2.068,-2.691 -2.895,-4.347 z"
       fill="#b96753"
       id="path9"
       style="stroke-width:0.460259" />
    <path
       d="m 349.86,372.098 c 4.964,9.108 10.342,18.008 16.133,26.494 6.412,-4.554 12.824,-9.107 19.443,-13.247 -11.376,-5.174 -23.373,-9.521 -35.576,-13.247 z"
       fill="#98721e"
       id="path10"
       style="stroke-width:0.460259" />
    <path
       d="m 514.499,662.286 c 0,31.875 -5.584,62.508 -16.133,90.864 23.579,-38.912 37.023,-84.448 37.023,-133.296 0,-36.428 -7.446,-70.994 -21.097,-102.248 -33.3,-13.247 -64.118,-31.875 -90.799,-54.643 55.638,48.434 91.006,119.842 91.006,199.323 z"
       fill="#cb873d"
       id="path11"
       style="stroke-width:0.460259" />
    <path
       d="m 458.654,436.469 c -21.097,-20.905 -45.917,-38.084 -73.218,-50.71 -6.619,4.14 -13.238,8.486 -19.443,13.247 15.72,23.182 34.334,44.087 55.431,62.508 0.621,0.621 1.241,1.035 2.069,1.656 26.888,22.975 57.499,41.603 90.799,54.643 -13.03,-30.012 -31.438,-56.92 -54.19,-79.688 -0.414,-0.828 -0.827,-1.242 -1.448,-1.656 z"
       fill="#c58846"
       id="path12"
       style="stroke-width:0.460259" />
    <path
       d="m 423.493,462.963 c -0.621,-0.621 -1.241,-1.035 -2.069,-1.656 -22.544,-19.249 -48.398,-34.773 -76.528,-45.536 -29.37,-11.177 -61.222,-17.386 -94.522,-17.386 -2.689,0 -5.378,0 -8.067,0.207 -2.068,0 -3.929,0.207 -5.998,0.207 -0.413,2.07 -0.62,3.933 -1.034,6.002 -1.448,10.142 -2.275,20.905 -2.275,32.289 0,37.671 9.928,77.411 26.061,116.531 44.676,106.595 136.716,207.394 207.453,241.96 3.102,1.656 6.412,2.898 9.514,4.14 8.894,-14.696 16.547,-30.219 22.338,-46.571 10.342,-28.356 16.133,-58.989 16.133,-90.864 0,-79.481 -35.368,-150.889 -91.006,-199.323 z"
       fill="#65c32f"
       id="path13"
       style="stroke-width:0.460259" />
    <path
       d="m 780.486,490.905 c -0.414,-0.828 -0.828,-1.655 -1.448,-2.483 -0.621,-1.242 -1.448,-2.484 -2.275,-3.726 -0.621,-1.035 -1.035,-1.863 -1.655,-2.898 -38.057,20.905 -81.699,32.91 -128.029,32.91 -72.805,0 -138.785,-29.391 -186.77,-76.79 22.751,22.768 41.16,49.883 54.19,79.688 36.609,14.489 76.321,22.354 118.101,22.354 53.57,0 104.037,-13.04 148.506,-36.222 0.621,-2.691 1.448,-5.381 2.068,-8.279 -1.034,-1.449 -1.861,-2.898 -2.688,-4.554 z"
       fill="#b1665c"
       id="path14"
       style="stroke-width:0.460259" />
    <path
       d="m 771.178,475.382 c -0.827,-1.242 -1.448,-2.277 -2.275,-3.519 -0.621,-1.035 -1.241,-2.07 -2.068,-3.105 -1.035,-1.448 -2.069,-3.104 -3.103,-4.553 -1.034,-1.449 -2.068,-2.898 -3.102,-4.347 -0.828,-1.035 -1.448,-2.07 -2.276,-3.104 -0.827,-1.035 -1.447,-2.07 -2.275,-3.105 -0.827,-1.035 -1.654,-2.07 -2.275,-3.105 -0.827,-1.035 -1.448,-2.07 -2.275,-3.105 -0.827,-1.034 -1.655,-2.069 -2.482,-3.104 -0.827,-1.035 -1.655,-2.07 -2.482,-3.105 -0.827,-1.035 -1.448,-1.863 -2.275,-2.898 -1.448,-1.863 -3.103,-3.518 -4.551,-5.381 -0.827,-0.828 -1.447,-1.863 -2.275,-2.691 -0.827,-1.035 -1.861,-2.07 -2.688,-3.105 -0.828,-0.828 -1.655,-1.863 -2.482,-2.69 -0.828,-1.035 -1.862,-1.863 -2.689,-2.898 -0.828,-0.828 -1.655,-1.863 -2.482,-2.691 -1.034,-1.035 -1.862,-2.07 -2.896,-2.898 -0.827,-0.828 -1.655,-1.656 -2.482,-2.483 -1.655,-1.656 -3.309,-3.312 -4.964,-4.968 -49.433,-40.775 -112.724,-65.199 -181.599,-65.199 -44.262,0 -86.249,10.142 -123.686,28.149 12.617,24.01 28.543,45.95 47.572,64.785 0.414,0.414 1.034,1.035 1.448,1.449 47.985,47.399 113.964,76.79 186.769,76.79 46.538,0 90.179,-12.005 128.03,-32.91 -0.621,-1.242 -1.448,-2.483 -2.276,-3.518 -0.62,-0.828 -1.24,-1.863 -1.861,-2.691 z"
       fill="#b06e64"
       id="path15"
       style="stroke-width:0.460259" />
    <path
       d="m 391.227,320.974 c -6.412,-22.975 -9.928,-47.191 -9.928,-72.236 0,-2.484 0,-4.968 0.207,-7.451 -22.752,8.9 -45.09,20.491 -65.566,35.186 4.136,22.147 10.341,43.259 18.615,63.543 17.994,-7.865 37.023,-14.281 56.672,-19.042 z"
       fill="#2169a5"
       id="path16"
       style="stroke-width:0.460259" />
    <path
       d="m 775.108,481.798 c 0.62,1.035 1.241,1.863 1.655,2.898 0.827,1.242 1.447,2.484 2.275,3.726 0.413,0.828 1.034,1.655 1.448,2.483 0.827,1.449 1.654,3.105 2.482,4.554 1.654,-6.83 2.895,-13.868 4.136,-20.698 -3.93,2.484 -7.859,4.76 -11.996,7.037 z"
       fill="#2169a5"
       id="path17"
       style="stroke-width:0.460259" />
    <path
       d="m 466.514,795.581 c 3.102,1.656 6.412,2.898 9.514,4.14 8.894,-14.696 16.547,-30.219 22.338,-46.571 -9.101,15.317 -19.856,29.391 -31.852,42.431 z"
       fill="#5cb23f"
       id="path18"
       style="stroke-width:0.460259" />
    <path
       d="m 236.516,398.592 c -0.414,2.07 -0.62,3.933 -1.034,6.002 2.275,-2.069 4.55,-4.139 7.032,-6.209 -2.068,0 -4.136,0.207 -5.998,0.207 z"
       fill="#44c741"
       id="path19"
       style="stroke-width:0.460259" />
    <path
       d="m 259.268,553.621 c 14.892,-54.022 45.089,-101.628 85.628,-137.85 -29.37,-11.177 -61.222,-17.386 -94.522,-17.386 -2.689,0 -5.378,0 -8.067,0.207 -2.275,2.07 -4.55,4.14 -7.032,6.209 -1.448,10.142 -2.275,20.905 -2.275,32.289 0.207,37.464 9.928,77.411 26.268,116.531 z"
       fill="#52b810"
       id="path20"
       style="stroke-width:0.460259" />
    <path
       d="m 334.348,340.016 c -14.892,6.417 -29.163,13.868 -43.021,22.354 20.063,1.035 39.712,4.554 58.327,9.935 -5.585,-10.556 -10.756,-21.319 -15.306,-32.289 z"
       fill="#864b1c"
       id="path21"
       style="stroke-width:0.460259" />
    <path
       d="m 242.307,398.385 c 15.306,-13.454 31.646,-25.459 49.02,-36.222 -4.551,-0.207 -9.308,-0.414 -13.858,-0.414 -10.548,0 -21.097,0.621 -31.439,1.863 -4.136,10.763 -7.446,22.561 -9.721,34.773 2.069,0.207 4.137,0 5.998,0 z"
       fill="#898f54"
       id="path22"
       style="stroke-width:0.460259" />
    <path
       d="m 344.896,415.771 c 6.826,-6.002 13.651,-11.591 21.097,-16.972 -5.791,-8.486 -11.169,-17.386 -16.133,-26.494 -18.615,-5.381 -38.264,-8.9 -58.326,-9.935 -17.374,10.556 -33.714,22.768 -49.02,36.222 2.689,0 5.378,-0.207 8.067,-0.207 33.3,0 65.152,6.002 94.315,17.386 z"
       fill="#a47215"
       id="path23"
       style="stroke-width:0.460259" />
    <path
       d="m 365.993,398.799 c -7.239,5.381 -14.271,10.97 -21.097,16.972 28.13,10.763 53.984,26.287 76.528,45.536 -21.097,-18.421 -39.711,-39.326 -55.431,-62.508 z"
       fill="#cb873d"
       id="path24"
       style="stroke-width:0.460259" />
    <path
       d="m 461.55,439.16 c -1.448,-1.449 -2.689,-2.691 -3.723,-3.725 l -0.207,-0.207 c -18.408,-18.629 -34.127,-40.155 -46.33,-63.751 37.436,-18.007 79.423,-28.149 123.685,-28.149 69.082,0 132.166,24.424 181.599,65.199 -63.084,-60.438 -148.505,-97.488 -242.614,-97.488 -28.543,0 -56.259,3.312 -82.94,9.935 -19.649,4.761 -38.471,11.177 -56.672,19.042 4.55,10.97 9.721,21.733 15.306,32.289 4.963,9.108 10.341,18.008 16.132,26.494 15.513,22.975 34.128,43.673 54.811,61.887 0.207,0.207 0.621,0.621 0.827,0.828 1.035,0.828 1.862,1.656 2.896,2.484 0,0 0,0 0.207,0.207 55.017,48.433 89.765,119.428 89.765,198.494 0,31.875 -5.584,62.509 -15.926,90.865 23.579,-38.912 37.023,-84.448 37.023,-133.296 0,-36.428 -7.446,-70.994 -21.097,-102.248 -12.617,-29.805 -30.611,-56.299 -52.742,-78.86 z"
       fill="#ffffff"
       id="path25"
       style="stroke-width:0.460259" />
  </g>
  <defs
     id="defs37">
    <filter
       id="filter1_d_290_49"
       x="195.3"
       y="202.3"
       width="632.40002"
       height="668.40002"
       filterUnits="userSpaceOnUse"
       color-interpolation-filters="sRGB">
      <feFlood
         flood-opacity="0"
         result="BackgroundImageFix"
         id="feFlood31" />
      <feColorMatrix
         in="SourceAlpha"
         type="matrix"
         values="0 0 0 0 0 0 0 0 0 0 0 0 0 0 0 0 0 0 127 0"
         result="hardAlpha"
         id="feColorMatrix32" />
      <feOffset
         dy="25"
         id="feOffset32" />
      <feGaussianBlur
         stdDeviation="18.85"
         id="feGaussianBlur32" />
      <feComposite
         in2="hardAlpha"
         operator="out"
         id="feComposite32" />
      <feColorMatrix
         type="matrix"
         values="0 0 0 0 0 0 0 0 0 0 0 0 0 0 0 0 0 0 0.09 0"
         id="feColorMatrix33" />
      <feBlend
         mode="normal"
         in2="BackgroundImageFix"
         result="effect1_dropShadow_290_49"
         id="feBlend33" />
      <feBlend
         mode="normal"
         in="SourceGraphic"
         in2="effect1_dropShadow_290_49"
         result="shape"
         id="feBlend34" />
    </filter>
  </defs>
</svg>
