<svg xmlns="http://www.w3.org/2000/svg" width="64" height="64" style="shape-rendering:geometricPrecision;text-rendering:geometricPrecision;image-rendering:optimizeQuality;fill-rule:evenodd;clip-rule:evenodd"><path fill="#526071" d="M30.5 4.5v2q-1 0-1 1-1.46 3.672-1 8-1.356-1.063-1-3a98.3 98.3 0 0 0-19.5 1q-.577-2.545.5-5 3.063-3.495 8-3.5a98 98 0 0 1 14-.5" style="opacity:1"/><path fill="#2e819e" d="M30.5 4.5q8.29-.482 16 1h-3v5a400 400 0 0 1-13-1z" style="opacity:1"/><path fill="#0499bd" d="M46.5 5.5q9.582-.414 11 9a41 41 0 0 1-.5 9q-.174-5.355-5.5-5-10.383-1.765-21 0v-9q6.216.585 13 1v-5z" style="opacity:1"/><path fill="#4f6271" d="M8.5 8.5q-1.077 2.455-.5 5a98.3 98.3 0 0 1 19.5-1q-.356 1.937 1 3v4q-9.027-1.056-18.5 0a39 39 0 0 0-4.5-2v-3q-.058-3.884 3-6" style="opacity:1"/><path fill="#505c6e" d="M5.5 17.5q2.295.85 4.5 2 9.473-1.056 18.5 0 .608 5.322-1.5 10a217 217 0 0 0-21.5 0z" style="opacity:1"/><path fill="#0c8ab2" d="M30.5 6.5v12q10.617-1.765 21 0 5.326-.355 5.5 5 .747-4.473.5-9 2 18 0 36v-7q.427-7.995-2-15.5a25.7 25.7 0 0 0-5.5-1.5q-3.655.415-7.5 1a7.25 7.25 0 0 1-2.5-2q-4.2.938-8.5 2-.741 2.289-2 4v-24q0-1 1-1" style="opacity:1"/><path fill="#028ec7" d="M57.5 43.5q-1.356-1.064-1-3a15.4 15.4 0 0 0-1-7q-4.805-1.055-9.5-2l-9 2a6.3 6.3 0 0 0-3-1q-3.225 1-4.5 4v-5q1.259-1.711 2-4 4.3-1.062 8.5-2a7.25 7.25 0 0 0 2.5 2q3.845-.585 7.5-1a25.7 25.7 0 0 1 5.5 1.5q2.427 7.505 2 15.5" style="opacity:1"/><path fill="#495668" d="M29.5 7.5v47q-1.453-3.16-1-7a29.1 29.1 0 0 1-9 .5q.835-.575 1-1.5 2.848-1.72 7-.5 1.402-3.57 1-7.5a244 244 0 0 1-22 0q.452 3.84-1 7v-16a217 217 0 0 1 21.5 0q2.108-4.678 1.5-10v-4q-.46-4.328 1-8" style="opacity:1"/><path fill="#0188c7" d="M56.5 40.5q-12.133-3.376-25-1a42 42 0 0 1-2 6v-9q1.275-3 4.5-4a6.3 6.3 0 0 1 3 1l9-2q4.695.945 9.5 2a15.4 15.4 0 0 1 1 7" style="opacity:1"/><path fill="#4a5063" d="M20.5 46.5q-3.378 1.25-6.5 0-3.631 3.924-4.5 0-2.047 1.96-4 0v-1q1.452-3.16 1-7a244 244 0 0 0 22 0q.402 3.93-1 7.5-4.152-1.22-7 .5" style="opacity:1"/><path fill="#0280c6" d="M56.5 40.5q-.356 1.936 1 3v7h-1v-4q-12.786-.423-23.5-1-3.372 4.276-2.5 10-1 0-1-1v-9a42 42 0 0 0 2-6q12.867-2.376 25 1" style="opacity:1"/><path fill="#424b5b" d="M5.5 46.5q1.953 1.96 4 0 .869 3.924 4.5 0 3.122 1.25 6.5 0-.165.925-1 1.5a29.1 29.1 0 0 0 9-.5q-.453 3.84 1 7 0 1 1 1l1 2q-9.513.25-19-.5-6.847-3.084-7-10.5" style="opacity:1"/><path fill="#066fcb" d="M56.5 50.5q-1.636 4.392-6 6.5-9.487.75-19 .5l-1-2q-.872-5.724 2.5-10 10.714.577 23.5 1z" style="opacity:1"/><path fill="#0b0f13" d="M5.5 14.5v32q.153 7.416 7 10.5 9.487.75 19 .5 9.513.25 19-.5 4.364-2.108 6-6.5h1q-1.572 6.33-8 8.5a289 289 0 0 1-34 0Q8.165 58.166 5 51.5q-1.24-18.76.5-37" style="opacity:1"/></svg>