<svg xmlns="http://www.w3.org/2000/svg" width="64" height="64" style="shape-rendering:geometricPrecision;text-rendering:geometricPrecision;image-rendering:optimizeQuality;fill-rule:evenodd;clip-rule:evenodd"><path fill="#526071" d="M30.5 4.5v2c-.667 0-1 .333-1 1-.973 2.448-1.306 5.115-1 8-.904-.709-1.237-1.709-1-3a98.284 98.284 0 0 0-19.5 1c-.384-1.697-.218-3.363.5-5 2.042-2.33 4.708-3.496 8-3.5 4.655-.5 9.322-.666 14-.5Z" style="opacity:1"/><path fill="#2e819e" d="M30.5 4.5c5.526-.321 10.86.012 16 1h-3v5c-4.522-.277-8.856-.61-13-1v-5Z" style="opacity:1"/><path fill="#0499bd" d="M46.5 5.5c6.388-.276 10.055 2.724 11 9a40.936 40.936 0 0 1-.5 9c-.116-3.57-1.949-5.236-5.5-5-6.922-1.177-13.922-1.177-21 0v-9c4.144.39 8.478.723 13 1v-5h3Z" style="opacity:1"/><path fill="#4f6271" d="M8.5 8.5c-.718 1.637-.884 3.303-.5 5a98.284 98.284 0 0 1 19.5-1c-.237 1.291.096 2.291 1 3v4c-6.018-.704-12.185-.704-18.5 0a39.173 39.173 0 0 0-4.5-2v-3c-.039-2.589.961-4.589 3-6Z" style="opacity:1"/><path fill="#505c6e" d="M5.5 17.5c1.53.567 3.03 1.233 4.5 2 6.315-.704 12.482-.704 18.5 0 .405 3.548-.095 6.881-1.5 10a216.582 216.582 0 0 0-21.5 0v-12Z" style="opacity:1"/><path fill="#0c8ab2" d="M30.5 6.5v12c7.078-1.177 14.078-1.177 21 0 3.551-.236 5.384 1.43 5.5 5 .498-2.982.665-5.982.5-9 1.333 12 1.333 24 0 36v-7c.285-5.33-.382-10.496-2-15.5a25.72 25.72 0 0 0-5.5-1.5c-2.437.276-4.937.61-7.5 1a7.253 7.253 0 0 1-2.5-2c-2.8.625-5.634 1.292-8.5 2-.494 1.526-1.161 2.859-2 4v-24c0-.667.333-1 1-1Z" style="opacity:1"/><path fill="#028ec7" d="M57.5 43.5c-.904-.709-1.237-1.709-1-3a15.42 15.42 0 0 0-1-7c-3.204-.704-6.37-1.37-9.5-2l-9 2a6.288 6.288 0 0 0-3-1c-2.15.667-3.65 2-4.5 4v-5c.839-1.141 1.506-2.474 2-4 2.866-.708 5.7-1.375 8.5-2a7.253 7.253 0 0 0 2.5 2c2.563-.39 5.063-.724 7.5-1a25.72 25.72 0 0 1 5.5 1.5c1.618 5.004 2.285 10.17 2 15.5Z" style="opacity:1"/><path fill="#495668" d="M29.5 7.5v47c-.968-2.107-1.302-4.44-1-7a29.134 29.134 0 0 1-9 .5c.556-.383.89-.883 1-1.5 1.899-1.146 4.232-1.313 7-.5.935-2.38 1.268-4.88 1-7.5a243.51 243.51 0 0 1-22 0c.302 2.56-.032 4.893-1 7v-16c7.022-.356 14.19-.356 21.5 0 1.405-3.119 1.905-6.452 1.5-10v-4c-.306-2.885.027-5.552 1-8Z" style="opacity:1"/><path fill="#0188c7" d="M56.5 40.5c-8.089-2.25-16.422-2.584-25-1a41.744 41.744 0 0 1-2 6v-9c.85-2 2.35-3.333 4.5-4a6.288 6.288 0 0 1 3 1l9-2c3.13.63 6.296 1.296 9.5 2a15.42 15.42 0 0 1 1 7Z" style="opacity:1"/><path fill="#4a5063" d="M20.5 46.5c-2.252.833-4.419.833-6.5 0-2.421 2.616-3.921 2.616-4.5 0-1.365 1.307-2.698 1.307-4 0v-1c.968-2.107 1.302-4.44 1-7a243.51 243.51 0 0 0 22 0c.268 2.62-.065 5.12-1 7.5-2.768-.813-5.101-.646-7 .5Z" style="opacity:1"/><path fill="#0280c6" d="M56.5 40.5c-.237 1.291.096 2.291 1 3v7h-1v-4c-8.524-.282-16.357-.615-23.5-1-2.248 2.851-3.081 6.184-2.5 10-.667 0-1-.333-1-1v-9a41.744 41.744 0 0 0 2-6c8.578-1.584 16.911-1.25 25 1Z" style="opacity:1"/><path fill="#424b5b" d="M5.5 46.5c1.302 1.307 2.635 1.307 4 0 .579 2.616 2.079 2.616 4.5 0 2.081.833 4.248.833 6.5 0-.11.617-.444 1.117-1 1.5 3.007.301 6.007.135 9-.5-.302 2.56.032 4.893 1 7 0 .667.333 1 1 1l1 2c-6.342.166-12.675 0-19-.5-4.565-2.056-6.898-5.556-7-10.5Z" style="opacity:1"/><path fill="#066fcb" d="M56.5 50.5c-1.091 2.928-3.091 5.094-6 6.5-6.325.5-12.658.666-19 .5l-1-2c-.581-3.816.252-7.149 2.5-10 7.143.385 14.976.718 23.5 1v4Z" style="opacity:1"/><path fill="#0b0f13" d="M5.5 14.5v32c.102 4.944 2.435 8.444 7 10.5 6.325.5 12.658.666 19 .5 6.342.166 12.675 0 19-.5 2.909-1.406 4.909-3.572 6-6.5h1c-1.048 4.22-3.715 7.053-8 8.5a289.236 289.236 0 0 1-34 0c-4.89-.556-8.39-3.056-10.5-7.5-.827-12.507-.66-24.84.5-37Z" style="opacity:1"/></svg>