<svg xmlns="http://www.w3.org/2000/svg" width="256" height="256"><rect width="235.128" height="239.253" x="10.405" y="8.458" ry="26.89" style="fill:#3b2c2c;fill-opacity:1;fill-rule:evenodd;stroke:none"/><path d="M110.64 172.04c-1.137-.833-1.657-2.86-2.188-8.517-1.194-12.73-1.432-13.202-12.65-25.034-5.54-5.843-11.474-12.986-13.188-15.873-10.343-17.424-9.373-40.685 2.444-58.638 15.02-22.818 46.317-30.446 71.458-17.417 8.846 4.585 18.281 14.28 22.742 23.368 4.653 9.48 6.148 16.994 5.663 28.463-.68 16.11-4.483 23.919-18.994 39.01-5.51 5.731-9.59 10.754-10.612 13.064-.913 2.064-2.187 7.51-2.832 12.102-.644 4.592-1.56 8.737-2.033 9.212-1.39 1.392-37.942 1.631-39.81.26zm24.907-32.248c2.201-3.258 8.14-10.565 13.199-16.237 10.566-11.849 13.298-16.623 13.916-24.313 1.152-14.358-5.071-26.316-17.19-33.027-4.294-2.377-4.866-2.473-14.78-2.473-9.165 0-10.75.216-14.26 1.944-5.772 2.842-12.277 9.161-14.86 14.436-4.392 8.97-4.638 21.452-.58 29.406.944 1.852 5.976 8.202 11.181 14.11 5.205 5.91 11.334 13.516 13.62 16.904 2.286 3.388 4.516 5.938 4.954 5.667.439-.27 2.599-3.159 4.8-6.417zM120.626 186.256c-5.31-.227-10.017-.784-10.46-1.238-1.847-1.89-1.874-4.993-.058-6.636 1.657-1.5 3.077-1.614 20.053-1.614 20.198 0 21.982.362 21.982 4.466 0 1.29-.613 2.854-1.363 3.477-1.67 1.387-16.298 2.137-30.154 1.545zM115.201 198.172c-2.065-1.447-2.497-5.388-.75-6.838 2.464-2.045 28.622-2.165 31.889-.146 1.584.98 1.245 5.94-.492 7.211-2.284 1.67-28.213 1.477-30.647-.227zM120.02 210.484c-1.477-1.249-1.786-4.652-.537-5.904 1.761-1.766 20.46-1.87 22.796-.126 1.132.845.89 5.13-.352 6.226-1.632 1.442-20.168 1.276-21.908-.196z" style="fill:red;fill-opacity:1;fill-rule:evenodd;stroke:none"/></svg>