<svg xmlns="http://www.w3.org/2000/svg" xml:space="preserve" style="fill-rule:evenodd;clip-rule:evenodd;stroke-linejoin:round;stroke-miterlimit:2" viewBox="0 0 800 800"><circle cx="400" cy="400" r="400" style="fill:#1b1b1b"/><path d="M400 0c220.766 0 400 179.234 400 400S620.766 800 400 800 0 620.766 0 400 179.234 0 400 0m0 36c200.897 0 364 163.103 364 364S600.897 764 400 764 36 600.897 36 400 199.103 36 400 36" style="fill:url(#a)"/><path d="M538.74 269.872a10.94 10.94 0 0 0-10.019-15.327h-14.165a7.81 7.81 0 0 0-7.153 4.672l-100.25 228.328a7.812 7.812 0 0 1-14.307 0l-100.25-228.328a7.81 7.81 0 0 0-7.153-4.672h-14.164a10.938 10.938 0 0 0-10.019 15.327l117.871 269.034a10.94 10.94 0 0 0 10.018 6.549h21.701c4.344 0 8.275-2.57 10.018-6.549z" style="fill:#fff"/><path d="M408.119 395.312a9.376 9.376 0 0 1-16.238 0l-73.153-126.704a9.373 9.373 0 0 1 8.119-14.063h146.306a9.376 9.376 0 0 1 8.119 14.063z" style="fill:url(#b)"/><defs><linearGradient id="a" x1="0" x2="1" y1="0" y2="0" gradientTransform="rotate(90 200 200)scale(800)" gradientUnits="userSpaceOnUse"><stop offset="0" style="stop-color:#f04e98;stop-opacity:1"/><stop offset=".5" style="stop-color:#5f65d4;stop-opacity:1"/><stop offset="1" style="stop-color:#4e98f0;stop-opacity:1"/></linearGradient><linearGradient id="b" x1="0" x2="1" y1="0" y2="0" gradientTransform="matrix(0 289.317 -282.535 0 400 254.545)" gradientUnits="userSpaceOnUse"><stop offset="0" style="stop-color:#f04e98;stop-opacity:1"/><stop offset=".5" style="stop-color:#5f65d4;stop-opacity:1"/><stop offset="1" style="stop-color:#4e98f0;stop-opacity:1"/></linearGradient></defs></svg>