<svg height="512" width="512" xmlns="http://www.w3.org/2000/svg"><path d="m409.6950073 176.3123474v-44.7584381h-409.6950073v204.1337433h102.3049927v44.7584229h409.6950073v-204.133728h-102.3049927zm-316.1932449 41.6950989c-7.7170486 2.8201904-12.8992691 14.948761-12.8992691 32.5546722v51.5790558l-21.0725403 4.5798645v-81.9329529c0-12.1303711-2.8146515-16.2194519-12.7881241-17.1300964v-4.0830841h33.4366074l-.0000839 15.6517944c2.9379807-6.9564362 5.011055-12.2763367 13.1449814-15.6133118 4.6394424-1.9033966 14.8721313-2.2368317 21.680336 2.6170959l-8.3877563 16.9813385c-4.8757859-4.6159514-9.0469895-6.6907348-13.1141511-5.2043761zm41.4154434 15.6154022s9.7583618 6.9415283 27.7661743 15.6939392c18.0077209 8.7523346 13.231308 29.5356903 13.231308 29.5356903-5.98172 18.9169617-37.9932404 35.8813782-64.2206802 11.6330261l16.5730515-12.111084s30.2458954 22.0715942 31.5526428 2.0716553c1.087204-16.6404724-29.143158-15.8661804-40.027977-34.2453766-4.9665604-8.3861847-4.8177948-22.3048248 4.9962997-33.7248383 4.8860016-5.6855774 10.3494415-10.5278778 17.510376-11.3893433 26.1060638-3.1405945 36.9627838 12.9118347 36.9627838 12.9118347l-14.1523285 13.7342682c-13.9102783-13.9682007-27.0812531-15.7985992-32.2911072-9.5467529-3.5687866 4.2825013-3.098999 9.7147218 2.0994568 15.4369813zm91.3429108 83.0015717c-7.3679199 17.3131409-24.0043488 24.8274231-46.7211456 23.3160095v-4.0446167c27.787323-7.2424927 21.9776459-11.4200745 40.5352478-43.7769165l-40.9219208-87.0780029 18.795517-3.8067017 31.1673126 70.8995972 30.6914215-71.375412 20.5574646 6.197525zm150.126297-17.4274598c-5.8884583 0-28.7880249 1.0111694-28.7880249 1.0111694s7.1375122-48.4758453 7.3753967-60.4312286c-.530365-15.9035034-7.250824-25.5052185-24.2676086-24.6245422-8.0339661.7735748-13.8674316 6.5836487-14.6617126 21.2937317-2.289978 42.4088898-3.6579895 62.810318-3.6579895 62.810318l-21.1747131 2.1412964c2.6508789-30.0143127 3.670166-59.1709595 3.3308716-87.6133728 0-3.6281891-5.6217346-6.8131256-13.8980103-8.6987915v-5.8914795h34.3204651l-1.5897827 17.1134796s14.0357971-17.9693298 30.8921814-17.3930664c20.8773193.7137909 30.1646423 13.8153687 31.4052124 26.9442596 2.1412048 22.6616974-6.8996277 66.85495-6.8996277 66.85495h12.3717346c-.0000001 0 1.1301269 6.4832763-4.7583924 6.4832763zm47.0566101-29.2704162c7.0514832 11.0701294 13.5212708 24.1713867 35.9173584 11.4265747 7.4944458-4.1040649 4.1040649 6.066864 4.1040649 6.066864s-16.7684021 13.0260315-29.9776306 13.0260315c-17.7279968 0-29.2640076-13.5613098-33.1896362-25.249054-5.1867676-15.4425049-6.7923889-31.4607697-5.2201538-42.336441 4.4172058-30.5556793 38.9450684-33.7676239 38.9450684-33.7676239 9.9789429-.0170135 21.0809021 6.84021 32.7434998 17.1301117l-15.5531921 10.6492462s-15.6059265-19.0738525-26.1704102-15.103714c-4.8630371 1.8275299-8.1481934 8.639801-9.190918 20.8708496-1.360901 15.9644013 2.0934447 28.6551972 7.5919494 37.2871552z"/></svg>