<svg height="100" width="100" xmlns="http://www.w3.org/2000/svg"><path d="m18 42c4 4 16 20 16 20s-2 8 0 13c-1 0-23-23-23-23s-17-16-6-33c6 10 7 17 13 23z" fill="#444" stroke="#333" stroke-width="1.5"/><path d="m4 23c1-8 11-10 16-9s12 2 23 11l28 23-37 14-21-20c-5.5-7-10-12-9-19z" fill="#555" stroke="#444" stroke-linejoin="round" stroke-width="2"/><path d="m72 48-38 14s-3 10 1 14l36-15c4-5 1-13 1-13z" fill="#444" stroke="#222"/><path d="m70 53-32 12v8l20 22 34-17v-8z" fill="#c5c3ba" stroke="#333"/><path d="m38 65 20 21v8l-20-21z" fill="#757368"/><path d="m58 86-19-20" fill="none" stroke="#fff"/><path d="m59 86 32-15v6l-32 16z" fill="#444"/><path d="m87 74 2 2-28 14-2-3z" fill="#eee"/><path d="m66 64 8-3 5 4-8 4zm-16 7 9-4 5 5-9 4z" fill="#555" stroke="#555"/><path d="m25.8 28.6 8.8 2.7-3.6 1.7 9.8 10.3 2.3-7-2.1-2.3-1.4.7-2.8-3.1 4.4-2 2.5 2.7-1.5.9 2.8 2.8-2.9 8.6 3.4 3.8s2-.3 3.4 1.3c1 1.1.8 2.1-.3 2.9-1.4.6-2.9.9-4.4-.7-1.1-1.5.1-2.5.1-2.5l-2.3-2.4-9.5 2.7-2.6-2.9s-2.4.1-4.1-1.7c-.9-1.3-.3-3.2 1.4-3.7 2.1-.8 3.3.1 4.3 1.1 1.8 1.8-.2 3.8-.2 3.8l1.7 1.7 7.7-2.2-11-12-3.6 1.8z" fill="#eee"/></svg>