<?xml version="1.0" encoding="UTF-8"?>
<!DOCTYPE svg PUBLIC "-//W3C//DTD SVG 1.1//EN" "http://www.w3.org/Graphics/SVG/1.1/DTD/svg11.dtd">
<svg xmlns="http://www.w3.org/2000/svg" version="1.1" width="48px" height="48px" style="shape-rendering:geometricPrecision; text-rendering:geometricPrecision; image-rendering:optimizeQuality; fill-rule:evenodd; clip-rule:evenodd" xmlns:xlink="http://www.w3.org/1999/xlink">
<g><path style="opacity:0.993" fill="#2dbbaa" d="M 15.5,-0.5 C 20.8333,-0.5 26.1667,-0.5 31.5,-0.5C 38.8333,2.83333 44.1667,8.16667 47.5,15.5C 47.5,20.8333 47.5,26.1667 47.5,31.5C 44.1667,38.8333 38.8333,44.1667 31.5,47.5C 26.1667,47.5 20.8333,47.5 15.5,47.5C 8.16667,44.1667 2.83333,38.8333 -0.5,31.5C -0.5,26.1667 -0.5,20.8333 -0.5,15.5C 2.83333,8.16667 8.16667,2.83333 15.5,-0.5 Z M 16.5,35.5 C 15.8333,34.8333 15.1667,34.1667 14.5,33.5C 13.9094,32.8485 13.2427,32.1818 12.5,31.5C 18.9627,25.1838 24.1294,17.8505 28,9.5C 28.7412,8.35945 29.5745,8.35945 30.5,9.5C 33.3844,12.7623 36.3844,15.929 39.5,19C 34.0302,22.5719 28.3635,25.9053 22.5,29C 20.2941,31.0367 18.2941,33.2034 16.5,35.5 Z"/></g>
<g><path style="opacity:0.043" fill="#d2f1ee" d="M 14.5,33.5 C 15.1667,34.1667 15.8333,34.8333 16.5,35.5C 16.1667,36.5 15.5,37.1667 14.5,37.5C 14.5,36.1667 14.5,34.8333 14.5,33.5 Z"/></g>
</svg>
