<svg xmlns="http://www.w3.org/2000/svg" width="83" height="24" fill="none" class="h-10 w-auto"><path fill="#15B8A6" d="m75.4 22.764 1.909-5.24.037 1.541-4.324-10.62h2.304l3.066 7.857h-.587l2.983-7.857H83l-5.526 14.32zm-6.576-4.13q-1.45 0-2.432-.689-.982-.688-1.478-1.872-.495-1.194-.495-2.671 0-1.496.495-2.68t1.45-1.864q.964-.688 2.378-.688 1.404 0 2.432.688 1.038.68 1.607 1.864.569 1.174.569 2.68 0 1.487-.56 2.671t-1.579 1.872q-1.02.69-2.387.689m-4.782 4.13V8.445h1.955v6.958h.276v7.361zm4.443-6.113q.863 0 1.423-.431t.826-1.166a4.7 4.7 0 0 0 .275-1.652q0-.9-.275-1.634a2.5 2.5 0 0 0-.854-1.175q-.578-.44-1.469-.44-.845 0-1.376.413-.532.403-.79 1.138-.248.725-.248 1.698 0 .964.248 1.698.257.735.799 1.147.55.405 1.44.404m-11.311 1.983q-1.073 0-1.817-.404a2.86 2.86 0 0 1-1.13-1.092 3.04 3.04 0 0 1-.375-1.496q0-.717.238-1.285.24-.578.735-.992.495-.421 1.285-.688a12 12 0 0 1 1.395-.349q.807-.156 1.744-.285.945-.137 1.973-.293l-.79.45q.01-1.028-.458-1.515t-1.579-.487a2.86 2.86 0 0 0-1.294.313q-.624.312-.872 1.074l-2.02-.634a3.75 3.75 0 0 1 1.396-2.02q1.036-.76 2.79-.761 1.321 0 2.322.431a2.88 2.88 0 0 1 1.497 1.414q.266.523.32 1.074.056.54.056 1.184v6.086h-1.937V16.21l.321.348q-.67 1.074-1.57 1.58-.89.495-2.23.495m.44-1.762q.754 0 1.286-.267.532-.265.844-.651.322-.386.432-.726.174-.422.193-.963.027-.55.027-.89l.68.201q-1.002.156-1.717.276t-1.23.23a8 8 0 0 0-.909.229 2.8 2.8 0 0 0-.651.32 1.4 1.4 0 0 0-.413.423 1.1 1.1 0 0 0-.138.56q0 .367.183.652.184.275.533.44.358.166.88.166m-9.393 1.488V8.445h1.955v2.415l-.239-.313q.184-.495.487-.9.312-.411.743-.678.367-.248.808-.386.45-.147.918-.174.468-.037.908.036v2.066a2.8 2.8 0 0 0-1.018-.083q-.57.046-1.028.321a2.3 2.3 0 0 0-.753.634q-.285.385-.422.88a4 4 0 0 0-.138 1.056v5.04zm-5.337.275q-1.533 0-2.616-.68a4.5 4.5 0 0 1-1.661-1.872q-.57-1.185-.578-2.68.01-1.524.596-2.699.596-1.184 1.69-1.854 1.09-.68 2.597-.68 1.689 0 2.854.855 1.176.845 1.533 2.313l-2.203.596q-.257-.798-.853-1.239-.596-.45-1.359-.45-.863 0-1.422.413-.561.405-.827 1.12-.266.717-.266 1.625 0 1.413.634 2.286.633.87 1.881.871.882 0 1.386-.403.514-.404.771-1.166l2.258.505q-.459 1.515-1.606 2.331-1.147.808-2.809.808m-10.56 0q-1.449 0-2.616-.505a4.94 4.94 0 0 1-1.909-1.44q-.742-.947-.945-2.24l2.294-.35q.294 1.176 1.203 1.818.918.642 2.111.643.707 0 1.331-.22a2.4 2.4 0 0 0 1.01-.643q.394-.422.394-1.037 0-.276-.091-.505-.092-.24-.276-.422a1.7 1.7 0 0 0-.459-.331 3 3 0 0 0-.642-.266l-3.415-1.01a10 10 0 0 1-.954-.34 4 4 0 0 1-.964-.596 3.1 3.1 0 0 1-.744-.973q-.285-.597-.284-1.469 0-1.275.642-2.138.652-.873 1.744-1.304 1.102-.43 2.442-.422 1.358.009 2.423.468 1.065.45 1.78 1.313.717.863 1.01 2.083l-2.377.413a2.6 2.6 0 0 0-.569-1.184 2.66 2.66 0 0 0-1.019-.752 3.43 3.43 0 0 0-2.506-.074q-.56.202-.908.588-.34.385-.34.9 0 .485.294.798.294.303.725.486.44.175.89.294l2.368.66q.487.13 1.093.35t1.166.615q.56.394.917 1.037.367.642.367 1.634 0 1.028-.43 1.808a3.8 3.8 0 0 1-1.148 1.285 5.3 5.3 0 0 1-1.662.771 7.3 7.3 0 0 1-1.946.257M11.96 0c6.605 0 11.96 5.355 11.96 11.96s-5.355 11.96-11.96 11.96S0 18.566 0 11.96 5.355 0 11.96 0m3.685 4.68a1.113 1.113 0 0 0-1.755.24l-4.162 7.389-4.24 4.24a1.113 1.113 0 0 0 0 1.573l.793.795c.435.434 1.14.434 1.574 0l4.24-4.241 7.388-4.161a1.113 1.113 0 0 0 .242-1.756zM6.358 16.94a.56.56 0 0 1 .789-.002l.318.319a.558.558 0 0 1-.79.79l-.318-.318a.56.56 0 0 1 .001-.789"/></svg>