<svg xmlns="http://www.w3.org/2000/svg" xmlns:xlink="http://www.w3.org/1999/xlink" width="512" height="512"><defs><clipPath id="b"><path d="M0 0h512v512H0z"/></clipPath><clipPath id="c"><path d="M0 0h512v512H0z"/></clipPath><clipPath id="d"><path d="M0 0h512v512H0z"/></clipPath><clipPath id="e"><path d="M0 0h512v512H0z"/></clipPath><clipPath id="f"><path d="M0 0h512v512H0z"/></clipPath><clipPath id="g"><path d="M0 0h512v512H0z"/></clipPath><mask id="i"><g filter="url(#a)"><path d="M0 0h512v512H0z" style="fill:#000;fill-opacity:.2;stroke:none"/></g></mask><mask id="k"><g filter="url(#a)"><path d="M0 0h512v512H0z" style="fill:#000;fill-opacity:.2;stroke:none"/></g></mask><mask id="m"><g filter="url(#a)"><path d="M0 0h512v512H0z" style="fill:#000;fill-opacity:.101961;stroke:none"/></g></mask><mask id="o"><g filter="url(#a)"><path d="M0 0h512v512H0z" style="fill:#000;fill-opacity:.101961;stroke:none"/></g></mask><mask id="q"><g filter="url(#a)"><path d="M0 0h512v512H0z" style="fill:#000;fill-opacity:.2;stroke:none"/></g></mask><mask id="s"><g filter="url(#a)"><path d="M0 0h512v512H0z" style="fill:#000;fill-opacity:.2;stroke:none"/></g></mask><g id="h" clip-path="url(#b)"><path d="M179.7 128c-11.907 0-23.759 9.73-21.493 21.332L191.52 320l-59.7 118.5c-4.25 8.133-5.043 13.094-1.93 20.168 2.973 6.75 10.653 10.664 18.641 10.664H363.47c7.988 0 15.668-3.914 18.64-10.664 3.114-7.074 2.32-12.035-1.93-20.168L320.48 320l33.313-170.668C356.059 137.73 344.207 128 332.301 128Zm0 0" style="stroke:none;fill-rule:nonzero;fill:#000;fill-opacity:1"/></g><g id="j" clip-path="url(#c)"><path d="M64 64h384c11.781 0 21.332 9.55 21.332 21.332V384c0 11.781-9.55 21.332-21.332 21.332H64c-11.781 0-21.332-9.55-21.332-21.332V85.332C42.668 73.551 52.218 64 64 64m0 0" style="stroke:none;fill-rule:nonzero;fill:#000;fill-opacity:1"/></g><g id="l" clip-path="url(#d)"><path d="M122.605 160c-3.164.012-6.253.96-8.875 2.73-7.332 4.934-9.27 14.88-4.335 22.208l33.398 49.644c-31.809 27.883-53.18 67.277-57.438 111.668-.785 16.426 16.563 16.418 16.563 16.418h307.75s17.844-.004 16.977-17.25c-4.442-44.07-25.766-83.168-57.395-110.875l33.355-49.606c4.934-7.328 2.997-17.273-4.335-22.207a15.99 15.99 0 0 0-22.207 4.333l-32.77 48.707C317.723 200.69 287.895 192 256.02 192c-31.887 0-61.72 8.7-87.29 23.793l-32.792-48.73a16 16 0 0 0-10.208-6.77 16 16 0 0 0-3.125-.293m0 0" style="stroke:none;fill-rule:nonzero;fill:#000;fill-opacity:1"/></g><g id="n" clip-path="url(#e)"><path d="M64 53.332a21.286 21.286 0 0 0-21.332 21.336v10.664A21.285 21.285 0 0 1 64 64h384a21.285 21.285 0 0 1 21.332 21.332V74.668A21.286 21.286 0 0 0 448 53.332Zm0 0" style="stroke:none;fill-rule:nonzero;fill:#fff;fill-opacity:1"/></g><g id="p" clip-path="url(#f)"><path d="M170.668 266.668c-11.785 0-21.336 9.55-21.336 21.332s9.55 21.332 21.336 21.332c11.781 0 21.332-9.55 21.332-21.332s-9.55-21.332-21.332-21.332m170.664 0c-11.781 0-21.332 9.55-21.332 21.332s9.55 21.332 21.332 21.332c11.785 0 21.336-9.55 21.336-21.332s-9.55-21.332-21.336-21.332m0 0" style="stroke:none;fill-rule:nonzero;fill:#000;fill-opacity:1"/></g><g id="r" clip-path="url(#g)"><path d="M122.605 149.332a16.03 16.03 0 0 0-8.875 2.73 16 16 0 0 0-5.835 18.625 16 16 0 0 1 5.835-7.957 15.97 15.97 0 0 1 8.875-2.73 16 16 0 0 1 3.125.293 16 16 0 0 1 10.207 6.77l32.793 48.73C194.3 200.699 224.133 192 256.02 192c31.875 0 61.703 8.691 87.273 23.77l32.77-48.708a15.99 15.99 0 0 1 22.207-4.332 16 16 0 0 1 6.105 7.957 16 16 0 0 0-6.105-18.625 15.99 15.99 0 0 0-22.207 4.333l-32.77 48.71c-25.57-15.078-55.398-23.773-87.273-23.773-31.887 0-61.72 8.7-87.29 23.793l-32.792-48.73a16 16 0 0 0-10.208-6.77 16 16 0 0 0-3.125-.293m251.082 78.606-4.437 6.605c30.504 26.723 51.379 64.055 56.813 106.207.464-1.727.699-3.7.582-6-4.23-41.969-23.786-79.406-52.957-106.812m-235.332.042c-29.34 27.586-48.945 65.32-53 107.602-.105 2.211.137 4.098.602 5.75 5.316-42.375 26.211-79.902 56.836-106.75Zm0 0" style="stroke:none;fill-rule:nonzero;fill:#fff;fill-opacity:1"/></g><filter id="a" width="100%" height="100%" x="0%" y="0%" filterUnits="objectBoundingBox"><feColorMatrix in="SourceGraphic" values="0 0 0 0 1 0 0 0 0 1 0 0 0 0 1 0 0 0 1 0"/></filter></defs><use xlink:href="#h" mask="url(#i)"/><path d="M179.7 117.332c-11.907 0-23.759 9.73-21.493 21.336l33.313 170.664-59.7 118.5c-4.25 8.133-5.043 13.098-1.93 20.168 2.973 6.75 10.653 10.668 18.641 10.668H363.47c7.988 0 15.668-3.918 18.64-10.668 3.114-7.07 2.32-12.035-1.93-20.168l-59.699-118.5 33.313-170.664c2.266-11.606-9.586-21.336-21.492-21.336Zm0 0" style="stroke:none;fill-rule:nonzero;fill:#ccc;fill-opacity:1"/><use xlink:href="#j" mask="url(#k)"/><path d="M42.668 352v21.332A21.286 21.286 0 0 0 64 394.668h384a21.286 21.286 0 0 0 21.332-21.336V352Zm0 0" style="stroke:none;fill-rule:nonzero;fill:#e4e4e4;fill-opacity:1"/><use xlink:href="#l" mask="url(#m)"/><path d="M64 53.332a21.286 21.286 0 0 0-21.332 21.336V352h426.664V74.668A21.286 21.286 0 0 0 448 53.332Zm0 0" style="stroke:none;fill-rule:nonzero;fill:#077063;fill-opacity:1"/><use xlink:href="#n" mask="url(#o)"/><path d="m15.2 21-3.7-5.5M32.8 21l3.7-5.5" style="fill:none;stroke-width:3;stroke-linecap:round;stroke-linejoin:miter;stroke:#30dd81;stroke-opacity:1;stroke-miterlimit:4" transform="scale(10.66667)"/><path d="M256.027 181.332c-89.132 0-162.363 67.703-170.668 154.25C84.574 352.008 101.914 352 101.914 352h307.75s17.836-.004 16.973-17.25c-8.688-86.156-81.766-153.418-170.61-153.418m0 0" style="stroke:none;fill-rule:nonzero;fill:#30dd81;fill-opacity:1"/><use xlink:href="#p" mask="url(#q)"/><path d="M170.668 256c11.781 0 21.332 9.55 21.332 21.332 0 11.785-9.55 21.336-21.332 21.336-11.785 0-21.336-9.55-21.336-21.336 0-11.781 9.55-21.332 21.336-21.332m170.664 0c11.785 0 21.336 9.55 21.336 21.332 0 11.785-9.55 21.336-21.336 21.336-11.781 0-21.332-9.55-21.332-21.336 0-11.781 9.55-21.332 21.332-21.332m0 0" style="stroke:none;fill-rule:nonzero;fill:#fff;fill-opacity:1"/><use xlink:href="#r" mask="url(#s)"/></svg>