<svg xmlns="http://www.w3.org/2000/svg" width="512" height="512" style="shape-rendering:geometricPrecision;text-rendering:geometricPrecision;image-rendering:optimizeQuality;fill-rule:evenodd;clip-rule:evenodd"><path fill="#251f1f" d="M-.5-.5h512v512H-.5z" style="opacity:1"/><path fill="#f9f9f9" d="M233.5 220.5q3.675-7.53 5-16 1.1-1.812 1-4 2.67-2.235 2-6 6.35-18.298 12.5-37 17.481-36.378 57.5-42.5a870 870 0 0 1 59 0q36.803 5.247 54.5 37.5 5.169 10.308 8.5 21-.12 4.922 2 9 .5 75.006-1 150-7.135 35.572-37 55.5a86.4 86.4 0 0 1-18 7.5 409 409 0 0 1-35 1q-13.935-4.687-18.5-19-3.453-19.154 1-38 4.165-9.665 13.5-14.5a209 209 0 0 1 27-2q3.37-2.014 5-5.5a2608 2608 0 0 0 .5-125q-.574-.834-1.5-1-1.214-1.453-3-2.5a756 756 0 0 0-55 0q-2.639 1.512-3.5 4.5a917 917 0 0 0-4.5 13q-2.358 4.072-3 9a5062 5062 0 0 0-29.5 93l-18 50q-15.962 28.816-47.5 37a1316 1316 0 0 1-69 1q-33.208-5.226-50.5-34a218 218 0 0 1-8.5-18 418 418 0 0 0-4-18v-144q2.284-6.144 3-13 20.596-60.767 85-54.5 16.905 4.405 20.5 21.5 1 15 0 30-3.476 16.474-19.5 21.5l-23 1-2.5 2.5a4031 4031 0 0 0 0 127q1.395 3.078 4.5 4.5a702 702 0 0 0 53 0 11.5 11.5 0 0 0 4.5-3.5q16.3-49.573 32.5-99" style="opacity:1"/><path fill="#6e6a6a" d="M78.5 169.5q-.716 6.856-3 13 .075-7.031 3-13" style="opacity:1"/><path fill="#817d7d" d="M433.5 173.5q2.12 4.078 2 9-2.12-4.078-2-9" style="opacity:1"/><path fill="#898383" d="M371.5 191.5q.926.166 1.5 1 1.247 62.753-.5 125a4035 4035 0 0 0-1-126" style="opacity:1"/><path fill="#a7a4a4" d="M241.5 194.5q.67 3.765-2 6 .143-3.429 2-6" style="opacity:1"/><path fill="#b3b2b2" d="M238.5 204.5q-1.325 8.47-5 16 1.335-8.5 5-16" style="opacity:1"/><path fill="#797777" d="M305.5 206.5q-.042 5.124-3 9 .642-4.928 3-9" style="opacity:1"/><path fill="#807e7e" d="M75.5 326.5a418 418 0 0 1 4 18q-4.077-8.367-4-18" style="opacity:1"/><path fill="#5d5d5d" d="M207.5 395.5q-2.178 1.203-5 1.5a685 685 0 0 1-64-.5q34.529.404 69-1" style="opacity:1"/><path fill="#606060" d="M379.5 395.5q-9.895 2.295-20.5 2-7.518-.001-14.5-1a409 409 0 0 0 35-1" style="opacity:1"/></svg>