<svg data-name="Layer 1" xmlns="http://www.w3.org/2000/svg" viewBox="0 0 460 460"><defs><radialGradient id="a" cx="200" cy="-16032.74" r="157.31" gradientTransform="matrix(1 0 0 -1 0 -15882)" gradientUnits="userSpaceOnUse"><stop offset="0" stop-color="#00bacf"/><stop offset="1" stop-color="#3675ff"/></radialGradient><radialGradient id="b" cx="200" cy="-16080.24" r="140.23" gradientTransform="matrix(1 0 0 -1 0 -15882)" gradientUnits="userSpaceOnUse"><stop offset=".24" stop-color="#38a8eb"/><stop offset="1" stop-color="#2155c7"/></radialGradient><radialGradient id="c" cx="150.74" cy="-16182" r="157.31" gradientTransform="matrix(1 0 0 -1 0 -15882)" gradientUnits="userSpaceOnUse"><stop offset="0" stop-color="#ff5042"/><stop offset="1" stop-color="#f71812"/></radialGradient><radialGradient id="d" cx="198.24" cy="-16182" r="140.23" gradientTransform="matrix(1 0 0 -1 0 -15882)" gradientUnits="userSpaceOnUse"><stop offset=".4" stop-color="#d94343"/><stop offset="1" stop-color="#a00"/></radialGradient><radialGradient id="e" cx="300" cy="-16231.26" r="157.31" gradientTransform="matrix(1 0 0 -1 0 -15882)" gradientUnits="userSpaceOnUse"><stop offset="0" stop-color="#f6ff00"/><stop offset="1" stop-color="#ffab00"/></radialGradient><radialGradient id="f" cx="300" cy="-16183.76" r="140.23" gradientTransform="matrix(1 0 0 -1 0 -15882)" gradientUnits="userSpaceOnUse"><stop offset=".22" stop-color="#f7ff1e"/><stop offset="1" stop-color="#d6751d"/></radialGradient><radialGradient id="g" cx="349.26" cy="-16082" r="157.31" gradientTransform="matrix(1 0 0 -1 0 -15882)" gradientUnits="userSpaceOnUse"><stop offset="0" stop-color="#14e620"/><stop offset="1" stop-color="#00a822"/></radialGradient><radialGradient id="h" cx="301.76" cy="-16082" r="140.23" gradientTransform="matrix(1 0 0 -1 0 -15882)" gradientUnits="userSpaceOnUse"><stop offset=".21" stop-color="#59d941"/><stop offset="1" stop-color="#148200"/></radialGradient></defs><path d="M380 176.62c-1.55-66.46-48.68-123-114.74-145.79A199.47 199.47 0 0 0 200 20C100.59 20 20 91.63 20 180a143.93 143.93 0 0 0 10.83 54.79C53.67 168.73 110.16 121.6 176.62 120H180c38.52 0 73.87 15.32 101.48 40.84A171.24 171.24 0 0 1 299.22 180c21.92 27.53 36.42 62.7 39.95 101.53C364.68 253.87 380 218.52 380 180v-3.38z" transform="translate(-20 -20)" style="fill:url(#a)"/><path d="M339.16 276.48c-3.53-38.83-18-74-39.95-101.53a171.24 171.24 0 0 0-17.73-19.11C253.87 130.32 218.52 115 180 115h-3.38c-66.46 1.55-123 48.68-145.79 114.74A144 144 0 0 1 20 177.67V180a143.93 143.93 0 0 0 10.83 54.79C53.67 168.73 110.16 121.6 176.62 120H180c38.52 0 73.87 15.32 101.48 40.84A171.24 171.24 0 0 1 299.22 180c21.92 27.53 36.42 62.7 39.95 101.53C364.68 253.87 380 218.52 380 180v-2.33c-.72 37.49-15.91 71.84-40.84 98.81z" transform="translate(-20 -20)" style="fill:url(#b)"/><path d="M120 323.38V320c0-38.52 15.32-73.87 40.84-101.48 29.33-31.74 72.13-53.27 120.64-57.68C253.87 135.32 218.52 120 180 120h-3.38c-66.46 1.55-123 48.68-145.79 114.74A199.47 199.47 0 0 0 20 300c0 99.41 71.63 180 160 180a143.93 143.93 0 0 0 54.79-10.83C168.73 446.33 121.6 389.84 120 323.38z" transform="translate(-20 -20)" style="fill:url(#c)"/><path d="M120 323.38V320c0-38.52 15.32-73.87 40.84-101.48 29.33-31.74 72.13-53.27 120.64-57.68C253.87 135.32 218.52 120 180 120h-2.33c37.49.69 71.84 15.88 98.81 40.8-48.51 4.41-91.31 25.94-120.64 57.68C130.32 246.13 115 281.48 115 320v3.38c1.55 66.46 48.68 123 114.74 145.79A144 144 0 0 1 177.67 480H180a143.93 143.93 0 0 0 54.79-10.83C168.73 446.33 121.6 389.84 120 323.38z" transform="translate(-20 -20)" style="fill:url(#d)"/><path d="M469.17 265.21C446.33 331.27 389.84 378.4 323.38 380H320c-38.52 0-73.87-15.32-101.48-40.84-31.74-29.33-53.27-72.13-57.68-120.64C135.32 246.13 120 281.48 120 320v3.38c1.55 66.46 48.68 123 114.74 145.79A199.47 199.47 0 0 0 300 480c99.41 0 180-71.63 180-160a143.93 143.93 0 0 0-10.83-54.79z" transform="translate(-20 -20)" style="fill:url(#e)"/><path d="M160.84 223.52c4.41 48.51 25.94 91.31 57.68 120.64C246.13 369.68 281.48 385 320 385h3.38c66.46-1.55 123-48.68 145.79-114.74A144 144 0 0 1 480 322.33V320a143.93 143.93 0 0 0-10.83-54.79C446.33 331.27 389.84 378.4 323.38 380H320c-38.52 0-73.87-15.32-101.48-40.84-31.74-29.33-53.27-72.13-57.68-120.64C135.32 246.13 120 281.48 120 320v2.33c.72-37.49 15.91-71.84 40.84-98.81z" transform="translate(-20 -20)" style="fill:url(#f)"/><path d="M320 20a143.93 143.93 0 0 0-54.79 10.83C331.27 53.67 378.4 110.16 380 176.62V180c0 38.52-15.32 73.87-40.84 101.48-29.33 31.74-72.13 53.27-120.64 57.68C246.13 364.68 281.48 380 320 380h3.38c66.46-1.55 123-48.68 145.79-114.74A199.47 199.47 0 0 0 480 200c0-99.41-71.63-180-160-180z" transform="translate(-20 -20)" style="fill:url(#g)"/><path d="M223.52 339.16c48.51-4.41 91.31-25.94 120.64-57.68C369.68 253.87 385 218.52 385 180v-3.38c-1.55-66.46-48.68-123-114.74-145.79A144 144 0 0 1 322.33 20H320a143.93 143.93 0 0 0-54.79 10.83C331.27 53.67 378.4 110.16 380 176.62V180c0 38.52-15.32 73.87-40.84 101.48-29.33 31.74-72.13 53.27-120.64 57.68C246.13 364.68 281.48 380 320 380h2.33c-37.49-.72-71.84-15.91-98.81-40.84z" transform="translate(-20 -20)" style="fill:url(#h)"/></svg>