<svg xmlns="http://www.w3.org/2000/svg" xmlns:xlink="http://www.w3.org/1999/xlink" xml:space="preserve" width="120" height="120" version="1.0"><defs><linearGradient id="a"><stop offset="0" style="stop-color:#c9332e;stop-opacity:1"/><stop offset="1" style="stop-color:#87231f;stop-opacity:1"/></linearGradient><linearGradient id="c"><stop offset="0" style="stop-color:#667f2e;stop-opacity:1"/><stop offset="1" style="stop-color:#94b641;stop-opacity:1"/></linearGradient><linearGradient id="b"><stop offset="0" style="stop-color:#099bd1;stop-opacity:1"/><stop offset="1" style="stop-color:#035fa9;stop-opacity:1"/></linearGradient><linearGradient id="d"><stop offset="0" style="stop-color:#fffbf7;stop-opacity:1"/><stop offset="1" style="stop-color:#fed697;stop-opacity:1"/></linearGradient><linearGradient xlink:href="#a" id="j" x1="-124.5" x2="-124.5" y1="101.268" y2="73.998" gradientTransform="translate(155.613 -4.025)scale(.6625)" gradientUnits="userSpaceOnUse"/><linearGradient xlink:href="#b" id="k" x1="-43.662" x2="-43.662" y1="60.388" y2="31.619" gradientTransform="matrix(1.01318 0 0 1.00312 113.237 -.22)" gradientUnits="userSpaceOnUse"/><linearGradient xlink:href="#c" id="i" x1="-17.5" x2="-17.5" y1="22" y2="62.153" gradientTransform="matrix(1.02564 0 0 1.01266 136.859 -4.285)" gradientUnits="userSpaceOnUse"/><filter id="f" color-interpolation-filters="sRGB"><feGaussianBlur stdDeviation="1.597"/></filter><filter id="g" color-interpolation-filters="sRGB"><feGaussianBlur stdDeviation="1.597"/></filter><filter id="h" color-interpolation-filters="sRGB"><feGaussianBlur stdDeviation="1.597"/></filter><radialGradient xlink:href="#d" id="l" cx="-165.326" cy="58.559" r="8.968" fx="-165.326" fy="58.559" gradientTransform="matrix(.82353 0 0 .70588 -29.175 17.223)" gradientUnits="userSpaceOnUse"/></defs><rect width="62" height="71" x="50.5" y="5.5" rx="0" ry="0" style="opacity:.6;fill:#000;fill-opacity:1;stroke:#000;stroke-width:.99999982;stroke-linecap:square;stroke-linejoin:miter;stroke-miterlimit:4;stroke-opacity:1;stroke-dasharray:none;stroke-dashoffset:0;filter:url(#f)"/><rect width="65" height="74" x="34.5" y="39.5" rx="0" ry="0" style="opacity:.6;fill:#000;fill-opacity:1;stroke:#000;stroke-width:.99999982;stroke-linecap:square;stroke-linejoin:miter;stroke-miterlimit:4;stroke-opacity:1;stroke-dasharray:none;stroke-dashoffset:0;filter:url(#g)"/><rect width="78" height="88" x="7.5" y="15.5" rx="0" ry="0" style="opacity:.6;fill:#000;fill-opacity:1;stroke:#000;stroke-width:.99999994;stroke-linecap:square;stroke-linejoin:miter;stroke-miterlimit:4;stroke-opacity:1;stroke-dasharray:none;stroke-dashoffset:0;filter:url(#h)"/><rect width="62" height="71" x="50.5" y="5.5" rx="0" ry="0" style="fill:#fff;fill-opacity:1;stroke:#888a85;stroke-width:.99999982;stroke-linecap:square;stroke-linejoin:miter;stroke-miterlimit:4;stroke-opacity:1;stroke-dasharray:none;stroke-dashoffset:0"/><path d="M82.5 18.5h80v80h-80z" style="fill:url(#i);fill-opacity:1;stroke:none" transform="translate(.344 -2.256)scale(.6625)"/><path d="M162.5 69.404c-2.229-1.237-4.47-5.452-7.402-4.46-.769.259-1.95 1.365-2.69.99-1.357-.687-3.006-2.303-4.034-3.345-.786-.797-4.598.167-5.745-.124-3.386-.858-6.513-3.166-8.068-6.32l-2.323-3.964c-1.683-.896-3.175-1.983-4.455-1.983V98.5H162.5z" style="fill:#6a8430;fill-opacity:1;stroke:none" transform="translate(.344 -2.256)scale(.6625)"/><path d="M162.5 79.028c-3.21-.27-5.387-.248-8.301.664-2.274.711-3.38 2.781-6.044 3.138-3.684.494-7.694.121-11.315.121l.128 15.45 25.532.099z" style="fill:#526726;fill-opacity:1;stroke:none" transform="translate(.344 -2.256)scale(.6625)"/><path d="M162.5 90.953c-2.458.433-3.54-5.678-6.088-4.335-2.56 1.348-4.48 3.606-7.495 4.4-2.47.65-5.527-.518-7.55-.194V98.5H162.5z" style="fill:#384619;fill-opacity:1;stroke:none" transform="translate(.344 -2.256)scale(.6625)"/><rect width="65" height="74" x="34.5" y="39.5" rx="0" ry="0" style="fill:#fff;fill-opacity:1;stroke:#888a85;stroke-width:.99999982;stroke-linecap:square;stroke-linejoin:miter;stroke-miterlimit:4;stroke-opacity:1;stroke-dasharray:none;stroke-dashoffset:0"/><path d="M41 45h53v53H41z" style="fill:url(#j);fill-opacity:1;stroke:none"/><path d="M86.55 74.081c.885-.31 1.749.315 2.143 1.03.06.11-.091.433 0 .515.279.254.843-.471 1.45.63.382.694-1.134 1.947-.757 2.289.282.256 1.078-.28 1.324-.057.178.162.028 1.1.126 1.144.598.271 1.19-.366 1.45.343.25.682-1.563.768-1.009 1.774.107.195 1.756.416 2.137.532.066.02.198.522.16.555-.6.546-.784.196-.784 1.26 0 .647.823.06 1.198.4.027.025 0 3.005 0 3.548V98H82V74.081z" style="fill:#4e1413;fill-opacity:1;stroke:none"/><rect width="78" height="88" x="7.5" y="15.5" rx="0" ry="0" style="fill:#fff;fill-opacity:1;stroke:#888a85;stroke-width:.99999994;stroke-linecap:square;stroke-linejoin:miter;stroke-miterlimit:4;stroke-opacity:1;stroke-dasharray:none;stroke-dashoffset:0"/><path d="M19 32h100v98H19z" style="fill:url(#k);fill-opacity:1;stroke:none" transform="matrix(.65657 0 0 .66151 .697 .834)"/><path d="M-156.885 58.56a8.44 8.44 0 1 1-16.882 0 8.44 8.44 0 1 1 16.882 0" style="fill:url(#l);fill-opacity:1;stroke:none" transform="translate(133.933 5.312)scale(.59236)"/><path d="M21.52 93.213c1.06-.524.99-2.386 2.573-1.865 2.215.73 1.268 1.169 1.973 1.865.149.148 1.557.206 1.801.085 1.504-.743 1.665-2.526 3.346-1.695.903.446.912 1.494 1.459 2.034.666.659 1.93.255 2.487 1.357.477.94-.368 2.433.43 3.22.07.07 1.866.042 1.887 0 .437-.863-.194-10.15.171-10.51.933-.923 2.755-.504 3.603-.085.992.49 2.793-1.649 5.32.847.218.217 1.831 0 2.144 0 2.672 0 4.806.086 7.12.848.158.052.662-.11.773 0 .646.639-.409 2.648.429 3.476.208.205 1.806.043 2.058.084 1.486.245.487-1.158 1.116-1.78.087-.086.713 0 .858 0 .695 0 3.398-.287 3.86.17.064.063-.153.285-.171.339-.19.564-.312 4.454 0 4.916.075.112 1.878 1.776 1.887 1.78 1.482.733 1.204-4.254 1.373-5.086.678-3.353-.828-5.008 3.26-6.018.673-.167 1.01-.933 1.63-.933.361 0 .459-4.3.681-4.3.404 0 .53 4.296 1.02 4.538 2.11 1.042 1.627 1.272 1.987 1.627.128.126 1.984.36 2.402 1.187.566 1.117.258 8.673.258 10.596l-.003.219c.032.39-.03.782-.03 1.169 0 .521 1.35.053 1.486-.48.08-.32.204-.647.242-.989.075-.66-.128-3.11.334-3.567.041-.04.142.024.182.03.77.127 1.523.12 2.305.12.394 0 2.58.268 2.882-.03.214-.211-.028-1.21-.061-1.468-.156-1.232-.06-2.531-.06-3.776l-.304-.6c.379-1.073.006-8.817.728-9.53.535-.53.789-.51 1.092-.66 1.199-.592.91-1.076.91-2.338 0-.928.636-10.49.91-10.49.23 0 .97 9.45.97 10.67 0 .262.851 2.1.97 2.218.26.255.525.458.729.66.595.587-.227 7.567.364 8.151.331.328.81.97 1.274 1.2.531.262.994-.259 1.516 0 .748.368 1.571-.492 2.063.479.882 1.743-.122 4.195.728 5.874.1.197.423.12.606.12 2.513 0 .455-5.095 1.335-6.833.055-.11 7.44-.08 7.643.12 1.08 1.066-.119 5.516.485 6.113.196.193 1.73 0 2.063 0 .35 0 1.24.454 1.456.24 1.101-1.088 2.63-2.28 3.154-3.836.198-.587-.314-1.51-.606-1.798-.392-.387 0-3.068 0-3.717 0-5.186-1.02-8.695 3.882-10.31V129.5h-99V93.298c.638-.029 1.761-.075 2.02-.085z" style="fill:#01131a;fill-opacity:1;stroke:#01131a;stroke-width:1.5173738px;stroke-linecap:butt;stroke-linejoin:miter;stroke-opacity:1" transform="matrix(.65657 0 0 .66151 .697 .834)"/></svg>