<svg xmlns="http://www.w3.org/2000/svg" width="256" height="256" style="shape-rendering:geometricPrecision;text-rendering:geometricPrecision;image-rendering:optimizeQuality;fill-rule:evenodd;clip-rule:evenodd"><path fill="#cd721e" d="M120.5-.5h14c10.394 1.013 20.727 3.013 31 6 11.88 5.893 22.38 13.893 31.5 24 6.539 7.45 9.372 16.116 8.5 26a230.855 230.855 0 0 1-7 36c-4.435 2.6-8.102 6.1-11 10.5a8.43 8.43 0 0 1-4 .5 37.787 37.787 0 0 1-5-9c20.324-14.962 25.157-33.962 14.5-57-10.395-14.298-24.228-23.798-41.5-28.5-17.656-4.826-35.489-5.659-53.5-2.5-.765-.07-1.265-.403-1.5-1 1.21-.432 2.21-1.099 3-2a265.17 265.17 0 0 0 21-3Z" style="opacity:1"/><path fill="#f1d5bc" d="M109.5-.5h11a265.17 265.17 0 0 1-21 3 83.228 83.228 0 0 1 10-3Z" style="opacity:1"/><path fill="#eed7c2" d="M134.5-.5h13a137.197 137.197 0 0 1 33 11 197.703 197.703 0 0 1-15-5c-10.273-2.987-20.606-4.987-31-6Z" style="opacity:1"/><path fill="#d6c4b3" d="M99.5 2.5c-.79.901-1.79 1.568-3 2-1.175-.219-2.175.114-3 1 .692 1.018 1.36 2.018 2 3a33.686 33.686 0 0 1-9 2h-2v-1a17.76 17.76 0 0 0 7-1.5c.116-1.268.45-2.602 1-4a17.76 17.76 0 0 1 7-1.5Z" style="opacity:1"/><path fill="#020101" d="M95.5 8.5a103.464 103.464 0 0 1 14 10c23.44 18.105 43.773 39.105 61 63a57.43 57.43 0 0 0 8 12 37.787 37.787 0 0 0 5 9l6.5 13a204.848 204.848 0 0 0 8.5-24 230.855 230.855 0 0 0 7-36c1.523-7.111 2.19-14.444 2-22h1a25.647 25.647 0 0 0 6 6l-1 16c-4.784 30.365-13.451 59.698-26 88l-6 12c-1.508 1.681-2.508 3.681-3 6-1.75 1.159-2.75 2.826-3 5a48.915 48.915 0 0 0-7 9.5c6.257-.218 12.257-1.385 18-3.5 3.946-.382 7.612-1.382 11-3a260.645 260.645 0 0 0 51-19 41.73 41.73 0 0 0-1 9 83.009 83.009 0 0 0-11 5c-31.155 12.538-63.488 20.205-97 23-11.02-.332-22.02.001-33 1 .124.607.457.94 1 1a205.598 205.598 0 0 0 16 18c13.712 14.006 28.712 26.339 45 37a87.925 87.925 0 0 0-9 2 5.727 5.727 0 0 1-3-1 26.175 26.175 0 0 0-7-5c-24.744-19.41-46.411-41.743-65-67-1.259-3.525-3.259-6.525-6-9-.61-1.934-1.61-3.601-3-5a36.082 36.082 0 0 0-4-7 122.866 122.866 0 0 0-7-13 192.268 192.268 0 0 0-10 32c-4.743 16.204-7.077 32.871-7 50h-1a25.647 25.647 0 0 0-6-6v-4c3.601-36.745 13.268-71.745 29-105 1.174-1.014 1.84-2.347 2-4 2.823-3.636 5.156-7.636 7-12a152.376 152.376 0 0 0 8-11.5c-7.952.408-15.619 1.908-23 4.5-19.757 4.31-38.59 11.31-56.5 21a12.936 12.936 0 0 1-.5-5v-1c.904-.709 1.237-1.709 1-3l8-4c3.244-.963 6.244-2.296 9-4 26.423-10.088 53.757-16.754 82-20h5a343.122 343.122 0 0 0 37-1 549.44 549.44 0 0 0-7-8 162.71 162.71 0 0 0-12-13 271.034 271.034 0 0 0-30-25l-13-10a33.686 33.686 0 0 0 9-2Z" style="opacity:1"/><path fill="#b8d399" d="M84.5 9.5v1a31.609 31.609 0 0 0-8-.5 39.45 39.45 0 0 1-12 5.5c4.159-3.25 8.826-5.75 14-7.5 2.38-.738 4.38-.238 6 1.5Z" style="opacity:1"/><path fill="#e6801e" d="M178.5 93.5a57.43 57.43 0 0 1-8-12c1.871-.359 3.371-1.359 4.5-3 12.466-20.315 8.966-37.481-10.5-51.5-17.587-10.478-36.587-14.478-57-12 1.323.816 1.989 1.983 2 3.5a103.464 103.464 0 0 0-14-10c-.64-.982-1.308-1.982-2-3 .825-.886 1.825-1.219 3-1 .235.597.735.93 1.5 1 18.011-3.159 35.844-2.326 53.5 2.5 17.272 4.702 31.105 14.202 41.5 28.5 10.657 23.038 5.824 42.038-14.5 57Z" style="opacity:1"/><path fill="#b9691e" d="M165.5 5.5a197.703 197.703 0 0 0 15 5c.992-.172 1.658.162 2 1 1.681 1.508 3.681 2.508 6 3 .992-.172 1.658.162 2 1 1.159 1.75 2.826 2.75 5 3 2.475 2.741 5.475 4.741 9 6 2.576 2.387 3.576 5.387 3 9 .19 7.556-.477 14.889-2 22 .872-9.884-1.961-18.55-8.5-26-9.12-10.107-19.62-18.107-31.5-24Z" style="opacity:1"/><path fill="#f5e8df" d="M182.5 11.5c2.589-.039 4.589.961 6 3-2.319-.492-4.319-1.492-6-3Z" style="opacity:1"/><path fill="#ecdcce" d="M190.5 15.5c2.174.25 3.841 1.25 5 3-2.174-.25-3.841-1.25-5-3Z" style="opacity:1"/><path fill="#dbeac8" d="M62.5 16.5c-.473 1.406-1.473 2.073-3 2 .473-1.406 1.473-2.073 3-2Z" style="opacity:1"/><path fill="#60b411" d="M84.5 10.5h2l13 10c-18.78-3.806-36.114-.306-52 10.5a230.078 230.078 0 0 0-14 10.5l11-12c2.249-.58 3.915-1.913 5-4 1.904-.238 3.238-1.238 4-3 1.527.073 2.527-.594 3-2 1.527.073 2.527-.594 3-2 1.527.073 2.527-.594 3-2 .342-.838 1.008-1.172 2-1a39.45 39.45 0 0 0 12-5.5 31.609 31.609 0 0 1 8 .5Z" style="opacity:1"/><path fill="#d1e7bd" d="M59.5 18.5c-.473 1.406-1.473 2.073-3 2 .473-1.406 1.473-2.073 3-2Z" style="opacity:1"/><path fill="#ebdac9" d="M195.5 18.5c3.549 1.223 6.549 3.223 9 6-3.525-1.259-6.525-3.259-9-6Z" style="opacity:1"/><path fill="#64c111" d="M99.5 20.5a271.034 271.034 0 0 1 30 25c2.244 3.302 3.744 6.969 4.5 11 .218 2.926.718 5.76 1.5 8.5-.556.383-.889.883-1 1.5h-10c-.206-14.914-6.206-27.08-18-36.5-16.599-8.557-33.266-8.557-50 0-20.379 11.541-35.712 27.708-46 48.5v-4c.16-1.653.826-2.986 2-4 1.174-1.014 1.84-2.347 2-4 2.43-1.546 3.764-3.88 4-7-.172-.992.162-1.658 1-2 1.406-.473 2.073-1.473 2-3 1.762-.762 2.762-2.096 3-4 2.087-1.085 3.42-2.751 4-5l5-4a230.078 230.078 0 0 1 14-10.5c15.886-10.806 33.22-14.306 52-10.5Z" style="opacity:1"/><path fill="#f68824" d="M170.5 81.5c-17.227-23.895-37.56-44.895-61-63-.011-1.517-.677-2.684-2-3.5 20.413-2.478 39.413 1.522 57 12 19.466 14.019 22.966 31.185 10.5 51.5-1.129 1.641-2.629 2.641-4.5 3Z" style="opacity:1"/><path fill="#d5e8bf" d="M56.5 20.5c-.473 1.406-1.473 2.073-3 2 .473-1.406 1.473-2.073 3-2Z" style="opacity:1"/><path fill="#d7e8c3" d="M53.5 22.5c-.762 1.762-2.096 2.762-4 3 .762-1.762 2.096-2.762 4-3Z" style="opacity:1"/><path fill="#cbe5b2" d="M49.5 25.5c-1.085 2.087-2.751 3.42-5 4 1.085-2.087 2.751-3.42 5-4Z" style="opacity:1"/><path fill="#ecdfd3" d="M204.5 24.5c1.517.01 2.684.677 3.5 2 .497 2.31.663 4.643.5 7h-1c.576-3.613-.424-6.613-3-9Z" style="opacity:1"/><path fill="#6cd60d" d="M124.5 66.5h-7c-4.713-25.526-20.046-36.693-46-33.5C57.415 36.957 45.248 44.124 35 54.5c-9.708 10.558-17.208 22.558-22.5 36 .825.886 1.825 1.219 3 1l-8 4c-1.324 1.35-2.324 1.183-3-.5a15.903 15.903 0 0 0 1-6.5c.095-2.286.762-4.286 2-6a9.818 9.818 0 0 0 3-4c10.288-20.792 25.621-36.959 46-48.5 16.734-8.557 33.401-8.557 50 0 11.794 9.42 17.794 21.586 18 36.5Z" style="opacity:1"/><path fill="#d2eabc" d="m44.5 29.5-11 12-5 4a60.87 60.87 0 0 1 16-16Z" style="opacity:1"/><path fill="#ebcecf" d="M208.5 33.5c2.216.703 4.049 2.036 5.5 4 1.206-3.685 2.706-3.685 4.5 0-.996.086-1.829-.248-2.5-1-.232 1.237-.732 2.237-1.5 3a25.647 25.647 0 0 1-6-6Z" style="opacity:1"/><path fill="#f3b6b7" d="M218.5 37.5c4.066 3.063 7.399 6.73 10 11-4.066-3.063-7.399-6.73-10-11Z" style="opacity:1"/><path fill="#72e40b" d="M117.5 66.5c-2.235-.295-4.235.039-6 1h-5c.931-3.103.431-6.103-1.5-9C96.24 45.244 84.073 40.41 68.5 44c-21.43 7.761-36.763 22.094-46 43a2.428 2.428 0 0 0 2 .5c-2.756 1.704-5.756 3.037-9 4-1.175.219-2.175-.114-3-1 5.292-13.442 12.792-25.442 22.5-36C45.248 44.124 57.415 36.957 71.5 33c25.954-3.193 41.287 7.974 46 33.5Z" style="opacity:1"/><path fill="#75ed0b" d="M106.5 67.5c-28.243 3.246-55.577 9.912-82 20a2.428 2.428 0 0 1-2-.5c9.237-20.906 24.57-35.239 46-43 15.573-3.59 27.74 1.244 36.5 14.5 1.931 2.897 2.431 5.897 1.5 9Z" style="opacity:1"/><path fill="#df0c15" d="M218.5 37.5c2.601 4.27 5.934 7.937 10 11 .58 2.249 1.913 3.915 4 5-.073 1.527.594 2.527 2 3a5.727 5.727 0 0 0 1 3 379.622 379.622 0 0 1 8.5 24c6.611 19.759 5.611 39.092-3 58-9.9 16.364-24.4 23.198-43.5 20.5a83.019 83.019 0 0 1-15-4c-.752-.671-1.086-1.504-1-2.5l6-12c-.398 4.259 1.602 6.092 6 5.5 20.688 2.576 34.522-5.924 41.5-25.5 4.936-25.926-.397-49.592-16-71a8.902 8.902 0 0 1-3-4 46.706 46.706 0 0 0-2.5 7l1-16c.768-.763 1.268-1.763 1.5-3 .671.752 1.504 1.086 2.5 1Z" style="opacity:1"/><path fill="#def0cc" d="M28.5 45.5c-.58 2.249-1.913 3.915-4 5 .58-2.249 1.913-3.915 4-5Z" style="opacity:1"/><path fill="#dff0ce" d="M24.5 50.5c-.238 1.904-1.238 3.238-3 4 .238-1.904 1.238-3.238 3-4Z" style="opacity:1"/><path fill="#f7cccc" d="M228.5 48.5c2.087 1.085 3.42 2.751 4 5-2.087-1.085-3.42-2.751-4-5Z" style="opacity:1"/><path fill="#f5cdd0" d="M232.5 53.5c1.406.473 2.073 1.473 2 3-1.406-.473-2.073-1.473-2-3Z" style="opacity:1"/><path fill="#e8f4de" d="M21.5 54.5c.073 1.527-.594 2.527-2 3-.073-1.527.594-2.527 2-3Z" style="opacity:1"/><path fill="#f4cbcb" d="M234.5 56.5c1.406.473 2.073 1.473 2 3h-1a5.727 5.727 0 0 1-1-3Z" style="opacity:1"/><path fill="#4c8e08" d="M129.5 45.5a162.71 162.71 0 0 1 12 13l1 8h-8c.111-.617.444-1.117 1-1.5a42.364 42.364 0 0 1-1.5-8.5c-.756-4.031-2.256-7.698-4.5-11Z" style="opacity:1"/><path fill="#f8d6d6" d="M236.5 59.5c1.406.473 2.073 1.473 2 3-1.406-.473-2.073-1.473-2-3Z" style="opacity:1"/><path fill="#b5df8a" d="M18.5 59.5c-.236 3.12-1.57 5.454-4 7 .579-2.831 1.912-5.164 4-7Z" style="opacity:1"/><path fill="#f30b18" d="M187.5 143.5c12.549-28.302 21.216-57.635 26-88a46.706 46.706 0 0 1 2.5-7 8.902 8.902 0 0 0 3 4c15.603 21.408 20.936 45.074 16 71-6.978 19.576-20.812 28.076-41.5 25.5-4.398.592-6.398-1.241-6-5.5Z" style="opacity:1"/><path fill="#2d5104" d="M141.5 58.5a549.44 549.44 0 0 1 7 8 343.122 343.122 0 0 1-37 1c1.765-.961 3.765-1.295 6-1h25l-1-8Z" style="opacity:1"/><path fill="#e4f5d6" d="M14.5 66.5c-.16 1.653-.826 2.986-2 4-.27-1.88.396-3.213 2-4Z" style="opacity:1"/><path fill="#f6d7d7" d="M239.5 64.5c3.04 3.414 5.04 7.414 6 12-2.508-3.682-4.508-7.682-6-12Z" style="opacity:1"/><path fill="#ec9e9c" d="M245.5 76.5c1.431 1.28 2.098 2.947 2 5-1.713-1.135-2.38-2.802-2-5Z" style="opacity:1"/><path fill="#bbe690" d="M10.5 74.5v4a9.818 9.818 0 0 1-3 4c.233-3.042 1.233-5.708 3-8Z" style="opacity:1"/><path fill="#c31115" d="M235.5 59.5h1c-.073 1.527.594 2.527 2 3 .838.342 1.172 1.008 1 2 1.492 4.318 3.492 8.318 6 12-.38 2.198.287 3.865 2 5 .361 4.415 1.694 8.415 4 12-.206 2.995.46 5.662 2 8v1c-.138 4.914.528 9.581 2 14v22a37.18 37.18 0 0 1-3 10c-.342.838-1.008 1.172-2 1-.992-.172-1.658.162-2 1a260.645 260.645 0 0 1-51 19 80.215 80.215 0 0 1-18-5.5c-.752-.671-1.086-1.504-1-2.5.492-2.319 1.492-4.319 3-6-.086.996.248 1.829 1 2.5a83.019 83.019 0 0 0 15 4c19.1 2.698 33.6-4.136 43.5-20.5 8.611-18.908 9.611-38.241 3-58a379.622 379.622 0 0 0-8.5-24Z" style="opacity:1"/><path fill="#eeaeae" d="M247.5 81.5c2.24 3.598 3.574 7.598 4 12-2.306-3.585-3.639-7.585-4-12Z" style="opacity:1"/><path fill="#076459" d="M78.5 90.5c-4.205-3.597-9.205-5.93-15-7 7.381-2.592 15.048-4.092 23-4.5a152.376 152.376 0 0 1-8 11.5Z" style="opacity:1"/><path fill="#109085" d="M63.5 83.5c5.795 1.07 10.795 3.403 15 7-1.844 4.364-4.177 8.364-7 12 .086-.996-.248-1.829-1-2.5a4.452 4.452 0 0 0 2-1.5c-13.065-6.032-26.398-6.532-40-1.5-12.8 7.148-20.632 17.981-23.5 32.5-3.333 21.668.167 42.168 10.5 61.5l-3 1.5c-.838-.342-1.172-1.008-1-2-1.492-4.318-3.492-8.318-6-12-1.431-1.28-2.098-2.947-2-5-1.066-5.62-2.733-10.953-5-16a157.136 157.136 0 0 0-3-20v-25c.7-2.088 1.7-4.088 3-6 .672-.767 1.505-1.434 2.5-2 .198-1.882.698-3.548 1.5-5-.16 1.699.006 3.366.5 5 17.91-9.69 36.743-16.69 56.5-21Z" style="opacity:1"/><path fill="#dbefc7" d="M5.5 88.5a15.903 15.903 0 0 1-1 6.5c.676 1.683 1.676 1.85 3 .5.237 1.291-.096 2.291-1 3-1.42-.139-2.752-.639-4-1.5.937-2.95 1.937-5.783 3-8.5Z" style="opacity:1"/><path fill="#0ea095" d="M71.5 102.5c-.16 1.653-.826 2.986-2 4 .14-1.624-.527-2.79-2-3.5-23.795-6.749-40.629 1.084-50.5 23.5-6.393 30.764.274 58.43 20 83 .816 1.323 1.983 1.989 3.5 2v4c-.768.763-1.268 1.763-1.5 3-.67-.752-1.504-1.086-2.5-1a25.647 25.647 0 0 1-6-6c-.974-2.635-2.64-4.635-5-6a46.2 46.2 0 0 1-9-13l3-1.5C9.167 171.668 5.667 151.168 9 129.5c2.868-14.519 10.7-25.352 23.5-32.5 13.602-5.032 26.935-4.532 40 1.5a4.452 4.452 0 0 1-2 1.5c.752.671 1.086 1.504 1 2.5Z" style="opacity:1"/><path fill="#f2cece" d="M251.5 93.5c1.268 2.405 1.935 5.072 2 8-1.54-2.338-2.206-5.005-2-8Z" style="opacity:1"/><path fill="#8d4e13" d="M198.5 91.5a204.848 204.848 0 0 1-8.5 24l-6.5-13a8.43 8.43 0 0 0 4-.5c2.898-4.4 6.565-7.9 11-10.5Z" style="opacity:1"/><path fill="#ddeae8" d="M2.5 106.5a24.545 24.545 0 0 0-3 6v-5a5.727 5.727 0 0 1 3-1Z" style="opacity:1"/><path fill="#00b1a5" d="M69.5 106.5c-15.732 33.255-25.399 68.255-29 105-1.517-.011-2.684-.677-3.5-2-19.726-24.57-26.393-52.236-20-83 9.871-22.416 26.705-30.249 50.5-23.5 1.473.71 2.14 1.876 2 3.5Z" style="opacity:1"/><path fill="#ebb6b5" d="m253.5 102.5 2 6v8c-1.472-4.419-2.138-9.086-2-14Z" style="opacity:1"/><path fill="#edcdcd" d="M255.5 138.5v9a5.727 5.727 0 0 1-3 1 37.18 37.18 0 0 0 3-10Z" style="opacity:1"/><path fill="#cbe5e3" d="M-.5 137.5a157.136 157.136 0 0 1 3 20 198.304 198.304 0 0 1-3-11v-9Z" style="opacity:1"/><path fill="#186395" d="M71.5 152.5a14.972 14.972 0 0 0-6.5 3c-.617.949-.45 1.782.5 2.5-4.695 3.842-8.361 8.342-11 13.5a192.268 192.268 0 0 1 10-32 122.866 122.866 0 0 1 7 13Z" style="opacity:1"/><path fill="#dac7d2" d="M250.5 149.5c-.663 2.304-1.33 4.637-2 7 1.489.033 2.822.533 4 1.5a36.354 36.354 0 0 1-2 4.5c.379-3.067-.621-4.067-3-3a41.73 41.73 0 0 1 1-9c.342-.838 1.008-1.172 2-1Z" style="opacity:1"/><path fill="#1f7cbd" d="M71.5 152.5a36.082 36.082 0 0 1 4 7c-10.47 6.224-17.637 15.224-21.5 27-3.707 18.756 1.793 34.256 16.5 46.5 19.302 14.045 40.969 21.212 65 21.5v1h-18c-5.098-1.457-10.431-2.124-16-2-2.338-1.54-5.005-2.206-8-2-2.286-.095-4.286-.762-6-2-2.36-3.011-5.36-5.345-9-7l-1 2a9.107 9.107 0 0 0-5-1c-1.681-1.508-3.681-2.508-6-3-1.653-.16-2.986-.826-4-2-1.824-4.339-4.657-8.006-8.5-11-1.916 2.533-3.916 2.533-6 0a18.437 18.437 0 0 1-.5-6c-.077-17.129 2.257-33.796 7-50 2.639-5.158 6.305-9.658 11-13.5-.95-.718-1.117-1.551-.5-2.5a14.972 14.972 0 0 1 6.5-3Z" style="opacity:1"/><path fill="#d2eae8" d="M2.5 157.5c2.267 5.047 3.934 10.38 5 16-2.576-4.948-4.243-10.281-5-16Z" style="opacity:1"/><path fill="#1c89d4" d="M75.5 159.5c1.39 1.399 2.39 3.066 3 5-19.711 15.528-23.211 34.195-10.5 56 18.505 19.566 41.338 28.899 68.5 28a187.01 187.01 0 0 0 16.5-1c1.681-.108 2.848-.775 3.5-2 .891.61 1.891.943 3 1 .473 1.406 1.473 2.073 3 2 1.333.667 1.333 1.333 0 2-2.652-.09-4.985.576-7 2a237.917 237.917 0 0 1-20 2c-24.031-.288-45.698-7.455-65-21.5-14.707-12.244-20.207-27.744-16.5-46.5 3.863-11.776 11.03-20.776 21.5-27Z" style="opacity:1"/><path fill="#bb026e" d="M250.5 162.5c-1.424 2.015-2.09 4.348-2 7-.095 2.286-.762 4.286-2 6-.967 1.306-2.301 1.973-4 2v3c-12.125 22.621-30.125 38.787-54 48.5-32.447 7.272-52.114-5.394-59-38 .243-.902.577-1.735 1-2.5h9c8.215 27.942 26.215 37.109 54 27.5 22.245-11.074 37.578-28.24 46-51.5h-3a83.009 83.009 0 0 1 11-5c2.379-1.067 3.379-.067 3 3Z" style="opacity:1"/><path fill="#a70b10" d="M178.5 161.5c-.086.996.248 1.829 1 2.5a80.215 80.215 0 0 0 18 5.5c-3.388 1.618-7.054 2.618-11 3a76.926 76.926 0 0 1-10-1 20.69 20.69 0 0 0-1-5c.25-2.174 1.25-3.841 3-5Z" style="opacity:1"/><path fill="#f2d3e5" d="M250.5 162.5c.09 2.652-.576 4.985-2 7-.09-2.652.576-4.985 2-7Z" style="opacity:1"/><path fill="#1893e3" d="M78.5 164.5c2.741 2.475 4.741 5.475 6 9-2.464-2.716-4.63-2.382-6.5 1-14.72 23.956-9.886 43.123 14.5 57.5 18.28 9.83 37.28 12.663 57 8.5a26.175 26.175 0 0 1 7 5c-.652 1.225-1.819 1.892-3.5 2a187.01 187.01 0 0 1-16.5 1c-27.162.899-49.995-8.434-68.5-28-12.711-21.805-9.211-40.472 10.5-56Z" style="opacity:1"/><path fill="#770a0b" d="M175.5 166.5a20.69 20.69 0 0 1 1 5c3.307.551 6.64.884 10 1-5.743 2.115-11.743 3.282-18 3.5a48.915 48.915 0 0 1 7-9.5Z" style="opacity:1"/><path fill="#c90079" d="M236.5 164.5h3c-8.422 23.26-23.755 40.426-46 51.5-27.785 9.609-45.785.442-54-27.5v-1c33.512-2.795 65.845-10.462 97-23Z" style="opacity:1"/><path fill="#199af2" d="M84.5 173.5c18.589 25.257 40.256 47.59 65 67-19.72 4.163-38.72 1.33-57-8.5-24.386-14.377-29.22-33.544-14.5-57.5 1.87-3.382 4.036-3.716 6.5-1Z" style="opacity:1"/><path fill="#d47ca4" d="M246.5 175.5c-.542 3.412-1.875 6.412-4 9v-7c1.699-.027 3.033-.694 4-2Z" style="opacity:1"/><path fill="#d4ebe8" d="M9.5 178.5c2.508 3.682 4.508 7.682 6 12-3.04-3.414-5.04-7.414-6-12Z" style="opacity:1"/><path fill="#a60f62" d="M242.5 180.5v4c-1.174 1.014-1.84 2.347-2 4-.16 1.653-.826 2.986-2 4-1.406.473-2.073 1.473-2 3 .172.992-.162 1.658-1 2-1.406.473-2.073 1.473-2 3-1.762.762-2.762 2.096-3 4-1.762.762-2.762 2.096-3 4 0 .667-.333 1-1 1-2.743 1.739-4.743 4.073-6 7 0 .667-.333 1-1 1-3.164 1.431-6.164 4.098-9 8 0 .667-.333 1-1 1-1.904.238-3.238 1.238-4 3 0 .667-.333 1-1 1-1.527-.073-2.527.594-3 2-1.527-.073-2.527.594-3 2-1.527-.073-2.527.594-3 2-1.527-.073-2.527.594-3 2-.342.838-1.008 1.172-2 1a68.744 68.744 0 0 0-14 7c-2.18 1.294-4.18.961-6-1-.342-.838-1.008-1.172-2-1-16.288-10.661-31.288-22.994-45-37-2.511-6.196-3.178-12.53-2-19h9a11.123 11.123 0 0 0-1 2.5c6.886 32.606 26.553 45.272 59 38 23.875-9.713 41.875-25.879 54-48.5Z" style="opacity:1"/><path fill="#400024" d="M139.5 187.5v1h-18c-4.863-.319-9.53.014-14 1-.543-.06-.876-.393-1-1a273.104 273.104 0 0 1 33-1Z" style="opacity:1"/><path fill="#f3dbe8" d="M242.5 184.5c.271 1.88-.396 3.213-2 4 .16-1.653.826-2.986 2-4Z" style="opacity:1"/><path fill="#7f0347" d="M121.5 188.5c-1.178 6.47-.511 12.804 2 19a205.598 205.598 0 0 1-16-18c4.47-.986 9.137-1.319 14-1Z" style="opacity:1"/><path fill="#f2d7e3" d="M238.5 192.5c.073 1.527-.594 2.527-2 3-.073-1.527.594-2.527 2-3Z" style="opacity:1"/><path fill="#f4e3ee" d="M235.5 197.5c.073 1.527-.594 2.527-2 3-.073-1.527.594-2.527 2-3Z" style="opacity:1"/><path fill="#f3e1eb" d="M233.5 200.5c-.238 1.904-1.238 3.238-3 4 .238-1.904 1.238-3.238 3-4Z" style="opacity:1"/><path fill="#f3e1ea" d="M230.5 204.5c-.238 1.904-1.238 3.238-3 4 .238-1.904 1.238-3.238 3-4Z" style="opacity:1"/><path fill="#cae8e5" d="M25.5 205.5c2.36 1.365 4.026 3.365 5 6-2.39-1.391-4.057-3.391-5-6Z" style="opacity:1"/><path fill="#f1dae7" d="M226.5 209.5c-1.257 2.927-3.257 5.261-6 7 1.257-2.927 3.257-5.261 6-7Z" style="opacity:1"/><path fill="#d3e3e2" d="M40.5 215.5a25.647 25.647 0 0 1 6 6c-2.216-.703-4.049-2.036-5.5-4-1.206 3.685-2.706 3.685-4.5 0 .996-.086 1.83.248 2.5 1 .232-1.237.732-2.237 1.5-3Z" style="opacity:1"/><path fill="#eed3df" d="M219.5 217.5c-2.4 3.403-5.4 6.07-9 8 2.836-3.902 5.836-6.569 9-8Z" style="opacity:1"/><path fill="#749cc2" d="M46.5 221.5h1a18.437 18.437 0 0 0 .5 6c2.084 2.533 4.084 2.533 6 0 3.843 2.994 6.676 6.661 8.5 11a76.774 76.774 0 0 1-15.5-10 24.939 24.939 0 0 1-.5-7Z" style="opacity:1"/><path fill="#f2dee9" d="M209.5 226.5c-.762 1.762-2.096 2.762-4 3 .762-1.762 2.096-2.762 4-3Z" style="opacity:1"/><path fill="#f3e6ee" d="M204.5 230.5c-.473 1.406-1.473 2.073-3 2 .473-1.406 1.473-2.073 3-2Z" style="opacity:1"/><path fill="#f0e0e9" d="M201.5 232.5c-.473 1.406-1.473 2.073-3 2 .473-1.406 1.473-2.073 3-2Z" style="opacity:1"/><path fill="#efdee8" d="M198.5 234.5c-.473 1.406-1.473 2.073-3 2 .473-1.406 1.473-2.073 3-2Z" style="opacity:1"/><path fill="#f3e6ed" d="M195.5 236.5c-.473 1.406-1.473 2.073-3 2 .473-1.406 1.473-2.073 3-2Z" style="opacity:1"/><path fill="#dce8f1" d="M66.5 240.5c2.319.492 4.319 1.492 6 3-2.589.039-4.589-.961-6-3Z" style="opacity:1"/><path fill="#e9d4e1" d="M190.5 239.5c-4.081 3.374-8.747 5.707-14 7a68.744 68.744 0 0 1 14-7Z" style="opacity:1"/><path fill="#6da0cc" d="M87.5 249.5c-5.543-.843-10.543-2.843-15-6a9.107 9.107 0 0 1 5 1l1-2c3.64 1.655 6.64 3.989 9 7Z" style="opacity:1"/><path fill="#cdcdcf" d="M168.5 244.5c.992-.172 1.658.162 2 1-3.216-.155-5.883.845-8 3-1.527.073-2.527-.594-3-2a87.925 87.925 0 0 1 9-2Z" style="opacity:1"/><path fill="#e6f1f6" d="M162.5 250.5c-2.015 1.424-4.348 2.09-7 2 2.015-1.424 4.348-2.09 7-2Z" style="opacity:1"/><path fill="#ccdeee" d="M93.5 251.5c2.995-.206 5.662.46 8 2-2.928-.065-5.595-.732-8-2Z" style="opacity:1"/><path fill="#a6c9e4" d="M101.5 253.5c5.569-.124 10.902.543 16 2h-10l-6-2Z" style="opacity:1"/><path fill="#d0e3f1" d="M155.5 252.5a83.25 83.25 0 0 1-10 3h-10v-1a237.917 237.917 0 0 0 20-2Z" style="opacity:1"/></svg>