<svg xmlns="http://www.w3.org/2000/svg" xml:space="preserve" id="Layer_1" x="0" y="0" style="enable-background:new 0 0 100 108.8" version="1.1" viewBox="0 0 100 108.8"><style>.st0{fill:#005f9e}</style><path d="M100 23.7 64.6 3.3S59 0 50 0c-9.3 0-14.7 3.4-14.7 3.4L2.5 22.1l49.9 28.7v58L85.3 90s5.9-3.2 10.3-10.9c3.9-6.8 4.4-13.3 4.4-13.3V23.7zm-53.4 9.4s7.3-1.3 13.5 2.2C66.3 38.9 70 41 70 41v12.4c0 6-5 12.1-5 12.1V43.7L46.6 33.1zm29 47.9-10.7 6.1v-5.8l8.3-4.8c7.9-5.7 9.2-14.1 9.2-17V33.6L59.8 20.7s-3.5-2.3-9.7-2.3-9.6 2.1-9.6 2.1l-8 4.6-5-2.9 11-6.3s4.3-2.4 11.5-2.4c6.6 0 11.8 2.6 11.8 2.6l25.6 14.8v28.2c.2 4.3-1.8 14.9-11.8 21.9z" class="st0"/><path d="M0 40.9 35 61v6L15.1 55.6 2.5 62.7l32.4 18.7v5.8L.2 67.2c.1 2.3 2.2 9.6 6.3 15.1 4.1 5.7 8.8 8.1 8.8 8.1l32.1 18.5V53.7L0 26.5v14.4z" class="st0"/></svg>