<svg xmlns="http://www.w3.org/2000/svg" width="128" height="128" style="shape-rendering:geometricPrecision;text-rendering:geometricPrecision;image-rendering:optimizeQuality;fill-rule:evenodd;clip-rule:evenodd"><path fill="#f1f1f1" d="M113.5 6.5v13h-102v-13z" style="opacity:.986"/><path fill="#1c1c1c" d="M114.5 6.5q1.438.68 2.5 2 .75 55.998.5 112h-3z" style="opacity:.405"/><path fill="#a2a2a2" d="M74.5 9.5q2.77-.417 4 2a10.9 10.9 0 0 0-4.5 5q-3.123-3.79.5-7" style="opacity:1"/><path fill="#a1a1a1" d="M47.5 9.5q8.406.264 1.5 4-1.4 5.673-2.5-.5a11 11 0 0 1 1-3.5" style="opacity:1"/><path fill="#a4a4a4" d="M21.5 9.5q8.406.264 1.5 4-1.4 5.673-2.5-.5a11 11 0 0 1 1-3.5" style="opacity:1"/><path fill="#a3a3a3" d="M100.5 9.5q3.271-.324 5 2.5-4.098.597-5.5 4.5-2.956-3.695.5-7" style="opacity:1"/><path fill="#bfbfbf" d="M113.5 6.5h1v111h-103v-1h102v-95h-102v-2h102z" style="opacity:1"/><path fill="#f0f1f1" d="M11.5 21.5h102v95h-102z" style="opacity:.997"/><path fill="#b7b7b7" d="M20.5 30.5h27v6h-27z" style="opacity:1"/><path fill="#076daa" d="M70.5 36.5a482 482 0 0 1 .5 53q-2.685 8.438-11.5 8-5.514-2.265-7.5-8a676 676 0 0 1 0-52q4.773-10.497 15.5-5.5a11.1 11.1 0 0 1 3 4.5" style="opacity:1"/><path fill="#b7b7b7" d="M75.5 30.5h25q.359 2.95-1 5.5-11.99.75-24 .5z" style="opacity:1"/><path fill="#b9b7b7" d="M99.5 44.5h6v6h-6z" style="opacity:1"/><path fill="#b9b9b8" d="M20.5 44.5h4v6h-4z" style="opacity:1"/><path fill="#b2b6af" d="M43.5 45.5h4v5h-4z" style="opacity:1"/><path fill="#b8bcb9" d="M75.5 44.5h4v6h-4z" style="opacity:1"/><path fill="#066cac" d="M93.5 48.5q2.29-.11 3 2-1.426 2.128-1 5h3v17q-2.078 8.565-11 8-3.38-.936-5-4-1.4-6.64-2-13.5l1-8.5a9.4 9.4 0 0 1 3-3q1.536 2.03 4 2v-5z" style="opacity:1"/><path fill="#186e9e" d="M93.5 48.5h-5v5q-2.464.03-4-2a9.4 9.4 0 0 0-3 3l-1 8.5q.6 6.86 2 13.5-2.69-2.89-3-7-.25-8.016.5-16 4.542-8.739 13.5-5" style="opacity:1"/><path fill="#0b6eab" d="M43.5 54.5v19q-3.756 7.24-12 7-6.162-2.418-7.5-9a72.5 72.5 0 0 1 0-17q4.24-9.818 14.5-6.5 3.435 2.666 5 6.5" style="opacity:1"/><path fill="#9acbe9" d="m70.5 36.5 2 1q.25 27.504-.5 55-4.439 6.845-12.5 6v-1q8.815.438 11.5-8 1.21-26.565-.5-53" style="opacity:1"/><path fill="#1f709e" d="M96.5 50.5q1.588 1.65 2.5 4 1.23 9.272-.5 18v-17h-3q-.426-2.872 1-5" style="opacity:1"/><path fill="#b9d6e2" d="M43.5 54.5q1.935.837 2.5 3a57.8 57.8 0 0 1-1 20 16.2 16.2 0 0 1-4.5 5q-3.71 1.945-7 0 8.706-.198 10-9z" style="opacity:1"/><path fill="#b1d2ee" d="M43.5 73.5q-1.294 8.802-10 9-2 0-2-2 8.244.24 12-7" style="opacity:1"/><path fill="#bfdeec" d="M87.5 80.5q8.922.565 11-8 1.73-8.728.5-18-.912-2.35-2.5-4-.71-2.11-3-2-8.958-3.739-13.5 5-.75 7.984-.5 16-2.765-11.367 2.5-22 3.615-.96 7.5-1 4.307.177 8 2l3.5 7q1 10.5 0 21-5.114 9.064-13.5 4" style="opacity:1"/><path fill="#b9bab7" d="M77.5 88.5h14v6h-14z" style="opacity:1"/><path fill="#c8dcea" d="M72.5 37.5q1.185 1.662 1.5 4a625 625 0 0 1 0 50q-1.64 4.629-5.5 7.5-4.795 1.207-9-.5 8.061.845 12.5-6 .75-27.496.5-55" style="opacity:1"/><path fill="#b9b9b9" d="M20.5 88.5h27v6h-27z" style="opacity:1"/><path fill="#b6b7b7" d="M98.5 88.5h6v5h-6z" style="opacity:1"/><path fill="#b7b7b7" d="M21.5 102.5q9.015-.249 18 .5 1.36 2.549 1 5.5h-20q-.262-3.181 1-6" style="opacity:1"/><path fill="#b9baba" d="M48.5 102.5h41v6h-41z" style="opacity:1"/><path fill="#989898" d="M11.5 117.5h103v3h-103z" style="opacity:.962"/></svg>