<?xml version="1.0" encoding="UTF-8"?>
<!DOCTYPE svg PUBLIC "-//W3C//DTD SVG 1.1//EN" "http://www.w3.org/Graphics/SVG/1.1/DTD/svg11.dtd">
<svg xmlns="http://www.w3.org/2000/svg" version="1.1" width="168px" height="168px" style="shape-rendering:geometricPrecision; text-rendering:geometricPrecision; image-rendering:optimizeQuality; fill-rule:evenodd; clip-rule:evenodd" xmlns:xlink="http://www.w3.org/1999/xlink">
<g><path style="opacity:0.976" fill="#664bc2" d="M 44.5,26.5 C 45.299,29.4299 45.6323,32.4299 45.5,35.5C 45.5674,36.9587 45.2341,38.2921 44.5,39.5C 42.8333,41.8333 40.8333,43.8333 38.5,45.5C 31.2129,47.7931 25.3796,45.7931 21,39.5C 18.6695,23.8306 25.1695,17.9973 40.5,22C 42.0414,23.3712 43.3747,24.8712 44.5,26.5 Z"/></g>
<g><path style="opacity:0.986" fill="#44e5d0" d="M 84.5,20.5 C 84.5,27.5 84.5,34.5 84.5,41.5C 82.8333,41.5 81.1667,41.5 79.5,41.5C 77.8333,39.5 76.1667,37.5 74.5,35.5C 73.1667,32.5 73.1667,29.5 74.5,26.5C 76.2041,21.9745 79.5375,19.9745 84.5,20.5 Z"/></g>
<g><path style="opacity:0.979" fill="#29cbcb" d="M 84.5,20.5 C 89.1132,20.4694 92.4465,22.4694 94.5,26.5C 94.7359,29.6085 94.4025,32.6085 93.5,35.5C 91.8333,37.5 90.1667,39.5 88.5,41.5C 87.1667,41.5 85.8333,41.5 84.5,41.5C 84.5,34.5 84.5,27.5 84.5,20.5 Z"/></g>
<g><path style="opacity:0.966" fill="#67329e" d="M 129.5,45.5 C 127.833,43.1667 125.833,41.1667 123.5,39.5C 122.766,38.2921 122.433,36.9587 122.5,35.5C 122.368,32.4299 122.701,29.4299 123.5,26.5C 126.084,21.8743 130.084,19.8743 135.5,20.5C 145.529,21.7117 149.696,27.3783 148,37.5C 144.123,45.2969 137.956,47.9635 129.5,45.5 Z"/></g>
<g><path style="opacity:0.842" fill="#d0e4fb" d="M 44.5,26.5 C 54.5,26.5 64.5,26.5 74.5,26.5C 73.1667,29.5 73.1667,32.5 74.5,35.5C 74.1667,35.5 73.8333,35.5 73.5,35.5C 64.1667,35.5 54.8333,35.5 45.5,35.5C 45.6323,32.4299 45.299,29.4299 44.5,26.5 Z"/></g>
<g><path style="opacity:0.833" fill="#b4c5f2" d="M 94.5,26.5 C 104.167,26.5 113.833,26.5 123.5,26.5C 122.701,29.4299 122.368,32.4299 122.5,35.5C 113.318,35.1734 104.318,35.5067 95.5,36.5C 94.8333,36.1667 94.1667,35.8333 93.5,35.5C 94.4025,32.6085 94.7359,29.6085 94.5,26.5 Z"/></g>
<g><path style="opacity:0.999" fill="#d0e3fc" d="M 93.5,35.5 C 94.1667,35.8333 94.8333,36.1667 95.5,36.5C 100.833,41.1667 105.833,46.1667 110.5,51.5C 112.5,54.1667 114.833,56.5 117.5,58.5C 122.833,63.5 128.167,68.5 133.5,73.5C 131.167,75.1667 129.167,77.1667 127.5,79.5C 121.833,74.5 116.5,69.1667 111.5,63.5C 109.786,60.7872 107.453,58.7872 104.5,57.5C 99.5,51.8333 94.1667,46.5 88.5,41.5C 90.1667,39.5 91.8333,37.5 93.5,35.5 Z"/></g>
<g><path style="opacity:0.958" fill="#ebf3fe" d="M 73.5,35.5 C 73.8333,35.5 74.1667,35.5 74.5,35.5C 76.1667,37.5 77.8333,39.5 79.5,41.5C 74.1667,47.1667 68.8333,52.8333 63.5,58.5C 60.5,59.5 58.5,61.5 57.5,64.5C 51.8333,69.5 46.5,74.8333 41.5,80.5C 41.1667,80.5 40.8333,80.5 40.5,80.5C 39.5265,77.865 37.8598,75.865 35.5,74.5C 40.8333,68.8333 46.1667,63.1667 51.5,57.5C 54.5,56.5 56.5,54.5 57.5,51.5C 63.1667,46.5 68.5,41.1667 73.5,35.5 Z"/></g>
<g><path style="opacity:0.989" fill="#d1e4fc" d="M 44.5,39.5 C 48.8333,43.5 53.1667,47.5 57.5,51.5C 56.5,54.5 54.5,56.5 51.5,57.5C 47.1667,53.5 42.8333,49.5 38.5,45.5C 40.8333,43.8333 42.8333,41.8333 44.5,39.5 Z"/></g>
<g><path style="opacity:0.997" fill="#b4c5f2" d="M 123.5,39.5 C 125.833,41.1667 127.833,43.1667 129.5,45.5C 124.77,49.2269 120.77,53.5603 117.5,58.5C 114.833,56.5 112.5,54.1667 110.5,51.5C 114.833,47.5 119.167,43.5 123.5,39.5 Z"/></g>
<g><path style="opacity:0.99" fill="#d0e3fa" d="M 63.5,58.5 C 68.5,62.8333 73.1667,67.5 77.5,72.5C 75.8333,74.8333 73.8333,76.8333 71.5,78.5C 67.1667,73.5 62.5,68.8333 57.5,64.5C 58.5,61.5 60.5,59.5 63.5,58.5 Z"/></g>
<g><path style="opacity:0.997" fill="#b4c4f2" d="M 104.5,57.5 C 107.453,58.7872 109.786,60.7872 111.5,63.5C 106.167,68.1667 101.167,73.1667 96.5,78.5C 94.1667,76.8333 92.1667,74.8333 90.5,72.5C 95.1667,67.5 99.8333,62.5 104.5,57.5 Z"/></g>
<g><path style="opacity:0.989" fill="#fcc94c" d="M 84.5,70.5 C 86.5786,70.9707 88.5786,71.6373 90.5,72.5C 92.1667,74.8333 94.1667,76.8333 96.5,78.5C 96.5,79.1667 96.5,79.8333 96.5,80.5C 96.5,83.1667 96.5,85.8333 96.5,88.5C 96.1667,89.1667 95.8333,89.8333 95.5,90.5C 93.8333,92.5 92.1667,94.5 90.5,96.5C 88.5648,97.1495 86.5648,97.4828 84.5,97.5C 84.5,88.5 84.5,79.5 84.5,70.5 Z"/></g>
<g><path style="opacity:0.977" fill="#fee40c" d="M 84.5,70.5 C 84.5,79.5 84.5,88.5 84.5,97.5C 82.139,97.3259 79.8056,96.9926 77.5,96.5C 75.8036,94.4752 74.137,92.4752 72.5,90.5C 72.1667,89.8333 71.8333,89.1667 71.5,88.5C 71.5,85.8333 71.5,83.1667 71.5,80.5C 71.5,79.8333 71.5,79.1667 71.5,78.5C 73.8333,76.8333 75.8333,74.8333 77.5,72.5C 79.7722,71.6814 82.1055,71.0147 84.5,70.5 Z"/></g>
<g><path style="opacity:0.979" fill="#46e6d1" d="M 35.5,74.5 C 37.8598,75.865 39.5265,77.865 40.5,80.5C 41.7143,83.1293 41.7143,85.796 40.5,88.5C 38.8333,90.5 37.1667,92.5 35.5,94.5C 22.9509,96.4446 18.1175,91.1112 21,78.5C 24.8734,73.6624 29.7067,72.3291 35.5,74.5 Z"/></g>
<g><path style="opacity:0.976" fill="#29cccb" d="M 133.5,73.5 C 141.994,72.1765 146.994,75.6765 148.5,84C 146.973,93.2651 141.64,96.7651 132.5,94.5C 131.167,92.5 129.5,90.8333 127.5,89.5C 127.5,89.1667 127.5,88.8333 127.5,88.5C 127.5,85.8333 127.5,83.1667 127.5,80.5C 127.5,80.1667 127.5,79.8333 127.5,79.5C 129.167,77.1667 131.167,75.1667 133.5,73.5 Z"/></g>
<g><path style="opacity:0.932" fill="#d0e3fa" d="M 40.5,80.5 C 40.8333,80.5 41.1667,80.5 41.5,80.5C 51.5,80.5 61.5,80.5 71.5,80.5C 71.5,83.1667 71.5,85.8333 71.5,88.5C 61.5,88.5 51.5,88.5 41.5,88.5C 41.1667,88.5 40.8333,88.5 40.5,88.5C 41.7143,85.796 41.7143,83.1293 40.5,80.5 Z"/></g>
<g><path style="opacity:0.932" fill="#b3c5f1" d="M 96.5,80.5 C 106.833,80.5 117.167,80.5 127.5,80.5C 127.5,83.1667 127.5,85.8333 127.5,88.5C 117.167,88.5 106.833,88.5 96.5,88.5C 96.5,85.8333 96.5,83.1667 96.5,80.5 Z"/></g>
<g><path style="opacity:0.906" fill="#ebf3fd" d="M 40.5,88.5 C 40.8333,88.5 41.1667,88.5 41.5,88.5C 46.5,94.1667 51.8333,99.5 57.5,104.5C 59.1667,106.833 61.1667,108.833 63.5,110.5C 68.8333,116.167 74.1667,121.833 79.5,127.5C 78.0892,129.914 76.0892,131.581 73.5,132.5C 67.8063,127.473 62.4729,122.14 57.5,116.5C 55.8333,114.167 53.8333,112.167 51.5,110.5C 45.8333,105.5 40.5,100.167 35.5,94.5C 37.1667,92.5 38.8333,90.5 40.5,88.5 Z"/></g>
<g><path style="opacity:0.989" fill="#d1e3fc" d="M 127.5,89.5 C 129.5,90.8333 131.167,92.5 132.5,94.5C 127.167,100.167 121.833,105.833 116.5,111.5C 114.086,112.911 112.419,114.911 111.5,117.5C 105.224,122.107 99.5572,127.441 94.5,133.5C 92.8333,131.167 90.8333,129.167 88.5,127.5C 93.5,121.833 98.8333,116.5 104.5,111.5C 107.167,109.5 109.5,107.167 111.5,104.5C 116.224,98.7731 121.558,93.7731 127.5,89.5 Z"/></g>
<g><path style="opacity:0.995" fill="#d0e4fb" d="M 72.5,90.5 C 74.137,92.4752 75.8036,94.4752 77.5,96.5C 73.1667,101.5 68.5,106.167 63.5,110.5C 61.1667,108.833 59.1667,106.833 57.5,104.5C 62.5,99.8333 67.5,95.1667 72.5,90.5 Z"/></g>
<g><path style="opacity:1" fill="#b3c5f2" d="M 95.5,90.5 C 100.557,95.5618 105.89,100.228 111.5,104.5C 109.5,107.167 107.167,109.5 104.5,111.5C 99.8333,106.5 95.1667,101.5 90.5,96.5C 92.1667,94.5 93.8333,92.5 95.5,90.5 Z"/></g>
<g><path style="opacity:0.999" fill="#b3c5f1" d="M 116.5,111.5 C 120.833,115.5 125.167,119.5 129.5,123.5C 127.167,125.167 125.167,127.167 123.5,129.5C 119.167,125.833 115.167,121.833 111.5,117.5C 112.419,114.911 114.086,112.911 116.5,111.5 Z"/></g>
<g><path style="opacity:1" fill="#cfe5fc" d="M 51.5,110.5 C 53.8333,112.167 55.8333,114.167 57.5,116.5C 53.5,121.167 49.1667,125.5 44.5,129.5C 42.8333,127.5 41.1667,125.5 39.5,123.5C 43.5,119.167 47.5,114.833 51.5,110.5 Z"/></g>
<g><path style="opacity:0.979" fill="#664bc2" d="M 39.5,123.5 C 41.1667,125.5 42.8333,127.5 44.5,129.5C 45.1667,131.167 45.8333,132.833 46.5,134.5C 45.5115,137.081 44.5115,139.748 43.5,142.5C 41.3913,146.646 37.8913,148.646 33,148.5C 21.7421,147.015 17.7421,140.682 21,129.5C 25.4278,122.616 31.5944,120.616 39.5,123.5 Z"/></g>
<g><path style="opacity:0.973" fill="#67329e" d="M 124.5,142.5 C 123.488,139.748 122.488,137.081 121.5,134.5C 122.167,132.833 122.833,131.167 123.5,129.5C 125.167,127.167 127.167,125.167 129.5,123.5C 142.576,120.739 148.743,126.072 148,139.5C 144.501,146.999 138.667,149.833 130.5,148C 128.004,146.669 126.004,144.836 124.5,142.5 Z"/></g>
<g><path style="opacity:0.977" fill="#29cbcc" d="M 84.5,126.5 C 85.8333,126.833 87.1667,127.167 88.5,127.5C 90.8333,129.167 92.8333,131.167 94.5,133.5C 94.5,133.833 94.5,134.167 94.5,134.5C 94.7214,137.279 94.388,139.946 93.5,142.5C 92.0692,146.723 89.0692,148.723 84.5,148.5C 84.5,141.167 84.5,133.833 84.5,126.5 Z"/></g>
<g><path style="opacity:0.986" fill="#45e5d0" d="M 84.5,126.5 C 84.5,133.833 84.5,141.167 84.5,148.5C 79.8949,148.552 76.5616,146.552 74.5,142.5C 73.612,139.946 73.2786,137.279 73.5,134.5C 73.5,133.833 73.5,133.167 73.5,132.5C 76.0892,131.581 78.0892,129.914 79.5,127.5C 81.1172,126.962 82.7839,126.629 84.5,126.5 Z"/></g>
<g><path style="opacity:0.933" fill="#d0e3fb" d="M 46.5,134.5 C 55.5,134.5 64.5,134.5 73.5,134.5C 73.2786,137.279 73.612,139.946 74.5,142.5C 64.1667,142.5 53.8333,142.5 43.5,142.5C 44.5115,139.748 45.5115,137.081 46.5,134.5 Z"/></g>
<g><path style="opacity:0.93" fill="#b4c4f1" d="M 94.5,134.5 C 103.5,134.5 112.5,134.5 121.5,134.5C 122.488,137.081 123.488,139.748 124.5,142.5C 114.167,142.5 103.833,142.5 93.5,142.5C 94.388,139.946 94.7214,137.279 94.5,134.5 Z"/></g>
</svg>
