<svg xmlns="http://www.w3.org/2000/svg" xmlns:xlink="http://www.w3.org/1999/xlink" width="512" height="512" style="shape-rendering:geometricPrecision;text-rendering:geometricPrecision;image-rendering:optimizeQuality;fill-rule:evenodd;clip-rule:evenodd"><defs><linearGradient id="b"><stop offset="0" style="stop-color:#c51a9b;stop-opacity:1"/><stop offset="1" style="stop-color:#620046;stop-opacity:0"/></linearGradient><linearGradient id="a"><stop offset="0" style="stop-color:#d70093;stop-opacity:1"/><stop offset=".9" style="stop-color:#6500d7;stop-opacity:1"/></linearGradient><linearGradient xlink:href="#a" id="c" x1="323" x2="169.116" y1="118.5" y2="380.5" gradientUnits="userSpaceOnUse"/><linearGradient xlink:href="#b" id="d" x1="307.81" x2="296.054" y1="172.027" y2="232.2" gradientUnits="userSpaceOnUse"/></defs><circle cx="256" cy="256" r="256" style="clip-rule:evenodd;fill:url(#c);fill-rule:evenodd;stroke-width:1;image-rendering:optimizeQuality;shape-rendering:geometricPrecision;text-rendering:geometricPrecision;fill-opacity:1"/><g style="shape-rendering:geometricPrecision;text-rendering:geometricPrecision;image-rendering:optimizeQuality;fill-rule:evenodd;clip-rule:evenodd"><path fill="#fefefe" d="M279.5 433.5a239 239 0 0 1-14 33q-12.33 24.657-32 44-75.237-5.728-134-52a186.5 186.5 0 0 0 47-12q20.09-8.526 36-23 5.904-3.399 10-9 10.632-8.315 17-20a106 106 0 0 0 10-14l67 22q-1.763 15.582-7 31" style="opacity:.994"/></g><g style="shape-rendering:geometricPrecision;text-rendering:geometricPrecision;image-rendering:optimizeQuality;fill-rule:evenodd;clip-rule:evenodd"><path fill="#fefcfe" d="M167.5 144.5q-24.666 8.163-27 34-2.449-2.355-4-7a67 67 0 0 0-4.5-10q-12.339-16.31-32.5-21 17.343-2.42 29-15 9.768-11.562 11.5-27 4.419 34.666 38.5 42-5.534 2.01-11 4" style="opacity:1"/></g><g style="shape-rendering:geometricPrecision;text-rendering:geometricPrecision;image-rendering:optimizeQuality;fill-rule:evenodd;clip-rule:evenodd"><path fill="#fefefe" d="M344.5 147.5q9.902 16.308 14 35a88 88 0 0 1 2 13q1.161 24.693-7 48-2.506 3.574-4 8 18.41 21.822 24 50a147 147 0 0 1 4 26v11l-22-4a583 583 0 0 0-36.5-9q-1.989.383-3 2a398 398 0 0 1-8 21q-2.742 1.878-5.5 0a8767 8767 0 0 0-71-20.5q-.575-7.483 3-14.5a218 218 0 0 1 3-11.5 3.94 3.94 0 0 0-1-2 1967 1967 0 0 1-57-23.5q10.073-13.073 23-23 8.034-5.549 16-11 12.053-6.524 24-13 1.494.129 2.5-1-.237-20.543 8.5-39a150.6 150.6 0 0 1 26-35q4-3 7-7a379 379 0 0 0 25-21q6.316-3.047 11.5-8a295 295 0 0 1 21.5 29" style="opacity:1"/></g><circle cx="305.548" cy="203.39" r="19.048" style="fill:url(#d);fill-opacity:1;fill-rule:evenodd;stroke-width:1"/></svg>