<svg xmlns="http://www.w3.org/2000/svg" xml:space="preserve" id="Layer_1" style="enable-background:new 0 0 512 512" version="1.1" viewBox="0 0 512 512"><style>.st0{fill:#14748a}</style><g id="XMLID_174_"><path id="XMLID_3390_" d="M41 315.8c-5.8 0-11.4-1.6-16.4-4.6L6 300v172.5h67.5V297.1l-11 10.2c-5.8 5.5-13.5 8.5-21.5 8.5z" class="st0"/><path id="XMLID_183_" d="M143.2 232.4v240.2h67.6V225.5l-34.7-23.7z" class="st0"/><path id="XMLID_182_" d="M290.2 273.1c-6.4 0-12.6-1.9-17.9-5.5l-13.3-9.1v214h67.5V251.8L311 265.4c-5.8 5-13.2 7.7-20.8 7.7z" class="st0"/><path id="XMLID_175_" d="M378.5 472.6H446V148l-67.5 58.7z" class="st0"/><path id="XMLID_498_" d="M401.1 69.3 429 96.4 288.8 217.5l-105.1-71.8c-7.3-5-17.2-4.3-23.7 1.8l-121.6 113-32.3-19.6v44.4l25.1 15.1c7.3 4.4 16.5 3.4 22.8-2.4l120.9-112.4 104.6 71.5c7.1 4.9 16.7 4.3 23.2-1.3l153.7-132.9 23 22.3L506 39.4 401.1 69.3z" style="fill:#232323"/></g></svg>