<svg xmlns="http://www.w3.org/2000/svg" xml:space="preserve" viewBox="0 0 106.043 106.043"><path d="M89.926 29.279c-7.258-13.476-27.647-9.33-36.906-9.33s-29.649-4.147-36.904 9.33c-7.26 13.478 8.497 75.264 36.904 75.264 28.409 0 44.162-61.787 36.906-75.264" style="fill:#ff5a58"/><path d="M53.02 106.043c-9.716 0-18.873-6.736-26.483-19.479-5.42-9.075-9.836-21.013-12.117-32.752-2.228-11.465-2.091-20.666.376-25.245 5.173-9.608 16.254-10.72 24.139-10.72 3.045 0 6 .187 8.608.352 2.119.134 3.95.25 5.478.25s3.358-.116 5.478-.25c2.607-.165 5.563-.352 8.608-.352 7.885 0 18.966 1.111 24.141 10.72 2.466 4.579 2.602 13.783.373 25.249-2.282 11.742-6.7 23.681-12.12 32.755-7.611 12.739-16.767 19.472-26.481 19.472M38.934 20.847c-11.309 0-18.14 2.905-21.498 9.142-4.388 8.146.486 36.298 11.677 55.036 4.908 8.219 13.04 18.017 23.907 18.017 10.865 0 18.996-9.793 23.903-18.009C88.116 66.296 92.992 38.139 88.606 29.99c-3.359-6.237-10.191-9.142-21.5-9.142-2.95 0-5.855.184-8.419.346-2.08.131-4.044.256-5.667.256-1.622 0-3.587-.125-5.667-.256-2.564-.163-5.47-.347-8.419-.347"/><ellipse cx="32.592" cy="44.797" rx="1.552" ry="3.745"/><ellipse cx="53.02" cy="44.797" rx="1.553" ry="3.745"/><ellipse cx="73.448" cy="44.797" rx="1.551" ry="3.745"/><ellipse cx="42.805" cy="58.842" rx="1.552" ry="3.745"/><ellipse cx="63.233" cy="58.842" rx="1.551" ry="3.745"/><ellipse cx="32.592" cy="66.503" rx="1.552" ry="3.745"/><ellipse cx="51.743" cy="72.248" rx="1.552" ry="3.746"/><ellipse cx="73.448" cy="67.141" rx="1.551" ry="3.746"/><ellipse cx="42.167" cy="82.463" rx="1.551" ry="3.745"/><ellipse cx="63.233" cy="82.463" rx="1.551" ry="3.745"/><path d="m63.546 33.704-8.366-5.857-4.974 8.919-1.773-10.058-9.824 2.79 5.857-8.365-8.92-4.975 10.059-1.774-2.789-9.824 8.366 5.857 4.973-8.918 1.775 10.056 9.823-2.788-5.857 8.365 8.92 4.975-10.058 1.773z" style="fill:#a8d626"/><path d="M50.206 38.266a1.504 1.504 0 0 1-1.478-1.24l-1.484-8.421-8.226 2.336a1.498 1.498 0 0 1-1.639-2.303l4.904-7.004-7.469-4.165a1.5 1.5 0 0 1 .47-2.787l8.423-1.485-2.336-8.226a1.501 1.501 0 0 1 2.303-1.639l7.005 4.905L54.844.77a1.498 1.498 0 0 1 2.787.469l1.485 8.42 8.226-2.335a1.51 1.51 0 0 1 1.632.573c.367.518.37 1.21.006 1.73l-4.904 7.004 7.469 4.165a1.5 1.5 0 0 1-.47 2.787l-8.422 1.485 2.27 7.999c.091.193.141.248.141.476 0 .829-.671 1.339-1.5 1.339h-.02c-.301 0-.601.071-.86-.11l-7.005-4.824-4.164 7.508c-.267.481-.772.81-1.309.81m-1.773-13.058a1.5 1.5 0 0 1 1.478 1.24l1.04 5.903 2.919-5.234a1.503 1.503 0 0 1 2.171-.499l4.911 3.439-1.637-5.767a1.5 1.5 0 0 1 1.183-1.887l5.903-1.041-5.235-2.92a1.5 1.5 0 0 1-.499-2.171l3.437-4.91-5.766 1.637a1.5 1.5 0 0 1-1.206-.172 1.5 1.5 0 0 1-.681-1.01L55.41 5.913l-2.92 5.234a1.5 1.5 0 0 1-2.17.499l-4.911-3.438 1.638 5.767a1.5 1.5 0 0 1-1.183 1.887l-5.904 1.042 5.235 2.92a1.5 1.5 0 0 1 .498 2.171l-3.438 4.91 5.766-1.637q.205-.06.412-.06"/></svg>