<?xml version="1.0" encoding="iso-8859-1"?>
<!-- Generator: Adobe Illustrator 19.0.0, SVG Export Plug-In . SVG Version: 6.00 Build 0)  -->
<!-- License: CC0. Made by SVG Repo: https://www.svgrepo.com/svg/119714/strawberry -->
<svg version="1.1" id="Layer_1" xmlns="http://www.w3.org/2000/svg" xmlns:xlink="http://www.w3.org/1999/xlink" x="0px" y="0px"
	 viewBox="0 0 106.043 106.043" style="enable-background:new 0 0 106.043 106.043;" xml:space="preserve">
<g>
	<g>
		<g>
			<path style="fill:#FF5A58;" d="M89.926,29.279c-7.258-13.476-27.647-9.33-36.906-9.33s-29.649-4.147-36.904,9.33
				c-7.26,13.478,8.497,75.264,36.904,75.264C81.429,104.543,97.182,42.756,89.926,29.279z"/>
		</g>
		<g>
			<path d="M53.02,106.043c-9.716,0-18.873-6.736-26.483-19.479c-5.42-9.075-9.836-21.013-12.117-32.752
				c-2.228-11.465-2.091-20.666,0.376-25.245c5.173-9.608,16.254-10.72,24.139-10.72c3.045,0,6,0.187,8.608,0.352
				c2.119,0.134,3.95,0.25,5.478,0.25s3.358-0.116,5.478-0.25c2.607-0.165,5.563-0.352,8.608-0.352
				c7.885,0,18.966,1.111,24.141,10.72c2.466,4.579,2.602,13.783,0.373,25.249c-2.282,11.742-6.7,23.681-12.12,32.755
				C71.89,99.31,62.734,106.043,53.02,106.043z M38.934,20.847c-11.309,0-18.14,2.905-21.498,9.142
				c-4.388,8.146,0.486,36.298,11.677,55.036c4.908,8.219,13.04,18.017,23.907,18.017c10.865,0,18.996-9.793,23.903-18.009
				C88.116,66.296,92.992,38.139,88.606,29.99c-3.359-6.237-10.191-9.142-21.5-9.142c-2.95,0-5.855,0.184-8.419,0.346
				c-2.08,0.131-4.044,0.256-5.667,0.256c-1.622,0-3.587-0.125-5.667-0.256C44.789,21.031,41.883,20.847,38.934,20.847z"/>
		</g>
	</g>
	<g>
		<g>
			<g>
				<ellipse cx="32.592" cy="44.797" rx="1.552" ry="3.745"/>
			</g>
		</g>
		<g>
			<g>
				<ellipse cx="53.02" cy="44.797" rx="1.553" ry="3.745"/>
			</g>
		</g>
		<g>
			<g>
				<ellipse cx="73.448" cy="44.797" rx="1.551" ry="3.745"/>
			</g>
		</g>
		<g>
			<g>
				<ellipse cx="42.805" cy="58.842" rx="1.552" ry="3.745"/>
			</g>
		</g>
		<g>
			<g>
				<ellipse cx="63.233" cy="58.842" rx="1.551" ry="3.745"/>
			</g>
		</g>
		<g>
			<g>
				<ellipse cx="32.592" cy="66.503" rx="1.552" ry="3.745"/>
			</g>
		</g>
		<g>
			<g>
				<ellipse cx="51.743" cy="72.248" rx="1.552" ry="3.746"/>
			</g>
		</g>
		<g>
			<g>
				<ellipse cx="73.448" cy="67.141" rx="1.551" ry="3.746"/>
			</g>
		</g>
		<g>
			<g>
				<ellipse cx="42.167" cy="82.463" rx="1.551" ry="3.745"/>
			</g>
		</g>
		<g>
			<g>
				<ellipse cx="63.233" cy="82.463" rx="1.551" ry="3.745"/>
			</g>
		</g>
	</g>
	<g>
		<g>
			<polygon style="fill:#A8D626;" points="63.546,33.704 55.18,27.847 50.206,36.766 48.433,26.708 38.609,29.498 44.466,21.133 
				35.546,16.158 45.605,14.384 42.816,4.56 51.182,10.417 56.155,1.499 57.93,11.555 67.753,8.767 61.896,17.132 70.816,22.107 
				60.758,23.88 			"/>
		</g>
		<g>
			<path d="M50.206,38.266c-0.082,0-0.166-0.007-0.249-0.021c-0.626-0.105-1.118-0.593-1.229-1.219l-1.484-8.421l-8.226,2.336
				c-0.609,0.175-1.265-0.055-1.633-0.573c-0.367-0.518-0.37-1.21-0.006-1.73l4.904-7.004l-7.469-4.165
				c-0.555-0.309-0.854-0.934-0.749-1.559c0.106-0.626,0.594-1.118,1.219-1.228l8.423-1.485l-2.336-8.226
				c-0.173-0.61,0.057-1.264,0.574-1.632c0.516-0.368,1.208-0.371,1.729-0.007l7.005,4.905l4.165-7.467
				c0.309-0.554,0.932-0.855,1.559-0.749c0.626,0.106,1.118,0.593,1.228,1.218l1.485,8.42l8.226-2.335
				c0.607-0.171,1.264,0.056,1.632,0.573c0.367,0.518,0.37,1.21,0.006,1.73l-4.904,7.004l7.469,4.165
				c0.555,0.309,0.854,0.933,0.749,1.559c-0.105,0.626-0.594,1.118-1.219,1.228l-8.422,1.485l2.27,7.999
				c0.091,0.193,0.141,0.248,0.141,0.476c0,0.829-0.671,1.339-1.5,1.339c-0.004,0-0.012,0-0.02,0c-0.301,0-0.601,0.071-0.86-0.11
				l-7.005-4.824l-4.164,7.508C51.248,37.937,50.743,38.266,50.206,38.266z M48.433,25.208c0.279,0,0.556,0.078,0.797,0.229
				c0.359,0.225,0.606,0.593,0.681,1.011l1.04,5.903l2.919-5.234c0.207-0.371,0.562-0.637,0.975-0.732
				c0.414-0.094,0.848-0.01,1.196,0.233l4.911,3.439l-1.637-5.767c-0.115-0.408-0.053-0.847,0.173-1.206
				c0.225-0.36,0.592-0.607,1.01-0.681l5.903-1.041l-5.235-2.92c-0.371-0.207-0.637-0.561-0.732-0.975
				c-0.095-0.413-0.011-0.848,0.233-1.196l3.437-4.91l-5.766,1.637c-0.404,0.116-0.846,0.055-1.206-0.172
				c-0.359-0.225-0.606-0.592-0.681-1.01L55.41,5.913l-2.92,5.234c-0.206,0.371-0.561,0.637-0.974,0.732
				c-0.414,0.095-0.848,0.01-1.196-0.233l-4.911-3.438l1.638,5.767c0.115,0.408,0.053,0.847-0.172,1.206
				c-0.226,0.36-0.593,0.607-1.011,0.681l-5.904,1.042l5.235,2.92c0.371,0.207,0.637,0.561,0.731,0.975
				c0.095,0.414,0.011,0.848-0.233,1.196l-3.438,4.91l5.766-1.637C48.157,25.227,48.295,25.208,48.433,25.208z"/>
		</g>
	</g>
</g>
</svg>
