<svg xmlns="http://www.w3.org/2000/svg" width="128" height="128" style="shape-rendering:geometricPrecision;text-rendering:geometricPrecision;image-rendering:optimizeQuality;fill-rule:evenodd;clip-rule:evenodd"><path fill="#d41900" d="M45.5 1.5a40.936 40.936 0 0 1 9 .5C38.9 13.792 33.4 29.292 38 48.5c1.632 6.43 5.132 11.597 10.5 15.5A165.085 165.085 0 0 1 71 79.5c2.527 5.816 2.527 11.816 0 18-3.914 5.706-9.414 8.373-16.5 8-26.867-3.7-42.367-19.033-46.5-46C6.069 39.618 12.569 23.118 27.5 10c5.708-3.69 11.708-6.523 18-8.5Z" style="opacity:1"/><path d="M68.5 21.5c28.99 1.817 45.823 17.15 50.5 46 2.192 25.46-7.975 43.96-30.5 55.5-5.162 2.129-10.495 2.796-16 2 14.401-10.515 20.234-24.682 17.5-42.5-1.487-8.475-5.654-15.308-12.5-20.5a215.673 215.673 0 0 1-17-10c-8.592-8.574-8.925-17.574-1-27 2.959-1.604 5.959-2.77 9-3.5Z" style="opacity:1"/></svg>