<svg xmlns="http://www.w3.org/2000/svg" width="128" height="128" style="shape-rendering:geometricPrecision;text-rendering:geometricPrecision;image-rendering:optimizeQuality;fill-rule:evenodd;clip-rule:evenodd"><path fill="#d41900" d="M45.5 1.5a41 41 0 0 1 9 .5Q31.1 19.688 38 48.5q2.448 9.645 10.5 15.5A165 165 0 0 1 71 79.5q3.79 8.724 0 18-5.871 8.56-16.5 8-40.3-5.55-46.5-46Q5.103 29.677 27.5 10q8.562-5.535 18-8.5" style="opacity:1"/><path d="M68.5 21.5q43.485 2.725 50.5 46 3.288 38.19-30.5 55.5-7.743 3.194-16 2Q94.101 109.227 90 82.5 87.77 69.788 77.5 62a216 216 0 0 1-17-10q-12.888-12.861-1-27 4.439-2.405 9-3.5" style="opacity:1"/></svg>