<svg xmlns="http://www.w3.org/2000/svg" width="800" height="800" fill="none" viewBox="0 0 32 32"><circle cx="16" cy="16" r="14" fill="#4b4b4b"/><path fill="url(#a)" fill-rule="evenodd" d="M23.998 16.058c0-.235-.18-.37-.401-.303L8.4 20.394a.605.605 0 0 0-.4.546v4.74c0 .235.18.37.4.303l15.197-4.638c.22-.067.4-.312.4-.547z" clip-rule="evenodd"/><path fill="#ff9800" fill-rule="evenodd" d="M8 15.91c0 .234.18.479.4.546l15.2 4.639c.22.067.4-.068.4-.302v-4.74c0-.235-.18-.48-.4-.548L8.4 10.867c-.22-.068-.4.068-.4.302z" clip-rule="evenodd"/><path fill="#ff9800" fill-rule="evenodd" d="M23.998 6.32c0-.235-.18-.37-.401-.303L8.4 10.655a.605.605 0 0 0-.401.547v4.74c0 .235.18.37.4.303l15.197-4.638c.22-.068.4-.313.4-.547z" clip-rule="evenodd"/><defs><linearGradient id="a" x1="16.817" x2="18.503" y1="22.875" y2="18.59" gradientUnits="userSpaceOnUse"><stop stop-color="#ff9700"/><stop offset=".53" stop-color="#f48e00"/><stop offset="1" stop-color="#d06f00"/></linearGradient></defs></svg>