<svg xmlns="http://www.w3.org/2000/svg" xml:space="preserve" id="Layer_1" x="0" y="0" style="enable-background:new 0 0 111.3 111.3" version="1.1" viewBox="0 0 111.3 111.3"><style>.st0{fill:#050a52}</style><path d="M94.9 0H16.5C7.4 0 0 7.4 0 16.5v78.4c0 9.1 7.4 16.5 16.5 16.5h78.4c9.1 0 16.5-7.4 16.5-16.5V16.5C111.3 7.4 104 0 94.9 0zM55.7 100.4c-24.7 0-44.8-20-44.8-44.8s20-44.8 44.8-44.8 44.8 20 44.8 44.8-20.1 44.8-44.8 44.8z" class="st0"/><path d="M93.6 55.7 64.7 39.9l3.2 9.9H43.5l3.1-9.9-28.8 15.8 28.8 15.8-3.1-10h24.4l-3.2 10z" class="st0"/></svg>