<?xml version="1.0" encoding="UTF-8" standalone="no"?>
<svg xmlns:dc="http://purl.org/dc/elements/1.1/" xmlns:cc="http://creativecommons.org/ns#" xmlns:rdf="http://www.w3.org/1999/02/22-rdf-syntax-ns#" xmlns:svg="http://www.w3.org/2000/svg" xmlns="http://www.w3.org/2000/svg" xmlns:xlink="http://www.w3.org/1999/xlink" width="71" height="17" version="1.1" viewBox="0 0 107.92 25.84" id="svg28">
  <defs id="defs32">
    <linearGradient id="linearGradient870">
      <stop style="stop-color:#ca153e;stop-opacity:1" offset="0" id="stop866"/>
      <stop style="stop-color:#e93c17;stop-opacity:0.97402596" offset="1" id="stop868"/>
    </linearGradient>
    <linearGradient xlink:href="#linearGradient870" id="linearGradient872" x1="1.4486842e-07" y1="16.116116" x2="70.355469" y2="0.00195276" gradientUnits="userSpaceOnUse"/>
    <linearGradient gradientTransform="scale(1.52)" gradientUnits="userSpaceOnUse" y2="0.00195276" x2="16.013672" y1="15.849537" x1="0.082176067" id="linearGradient866" xlink:href="#linearGradient870"/>
    <linearGradient gradientTransform="scale(1.52)" y2="2.7148438" x2="70.355469" y1="16.17824" x1="18.489584" gradientUnits="userSpaceOnUse" id="linearGradient877" xlink:href="#linearGradient870"/>
    <linearGradient y2="0" x2="16" y1="16" x1="0" gradientUnits="userSpaceOnUse" id="linearGradient854" xlink:href="#linearGradient870"/>
  </defs>
  <metadata id="metadata2">
    <rdf:RDF>
      <cc:Work rdf:about="">
        <dc:format>image/svg+xml</dc:format>
        <dc:type rdf:resource="http://purl.org/dc/dcmitype/StillImage"/>
        <dc:title/>
        <cc:license rdf:resource="http://creativecommons.org/licenses/by/4.0/"/>
      </cc:Work>
      <cc:License rdf:about="http://creativecommons.org/licenses/by/4.0/">
        <cc:permits rdf:resource="http://creativecommons.org/ns#Reproduction"/>
        <cc:permits rdf:resource="http://creativecommons.org/ns#Distribution"/>
        <cc:requires rdf:resource="http://creativecommons.org/ns#Notice"/>
        <cc:requires rdf:resource="http://creativecommons.org/ns#Attribution"/>
        <cc:permits rdf:resource="http://creativecommons.org/ns#DerivativeWorks"/>
      </cc:License>
    </rdf:RDF>
  </metadata>
  <g id="g859">
    <path style="opacity:1;fill:url(#linearGradient854);fill-opacity:1;stroke:none;stroke-width:0.5;stroke-linecap:round;stroke-miterlimit:4;stroke-dasharray:none;stroke-opacity:1" d="M 2.0019531,0.00195313 C 0.90167472,0.00195313 0,0.90356005 0,2.0039062 V 14.013672 c 0,0.461023 0.15899692,0.887074 0.42382812,1.226562 0.36724242,0.47081 0.93886318,0.775391 1.57812498,0.775391 H 14.011719 c 1.100277,0 2.001953,-0.901607 2.001953,-2.001953 V 2.0039062 c 0,-0.4428995 -0.146197,-0.8528586 -0.392578,-1.18554682 v -0.001953 c -0.002,-0.002651 -0.0034,-0.00517 -0.0059,-0.007813 -0.0065,-0.008705 -0.01272,-0.0170735 -0.01953,-0.0253906 -0.0046,-0.005645 -0.0091,-0.0119064 -0.01367,-0.0175781 -0.01362,-0.0174026 -0.0287,-0.0339832 -0.04297,-0.0507813 C 15.171015,0.27978089 14.622214,0.00195313 14.011719,0.00195313 Z M 10,2 v 3 h 2 V 7 L 15.013672,7.00781 15,9 h -3 v 2 H 10 L 10.0078,14.013672 8,14 V 10 H 6 L 6.00586,12.011719 4,12 V 9 H 1 V 7 H 4 L 4.0039062,4.0039062 6,4 V 6 L 8.0078125,6.00586 V 2.0039062 Z" transform="scale(1.52)" id="rect826"/>
    <path id="path849" d="M 83.160626,4.1265626 V 6.72125 h 2.08703 V 4.1265626 Z m -53.77,1.2201561 V 8.633125 h -1.395313 v 1.665469 h 1.395313 v 6.189843 c 0,1.4588 0.279953,2.484051 0.866874,3.06375 0.58715,0.572651 1.623244,0.843126 3.102344,0.843126 h 2.048437 v -1.778282 h -2.048437 c -0.78102,0 -1.284462,-0.139262 -1.514063,-0.374062 -0.21725,-0.22987 -0.35625,-0.819822 -0.35625,-1.754532 v -6.189843 h 3.91875 V 8.633125 h -3.91875 V 5.3467187 h -0.09204 z m 59.09,0 V 8.633125 h -1.395313 v 1.665469 h 1.395313 v 6.189843 c 0,1.4588 0.279944,2.484051 0.866874,3.06375 0.58715,0.572651 1.623244,0.843126 3.102344,0.843126 h 2.045469 v -1.778282 h -2.045469 c -0.78103,0 -1.284462,-0.139262 -1.514063,-0.374062 h -0.003 c -0.217147,-0.22994 -0.356178,-0.819861 -0.356178,-1.754532 v -6.189843 h 3.91875 V 8.633125 h -3.91875 V 5.3467187 h -0.09204 z M 42.1325,8.3540626 c -1.754762,6.688e-4 -3.16897,0.5693602 -4.212656,1.7040624 -1.0375,1.1287 -1.552657,2.657506 -1.552657,4.568906 0,1.8509 0.54528,3.332906 1.63875,4.426406 v 0.003 c 1.100401,1.0934 2.594563,1.63875 4.459063,1.63875 0.743601,0 1.476944,-0.07864 2.199844,-0.231561 0.72243,-0.152821 1.42625,-0.37333 2.11375,-0.665 l 0.05937,-0.02376 v -2.015781 l -0.136557,0.07422 c -0.66936,0.35517 -1.346056,0.621384 -2.027656,0.798593 -0.67428,0.177088 -1.373138,0.26422 -2.095937,0.26422 -1.2436,0 -2.201662,-0.335011 -2.891563,-0.9975 -0.66262,-0.65021 -1.034694,-1.600926 -1.131094,-2.838125 h 8.725157 v -1.02125 c 0,-1.7388 -0.461995,-3.125775 -1.389376,-4.1443754 C 44.971303,8.8699378 43.71082,8.3546934 42.135467,8.3540196 Z m 12.486563,0 c -0.819341,0 -1.547032,0.1756474 -2.182032,0.5284374 h -0.003 c -0.556665,0.31289 -1.037523,0.7892088 -1.463522,1.380469 V 8.633125 h -2.095938 v 11.762188 h 2.095938 v -6.635157 c 0,-1.1138 0.292104,-1.980568 0.866875,-2.615469 0.5747,-0.634839 1.350288,-0.949999 2.357187,-0.95 0.834721,0 1.4438,0.260052 1.8525,0.780782 0.40856,0.52059 0.620469,1.318218 0.620469,2.401718 v 7.018126 h 2.087031 v -7.080469 c 0,-1.6117 -0.34395,-2.844488 -1.045,-3.6871877 -0.7009,-0.8496101 -1.741468,-1.2735937 -3.090468,-1.2735937 z m 10.625156,0 c -0.626981,0 -1.269387,0.068803 -1.929688,0.2078124 C 62.654491,8.6939451 61.975,8.89722 61.275,9.1675 l -0.05937,0.02375 v 1.974219 l 0.136557,-0.07422 c 0.57212,-0.3133 1.167788,-0.547054 1.787187,-0.703594 0.619515,-0.15658 1.254807,-0.234531 1.908907,-0.234531 1.0261,0 1.809457,0.236155 2.360156,0.700625 0.557241,0.45774 0.834218,1.098838 0.834218,1.953438 v 0.095 h -2.573906 c -1.741199,0 -3.06488,0.333213 -3.963281,1.012343 -0.891469,0.67921 -1.338906,1.693451 -1.338906,3.01625 0,1.1355 0.360178,2.059894 1.074687,2.746093 0.721721,0.679265 1.692232,1.018282 2.894532,1.018282 0.94796,0 1.755731,-0.168696 2.419531,-0.507656 0.58726,-0.30612 1.073944,-0.784888 1.487343,-1.380469 v 1.588282 h 2.087032 v -6.6975 c 0,-1.778401 -0.416237,-3.12285 -1.264688,-4.0137504 -0.84843,-0.8907705 -2.130485,-1.3300002 -3.820779,-1.33 z m 12.314375,0 c -1.8237,0 -3.275475,0.5495549 -4.334375,1.6506244 -1.0521,1.101201 -1.576406,2.613638 -1.576406,4.518438 0,1.8774 0.519971,3.383056 1.564531,4.497656 1.0445,1.1146 2.458862,1.674375 4.221562,1.674375 0.646401,0 1.25685,-0.06456 1.82875,-0.19 0.57858,-0.125476 1.137575,-0.313122 1.674375,-0.564062 l 0.05344,-0.02376 v -1.974219 l -0.136557,0.07719 c -0.531299,0.29289 -1.066625,0.512521 -1.603124,0.662031 -0.52976,0.142622 -1.065963,0.21375 -1.609063,0.21375 -1.2139,0 -2.138601,-0.379291 -2.8025,-1.137031 -0.66411,-0.76473 -1.000469,-1.838338 -1.000469,-3.235938 0,-1.3976 0.336589,-2.466363 1.000469,-3.224063 0.66401,-0.76462 1.588799,-1.145937 2.8025,-1.145937 0.542729,0 1.079563,0.07332 1.609063,0.222656 0.53647,0.14261 1.071624,0.360145 1.603124,0.653125 l 0.136557,0.07719 V 9.1110843 l -0.05344,-0.02375 C 80.407191,8.8433532 79.860212,8.6596537 79.295313,8.5410937 v 0.00296 c -0.56485,-0.1255702 -1.144519,-0.19 -1.736719,-0.19 z m 5.602032,0.2790624 v 11.762188 h 2.08703 V 8.633125 Z m 12.240155,0 4.720309,11.483125 -0.326559,0.834219 c -0.34937,0.917959 -0.674814,1.498675 -0.935157,1.721875 -0.268429,0.23009 -0.651741,0.347343 -1.16078,0.347343 h -1.208281 v 1.778282 h 1.612031 c 0.86957,0 1.575344,-0.216675 2.104846,-0.653125 0.53588,-0.441741 1.05739,-1.349919 1.59718,-2.734218 l 5.13594,-12.777501 h -2.21468 l -3.5536,8.897344 -3.556561,-8.897344 z m -53.2475,1.52 c 0.916641,0 1.6372,0.298251 2.185,0.899531 0.53563,0.5808 0.809046,1.359338 0.840156,2.333438 l -6.555,0.01187 c 0.109607,-1.016796 0.448652,-1.810931 1.042032,-2.372031 0.62209,-0.58162 1.444512,-0.872813 2.487812,-0.872813 z m 24.290313,4.423438 h 1.799062 v 0.329531 c 0,1.2243 -0.313675,2.195288 -0.938125,2.927187 -0.617469,0.72485 -1.431662,1.083593 -2.464062,1.083593 -0.74797,0 -1.326431,-0.189532 -1.754532,-0.564061 -0.421739,-0.382201 -0.632343,-0.888661 -0.632343,-1.54375 0,-0.82591 0.278665,-1.384106 0.843125,-1.718907 0.562349,-0.33349 1.617375,-0.513594 3.146875,-0.513593 z" style="fill:url(#linearGradient877);fill-opacity:1;stroke-width:0.06579708;paint-order:markers fill stroke"/>
  </g>
  <g id="g24" transform="translate(-13.229,-13.229)" style="fill:#ffffff"/>
</svg>