<?xml version="1.0" encoding="UTF-8" standalone="no"?>
<svg version="1.1" id="svg44" width="511.98489" height="511.98489" viewBox="0 0 511.98489 511.98489" xml:space="preserve"
  xmlns:xlink="http://www.w3.org/1999/xlink"
  xmlns="http://www.w3.org/2000/svg"
  xmlns:svg="http://www.w3.org/2000/svg">
  <defs id="defs18">
    <linearGradient xlink:href="#linearGradient4975" id="linearGradient4633" gradientUnits="userSpaceOnUse" gradientTransform="matrix(220.35404,71.49064,-71.524326,220.45789,147.85676,119.81708)" x2="0.5565635" x1="0.46521288" y1="-0.67390651" y2="0.81129867" />
    <linearGradient id="linearGradient4975">
      <stop style="stop-color:#1972e7" offset="0" id="stop4971" />
      <stop style="stop-color:#1969d5" offset="1" id="stop4973" />
    </linearGradient>
    <linearGradient xlink:href="#3" id="linearGradient1331" x1="101.74381" y1="33.726189" x2="101.59915" y2="135.466" gradientUnits="userSpaceOnUse" gradientTransform="matrix(3.5955044,1.1665087,-1.1670582,3.5971982,91.558974,-66.752832)" />
    <linearGradient id="3" x2="1" gradientTransform="matrix(61.286,0,0,61.286,29.399,42.333)" gradientUnits="userSpaceOnUse">
      <stop offset="0" id="stop1397" style="stop-color:#afccfb" />
      <stop offset="1" id="stop1399" style="stop-color:#8bb5f8" />
    </linearGradient>
    <linearGradient xlink:href="#1" id="linearGradient2962" gradientUnits="userSpaceOnUse" gradientTransform="matrix(39.53785,185.80008,-185.7402,39.604294,130.75731,128.59432)" x2="1.7695541" x1="0.018202547" y1="-0.51170158" y2="0.4994337" />
    <linearGradient id="1" x2="1" gradientTransform="matrix(25.118,43.506,-43.506,25.118,25.812,45.935)" gradientUnits="userSpaceOnUse">
      <stop offset="0" id="stop3122" style="stop-color:#659cf6" />
      <stop offset="1" id="stop3124" style="stop-color:#4285f4" />
    </linearGradient>
    <linearGradient xlink:href="#2" id="linearGradient2688" x1="67.452377" y1="40.320694" x2="67.733002" y2="95.25" gradientUnits="userSpaceOnUse" gradientTransform="matrix(5.7988282,0,0,5.8015603,-146.51616,-146.88529)" />
    <linearGradient id="2">
      <stop style="stop-color:#3680f0" offset="0" id="stop2682" />
      <stop style="stop-color:#2678ec" offset="1" id="stop2684" />
    </linearGradient>
  </defs>
  <g id="g24" transform="matrix(1.2396992,0,0,1.23911,-61.384165,-61.111443)" style="stroke-width:0.806845">
    <g id="g21" transform="matrix(0.76715922,-0.24889355,0.24889355,0.76715922,-4.1093863,123.32035)" style="stroke-width:1.00033">
      <path d="m 255.99319,255.99433 110.85049,63.99671 -110.85049,191.99385 c 141.38068,0 255.9917,-114.61051 255.9917,-255.99056 0,-46.64165 -12.53559,-90.3316 -34.33115,-127.99716 h -221.6632 z" id="path34-4" style="fill:url(#linearGradient1331);stroke-width:1.00033" />
      <path d="M 256.56646,0 C 161.57016,0 78.691846,51.647146 34.312238,128.36002 L 145.42798,320.82237 256.56646,256.6594 V 128.32971 H 478.80554 C 434.41835,51.635777 351.55141,0 256.56646,0 Z" id="path36-1" style="fill:url(#linearGradient4633);stroke-width:1.00033" />
      <path d="m 0.00151177,255.99433 c 0,141.38005 114.60723823,255.99056 255.99168823,255.99056 L 366.84368,319.99103 255.9932,255.99433 145.14271,319.99103 34.314897,128.0274 C 12.531434,165.68239 0,209.35646 0,255.99056" id="path38-7" style="fill:url(#linearGradient2962);stroke-width:1.00033" />
    </g>
    <g id="g22" transform="matrix(0.52573739,0,0,0.52573739,126.54559,126.54497)" style="stroke-width:1.53469">
      <path d="m 358.68467,246.2208 c 0,62.1117 -50.35308,112.46454 -112.46506,112.46454 -62.11198,0 -112.46504,-50.35284 -112.46504,-112.46454 0,-62.11171 50.35306,-112.46455 112.46504,-112.46455 62.11198,0 112.46506,50.35284 112.46506,112.46455" fill="#ffffff" id="path40" style="stroke-width:1.53469" />
      <path d="m 336.68405,246.2208 c 0,49.96118 -40.50302,90.46403 -90.46443,90.46403 -49.96141,0 -90.46444,-40.50285 -90.46444,-90.46403 0,-49.96119 40.50303,-90.46404 90.46444,-90.46404 49.96141,0 90.46443,40.50285 90.46443,90.46404" id="path42-5" style="fill:url(#linearGradient2688);stroke-width:1.53469" />
    </g>
  </g>
</svg>
