<svg xmlns="http://www.w3.org/2000/svg" viewBox="0 0 512 512"><path d="M40.075 50.76h83.066v103.665H40.075z" style="fill:#9ac0df"/><path d="M116.9 50.76h109.857v103.665H116.9z" style="fill:#5d809d"/><path d="M225.509 51.995h39.531V155.66h-39.531z" style="fill:#9ac0df"/><path d="M41.552 151.211h79.717v103.665H41.552z" style="fill:#5d809d"/><path d="M120.021 152.446h109.857v103.665H120.021z" style="fill:#9ac0df"/><path d="M228.63 152.703h51.81v103.665h-51.81z" style="fill:#5d809d"/><path d="M39.847 253.643h86.415v103.665H39.847z" style="fill:#9ac0df"/><path d="M120.021 253.643h109.857v103.665H120.021z" style="fill:#5d809d"/><path d="M228.63 254.878h43.996v103.665H228.63z" style="fill:#9ac0df"/><path d="M42.668 354.841h78.601v103.665H42.668z" style="fill:#5d809d"/><path d="M120.021 356.076h109.857v103.665H120.021z" style="fill:#9ac0df"/><path d="M228.63 356.332h55.159v103.665H228.63z" style="fill:#5d809d"/><path d="M266.439 52.319h197.584v406.33H266.439z" style="fill:#597389"/><rect width="445.401" height="429.773" x="29.227" y="39.596" rx="64.745" ry="64.745" style="stroke:#304059;stroke-width:27px;fill:none"/><path d="M224.067 41.83h58.048v428.656h-58.048z" style="fill:#304059"/><circle cx="255.323" cy="241.924" r="72" style="fill:#304059"/><path d="m288.26 223.273 25.249 39.955H263.01z" style="fill:#597389" transform="rotate(89.165 291.663 243.014)"/><path d="m288.26 223.273 25.249 39.955H263.01z" style="fill:#597389" transform="rotate(-90.9 244.285 263.776)skewX(-4.439)"/></svg>