<?xml version="1.0" encoding="UTF-8"?>
<svg xmlns="http://www.w3.org/2000/svg" xmlns:bx="https://boxy-svg.com" viewBox="0 0 512 512"><rect x="40.075" y="50.76" width="83.066" height="103.665" style="fill: rgb(154, 192, 223);"/><rect x="116.9" y="50.76" width="109.857" height="103.665" style="fill: rgb(93, 128, 157);"/><rect x="225.509" y="51.995" width="39.531" height="103.665" style="fill: rgb(154, 192, 223);"/><rect x="41.552" y="151.211" width="79.717" height="103.665" style="fill: rgb(93, 128, 157);"/><rect x="120.021" y="152.446" width="109.857" height="103.665" style="fill: rgb(154, 192, 223);"/><rect x="228.63" y="152.703" width="51.81" height="103.665" style="fill: rgb(93, 128, 157);"/><rect x="39.847" y="253.643" width="86.415" height="103.665" style="fill: rgb(154, 192, 223);"/><rect x="120.021" y="253.643" width="109.857" height="103.665" style="fill: rgb(93, 128, 157);"/><rect x="228.63" y="254.878" width="43.996" height="103.665" style="fill: rgb(154, 192, 223);"/><rect x="42.668" y="354.841" width="78.601" height="103.665" style="fill: rgb(93, 128, 157);"/><rect x="120.021" y="356.076" width="109.857" height="103.665" style="fill: rgb(154, 192, 223);"/><rect x="228.63" y="356.332" width="55.159" height="103.665" style="fill: rgb(93, 128, 157);"/><rect x="266.439" y="52.319" width="197.584" height="406.33" style="fill: rgb(89, 115, 137);"/><rect x="29.227" y="39.596" width="445.401" height="429.773" style="stroke: rgb(48, 64, 89); stroke-width: 27px; fill: none;" rx="64.745" ry="64.745"/><rect x="224.067" y="41.83" width="58.048" height="428.656" style="fill: rgb(48, 64, 89);"/><ellipse style="fill: rgb(48, 64, 89);" cx="255.323" cy="241.924" rx="72" ry="72"/><path d="M 288.26 223.273 L 313.509 263.228 L 263.01 263.228 L 288.26 223.273 Z" style="fill: rgb(89, 115, 137);" transform="matrix(0.014574, 0.999894, -0.999894, 0.014574, 530.400452, -52.15976)" bx:shape="triangle 263.01 223.273 50.499 39.955 0.5 0 1@9343d11f"/><path d="M 288.26 223.273 L 313.509 263.228 L 263.01 263.228 L 288.26 223.273 Z" style="fill: rgb(89, 115, 137);" transform="matrix(-0.015707, -0.999877, 1.001096, 0.061914, -15.621473, 512.174194)" bx:shape="triangle 263.01 223.273 50.499 39.955 0.5 0 1@9343d11f"/></svg>