<?xml version="1.0" encoding="UTF-8"?>
<svg inkscape:version="1.0.2 (e86c870879, 2021-01-15, custom)" sodipodi:docname="VeraCrypt_Logo.svg" version="1.1" viewBox="0 0 368 302" xml:space="preserve" xmlns="http://www.w3.org/2000/svg" xmlns:cc="http://creativecommons.org/ns#" xmlns:dc="http://purl.org/dc/elements/1.1/" xmlns:inkscape="http://www.inkscape.org/namespaces/inkscape" xmlns:rdf="http://www.w3.org/1999/02/22-rdf-syntax-ns#" xmlns:sodipodi="http://sodipodi.sourceforge.net/DTD/sodipodi-0.dtd"><script xmlns=""/><title>VeraCrypt logo</title><metadata><rdf:RDF><cc:Work rdf:about=""><dc:format>image/svg+xml</dc:format><dc:type rdf:resource="http://purl.org/dc/dcmitype/StillImage"/><dc:title/></cc:Work></rdf:RDF></metadata><sodipodi:namedview bordercolor="#666666" borderopacity="1" fit-margin-bottom="0" fit-margin-left="0" fit-margin-right="0" fit-margin-top="0" gridtolerance="10" guidetolerance="10" inkscape:current-layer="g4144" inkscape:cx="148.07729" inkscape:cy="-212.3024" inkscape:document-rotation="0" inkscape:pageopacity="0" inkscape:pageshadow="2" inkscape:window-height="1014" inkscape:window-maximized="1" inkscape:window-width="1920" inkscape:window-x="0" inkscape:window-y="36" inkscape:zoom="0.80580595" objecttolerance="10" pagecolor="#ffffff" showgrid="false"/><g transform="matrix(1.25 0 0 -1.25 -21.7 1041)" inkscape:groupmode="layer" inkscape:label="VeraCrypt"><g transform="translate(41.9 790)"><path d="m0 0-24.6 42.5 49.1 0.013z" style="fill:#20acd9" inkscape:connector-curvature="0"/></g><g transform="translate(41.9 790)"><path d="m0 0 24.5 42.5 24.5-42.5z" style="fill:#27a7d4" inkscape:connector-curvature="0"/></g><g transform="translate(66.5 747)"><path d="m0 0-24.6 42.5 49.1 0.013z" style="fill:#259ed2" inkscape:connector-curvature="0"/></g><g transform="translate(66.5 747)"><path d="m0 0 24.5 42.5 24.5-42.5z" style="fill:#2a8ece" inkscape:connector-curvature="0"/></g><g transform="translate(91 705)"><path d="m0 0-24.6 42.5 49.1 0.013z" style="fill:#3088c8" inkscape:connector-curvature="0"/></g><g transform="translate(91 705)"><path d="m0 0 24.5 42.5 24.5-42.5z" style="fill:#357abe" inkscape:connector-curvature="0"/></g><g transform="translate(116 662)"><path d="m0 0-24.6 42.5 49.1 0.013z" style="fill:#3a6db3" inkscape:connector-curvature="0"/></g><g transform="translate(116 662)"><path d="m0 0 24.5 42.5 24.5-42.5z" style="fill:#22697d" inkscape:connector-curvature="0"/></g><g transform="translate(165 662)"><path d="m0 0-24.6 42.5 49.1 0.013z" style="fill:#3a9ab1" inkscape:connector-curvature="0"/></g><g transform="translate(140 705)"><path d="m0 0 24.5 42.5 24.5-42.5z" style="fill:#3aa6ae" inkscape:connector-curvature="0"/></g><g transform="translate(189 705)"><path d="m0 0-24.6 42.5 49.1 0.013z" style="fill:#3bacac" inkscape:connector-curvature="0"/></g><g transform="translate(165 747)"><path d="m0 0 24.5 42.5 24.6-42.5z" style="fill:#3daaa0" inkscape:connector-curvature="0"/></g><g transform="translate(214 747)"><path d="m0 0-24.6 42.5 49.1 0.013z" style="fill:#3faa8d" inkscape:connector-curvature="0"/></g><g transform="translate(189 790)"><path d="m0 0 24.5 42.5 24.5-42.5z" style="fill:#40ab86" inkscape:connector-curvature="0"/></g><g transform="translate(189 705)"><path d="m0 0-24.6 42.5 49.1 0.013z" style="fill:#2f6b54" inkscape:connector-curvature="0"/></g><g transform="translate(165 747)"><path d="m0 0 24.5 42.5 24.5-42.5z" style="fill:#44b496" inkscape:connector-curvature="0"/></g><g transform="translate(214 747)"><path d="m0 0-24.6 42.5 49.1 0.013z" style="fill:#52b89b" inkscape:connector-curvature="0"/></g><g transform="translate(189 790)"><path d="m0 0 24.5 42.5 24.5-42.5z" style="fill:#5cba9d" inkscape:connector-curvature="0"/></g><g transform="translate(238 790)"><path d="m0 0-24.6 42.5 49.1 0.013z" style="fill:#6fc0a6" inkscape:connector-curvature="0"/></g><g transform="translate(238 790)"><path d="m0 0 24.5 42.5 24.6-42.5z" style="fill:#88c9b2" inkscape:connector-curvature="0"/></g><g transform="translate(287 790)"><path d="m0 0-24.5 42.5 49.1-6e-3z" style="fill:#99d0bb" inkscape:connector-curvature="0"/></g><g transform="translate(189 705)"><path d="m0 0 24.8 42.4 24.3-42.7z" style="fill:#37a084" inkscape:connector-curvature="0"/></g><g transform="translate(214 662)"><path d="m0 0 24.5 42.5 24.6-42.5z" style="fill:#35896c" inkscape:connector-curvature="0"/></g><g transform="translate(263 662)"><path d="m0 0-24.6 42.5 49.1 0.013z" style="fill:#379b7f" inkscape:connector-curvature="0"/></g><g transform="translate(263 662)"><path d="m0 0 24.5 42.5 24.5-42.5z" style="fill:#3bad91" inkscape:connector-curvature="0"/></g><g transform="translate(214 662)"><path d="m0 0-24.6 42.5 49.1 0.013z" style="fill:#368f74" inkscape:connector-curvature="0"/></g><g transform="matrix(1 0 0 -1 35 604)" style="fill:#2b2b2a"><path d="m22 0 14-40.4h-7.86l-5.88 18.5c-1.62 4.92-3.06 9.84-4.14 14.6h-0.12c-1.08-4.92-2.4-9.66-3.96-14.8l-5.52-18.4h-8.04l13.1 40.4z"/><path d="m64.4-12.5c0.12-0.66 0.24-1.74 0.24-3.12 0-6.42-3.12-14.2-12.6-14.2-9.36 0-14.3 7.62-14.3 15.7 0 8.94 5.58 14.8 15.1 14.8 4.2 0 7.68-0.78 10.2-1.8l-1.08-5.1c-2.22 0.84-4.68 1.32-8.1 1.32-4.68 0-8.82-2.28-9-7.56zm-19.6-5.16c0.3-3 2.22-7.14 6.78-7.14 4.92 0 6.12 4.44 6.06 7.14z"/><path d="m71.3 0h7.38v-15.1c0-0.84 0.12-1.62 0.24-2.28 0.66-3.3 3.06-5.58 6.6-5.58 0.9 0 1.56 0.12 2.16 0.24v-6.96c-0.6-0.12-1.02-0.18-1.74-0.18-3.12 0-6.54 2.1-7.98 6.24h-0.24l-0.24-5.58h-6.42c0.18 2.64 0.24 5.46 0.24 9.42z"/><path d="m117 0c-0.3-1.8-0.42-4.38-0.42-7.02v-10.6c0-6.36-2.7-12.3-12.1-12.3-4.62 0-8.4 1.26-10.6 2.58l1.44 4.8c1.98-1.26 4.98-2.16 7.86-2.16 5.16 0 5.94 3.18 5.94 5.1v0.48c-10.8-0.06-17.3 3.66-17.3 11 0 4.44 3.3 8.7 9.18 8.7 3.78 0 6.84-1.62 8.64-3.9h0.18l0.48 3.24zm-7.62-10.3c0 0.48-0.06 1.08-0.24 1.62-0.66 2.1-2.82 4.02-5.76 4.02-2.34 0-4.2-1.32-4.2-4.2 0-4.44 4.98-5.58 10.2-5.46z"/></g><g transform="matrix(1 0 0 -1 156 604)" style="fill:#2b2b2a"><path d="m31.7-5.46c-2.1 1.02-5.34 1.68-8.52 1.68-9.84 0-15.5-6.36-15.5-16.3 0-10.6 6.3-16.7 15.8-16.7 3.36 0 6.18 0.72 8.16 1.68l1.26-4.26c-1.38-0.72-4.56-1.8-9.6-1.8-12.5 0-21.1 8.58-21.1 21.2 0 13.3 8.58 20.5 20 20.5 4.92 0 8.76-0.96 10.7-1.92z"/><path d="m39 0h5.22v-15.5c0-0.9 0.12-1.74 0.24-2.46 0.72-3.96 3.36-6.78 7.08-6.78 0.72 0 1.26 0.06 1.8 0.18v-4.98c-0.48-0.12-0.9-0.18-1.5-0.18-3.54 0-6.72 2.46-8.04 6.36h-0.24l-0.18-5.7h-4.62c0.18 2.7 0.24 5.64 0.24 9.06z"/><path d="m56.3-29 10.7 26.8c0.24 0.66 0.36 1.08 0.36 1.38s-0.18 0.72-0.42 1.26c-1.2 2.7-3 4.74-4.44 5.88-1.56 1.32-3.3 2.16-4.62 2.58l1.32 4.44c1.32-0.24 3.9-1.14 6.48-3.42 3.6-3.12 6.18-8.22 9.96-18.2l7.92-20.7h-5.58l-5.76 17c-0.72 2.1-1.32 4.32-1.86 6.06h-0.12c-0.48-1.74-1.2-4.02-1.86-5.94l-6.36-17.2z"/><path d="m88.4 11.9h5.22v-15.8h0.12c1.74 2.88 5.1 4.56 8.94 4.56 6.84 0 13.2-5.16 13.2-15.6 0-8.82-5.28-14.8-12.3-14.8-4.74 0-8.16 2.1-10.3 5.64h-0.12l-0.24-4.98h-4.74c0.12 2.76 0.24 5.76 0.24 9.48zm5.22-28.7c0-0.72 0.18-1.5 0.36-2.16 1.02-3.96 4.38-6.54 7.98-6.54 5.58 0 8.64 4.98 8.64 10.8 0 6.66-3.24 11.2-8.82 11.2-3.78 0-6.96-2.52-7.92-6.18-0.12-0.66-0.24-1.38-0.24-2.16z"/><path d="m124-36v6.96h-4.5v4.02h4.5v15.8c0 3.42 0.54 6 2.04 7.56 1.26 1.44 3.24 2.22 5.7 2.22 2.04 0 3.66-0.3 4.68-0.72l-0.24-3.96c-0.66 0.18-1.68 0.36-3.06 0.36-2.94 0-3.96-2.04-3.96-5.64v-15.7h7.56v-4.02h-7.56v-8.34z"/></g></g></svg>