<svg xmlns="http://www.w3.org/2000/svg" width="200" height="200" style="shape-rendering:geometricPrecision;text-rendering:geometricPrecision;image-rendering:optimizeQuality;fill-rule:evenodd;clip-rule:evenodd"><path fill="#3dd782" d="M160.5 90.5q-5.158-.37-10 1l-20 3a319 319 0 0 1-22 3h-18a371 371 0 0 1-22-2 234 234 0 0 0-20-4q-5.078-1.692-10 0 3.777-25.665 24-41.5A343 343 0 0 1 51 35.5Q49.007 26 58.5 27A6644 6644 0 0 1 73 43.5q26.5-12 53 0A6623 6623 0 0 1 140.5 27q9.494-1.001 7.5 8.5A343 343 0 0 1 136.5 50q20.233 15.194 24 40.5" style="opacity:.999"/><path fill="#f8bf07" d="M48.5 91.5a4377 4377 0 0 0 16.5 50q1.02 3.02 4 4a1341 1341 0 0 0 30.5-31 1258 1258 0 0 1 29 30.5q1.5 1 3 0a42.2 42.2 0 0 0 5.5-11.5 3077 3077 0 0 1 13.5-42q4.842-1.37 10-1 3.548 33.625-21 56.5-40.058 28.989-80 0-24.246-22.479-21-55.5 4.922-1.692 10 0" style="opacity:.997"/><path fill="#fefefc" d="M48.5 91.5q10.266 1.6 20 4a226 226 0 0 0 6 20 160 160 0 0 0 16-18h18a180 180 0 0 0 16.5 19l5.5-22 20-3a3077 3077 0 0 0-13.5 42 42.2 42.2 0 0 1-5.5 11.5q-1.5 1-3 0a1258 1258 0 0 0-29-30.5 1341 1341 0 0 1-30.5 31q-2.98-.98-4-4a4377 4377 0 0 1-16.5-50" style="opacity:1"/><path fill="#ffc513" d="M68.5 95.5a371 371 0 0 0 22 2 160 160 0 0 1-16 18 226 226 0 0 1-6-20" style="opacity:1"/><path fill="#fdc616" d="m130.5 94.5-5.5 22a180 180 0 0 1-16.5-19 319 319 0 0 0 22-3" style="opacity:1"/></svg>