<svg xmlns="http://www.w3.org/2000/svg" width="932" height="287" style="shape-rendering:geometricPrecision;text-rendering:geometricPrecision;image-rendering:optimizeQuality;fill-rule:evenodd;clip-rule:evenodd"><path d="M-.5-.5h932v287H-.5V-.5Z" style="opacity:1"/><path fill="#f9f9f9" d="M201.5 64.5h22v61h52v-61h22v151h-22v-67h-52v67c-7.148.992-14.481 1.325-22 1v-152Z" style="opacity:1"/><path fill="#7f7f7f" d="M352.5 64.5h-22v151h22c-7.482.992-15.148 1.325-23 1v-153c7.852-.325 15.518.008 23 1Z" style="opacity:1"/><path fill="#f9f9f9" d="M352.5 64.5v151h-22v-151h22Z" style="opacity:1"/><path fill="#a4c775" d="M841.5 63.5c-7.143-.096-12.976 2.57-17.5 8a447.671 447.671 0 0 1-8.5 17c1.885-9.728 6.552-17.894 14-24.5 4.128-1.393 8.128-1.56 12-.5Z" style="opacity:1"/><path fill="#656565" d="M201.5 64.5c7.482-.992 15.148-1.325 23-1v61h50a900.975 900.975 0 0 1 1-60v61h-52v-61h-22Z" style="opacity:1"/><path fill="#abcf85" d="M841.5 63.5c1.149.291 1.816 1.124 2 2.5-.184 1.376-.851 2.209-2 2.5v-5Z" style="opacity:1"/><path fill="#abcc73" d="M802.5 55.5a146.342 146.342 0 0 0-10.5 10c-1.137 4.994-3.303 9.328-6.5 13 1.55-10.788 7.217-18.455 17-23Z" style="opacity:1"/><path fill="#adcd7e" d="M805.5 77.5a211.264 211.264 0 0 0 7-22h-10c3.356-1.88 7.023-2.38 11-1.5a6.29 6.29 0 0 1 1 3c-2.357 7.204-5.357 14.037-9 20.5Z" style="opacity:1"/><path fill="#707070" d="M275.5 64.5c7.482-.992 15.148-1.325 23-1v153h-23v-1h22v-151h-22Z" style="opacity:1"/><path fill="#b0e121" d="M802.5 55.5h10a211.264 211.264 0 0 1-7 22c-1.305 1.897-1.971 4.23-2 7 .201 5.568 1.201 10.902 3 16-8.7 2.855-16.366 7.522-23 14-1.419-.505-2.085-1.505-2-3 2.266-10.368 3.599-21.035 4-32v-1c3.197-3.672 5.363-8.006 6.5-13a146.342 146.342 0 0 1 10.5-10Z" style="opacity:1"/><path fill="#b0e12c" d="M841.5 63.5v5a36.202 36.202 0 0 1-5 9c-.996-.086-1.829.248-2.5 1a145.05 145.05 0 0 0-.5 17 120.443 120.443 0 0 0-14 2h-4v-9a447.671 447.671 0 0 0 8.5-17c4.524-5.43 10.357-8.096 17.5-8Z" style="opacity:1"/><path fill="#f0efee" d="M440.5 76.5h-16c-3.75.098-7.083-1.069-10-3.5a11.339 11.339 0 0 1-1.5-3.5c-.72 1.612-.554 3.112.5 4.5 5.595 3.259 10.262 7.592 14 13 .667.667 1.333.667 2 0-2.594-2.087-4.594-4.587-6-7.5.709-.904 1.709-1.237 3-1h9c-.418 5.906 1.916 10.406 7 13.5a103.138 103.138 0 0 1 8.5 4.5 27.387 27.387 0 0 0 3.5 10.5l-.5 1.5-1.5-3c-.283-.789-.783-1.456-1.5-2-.232 1.237-.732 2.237-1.5 3-.003-3.175-1.003-6.008-3-8.5-2.405-.281-2.405.385 0 2-3.428.701-6.762.368-10-1a130.019 130.019 0 0 0-23-13c-9.667-2.002-16.333 1.498-20 10.5-1.129 2.128-1.296 4.461-.5 7a27.603 27.603 0 0 1 1.5-5c1.428-6.603 5.428-10.103 12-10.5-5.567 13.306-2.234 23.972 10 32a146.835 146.835 0 0 1 33.5 23.5c5.489 6.314 8.822 13.647 10 22 .497-2.646.664-5.313.5-8 13.074-1.894 24.24 1.773 33.5 11 6.361 11.634 5.694 22.967-2 34-9.595 8.413-20.761 11.58-33.5 9.5-5.666-.747-11-2.414-16-5 3.855-2.522 7.022-5.689 9.5-9.5 10.376 4.514 20.876 5.014 31.5 1.5-11.013 2.71-21.68 1.543-32-3.5-10.164 13.248-23.498 21.081-40 23.5a114.353 114.353 0 0 0 8-3.5c20.404-9.558 30.238-25.558 29.5-48-1.697-6.396-4.697-12.062-9-17 11.948 20.807 8.782 39.307-9.5 55.5a124.203 124.203 0 0 1-12 7.5c-10.055 3.512-20.388 5.012-31 4.5-18.707-4.028-27.54-15.528-26.5-34.5a47.223 47.223 0 0 1 5-12 119.606 119.606 0 0 1 9.5-9c-4.609-8.086-5.109-16.419-1.5-25 1.011-.837 2.178-1.17 3.5-1-1.427 8.079.573 15.079 6 21a19.887 19.887 0 0 0-4 3.5c17.126-6.268 33.126-4.102 48 6.5a34.119 34.119 0 0 1-1 10c.237 2.563.737 2.563 1.5 0 1.561-4.444 1.728-8.777.5-13-.901-4.969-3.235-9.136-7-12.5a504.153 504.153 0 0 0-25-17c-13.421-11.009-19.588-25.176-18.5-42.5 3.577-13.245 11.744-22.411 24.5-27.5a285.63 285.63 0 0 1 23-6c4.45-1.114 8.45-.28 12 2.5 1.196-.346 1.196-.846 0-1.5l2-.5a401.42 401.42 0 0 0 19 7.5c1.079 2.9.746 5.733-1 8.5a16.626 16.626 0 0 0-5 6c-.552-1.503-.552-3.17 0-5h-6c.216 2.18-.617 3.847-2.5 5 .019-1.608.185-3.274.5-5h-4Z" style="opacity:1"/><path fill="#323130" d="M424.5 76.5a30.968 30.968 0 0 1-2 2c.124.607.457.94 1 1 1.406 2.913 3.406 5.413 6 7.5-.667.667-1.333.667-2 0-3.738-5.408-8.405-9.741-14-13-1.054-1.388-1.22-2.888-.5-4.5a11.339 11.339 0 0 0 1.5 3.5c2.917 2.431 6.25 3.598 10 3.5Z" style="opacity:1"/><path fill="#949391" d="M424.5 76.5h16l-14 2c-1.291-.237-2.291.096-3 1-.543-.06-.876-.393-1-1a30.968 30.968 0 0 0 2-2Z" style="opacity:1"/><path fill="#161514" d="m432.5 62.5 7 3.5c-2.992 2.134-5.658 1.968-8-.5-.237-1.291.096-2.291 1-3Z" style="opacity:1"/><path fill="#787875" d="M432.5 62.5c-.904.709-1.237 1.709-1 3-.809-.969-1.809-1.802-3-2.5 1.318-1.63 2.651-1.797 4-.5Z" style="opacity:1"/><path fill="#2b431a" d="M783.5 85.5c.206 2.995-.46 5.662-2 8 .065-2.928.732-5.595 2-8Z" style="opacity:1"/><path fill="#a6c785" d="M815.5 89.5v8h4l-4 2c-.876.13-1.543-.203-2-1 .589-3.14 1.256-6.14 2-9Z" style="opacity:1"/><path fill="#aed589" d="M836.5 77.5c-2.84 6.612-2.507 13.112 1 19.5-.336 1.03-1.003 1.53-2 1.5-5.14-.988-10.474-1.321-16-1a120.443 120.443 0 0 1 14-2 145.05 145.05 0 0 1 .5-17c.671-.752 1.504-1.086 2.5-1Z" style="opacity:1"/><path fill="#526d46" d="M819.5 97.5c5.526-.321 10.86.012 16 1a150.94 150.94 0 0 0-20 1l4-2Z" style="opacity:1"/><path fill="#b7df78" d="M785.5 79.5c-.401 10.965-1.734 21.632-4 32v-18c1.54-2.338 2.206-5.005 2-8 .095-2.286.762-4.286 2-6Z" style="opacity:1"/><path fill="#6e6c6c" d="M393.5 96.5c-.172.992.162 1.658 1 2a27.603 27.603 0 0 0-1.5 5c-.796-2.539-.629-4.872.5-7Z" style="opacity:1"/><path fill="#969696" d="M67.5 102.5c-7.52-.325-14.852.008-22 1-.543-.06-.876-.393-1-1 7.824-1.32 15.49-1.32 23 0Z" style="opacity:1"/><path fill="#989898" d="M123.5 102.5a116.8 116.8 0 0 0-21 1c3.098-1.321 6.598-1.988 10.5-2 3.683.001 7.183.335 10.5 1Z" style="opacity:1"/><path fill="#a2c474" d="M805.5 77.5c-.597 7.146.403 13.98 3 20.5a11.251 11.251 0 0 1-1 3.5 61.582 61.582 0 0 0-15 7.5 163.222 163.222 0 0 1-11 10.5c-1.318-6.822-1.318-13.489 0-20v12c-.085 1.495.581 2.495 2 3 6.634-6.478 14.3-11.145 23-14-1.799-5.098-2.799-10.432-3-16 .029-2.77.695-5.103 2-7Z" style="opacity:1"/><path fill="#f4f4f4" d="M45.5 103.5c7.148-.992 14.48-1.325 22-1a1440.963 1440.963 0 0 1 16.5 90 7012.192 7012.192 0 0 1 18.5-89 116.8 116.8 0 0 1 21-1 21462.49 21462.49 0 0 1 19.5 91 2662.261 2662.261 0 0 1 16-90c3.402-1.289 7.069-1.956 11-2l10.5 1-24 114h-27a4901.363 4901.363 0 0 0-17-86 5684.313 5684.313 0 0 1-16.5 85 85.021 85.021 0 0 1-26 0 20304.586 20304.586 0 0 1-24.5-112Z" style="opacity:1"/><path fill="#b2b2b2" d="M655.5 106.5a118.435 118.435 0 0 0-16 1c3.05-1.435 6.383-2.102 10-2 2.196.005 4.196.338 6 1Z" style="opacity:1"/><path fill="#505050" d="M452.5 105.5c-1.058 1.1-1.892 2.434-2.5 4a4.934 4.934 0 0 1-.5-3c.768-.763 1.268-1.763 1.5-3 .717.544 1.217 1.211 1.5 2Z" style="opacity:1"/><path fill="#f7f7f7" d="M529.5 208.5a625.298 625.298 0 0 0-1 50h-20v-150h18a31.116 31.116 0 0 0 1 11c6.45-5.951 13.783-10.451 22-13.5 14.446-1.691 25.613 3.476 33.5 15.5 6.405 12.023 9.238 24.856 8.5 38.5.934 19.536-5.066 36.536-18 51-15.397 10.74-30.064 9.906-44-2.5Z" style="opacity:1"/><path fill="#f6f6f6" d="M655.5 106.5c14.465 1.955 23.965 9.955 28.5 24 3.187 11.429 4.353 23.096 3.5 35-.904.709-1.237 1.709-1 3a841.82 841.82 0 0 0-58 1c.648 10.127 4.648 18.627 12 25.5 12.757 6.77 24.757 5.603 36-3.5a159.99 159.99 0 0 1 8 15c-23.046 18.482-44.879 17.149-65.5-4-11.386-17.877-14.72-37.21-10-58 3.163-14.148 10.663-25.315 22.5-33.5a42.302 42.302 0 0 1 8-3.5 118.435 118.435 0 0 1 16-1Z" style="opacity:1"/><path fill="#f5f5f5" d="M749.5 105.5c5.036-.438 9.869.228 14.5 2a99.08 99.08 0 0 1-2.5 22c-6.568-1.799-12.901-1.299-19 1.5a46.543 46.543 0 0 0-10.5 13.5 890.422 890.422 0 0 0-1.5 72h-22v-108h18c.139 6.057.806 12.057 2 18 4.741-9.408 11.741-16.408 21-21Z" style="opacity:1"/><path fill="#c2c2c2" d="M508.5 108.5v150h20a625.298 625.298 0 0 1 1-50v51h-22a5701.237 5701.237 0 0 1 1-151Z" style="opacity:1"/><path fill="#030303" d="M668.5 143.5v8h-40c.579-12.015 6.245-20.515 17-25.5 13.479-1.918 21.146 3.915 23 17.5ZM545.5 126.5c10.938-.957 18.104 3.71 21.5 14 4.055 16.02 3.055 31.686-3 47-6.044 9.896-14.544 12.729-25.5 8.5a25.568 25.568 0 0 1-8.5-6.5 675.912 675.912 0 0 1 0-52c4.536-4.725 9.702-8.392 15.5-11Z" style="opacity:1"/><path fill="#a8cd7a" d="M815.5 129.5c2.758-1.318 5.924-1.985 9.5-2 8.031.049 15.531 2.049 22.5 6 3.643-3.835 6.31-8.335 8-13.5l-1-2.5a31 31 0 0 1-9-5.5c-9.838-2.418-19.838-3.084-30-2-5.648 2.155-11.315 4.322-17 6.5 1.753-1.723 3.753-3.223 6-4.5 13.794-5.588 27.794-5.921 42-1a40.08 40.08 0 0 1 12 8.5c-2.947 6.251-6.613 11.917-11 17a78.796 78.796 0 0 0-15-7.5 56.723 56.723 0 0 0-17 .5Z" style="opacity:1"/><path fill="#a8cc6e" d="M798.5 116.5c-9.161 9.68-16.828 20.347-23 32 3.735-13.461 11.402-24.128 23-32Z" style="opacity:1"/><path fill="#b0e123" d="M815.5 129.5c-5.447.709-9.447 3.375-12 8-1.89-.203-3.39.463-4.5 2a81.3 81.3 0 0 0-7 19 90.455 90.455 0 0 0 0 19c.876 2.258 2.043 4.258 3.5 6 1.826 1.647 3.16 3.647 4 6 1.068 2.24 2.734 4.074 5 5.5a111.052 111.052 0 0 0 14 3.5c7.826-.83 15.159-3.164 22-7a651.032 651.032 0 0 1 4 14.5c-3.069 3.048-6.735 5.381-11 7a29.927 29.927 0 0 0-9 2c-8.844.738-17.51.238-26-1.5-4.33-2.942-8.497-6.276-12.5-10a146.059 146.059 0 0 1-11.5-17v-3a104.182 104.182 0 0 1 1-34v-1c6.172-11.653 13.839-22.32 23-32 5.685-2.178 11.352-4.345 17-6.5 10.162-1.084 20.162-.418 30 2a31 31 0 0 0 9 5.5l1 2.5c-1.69 5.165-4.357 9.665-8 13.5-6.969-3.951-14.469-5.951-22.5-6-3.576.015-6.742.682-9.5 2Z" style="opacity:1"/><path fill="#acce7d" d="M815.5 129.5a70.622 70.622 0 0 0-12 8c2.553-4.625 6.553-7.291 12-8Z" style="opacity:1"/><path fill="#4d4d4d" d="M275.5 215.5v1a1123.002 1123.002 0 0 1-1-67h-50c.331 22.173-.003 44.173-1 66v-67h52v67Z" style="opacity:1"/><path fill="#6a6a6a" d="M668.5 143.5c.977 2.787 1.31 5.787 1 9a420.766 420.766 0 0 1-41-1h40v-8Z" style="opacity:1"/><path fill="#afe21d" d="M835.5 166.5c-.617.111-1.117.444-1.5 1a60.931 60.931 0 0 0-.5 11h-6c.354-4.137-.146-8.137-1.5-12-3.057-.951-6.223-1.284-9.5-1v-6a40.914 40.914 0 0 0 9-.5l1.5-1.5 1-11c1.667-1.333 3.333-1.333 5 0l1 12c3.394.956 6.894 1.289 10.5 1v6c-3.213-.31-6.213.023-9 1Z" style="opacity:1"/><path fill="#40572e" d="M835.5 142.5c.985 4.134 1.318 8.468 1 13 3.542-.313 6.875.021 10 1h-11v-14Z" style="opacity:1"/><path fill="#41562f" d="M863.5 143.5v13h-12c3.462-.982 7.129-1.315 11-1-.317-4.202.017-8.202 1-12Z" style="opacity:1"/><path fill="#b0e14f" d="M835.5 155.5v1c2.805.819 5.805 1.319 9 1.5.944 2.719 1.277 5.552 1 8.5h-10c2.787-.977 5.787-1.31 9-1v-6c-3.606.289-7.106-.044-10.5-1l-1-12c-1.667-1.333-3.333-1.333-5 0l-1 11-1.5 1.5a40.914 40.914 0 0 1-9 .5v6c3.277-.284 6.443.049 9.5 1 1.354 3.863 1.854 7.863 1.5 12h6c-2.448.973-5.115 1.306-8 1 .315-3.871-.018-7.538-1-11-2.488-1.888-5.488-2.555-9-2v-9c3.079.24 6.079-.093 9-1a43.117 43.117 0 0 0 1-13c2.948-.277 5.781.056 8.5 1 .177 3.856.677 7.523 1.5 11Z" style="opacity:1"/><path fill="#bfea7e" d="M852.5 156.5h11c-2.837 1.902-6.171 2.569-10 2v8c3.542-.313 6.875.021 10 1h-11v-11Z" style="opacity:1"/><path fill="#a7cd79" d="M775.5 149.5a104.182 104.182 0 0 0-1 34c-4.106-11.427-3.773-22.76 1-34Z" style="opacity:1"/><path fill="#afe128" d="M883.5 166.5c-3.606-.289-7.106.044-10.5 1a72.367 72.367 0 0 0-.5 12h-7a60.931 60.931 0 0 0-.5-11c-.383-.556-.883-.889-1.5-1-3.125-.979-6.458-1.313-10-1v-8c3.829.569 7.163-.098 10-2 .983-3.798 1.317-7.798 1-12 2.948-.277 5.781.056 8.5 1l1 12a42.36 42.36 0 0 0 8.5 1.5c.935 2.381 1.268 4.881 1 7.5Z" style="opacity:1"/><path fill="#b0d584" d="M803.5 137.5c-10.634 13.884-13.3 29.218-8 46-1.457-1.742-2.624-3.742-3.5-6a90.455 90.455 0 0 1 0-19 81.3 81.3 0 0 1 7-19c1.11-1.537 2.61-2.203 4.5-2Z" style="opacity:1"/><path fill="#a1c37e" d="M835.5 142.5v13c-.823-3.477-1.323-7.144-1.5-11-2.719-.944-5.552-1.277-8.5-1a43.117 43.117 0 0 1-1 13 23.832 23.832 0 0 1-9 1v9c3.512-.555 6.512.112 9 2h-11v-13h11v-13h11Z" style="opacity:1"/><path fill="#9ab97c" d="M846.5 156.5c1.333 4 1.333 8 0 12h-11c3.462-.982 7.129-1.315 11-1v-11Z" style="opacity:1"/><path fill="#9fbb7a" d="M851.5 156.5h1v11h11v1h-11c-.983-3.798-1.317-7.798-1-12Z" style="opacity:1"/><path fill="#a6c97f" d="m874.5 168.5 9-2c.268-2.619-.065-5.119-1-7.5a42.36 42.36 0 0 1-8.5-1.5l-1-12c-2.719-.944-5.552-1.277-8.5-1 .317 4.202-.017 8.202-1 12v-13c3.462-.982 7.129-1.315 11-1v13h11v13h-11Z" style="opacity:1"/><path fill="#bfbfbf" d="M687.5 165.5v4h-59a841.82 841.82 0 0 1 58-1c-.237-1.291.096-2.291 1-3Z" style="opacity:1"/><path fill="#1c2e17" d="M852.5 168.5h11v13c-.983-3.798-1.317-7.798-1-12-3.542.313-6.875-.021-10-1Z" style="opacity:1"/><path fill="#acd194" d="M874.5 168.5v13h-11v-12c.982 3.462 1.315 7.129 1 11h9c-.317-4.202.017-8.202 1-12Z" style="opacity:1"/><path fill="#444342" d="M391.5 173.5c7.404-1.275 14.738-.441 22 2.5 1.196.654 1.196 1.154 0 1.5-5.418-2.38-11.085-3.38-17-3-1.419-.951-3.085-1.284-5-1Z" style="opacity:1"/><path fill="#c0ea81" d="M835.5 156.5h11v11c-3.871-.315-7.538.018-11 1l-2 10a60.931 60.931 0 0 1 .5-11c.383-.556.883-.889 1.5-1h10c.277-2.948-.056-5.781-1-8.5-3.195-.181-6.195-.681-9-1.5Z" style="opacity:1"/><path fill="#9b9a99" d="M466.5 176.5c1.987.664 3.654 1.831 5 3.5-1.225.563-2.225.23-3-1a50.464 50.464 0 0 0-10-.5l8-2Z" style="opacity:1"/><path fill="#1b3015" d="M835.5 168.5h11c-3.125.979-6.458 1.313-10 1 .317 4.202-.017 8.202-1 12v-13Z" style="opacity:1"/><path fill="#454442" d="M428.5 164.5c1.228 4.223 1.061 8.556-.5 13-.763 2.563-1.263 2.563-1.5 0a34.119 34.119 0 0 0 1-10c.904-.709 1.237-1.709 1-3Z" style="opacity:1"/><path fill="#10100f" d="M458.5 178.5c3.35-.165 6.683.002 10 .5.775 1.23 1.775 1.563 3 1-1.346-1.669-3.013-2.836-5-3.5a4.934 4.934 0 0 1-3-.5c5.672-1.104 8.838 1.063 9.5 6.5-4.447 3.409-9.281 3.909-14.5 1.5-1.036-1.776-1.036-3.609 0-5.5Z" style="opacity:1"/><path fill="#beeb76" d="m883.5 166.5-9 2c-.983 3.798-1.317 7.798-1 12h-9c.315-3.871-.018-7.538-1-11v-2c.617.111 1.117.444 1.5 1 .499 3.652.665 7.318.5 11h7a72.367 72.367 0 0 1 .5-12c3.394-.956 6.894-1.289 10.5-1Z" style="opacity:1"/><path fill="#b1d38d" d="M824.5 168.5c.982 3.462 1.315 7.129 1 11 2.885.306 5.552-.027 8-1l2-10v13h-11v-13Z" style="opacity:1"/><path fill="#0e0d0d" d="M391.5 173.5c1.915-.284 3.581.049 5 1-11.315.1-15.315 5.267-12 15.5 1.333.667 2.667.667 4 0 5.685-5.156 12.352-6.822 20-5 3.615.732 6.948 2.065 10 4-8.755 4.617-18.089 6.283-28 5-9.5-1.5-12.334-6.667-8.5-15.5 2.596-2.765 5.763-4.432 9.5-5Z" style="opacity:1"/><path fill="#b3d57e" d="M774.5 186.5a146.059 146.059 0 0 0 11.5 17c4.003 3.724 8.17 7.058 12.5 10-12.195-5.199-20.195-14.199-24-27Z" style="opacity:1"/><path fill="#aad27a" d="M798.5 213.5c8.49 1.738 17.156 2.238 26 1.5a29.927 29.927 0 0 1 9-2c4.265-1.619 7.931-3.952 11-7a651.032 651.032 0 0 0-4-14.5c-6.841 3.836-14.174 6.17-22 7a111.052 111.052 0 0 1-14-3.5c-2.266-1.426-3.932-3.26-5-5.5 7.091 5.37 15.091 7.537 24 6.5a118.711 118.711 0 0 0 19-7.5c1.276 5.813 2.61 11.646 4 17.5l-1 2.5c-11.404 6.9-23.737 9.734-37 8.5-3.61-.738-6.943-1.905-10-3.5Z" style="opacity:1"/><path fill="#181817" d="m419.5 215.5-1-2a124.203 124.203 0 0 0 12-7.5c18.282-16.193 21.448-34.693 9.5-55.5 4.303 4.938 7.303 10.604 9 17 .738 22.442-9.096 38.442-29.5 48Z" style="opacity:1"/></svg>