<svg xmlns="http://www.w3.org/2000/svg" width="48" height="48" baseProfile="basic"><path fill="#37474f" d="m24 3 15 6 6 15-6 15-15 6-15-6-6-15L9 9z"/><path fill="#78909c" d="m9.462 24 4.154-10.384L24 9.462l10.384 4.154L38.538 24z"/><path fill="#fff" d="M10.539 37.461 5.154 24l5.385-13.461L24 5.154l13.461 5.384L42.846 24l-5.385 13.461L24 42.846l-13.461-5.385zM24 40.691l11.922-4.769L40.691 24l-4.77-11.923L24 7.309l-11.922 4.769L7.309 24l4.77 11.923L24 40.691z"/><path fill="#37474f" d="m18 16 2 2v6h8v-6l2-2 1 14h-2l-5-5-5 5h-2z"/><path fill="#fafafa" d="M30 16v12l-6-6-6 6V16h-4v16.5h3.32a3.996 3.996 0 0 0 2.856-1.2L24 27.4l3.824 3.9a4.002 4.002 0 0 0 2.856 1.2H34V16h-4z"/></svg>