<svg xmlns="http://www.w3.org/2000/svg" width="48" height="48"><path fill="#ef5350" d="m16.924 21.593-.386-7.861 7.507 2.794v7.263zm11.428 7.977v7.25l7.173 2.075V31.87z"/><path fill="#ef9a9a" d="m24.045 35.975-4.409-6.404 4.409-5.782 4.307 5.782zm-4.409-25.263L23.994 5l4.358 5.966-4.307 5.559zm11.62 10.881 4.402-5.76 6.942 2.158-4.182 5.797z"/><path fill="#d32f2f" d="m24.045 23.788 7.211-2.195 4.936 5.993-7.84 1.984zm-7.121-2.195-4.537-5.93-7.208 2.369 4.315 5.756zm7.121-5.068 7.404-2.893 4.076-5.289-7.173 2.623z"/><path fill="#b71c1c" d="M24.045 23.788v-7.263l7.404-2.894-.193 7.961zm-4.409 5.782v7.293l-7.249 2.032v-6.983zM9.494 23.788l7.43-2.195-5.15 5.618L5 29.57z"/><path fill="#660e0e" d="m16.924 21.593-4.537-5.93-.179-7.32 4.33 5.388zm2.712 7.977v7.293L24.045 43v-7.025zm8.716 0 7.839-1.984L43 29.57l-7.475 2.3z"/><path fill="#f44336" d="m31.256 21.593 4.402-5.76-.133-7.49-4.076 5.289zm-14.718-7.862 7.507 2.794-4.409-5.813-7.428-2.369zM28.352 29.57v7.25L24.045 43v-7.025zm2.904-7.977 4.935 5.993L43 29.57l-4.582-5.782z"/><path fill="#8c1313" d="m12.387 31.912 7.249-2.342-7.862-2.359L5 29.57z"/><path fill="#ffcdd2" d="m24.045 23.788-4.409 5.782-7.861-2.359 5.15-5.618z"/></svg>