<?xml version="1.0" encoding="UTF-8"?>
<!DOCTYPE svg PUBLIC "-//W3C//DTD SVG 1.1//EN" "http://www.w3.org/Graphics/SVG/1.1/DTD/svg11.dtd">
<svg xmlns="http://www.w3.org/2000/svg" version="1.1" width="483px" height="483px" style="shape-rendering:geometricPrecision; text-rendering:geometricPrecision; image-rendering:optimizeQuality; fill-rule:evenodd; clip-rule:evenodd" xmlns:xlink="http://www.w3.org/1999/xlink">
<g><path style="opacity:0.801" fill="#7bd484" d="M 219.5,-0.5 C 233.833,-0.5 248.167,-0.5 262.5,-0.5C 358.222,12.0993 425.722,62.4326 465,150.5C 475.662,177.979 481.495,206.313 482.5,235.5C 482.5,239.167 482.5,242.833 482.5,246.5C 476.196,343.27 430.196,414.103 344.5,459C 313.605,473.308 281.271,481.141 247.5,482.5C 242.833,482.5 238.167,482.5 233.5,482.5C 138.883,476.291 69.0495,431.624 24,348.5C 10.8308,321.142 2.66415,292.475 -0.5,262.5C -0.5,247.833 -0.5,233.167 -0.5,218.5C 11.3497,125.829 59.3497,59.3293 143.5,19C 167.999,8.70947 193.332,2.20947 219.5,-0.5 Z"/></g>
<g><path style="opacity:1" fill="#103713" d="M 226.5,1.5 C 320.743,0.0296203 393.576,38.363 445,116.5C 490.998,199.127 490.998,281.794 445,364.5C 401.12,432.632 338.62,470.799 257.5,479C 169.556,482.271 99.0557,449.105 46,379.5C -3.79523,304.332 -11.4619,224.999 23,141.5C 65.0444,57.546 132.878,10.8793 226.5,1.5 Z"/></g>
<g><path style="opacity:1" fill="#7dd786" d="M 221.5,19.5 C 319.443,16.4189 391.943,57.4189 439,142.5C 473.445,219.202 468.445,293.202 424,364.5C 373.756,433.865 305.589,466.032 219.5,461C 135.202,449.789 74.7023,405.955 38,329.5C 8.79748,257.408 14.1308,188.075 54,121.5C 94.2231,62.1559 150.056,28.1559 221.5,19.5 Z"/></g>
<g><path style="opacity:1" fill="#0f3612" d="M 222.5,28.5 C 310.941,25.4611 378.441,61.1277 425,135.5C 458.679,198.891 461.346,263.557 433,329.5C 398.793,398.351 343.627,438.851 267.5,451C 185.717,458.201 119.55,429.701 69,365.5C 26.9881,303.409 17.9881,236.742 42,165.5C 68.3056,101.192 114.472,58.3589 180.5,37C 194.504,33.6144 208.504,30.7811 222.5,28.5 Z"/></g>
<g><path style="opacity:1" fill="#7fd988" d="M 238.5,244.5 C 222.5,244.5 206.5,244.5 190.5,244.5C 190.263,245.791 190.596,246.791 191.5,247.5C 192.799,255.635 197.465,260.802 205.5,263C 214.706,264.097 223.706,263.263 232.5,260.5C 233.19,264.49 233.357,268.49 233,272.5C 218.573,278.332 204.406,277.832 190.5,271C 182.824,265.494 178.324,257.994 177,248.5C 173.447,228.772 180.613,214.605 198.5,206C 211.332,202.499 222.498,205.333 232,214.5C 237.273,223.796 239.44,233.796 238.5,244.5 Z"/></g>
<g><path style="opacity:1" fill="#7fd988" d="M 259.5,204.5 C 266.754,203.779 273.587,205.112 280,208.5C 294.464,200.859 304.798,204.526 311,219.5C 311.5,238.164 311.667,256.83 311.5,275.5C 307.167,275.5 302.833,275.5 298.5,275.5C 298.667,257.497 298.5,239.497 298,221.5C 295.325,216.436 291.658,215.436 287,218.5C 286.5,228.828 286.334,239.161 286.5,249.5C 282.167,249.5 277.833,249.5 273.5,249.5C 273.666,239.828 273.5,230.161 273,220.5C 272.5,218.667 271.333,217.5 269.5,217C 266.901,216.231 264.401,216.398 262,217.5C 261.5,236.83 261.333,256.164 261.5,275.5C 257.167,275.5 252.833,275.5 248.5,275.5C 248.5,252.833 248.5,230.167 248.5,207.5C 252.323,206.664 255.989,205.664 259.5,204.5 Z"/></g>
<g><path style="opacity:1" fill="#488a4e" d="M 152.5,206.5 C 157.348,205.186 162.348,205.186 167.5,206.5C 167.376,207.107 167.043,207.44 166.5,207.5C 162.03,206.514 157.363,206.181 152.5,206.5 Z"/></g>
<g><path style="opacity:1" fill="#7dd786" d="M 152.5,206.5 C 157.363,206.181 162.03,206.514 166.5,207.5C 159.051,218.122 151.385,228.622 143.5,239C 153.199,249.586 161.532,261.086 168.5,273.5C 163.695,274.487 158.695,274.821 153.5,274.5C 148.572,265.639 142.906,257.305 136.5,249.5C 129.047,256.957 122.713,265.29 117.5,274.5C 112.5,275.833 107.5,275.833 102.5,274.5C 109.669,261.998 118.003,250.331 127.5,239.5C 119.255,228.677 111.255,217.677 103.5,206.5C 108.833,205.167 114.167,205.167 119.5,206.5C 124.757,214.012 130.257,221.346 136,228.5C 141.277,220.92 146.777,213.586 152.5,206.5 Z"/></g>
<g><path style="opacity:1" fill="#7fd988" d="M 338.5,248.5 C 338.654,258.823 343.821,263.823 354,263.5C 357.217,263.409 360.384,263.075 363.5,262.5C 364.497,244.007 364.83,225.341 364.5,206.5C 369.167,206.5 373.833,206.5 378.5,206.5C 378.5,228.833 378.5,251.167 378.5,273.5C 365.584,276.525 352.584,277.025 339.5,275C 328.636,269.11 323.636,259.944 324.5,247.5C 324.5,233.833 324.5,220.167 324.5,206.5C 328.833,206.5 333.167,206.5 337.5,206.5C 337.171,220.677 337.504,234.677 338.5,248.5 Z"/></g>
<g><path style="opacity:1" fill="#498a4f" d="M 338.5,248.5 C 337.504,234.677 337.171,220.677 337.5,206.5C 333.167,206.5 328.833,206.5 324.5,206.5C 324.5,220.167 324.5,233.833 324.5,247.5C 323.504,233.677 323.171,219.677 323.5,205.5C 328.5,205.5 333.5,205.5 338.5,205.5C 338.5,219.833 338.5,234.167 338.5,248.5 Z"/></g>
<g><path style="opacity:1" fill="#47884d" d="M 378.5,206.5 C 373.833,206.5 369.167,206.5 364.5,206.5C 364.83,225.341 364.497,244.007 363.5,262.5C 363.5,243.5 363.5,224.5 363.5,205.5C 368.695,205.179 373.695,205.513 378.5,206.5 Z"/></g>
<g><path style="opacity:1" fill="#113914" d="M 223.5,229.5 C 223.5,230.5 223.5,231.5 223.5,232.5C 212.654,232.828 201.987,232.494 191.5,231.5C 193.748,222.425 199.581,217.425 209,216.5C 217.191,217.195 222.024,221.528 223.5,229.5 Z"/></g>
<g><path style="opacity:1" fill="#64b26b" d="M 223.5,229.5 C 224.434,230.568 224.768,231.901 224.5,233.5C 213.147,233.832 201.814,233.499 190.5,232.5C 190.624,231.893 190.957,231.56 191.5,231.5C 201.987,232.494 212.654,232.828 223.5,232.5C 223.5,231.5 223.5,230.5 223.5,229.5 Z"/></g>
<g><path style="opacity:1" fill="#2c6130" d="M 238.5,244.5 C 222.64,244.838 206.973,245.838 191.5,247.5C 190.596,246.791 190.263,245.791 190.5,244.5C 206.5,244.5 222.5,244.5 238.5,244.5 Z"/></g>
<g><path style="opacity:1" fill="#498a4f" d="M 168.5,273.5 C 169.043,273.56 169.376,273.893 169.5,274.5C 164.014,275.815 158.68,275.815 153.5,274.5C 158.695,274.821 163.695,274.487 168.5,273.5 Z"/></g>
</svg>
