<svg xmlns="http://www.w3.org/2000/svg" width="483" height="483" style="shape-rendering:geometricPrecision;text-rendering:geometricPrecision;image-rendering:optimizeQuality;fill-rule:evenodd;clip-rule:evenodd"><path fill="#7bd484" d="M219.5-.5h43q143.583 18.9 202.5 151 15.993 41.219 17.5 85v11q-9.456 145.155-138 212.5-46.343 21.462-97 23.5h-14Q91.575 473.186 24 348.5q-19.754-41.037-24.5-86v-44Q17.275 79.494 143.5 19q36.748-15.435 76-19.5" style="opacity:.801"/><path fill="#103713" d="M226.5 1.5Q367.864-.705 445 116.5q68.997 123.94 0 248Q379.18 466.698 257.5 479 125.584 483.907 46 379.5q-74.693-112.752-23-238Q86.066 15.57 226.5 1.5" style="opacity:1"/><path fill="#7dd786" d="M221.5 19.5q146.914-4.621 217.5 123 51.668 115.053-15 222-75.366 104.048-204.5 96.5Q93.053 444.183 38 329.5q-43.805-108.138 16-208 60.334-89.016 167.5-102" style="opacity:1"/><path fill="#0f3612" d="M222.5 28.5q132.662-4.558 202.5 107 50.519 95.086 8 194Q381.69 432.776 267.5 451 144.825 461.802 69 365.5q-63.018-93.137-27-200Q81.459 69.038 180.5 37a566 566 0 0 1 42-8.5" style="opacity:1"/><path fill="#7fd988" d="M238.5 244.5h-48q-.356 1.937 1 3 1.948 12.203 14 15.5 13.809 1.645 27-2.5 1.035 5.985.5 12-21.64 8.748-42.5-1.5-11.514-8.259-13.5-22.5-5.33-29.592 21.5-42.5 19.247-5.251 33.5 8.5 7.91 13.944 6.5 30m21-40q10.88-1.082 20.5 4 21.697-11.461 31 11 .75 27.995.5 56h-13q.25-27.005-.5-54-4.013-7.596-11-3a481 481 0 0 0-.5 31h-13q.25-14.508-.5-29-.75-2.75-3.5-3.5-3.899-1.153-7.5.5-.75 28.995-.5 58h-13v-68a109 109 0 0 0 11-3" style="opacity:1"/><path fill="#488a4e" d="M152.5 206.5q7.272-1.971 15 0-.186.91-1 1-6.705-1.479-14-1" style="opacity:1"/><path fill="#7dd786" d="M152.5 206.5q7.295-.479 14 1a1022 1022 0 0 1-23 31.5q14.548 15.879 25 34.5-7.208 1.481-15 1a168 168 0 0 0-17-25 116 116 0 0 0-19 25q-7.5 2-15 0a215.7 215.7 0 0 1 25-35 918 918 0 0 1-24-33q8-2 16 0a418 418 0 0 0 16.5 22 386 386 0 0 1 16.5-22" style="opacity:1"/><path fill="#7fd988" d="M338.5 248.5q.231 15.484 15.5 15a62 62 0 0 0 9.5-1 785 785 0 0 0 1-56h14v67q-19.374 4.537-39 1.5-16.296-8.834-15-27.5v-41h13a442 442 0 0 0 1 42" style="opacity:1"/><path fill="#498a4f" d="M338.5 248.5a442 442 0 0 1-1-42h-13v41a442 442 0 0 1-1-42h15z" style="opacity:1"/><path fill="#47884d" d="M378.5 206.5h-14a785 785 0 0 1-1 56v-57q7.793-.481 15 1" style="opacity:1"/><path fill="#113914" d="M223.5 229.5v3q-16.27.492-32-1 3.372-13.612 17.5-15 12.286 1.042 14.5 13" style="opacity:1"/><path fill="#64b26b" d="M223.5 229.5q1.401 1.602 1 4a290 290 0 0 1-34-1q.186-.91 1-1 15.73 1.492 32 1z" style="opacity:1"/><path fill="#2c6130" d="M238.5 244.5a550 550 0 0 0-47 3q-1.356-1.063-1-3z" style="opacity:1"/><path fill="#498a4f" d="M168.5 273.5q.814.09 1 1-8.23 1.972-16 0 7.792.481 15-1" style="opacity:1"/></svg>