<svg xmlns="http://www.w3.org/2000/svg" xml:space="preserve" width="512" height="512"><path d="M-733.623 72.268c0 203.805-165.217 369.021-369.022 369.021s-369.021-165.216-369.021-369.021 165.216-369.021 369.021-369.021 369.022 165.216 369.022 369.02" style="fill:#000;fill-opacity:1;fill-rule:nonzero;stroke:none" transform="translate(1020.934 205.865)scale(.69373)"/><g style="fill:#fff;fill-opacity:1"><g style="fill:#fff;fill-opacity:1"><path d="M0 0c-15.515 0-28.053-7.979-34.655-13.246l1.902 10.135h-38.435l-13.539-62.71h40.182l6.863 36.491c3.355 4.268 8.928 9.765 15.411 9.763 10.591-.003 8.298-8.452 7.425-15.123l-5.434-30.157 39.177-.082s4.575 24.037 5.124 26.682C29.516-11.926 23.15 0 0 0" style="fill:#fff;fill-opacity:1;fill-rule:nonzero;stroke:none" transform="matrix(1 0 0 -1 420.064 226.11)"/></g><g style="fill:#fff;fill-opacity:1"><path d="M0 0c13.975 0 9.608-12.9 9.608-12.9h-24.023S-13.977 0 0 0m45.421-25.353s15.29 39.745-41.052 39.745S-56.34-25.353-56.34-25.353-63.328-54.26-8.736-54.26c54.594 0 52.412 21.348 52.412 21.348H3.495S.437-41.36-7.862-41.36c-8.3 0-13.539 3.11-11.357 16.007z" style="fill:#fff;fill-opacity:1;fill-rule:nonzero;stroke:none" transform="matrix(1 0 0 -1 288.7 240.377)"/></g><g style="fill:#fff;fill-opacity:1"><path d="M0 0h-63.766l-36.119-27.667L-120.98 0h-51.098l39.936-52.374-79.681-61.035h63.766l39.426 30.199 23.027-30.199h51.098L-76.373-58.5z" style="fill:#fff;fill-opacity:1;fill-rule:nonzero;stroke:none" transform="matrix(1 0 0 -1 278.379 202.923)"/></g><g style="fill:#fff;fill-opacity:1"><path d="M0 0c-13.3 0-25.741 3.677-36.371 10.059l-2.306-1.766-.68-.521h-31.432C-53.429-11.721-28.154-24.01.002-24.01s53.43 12.289 70.789 31.782h-38.56A70.4 70.4 0 0 0 0 0" style="fill:#fff;fill-opacity:1;fill-rule:nonzero;stroke:none" transform="matrix(1 0 0 -1 170.253 326.954)"/></g><g style="fill:#fff;fill-opacity:1"><path d="M0 0c0 15.094 4.741 29.073 12.793 40.561L4.521 51.41l-3.096 4.06h25.427c12.068 9.566 27.317 15.295 43.913 15.295 16.597 0 31.846-5.729 43.914-15.295h32.914c-17.216 23.805-45.202 39.307-76.826 39.307-52.344 0-94.778-42.432-94.778-94.777a94.3 94.3 0 0 1 10.076-42.515L5.573-27.572C1.985-19.1 0-9.782 0 0" style="fill:#fff;fill-opacity:1;fill-rule:nonzero;stroke:none" transform="matrix(1 0 0 -1 99.303 256.003)"/></g><g style="fill:#fff;fill-opacity:1"><path d="M0 0a57 57 0 0 0 6.904 3.191 95 95 0 0 1-2.568 7.454L-15.777-4.761a72 72 0 0 0 1.504-6.469C-10.559-7.021-5.723-3.127 0 0" style="fill:#fff;fill-opacity:1;fill-rule:nonzero;stroke:none" transform="matrix(1 0 0 -1 254.328 231.88)"/></g><g style="fill:#fff;fill-opacity:1"><path d="M0 0a70.4 70.4 0 0 0-5.511-10.408L9.724-30.389c4.574 5.872 8.443 12.311 11.548 19.169C12.292-9.184 4.766-5.101 0 0" style="fill:#fff;fill-opacity:1;fill-rule:nonzero;stroke:none" transform="matrix(1 0 0 -1 235.481 283.88)"/></g></g></svg>