<svg xmlns="http://www.w3.org/2000/svg" width="293.741" height="128.601" preserveAspectRatio="xMidYMid" viewBox="0 0 300.903 131.736"><path d="M44.417 116.44v-14.15h57.058v14.15zM.426 81.178 37.514 59.38.426 38.27l7.988-12.953 44.62 27.617v12.895L8.584 93.445z" style="fill-rule:evenodd;fill:#fff;stroke:#282828;stroke-linejoin:round;stroke-width:1px"/><path d="M300.28 52.725a97 97 0 0 1-.834 7.302l-3.06 18.08q-.834 4.73-2.712 9.458a28 28 0 0 1-5.355 8.553q-3.477 3.826-8.345 5.772t-9.735 1.947a21 21 0 0 1-5.563-.765q-2.784-.763-4.73-2.573-1.948-1.807-3.198-4.311a26.6 26.6 0 0 1-1.947-5.146l-6.676 40.194h-19.471l16.828-102.224h19.61l-1.53 9.318a31.3 31.3 0 0 1 3.826-4.45 21.4 21.4 0 0 1 4.728-3.477 19 19 0 0 1 5.425-1.948 29.5 29.5 0 0 1 5.632-.556q3.615 0 6.885 1.252 3.266 1.252 5.424 3.825a18.1 18.1 0 0 1 3.268 5.84 30.3 30.3 0 0 1 1.46 6.746q.346 3.479.07 7.163zm-20.653-4.451q-.906-2.014-2.921-3.13a8.93 8.93 0 0 0-4.381-1.112q-2.087 0-4.103.626a9.5 9.5 0 0 0-3.616 2.087 9.8 9.8 0 0 0-2.434 3.407 21.3 21.3 0 0 0-1.252 3.894L258 72.126a73 73 0 0 0-.487 3.408 16.2 16.2 0 0 0-.07 3.338q.139 1.601.487 3.199a9 9 0 0 0 1.182 2.92q.834 1.324 2.365 2.017a7.6 7.6 0 0 0 3.199.696q2.363.001 4.659-.904a11.3 11.3 0 0 0 4.033-2.712 12.5 12.5 0 0 0 2.643-4.103 25 25 0 0 0 1.32-4.52l2.922-18.081q.417-2.362.347-4.73-.07-2.361-.973-4.38zM225.594 86.59v16.134h-48.678V86.59h16.689l11.544-69.957h-12.517V.5h34.77l-14.325 86.09Zm-79.137 16.134 1.53-9.458a20.6 20.6 0 0 1-3.755 4.52 24.4 24.4 0 0 1-4.8 3.408 20.7 20.7 0 0 1-5.423 2.016 26.2 26.2 0 0 1-5.633.626q-3.618 0-6.884-1.252-3.27-1.25-5.424-3.824-2.159-2.573-3.27-5.911a31.2 31.2 0 0 1-1.46-6.815 40 40 0 0 1-.07-7.093q.278-3.614.975-7.232l2.92-18.081a48 48 0 0 1 2.713-9.597 26.5 26.5 0 0 1 5.424-8.483 23.5 23.5 0 0 1 8.345-5.703q4.797-1.946 9.666-1.947 2.92.002 5.633.765 2.711.766 4.728 2.573a14.4 14.4 0 0 1 3.269 4.312 21.4 21.4 0 0 1 1.808 5.146L163.425.5h19.47l-16.828 102.225Zm7.719-49.93a15.6 15.6 0 0 0-.487-3.27q-.417-1.597-1.252-2.85-.835-1.25-2.364-1.947a7.7 7.7 0 0 0-3.2-.696q-2.364.001-4.658.904a11.3 11.3 0 0 0-4.033 2.713 12.6 12.6 0 0 0-2.643 4.033 17.6 17.6 0 0 0-1.182 4.59l-3.06 18.08a23.2 23.2 0 0 0-.348 4.729q.069 2.367.974 4.38.903 2.019 2.92 3.13 2.016 1.114 4.382 1.113 2.084-.001 4.103-.626a9.5 9.5 0 0 0 3.616-2.086 10.7 10.7 0 0 0 2.503-3.408 14 14 0 0 0 1.182-3.894l3.06-18.08q.278-1.669.417-3.408t.07-3.407z" style="fill:red;fill-rule:evenodd;stroke:#282828;stroke-linejoin:round;stroke-width:1px"/></svg>